<?xml version="1.0" encoding="utf-8"?>
<!-- Generator: Adobe Illustrator 16.0.0, SVG Export Plug-In . SVG Version: 6.00 Build 0)  -->
<!DOCTYPE svg PUBLIC "-//W3C//DTD SVG 1.1//EN" "http://www.w3.org/Graphics/SVG/1.1/DTD/svg11.dtd">
<svg version="1.1" id="Layer_1" xmlns="http://www.w3.org/2000/svg" xmlns:xlink="http://www.w3.org/1999/xlink" x="0px" y="0px"
	 width="15px" height="15px" viewBox="0 0 15 15" enable-background="new 0 0 15 15" xml:space="preserve">
<path fill="#FFFFFF" d="M10.648,8.521c0,2.298-1.87,4.168-4.168,4.168c-2.299,0-4.169-1.87-4.169-4.168
	c0-2.299,1.87-4.168,4.169-4.168V2.5c-3.326,0-6.021,2.694-6.021,6.021c0,3.325,2.695,6.021,6.021,6.021
	c3.325,0,6.02-2.695,6.02-6.021H10.648z"/>
<polygon fill="#FFFFFF" points="8,0 8,2 11.544,2 5.396,8.147 6.811,9.562 13,3.372 13,7 15,7 15,0 "/>
</svg>
