<?xml version="1.0" encoding="utf-8"?>
<!-- Generator: Adobe Illustrator 16.0.0, SVG Export Plug-In . SVG Version: 6.00 Build 0)  -->
<!DOCTYPE svg PUBLIC "-//W3C//DTD SVG 1.1//EN" "http://www.w3.org/Graphics/SVG/1.1/DTD/svg11.dtd">
<svg version="1.1" id="Layer_1" xmlns="http://www.w3.org/2000/svg" xmlns:xlink="http://www.w3.org/1999/xlink" x="0px" y="0px"
	 width="40px" height="40px" viewBox="0 0 40 40" enable-background="new 0 0 40 40" xml:space="preserve">
<g>
	<path fill="none" d="M26,13.128C26,12.505,25.495,12,24.872,12h-9.744C14.505,12,14,12.505,14,13.128v3.744
		C14,17.495,14.505,18,15.128,18h9.744C25.495,18,26,17.495,26,16.872V13.128z"/>
	<path fill="#232323" d="M27.827,31.242L25.563,29h0.523C27.191,29,28,28.062,28,26.957V10.956C28,9.851,27.191,9,26.087,9H24V7.898
		C24,7.378,23.664,7,23.145,7h-1.117C21.508,7,21,7.378,21,7.898V9h-2V7.898C19,7.378,18.665,7,18.145,7h-1.117
		C16.508,7,16,7.378,16,7.898V9h-1.915C12.981,9,12,9.851,12,10.956v16.001C12,28.062,12.981,29,14.085,29h0.351l-2.264,2.242
		c-0.417,0.418-0.417,1.082,0,1.499c0.209,0.208,0.482,0.308,0.756,0.308c0.272,0,0.546-0.086,0.755-0.294L17.457,29h5.085
		l3.775,3.752c0.417,0.418,1.093,0.418,1.51,0C28.244,32.336,28.244,31.658,27.827,31.242z M26,16.872
		C26,17.495,25.495,18,24.872,18h-9.744C14.505,18,14,17.495,14,16.872v-3.744C14,12.505,14.505,12,15.128,12h9.744
		C25.495,12,26,12.505,26,13.128V16.872z M15.881,27.442c-0.96,0-1.738-0.778-1.738-1.738s0.778-1.738,1.738-1.738
		c0.961,0,1.738,0.778,1.738,1.738S16.842,27.442,15.881,27.442z M23.881,27.442c-0.96,0-1.738-0.778-1.738-1.738
		s0.778-1.738,1.738-1.738c0.961,0,1.738,0.778,1.738,1.738S24.842,27.442,23.881,27.442z"/>
</g>
</svg>
