<?xml version="1.0" standalone="no"?>
<!DOCTYPE svg PUBLIC "-//W3C//DTD SVG 1.1//EN" "http://www.w3.org/Graphics/SVG/1.1/DTD/svg11.dtd" >
<svg>
<metadata>
Created by FontForge 20090914 at Tue Jul 14 13:22:38 2015
 By www-data
Copyright &#194;&#169; 2013 by Stawix Ruecha. All rights reserved.
</metadata>
<defs>
<font id="SoinSansPro-Roman" horiz-adv-x="597" >
  <font-face 
    font-family="Soin Sans Pro Roman"
    font-weight="400"
    font-stretch="normal"
    units-per-em="1000"
    panose-1="2 0 0 0 0 0 0 0 0 0"
    ascent="750"
    descent="-250"
    x-height="400"
    cap-height="700"
    bbox="-44 -308.001 1127 930"
    underline-thickness="36"
    underline-position="-64"
    unicode-range="U+000D-U+FB02"
  />
<missing-glyph horiz-adv-x="500" 
d="M0 700h500v-700h-500v700zM420 650h-340l170 -255zM450 95v510l-170 -255zM420 50l-170 255l-170 -255h340zM50 95l170 255l-170 255v-510z" />
    <glyph glyph-name="fi" unicode="fi" horiz-adv-x="498" 
d="M348 332h-180.001v-332h-75v332h-75v68h75v71c0 56 15.5 101.167 46.5 135.5s77.833 51.5 140.5 51.5c11.333 0 23.833 -0.5 37.5 -1.5s24.167 -2.16699 31.5 -3.5v-67c-8 1.33301 -17.667 2.33301 -29 3s-22.666 1 -33.999 1c-42.667 0 -73 -10.167 -91 -30.5
s-27 -49.833 -27 -88.5v-71h255v-400h-75v332z" />
    <glyph glyph-name="fl" unicode="fl" horiz-adv-x="532" 
d="M458 0h-75.001v583c-9.33301 1.33301 -21.5 2.66602 -36.5 3.99902s-31.167 2 -48.5 2c-46 0 -79.167 -10.167 -99.5 -30.5s-30.5 -51.166 -30.5 -92.499v-66h120v-68h-120v-332h-75v332h-75v68h75v66c0 59.333 17.333 106 52 140s86.334 51 155.001 51
c32 0 61.667 -1.83301 89 -5.5s50.333 -7.5 69 -11.5v-640z" />
    <glyph glyph-name="f_f_j" unicode="ffj" horiz-adv-x="797" 
d="M647 332l-188 -0.000976562v-332h-75v332h-216v-332h-75v332h-75v68h75v87c0 24.667 3.16699 47.334 9.5 68.001s15.833 38.5 28.5 53.5s28.667 26.833 48 35.5s41.666 13 66.999 13c9.33301 0 18.666 -0.333008 27.999 -1s17.666 -1.66699 24.999 -3v-68
c-7.33301 1.33301 -15 2.33301 -23 3s-16 1 -24 1c-31.333 0 -53.166 -10 -65.499 -30s-18.5 -45.333 -18.5 -76v-83h216v71c0 56 15.5 101.167 46.5 135.5s77.833 51.5 140.5 51.5c11.333 0 23.833 -0.5 37.5 -1.5s24.167 -2.16699 31.5 -3.5v-67
c-8 1.33301 -17.667 2.33301 -29 3s-22.666 1 -33.999 1c-42.667 0 -73 -10.167 -91 -30.5s-27 -49.833 -27 -88.5v-71h263v-490c0 -55.333 -12 -97.5 -36 -126.5s-60.667 -43.5 -110 -43.5c-8 0 -16.167 0.5 -24.5 1.5s-16.166 2.5 -23.499 4.5v67
c7.33301 -1.33301 13.5 -2.5 18.5 -3.5s11.833 -1.5 20.5 -1.5c28.667 0 49.167 8.66699 61.5 26s18.5 42.333 18.5 75v423z" />
    <glyph glyph-name="f_f_i" unicode="ffi" horiz-adv-x="797" 
d="M384 471c0 56 15.501 101.166 46.501 135.499s77.833 51.5 140.5 51.5c11.333 0 23.833 -0.5 37.5 -1.5s24.167 -2.16699 31.5 -3.5v-67c-8 1.33301 -17.667 2.33301 -29 3s-22.666 1 -33.999 1c-42.667 0 -73 -10.167 -91 -30.5s-27 -49.833 -27 -88.5v-71h263v-400h-75
v332h-188v-332h-75v332h-216v-332h-75v332h-75v68h75v87c0 24.667 3.16699 47.334 9.5 68.001s15.833 38.5 28.5 53.5s28.667 26.833 48 35.5s41.666 13 66.999 13c9.33301 0 18.666 -0.333008 27.999 -1s17.666 -1.66699 24.999 -3v-68c-7.33301 1.33301 -15 2.33301 -23 3
s-16 1 -24 1c-31.333 0 -53.166 -10 -65.499 -30s-18.5 -45.333 -18.5 -76v-83h216v71z" />
    <glyph glyph-name="f_f_l" unicode="ffl" horiz-adv-x="823" 
d="M384 466c0 59.333 17.334 105.999 52.001 139.999s86.334 51 155.001 51c32 0 61.667 -1.83301 89 -5.5s50.333 -7.5 69 -11.5v-640h-75v583c-9.33301 1.33301 -21.5 2.66602 -36.5 3.99902s-31.167 2 -48.5 2c-46 0 -79.167 -10.167 -99.5 -30.5
s-30.5 -51.166 -30.5 -92.499v-66h120v-68h-120v-332h-75v332h-216v-332h-75v332h-75v68h75v87c0 24.667 3.16699 47.334 9.5 68.001s15.833 38.5 28.5 53.5s28.667 26.833 48 35.5s41.666 13 66.999 13c9.33301 0 18.666 -0.333008 27.999 -1s17.666 -1.66699 24.999 -3
v-68c-7.33301 1.33301 -15 2.33301 -23 3s-16 1 -24 1c-31.333 0 -53.166 -10 -65.499 -30s-18.5 -45.333 -18.5 -76v-83h216v66z" />
    <glyph glyph-name="f_f_b" unicode="ffb" horiz-adv-x="1123" 
d="M384 466c0 59.333 17.333 106.001 52 140.001s86.334 51 155.001 51c32 0 61.667 -1.83301 89 -5.5s50.333 -7.5 69 -11.5v-301c12.667 19.333 30.834 36 54.501 50s53.5 21 89.5 21c28 0 53.5 -5.33301 76.5 -16s42.833 -25.334 59.5 -44.001s29.5 -40.834 38.5 -66.501
s13.5 -53.167 13.5 -82.5c0 -32 -4.83301 -61 -14.5 -87s-23 -48 -40 -66s-37.167 -32 -60.5 -42s-49 -15 -77 -15c-30 0 -57.667 6.66699 -83 20s-44.333 31 -57 53l-5 -64h-70v583c-9.33301 1.33301 -21.5 2.66602 -36.5 3.99902s-31.167 2 -48.5 2
c-46 0 -79.167 -10.167 -99.5 -30.5s-30.5 -51.166 -30.5 -92.499v-66h120v-68h-120v-332h-75v332h-216v-332h-75v332h-75v68h75v87c0 24.667 3.16699 47.334 9.5 68.001s15.833 38.5 28.5 53.5s28.667 26.833 48 35.5s41.666 13 66.999 13
c9.33301 0 18.666 -0.333008 27.999 -1s17.666 -1.66699 24.999 -3v-68c-7.33301 1.33301 -15 2.33301 -23 3s-16 1 -24 1c-31.333 0 -53.166 -10 -65.499 -30s-18.5 -45.333 -18.5 -76v-83h216v66zM880 57.001c20 0 37.834 3.66699 53.501 11s29 17.5 40 30.5
s19.333 28.167 25 45.5s8.5 36.333 8.5 57c0 20 -3 38.5 -9 55.5s-14.667 32 -26 45s-24.833 23.167 -40.5 30.5s-32.834 11 -51.501 11c-20 0 -38.333 -3.5 -55 -10.5s-30.667 -16.833 -42 -29.5s-20.166 -27.667 -26.499 -45s-9.5 -36.333 -9.5 -57
s3.16699 -39.667 9.5 -57s15.166 -32.5 26.499 -45.5s25.333 -23.167 42 -30.5s35 -11 55 -11z" />
    <glyph glyph-name="f_f_h" unicode="ffh" horiz-adv-x="1119" 
d="M384 466c0 59.333 17.333 106.002 52 140.002s86.334 51 155.001 51c32 0 61.667 -1.83301 89 -5.5s50.333 -7.5 69 -11.5v-291c13.333 14 32 27.667 56 41s54 20 90 20c23.333 0 44.833 -3.83301 64.5 -11.5s36.5 -18.834 50.5 -33.501s24.833 -32.334 32.5 -53.001
s11.5 -44 11.5 -70v-242h-75v230c0 36 -8.5 63.667 -25.5 83s-42.167 29 -75.5 29c-31.333 0 -57.666 -7.33301 -78.999 -22s-38 -30.334 -50 -47.001v-273h-75v583c-9.33301 1.33301 -21.5 2.66602 -36.5 3.99902s-31.167 2 -48.5 2c-46 0 -79.167 -10.167 -99.5 -30.5
s-30.5 -51.166 -30.5 -92.499v-66h120v-68h-120v-332h-75v332h-216v-332h-75v332h-75v68h75v87c0 24.667 3.16699 47.334 9.5 68.001s15.833 38.5 28.5 53.5s28.667 26.833 48 35.5s41.666 13 66.999 13c9.33301 0 18.666 -0.333008 27.999 -1s17.666 -1.66699 24.999 -3
v-68c-7.33301 1.33301 -15 2.33301 -23 3s-16 1 -24 1c-31.333 0 -53.166 -10 -65.499 -30s-18.5 -45.333 -18.5 -76v-83h216v66z" />
    <glyph glyph-name="f_f_k" unicode="ffk" horiz-adv-x="1043" 
d="M384 466c0 59.333 17.334 105.999 52.001 139.999s86.334 51 155.001 51c32 0 61.667 -1.83301 89 -5.5s50.333 -7.5 69 -11.5v-393l181 153h96l-189 -162l198 -238h-86l-162 197l-38 -33v-164h-75v583c-9.33301 1.33301 -21.5 2.66602 -36.5 3.99902s-31.167 2 -48.5 2
c-46 0 -79.167 -10.167 -99.5 -30.5s-30.5 -51.166 -30.5 -92.499v-66h120v-68h-120v-332h-75v332h-216v-332h-75v332h-75v68h75v87c0 24.667 3.16699 47.334 9.5 68.001s15.833 38.5 28.5 53.5s28.667 26.833 48 35.5s41.666 13 66.999 13
c9.33301 0 18.666 -0.333008 27.999 -1s17.666 -1.66699 24.999 -3v-68c-7.33301 1.33301 -15 2.33301 -23 3s-16 1 -24 1c-31.333 0 -53.166 -10 -65.499 -30s-18.5 -45.333 -18.5 -76v-83h216v66z" />
    <glyph glyph-name="f_j" unicode="fj" horiz-adv-x="498" 
d="M348 332h-180.002v-332h-75v332h-75v68h75v71c0 56 15.5 101.167 46.5 135.5s77.833 51.5 140.5 51.5c11.333 0 23.833 -0.5 37.5 -1.5s24.167 -2.16699 31.5 -3.5v-67c-8 1.33301 -17.667 2.33301 -29 3s-22.666 1 -33.999 1c-42.667 0 -73 -10.167 -91 -30.5
s-27 -49.833 -27 -88.5v-71h255v-490c0 -55.333 -12 -97.5 -36 -126.5s-60.667 -43.5 -110 -43.5c-8 0 -16.167 0.5 -24.5 1.5s-16.166 2.5 -23.499 4.5v67c7.33301 -1.33301 13.5 -2.5 18.5 -3.5s11.833 -1.5 20.5 -1.5c28.667 0 49.167 8.66699 61.5 26
s18.5 42.333 18.5 75v423z" />
    <glyph glyph-name="f_t" unicode="ft" horiz-adv-x="618" 
d="M168 400l217.001 -0.000976562l14 142h60v-142h124v-68h-124v-202c0 -29.333 5.83301 -48.5 17.5 -57.5s28.834 -13.5 51.501 -13.5c22 0 42 2 60 6v-64c-22 -6.66699 -46.333 -10 -73 -10c-18 0 -35 2.16699 -51 6.5s-29.833 11.666 -41.5 21.999s-21 23.833 -28 40.5
s-10.5 37.334 -10.5 62.001v210h-216v-332h-75v332h-75v68h75v87c0 24.667 3.16699 47.334 9.5 68.001s15.833 38.5 28.5 53.5s28.667 26.833 48 35.5s41.666 13 66.999 13c9.33301 0 18.666 -0.333008 27.999 -1s17.666 -1.66699 24.999 -3v-68
c-7.33301 1.33301 -15 2.33301 -23 3s-16 1 -24 1c-31.333 0 -53.166 -10 -65.499 -30s-18.5 -45.333 -18.5 -76v-83z" />
    <glyph glyph-name="t_t" unicode="tt" horiz-adv-x="632" 
d="M172 130c0 -29.333 5.83105 -48.5 17.498 -57.5s28.834 -13.5 51.501 -13.5c22 0 42 2 60 6v-64c-22 -6.66699 -46.333 -10 -73 -10c-18 0 -35 2.16699 -51 6.5s-29.833 11.666 -41.5 21.999s-21 23.833 -28 40.5s-10.5 37.334 -10.5 62.001v210h-83v68h84l14 142h60
v-142h227l14 142h60v-142h124v-68h-124v-202c0 -29.333 5.83301 -48.5 17.5 -57.5s28.834 -13.5 51.501 -13.5c22 0 42 2 60 6v-64c-22 -6.66699 -46.333 -10 -73 -10c-18 0 -35 2.16699 -51 6.5s-29.833 11.666 -41.5 21.999s-21 23.833 -28 40.5
s-10.5 37.334 -10.5 62.001v210h-226v-202z" />
    <glyph glyph-name="f_f" unicode="ff" horiz-adv-x="604" 
d="M168 0l-74.9971 -0.000976562v332h-75v68h75v87c0 24.667 3.16699 47.334 9.5 68.001s15.833 38.5 28.5 53.5s28.667 26.833 48 35.5s41.666 13 66.999 13c9.33301 0 18.666 -0.333008 27.999 -1s17.666 -1.66699 24.999 -3v-68c-7.33301 1.33301 -15 2.33301 -23 3
s-16 1 -24 1c-31.333 0 -53.166 -10 -65.499 -30s-18.5 -45.333 -18.5 -76v-83h216v87c0 56.667 14.333 99.167 43 127.5s71.334 42.5 128.001 42.5c9.33301 0 18.666 -0.333008 27.999 -1s17.666 -1.66699 24.999 -3v-68c-7.33301 1.33301 -15 2.33301 -23 3s-16 1 -24 1
c-36 0 -62 -8.33301 -78 -25s-24 -43.667 -24 -81v-83h120v-68h-120v-332h-75v332h-216v-332z" />
    <glyph glyph-name="f_b" unicode="fb" horiz-adv-x="832" 
d="M589 57c20 0 37.834 3.66699 53.501 11s29 17.5 40 30.5s19.333 28.167 25 45.5s8.5 36.333 8.5 57c0 20 -3 38.5 -9 55.5s-14.667 32 -26 45s-24.833 23.167 -40.5 30.5s-32.834 11 -51.501 11c-20 0 -38.333 -3.5 -55 -10.5s-30.667 -16.833 -42 -29.5
s-20.166 -27.667 -26.499 -45s-9.5 -36.333 -9.5 -57s3.16699 -39.667 9.5 -57s15.166 -32.5 26.499 -45.5s25.333 -23.167 42 -30.5s35 -11 55 -11zM458.001 339c12.667 19.333 30.832 36.002 54.499 50.002s53.5 21 89.5 21c28 0 53.5 -5.33301 76.5 -16
s42.833 -25.334 59.5 -44.001s29.5 -40.834 38.5 -66.501s13.5 -53.167 13.5 -82.5c0 -32 -4.83301 -61 -14.5 -87s-23 -48 -40 -66s-37.167 -32 -60.5 -42s-49 -15 -77 -15c-30 0 -57.667 6.66699 -83 20s-44.333 31 -57 53l-5 -64h-70v583
c-9.33301 1.33301 -21.5 2.66602 -36.5 3.99902s-31.167 2 -48.5 2c-46 0 -79.167 -10.167 -99.5 -30.5s-30.5 -51.166 -30.5 -92.499v-66h120v-68h-120v-332h-75v332h-75v68h75v66c0 59.333 17.333 106 52 140s86.334 51 155.001 51c32 0 61.667 -1.83301 89 -5.5
s50.333 -7.5 69 -11.5v-301z" />
    <glyph glyph-name="f_h" unicode="fh" horiz-adv-x="828" 
d="M458 349c13.333 14 31.998 27.6699 55.998 41.0029s54 20 90 20c23.333 0 44.833 -3.83301 64.5 -11.5s36.5 -18.834 50.5 -33.501s24.833 -32.334 32.5 -53.001s11.5 -44 11.5 -70v-242h-75v230c0 36 -8.5 63.667 -25.5 83s-42.167 29 -75.5 29
c-31.333 0 -57.666 -7.33301 -78.999 -22s-38 -30.334 -50 -47.001v-273h-75v583c-9.33301 1.33301 -21.5 2.66602 -36.5 3.99902s-31.167 2 -48.5 2c-46 0 -79.167 -10.167 -99.5 -30.5s-30.5 -51.166 -30.5 -92.499v-66h120v-68h-120v-332h-75v332h-75v68h75v66
c0 59.333 17.333 106 52 140s86.334 51 155.001 51c32 0 61.667 -1.83301 89 -5.5s50.333 -7.5 69 -11.5v-291z" />
    <glyph glyph-name="f_k" unicode="fk" horiz-adv-x="752" 
d="M458 247l180.999 153h96l-189 -162l198 -238h-86l-162 197l-38 -33v-164h-75v583c-9.33301 1.33301 -21.5 2.66602 -36.5 3.99902s-31.167 2 -48.5 2c-46 0 -79.167 -10.167 -99.5 -30.5s-30.5 -51.166 -30.5 -92.499v-66h120v-68h-120v-332h-75v332h-75v68h75v66
c0 59.333 17.333 106 52 140s86.334 51 155.001 51c32 0 61.667 -1.83301 89 -5.5s50.333 -7.5 69 -11.5v-393z" />
    <glyph glyph-name=".notdef" horiz-adv-x="500" 
d="M0 700h500v-700h-500v700zM420 650h-340l170 -255zM450 95v510l-170 -255zM420 50l-170 255l-170 -255h340zM50 95l170 255l-170 255v-510z" />
    <glyph glyph-name="NULL" horiz-adv-x="0" 
 />
    <glyph glyph-name="NULL" horiz-adv-x="0" 
 />
    <glyph glyph-name="nonmarkingreturn" unicode="&#xd;" horiz-adv-x="229" 
 />
    <glyph glyph-name="space" unicode=" " horiz-adv-x="229" 
 />
    <glyph glyph-name="exclam" unicode="!" horiz-adv-x="285" 
d="M179 195h-72l-3 505h78zM86 46c0 15.333 5.5 28.5 16.5 39.5s24.167 16.5 39.5 16.5s28.5 -5.5 39.5 -16.5s16.5 -24.167 16.5 -39.5s-5.5 -28.5 -16.5 -39.5s-24.167 -16.5 -39.5 -16.5s-28.5 5.5 -39.5 16.5s-16.5 24.167 -16.5 39.5z" />
    <glyph glyph-name="quotedbl" unicode="&#x22;" horiz-adv-x="303" 
d="M119 700l-11 -240h-57l-9 240h77zM261 700l-11 -240h-57l-9 240h77z" />
    <glyph glyph-name="numbersign" unicode="#" 
d="M73 490h96l27 210h76l-28 -210h143l28 210h75l-28 -210h80v-63h-88l-18 -142h87v-63h-95l-28 -222h-75l28 222h-143l-28 -222h-76l29 222h-81v63h89l18 142h-88v63zM217 285h146l18 142h-146z" />
    <glyph glyph-name="dollar" unicode="$" 
d="M332 707c24.667 -3.33301 47.834 -9.66602 69.501 -18.999s41.167 -21.333 58.5 -36s31.833 -31.667 43.5 -51s19.5 -40.666 23.5 -63.999h-81c-5.33301 24 -18.166 44.333 -38.499 61s-45.5 27.334 -75.5 32.001v-243c30 -11.333 57.333 -22.833 82 -34.5
s45.667 -25.334 63 -41.001s30.833 -33.5 40.5 -53.5s14.5 -44 14.5 -72c0 -28.667 -5.5 -54.167 -16.5 -76.5s-25.667 -41.666 -44 -57.999s-39.5 -29.5 -63.5 -39.5s-49.333 -16.333 -76 -19v-93h-65v93c-58.667 4.66699 -107.334 22.167 -146.001 52.5
s-62.334 70.166 -71.001 119.499h81c5.33301 -28 19.833 -50.5 43.5 -67.5s54.5 -27.167 92.5 -30.5v262c-29.333 10 -56.333 20.5 -81 31.5s-46 23.833 -64 38.5s-32 32.5 -42 53.5s-15 46.5 -15 76.5c0 20.667 4 41.167 12 61.5s20.333 38.666 37 54.999
s37.667 30.166 63 41.499s55.333 18.333 90 21v92h65v-93zM145 530c0 -17.333 2.99902 -31.998 8.99902 -43.998s14.333 -22.5 25 -31.5s23.5 -17 38.5 -24s31.5 -13.833 49.5 -20.5v224c-20 -2 -37.667 -6.5 -53 -13.5s-28.166 -15.333 -38.499 -25
s-18 -20.334 -23 -32.001s-7.5 -22.834 -7.5 -33.501zM450.999 182.002c0 31.333 -10.832 56 -32.499 74s-50.5 34 -86.5 48v-236c15.333 2 30.166 6 44.499 12s27 13.833 38 23.5s19.833 21 26.5 34s10 27.833 10 44.5z" />
    <glyph glyph-name="percent" unicode="%" horiz-adv-x="739" 
d="M37 553c0 22.667 3.5 43.667 10.5 63s17.167 36 30.5 50s29.166 25 47.499 33s39.166 12 62.499 12c22.667 0 43.334 -4 62.001 -12s34.5 -19 47.5 -33s23 -30.667 30 -50s10.5 -40.333 10.5 -63s-3.5 -43.667 -10.5 -63s-17 -36 -30 -50s-28.833 -25 -47.5 -33
s-39.334 -12 -62.001 -12c-23.333 0 -44.166 4 -62.499 12s-34.166 19 -47.499 33s-23.5 30.667 -30.5 50s-10.5 40.333 -10.5 63zM272 553c0 28 -7.16699 51.167 -21.5 69.5s-35.166 27.5 -62.499 27.5s-48.166 -9.16699 -62.499 -27.5s-21.5 -41.5 -21.5 -69.5
s7.16699 -51.167 21.5 -69.5s35.166 -27.5 62.499 -27.5s48.166 9.16699 62.499 27.5s21.5 41.5 21.5 69.5zM194 -23l-60 35l405 702l61 -34zM401 147c0 22.667 3.5 43.667 10.5 63s17 36 30 50s28.667 25 47 33s39.166 12 62.499 12c22.667 0 43.334 -4 62.001 -12
s34.667 -19 48 -33s23.5 -30.667 30.5 -50s10.5 -40.333 10.5 -63s-3.5 -43.667 -10.5 -63s-17.167 -36 -30.5 -50s-29.333 -25 -48 -33s-39.334 -12 -62.001 -12c-23.333 0 -44.166 4 -62.499 12s-34 19 -47 33s-23 30.667 -30 50s-10.5 40.333 -10.5 63zM636 147
c0 28 -7.33301 51.167 -22 69.5s-35.667 27.5 -63 27.5s-48.166 -9.16699 -62.499 -27.5s-21.5 -41.5 -21.5 -69.5s7.16699 -51.167 21.5 -69.5s35.166 -27.5 62.499 -27.5s48.333 9.16699 63 27.5s22 41.5 22 69.5z" />
    <glyph glyph-name="ampersand" unicode="&#x26;" horiz-adv-x="646" 
d="M50 181c0 24 3.67188 45.502 11.0049 64.502s17.166 36.5 29.499 52.5s26.5 30.5 42.5 43.5s32.667 25.167 50 36.5c-10 10 -20.5 21.333 -31.5 34s-20.833 26.5 -29.5 41.5s-15.834 31 -21.501 48s-8.5 34.833 -8.5 53.5c0 15.333 3.33301 32 10 50
s17.167 34.833 31.5 50.5s32.666 28.667 54.999 39s49.5 15.5 81.5 15.5c28.667 0 53.667 -4.5 75 -13.5s39 -21 53 -36s24.5 -32.167 31.5 -51.5s10.5 -39.333 10.5 -60c0 -22.667 -4.16699 -42.834 -12.5 -60.501s-19.333 -33.667 -33 -48
s-29.334 -27.666 -47.001 -39.999s-35.834 -24.166 -54.501 -35.499l175 -188c11.333 19.333 20 40.666 26 63.999s9 49 9 77v82h77v-82c0 -38 -5.16699 -73.833 -15.5 -107.5s-24.833 -64.167 -43.5 -91.5l110 -119h-96l-60 63c-23.333 -22.667 -51 -40.334 -83 -53.001
s-69.333 -19 -112 -19c-34 0 -65.167 5.16699 -93.5 15.5s-52.5 24.166 -72.5 41.499s-35.667 37.5 -47 60.5s-17 47.167 -17 72.5zM280.005 60.002c31.333 0 58.832 5.16797 82.499 15.501s43.834 24.5 60.501 42.5l-192 208c-28 -18 -52.167 -38.333 -72.5 -61
s-30.5 -50.667 -30.5 -84c0 -16.667 4 -32.334 12 -47.001s19 -27.5 33 -38.5s30.167 -19.667 48.5 -26s37.833 -9.5 58.5 -9.5zM245.004 417.003l42.5029 27.5c14.333 9.66699 27 19.834 38 30.501s20 22 27 34s10.5 25 10.5 39c0 11.333 -1.83301 22.5 -5.5 33.5
s-9.33398 20.833 -17.001 29.5s-17.334 15.667 -29.001 21s-25.5 8 -41.5 8c-17.333 0 -32.333 -2.66699 -45 -8s-23 -12.333 -31 -21s-14 -18 -18 -28s-6 -19.333 -6 -28c0 -24.667 6.16699 -47.834 18.5 -69.501s31.166 -44.5 56.499 -68.5z" />
    <glyph glyph-name="quotesingle" unicode="'" horiz-adv-x="161" 
d="M119 700l-11 -240h-57l-9 240h77z" />
    <glyph glyph-name="parenleft" unicode="(" horiz-adv-x="296" 
d="M80 222c0 98.667 11.5 190.834 34.5 276.501s53.5 163.167 91.5 232.5l63 -36c-16.667 -34 -32 -68.167 -46 -102.5s-26.167 -70.5 -36.5 -108.5s-18.333 -78.333 -24 -121s-8.5 -89.667 -8.5 -141s2.83301 -98.333 8.5 -141s13.667 -82.834 24 -120.501
s22.5 -73.667 36.5 -108s29.333 -68.5 46 -102.5l-63 -37c-38 70 -68.5 147.833 -91.5 233.5s-34.5 177.5 -34.5 275.5z" />
    <glyph glyph-name="parenright" unicode=")" horiz-adv-x="296" 
d="M216 222c0 -98 -11.667 -189.833 -35 -275.5s-53.666 -163.5 -90.999 -233.5l-63 37c16.667 34 32 68.167 46 102.5s26 70.333 36 108s17.833 77.834 23.5 120.501s8.5 89.667 8.5 141s-2.83301 98.333 -8.5 141s-13.5 83 -23.5 121s-22 74.167 -36 108.5
s-29.333 68.5 -46 102.5l63 36c37.333 -69.333 67.666 -146.833 90.999 -232.5s35 -177.834 35 -276.501z" />
    <glyph glyph-name="asterisk" unicode="*" horiz-adv-x="410" 
d="M174 700l62 -0.000976562l-5 -131l123 45l20 -59l-125 -38c2 -3.33301 7 -10.166 15 -20.499l25.5 -32.5l25 -32c7.66699 -10 12.167 -16 13.5 -18l-49 -36l-74 108l-74 -108l-50 36l80 103l-125 38l20 59l123 -45z" />
    <glyph glyph-name="plus" unicode="+" 
d="M335 513v-194h192v-68h-192v-195h-73v195h-193v68h193v194h73z" />
    <glyph glyph-name="comma" unicode="," horiz-adv-x="231" 
d="M173 81l-78 -246l-55 19l53 248z" />
    <glyph glyph-name="hyphen" unicode="-" horiz-adv-x="392" 
d="M43 346h306v-68h-306v68z" />
    <glyph glyph-name="period" unicode="." horiz-adv-x="231" 
d="M60 46c0 15.333 5.33301 28.5 16 39.5s23.667 16.5 39 16.5s28.5 -5.5 39.5 -16.5s16.5 -24.167 16.5 -39.5s-5.5 -28.5 -16.5 -39.5s-24.167 -16.5 -39.5 -16.5s-28.333 5.5 -39 16.5s-16 24.167 -16 39.5z" />
    <glyph glyph-name="slash" unicode="/" horiz-adv-x="574" 
d="M59 -122l-66 39l521 903l67 -36z" />
    <glyph glyph-name="zero" unicode="0" horiz-adv-x="624" 
d="M312 -8c-37.333 0 -72 8.33301 -104 25s-59.5 40.5 -82.5 71.5s-41 68.667 -54 113s-19.5 93.833 -19.5 148.5s6.5 104 19.5 148s31 81.5 54 112.5s50.5 55 82.5 72s66.667 25.5 104 25.5s72 -8.5 104 -25.5s59.5 -41 82.5 -72s41 -68.5 54 -112.5
s19.5 -93.333 19.5 -148s-6.5 -104.167 -19.5 -148.5s-31 -82 -54 -113s-50.5 -54.833 -82.5 -71.5s-66.667 -25 -104 -25zM312 66c25.333 0 48.833 6.5 70.5 19.5s40.5 31.833 56.5 56.5s28.5 54.5 37.5 89.5s13.5 74.5 13.5 118.5c0 43.333 -4.5 82.5 -13.5 117.5
s-21.5 64.667 -37.5 89s-34.833 43.166 -56.5 56.499s-45.167 20 -70.5 20s-48.833 -6.66699 -70.5 -20s-40.5 -32.166 -56.5 -56.499s-28.5 -54 -37.5 -89s-13.5 -74.167 -13.5 -117.5c0 -44 4.5 -83.5 13.5 -118.5s21.5 -64.833 37.5 -89.5s34.833 -43.5 56.5 -56.5
s45.167 -19.5 70.5 -19.5z" />
    <glyph glyph-name="one" unicode="1" horiz-adv-x="375" 
d="M198 596l-150 -92l-36 65l243 150h24v-719h-81v596z" />
    <glyph glyph-name="two" unicode="2" horiz-adv-x="557" 
d="M511 75l0.000976562 -74.998h-471v21l260 288l35.5 39c13 14.667 25.167 30.334 36.5 47.001s21 34 29 52s12 36 12 54c0 18.667 -3 36 -9 52s-14.833 30 -26.5 42s-25.667 21.333 -42 28s-34.5 10 -54.5 10c-42.667 0 -76.834 -12.167 -102.501 -36.5
s-38.5 -57.833 -38.5 -100.5c0 -2 0.166992 -4.16699 0.5 -6.5s0.5 -4.5 0.5 -6.5h-80c-0.666992 3.33301 -1 6.66602 -1 9.99902v10c0 28.667 5.5 55.667 16.5 81s26.167 47.166 45.5 65.499s42.333 32.833 69 43.5s55.667 16 87 16c33.333 0 63.333 -5.5 90 -16.5
s49.5 -26 68.5 -45s33.5 -41.5 43.5 -67.5s15 -54 15 -84c0 -24 -4.16699 -46.833 -12.5 -68.5s-19 -42.334 -32 -62.001s-27.333 -38.167 -43 -55.5l-44.5 -49l-170 -186h318z" />
    <glyph glyph-name="three" unicode="3" horiz-adv-x="555" 
d="M261 399c45.333 1.33301 79.8301 12.335 103.497 33.002s35.5 50.667 35.5 90c0 31.333 -11.5 57.666 -34.5 78.999s-53.833 32 -92.5 32s-70.5 -10.167 -95.5 -30.5s-38.167 -49.5 -39.5 -87.5h-81c0.666992 29.333 6.5 55.833 17.5 79.5s26 44 45 61
s41.5 30.167 67.5 39.5s54.667 14 86 14c32.667 0 62 -4.83301 88 -14.5s48 -22.834 66 -39.501s31.833 -36.167 41.5 -58.5s14.5 -46.166 14.5 -71.499c0 -43.333 -10.5 -77.833 -31.5 -103.5s-46.167 -44.167 -75.5 -55.5c16 -4.66699 31.333 -11.667 46 -21
s27.834 -21.166 39.501 -35.499s20.834 -31.166 27.501 -50.499s10 -41.333 10 -66c0 -27.333 -5.33301 -53.166 -16 -77.499s-25.834 -45.833 -45.501 -64.5s-43.667 -33.334 -72 -44.001s-60.5 -16 -96.5 -16c-30 0 -59.167 4.66699 -87.5 14s-53.333 22.666 -75 39.999
s-39 38.333 -52 63s-19.5 52.667 -19.5 84h80c0.666992 -20 5.33398 -37.667 14.001 -53s20 -28.333 34 -39s30 -18.834 48 -24.501s37 -8.5 57 -8.5c22.667 0 43.167 3.5 61.5 10.5s33.833 16.5 46.5 28.5s22.334 25.667 29.001 41s10 31.666 10 48.999
c0 44.667 -14 77.5 -42 98.5s-65.333 32.5 -112 34.5v70z" />
    <glyph glyph-name="four" unicode="4" horiz-adv-x="561" 
d="M539 202v-74h-90v-128h-81v128h-352v29l391 565h42v-520h90zM368 543l-115.5 -170.5l-115.5 -170.5h231v341z" />
    <glyph glyph-name="five" unicode="5" horiz-adv-x="555" 
d="M513 226c0 -34 -5.66406 -65.3311 -16.9971 -93.998s-27.333 -53.5 -48 -74.5s-45.834 -37.333 -75.501 -49s-62.5 -17.5 -98.5 -17.5c-30 0 -59.167 4.66699 -87.5 14s-53.5 22.666 -75.5 39.999s-39.5 38.333 -52.5 63s-19.5 52.667 -19.5 84h80
c1.33301 -19.333 6.33301 -36.833 15 -52.5s20 -28.834 34 -39.501s30 -18.834 48 -24.501s37 -8.5 57 -8.5c48.667 0 87 14.5 115 43.5s42 67.5 42 115.5c0 20.667 -2.83301 40.334 -8.5 59.001s-14.834 35 -27.501 49s-29.334 25.167 -50.001 33.5s-45.667 12.5 -75 12.5
h-201l15 320h385v-76h-309l-8 -168h118c41.333 0 77.333 -5.66699 108 -17s56 -27 76 -47s35 -44.167 45 -72.5s15 -59.5 15 -93.5z" />
    <glyph glyph-name="six" unicode="6" horiz-adv-x="569" 
d="M430 553c-6 25.333 -19.833 45.166 -41.5 59.499s-46.167 21.5 -73.5 21.5c-35.333 0 -64.666 -9 -87.999 -27s-42.166 -40.667 -56.499 -68s-24.5 -57.5 -30.5 -90.5s-9.33301 -64.5 -10 -94.5c15.333 35.333 39.333 64 72 86s71 33 115 33c31.333 0 60.333 -6 87 -18
s49.5 -28.667 68.5 -50s33.833 -46.666 44.5 -75.999s16 -61.333 16 -96c0 -34 -5.16699 -65.667 -15.5 -95s-25.333 -55 -45 -77s-43.5 -39.167 -71.5 -51.5s-60 -18.5 -96 -18.5c-34.667 0 -67.334 6.5 -98.001 19.5s-57.5 33.833 -80.5 62.5s-41.167 66 -54.5 112
s-20 102 -20 168c0 22 1.5 46.167 4.5 72.5s8.33301 52.666 16 78.999s18 51.833 31 76.5s29.167 46.5 48.5 65.5s42.166 34.167 68.499 45.5s57.166 17 92.499 17c24.667 0 48.167 -3.5 70.5 -10.5s42.333 -17.167 60 -30.5s32.334 -29.666 44.001 -48.999
s19.5 -41.333 23.5 -66h-81zM306 64c46 0 81.833 15.833 107.5 47.5s38.5 72.834 38.5 123.501c0 23.333 -3.5 45.166 -10.5 65.499s-16.833 38 -29.5 53s-27.667 26.667 -45 35s-36.333 12.5 -57 12.5c-22.667 0 -43.667 -4.33301 -63 -13s-36 -20.5 -50 -35.5
s-25 -32.833 -33 -53.5s-12 -43 -12 -67c0 -24.667 3.83301 -47.167 11.5 -67.5s18.167 -38 31.5 -53s29.5 -26.667 48.5 -35s39.833 -12.5 62.5 -12.5z" />
    <glyph glyph-name="seven" unicode="7" horiz-adv-x="516" 
d="M22 624v76h468v-24l-343 -676h-90l158.5 312l157.5 312h-351z" />
    <glyph glyph-name="eight" unicode="8" horiz-adv-x="570" 
d="M285 64c22.667 0 43.3369 3.33301 62.0039 10s34.667 15.834 48 27.501s23.666 25.5 30.999 41.5s11 33.333 11 52s-3.66699 36 -11 52s-17.666 29.833 -30.999 41.5s-29.333 20.834 -48 27.501s-39.334 10 -62.001 10s-43.334 -3.33301 -62.001 -10
s-34.5 -15.834 -47.5 -27.501s-23.167 -25.5 -30.5 -41.5s-11 -33.333 -11 -52s3.66699 -36 11 -52s17.666 -29.833 30.999 -41.5s29.166 -20.834 47.499 -27.501s38.833 -10 61.5 -10zM285.003 708c32.667 0 62.5 -4.83301 89.5 -14.5s50 -23.167 69 -40.5
s33.667 -37.666 44 -60.999s15.5 -49 15.5 -77c0 -38 -10.167 -69.333 -30.5 -94s-46.166 -43.667 -77.499 -57c38 -15.333 68 -38.5 90 -69.5s33 -66.5 33 -106.5c0 -28.667 -5.66699 -55 -17 -79s-27.333 -44.667 -48 -62s-45.334 -30.833 -74.001 -40.5
s-60 -14.5 -94 -14.5s-65.333 4.83301 -94 14.5s-53.167 23.167 -73.5 40.5s-36.333 38 -48 62s-17.5 50.333 -17.5 79c0 40 11 75.5 33 106.5s52.333 54.167 91 69.5c-32 13.333 -58.167 32.333 -78.5 57s-30.5 56 -30.5 94c0 28 5.16699 53.667 15.5 77
s25 43.666 44 60.999s41.833 30.833 68.5 40.5s56.667 14.5 90 14.5zM285.003 399c41.333 0 74.501 11.167 99.501 33.5s37.5 49.833 37.5 82.5c0 16.667 -3.16699 32.167 -9.5 46.5s-15.5 27 -27.5 38s-26.5 19.667 -43.5 26s-35.833 9.5 -56.5 9.5
s-39.334 -3.16699 -56.001 -9.5s-31 -15 -43 -26s-21.167 -23.667 -27.5 -38s-9.5 -29.833 -9.5 -46.5c0 -32.667 12.333 -60.167 37 -82.5s57.667 -33.5 99 -33.5z" />
    <glyph glyph-name="nine" unicode="9" horiz-adv-x="569" 
d="M138 147c2.66699 -12.667 8.16797 -23.9971 16.501 -33.9971s18.166 -18.5 29.499 -25.5s23.666 -12.5 36.999 -16.5s26.666 -6 39.999 -6c35.333 0 64.5 7.83301 87.5 23.5s41.333 36.5 55 62.5s23.334 56.167 29.001 90.5s8.83398 70.166 9.50098 107.499
c-15.333 -34.667 -39.666 -63.834 -72.999 -87.501s-72 -35.5 -116 -35.5c-32 0 -61.167 6 -87.5 18s-49.166 28.833 -68.499 50.5s-34.333 47.167 -45 76.5s-16 61 -16 95s5.16699 65.833 15.5 95.5s25.333 55.5 45 77.5s43.5 39.167 71.5 51.5s59.667 18.5 95 18.5
c36.667 0 70.5 -6.5 101.5 -19.5s57.833 -33.833 80.5 -62.5s40.334 -66 53.001 -112s19 -102 19 -168c0 -40 -3.33301 -81 -10 -123s-19.334 -80.333 -38.001 -115s-44.667 -63 -78 -85s-76.333 -33 -129 -33c-24.667 0 -48.334 3.5 -71.001 10.5
s-43.334 17.167 -62.001 30.5s-34.167 29.666 -46.5 48.999s-20.5 41.333 -24.5 66h80zM264.001 636.003c-23.333 0 -43.998 -4.16895 -61.998 -12.502s-33.333 -20.166 -46 -35.499s-22.334 -33.5 -29.001 -54.5s-10 -44.167 -10 -69.5c0 -23.333 3.5 -45.166 10.5 -65.499
s16.833 -37.833 29.5 -52.5s27.667 -26.167 45 -34.5s36.666 -12.5 57.999 -12.5c22 0 42.667 4.33301 62 13s36 20.5 50 35.5s25 32.833 33 53.5s12 43 12 67c0 24.667 -3.5 47.167 -10.5 67.5s-17 38 -30 53s-29 26.667 -48 35s-40.5 12.5 -64.5 12.5z" />
    <glyph glyph-name="colon" unicode=":" horiz-adv-x="231" 
d="M60 46c0 15.333 5.33301 28.5 16 39.5s23.667 16.5 39 16.5s28.5 -5.5 39.5 -16.5s16.5 -24.167 16.5 -39.5s-5.5 -28.5 -16.5 -39.5s-24.167 -16.5 -39.5 -16.5s-28.333 5.5 -39 16.5s-16 24.167 -16 39.5zM60 366c0 15.333 5.33301 28.5 16 39.5s23.667 16.5 39 16.5
s28.5 -5.5 39.5 -16.5s16.5 -24.167 16.5 -39.5s-5.5 -28.5 -16.5 -39.5s-24.167 -16.5 -39.5 -16.5s-28.333 5.5 -39 16.5s-16 24.167 -16 39.5z" />
    <glyph glyph-name="semicolon" unicode=";" horiz-adv-x="231" 
d="M60 366c0 15.333 5.33301 28.5 16 39.5s23.667 16.5 39 16.5s28.5 -5.5 39.5 -16.5s16.5 -24.167 16.5 -39.5s-5.5 -28.5 -16.5 -39.5s-24.167 -16.5 -39.5 -16.5s-28.333 5.5 -39 16.5s-16 24.167 -16 39.5zM173 81l-78 -246l-55 19l53 248z" />
    <glyph glyph-name="less" unicode="&#x3c;" 
d="M527 540v-78l-363 -170l363 -170v-78l-457 221v54z" />
    <glyph glyph-name="equal" unicode="=" 
d="M527 225v-69h-457v69h457zM527 412v-68h-457v68h457z" />
    <glyph glyph-name="greater" unicode="&#x3e;" 
d="M527 319v-54l-457 -221v78l363 170l-363 170v78z" />
    <glyph glyph-name="question" unicode="?" horiz-adv-x="516" 
d="M224 170l-0.000976562 133.002c18 10.667 37 22.667 57 36s38.167 28.333 54.5 45s29.833 34.667 40.5 54s16 40.666 16 63.999c0 38 -12.5 69.833 -37.5 95.5s-60.5 38.5 -106.5 38.5c-49.333 0 -86.833 -13.333 -112.5 -40s-37.167 -63.334 -34.5 -110.001h-77
c-3.33301 32.667 0 62.667 10 90s25.333 50.833 46 70.5s45.334 35 74.001 46s59.667 16.5 93 16.5c35.333 0 66.833 -5.33301 94.5 -16s51 -25.5 70 -44.5s33.5 -41.333 43.5 -67s15 -53.5 15 -83.5c0 -28 -5.16699 -53.333 -15.5 -76s-23.5 -43.5 -39.5 -62.5
s-34 -35.833 -54 -50.5s-39.667 -28 -59 -40v-99h-78zM207.999 46.002c0 15.333 5.5 28.5 16.5 39.5s24.167 16.5 39.5 16.5s28.5 -5.5 39.5 -16.5s16.5 -24.167 16.5 -39.5s-5.5 -28.5 -16.5 -39.5s-24.167 -16.5 -39.5 -16.5s-28.5 5.5 -39.5 16.5
s-16.5 24.167 -16.5 39.5z" />
    <glyph glyph-name="at" unicode="@" horiz-adv-x="1037" 
d="M969 291c0 -39.333 -4.66113 -75.665 -13.9941 -108.998s-22.166 -62 -38.499 -86s-36 -42.833 -59 -56.5s-48.5 -20.5 -76.5 -20.5c-27.333 0 -52.333 6.33301 -75 19s-38.334 27.667 -47.001 45c-13.333 -23.333 -32.833 -42 -58.5 -56s-55.5 -21 -89.5 -21
c-30 0 -57.333 5.16699 -82 15.5s-45.834 24.833 -63.501 43.5s-31.167 41 -40.5 67s-14 54.667 -14 86c0 30 4.66699 57.667 14 83s22.5 47.166 39.5 65.499s37.333 32.666 61 42.999s49.5 15.5 77.5 15.5c33.333 0 62.5 -7 87.5 -21s44.167 -31.667 57.5 -53l6 64h61v-303
c7.33301 -11.333 16.333 -19.666 27 -24.999s25.667 -8 45 -8c16.667 0 32.167 5.33301 46.5 16s26.666 25.5 36.999 44.5s18.5 41.5 24.5 67.5s9 54 9 84c0 50.667 -8.5 97.834 -25.5 141.501s-41.333 81.667 -73 114s-70.334 57.666 -116.001 75.999
s-96.834 27.5 -153.501 27.5c-59.333 0 -113.5 -10.333 -162.5 -31s-91.167 -49.834 -126.5 -87.501s-62.666 -82.667 -81.999 -135s-29 -109.833 -29 -172.5c0 -62 10 -119.5 30 -172.5s47.833 -98.833 83.5 -137.5s77.667 -69 126 -91s100.833 -33 157.5 -33
s112.5 6.33301 167.5 19s107.167 35 156.5 67l24 -56c-55.333 -32 -111.333 -55 -168 -69s-117 -21 -181 -21c-66 0 -127.333 11.833 -184 35.5s-105.834 57.167 -147.501 100.5s-74.334 95.333 -98.001 156s-35.5 128 -35.5 202c0 70 11.333 134.833 34 194.5
s54.667 111 96 154s90.666 76.667 147.999 101s121 36.5 191 36.5c66.667 0 126.667 -10.5 180 -31.5s98.833 -50.333 136.5 -88s66.5 -82 86.5 -133s30 -106.5 30 -166.5zM512.006 69.001c42 0 74.999 13.9971 98.999 41.9971s36 63.667 36 107
c0 42 -11.833 76.5 -35.5 103.5s-56.5 40.5 -98.5 40.5c-20 0 -38 -3.66699 -54 -11s-29.667 -17.5 -41 -30.5s-20.166 -28.333 -26.499 -46s-9.5 -36.5 -9.5 -56.5c0 -21.333 3 -41.166 9 -59.499s14.667 -34.166 26 -47.499s25 -23.666 41 -30.999s34 -11 54 -11z" />
    <glyph glyph-name="A" unicode="A" horiz-adv-x="701" 
d="M367 719l318 -719h-85l-80 183h-338l-81 -183h-85l318 719h33zM213 258h275l-137 316z" />
    <glyph glyph-name="B" unicode="B" horiz-adv-x="634" 
d="M162 75h178c23.333 0 45.5 2 66.5 6s39.5 11 55.5 21s28.667 23.333 38 40s14 37.667 14 63c0 46.667 -17 79.5 -51 98.5s-80 28.5 -138 28.5h-163v-257zM82 0l0.00195312 699.998h244c32 0 61.833 -3.16699 89.5 -9.5s51.667 -16.5 72 -30.5s36.5 -32.333 48.5 -55
s18 -50.334 18 -83.001c0 -35.333 -10 -66.166 -30 -92.499s-47 -44.166 -81 -53.499c22 -3.33301 42.167 -9.66602 60.5 -18.999s34.166 -21.5 47.499 -36.5s23.833 -32.167 31.5 -51.5s11.5 -40.666 11.5 -63.999c0 -35.333 -6.33301 -65.833 -19 -91.5
s-30.334 -46.834 -53.001 -63.501s-49.5 -29.167 -80.5 -37.5s-64.833 -12.5 -101.5 -12.5h-258zM162.002 406.998l148 0.000976562c22 0 43 1.66699 63 5s37.5 9.33301 52.5 18s26.833 20.167 35.5 34.5s13 32.166 13 53.499s-4.33301 39 -13 53s-20 25 -34 33
s-29.833 13.5 -47.5 16.5s-35.5 4.5 -53.5 4.5h-164v-218z" />
    <glyph glyph-name="C" unicode="C" horiz-adv-x="778" 
d="M50 350c0 49.333 9.16992 95.8311 27.5029 139.498s43.333 81.834 75 114.501s69 58.5 112 77.5s89.167 28.5 138.5 28.5c42 0 80.833 -6 116.5 -18s67.667 -28.5 96 -49.5s52.666 -46.167 72.999 -75.5s36.166 -61 47.499 -95h-87c-8 21.333 -19.333 41.666 -34 60.999
s-32.334 36.5 -53.001 51.5s-44.167 26.833 -70.5 35.5s-55.166 13 -86.499 13c-38.667 0 -74.667 -7.33301 -108 -22s-62.333 -34.667 -87 -60s-44 -55.166 -58 -89.499s-21 -71.5 -21 -111.5s7 -77.333 21 -112s33.333 -64.667 58 -90s53.667 -45.333 87 -60
s69.333 -22 108 -22c31.333 0 60.5 4.5 87.5 13.5s51 21.167 72 36.5s38.833 33 53.5 53s25.667 41.333 33 64h87c-10 -35.333 -25.333 -67.833 -46 -97.5s-45.334 -55.167 -74.001 -76.5s-61.167 -38 -97.5 -50s-75.5 -18 -117.5 -18c-49.333 0 -95.5 9.33301 -138.5 28
s-80.333 44.334 -112 77.001s-56.667 70.667 -75 114s-27.5 90 -27.5 140z" />
    <glyph glyph-name="D" unicode="D" horiz-adv-x="728" 
d="M82 700l250 -0.00195312c53.333 0 101.333 -8.83301 144 -26.5s79 -42.167 109 -73.5s53 -68.166 69 -110.499s24 -88.166 24 -137.499c0 -50.667 -7.5 -97.5 -22.5 -140.5s-37 -80.167 -66 -111.5s-64.5 -55.833 -106.5 -73.5s-89.667 -26.5 -143 -26.5h-258v700z
M340 75.998c41.333 0 78.001 6.66797 110.001 20.001s58.833 32.166 80.5 56.499s38.167 53.5 49.5 87.5s17 71.333 17 112c0 39.333 -6 75.5 -18 108.5s-29.333 61.5 -52 85.5s-50.334 42.833 -83.001 56.5s-70 20.5 -112 20.5h-169v-547h177z" />
    <glyph glyph-name="E" unicode="E" horiz-adv-x="590" 
d="M163 623v-215h338v-77h-338v-254h369v-77h-450v700h450v-77h-369z" />
    <glyph glyph-name="F" unicode="F" horiz-adv-x="544" 
d="M163 623v-215h328v-77h-328v-331h-81v700h440v-77h-359z" />
    <glyph glyph-name="G" unicode="G" horiz-adv-x="803" 
d="M412 309l0.00390625 73.9971h341v-30c0 -58 -8.83301 -109.5 -26.5 -154.5s-42 -82.833 -73 -113.5s-67.833 -54 -110.5 -70s-89 -24 -139 -24c-49.333 0 -95.5 9.33301 -138.5 28s-80.5 44.334 -112.5 77.001s-57.167 70.667 -75.5 114s-27.5 90 -27.5 140
c0 49.333 9.16699 95.833 27.5 139.5s43.5 81.834 75.5 114.501s69.667 58.5 113 77.5s89.666 28.5 138.999 28.5c42.667 0 81.834 -6.16699 117.501 -18.5s67.667 -29.166 96 -50.499s52.5 -46.5 72.5 -75.5s35.667 -60.167 47 -93.5h-87
c-8 21.333 -19.333 41.666 -34 60.999s-32.334 36.5 -53.001 51.5s-44.167 26.833 -70.5 35.5s-54.833 13 -85.5 13c-39.333 0 -75.833 -7.33301 -109.5 -22s-62.834 -34.667 -87.501 -60s-44.167 -55.166 -58.5 -89.499s-21.5 -71.5 -21.5 -111.5
s7.16699 -77.333 21.5 -112s33.666 -64.667 57.999 -90s53.166 -45.333 86.499 -60s69 -22 107 -22c37.333 0 72 6.16699 104 18.5s59.667 29.5 83 51.5s41.833 47.833 55.5 77.5s21.167 61.5 22.5 95.5h-257z" />
    <glyph glyph-name="H" unicode="H" horiz-adv-x="730" 
d="M648 0h-81v331h-404v-331h-81v700h81v-292h404v292h81v-700z" />
    <glyph glyph-name="I" unicode="I" horiz-adv-x="261" 
d="M171 0h-81v700h81v-700z" />
    <glyph glyph-name="J" unicode="J" horiz-adv-x="521" 
d="M358 700l81.002 0.00195312v-499c0 -30.667 -5.33301 -58.834 -16 -84.501s-25.667 -47.834 -45 -66.501s-42.5 -33.167 -69.5 -43.5s-57.167 -15.5 -90.5 -15.5c-26.667 0 -52.334 3.83301 -77.001 11.5s-46.834 19 -66.501 34s-36 33.333 -49 55
s-21.5 46.167 -25.5 73.5h81c7.33301 -32.667 23 -57 47 -73s54 -24 90 -24c44 0 78.333 11.167 103 33.5s37 55.5 37 99.5v499z" />
    <glyph glyph-name="K" unicode="K" horiz-adv-x="608" 
d="M215 349l-52 -47v-302h-81v700h81v-302l328 302h104l-327 -301l334 -399h-95z" />
    <glyph glyph-name="L" unicode="L" horiz-adv-x="544" 
d="M163 700v-623h361v-77h-442v700h81z" />
    <glyph glyph-name="M" unicode="M" horiz-adv-x="866" 
d="M417 -14l-240 520l-52 -506h-80l74 719h40l274 -594l274 594h40l74 -719h-80l-52 506l-240 -520h-32z" />
    <glyph glyph-name="N" unicode="N" horiz-adv-x="740" 
d="M658 -32h-32l-463 574v-542h-81v719h32l463 -572v553h81v-732z" />
    <glyph glyph-name="O" unicode="O" horiz-adv-x="807" 
d="M50 350c0 49.333 9.16699 95.833 27.5 139.5s43.5 81.834 75.5 114.501s69.333 58.5 112 77.5s88.667 28.5 138 28.5c48.667 0 94.5 -9.5 137.5 -28.5s80.5 -44.833 112.5 -77.5s57.333 -70.834 76 -114.501s28 -90.167 28 -139.5c0 -50 -9.33301 -96.667 -28 -140
s-44 -81.333 -76 -114s-69.5 -58.334 -112.5 -77.001s-88.833 -28 -137.5 -28c-49.333 0 -95.333 9.33301 -138 28s-80 44.334 -112 77.001s-57.167 70.667 -75.5 114s-27.5 90 -27.5 140zM131 350c0 -40 7.16699 -77.167 21.5 -111.5s33.666 -64.333 57.999 -90
s53 -45.667 86 -60s68.5 -21.5 106.5 -21.5s73.5 7.16699 106.5 21.5s61.833 34.333 86.5 60s44.167 55.667 58.5 90s21.5 71.5 21.5 111.5s-7.16699 77.167 -21.5 111.5s-33.833 64.166 -58.5 89.499s-53.5 45.333 -86.5 60s-68.5 22 -106.5 22s-73.5 -7.33301 -106.5 -22
s-61.667 -34.667 -86 -60s-43.666 -55.166 -57.999 -89.499s-21.5 -71.5 -21.5 -111.5z" />
    <glyph glyph-name="P" unicode="P" horiz-adv-x="631" 
d="M163 0l-80.999 0.000976562v700h265c32.667 0 63.667 -3.83301 93 -11.5s54.666 -20 75.999 -37s38.333 -39 51 -66s19 -59.833 19 -98.5c0 -36 -6 -67 -18 -93s-28.667 -47.333 -50 -64s-46.5 -28.834 -75.5 -36.501s-60.167 -11.5 -93.5 -11.5h-186v-282z
M349.001 356.001c21.333 0 41.5 2.33301 60.5 7s35.5 12.167 49.5 22.5s25.167 24 33.5 41s12.5 37.833 12.5 62.5s-4 45.667 -12 63s-19 31.333 -33 42s-30.667 18.5 -50 23.5s-40.333 7.5 -63 7.5h-184v-269h186z" />
    <glyph glyph-name="Q" unicode="Q" horiz-adv-x="807" 
d="M403 0c-49.333 0 -95.333 9.16504 -138 27.498s-80 43.333 -112 75s-57.167 69 -75.5 112s-27.5 89.5 -27.5 139.5c0 49.333 9.16699 95.666 27.5 138.999s43.5 81 75.5 113s69.333 57.333 112 76s88.667 28 138 28c48.667 0 94.5 -9.33301 137.5 -28s80.5 -44 112.5 -76
s57.333 -69.667 76 -113s28 -89.666 28 -138.999c0 -29.333 -3.83301 -58.166 -11.5 -86.499s-18.834 -55.166 -33.501 -80.499s-32.167 -48.333 -52.5 -69s-43.166 -38 -68.499 -52l183 6v-72h-371zM131 353.998c0 -40 7.16699 -77 21.5 -111s33.666 -63.333 57.999 -88
s53 -44 86 -58s68.5 -21 106.5 -21s73.5 7 106.5 21s61.833 33.333 86.5 58s44.167 54 58.5 88s21.5 71 21.5 111s-7.16699 77 -21.5 111s-33.833 63.5 -58.5 88.5s-53.5 44.5 -86.5 58.5s-68.5 21 -106.5 21s-73.5 -7 -106.5 -21s-61.667 -33.5 -86 -58.5
s-43.666 -54.5 -57.999 -88.5s-21.5 -71 -21.5 -111z" />
    <glyph glyph-name="R" unicode="R" horiz-adv-x="636" 
d="M163 0h-81.001v700h261c32.667 0 63.5 -3.5 92.5 -10.5s54.333 -18.667 76 -35s38.834 -37.5 51.501 -63.5s19 -58 19 -96c0 -32 -5 -59.667 -15 -83s-23.833 -42.833 -41.5 -58.5s-38.167 -27.667 -61.5 -36s-48.333 -13.5 -75 -15.5l205 -302h-88l-205 298h-138v-298z
M344.999 375c21.333 0 41.499 1.83301 60.499 5.5s35.5 10.167 49.5 19.5s25.167 21.833 33.5 37.5s12.5 35.5 12.5 59.5s-4 44 -12 60s-19.167 28.833 -33.5 38.5s-31.166 16.667 -50.499 21s-40 6.5 -62 6.5h-180v-248h182z" />
    <glyph glyph-name="S" unicode="S" horiz-adv-x="554" 
d="M283 66c18.667 0 37 2.49805 55 7.49805s34 12.333 48 22s25.167 21.667 33.5 36s12.5 31.166 12.5 50.499c0 20 -4.5 37.167 -13.5 51.5s-21.667 27 -38 38s-35.833 20.833 -58.5 29.5l-74 27c-29.333 10 -56.333 20.5 -81 31.5s-46 24 -64 39s-32 33 -42 54
s-15 46.5 -15 76.5c0 22 4.5 43.833 13.5 65.5s22.667 41 41 58s41.833 30.833 70.5 41.5s62.667 16 102 16c28.667 0 55.834 -4 81.501 -12s48.5 -19.5 68.5 -34.5s36.833 -33.167 50.5 -54.5s23.167 -45.333 28.5 -72h-80c-6.66699 30 -23.334 53.833 -50.001 71.5
s-59.667 26.5 -99 26.5c-25.333 0 -47.166 -3.16699 -65.499 -9.5s-33.5 -14.5 -45.5 -24.5s-21 -21.333 -27 -34s-9 -25 -9 -37c0 -19.333 3.83301 -35.5 11.5 -48.5s18.334 -24.333 32.001 -34s29.834 -18.167 48.501 -25.5s39 -14.666 61 -21.999
c34.667 -12 66.167 -24.167 94.5 -36.5s52.833 -26.666 73.5 -42.999s36.667 -35.333 48 -57s17 -47.5 17 -77.5c0 -31.333 -6.33301 -59.166 -19 -83.499s-29.834 -44.833 -51.501 -61.5s-46.334 -29.167 -74.001 -37.5s-56.5 -12.5 -86.5 -12.5
c-33.333 0 -64 4.16699 -92 12.5s-52.5 20 -73.5 35s-38.333 33.167 -52 54.5s-22.834 45.333 -27.501 72h80c7.33301 -32 25 -56.5 53 -73.5s66 -25.5 114 -25.5z" />
    <glyph glyph-name="T" unicode="T" horiz-adv-x="561" 
d="M541 623h-220v-623h-81v623h-220v77h521v-77z" />
    <glyph glyph-name="U" unicode="U" horiz-adv-x="712" 
d="M356 68c35.333 0 65.334 5.5 90.001 16.5s44.834 26.5 60.501 46.5s27 43.667 34 71s10.5 57 10.5 89v409h81v-409c0 -43.333 -5.5 -83.166 -16.5 -119.499s-28 -68 -51 -95s-51.833 -48 -86.5 -63s-75.334 -22.5 -122.001 -22.5s-87.334 7.5 -122.001 22.5
s-63.334 36 -86.001 63s-39.667 58.667 -51 95s-17 76.166 -17 119.499v409h81v-409c0 -32 3.5 -61.667 10.5 -89s18.333 -51 34 -71s35.834 -35.5 60.501 -46.5s54.667 -16.5 90 -16.5z" />
    <glyph glyph-name="V" unicode="V" horiz-adv-x="701" 
d="M597 700h88l-318 -719h-33l-318 719h88l247 -573z" />
    <glyph glyph-name="W" unicode="W" horiz-adv-x="1012" 
d="M730 154l173 546h85l-237 -719h-36l-209 556l-209 -556h-36l-237 719h85l173 -546l210 572h28z" />
    <glyph glyph-name="X" unicode="X" horiz-adv-x="651" 
d="M325 428l204 272h90l-249 -332l277 -368h-90l-232 308l-231 -308h-90l276 368l-248 332h90z" />
    <glyph glyph-name="Y" unicode="Y" horiz-adv-x="591" 
d="M296 367l199 333h86l-245 -400v-300h-81v300l-245 400h86l199 -333h1z" />
    <glyph glyph-name="Z" unicode="Z" horiz-adv-x="602" 
d="M24 0v29l422 596h-383v75h515v-24l-426 -601h406v-75h-534z" />
    <glyph glyph-name="bracketleft" unicode="[" horiz-adv-x="302" 
d="M285 700v-67h-117v-816h117v-67h-193v950h193z" />
    <glyph glyph-name="backslash" unicode="\" horiz-adv-x="574" 
d="M-7 784l68 36l520 -903l-66 -39z" />
    <glyph glyph-name="bracketright" unicode="]" horiz-adv-x="302" 
d="M210 700v-950h-193v67h117v816h-117v67h193z" />
    <glyph glyph-name="asciicircum" unicode="^" horiz-adv-x="581" 
d="M544 317h-89l-164 298l-165 -298h-89l223 383h62z" />
    <glyph glyph-name="underscore" unicode="_" horiz-adv-x="433" 
d="M27 -60h378v-58h-378v58z" />
    <glyph glyph-name="grave" unicode="`" horiz-adv-x="310" 
d="M101 677l161 -138l-37 -38l-171 110z" />
    <glyph glyph-name="a" unicode="a" horiz-adv-x="465" 
d="M57 291c8 34 27.001 62.332 57.001 84.999s68.333 34 115 34c53.333 0 95.166 -13.333 125.499 -40s45.5 -61.667 45.5 -105v-265h-67l-5 61c-12 -18 -28.667 -33.5 -50 -46.5s-51 -19.5 -89 -19.5c-21.333 0 -41 2.83301 -59 8.5s-33.667 14 -47 25
s-23.833 24.333 -31.5 40s-11.5 33.5 -11.5 53.5c0 85.333 63.333 128 190 128h98v15c0 24.667 -8.33301 44.667 -25 60s-42 23 -76 23c-26 0 -47.333 -5.16699 -64 -15.5s-27.667 -24.166 -33 -41.499h-73zM202.001 55.999c38 0 68.501 9.5 91.501 28.5
s34.5 47.5 34.5 85.5v23h-98c-42 0 -72.167 -5.83301 -90.5 -17.5s-27.5 -29.167 -27.5 -52.5c0 -21.333 8.16699 -37.833 24.5 -49.5s38.166 -17.5 65.499 -17.5z" />
    <glyph glyph-name="b" unicode="b" horiz-adv-x="519" 
d="M276 55c20 0 37.832 3.83301 53.499 11.5s29.167 18 40.5 31s20 28.333 26 46s9 36.834 9 57.501c0 20 -3.16699 38.667 -9.5 56s-15.166 32.5 -26.499 45.5s-25 23.333 -41 31s-33.333 11.5 -52 11.5c-20 0 -38.333 -3.66699 -55 -11s-31 -17.5 -43 -30.5
s-21.167 -28.167 -27.5 -45.5s-9.5 -36.333 -9.5 -57s3.16699 -39.834 9.5 -57.501s15.5 -33 27.5 -46s26.333 -23.333 43 -31s35 -11.5 55 -11.5zM139.999 0l-70.001 0.00195312v653h75v-314c12.667 19.333 30.834 36 54.501 50s53.5 21 89.5 21
c28 0 53.5 -5.33301 76.5 -16s42.833 -25.334 59.5 -44.001s29.5 -40.834 38.5 -66.501s13.5 -53.167 13.5 -82.5c0 -32 -4.83301 -61 -14.5 -87s-23 -48 -40 -66s-37.167 -32 -60.5 -42s-49 -15 -77 -15c-30 0 -57.667 6.66699 -83 20s-44.333 31 -57 53z" />
    <glyph glyph-name="c" unicode="c" horiz-adv-x="480" 
d="M251 342c-19.333 0 -37.3301 -3.49902 -53.9971 -10.499s-31 -16.667 -43 -29s-21.333 -27.333 -28 -45s-10 -36.834 -10 -57.501c0 -21.333 3.5 -40.833 10.5 -58.5s16.5 -32.667 28.5 -45s26.167 -22 42.5 -29s34.166 -10.5 53.499 -10.5c30.667 0 56 6.83301 76 20.5
s33.667 30.5 41 50.5h74c-4.66699 -20 -12.5 -38.5 -23.5 -55.5s-24.833 -31.5 -41.5 -43.5s-35.667 -21.333 -57 -28s-44.333 -10 -69 -10c-30.667 0 -58.834 5.5 -84.501 16.5s-47.667 25.833 -66 44.5s-32.666 40.667 -42.999 66s-15.5 52.666 -15.5 81.999
c0 28.667 5.16699 55.834 15.5 81.501s24.666 48 42.999 67s40.166 34 65.499 45s53.333 16.5 84 16.5c24.667 0 47.667 -3.5 69 -10.5s40.333 -16.667 57 -29s30.5 -27 41.5 -44s18.833 -35.5 23.5 -55.5h-75c-7.33301 20 -20.833 36.833 -40.5 50.5s-44.5 20.5 -74.5 20.5
z" />
    <glyph glyph-name="d" unicode="d" horiz-adv-x="519" 
d="M243 55c20 0 38.332 3.83301 54.999 11.5s31 18 43 31s21.167 28.333 27.5 46s9.5 36.834 9.5 57.501s-3.16699 39.667 -9.5 57s-15.5 32.5 -27.5 45.5s-26.333 23.167 -43 30.5s-35 11 -55 11c-19.333 0 -36.833 -3.83301 -52.5 -11.5s-29.167 -18 -40.5 -31
s-20.166 -28.167 -26.499 -45.5s-9.5 -36 -9.5 -56c0 -20.667 3 -39.834 9 -57.501s14.667 -33 26 -46s24.833 -23.333 40.5 -31s33.5 -11.5 53.5 -11.5zM373.999 64c-12.667 -22 -31.333 -39.6689 -56 -53.002s-52 -20 -82 -20c-28 0 -53.833 5 -77.5 15
s-44.167 24 -61.5 42s-30.833 40 -40.5 66s-14.5 55 -14.5 87c0 29.333 4.66699 56.833 14 82.5s22.5 47.834 39.5 66.501s37.333 33.334 61 44.001s49.5 16 77.5 16c36 0 65.167 -7 87.5 -21s39.833 -30.667 52.5 -50v314h75v-653h-70z" />
    <glyph glyph-name="e" unicode="e" horiz-adv-x="486" 
d="M114 173c3.33301 -37.333 16.833 -66.3301 40.5 -86.9971s56.167 -31 97.5 -31c31.333 0 56.333 6.5 75 19.5s31 29.167 37 48.5h72c-9.33301 -38.667 -30 -70.334 -62 -95.001s-73 -37 -123 -37c-31.333 0 -59.833 5.5 -85.5 16.5s-47.667 25.833 -66 44.5
s-32.5 40.667 -42.5 66s-15 52.666 -15 81.999c0 28.667 5 55.834 15 81.501s24.167 48 42.5 67s40 34 65 45s52.5 16.5 82.5 16.5s57.167 -5.5 81.5 -16.5s45 -25.833 62 -44.5s30.167 -39.834 39.5 -63.501s14 -47.834 14 -72.501v-20.5
c0 -7.66699 -0.666992 -14.167 -2 -19.5h-328zM250 346.003c-37.333 0 -67.499 -10.667 -90.499 -32s-37.167 -49 -42.5 -83h255c-0.666992 14.667 -3.83398 29 -9.50098 43s-13.667 26.333 -24 37s-23 19.167 -38 25.5s-31.833 9.5 -50.5 9.5z" />
    <glyph glyph-name="f" unicode="f" horiz-adv-x="313" 
d="M18 400h75.001v87c0 56.667 14.333 99.167 43 127.5s71.334 42.5 128.001 42.5c9.33301 0 18.666 -0.333008 27.999 -1s17.666 -1.66699 24.999 -3v-68c-7.33301 1.33301 -15 2.33301 -23 3s-16 1 -24 1c-36 0 -62 -8.33301 -78 -25s-24 -43.667 -24 -81v-83h120v-68
h-120v-332h-75v332h-75v68z" />
    <glyph glyph-name="g" unicode="g" horiz-adv-x="467" 
d="M57 239c0 23.333 4.66797 45.333 14.001 66s21.833 38.834 37.5 54.501s34.167 28 55.5 37s44 13.5 68 13.5h200v-53l-80 -5c17.333 -13.333 31 -30.5 41 -51.5s15 -43.5 15 -67.5c0 -22 -4.5 -43 -13.5 -63s-21.333 -37.5 -37 -52.5s-34 -26.833 -55 -35.5
s-43.167 -13 -66.5 -13c-24 0 -44 3.33301 -60 10s-30.667 15.667 -44 27c-9.33301 -2.66699 -17.833 -7.5 -25.5 -14.5s-11.5 -17.833 -11.5 -32.5c0 -17.333 7 -30.5 21 -39.5s31 -13.5 51 -13.5h84c62.667 0 110 -13.333 142 -40s48 -64 48 -112
c0 -23.333 -4.33301 -45 -13 -65s-21.5 -37.167 -38.5 -51.5s-38 -25.5 -63 -33.5s-53.5 -12 -85.5 -12c-34.667 0 -64.667 4.5 -90 13.5s-46.333 20.833 -63 35.5s-29.167 31.5 -37.5 50.5s-12.5 38.5 -12.5 58.5c0 27.333 6.66699 51.5 20 72.5s27.666 35.833 42.999 44.5
c-20.667 6.66699 -38 17.667 -52 33s-21 35.333 -21 60c0 12 1.83301 22.833 5.5 32.5s8.5 18.167 14.5 25.5s12.5 13.666 19.5 18.999s13.833 9.66602 20.5 12.999c-9.33301 9.33301 -16.833 22.333 -22.5 39s-8.5 33.334 -8.5 50.001zM162.001 -57
c-14.667 -7.33301 -27.001 -18.5 -37.001 -33.5s-15 -33.5 -15 -55.5c0 -28 10.667 -51.333 32 -70s54.333 -28 99 -28s77.334 8.83301 98.001 26.5s31 41.5 31 71.5c0 28 -8.33301 49.833 -25 65.5s-48 23.5 -94 23.5h-89zM129 239c0 -32 9.66699 -57.667 29 -77
s44 -29 74 -29s55 9.66699 75 29s30 45 30 77s-10 57.833 -30 77.5s-45 29.5 -75 29.5s-54.667 -9.83301 -74 -29.5s-29 -45.5 -29 -77.5z" />
    <glyph glyph-name="h" unicode="h" horiz-adv-x="515" 
d="M70 653l74.999 0.00292969v-304c13.333 14 32 27.667 56 41s54 20 90 20c23.333 0 44.833 -3.83301 64.5 -11.5s36.5 -18.834 50.5 -33.501s24.833 -32.334 32.5 -53.001s11.5 -44 11.5 -70v-242h-75v230c0 36 -8.5 63.667 -25.5 83s-42.167 29 -75.5 29
c-31.333 0 -57.666 -7.33301 -78.999 -22s-38 -30.334 -50 -47.001v-273h-75v653z" />
    <glyph glyph-name="i" unicode="i" horiz-adv-x="225" 
d="M75 400h75v-400h-75v400zM62 559c0 14 4.66699 25.833 14 35.5s21.333 14.5 36 14.5c14 0 26 -4.83301 36 -14.5s15 -21.5 15 -35.5s-5 -25.833 -15 -35.5s-22 -14.5 -36 -14.5c-14.667 0 -26.667 4.83301 -36 14.5s-14 21.5 -14 35.5z" />
    <glyph glyph-name="j" unicode="j" horiz-adv-x="225" 
d="M150 -90c0 -55.333 -12.001 -97.5 -36.001 -126.5s-60.667 -43.5 -110 -43.5c-8 0 -16.167 0.5 -24.5 1.5s-16.166 2.5 -23.499 4.5v67c7.33301 -1.33301 13.5 -2.5 18.5 -3.5s11.833 -1.5 20.5 -1.5c28.667 0 49.167 8.66699 61.5 26s18.5 42.333 18.5 75v491h75v-490z
M62.999 559c0 14 4.66699 25.833 14 35.5s21 14.5 35 14.5c14.667 0 26.667 -4.83301 36 -14.5s14 -21.5 14 -35.5c0 -14.667 -4.66699 -26.667 -14 -36s-21.333 -14 -36 -14c-14 0 -25.667 4.66699 -35 14s-14 21.333 -14 36z" />
    <glyph glyph-name="k" unicode="k" horiz-adv-x="439" 
d="M183 197l-38 -33v-164h-75v653h75v-406l181 153h96l-189 -162l198 -238h-86z" />
    <glyph glyph-name="l" unicode="l" horiz-adv-x="223" 
d="M149 0h-75v653h75v-653z" />
    <glyph glyph-name="m" unicode="m" horiz-adv-x="770" 
d="M421 272c1.33301 -8 2.3291 -16 2.99609 -24s1 -15.667 1 -23v-225h-75v233c0 34 -7.5 60.667 -22.5 80s-36.833 29 -65.5 29c-28 0 -51.667 -6.66699 -71 -20s-35.666 -29 -48.999 -47v-275h-75v400h68l7 -54c6 6.66699 13.333 13.834 22 21.501s18.667 14.667 30 21
s23.833 11.5 37.5 15.5s28.834 6 45.501 6c29.333 0 54.833 -6.66699 76.5 -20s38.834 -32 51.501 -56c20 22.667 42.833 41 68.5 55s53.834 21 84.501 21c44 0 79.5 -14.833 106.5 -44.5s40.5 -69.834 40.5 -120.501v-245h-75v233c0 34 -7.33301 60.667 -22 80
s-36.667 29 -66 29c-28 0 -52 -6.83301 -72 -20.5s-36.333 -30.167 -49 -49.5z" />
    <glyph glyph-name="n" unicode="n" horiz-adv-x="512" 
d="M67 400l68.999 0.00292969l6 -54c14 14 32.833 28.167 56.5 42.5s53.5 21.5 89.5 21.5c24 0 45.667 -3.83301 65 -11.5s36 -18.834 50 -33.501s24.833 -32.334 32.5 -53.001s11.5 -44 11.5 -70v-242h-75v230c0 36 -8.33301 63.667 -25 83s-41.667 29 -75 29
c-15.333 0 -29.666 -2.16699 -42.999 -6.5s-25.5 -10 -36.5 -17s-20.667 -14.833 -29 -23.5s-15.5 -17.334 -21.5 -26.001v-269h-75v400z" />
    <glyph glyph-name="o" unicode="o" horiz-adv-x="498" 
d="M116 200c0 -21.333 3.33301 -40.666 10 -57.999s16 -32.166 28 -44.499s26 -22 42 -29s33.667 -10.5 53 -10.5c18.667 0 36.167 3.5 52.5 10.5s30.5 16.667 42.5 29s21.333 27.166 28 44.499s10 36.666 10 57.999c0 20.667 -3.33301 39.834 -10 57.501
s-16 32.834 -28 45.501s-26.167 22.5 -42.5 29.5s-33.833 10.5 -52.5 10.5c-19.333 0 -37 -3.5 -53 -10.5s-30 -16.833 -42 -29.5s-21.333 -27.834 -28 -45.501s-10 -36.834 -10 -57.501zM42 200c0 28.667 5.16699 55.834 15.5 81.501s24.833 48 43.5 67s40.5 34 65.5 45
s52.5 16.5 82.5 16.5s57.5 -5.5 82.5 -16.5s46.833 -26 65.5 -45s33.167 -41.333 43.5 -67s15.5 -52.834 15.5 -81.501c0 -29.333 -5.16699 -56.666 -15.5 -81.999s-24.833 -47.333 -43.5 -66s-40.5 -33.5 -65.5 -44.5s-52.5 -16.5 -82.5 -16.5s-57.5 5.5 -82.5 16.5
s-46.833 25.833 -65.5 44.5s-33.167 40.667 -43.5 66s-15.5 52.666 -15.5 81.999z" />
    <glyph glyph-name="p" unicode="p" horiz-adv-x="516" 
d="M273 55c20 0 37.832 3.83301 53.499 11.5s29.167 18 40.5 31s20 28.333 26 46s9 36.834 9 57.501c0 20 -3.16699 38.667 -9.5 56s-15.166 32.5 -26.499 45.5s-25 23.333 -41 31s-33.333 11.5 -52 11.5c-20 0 -38.333 -3.66699 -55 -11s-31 -17.5 -43 -30.5
s-21.167 -28.167 -27.5 -45.5s-9.5 -36.333 -9.5 -57s3.16699 -39.834 9.5 -57.501s15.5 -33 27.5 -46s26.333 -23.333 43 -31s35 -11.5 55 -11.5zM141.999 -250l-74.999 0.00195312v650h69l6 -57c13.333 18.667 31.666 34.5 54.999 47.5s53 19.5 89 19.5
c28 0 53.5 -5.33301 76.5 -16s42.833 -25.334 59.5 -44.001s29.5 -40.834 38.5 -66.501s13.5 -53.167 13.5 -82.5c0 -32 -4.83301 -61 -14.5 -87s-23 -48 -40 -66s-37.167 -32 -60.5 -42s-49 -15 -77 -15c-30 0 -57.667 6.66699 -83 20s-44.333 31 -57 53v-314z" />
    <glyph glyph-name="q" unicode="q" horiz-adv-x="516" 
d="M374 64c-12.667 -22 -31.333 -39.6689 -56 -53.002s-52 -20 -82 -20c-28 0 -53.833 5 -77.5 15s-44.167 24 -61.5 42s-30.833 40 -40.5 66s-14.5 55 -14.5 87c0 29.333 4.66699 56.833 14 82.5s22.5 47.834 39.5 66.501s37.333 33.334 61 44.001s49.5 16 77.5 16
c36 0 65 -6.5 87 -19.5s39.667 -28.833 53 -47.5l6 57h69v-650h-75v314zM243.001 54.998c20 0 38.332 3.83301 54.999 11.5s31 18 43 31s21.167 28.333 27.5 46s9.5 36.834 9.5 57.501s-3.16699 39.667 -9.5 57s-15.5 32.5 -27.5 45.5s-26.333 23.167 -43 30.5
s-35 11 -55 11c-19.333 0 -36.833 -3.83301 -52.5 -11.5s-29.167 -18 -40.5 -31s-20.166 -28.167 -26.499 -45.5s-9.5 -36 -9.5 -56c0 -20.667 3 -39.834 9 -57.501s14.667 -33 26 -46s24.833 -23.333 40.5 -31s33.5 -11.5 53.5 -11.5z" />
    <glyph glyph-name="r" unicode="r" horiz-adv-x="321" 
d="M67 400l68 -0.00195312l7 -55c6 6 12.833 12.5 20.5 19.5s16.667 13.5 27 19.5s22.666 11.167 36.999 15.5s30.833 6.5 49.5 6.5c5.33301 0 10.833 -0.166992 16.5 -0.5s11.167 -1.16602 16.5 -2.49902v-67c-9.33301 2 -18.666 3 -27.999 3
c-17.333 0 -33.333 -2.16699 -48 -6.5s-27.667 -10 -39 -17s-21.333 -14.667 -30 -23s-16 -16.166 -22 -23.499v-269h-75v400z" />
    <glyph glyph-name="s" unicode="s" horiz-adv-x="380" 
d="M189 52c22.667 0 42.165 4.5 58.498 13.5s24.5 23.167 24.5 42.5c0 10.667 -2.5 19.5 -7.5 26.5s-12 13.167 -21 18.5s-19.5 9.83301 -31.5 13.5s-25.333 7.16699 -40 10.5c-17.333 4 -33.833 9.16699 -49.5 15.5s-29.334 14.166 -41.001 23.499s-21 20.666 -28 33.999
s-10.5 29.333 -10.5 48c0 14.667 3 28.834 9 42.501s15 25.667 27 36s26.833 18.5 44.5 24.5s37.834 9 60.501 9s42.834 -3.16699 60.501 -9.5s32.834 -14.666 45.501 -24.999s22.667 -22 30 -35s12.333 -26.5 15 -40.5h-70c-3.33301 12 -11 23.167 -23 33.5
s-30.667 15.5 -56 15.5c-23.333 0 -41.333 -5 -54 -15s-19 -22.667 -19 -38c0 -18 8 -31.333 24 -40s38.333 -16.667 67 -24c17.333 -4 34.333 -9.16699 51 -15.5s31.5 -14.333 44.5 -24s23.333 -21.334 31 -35.001s11.5 -30.5 11.5 -50.5c0 -19.333 -4 -36.166 -12 -50.499
s-19 -26.333 -33 -36s-30.167 -17 -48.5 -22s-37.833 -7.5 -58.5 -7.5c-44 0 -79.5 10.333 -106.5 31s-43.5 47 -49.5 79h68c3.33301 -12.667 12 -24 26 -34s34.333 -15 61 -15z" />
    <glyph glyph-name="t" unicode="t" horiz-adv-x="331" 
d="M14 400h83.999l14 142h60v-142h124v-68h-124v-202c0 -29.333 5.83301 -48.5 17.5 -57.5s28.834 -13.5 51.501 -13.5c22 0 42 2 60 6v-64c-22 -6.66699 -46.333 -10 -73 -10c-18 0 -35 2.16699 -51 6.5s-29.833 11.666 -41.5 21.999s-21 23.833 -28 40.5
s-10.5 37.334 -10.5 62.001v210h-83v68z" />
    <glyph glyph-name="u" unicode="u" horiz-adv-x="499" 
d="M357 61c-12.667 -17.333 -30.167 -33.5 -52.5 -48.5s-52.833 -22.5 -91.5 -22.5c-44.667 0 -80.5 13.667 -107.5 41s-40.5 67.333 -40.5 120v249h75v-240c0 -32 6.66699 -56.5 20 -73.5s34 -25.5 62 -25.5c35.333 0 63.833 8 85.5 24s38.167 33.667 49.5 53v262h75v-400
h-70z" />
    <glyph glyph-name="v" unicode="v" horiz-adv-x="423" 
d="M212 100l129 300h76l-191 -416h-29l-191 416h76l129 -300h1z" />
    <glyph glyph-name="w" unicode="w" horiz-adv-x="593" 
d="M297 273l-108 -289h-28l-149 416h73l92 -277l107 290h25l107 -290l92 277h73l-149 -416h-28z" />
    <glyph glyph-name="x" unicode="x" horiz-adv-x="440" 
d="M220 161l-126 -161h-84l168 208l-154 192h84l112 -145l112 145h84l-154 -192l168 -208h-84z" />
    <glyph glyph-name="y" unicode="y" horiz-adv-x="423" 
d="M57 -250l120 276l-171 374h76l128 -299l131 299h76l-299 -650h-61z" />
    <glyph glyph-name="z" unicode="z" horiz-adv-x="392" 
d="M41 400h333v-16l-242 -324h229v-60h-343v17l241 323h-218v60z" />
    <glyph glyph-name="braceleft" unicode="{" horiz-adv-x="321" 
d="M45 252c25.333 12.667 44.833 27.498 58.5 44.498s20.5 42.5 20.5 76.5v208c0 60.667 15.833 104.334 47.5 131.001s74.5 40.667 128.5 42v-71c-32 0 -56.667 -8 -74 -24s-26 -44.667 -26 -86v-193c0 -22.667 -2.16699 -42.167 -6.5 -58.5s-10.166 -30.5 -17.499 -42.5
s-15.833 -22.333 -25.5 -31s-20.167 -17 -31.5 -25c11.333 -8 21.833 -16.333 31.5 -25s18.167 -19 25.5 -31s13.166 -26.167 17.499 -42.5s6.5 -35.833 6.5 -58.5v-193c0 -41.333 8.66699 -70 26 -86s42 -24 74 -24v-71c-54 1.33301 -96.833 15.333 -128.5 42
s-47.5 70.334 -47.5 131.001v208c0 34 -6.83301 59.5 -20.5 76.5s-33.167 31.833 -58.5 44.5v58z" />
    <glyph glyph-name="bar" unicode="|" horiz-adv-x="256" 
d="M166 -200h-76v1000h76v-1000z" />
    <glyph glyph-name="braceright" unicode="}" horiz-adv-x="321" 
d="M275 194c-24.667 -12.667 -44 -27.498 -58 -44.498s-21 -42.5 -21 -76.5v-208c0 -60.667 -15.667 -104.334 -47 -131.001s-74 -40.667 -128 -42v71c32 0 56.5 8 73.5 24s25.5 44.667 25.5 86v193c0 22.667 2.16699 42.167 6.5 58.5s10.166 30.5 17.499 42.5
s15.833 22.333 25.5 31s20.167 17 31.5 25c-11.333 8 -21.833 16.333 -31.5 25s-18.167 19 -25.5 31s-13.166 26.167 -17.499 42.5s-6.5 35.833 -6.5 58.5v193c0 41.333 -8.5 70 -25.5 86s-41.5 24 -73.5 24v71c54 -1.33301 96.667 -15.333 128 -42s47 -70.334 47 -131.001
v-208c0 -34 7 -59.5 21 -76.5s33.333 -31.833 58 -44.5v-58z" />
    <glyph glyph-name="asciitilde" unicode="~" 
d="M214 310c16 0 31.3301 -3 45.9971 -9s28.834 -12.5 42.501 -19.5s27.167 -13.333 40.5 -19s26.666 -8.5 39.999 -8.5c16 0 30.5 4.83301 43.5 14.5s23.5 25.167 31.5 46.5l69 -31c-11.333 -30 -28.666 -54.833 -51.999 -74.5s-52.333 -29.5 -87 -29.5
c-16.667 0 -32.167 3 -46.5 9s-28.333 12.667 -42 20s-27.167 14 -40.5 20s-27 9 -41 9c-17.333 0 -32.666 -4.83301 -45.999 -14.5s-24.333 -24.5 -33 -44.5l-68 30c10.667 27.333 27.834 51 51.501 71s54.167 30 91.5 30z" />
    <glyph glyph-name="uni00A0" unicode="&#xa0;" horiz-adv-x="310" 
 />
    <glyph glyph-name="exclamdown" unicode="&#xa1;" horiz-adv-x="285" 
d="M106 208h72l3 -505h-78zM198 357c0 -15.333 -5.5 -28.5 -16.5 -39.5s-24.167 -16.5 -39.5 -16.5s-28.5 5.5 -39.5 16.5s-16.5 24.167 -16.5 39.5s5.5 28.5 16.5 39.5s24.167 16.5 39.5 16.5s28.5 -5.5 39.5 -16.5s16.5 -24.167 16.5 -39.5z" />
    <glyph glyph-name="cent" unicode="&#xa2;" 
d="M334 409c44.667 -5.33301 82.3311 -20.3281 112.998 -44.9951s50.334 -55.334 59.001 -92.001h-75c-6.66699 17.333 -18.167 32.166 -34.5 44.499s-37.166 20.166 -62.499 23.499v-280c25.333 3.33301 46.5 11 63.5 23s28.833 27.333 35.5 46h75
c-8.66699 -38 -28.5 -69.167 -59.5 -93.5s-69.167 -38.833 -114.5 -43.5v-92h-57v93c-26.667 3.33301 -51.167 11 -73.5 23s-41.666 27.333 -57.999 46s-29 39.667 -38 63s-13.5 48.333 -13.5 75c0 26 4.5 50.833 13.5 74.5s21.667 44.667 38 63
s35.666 33.666 57.999 45.999s46.833 20.166 73.5 23.499v93h57v-91zM167.997 200.005c0 -36 10.167 -66.3311 30.5 -90.998s46.5 -40.334 78.5 -47.001v276c-32 -6.66699 -58.167 -22.334 -78.5 -47.001s-30.5 -55 -30.5 -91z" />
    <glyph glyph-name="sterling" unicode="&#xa3;" 
d="M224 314c-10 16.667 -21.667 32.666 -35 47.999s-26 31.166 -38 47.499s-22.167 33.833 -30.5 52.5s-12.5 39.667 -12.5 63c0 22.667 4.66699 45 14 67s22.666 41.667 39.999 59s38.333 31.333 63 42s52.667 16 84 16c29.333 0 56.5 -4.83301 81.5 -14.5
s46.5 -23.334 64.5 -41.001s32.167 -38.667 42.5 -63s15.5 -51.166 15.5 -80.499v-12.5c0 -4.33301 -0.333008 -8.5 -1 -12.5h-78v15c0 42.667 -11.167 76 -33.5 100s-52.833 36 -91.5 36c-20 0 -37.5 -3.33301 -52.5 -10s-27.833 -15.334 -38.5 -26.001
s-18.667 -22.667 -24 -36s-8 -26.666 -8 -39.999c0 -22 4.5 -41.833 13.5 -59.5s20 -34.5 33 -50.5l40 -48c13.667 -16 25.167 -33.333 34.5 -52h144v-57h-125c0.666992 -3.33301 1 -6.5 1 -9.5v-9.5c0 -16.667 -3 -33.167 -9 -49.5s-13.667 -31.666 -23 -45.999
s-19.666 -27.5 -30.999 -39.5s-22.333 -22.333 -33 -31h306v-72h-473v72h71c13.333 6.66699 26.833 15.834 40.5 27.501s26 24.834 37 39.501s20 30.5 27 47.5s10.5 33.833 10.5 50.5v10c0 3.33301 -0.666992 6.66602 -2 9.99902h-122v57h98z" />
    <glyph glyph-name="currency" unicode="&#xa4;" horiz-adv-x="629" 
d="M109 150c-34.667 44 -52 94.667 -52 152c0 28 4.5 54.667 13.5 80s21.5 48.666 37.5 69.999l-47 47l53 52l46 -47c21.333 16.667 44.833 29.5 70.5 38.5s53.167 13.5 82.5 13.5c28 0 55 -4.5 81 -13.5s49.333 -21.5 70 -37.5l50 46l52 -52l-49 -46
c34 -43.333 51 -93.666 51 -150.999c0 -28.667 -4.5 -56 -13.5 -82s-22.167 -49.667 -39.5 -71l48 -47l-53 -52l-48 48c-20.667 -15.333 -43.667 -27.333 -69 -36s-52 -13 -80 -13c-29.333 0 -56.5 4.33301 -81.5 13s-48.167 20.667 -69.5 36l-48 -48l-53 52zM134 302
c0 -24.667 4.66699 -48 14 -70s22.166 -41.167 38.499 -57.5s35.333 -29.166 57 -38.499s44.834 -14 69.501 -14s47.834 4.66699 69.501 14s40.667 22.166 57 38.499s29.166 35.5 38.499 57.5s14 45.333 14 70s-4.66699 48 -14 70s-22.166 41.167 -38.499 57.5
s-35.333 29.333 -57 39s-44.834 14.5 -69.501 14.5s-47.834 -4.83301 -69.501 -14.5s-40.667 -22.667 -57 -39s-29.166 -35.5 -38.499 -57.5s-14 -45.333 -14 -70z" />
    <glyph glyph-name="yen" unicode="&#xa5;" 
d="M172 444l-153 256h87l192 -327l193 327h86l-152 -256h102v-57h-136l-44 -75h180v-57h-188v-255h-81v255h-188v57h180l-45 75h-135v57h102z" />
    <glyph glyph-name="brokenbar" unicode="&#xa6;" horiz-adv-x="263" 
d="M170 393h-77v347h77v-347zM170 -140h-77v347h77v-347z" />
    <glyph glyph-name="section" unicode="&#xa7;" 
d="M111 259c0 32.667 8.6709 63 26.0039 91s39.333 49.333 66 64c-24 14.667 -44 33.167 -60 55.5s-24 50.833 -24 85.5c0 18 3.5 36.333 10.5 55s17.833 35.5 32.5 50.5s33.667 27.167 57 36.5s51.333 14 84 14c47.333 0 88.333 -13.667 123 -41
s56.334 -64.666 65.001 -111.999h-78c-5.33301 27.333 -17.833 47.666 -37.5 60.999s-43.834 20 -72.501 20c-18.667 0 -34.834 -2.66699 -48.501 -8s-24.834 -12 -33.501 -20s-15 -17 -19 -27s-6 -19.333 -6 -28c0 -30.667 9 -54.167 27 -70.5s45 -29.166 81 -38.499
c25.333 -0.666992 49.333 -6 72 -16s42.5 -23.5 59.5 -40.5s30.333 -36.833 40 -59.5s14.5 -46.667 14.5 -72c0 -34 -8.66699 -65 -26 -93s-40 -49 -68 -63c30 -15.333 53.667 -34.833 71 -58.5s26 -53.5 26 -89.5c0 -27.333 -5.33301 -51.5 -16 -72.5
s-24.834 -38.5 -42.501 -52.5s-37.667 -24.667 -60 -32s-45.5 -11 -69.5 -11c-53.333 0 -97.833 13.667 -133.5 41s-58.167 64.666 -67.5 111.999h79c10 -54 50.667 -81 122 -81c14 0 27.5 2 40.5 6s24.667 10 35 18s18.666 18 24.999 30s9.5 25.667 9.5 41
c0 30.667 -11.167 55.167 -33.5 73.5s-53.833 33.166 -94.5 44.499c-24.667 2 -47.667 8.16699 -69 18.5s-40 23.833 -56 40.5s-28.5 35.834 -37.5 57.501s-13.5 45.167 -13.5 70.5zM191.004 259c0 -15.333 2.83301 -29.833 8.5 -43.5s13.334 -25.5 23.001 -35.5
s21.167 -17.833 34.5 -23.5s27.666 -8.5 42.999 -8.5s29.666 2.83301 42.999 8.5s25 13.5 35 23.5s17.833 21.833 23.5 35.5s8.5 28.167 8.5 43.5s-2.83301 29.833 -8.5 43.5s-13.5 25.5 -23.5 35.5s-21.667 18 -35 24s-27.666 9 -42.999 9s-29.666 -3 -42.999 -9
s-24.833 -14 -34.5 -24s-17.334 -21.833 -23.001 -35.5s-8.5 -28.167 -8.5 -43.5z" />
    <glyph glyph-name="dieresis" unicode="&#xa8;" horiz-adv-x="310" 
d="M0 557c0 14 4.66699 25.667 14 35s20.666 14 33.999 14s24.833 -4.66699 34.5 -14s14.5 -21 14.5 -35c0 -13.333 -4.83301 -24.666 -14.5 -33.999s-21.167 -14 -34.5 -14s-24.666 4.66699 -33.999 14s-14 20.666 -14 33.999zM213 557c0 14 4.66699 25.667 14 35
s20.666 14 33.999 14s24.666 -4.66699 33.999 -14s14 -21 14 -35c0 -13.333 -4.66699 -24.666 -14 -33.999s-20.666 -14 -33.999 -14s-24.666 4.66699 -33.999 14s-14 20.666 -14 33.999z" />
    <glyph glyph-name="copyright" unicode="&#xa9;" horiz-adv-x="869" 
d="M261 351c0 24.667 4.66602 47.9961 13.999 69.9961s22 41.167 38 57.5s35 29.333 57 39s46 14.5 72 14.5c44 0 81.5 -12.333 112.5 -37s52.5 -57.667 64.5 -99h-61c-8 22.667 -22 41.834 -42 57.501s-44.667 23.5 -74 23.5c-17.333 0 -33.5 -3.16699 -48.5 -9.5
s-28.167 -15.166 -39.5 -26.499s-20.166 -24.666 -26.499 -39.999s-9.5 -32 -9.5 -50c0 -17.333 3.16699 -33.666 9.5 -48.999s15.166 -28.5 26.499 -39.5s24.5 -19.667 39.5 -26s31.167 -9.5 48.5 -9.5c28.667 0 53.5 7.83301 74.5 23.5s34.5 35.5 40.5 59.5h62
c-11.333 -42 -32.833 -75.5 -64.5 -100.5s-69.167 -37.5 -112.5 -37.5c-25.333 0 -49 4.66699 -71 14s-41.167 22.166 -57.5 38.499s-29.166 35.333 -38.499 57s-14 44.834 -14 69.501zM72.999 349.996c0 50 9.5 96.833 28.5 140.5s44.667 81.667 77 114s70.5 58 114.5 77
s91 28.5 141 28.5s97 -9.5 141 -28.5s82.333 -44.667 115 -77s58.5 -70.333 77.5 -114s28.5 -90.5 28.5 -140.5s-9.5 -96.667 -28.5 -140s-44.833 -81.333 -77.5 -114s-71 -58.334 -115 -77.001s-91 -28 -141 -28s-97 9.33301 -141 28s-82.167 44.334 -114.5 77.001
s-58 70.667 -77 114s-28.5 90 -28.5 140zM135.999 349.996c0 -42.667 7.83301 -82.334 23.5 -119.001s37 -68.5 64 -95.5s58.5 -48.167 94.5 -63.5s74.667 -23 116 -23s80.166 7.66699 116.499 23s68 36.5 95 63.5s48.333 58.833 64 95.5s23.5 76.334 23.5 119.001
s-7.83301 82.334 -23.5 119.001s-37 68.5 -64 95.5s-58.667 48.333 -95 64s-75.166 23.5 -116.499 23.5s-80 -7.83301 -116 -23.5s-67.5 -37 -94.5 -64s-48.333 -58.833 -64 -95.5s-23.5 -76.334 -23.5 -119.001z" />
    <glyph glyph-name="ordfeminine" unicode="&#xaa;" horiz-adv-x="344" 
d="M46 613c5.33301 28.667 19.833 50.668 43.5 66.001s50.834 23 81.501 23c39.333 0 69.666 -9.83301 90.999 -29.5s32 -45.167 32 -76.5v-196h-47l-3 39c-8.66699 -11.333 -21.167 -21.333 -37.5 -30s-38.5 -13 -66.5 -13c-30 0 -55.5 7.5 -76.5 22.5
s-31.5 39.167 -31.5 72.5c0 31.333 11.5 55.166 34.5 71.499s58.833 24.5 107.5 24.5h70v9c0 18.667 -6.16699 33.5 -18.5 44.5s-30.5 16.5 -54.5 16.5c-18.667 0 -34.5 -4 -47.5 -12s-21.167 -18.667 -24.5 -32h-53zM154 440.001c12 0 23.332 1.66992 33.999 5.00293
s20.167 8.16602 28.5 14.499s15 14.166 20 23.499s7.5 19.666 7.5 30.999v31h-65c-33.333 0 -57.666 -4.33301 -72.999 -13s-23 -22 -23 -40c0 -17.333 6.5 -30.333 19.5 -39s30.167 -13 51.5 -13z" />
    <glyph glyph-name="guillemotleft" unicode="&#xab;" horiz-adv-x="483" 
d="M244 148l-47 -51l-160 188l160 188l47 -51l-115 -137zM436 148l-48 -51l-160 188l160 188l48 -51l-116 -137z" />
    <glyph glyph-name="logicalnot" unicode="&#xac;" 
d="M523 320v-266h-73v197h-388v69h461z" />
    <glyph glyph-name="uni00AD" unicode="&#xad;" horiz-adv-x="230" 
d="M229 338v-71h-228v71h228z" />
    <glyph glyph-name="registered" unicode="&#xae;" horiz-adv-x="869" 
d="M380 175h-55v351h124c16.667 0 32.5 -1.83301 47.5 -5.5s28.167 -9.83398 39.5 -18.501s20.333 -19.667 27 -33s10 -29.666 10 -48.999c0 -30.667 -8.16699 -53.667 -24.5 -69s-36.833 -25.333 -61.5 -30l106 -146h-64l-103 142h-46v-142zM450 368
c17.333 0 32.501 3.83301 45.501 11.5s19.5 21.167 19.5 40.5c0 18.667 -6.33301 32 -19 40s-28.334 12 -47.001 12h-69v-104h70zM73.001 350c0 50 9.5 96.833 28.5 140.5s44.667 81.667 77 114s70.5 58 114.5 77s91 28.5 141 28.5s97 -9.5 141 -28.5
s82.333 -44.667 115 -77s58.5 -70.333 77.5 -114s28.5 -90.5 28.5 -140.5s-9.5 -96.667 -28.5 -140s-44.833 -81.333 -77.5 -114s-71 -58.334 -115 -77.001s-91 -28 -141 -28s-97 9.33301 -141 28s-82.167 44.334 -114.5 77.001s-58 70.667 -77 114s-28.5 90 -28.5 140z
M136.001 350c0 -42.667 7.83301 -82.334 23.5 -119.001s37 -68.5 64 -95.5s58.5 -48.167 94.5 -63.5s74.667 -23 116 -23s80.166 7.66699 116.499 23s68 36.5 95 63.5s48.333 58.833 64 95.5s23.5 76.334 23.5 119.001s-7.83301 82.334 -23.5 119.001s-37 68.5 -64 95.5
s-58.667 48.333 -95 64s-75.166 23.5 -116.499 23.5s-80 -7.83301 -116 -23.5s-67.5 -37 -94.5 -64s-48.333 -58.833 -64 -95.5s-23.5 -76.334 -23.5 -119.001z" />
    <glyph glyph-name="macron" unicode="&#xaf;" horiz-adv-x="310" 
d="M13 579h283v-61h-283v61z" />
    <glyph glyph-name="degree" unicode="&#xb0;" horiz-adv-x="398" 
d="M199 712c20 0 38.6699 -3.83203 56.0029 -11.499s32.333 -18 45 -31s22.667 -28 30 -45s11 -34.5 11 -52.5c0 -20 -3.5 -38.667 -10.5 -56s-16.833 -32.5 -29.5 -45.5s-27.667 -23.167 -45 -30.5s-36.333 -11 -57 -11s-39.834 3.66699 -57.501 11
s-32.834 17.333 -45.501 30s-22.5 27.667 -29.5 45s-10.5 35.666 -10.5 54.999s3.5 37.5 10.5 54.5s16.833 32 29.5 45s27.667 23.333 45 31s36.666 11.5 57.999 11.5zM199.003 478.001c24 0 44.667 9.00098 62 27.001s26 40 26 66c0 12.667 -2.33301 24.667 -7 36
s-11 21.166 -19 29.499s-17.5 14.833 -28.5 19.5s-22.5 7 -34.5 7s-23.5 -2.33301 -34.5 -7s-20.5 -11.167 -28.5 -19.5s-14.333 -18.166 -19 -29.499s-7 -23.333 -7 -36c0 -13.333 2.33301 -25.5 7 -36.5s11 -20.833 19 -29.5s17.5 -15.334 28.5 -20.001s22.833 -7 35.5 -7
z" />
    <glyph glyph-name="plusminus" unicode="&#xb1;" 
d="M335 529v-181h192v-68h-192v-188h-73v188h-193v68h193v181h73zM527 57v-57h-458v57h458z" />
    <glyph glyph-name="twosuperior" unicode="&#xb2;" horiz-adv-x="347" 
d="M303 582l0.00195312 -56.999h-263v29l138 139l15.5 15.5c6.33301 6.33301 12.5 13.166 18.5 20.499s11 14.833 15 22.5s6 15.5 6 23.5c0 15.333 -5.33301 27.666 -16 36.999s-25 14 -43 14c-17.333 0 -31.333 -3.66699 -42 -11s-17.667 -17.666 -21 -30.999
c-0.666992 -3.33301 -1.33398 -7 -2.00098 -11s-1 -8.66699 -1 -14h-61c-0.666992 5.33301 -0.833984 10.5 -0.500977 15.5s0.833008 9.83301 1.5 14.5c3.33301 27.333 16 49.833 38 67.5s50.333 26.5 85 26.5c38.667 0 69.167 -10.5 91.5 -31.5s33.5 -47.5 33.5 -79.5
c0 -12.667 -2.33301 -24.5 -7 -35.5s-10.667 -21.5 -18 -31.5s-15.333 -19.333 -24 -28l-25 -24l-75 -71h156z" />
    <glyph glyph-name="threesuperior" unicode="&#xb3;" horiz-adv-x="352" 
d="M163 735c23.333 0.666992 40.332 5.33691 50.999 14.0039s16 20.667 16 36c0 11.333 -5.33301 21.166 -16 29.499s-24.334 12.5 -41.001 12.5c-17.333 0 -32 -4.16699 -44 -12.5s-18 -21.5 -18 -39.5h-64c1.33301 32.667 13.5 59 36.5 79s52.5 30 88.5 30
c19.333 0 36.5 -2.5 51.5 -7.5s27.833 -11.833 38.5 -20.5s18.667 -18.834 24 -30.501s8 -23.834 8 -36.501c0 -20 -5 -36.5 -15 -49.5s-23 -22.5 -39 -28.5c17.333 -5.33301 32.166 -15.333 44.499 -30s18.5 -33 18.5 -55c0 -14 -3 -27.167 -9 -39.5
s-14.667 -23.333 -26 -33s-25.166 -17.334 -41.499 -23.001s-34.5 -8.5 -54.5 -8.5c-17.333 0 -34 2.5 -50 7.5s-30.333 12.167 -43 21.5s-22.667 21 -30 35s-11 30 -11 48h61c0.666992 -19.333 8.33398 -33.5 23.001 -42.5s31.334 -13.5 50.001 -13.5
c20.667 0 37 5.33301 49 16s18 22.667 18 36c0 34 -25.333 52 -76 54v51z" />
    <glyph glyph-name="acute" unicode="&#xb4;" horiz-adv-x="310" 
d="M256 611l-171 -110l-37 38l161 138z" />
    <glyph glyph-name="mu" unicode="&#xb5;" horiz-adv-x="500" 
d="M65 400h74v-242c0.666992 -66.667 32.334 -100 95.001 -100c30 0 55.833 8.5 77.5 25.5s38.167 35.5 49.5 55.5v261h75v-400h-70l-5 61c-12 -17.333 -28.5 -33.5 -49.5 -48.5s-46.833 -22.5 -77.5 -22.5c-44.667 0 -76.334 12.667 -95.001 38v-278h-74v650z" />
    <glyph glyph-name="paragraph" unicode="&#xb6;" horiz-adv-x="553" 
d="M253 331c-50 3.33301 -89.667 20.832 -119 52.499s-44 73.167 -44 124.5c0 64.667 16.833 112.834 50.5 144.501s87.5 47.5 161.5 47.5h168v-71h-88c-17.333 0 -30 -5 -38 -15s-12 -23 -12 -39v-775h-79v531z" />
    <glyph glyph-name="periodcentered" unicode="&#xb7;" horiz-adv-x="231" 
d="M60 311c0 15.333 5.33301 28.5 16 39.5s23.667 16.5 39 16.5s28.5 -5.5 39.5 -16.5s16.5 -24.167 16.5 -39.5s-5.5 -28.333 -16.5 -39s-24.167 -16 -39.5 -16s-28.333 5.33301 -39 16s-16 23.667 -16 39z" />
    <glyph glyph-name="cedilla" unicode="&#xb8;" horiz-adv-x="310" 
d="M107 -239l-52 30l81 172l79 -27z" />
    <glyph glyph-name="onesuperior" unicode="&#xb9;" horiz-adv-x="261" 
d="M127 802l-74 -41l-28 50l127 71h38v-357h-63v277z" />
    <glyph glyph-name="ordmasculine" unicode="&#xba;" horiz-adv-x="377" 
d="M37 547c0 21.333 3.83301 41.333 11.5 60s18.334 35 32.001 49s29.834 25.167 48.501 33.5s38.667 12.5 60 12.5s41.166 -4.16699 59.499 -12.5s34.333 -19.5 48 -33.5s24.334 -30.333 32.001 -49s11.5 -38.667 11.5 -60s-3.83301 -41.166 -11.5 -59.499
s-18.334 -34.5 -32.001 -48.5s-29.667 -25 -48 -33s-38.166 -12 -59.499 -12s-41.333 4 -60 12s-34.834 19 -48.501 33s-24.334 30.167 -32.001 48.5s-11.5 38.166 -11.5 59.499zM90 547c0 -14.667 2.5 -28.334 7.5 -41.001s12 -23.667 21 -33s19.5 -16.666 31.5 -21.999
s25 -8 39 -8s27 2.66699 39 8s22.5 12.666 31.5 21.999s16.167 20.333 21.5 33s8 26.334 8 41.001c0 30.667 -9.66699 56 -29 76s-43 30 -71 30s-51.5 -10 -70.5 -30s-28.5 -45.333 -28.5 -76z" />
    <glyph glyph-name="guillemotright" unicode="&#xbb;" horiz-adv-x="483" 
d="M162 285l-115 137l47 51l160 -188l-160 -188l-47 51zM354 285l-116 137l48 51l160 -188l-160 -188l-48 51z" />
    <glyph glyph-name="onequarter" unicode="&#xbc;" horiz-adv-x="840" 
d="M248 -23l-61 35l406 702l60 -34zM764 114v-55h-49v-59h-62v59h-179v39l198 259h43v-243h49zM167 624l-74 -41l-28 50l127 71h38v-357h-63v277zM653 242l-99 -128h99v128z" />
    <glyph glyph-name="onehalf" unicode="&#xbd;" horiz-adv-x="840" 
d="M774 57l0.00195312 -56.999h-263v29l138 139l15.5 15.5c6.33301 6.33301 12.5 13.166 18.5 20.499s11 14.833 15 22.5s6 15.5 6 23.5c0 15.333 -5.33301 27.666 -16 36.999s-25 14 -43 14c-17.333 0 -31.333 -3.66699 -42 -11s-17.667 -17.666 -21 -30.999
c-0.666992 -3.33301 -1.33398 -7 -2.00098 -11s-1 -8.66699 -1 -14h-61c-0.666992 5.33301 -0.833984 10.5 -0.500977 15.5s0.833008 9.83301 1.5 14.5c3.33301 27.333 16 49.833 38 67.5s50.333 26.5 85 26.5c38.667 0 69.167 -10.5 91.5 -31.5s33.5 -47.5 33.5 -79.5
c0 -12.667 -2.33301 -24.5 -7 -35.5s-10.667 -21.5 -18 -31.5s-15.333 -19.333 -24 -28l-25 -24l-75 -71h156zM248.002 -22.999l-61 35l406 702l60 -34zM167.002 624.001l-74 -41l-28 50l127 71h38v-357h-63v277z" />
    <glyph glyph-name="threequarters" unicode="&#xbe;" horiz-adv-x="840" 
d="M248 -23l-61 35l406 702l60 -34zM764 114v-55h-49v-59h-62v59h-179v39l198 259h43v-243h49zM163 556c23.333 0.666992 40.332 5.33691 50.999 14.0039s16 20.667 16 36c0 11.333 -5.33301 21.166 -16 29.499s-24.334 12.5 -41.001 12.5c-17.333 0 -32 -4.16699 -44 -12.5
s-18 -21.5 -18 -39.5h-64c1.33301 32.667 13.5 59 36.5 79s52.5 30 88.5 30c19.333 0 36.5 -2.5 51.5 -7.5s27.833 -11.833 38.5 -20.5s18.667 -18.834 24 -30.501s8 -23.834 8 -36.501c0 -20 -5 -36.5 -15 -49.5s-23 -22.5 -39 -28.5
c17.333 -5.33301 32.166 -15.333 44.499 -30s18.5 -33 18.5 -55c0 -14 -3 -27.167 -9 -39.5s-14.667 -23.333 -26 -33s-25.166 -17.334 -41.499 -23.001s-34.5 -8.5 -54.5 -8.5c-17.333 0 -34 2.5 -50 7.5s-30.333 12.167 -43 21.5s-22.667 21 -30 35s-11 30 -11 48h61
c0.666992 -19.333 8.33398 -33.5 23.001 -42.5s31.334 -13.5 50.001 -13.5c20.667 0 37 5.33301 49 16s18 22.667 18 36c0 34 -25.333 52 -76 54v51zM652.999 242.003l-99 -128h99v128z" />
    <glyph glyph-name="questiondown" unicode="&#xbf;" horiz-adv-x="516" 
d="M268 232l-0.00195312 -131.999c-18 -10.667 -36.833 -22.834 -56.5 -36.501s-37.667 -28.667 -54 -45s-29.833 -34.333 -40.5 -54s-16 -40.834 -16 -63.501c0 -38 12.333 -69.833 37 -95.5s60 -38.5 106 -38.5c50 0 87.833 13.333 113.5 40s36.834 63.334 33.501 110.001
h78c3.33301 -32.667 -0.166992 -62.667 -10.5 -90s-25.666 -50.833 -45.999 -70.5s-44.833 -35 -73.5 -46s-59.667 -16.5 -93 -16.5c-35.333 0 -66.833 5.33301 -94.5 16s-51.167 25.5 -70.5 44.5s-34 41.333 -44 67s-15 53.5 -15 83.5c0 27.333 5.16699 52.5 15.5 75.5
s23.5 43.833 39.5 62.5s34 35.5 54 50.5s39.667 28.167 59 39.5v99h78zM283.998 357.001c0 -15.333 -5.5 -28.5 -16.5 -39.5s-24.167 -16.5 -39.5 -16.5s-28.5 5.5 -39.5 16.5s-16.5 24.167 -16.5 39.5s5.5 28.5 16.5 39.5s24.167 16.5 39.5 16.5s28.5 -5.5 39.5 -16.5
s16.5 -24.167 16.5 -39.5z" />
    <glyph glyph-name="Agrave" unicode="&#xc0;" horiz-adv-x="701" 
d="M367 719l318 -719h-85l-80 183h-338l-81 -183h-85l318 719h33zM213 258h275l-137 316zM293 914l161 -124l-37 -34l-171 99z" />
    <glyph glyph-name="Aacute" unicode="&#xc1;" horiz-adv-x="701" 
d="M367 719l318 -719h-85l-80 183h-338l-81 -183h-85l318 719h33zM213 258h275l-137 316zM454 855l-171 -99l-37 34l161 124z" />
    <glyph glyph-name="Acircumflex" unicode="&#xc2;" horiz-adv-x="701" 
d="M367 719l318 -719h-85l-80 183h-338l-81 -183h-85l318 719h33zM213 258h275l-137 316zM488 795l-35 -38l-103 63l-103 -64l-35 39l138 96z" />
    <glyph glyph-name="Atilde" unicode="&#xc3;" horiz-adv-x="701" 
d="M367 719l318 -719h-85l-80 183h-338l-81 -183h-85l318 719h33zM213 258h275l-137 316zM198 793c7.33301 17.333 18.666 32.499 33.999 45.499s33 19.5 53 19.5c12 0 23.5 -2 34.5 -6s21.833 -8.16699 32.5 -12.5l31.5 -12.5c10.333 -4 20.5 -6 30.5 -6
c10.667 0 19.834 4.16699 27.501 12.5s13.5 17.5 17.5 27.5l44 -28c-6.66699 -19.333 -18 -35.166 -34 -47.499s-34 -18.5 -54 -18.5c-11.333 0 -22.333 2 -33 6l-32 12.5l-31 12.5c-10 4 -20 6 -30 6c-12.667 0 -22.5 -4 -29.5 -12s-13.167 -17.667 -18.5 -29z" />
    <glyph glyph-name="Adieresis" unicode="&#xc4;" horiz-adv-x="701" 
d="M367 719l318 -719h-85l-80 183h-338l-81 -183h-85l318 719h33zM213 258h275l-137 316zM196 806c0 12.667 4.66699 23.167 14 31.5s20.666 12.5 33.999 12.5s24.833 -4.16699 34.5 -12.5s14.5 -18.833 14.5 -31.5c0 -12 -4.83301 -22.167 -14.5 -30.5
s-21.167 -12.5 -34.5 -12.5s-24.666 4.16699 -33.999 12.5s-14 18.5 -14 30.5zM409 806c0 12.667 4.66699 23.167 14 31.5s20.666 12.5 33.999 12.5s24.666 -4.16699 33.999 -12.5s14 -18.833 14 -31.5c0 -12 -4.66699 -22.167 -14 -30.5s-20.666 -12.5 -33.999 -12.5
s-24.666 4.16699 -33.999 12.5s-14 18.5 -14 30.5z" />
    <glyph glyph-name="Aring" unicode="&#xc5;" horiz-adv-x="701" 
d="M367 719l318 -719h-85l-80 183h-338l-81 -183h-85l318 719h33zM213 258h275l-137 316zM350 921c12.667 0 24.834 -2.33301 36.501 -7s21.834 -10.834 30.501 -18.501s15.5 -16.5 20.5 -26.5s7.5 -20.667 7.5 -32s-2.5 -22.166 -7.5 -32.499s-11.833 -19.333 -20.5 -27
s-18.834 -13.834 -30.501 -18.501s-23.834 -7 -36.501 -7c-13.333 0 -25.666 2.33301 -36.999 7s-21.333 10.834 -30 18.501s-15.5 16.667 -20.5 27s-7.5 21.166 -7.5 32.499s2.5 22 7.5 32s11.833 18.833 20.5 26.5s18.667 13.834 30 18.501s23.666 7 36.999 7zM350 881
c-13.333 0 -24.833 -4.33301 -34.5 -13s-14.5 -19 -14.5 -31c0 -12.667 4.83301 -23.334 14.5 -32.001s21.167 -13 34.5 -13s24.833 4.33301 34.5 13s14.5 19.334 14.5 32.001c0 12 -4.83301 22.333 -14.5 31s-21.167 13 -34.5 13z" />
    <glyph glyph-name="AE" unicode="&#xc6;" horiz-adv-x="1014" 
d="M587 623v-215h338v-77h-338v-254h369v-77h-450v187h-265l-133 -187h-93l499 700h442v-77h-369zM506 260v299l-213 -299h213z" />
    <glyph glyph-name="Ccedilla" unicode="&#xc7;" horiz-adv-x="778" 
d="M50 350c0 49.333 9.16992 95.8311 27.5029 139.498s43.333 81.834 75 114.501s69 58.5 112 77.5s89.167 28.5 138.5 28.5c42 0 80.833 -6 116.5 -18s67.667 -28.5 96 -49.5s52.666 -46.167 72.999 -75.5s36.166 -61 47.499 -95h-87c-8 21.333 -19.333 41.666 -34 60.999
s-32.334 36.5 -53.001 51.5s-44.167 26.833 -70.5 35.5s-55.166 13 -86.499 13c-38.667 0 -74.667 -7.33301 -108 -22s-62.333 -34.667 -87 -60s-44 -55.166 -58 -89.499s-21 -71.5 -21 -111.5s7 -77.333 21 -112s33.333 -64.667 58 -90s53.667 -45.333 87 -60
s69.333 -22 108 -22c31.333 0 60.5 4.5 87.5 13.5s51 21.167 72 36.5s38.833 33 53.5 53s25.667 41.333 33 64h87c-10 -35.333 -25.333 -67.833 -46 -97.5s-45.334 -55.167 -74.001 -76.5s-61.167 -38 -97.5 -50s-75.5 -18 -117.5 -18c-49.333 0 -95.5 9.33301 -138.5 28
s-80.333 44.334 -112 77.001s-56.667 70.667 -75 114s-27.5 90 -27.5 140zM357.003 -239.002l-52 30l81 172l79 -27z" />
    <glyph glyph-name="Egrave" unicode="&#xc8;" horiz-adv-x="590" 
d="M163 623v-215h338v-77h-338v-254h369v-77h-450v700h450v-77h-369zM238 914l161 -124l-37 -34l-171 99z" />
    <glyph glyph-name="Eacute" unicode="&#xc9;" horiz-adv-x="590" 
d="M163 623v-215h338v-77h-338v-254h369v-77h-450v700h450v-77h-369zM419 855l-171 -99l-37 34l161 124z" />
    <glyph glyph-name="Ecircumflex" unicode="&#xca;" horiz-adv-x="590" 
d="M163 623v-215h338v-77h-338v-254h369v-77h-450v700h450v-77h-369zM433 795l-35 -38l-103 63l-103 -64l-35 39l138 96z" />
    <glyph glyph-name="Edieresis" unicode="&#xcb;" horiz-adv-x="590" 
d="M163 623v-215h338v-77h-338v-254h369v-77h-450v700h450v-77h-369zM141 806c0 12.667 4.66699 23.167 14 31.5s20.666 12.5 33.999 12.5s24.833 -4.16699 34.5 -12.5s14.5 -18.833 14.5 -31.5c0 -12 -4.83301 -22.167 -14.5 -30.5s-21.167 -12.5 -34.5 -12.5
s-24.666 4.16699 -33.999 12.5s-14 18.5 -14 30.5zM354 806c0 12.667 4.66699 23.167 14 31.5s20.666 12.5 33.999 12.5s24.666 -4.16699 33.999 -12.5s14 -18.833 14 -31.5c0 -12 -4.66699 -22.167 -14 -30.5s-20.666 -12.5 -33.999 -12.5s-24.666 4.16699 -33.999 12.5
s-14 18.5 -14 30.5z" />
    <glyph glyph-name="Igrave" unicode="&#xcc;" horiz-adv-x="261" 
d="M171 0h-81v700h81v-700zM73 914l161 -124l-37 -34l-171 99z" />
    <glyph glyph-name="Iacute" unicode="&#xcd;" horiz-adv-x="261" 
d="M171 0h-81v700h81v-700zM234 855l-171 -99l-37 34l161 124z" />
    <glyph glyph-name="Icircumflex" unicode="&#xce;" horiz-adv-x="261" 
d="M171 0h-81v700h81v-700zM268 795l-35 -38l-103 63l-103 -64l-35 39l138 96z" />
    <glyph glyph-name="Idieresis" unicode="&#xcf;" horiz-adv-x="261" 
d="M171 0h-81v700h81v-700zM-24 806c0 12.667 4.66699 23.167 14 31.5s20.666 12.5 33.999 12.5s24.833 -4.16699 34.5 -12.5s14.5 -18.833 14.5 -31.5c0 -12 -4.83301 -22.167 -14.5 -30.5s-21.167 -12.5 -34.5 -12.5s-24.666 4.16699 -33.999 12.5s-14 18.5 -14 30.5z
M189 806c0 12.667 4.66699 23.167 14 31.5s20.666 12.5 33.999 12.5s24.666 -4.16699 33.999 -12.5s14 -18.833 14 -31.5c0 -12 -4.66699 -22.167 -14 -30.5s-20.666 -12.5 -33.999 -12.5s-24.666 4.16699 -33.999 12.5s-14 18.5 -14 30.5z" />
    <glyph glyph-name="Eth" unicode="&#xd0;" horiz-adv-x="728" 
d="M82 282l-70 -0.00195312v68h70v350h250c53.333 0 101.333 -8.83301 144 -26.5s79 -42.167 109 -73.5s53 -68.166 69 -110.499s24 -88.166 24 -137.499c0 -50.667 -7.5 -97.5 -22.5 -140.5s-37 -80.167 -66 -111.5s-64.5 -55.833 -106.5 -73.5s-89.667 -26.5 -143 -26.5
h-258v282zM340 75.998c41.333 0 78.001 6.66797 110.001 20.001s58.833 32.166 80.5 56.499s38.167 53.5 49.5 87.5s17 71.333 17 112c0 39.333 -6 75.5 -18 108.5s-29.333 61.5 -52 85.5s-50.334 42.833 -83.001 56.5s-70 20.5 -112 20.5h-169v-273h185v-68h-185v-206h177z
" />
    <glyph glyph-name="Ntilde" unicode="&#xd1;" horiz-adv-x="740" 
d="M658 -32h-32l-463 574v-542h-81v719h32l463 -572v553h81v-732zM218 793c7.33301 17.333 18.666 32.499 33.999 45.499s33 19.5 53 19.5c12 0 23.5 -2 34.5 -6s21.833 -8.16699 32.5 -12.5l31.5 -12.5c10.333 -4 20.5 -6 30.5 -6c10.667 0 19.834 4.16699 27.501 12.5
s13.5 17.5 17.5 27.5l44 -28c-6.66699 -19.333 -18 -35.166 -34 -47.499s-34 -18.5 -54 -18.5c-11.333 0 -22.333 2 -33 6l-32 12.5l-31 12.5c-10 4 -20 6 -30 6c-12.667 0 -22.5 -4 -29.5 -12s-13.167 -17.667 -18.5 -29z" />
    <glyph glyph-name="Ograve" unicode="&#xd2;" horiz-adv-x="807" 
d="M50 350c0 49.333 9.16699 95.833 27.5 139.5s43.5 81.834 75.5 114.501s69.333 58.5 112 77.5s88.667 28.5 138 28.5c48.667 0 94.5 -9.5 137.5 -28.5s80.5 -44.833 112.5 -77.5s57.333 -70.834 76 -114.501s28 -90.167 28 -139.5c0 -50 -9.33301 -96.667 -28 -140
s-44 -81.333 -76 -114s-69.5 -58.334 -112.5 -77.001s-88.833 -28 -137.5 -28c-49.333 0 -95.333 9.33301 -138 28s-80 44.334 -112 77.001s-57.167 70.667 -75.5 114s-27.5 90 -27.5 140zM131 350c0 -40 7.16699 -77.167 21.5 -111.5s33.666 -64.333 57.999 -90
s53 -45.667 86 -60s68.5 -21.5 106.5 -21.5s73.5 7.16699 106.5 21.5s61.833 34.333 86.5 60s44.167 55.667 58.5 90s21.5 71.5 21.5 111.5s-7.16699 77.167 -21.5 111.5s-33.833 64.166 -58.5 89.499s-53.5 45.333 -86.5 60s-68.5 22 -106.5 22s-73.5 -7.33301 -106.5 -22
s-61.667 -34.667 -86 -60s-43.666 -55.166 -57.999 -89.499s-21.5 -71.5 -21.5 -111.5zM346 914l161 -124l-37 -34l-171 99z" />
    <glyph glyph-name="Oacute" unicode="&#xd3;" horiz-adv-x="807" 
d="M50 350c0 49.333 9.16699 95.833 27.5 139.5s43.5 81.834 75.5 114.501s69.333 58.5 112 77.5s88.667 28.5 138 28.5c48.667 0 94.5 -9.5 137.5 -28.5s80.5 -44.833 112.5 -77.5s57.333 -70.834 76 -114.501s28 -90.167 28 -139.5c0 -50 -9.33301 -96.667 -28 -140
s-44 -81.333 -76 -114s-69.5 -58.334 -112.5 -77.001s-88.833 -28 -137.5 -28c-49.333 0 -95.333 9.33301 -138 28s-80 44.334 -112 77.001s-57.167 70.667 -75.5 114s-27.5 90 -27.5 140zM131 350c0 -40 7.16699 -77.167 21.5 -111.5s33.666 -64.333 57.999 -90
s53 -45.667 86 -60s68.5 -21.5 106.5 -21.5s73.5 7.16699 106.5 21.5s61.833 34.333 86.5 60s44.167 55.667 58.5 90s21.5 71.5 21.5 111.5s-7.16699 77.167 -21.5 111.5s-33.833 64.166 -58.5 89.499s-53.5 45.333 -86.5 60s-68.5 22 -106.5 22s-73.5 -7.33301 -106.5 -22
s-61.667 -34.667 -86 -60s-43.666 -55.166 -57.999 -89.499s-21.5 -71.5 -21.5 -111.5zM507 855l-171 -99l-37 34l161 124z" />
    <glyph glyph-name="Ocircumflex" unicode="&#xd4;" horiz-adv-x="807" 
d="M50 350c0 49.333 9.16699 95.833 27.5 139.5s43.5 81.834 75.5 114.501s69.333 58.5 112 77.5s88.667 28.5 138 28.5c48.667 0 94.5 -9.5 137.5 -28.5s80.5 -44.833 112.5 -77.5s57.333 -70.834 76 -114.501s28 -90.167 28 -139.5c0 -50 -9.33301 -96.667 -28 -140
s-44 -81.333 -76 -114s-69.5 -58.334 -112.5 -77.001s-88.833 -28 -137.5 -28c-49.333 0 -95.333 9.33301 -138 28s-80 44.334 -112 77.001s-57.167 70.667 -75.5 114s-27.5 90 -27.5 140zM131 350c0 -40 7.16699 -77.167 21.5 -111.5s33.666 -64.333 57.999 -90
s53 -45.667 86 -60s68.5 -21.5 106.5 -21.5s73.5 7.16699 106.5 21.5s61.833 34.333 86.5 60s44.167 55.667 58.5 90s21.5 71.5 21.5 111.5s-7.16699 77.167 -21.5 111.5s-33.833 64.166 -58.5 89.499s-53.5 45.333 -86.5 60s-68.5 22 -106.5 22s-73.5 -7.33301 -106.5 -22
s-61.667 -34.667 -86 -60s-43.666 -55.166 -57.999 -89.499s-21.5 -71.5 -21.5 -111.5zM541 795l-35 -38l-103 63l-103 -64l-35 39l138 96z" />
    <glyph glyph-name="Otilde" unicode="&#xd5;" horiz-adv-x="807" 
d="M50 350c0 49.333 9.16699 95.833 27.5 139.5s43.5 81.834 75.5 114.501s69.333 58.5 112 77.5s88.667 28.5 138 28.5c48.667 0 94.5 -9.5 137.5 -28.5s80.5 -44.833 112.5 -77.5s57.333 -70.834 76 -114.501s28 -90.167 28 -139.5c0 -50 -9.33301 -96.667 -28 -140
s-44 -81.333 -76 -114s-69.5 -58.334 -112.5 -77.001s-88.833 -28 -137.5 -28c-49.333 0 -95.333 9.33301 -138 28s-80 44.334 -112 77.001s-57.167 70.667 -75.5 114s-27.5 90 -27.5 140zM131 350c0 -40 7.16699 -77.167 21.5 -111.5s33.666 -64.333 57.999 -90
s53 -45.667 86 -60s68.5 -21.5 106.5 -21.5s73.5 7.16699 106.5 21.5s61.833 34.333 86.5 60s44.167 55.667 58.5 90s21.5 71.5 21.5 111.5s-7.16699 77.167 -21.5 111.5s-33.833 64.166 -58.5 89.499s-53.5 45.333 -86.5 60s-68.5 22 -106.5 22s-73.5 -7.33301 -106.5 -22
s-61.667 -34.667 -86 -60s-43.666 -55.166 -57.999 -89.499s-21.5 -71.5 -21.5 -111.5zM251 793c7.33301 17.333 18.666 32.499 33.999 45.499s33 19.5 53 19.5c12 0 23.5 -2 34.5 -6s21.833 -8.16699 32.5 -12.5l31.5 -12.5c10.333 -4 20.5 -6 30.5 -6
c10.667 0 19.834 4.16699 27.501 12.5s13.5 17.5 17.5 27.5l44 -28c-6.66699 -19.333 -18 -35.166 -34 -47.499s-34 -18.5 -54 -18.5c-11.333 0 -22.333 2 -33 6l-32 12.5l-31 12.5c-10 4 -20 6 -30 6c-12.667 0 -22.5 -4 -29.5 -12s-13.167 -17.667 -18.5 -29z" />
    <glyph glyph-name="Odieresis" unicode="&#xd6;" horiz-adv-x="807" 
d="M50 350c0 49.333 9.16699 95.833 27.5 139.5s43.5 81.834 75.5 114.501s69.333 58.5 112 77.5s88.667 28.5 138 28.5c48.667 0 94.5 -9.5 137.5 -28.5s80.5 -44.833 112.5 -77.5s57.333 -70.834 76 -114.501s28 -90.167 28 -139.5c0 -50 -9.33301 -96.667 -28 -140
s-44 -81.333 -76 -114s-69.5 -58.334 -112.5 -77.001s-88.833 -28 -137.5 -28c-49.333 0 -95.333 9.33301 -138 28s-80 44.334 -112 77.001s-57.167 70.667 -75.5 114s-27.5 90 -27.5 140zM131 350c0 -40 7.16699 -77.167 21.5 -111.5s33.666 -64.333 57.999 -90
s53 -45.667 86 -60s68.5 -21.5 106.5 -21.5s73.5 7.16699 106.5 21.5s61.833 34.333 86.5 60s44.167 55.667 58.5 90s21.5 71.5 21.5 111.5s-7.16699 77.167 -21.5 111.5s-33.833 64.166 -58.5 89.499s-53.5 45.333 -86.5 60s-68.5 22 -106.5 22s-73.5 -7.33301 -106.5 -22
s-61.667 -34.667 -86 -60s-43.666 -55.166 -57.999 -89.499s-21.5 -71.5 -21.5 -111.5zM249 806c0 12.667 4.66699 23.167 14 31.5s20.666 12.5 33.999 12.5s24.833 -4.16699 34.5 -12.5s14.5 -18.833 14.5 -31.5c0 -12 -4.83301 -22.167 -14.5 -30.5
s-21.167 -12.5 -34.5 -12.5s-24.666 4.16699 -33.999 12.5s-14 18.5 -14 30.5zM462 806c0 12.667 4.66699 23.167 14 31.5s20.666 12.5 33.999 12.5s24.666 -4.16699 33.999 -12.5s14 -18.833 14 -31.5c0 -12 -4.66699 -22.167 -14 -30.5s-20.666 -12.5 -33.999 -12.5
s-24.666 4.16699 -33.999 12.5s-14 18.5 -14 30.5z" />
    <glyph glyph-name="multiply" unicode="&#xd7;" horiz-adv-x="592" 
d="M507 442l-157 -157l157 -158l-51 -51l-157 157l-158 -157l-51 51l158 158l-158 157c8.66699 9.33301 17.167 18 25.5 26l25.5 25l158 -157l157 157z" />
    <glyph glyph-name="Oslash" unicode="&#xd8;" horiz-adv-x="807" 
d="M50 350c0 49.333 9.16699 95.832 27.5 139.499s43.5 81.834 75.5 114.501s69.333 58.5 112 77.5s88.667 28.5 138 28.5c52.667 0 102.667 -11.333 150 -34l71 124l58 -30l-73 -127c45.333 -33.333 81.333 -75.333 108 -126s40 -106.334 40 -167.001
c0 -50 -9.33301 -96.667 -28 -140s-44 -81.333 -76 -114s-69.5 -58.334 -112.5 -77.001s-88.833 -28 -137.5 -28c-53.333 0 -103.333 11.333 -150 34l-72 -125l-57 34l72 124c-44.667 32.667 -80.167 74.334 -106.5 125.001s-39.5 106.334 -39.5 167.001zM676 349.999
c0 46.667 -9.66699 89.5 -29 128.5s-45.333 71.167 -78 96.5l-278 -484c34 -16 71.333 -24 112 -24c38 0 73.5 7.16699 106.5 21.5s61.833 34.333 86.5 60s44.167 55.667 58.5 90s21.5 71.5 21.5 111.5zM131 349.999c0 -46.667 9.33203 -89.333 27.999 -128
s44 -70.667 76 -96l279 483c-17.333 7.33301 -35.333 13.166 -54 17.499s-37.667 6.5 -57 6.5c-38 0 -73.5 -7.33301 -106.5 -22s-61.667 -34.667 -86 -60s-43.666 -55.166 -57.999 -89.499s-21.5 -71.5 -21.5 -111.5z" />
    <glyph glyph-name="Ugrave" unicode="&#xd9;" horiz-adv-x="712" 
d="M356 68c35.333 0 65.334 5.5 90.001 16.5s44.834 26.5 60.501 46.5s27 43.667 34 71s10.5 57 10.5 89v409h81v-409c0 -43.333 -5.5 -83.166 -16.5 -119.499s-28 -68 -51 -95s-51.833 -48 -86.5 -63s-75.334 -22.5 -122.001 -22.5s-87.334 7.5 -122.001 22.5
s-63.334 36 -86.001 63s-39.667 58.667 -51 95s-17 76.166 -17 119.499v409h81v-409c0 -32 3.5 -61.667 10.5 -89s18.333 -51 34 -71s35.834 -35.5 60.501 -46.5s54.667 -16.5 90 -16.5zM299.001 914l161 -124l-37 -34l-171 99z" />
    <glyph glyph-name="Uacute" unicode="&#xda;" horiz-adv-x="712" 
d="M356 68c35.333 0 65.334 5.5 90.001 16.5s44.834 26.5 60.501 46.5s27 43.667 34 71s10.5 57 10.5 89v409h81v-409c0 -43.333 -5.5 -83.166 -16.5 -119.499s-28 -68 -51 -95s-51.833 -48 -86.5 -63s-75.334 -22.5 -122.001 -22.5s-87.334 7.5 -122.001 22.5
s-63.334 36 -86.001 63s-39.667 58.667 -51 95s-17 76.166 -17 119.499v409h81v-409c0 -32 3.5 -61.667 10.5 -89s18.333 -51 34 -71s35.834 -35.5 60.501 -46.5s54.667 -16.5 90 -16.5zM460.001 855l-171 -99l-37 34l161 124z" />
    <glyph glyph-name="Ucircumflex" unicode="&#xdb;" horiz-adv-x="712" 
d="M356 68c35.333 0 65.334 5.5 90.001 16.5s44.834 26.5 60.501 46.5s27 43.667 34 71s10.5 57 10.5 89v409h81v-409c0 -43.333 -5.5 -83.166 -16.5 -119.499s-28 -68 -51 -95s-51.833 -48 -86.5 -63s-75.334 -22.5 -122.001 -22.5s-87.334 7.5 -122.001 22.5
s-63.334 36 -86.001 63s-39.667 58.667 -51 95s-17 76.166 -17 119.499v409h81v-409c0 -32 3.5 -61.667 10.5 -89s18.333 -51 34 -71s35.834 -35.5 60.501 -46.5s54.667 -16.5 90 -16.5zM494.001 795l-35 -38l-103 63l-103 -64l-35 39l138 96z" />
    <glyph glyph-name="Udieresis" unicode="&#xdc;" horiz-adv-x="712" 
d="M356 68c35.333 0 65.334 5.5 90.001 16.5s44.834 26.5 60.501 46.5s27 43.667 34 71s10.5 57 10.5 89v409h81v-409c0 -43.333 -5.5 -83.166 -16.5 -119.499s-28 -68 -51 -95s-51.833 -48 -86.5 -63s-75.334 -22.5 -122.001 -22.5s-87.334 7.5 -122.001 22.5
s-63.334 36 -86.001 63s-39.667 58.667 -51 95s-17 76.166 -17 119.499v409h81v-409c0 -32 3.5 -61.667 10.5 -89s18.333 -51 34 -71s35.834 -35.5 60.501 -46.5s54.667 -16.5 90 -16.5zM202.001 806c0 12.667 4.66699 23.167 14 31.5s20.666 12.5 33.999 12.5
s24.833 -4.16699 34.5 -12.5s14.5 -18.833 14.5 -31.5c0 -12 -4.83301 -22.167 -14.5 -30.5s-21.167 -12.5 -34.5 -12.5s-24.666 4.16699 -33.999 12.5s-14 18.5 -14 30.5zM415.001 806c0 12.667 4.66699 23.167 14 31.5s20.666 12.5 33.999 12.5
s24.666 -4.16699 33.999 -12.5s14 -18.833 14 -31.5c0 -12 -4.66699 -22.167 -14 -30.5s-20.666 -12.5 -33.999 -12.5s-24.666 4.16699 -33.999 12.5s-14 18.5 -14 30.5z" />
    <glyph glyph-name="Yacute" unicode="&#xdd;" horiz-adv-x="591" 
d="M296 367l199 333h86l-245 -400v-300h-81v300l-245 400h86l199 -333h1zM399 855l-171 -99l-37 34l161 124z" />
    <glyph glyph-name="Thorn" unicode="&#xde;" horiz-adv-x="563" 
d="M163 0h-80.999v700h81v-140h116c32.667 0 63.667 -3.5 93 -10.5s54.666 -18.667 75.999 -35s38.333 -37.5 51 -63.5s19 -58 19 -96c0 -36 -6 -66.5 -18 -91.5s-28.667 -45.333 -50 -61s-46.5 -27 -75.5 -34s-60.167 -10.5 -93.5 -10.5h-118v-158zM281.001 232
c21.333 0 41.499 2 60.499 6s35.5 10.833 49.5 20.5s25.167 22.5 33.5 38.5s12.5 36 12.5 60s-4 44.167 -12 60.5s-19.167 29.5 -33.5 39.5s-31.166 17.167 -50.499 21.5s-40 6.5 -62 6.5h-116v-253h118z" />
    <glyph glyph-name="germandbls" unicode="&#xdf;" horiz-adv-x="512" 
d="M244 592c-34 0 -59.166 -9.83789 -75.499 -29.5049s-24.5 -46.834 -24.5 -81.501v-481h-75v481c0 54 15 96.833 45 128.5s73.333 47.5 130 47.5c24.667 0 47 -4 67 -12s37 -18.667 51 -32s24.667 -28.666 32 -45.999s11 -35.666 11 -54.999
c0 -25.333 -6.83301 -48.166 -20.5 -68.499s-30.5 -35.166 -50.5 -44.499c41.333 -11.333 75.166 -33.166 101.499 -65.499s39.5 -74.5 39.5 -126.5c0 -33.333 -6 -62.666 -18 -87.999s-28.333 -47 -49 -65s-45.167 -32 -73.5 -42s-58.833 -16 -91.5 -18v67
c22.667 2.66699 43.667 7.5 63 14.5s36 16.5 50 28.5s24.833 26.5 32.5 43.5s11.5 37.167 11.5 60.5c0 22.667 -4 43.167 -12 61.5s-19 33.833 -33 46.5s-30.5 22.667 -49.5 30s-39.833 12 -62.5 14v63c28 0.666992 49.5 9 64.5 25s22.5 36.667 22.5 62
c0 24.667 -8 44.5 -24 59.5s-36.667 22.5 -62 22.5z" />
    <glyph glyph-name="agrave" unicode="&#xe0;" horiz-adv-x="465" 
d="M57 291c8 34 27.001 62.332 57.001 84.999s68.333 34 115 34c53.333 0 95.166 -13.333 125.499 -40s45.5 -61.667 45.5 -105v-265h-67l-5 61c-12 -18 -28.667 -33.5 -50 -46.5s-51 -19.5 -89 -19.5c-21.333 0 -41 2.83301 -59 8.5s-33.667 14 -47 25
s-23.833 24.333 -31.5 40s-11.5 33.5 -11.5 53.5c0 85.333 63.333 128 190 128h98v15c0 24.667 -8.33301 44.667 -25 60s-42 23 -76 23c-26 0 -47.333 -5.16699 -64 -15.5s-27.667 -24.166 -33 -41.499h-73zM202.001 55.999c38 0 68.501 9.5 91.501 28.5
s34.5 47.5 34.5 85.5v23h-98c-42 0 -72.167 -5.83301 -90.5 -17.5s-27.5 -29.167 -27.5 -52.5c0 -21.333 8.16699 -37.833 24.5 -49.5s38.166 -17.5 65.499 -17.5zM175.002 676.999l161 -138l-37 -38l-171 110z" />
    <glyph glyph-name="aacute" unicode="&#xe1;" horiz-adv-x="465" 
d="M57 291c8 34 27.001 62.332 57.001 84.999s68.333 34 115 34c53.333 0 95.166 -13.333 125.499 -40s45.5 -61.667 45.5 -105v-265h-67l-5 61c-12 -18 -28.667 -33.5 -50 -46.5s-51 -19.5 -89 -19.5c-21.333 0 -41 2.83301 -59 8.5s-33.667 14 -47 25
s-23.833 24.333 -31.5 40s-11.5 33.5 -11.5 53.5c0 85.333 63.333 128 190 128h98v15c0 24.667 -8.33301 44.667 -25 60s-42 23 -76 23c-26 0 -47.333 -5.16699 -64 -15.5s-27.667 -24.166 -33 -41.499h-73zM202.001 55.999c38 0 68.501 9.5 91.501 28.5
s34.5 47.5 34.5 85.5v23h-98c-42 0 -72.167 -5.83301 -90.5 -17.5s-27.5 -29.167 -27.5 -52.5c0 -21.333 8.16699 -37.833 24.5 -49.5s38.166 -17.5 65.499 -17.5zM336.002 610.999l-171 -110l-37 38l161 138z" />
    <glyph glyph-name="acircumflex" unicode="&#xe2;" horiz-adv-x="465" 
d="M57 291c8 34 27.001 62.332 57.001 84.999s68.333 34 115 34c53.333 0 95.166 -13.333 125.499 -40s45.5 -61.667 45.5 -105v-265h-67l-5 61c-12 -18 -28.667 -33.5 -50 -46.5s-51 -19.5 -89 -19.5c-21.333 0 -41 2.83301 -59 8.5s-33.667 14 -47 25
s-23.833 24.333 -31.5 40s-11.5 33.5 -11.5 53.5c0 85.333 63.333 128 190 128h98v15c0 24.667 -8.33301 44.667 -25 60s-42 23 -76 23c-26 0 -47.333 -5.16699 -64 -15.5s-27.667 -24.166 -33 -41.499h-73zM202.001 55.999c38 0 68.501 9.5 91.501 28.5
s34.5 47.5 34.5 85.5v23h-98c-42 0 -72.167 -5.83301 -90.5 -17.5s-27.5 -29.167 -27.5 -52.5c0 -21.333 8.16699 -37.833 24.5 -49.5s38.166 -17.5 65.499 -17.5zM370.002 543.999l-35 -42l-103 70l-103 -71l-35 43l138 107z" />
    <glyph glyph-name="atilde" unicode="&#xe3;" horiz-adv-x="465" 
d="M57 291c8 34 27.001 62.332 57.001 84.999s68.333 34 115 34c53.333 0 95.166 -13.333 125.499 -40s45.5 -61.667 45.5 -105v-265h-67l-5 61c-12 -18 -28.667 -33.5 -50 -46.5s-51 -19.5 -89 -19.5c-21.333 0 -41 2.83301 -59 8.5s-33.667 14 -47 25
s-23.833 24.333 -31.5 40s-11.5 33.5 -11.5 53.5c0 85.333 63.333 128 190 128h98v15c0 24.667 -8.33301 44.667 -25 60s-42 23 -76 23c-26 0 -47.333 -5.16699 -64 -15.5s-27.667 -24.166 -33 -41.499h-73zM202.001 55.999c38 0 68.501 9.5 91.501 28.5
s34.5 47.5 34.5 85.5v23h-98c-42 0 -72.167 -5.83301 -90.5 -17.5s-27.5 -29.167 -27.5 -52.5c0 -21.333 8.16699 -37.833 24.5 -49.5s38.166 -17.5 65.499 -17.5zM80.002 541.999c7.33301 19.333 18.667 36.334 34 51.001s33 22 53 22c12 0 23.5 -2.16699 34.5 -6.5
s21.833 -9.16602 32.5 -14.499s21.167 -10.166 31.5 -14.499s20.5 -6.5 30.5 -6.5c10.667 0 19.834 4.66699 27.501 14s13.5 19.666 17.5 30.999l44 -31c-6.66699 -21.333 -18 -39 -34 -53s-34 -21 -54 -21c-11.333 0 -22.333 2.16699 -33 6.5
s-21.334 9.16602 -32.001 14.499s-21 10.166 -31 14.499s-20 6.5 -30 6.5c-12.667 0 -22.5 -4.33301 -29.5 -13s-13.167 -19.667 -18.5 -33z" />
    <glyph glyph-name="adieresis" unicode="&#xe4;" horiz-adv-x="465" 
d="M57 291c8 34 27.001 62.332 57.001 84.999s68.333 34 115 34c53.333 0 95.166 -13.333 125.499 -40s45.5 -61.667 45.5 -105v-265h-67l-5 61c-12 -18 -28.667 -33.5 -50 -46.5s-51 -19.5 -89 -19.5c-21.333 0 -41 2.83301 -59 8.5s-33.667 14 -47 25
s-23.833 24.333 -31.5 40s-11.5 33.5 -11.5 53.5c0 85.333 63.333 128 190 128h98v15c0 24.667 -8.33301 44.667 -25 60s-42 23 -76 23c-26 0 -47.333 -5.16699 -64 -15.5s-27.667 -24.166 -33 -41.499h-73zM202.001 55.999c38 0 68.501 9.5 91.501 28.5
s34.5 47.5 34.5 85.5v23h-98c-42 0 -72.167 -5.83301 -90.5 -17.5s-27.5 -29.167 -27.5 -52.5c0 -21.333 8.16699 -37.833 24.5 -49.5s38.166 -17.5 65.499 -17.5zM78.002 556.999c0 14 4.66699 25.667 14 35s20.666 14 33.999 14s24.833 -4.66699 34.5 -14
s14.5 -21 14.5 -35c0 -13.333 -4.83301 -24.666 -14.5 -33.999s-21.167 -14 -34.5 -14s-24.666 4.66699 -33.999 14s-14 20.666 -14 33.999zM291.002 556.999c0 14 4.66699 25.667 14 35s20.666 14 33.999 14s24.666 -4.66699 33.999 -14s14 -21 14 -35
c0 -13.333 -4.66699 -24.666 -14 -33.999s-20.666 -14 -33.999 -14s-24.666 4.66699 -33.999 14s-14 20.666 -14 33.999z" />
    <glyph glyph-name="aring" unicode="&#xe5;" horiz-adv-x="465" 
d="M57 291c8 34 27.001 62.332 57.001 84.999s68.333 34 115 34c53.333 0 95.166 -13.333 125.499 -40s45.5 -61.667 45.5 -105v-265h-67l-5 61c-12 -18 -28.667 -33.5 -50 -46.5s-51 -19.5 -89 -19.5c-21.333 0 -41 2.83301 -59 8.5s-33.667 14 -47 25
s-23.833 24.333 -31.5 40s-11.5 33.5 -11.5 53.5c0 85.333 63.333 128 190 128h98v15c0 24.667 -8.33301 44.667 -25 60s-42 23 -76 23c-26 0 -47.333 -5.16699 -64 -15.5s-27.667 -24.166 -33 -41.499h-73zM202.001 55.999c38 0 68.501 9.5 91.501 28.5
s34.5 47.5 34.5 85.5v23h-98c-42 0 -72.167 -5.83301 -90.5 -17.5s-27.5 -29.167 -27.5 -52.5c0 -21.333 8.16699 -37.833 24.5 -49.5s38.166 -17.5 65.499 -17.5zM232.002 683.999c12.667 0 24.834 -2.5 36.501 -7.5s21.834 -11.833 30.501 -20.5s15.5 -18.5 20.5 -29.5
s7.5 -22.833 7.5 -35.5s-2.5 -24.667 -7.5 -36s-11.833 -21.333 -20.5 -30s-18.834 -15.5 -30.501 -20.5s-23.834 -7.5 -36.501 -7.5c-13.333 0 -25.666 2.5 -36.999 7.5s-21.333 11.833 -30 20.5s-15.5 18.667 -20.5 30s-7.5 23.333 -7.5 36s2.5 24.5 7.5 35.5
s11.833 20.833 20.5 29.5s18.667 15.5 30 20.5s23.666 7.5 36.999 7.5zM232.002 639.999c-13.333 0 -24.833 -4.83301 -34.5 -14.5s-14.5 -21.167 -14.5 -34.5c0 -14 4.83301 -25.833 14.5 -35.5s21.167 -14.5 34.5 -14.5s24.833 4.83301 34.5 14.5s14.5 21.5 14.5 35.5
c0 13.333 -4.83301 24.833 -14.5 34.5s-21.167 14.5 -34.5 14.5z" />
    <glyph glyph-name="ae" unicode="&#xe6;" horiz-adv-x="754" 
d="M392 185c2 -18.667 5.99902 -36.1641 11.999 -52.4971s14.5 -30.5 25.5 -42.5s24.5 -21.5 40.5 -28.5s34.333 -10.5 55 -10.5c30.667 0 55 7.16699 73 21.5s29.667 31.166 35 50.499h70c-8.66699 -38.667 -28.334 -70.334 -59.001 -95.001s-70.667 -37 -120 -37
c-40.667 0 -74.5 8.5 -101.5 25.5s-48.833 39.833 -65.5 68.5c-13.333 -28 -34.166 -50 -62.499 -66s-63.166 -24 -104.499 -24c-44.667 0 -81.334 10.667 -110.001 32s-43 50.333 -43 87c0 41.333 15.833 71.666 47.5 90.999s78.834 29 141.501 29h97v32
c0 25.333 -8.16699 45.666 -24.5 60.999s-41.5 23 -75.5 23c-26.667 0 -48.5 -5.16699 -65.5 -15.5s-28.167 -24.5 -33.5 -42.5h-69c7.33301 34 26 62.167 56 84.5s68 33.5 114 33.5c36 0 66.5 -7 91.5 -21s42.833 -33.333 53.5 -58c15.333 23.333 36.333 42.333 63 57
s56 22 88 22c28 0 53.667 -5.33301 77 -16s43.5 -24.667 60.5 -42s30.167 -37.666 39.5 -60.999s14 -47.333 14 -72c0 -10.667 -1 -22 -3 -34h-317zM523.999 350.003c-35.333 0 -64.334 -10.667 -87.001 -32s-36.667 -49.333 -42 -84h247
c-0.666992 14.667 -3.83398 29 -9.50098 43s-13.667 26.5 -24 37.5s-22.666 19.667 -36.999 26s-30.166 9.5 -47.499 9.5zM197.998 55.0029c16 0 31.668 2.33301 47.001 7s28.666 11.5 39.999 20.5s20.5 20.333 27.5 34s10.5 29.834 10.5 48.501
c-0.666992 2 -1 5.33301 -1 10v10h-96c-42 0 -72.333 -5.83301 -91 -17.5s-28 -28.167 -28 -49.5c0 -20.667 8.5 -36.334 25.5 -47.001s38.833 -16 65.5 -16z" />
    <glyph glyph-name="ccedilla" unicode="&#xe7;" horiz-adv-x="480" 
d="M251 342c-19.333 0 -37.3301 -3.49902 -53.9971 -10.499s-31 -16.667 -43 -29s-21.333 -27.333 -28 -45s-10 -36.834 -10 -57.501c0 -21.333 3.5 -40.833 10.5 -58.5s16.5 -32.667 28.5 -45s26.167 -22 42.5 -29s34.166 -10.5 53.499 -10.5c30.667 0 56 6.83301 76 20.5
s33.667 30.5 41 50.5h74c-4.66699 -20 -12.5 -38.5 -23.5 -55.5s-24.833 -31.5 -41.5 -43.5s-35.667 -21.333 -57 -28s-44.333 -10 -69 -10c-30.667 0 -58.834 5.5 -84.501 16.5s-47.667 25.833 -66 44.5s-32.666 40.667 -42.999 66s-15.5 52.666 -15.5 81.999
c0 28.667 5.16699 55.834 15.5 81.501s24.666 48 42.999 67s40.166 34 65.499 45s53.333 16.5 84 16.5c24.667 0 47.667 -3.5 69 -10.5s40.333 -16.667 57 -29s30.5 -27 41.5 -44s18.833 -35.5 23.5 -55.5h-75c-7.33301 20 -20.833 36.833 -40.5 50.5s-44.5 20.5 -74.5 20.5
zM212.003 -238.999l-52 30l81 172l79 -27z" />
    <glyph glyph-name="egrave" unicode="&#xe8;" horiz-adv-x="486" 
d="M114 173c3.33301 -37.333 16.833 -66.3301 40.5 -86.9971s56.167 -31 97.5 -31c31.333 0 56.333 6.5 75 19.5s31 29.167 37 48.5h72c-9.33301 -38.667 -30 -70.334 -62 -95.001s-73 -37 -123 -37c-31.333 0 -59.833 5.5 -85.5 16.5s-47.667 25.833 -66 44.5
s-32.5 40.667 -42.5 66s-15 52.666 -15 81.999c0 28.667 5 55.834 15 81.501s24.167 48 42.5 67s40 34 65 45s52.5 16.5 82.5 16.5s57.167 -5.5 81.5 -16.5s45 -25.833 62 -44.5s30.167 -39.834 39.5 -63.501s14 -47.834 14 -72.501v-20.5
c0 -7.66699 -0.666992 -14.167 -2 -19.5h-328zM250 346.003c-37.333 0 -67.499 -10.667 -90.499 -32s-37.167 -49 -42.5 -83h255c-0.666992 14.667 -3.83398 29 -9.50098 43s-13.667 26.333 -24 37s-23 19.167 -38 25.5s-31.833 9.5 -50.5 9.5zM186.001 677.003l161 -138
l-37 -38l-171 110z" />
    <glyph glyph-name="eacute" unicode="&#xe9;" horiz-adv-x="486" 
d="M114 173c3.33301 -37.333 16.833 -66.3301 40.5 -86.9971s56.167 -31 97.5 -31c31.333 0 56.333 6.5 75 19.5s31 29.167 37 48.5h72c-9.33301 -38.667 -30 -70.334 -62 -95.001s-73 -37 -123 -37c-31.333 0 -59.833 5.5 -85.5 16.5s-47.667 25.833 -66 44.5
s-32.5 40.667 -42.5 66s-15 52.666 -15 81.999c0 28.667 5 55.834 15 81.501s24.167 48 42.5 67s40 34 65 45s52.5 16.5 82.5 16.5s57.167 -5.5 81.5 -16.5s45 -25.833 62 -44.5s30.167 -39.834 39.5 -63.501s14 -47.834 14 -72.501v-20.5
c0 -7.66699 -0.666992 -14.167 -2 -19.5h-328zM250 346.003c-37.333 0 -67.499 -10.667 -90.499 -32s-37.167 -49 -42.5 -83h255c-0.666992 14.667 -3.83398 29 -9.50098 43s-13.667 26.333 -24 37s-23 19.167 -38 25.5s-31.833 9.5 -50.5 9.5zM347.001 611.003l-171 -110
l-37 38l161 138z" />
    <glyph glyph-name="ecircumflex" unicode="&#xea;" horiz-adv-x="486" 
d="M114 173c3.33301 -37.333 16.833 -66.3301 40.5 -86.9971s56.167 -31 97.5 -31c31.333 0 56.333 6.5 75 19.5s31 29.167 37 48.5h72c-9.33301 -38.667 -30 -70.334 -62 -95.001s-73 -37 -123 -37c-31.333 0 -59.833 5.5 -85.5 16.5s-47.667 25.833 -66 44.5
s-32.5 40.667 -42.5 66s-15 52.666 -15 81.999c0 28.667 5 55.834 15 81.501s24.167 48 42.5 67s40 34 65 45s52.5 16.5 82.5 16.5s57.167 -5.5 81.5 -16.5s45 -25.833 62 -44.5s30.167 -39.834 39.5 -63.501s14 -47.834 14 -72.501v-20.5
c0 -7.66699 -0.666992 -14.167 -2 -19.5h-328zM250 346.003c-37.333 0 -67.499 -10.667 -90.499 -32s-37.167 -49 -42.5 -83h255c-0.666992 14.667 -3.83398 29 -9.50098 43s-13.667 26.333 -24 37s-23 19.167 -38 25.5s-31.833 9.5 -50.5 9.5zM381.001 544.003l-35 -42
l-103 70l-103 -71l-35 43l138 107z" />
    <glyph glyph-name="edieresis" unicode="&#xeb;" horiz-adv-x="486" 
d="M114 173c3.33301 -37.333 16.833 -66.3301 40.5 -86.9971s56.167 -31 97.5 -31c31.333 0 56.333 6.5 75 19.5s31 29.167 37 48.5h72c-9.33301 -38.667 -30 -70.334 -62 -95.001s-73 -37 -123 -37c-31.333 0 -59.833 5.5 -85.5 16.5s-47.667 25.833 -66 44.5
s-32.5 40.667 -42.5 66s-15 52.666 -15 81.999c0 28.667 5 55.834 15 81.501s24.167 48 42.5 67s40 34 65 45s52.5 16.5 82.5 16.5s57.167 -5.5 81.5 -16.5s45 -25.833 62 -44.5s30.167 -39.834 39.5 -63.501s14 -47.834 14 -72.501v-20.5
c0 -7.66699 -0.666992 -14.167 -2 -19.5h-328zM250 346.003c-37.333 0 -67.499 -10.667 -90.499 -32s-37.167 -49 -42.5 -83h255c-0.666992 14.667 -3.83398 29 -9.50098 43s-13.667 26.333 -24 37s-23 19.167 -38 25.5s-31.833 9.5 -50.5 9.5zM89.001 557.003
c0 14 4.66699 25.667 14 35s20.666 14 33.999 14s24.833 -4.66699 34.5 -14s14.5 -21 14.5 -35c0 -13.333 -4.83301 -24.666 -14.5 -33.999s-21.167 -14 -34.5 -14s-24.666 4.66699 -33.999 14s-14 20.666 -14 33.999zM302.001 557.003c0 14 4.66699 25.667 14 35
s20.666 14 33.999 14s24.666 -4.66699 33.999 -14s14 -21 14 -35c0 -13.333 -4.66699 -24.666 -14 -33.999s-20.666 -14 -33.999 -14s-24.666 4.66699 -33.999 14s-14 20.666 -14 33.999z" />
    <glyph glyph-name="igrave" unicode="&#xec;" horiz-adv-x="225" 
d="M75 400h75v-400h-75v400zM55 677l161 -138l-37 -38l-171 110z" />
    <glyph glyph-name="iacute" unicode="&#xed;" horiz-adv-x="225" 
d="M75 400h75v-400h-75v400zM216 611l-171 -110l-37 38l161 138z" />
    <glyph glyph-name="icircumflex" unicode="&#xee;" horiz-adv-x="225" 
d="M75 400h75v-400h-75v400zM250 544l-35 -42l-103 70l-103 -71l-35 43l138 107z" />
    <glyph glyph-name="idieresis" unicode="&#xef;" horiz-adv-x="225" 
d="M75 400h75v-400h-75v400zM-42 557c0 14 4.66699 25.667 14 35s20.666 14 33.999 14s24.833 -4.66699 34.5 -14s14.5 -21 14.5 -35c0 -13.333 -4.83301 -24.666 -14.5 -33.999s-21.167 -14 -34.5 -14s-24.666 4.66699 -33.999 14s-14 20.666 -14 33.999zM171 557
c0 14 4.66699 25.667 14 35s20.666 14 33.999 14s24.666 -4.66699 33.999 -14s14 -21 14 -35c0 -13.333 -4.66699 -24.666 -14 -33.999s-20.666 -14 -33.999 -14s-24.666 4.66699 -33.999 14s-14 20.666 -14 33.999z" />
    <glyph glyph-name="eth" unicode="&#xf0;" horiz-adv-x="524" 
d="M259 537c-20 13.333 -39.9961 24.165 -59.9961 32.498s-37.667 14.5 -53 18.5l34 60c19.333 -6.66699 41.666 -16 66.999 -28s50.666 -27.333 75.999 -46l80 46l27 -47l-32 -18c-10.667 -6 -21.334 -12.333 -32.001 -19c15.333 -15.333 29.833 -32.166 43.5 -50.499
s25.5 -38.833 35.5 -61.5s17.833 -47.5 23.5 -74.5s8.5 -56.5 8.5 -88.5c0 -38 -4.66699 -73.333 -14 -106s-23.333 -61.334 -42 -86.001s-42 -44 -70 -58s-60.667 -21 -98 -21c-29.333 0 -57 5.33301 -83 16s-48.5 25.5 -67.5 44.5s-34 41.5 -45 67.5
s-16.5 54.333 -16.5 85c0 32.667 5.66699 61.834 17 87.501s26.666 47.334 45.999 65.001s41.666 31.167 66.999 40.5s51.666 14 78.999 14c19.333 0 37.166 -2.33301 53.499 -7s30.833 -10.167 43.5 -16.5s23.334 -13 32.001 -20s15 -12.5 19 -16.5
c-7.33301 31.333 -19.166 59.5 -35.499 84.5s-35.166 47.167 -56.499 66.5l-78 -44l-27 46zM116.004 200.999c0 -20.667 3.66797 -39.668 11.001 -57.001s17.166 -32.5 29.499 -45.5s26.833 -23.167 43.5 -30.5s34.334 -11 53.001 -11c26 0 48.333 5.33301 67 16
s34.167 24.834 46.5 42.501s21.5 38 27.5 61s9 46.5 9 70.5v20c-1.33301 2 -5.66602 7 -12.999 15s-17.333 16.333 -30 25s-27.834 16.5 -45.501 23.5s-37.5 10.5 -59.5 10.5c-19.333 0 -37.333 -3.5 -54 -10.5s-31.334 -16.667 -44.001 -29s-22.667 -27 -30 -44
s-11 -35.833 -11 -56.5z" />
    <glyph glyph-name="ntilde" unicode="&#xf1;" horiz-adv-x="512" 
d="M67 400l68.999 0.00292969l6 -54c14 14 32.833 28.167 56.5 42.5s53.5 21.5 89.5 21.5c24 0 45.667 -3.83301 65 -11.5s36 -18.834 50 -33.501s24.833 -32.334 32.5 -53.001s11.5 -44 11.5 -70v-242h-75v230c0 36 -8.33301 63.667 -25 83s-41.667 29 -75 29
c-15.333 0 -29.666 -2.16699 -42.999 -6.5s-25.5 -10 -36.5 -17s-20.667 -14.833 -29 -23.5s-15.5 -17.334 -21.5 -26.001v-269h-75v400zM103.999 542.003c7.33301 19.333 18.667 36.334 34 51.001s33 22 53 22c12 0 23.5 -2.16699 34.5 -6.5s21.833 -9.16602 32.5 -14.499
s21.167 -10.166 31.5 -14.499s20.5 -6.5 30.5 -6.5c10.667 0 19.834 4.66699 27.501 14s13.5 19.666 17.5 30.999l44 -31c-6.66699 -21.333 -18 -39 -34 -53s-34 -21 -54 -21c-11.333 0 -22.333 2.16699 -33 6.5s-21.334 9.16602 -32.001 14.499s-21 10.166 -31 14.499
s-20 6.5 -30 6.5c-12.667 0 -22.5 -4.33301 -29.5 -13s-13.167 -19.667 -18.5 -33z" />
    <glyph glyph-name="ograve" unicode="&#xf2;" horiz-adv-x="498" 
d="M116 200c0 -21.333 3.33301 -40.666 10 -57.999s16 -32.166 28 -44.499s26 -22 42 -29s33.667 -10.5 53 -10.5c18.667 0 36.167 3.5 52.5 10.5s30.5 16.667 42.5 29s21.333 27.166 28 44.499s10 36.666 10 57.999c0 20.667 -3.33301 39.834 -10 57.501
s-16 32.834 -28 45.501s-26.167 22.5 -42.5 29.5s-33.833 10.5 -52.5 10.5c-19.333 0 -37 -3.5 -53 -10.5s-30 -16.833 -42 -29.5s-21.333 -27.834 -28 -45.501s-10 -36.834 -10 -57.501zM42 200c0 28.667 5.16699 55.834 15.5 81.501s24.833 48 43.5 67s40.5 34 65.5 45
s52.5 16.5 82.5 16.5s57.5 -5.5 82.5 -16.5s46.833 -26 65.5 -45s33.167 -41.333 43.5 -67s15.5 -52.834 15.5 -81.501c0 -29.333 -5.16699 -56.666 -15.5 -81.999s-24.833 -47.333 -43.5 -66s-40.5 -33.5 -65.5 -44.5s-52.5 -16.5 -82.5 -16.5s-57.5 5.5 -82.5 16.5
s-46.833 25.833 -65.5 44.5s-33.167 40.667 -43.5 66s-15.5 52.666 -15.5 81.999zM192 677l161 -138l-37 -38l-171 110z" />
    <glyph glyph-name="oacute" unicode="&#xf3;" horiz-adv-x="498" 
d="M116 200c0 -21.333 3.33301 -40.666 10 -57.999s16 -32.166 28 -44.499s26 -22 42 -29s33.667 -10.5 53 -10.5c18.667 0 36.167 3.5 52.5 10.5s30.5 16.667 42.5 29s21.333 27.166 28 44.499s10 36.666 10 57.999c0 20.667 -3.33301 39.834 -10 57.501
s-16 32.834 -28 45.501s-26.167 22.5 -42.5 29.5s-33.833 10.5 -52.5 10.5c-19.333 0 -37 -3.5 -53 -10.5s-30 -16.833 -42 -29.5s-21.333 -27.834 -28 -45.501s-10 -36.834 -10 -57.501zM42 200c0 28.667 5.16699 55.834 15.5 81.501s24.833 48 43.5 67s40.5 34 65.5 45
s52.5 16.5 82.5 16.5s57.5 -5.5 82.5 -16.5s46.833 -26 65.5 -45s33.167 -41.333 43.5 -67s15.5 -52.834 15.5 -81.501c0 -29.333 -5.16699 -56.666 -15.5 -81.999s-24.833 -47.333 -43.5 -66s-40.5 -33.5 -65.5 -44.5s-52.5 -16.5 -82.5 -16.5s-57.5 5.5 -82.5 16.5
s-46.833 25.833 -65.5 44.5s-33.167 40.667 -43.5 66s-15.5 52.666 -15.5 81.999zM353 611l-171 -110l-37 38l161 138z" />
    <glyph glyph-name="ocircumflex" unicode="&#xf4;" horiz-adv-x="498" 
d="M116 200c0 -21.333 3.33301 -40.666 10 -57.999s16 -32.166 28 -44.499s26 -22 42 -29s33.667 -10.5 53 -10.5c18.667 0 36.167 3.5 52.5 10.5s30.5 16.667 42.5 29s21.333 27.166 28 44.499s10 36.666 10 57.999c0 20.667 -3.33301 39.834 -10 57.501
s-16 32.834 -28 45.501s-26.167 22.5 -42.5 29.5s-33.833 10.5 -52.5 10.5c-19.333 0 -37 -3.5 -53 -10.5s-30 -16.833 -42 -29.5s-21.333 -27.834 -28 -45.501s-10 -36.834 -10 -57.501zM42 200c0 28.667 5.16699 55.834 15.5 81.501s24.833 48 43.5 67s40.5 34 65.5 45
s52.5 16.5 82.5 16.5s57.5 -5.5 82.5 -16.5s46.833 -26 65.5 -45s33.167 -41.333 43.5 -67s15.5 -52.834 15.5 -81.501c0 -29.333 -5.16699 -56.666 -15.5 -81.999s-24.833 -47.333 -43.5 -66s-40.5 -33.5 -65.5 -44.5s-52.5 -16.5 -82.5 -16.5s-57.5 5.5 -82.5 16.5
s-46.833 25.833 -65.5 44.5s-33.167 40.667 -43.5 66s-15.5 52.666 -15.5 81.999zM387 544l-35 -42l-103 70l-103 -71l-35 43l138 107z" />
    <glyph glyph-name="otilde" unicode="&#xf5;" horiz-adv-x="498" 
d="M116 200c0 -21.333 3.33301 -40.666 10 -57.999s16 -32.166 28 -44.499s26 -22 42 -29s33.667 -10.5 53 -10.5c18.667 0 36.167 3.5 52.5 10.5s30.5 16.667 42.5 29s21.333 27.166 28 44.499s10 36.666 10 57.999c0 20.667 -3.33301 39.834 -10 57.501
s-16 32.834 -28 45.501s-26.167 22.5 -42.5 29.5s-33.833 10.5 -52.5 10.5c-19.333 0 -37 -3.5 -53 -10.5s-30 -16.833 -42 -29.5s-21.333 -27.834 -28 -45.501s-10 -36.834 -10 -57.501zM42 200c0 28.667 5.16699 55.834 15.5 81.501s24.833 48 43.5 67s40.5 34 65.5 45
s52.5 16.5 82.5 16.5s57.5 -5.5 82.5 -16.5s46.833 -26 65.5 -45s33.167 -41.333 43.5 -67s15.5 -52.834 15.5 -81.501c0 -29.333 -5.16699 -56.666 -15.5 -81.999s-24.833 -47.333 -43.5 -66s-40.5 -33.5 -65.5 -44.5s-52.5 -16.5 -82.5 -16.5s-57.5 5.5 -82.5 16.5
s-46.833 25.833 -65.5 44.5s-33.167 40.667 -43.5 66s-15.5 52.666 -15.5 81.999zM97 542c7.33301 19.333 18.667 36.334 34 51.001s33 22 53 22c12 0 23.5 -2.16699 34.5 -6.5s21.833 -9.16602 32.5 -14.499s21.167 -10.166 31.5 -14.499s20.5 -6.5 30.5 -6.5
c10.667 0 19.834 4.66699 27.501 14s13.5 19.666 17.5 30.999l44 -31c-6.66699 -21.333 -18 -39 -34 -53s-34 -21 -54 -21c-11.333 0 -22.333 2.16699 -33 6.5s-21.334 9.16602 -32.001 14.499s-21 10.166 -31 14.499s-20 6.5 -30 6.5c-12.667 0 -22.5 -4.33301 -29.5 -13
s-13.167 -19.667 -18.5 -33z" />
    <glyph glyph-name="odieresis" unicode="&#xf6;" horiz-adv-x="498" 
d="M116 200c0 -21.333 3.33301 -40.666 10 -57.999s16 -32.166 28 -44.499s26 -22 42 -29s33.667 -10.5 53 -10.5c18.667 0 36.167 3.5 52.5 10.5s30.5 16.667 42.5 29s21.333 27.166 28 44.499s10 36.666 10 57.999c0 20.667 -3.33301 39.834 -10 57.501
s-16 32.834 -28 45.501s-26.167 22.5 -42.5 29.5s-33.833 10.5 -52.5 10.5c-19.333 0 -37 -3.5 -53 -10.5s-30 -16.833 -42 -29.5s-21.333 -27.834 -28 -45.501s-10 -36.834 -10 -57.501zM42 200c0 28.667 5.16699 55.834 15.5 81.501s24.833 48 43.5 67s40.5 34 65.5 45
s52.5 16.5 82.5 16.5s57.5 -5.5 82.5 -16.5s46.833 -26 65.5 -45s33.167 -41.333 43.5 -67s15.5 -52.834 15.5 -81.501c0 -29.333 -5.16699 -56.666 -15.5 -81.999s-24.833 -47.333 -43.5 -66s-40.5 -33.5 -65.5 -44.5s-52.5 -16.5 -82.5 -16.5s-57.5 5.5 -82.5 16.5
s-46.833 25.833 -65.5 44.5s-33.167 40.667 -43.5 66s-15.5 52.666 -15.5 81.999zM95 557c0 14 4.66699 25.667 14 35s20.666 14 33.999 14s24.833 -4.66699 34.5 -14s14.5 -21 14.5 -35c0 -13.333 -4.83301 -24.666 -14.5 -33.999s-21.167 -14 -34.5 -14
s-24.666 4.66699 -33.999 14s-14 20.666 -14 33.999zM308 557c0 14 4.66699 25.667 14 35s20.666 14 33.999 14s24.666 -4.66699 33.999 -14s14 -21 14 -35c0 -13.333 -4.66699 -24.666 -14 -33.999s-20.666 -14 -33.999 -14s-24.666 4.66699 -33.999 14
s-14 20.666 -14 33.999z" />
    <glyph glyph-name="divide" unicode="&#xf7;" 
d="M527 319v-68h-458v68h458zM246 118c0 14 5.16699 26.167 15.5 36.5s22.5 15.5 36.5 15.5c14.667 0 27.167 -5.16699 37.5 -15.5s15.5 -22.5 15.5 -36.5c0 -14.667 -5.16699 -27.167 -15.5 -37.5s-22.833 -15.5 -37.5 -15.5c-14 0 -26.167 5.16699 -36.5 15.5
s-15.5 22.833 -15.5 37.5zM246 452c0 14 5.16699 26.167 15.5 36.5s22.5 15.5 36.5 15.5c14.667 0 27.167 -5.16699 37.5 -15.5s15.5 -22.5 15.5 -36.5c0 -14.667 -5.16699 -27.167 -15.5 -37.5s-22.833 -15.5 -37.5 -15.5c-14 0 -26.167 5.16699 -36.5 15.5
s-15.5 22.833 -15.5 37.5z" />
    <glyph glyph-name="oslash" unicode="&#xf8;" horiz-adv-x="498" 
d="M42 200c0 28.667 5.16406 55.833 15.4971 81.5s24.833 48 43.5 67s40.5 34 65.5 45s52.5 16.5 82.5 16.5c14 0 27.667 -1.33301 41 -4s26 -6.33398 38 -11.001l59 102l44 -23l-60 -103c26 -19.333 46.667 -43.833 62 -73.5s23 -62.167 23 -97.5
c0 -29.333 -5.16699 -56.666 -15.5 -81.999s-24.833 -47.333 -43.5 -66s-40.5 -33.5 -65.5 -44.5s-52.5 -16.5 -82.5 -16.5c-16 0 -31.167 1.66699 -45.5 5s-28.166 7.66602 -41.499 12.999l-63 -109c-7.33301 4.66699 -14.666 8.83398 -21.999 12.501
s-14.666 7.83398 -21.999 12.501l64 110c-24 19.333 -42.833 43.166 -56.5 71.499s-20.5 59.5 -20.5 93.5zM381.997 199.999c0 23.333 -4.16699 44.334 -12.5 63.001s-19.5 34.334 -33.5 47.001l-140 -242c8 -3.33301 16.5 -5.83301 25.5 -7.5s18.167 -2.5 27.5 -2.5
c18.667 0 36.167 3.5 52.5 10.5s30.5 16.667 42.5 29s21.333 27.166 28 44.499s10 36.666 10 57.999zM115.997 200c0 -21.333 3.33301 -40.665 10 -57.998s16 -32.333 28 -45l139 239c-13.333 4.66699 -28 7 -44 7c-19.333 0 -37 -3.5 -53 -10.5s-30 -16.833 -42 -29.5
s-21.333 -27.834 -28 -45.501s-10 -36.834 -10 -57.501z" />
    <glyph glyph-name="ugrave" unicode="&#xf9;" horiz-adv-x="499" 
d="M357 61c-12.667 -17.333 -30.167 -33.5 -52.5 -48.5s-52.833 -22.5 -91.5 -22.5c-44.667 0 -80.5 13.667 -107.5 41s-40.5 67.333 -40.5 120v249h75v-240c0 -32 6.66699 -56.5 20 -73.5s34 -25.5 62 -25.5c35.333 0 63.833 8 85.5 24s38.167 33.667 49.5 53v262h75v-400
h-70zM192 677l161 -138l-37 -38l-171 110z" />
    <glyph glyph-name="uacute" unicode="&#xfa;" horiz-adv-x="499" 
d="M357 61c-12.667 -17.333 -30.167 -33.5 -52.5 -48.5s-52.833 -22.5 -91.5 -22.5c-44.667 0 -80.5 13.667 -107.5 41s-40.5 67.333 -40.5 120v249h75v-240c0 -32 6.66699 -56.5 20 -73.5s34 -25.5 62 -25.5c35.333 0 63.833 8 85.5 24s38.167 33.667 49.5 53v262h75v-400
h-70zM353 611l-171 -110l-37 38l161 138z" />
    <glyph glyph-name="ucircumflex" unicode="&#xfb;" horiz-adv-x="499" 
d="M357 61c-12.667 -17.333 -30.167 -33.5 -52.5 -48.5s-52.833 -22.5 -91.5 -22.5c-44.667 0 -80.5 13.667 -107.5 41s-40.5 67.333 -40.5 120v249h75v-240c0 -32 6.66699 -56.5 20 -73.5s34 -25.5 62 -25.5c35.333 0 63.833 8 85.5 24s38.167 33.667 49.5 53v262h75v-400
h-70zM387 544l-35 -42l-103 70l-103 -71l-35 43l138 107z" />
    <glyph glyph-name="udieresis" unicode="&#xfc;" horiz-adv-x="499" 
d="M357 61c-12.667 -17.333 -30.167 -33.5 -52.5 -48.5s-52.833 -22.5 -91.5 -22.5c-44.667 0 -80.5 13.667 -107.5 41s-40.5 67.333 -40.5 120v249h75v-240c0 -32 6.66699 -56.5 20 -73.5s34 -25.5 62 -25.5c35.333 0 63.833 8 85.5 24s38.167 33.667 49.5 53v262h75v-400
h-70zM95 557c0 14 4.66699 25.667 14 35s20.666 14 33.999 14s24.833 -4.66699 34.5 -14s14.5 -21 14.5 -35c0 -13.333 -4.83301 -24.666 -14.5 -33.999s-21.167 -14 -34.5 -14s-24.666 4.66699 -33.999 14s-14 20.666 -14 33.999zM308 557c0 14 4.66699 25.667 14 35
s20.666 14 33.999 14s24.666 -4.66699 33.999 -14s14 -21 14 -35c0 -13.333 -4.66699 -24.666 -14 -33.999s-20.666 -14 -33.999 -14s-24.666 4.66699 -33.999 14s-14 20.666 -14 33.999z" />
    <glyph glyph-name="yacute" unicode="&#xfd;" horiz-adv-x="423" 
d="M57 -250l120 276l-171 374h76l128 -299l131 299h76l-299 -650h-61zM327 591l-171 -110l-37 38l161 138z" />
    <glyph glyph-name="thorn" unicode="&#xfe;" horiz-adv-x="516" 
d="M273 57c20 0 37.834 3.66699 53.501 11s29 17.5 40 30.5s19.333 28.167 25 45.5s8.5 36.333 8.5 57c0 20 -3 38.5 -9 55.5s-14.667 32 -26 45s-24.833 23.167 -40.5 30.5s-32.834 11 -51.501 11c-20 0 -38.333 -3.5 -55 -10.5s-30.667 -16.833 -42 -29.5
s-20.166 -27.667 -26.499 -45s-9.5 -36.333 -9.5 -57s3.16699 -39.667 9.5 -57s15.166 -32.5 26.499 -45.5s25.333 -23.167 42 -30.5s35 -11 55 -11zM142.001 -250l-74.999 0.00195312v903h75v-310c13.333 18.667 31.666 34.5 54.999 47.5s53 19.5 89 19.5
c28 0 53.5 -5.33301 76.5 -16s42.833 -25.334 59.5 -44.001s29.5 -40.834 38.5 -66.501s13.5 -53.167 13.5 -82.5c0 -32 -4.83301 -61 -14.5 -87s-23 -48 -40 -66s-37.167 -32 -60.5 -42s-49 -15 -77 -15c-30 0 -57.667 6.66699 -83 20s-44.333 31 -57 53v-314z" />
    <glyph glyph-name="ydieresis" unicode="&#xff;" horiz-adv-x="423" 
d="M57 -250l120 276l-171 374h76l128 -299l131 299h76l-299 -650h-61zM57 557c0 14 4.66699 25.667 14 35s20.666 14 33.999 14s24.833 -4.66699 34.5 -14s14.5 -21 14.5 -35c0 -13.333 -4.83301 -24.666 -14.5 -33.999s-21.167 -14 -34.5 -14s-24.666 4.66699 -33.999 14
s-14 20.666 -14 33.999zM270 557c0 14 4.66699 25.667 14 35s20.666 14 33.999 14s24.666 -4.66699 33.999 -14s14 -21 14 -35c0 -13.333 -4.66699 -24.666 -14 -33.999s-20.666 -14 -33.999 -14s-24.666 4.66699 -33.999 14s-14 20.666 -14 33.999z" />
    <glyph glyph-name="Amacron" unicode="&#x100;" horiz-adv-x="701" 
d="M367 719l318 -719h-85l-80 183h-338l-81 -183h-85l318 719h33zM213 258h275l-137 316zM209 826h283v-55h-283v55z" />
    <glyph glyph-name="amacron" unicode="&#x101;" horiz-adv-x="465" 
d="M57 291c8 34 27.001 62.332 57.001 84.999s68.333 34 115 34c53.333 0 95.166 -13.333 125.499 -40s45.5 -61.667 45.5 -105v-265h-67l-5 61c-12 -18 -28.667 -33.5 -50 -46.5s-51 -19.5 -89 -19.5c-21.333 0 -41 2.83301 -59 8.5s-33.667 14 -47 25
s-23.833 24.333 -31.5 40s-11.5 33.5 -11.5 53.5c0 85.333 63.333 128 190 128h98v15c0 24.667 -8.33301 44.667 -25 60s-42 23 -76 23c-26 0 -47.333 -5.16699 -64 -15.5s-27.667 -24.166 -33 -41.499h-73zM202.001 55.999c38 0 68.501 9.5 91.501 28.5
s34.5 47.5 34.5 85.5v23h-98c-42 0 -72.167 -5.83301 -90.5 -17.5s-27.5 -29.167 -27.5 -52.5c0 -21.333 8.16699 -37.833 24.5 -49.5s38.166 -17.5 65.499 -17.5zM91.002 578.999h283v-61h-283v61z" />
    <glyph glyph-name="Abreve" unicode="&#x102;" horiz-adv-x="701" 
d="M367 719l318 -719h-85l-80 183h-338l-81 -183h-85l318 719h33zM213 258h275l-137 316zM350 768c-16.667 0 -33.001 2.5 -49.001 7.5s-30.5 12 -43.5 21s-23.833 20 -32.5 33s-13.667 27.5 -15 43.5h63c4 -16 13.833 -28.167 29.5 -36.5s31.5 -12.5 47.5 -12.5
c16.667 0 32.834 4.16699 48.501 12.5s25.5 20.5 29.5 36.5h63c-1.33301 -16 -6.33301 -30.5 -15 -43.5s-19.5 -24 -32.5 -33s-27.667 -16 -44 -21s-32.833 -7.5 -49.5 -7.5z" />
    <glyph glyph-name="abreve" unicode="&#x103;" horiz-adv-x="465" 
d="M57 291c8 34 27.001 62.332 57.001 84.999s68.333 34 115 34c53.333 0 95.166 -13.333 125.499 -40s45.5 -61.667 45.5 -105v-265h-67l-5 61c-12 -18 -28.667 -33.5 -50 -46.5s-51 -19.5 -89 -19.5c-21.333 0 -41 2.83301 -59 8.5s-33.667 14 -47 25
s-23.833 24.333 -31.5 40s-11.5 33.5 -11.5 53.5c0 85.333 63.333 128 190 128h98v15c0 24.667 -8.33301 44.667 -25 60s-42 23 -76 23c-26 0 -47.333 -5.16699 -64 -15.5s-27.667 -24.166 -33 -41.499h-73zM202.001 55.999c38 0 68.501 9.5 91.501 28.5
s34.5 47.5 34.5 85.5v23h-98c-42 0 -72.167 -5.83301 -90.5 -17.5s-27.5 -29.167 -27.5 -52.5c0 -21.333 8.16699 -37.833 24.5 -49.5s38.166 -17.5 65.499 -17.5zM232.002 514.999c-16.667 0 -33.001 2.66699 -49.001 8s-30.5 13 -43.5 23s-23.833 22.167 -32.5 36.5
s-13.667 30.5 -15 48.5h63c4 -17.333 13.833 -30.666 29.5 -39.999s31.5 -14 47.5 -14c16.667 0 32.834 4.66699 48.501 14s25.5 22.666 29.5 39.999h63c-1.33301 -18 -6.33301 -34.167 -15 -48.5s-19.5 -26.5 -32.5 -36.5s-27.667 -17.667 -44 -23s-32.833 -8 -49.5 -8z
" />
    <glyph glyph-name="Aogonek" unicode="&#x104;" horiz-adv-x="701" 
d="M367 719l318.001 -719.002h-25c-19.333 -14 -36.166 -29.5 -50.499 -46.5s-21.5 -35.5 -21.5 -55.5c0 -16.667 5.66699 -27.667 17 -33s26.666 -8 45.999 -8c8.66699 0 17.167 0.666992 25.5 2s16.166 3 23.499 5v-60c-20 -6.66699 -42.333 -10 -67 -10
c-33.333 0 -60.5 8 -81.5 24s-31.5 38.667 -31.5 68c0 12.667 2.33301 24.834 7 36.501s10.667 22.334 18 32.001s15.833 18.5 25.5 26.5s19.167 15 28.5 21l-79 181h-338l-81 -183h-85l318 719h33zM213.001 257.998h275l-137 316z" />
    <glyph glyph-name="aogonek" unicode="&#x105;" horiz-adv-x="465" 
d="M57 291c8 34 27.002 62.3301 57.002 84.9971s68.333 34 115 34c53.333 0 95.166 -13.333 125.499 -40s45.5 -61.667 45.5 -105v-265h-6c-19.333 -14 -36.166 -29.5 -50.499 -46.5s-21.5 -35.5 -21.5 -55.5c0 -16.667 5.66699 -27.667 17 -33s26.666 -8 45.999 -8
c8.66699 0 17.167 0.666992 25.5 2s16.166 3 23.499 5v-60c-20 -6.66699 -42.333 -10 -67 -10c-33.333 0 -60.5 8 -81.5 24s-31.5 38.667 -31.5 68c0 12.667 2.33301 24.834 7 36.501s10.667 22.334 18 32.001s15.833 18.5 25.5 26.5s19.167 15 28.5 21l-5 59
c-12 -18 -28.667 -33.5 -50 -46.5s-51 -19.5 -89 -19.5c-21.333 0 -41 2.83301 -59 8.5s-33.667 14 -47 25s-23.833 24.333 -31.5 40s-11.5 33.5 -11.5 53.5c0 85.333 63.333 128 190 128h98v15c0 24.667 -8.33301 44.667 -25 60s-42 23 -76 23
c-26 0 -47.333 -5.16699 -64 -15.5s-27.667 -24.166 -33 -41.499h-73zM202.002 55.9971c38 0 68.501 9.5 91.501 28.5s34.5 47.5 34.5 85.5v23h-98c-42 0 -72.167 -5.83301 -90.5 -17.5s-27.5 -29.167 -27.5 -52.5c0 -21.333 8.16699 -37.833 24.5 -49.5
s38.166 -17.5 65.499 -17.5z" />
    <glyph glyph-name="Cacute" unicode="&#x106;" horiz-adv-x="778" 
d="M50 350c0 49.333 9.16992 95.8311 27.5029 139.498s43.333 81.834 75 114.501s69 58.5 112 77.5s89.167 28.5 138.5 28.5c42 0 80.833 -6 116.5 -18s67.667 -28.5 96 -49.5s52.666 -46.167 72.999 -75.5s36.166 -61 47.499 -95h-87c-8 21.333 -19.333 41.666 -34 60.999
s-32.334 36.5 -53.001 51.5s-44.167 26.833 -70.5 35.5s-55.166 13 -86.499 13c-38.667 0 -74.667 -7.33301 -108 -22s-62.333 -34.667 -87 -60s-44 -55.166 -58 -89.499s-21 -71.5 -21 -111.5s7 -77.333 21 -112s33.333 -64.667 58 -90s53.667 -45.333 87 -60
s69.333 -22 108 -22c31.333 0 60.5 4.5 87.5 13.5s51 21.167 72 36.5s38.833 33 53.5 53s25.667 41.333 33 64h87c-10 -35.333 -25.333 -67.833 -46 -97.5s-45.334 -55.167 -74.001 -76.5s-61.167 -38 -97.5 -50s-75.5 -18 -117.5 -18c-49.333 0 -95.5 9.33301 -138.5 28
s-80.333 44.334 -112 77.001s-56.667 70.667 -75 114s-27.5 90 -27.5 140zM493.003 854.998l-171 -99l-37 34l161 124z" />
    <glyph glyph-name="cacute" unicode="&#x107;" horiz-adv-x="480" 
d="M251 342c-19.333 0 -37.3301 -3.49902 -53.9971 -10.499s-31 -16.667 -43 -29s-21.333 -27.333 -28 -45s-10 -36.834 -10 -57.501c0 -21.333 3.5 -40.833 10.5 -58.5s16.5 -32.667 28.5 -45s26.167 -22 42.5 -29s34.166 -10.5 53.499 -10.5c30.667 0 56 6.83301 76 20.5
s33.667 30.5 41 50.5h74c-4.66699 -20 -12.5 -38.5 -23.5 -55.5s-24.833 -31.5 -41.5 -43.5s-35.667 -21.333 -57 -28s-44.333 -10 -69 -10c-30.667 0 -58.834 5.5 -84.501 16.5s-47.667 25.833 -66 44.5s-32.666 40.667 -42.999 66s-15.5 52.666 -15.5 81.999
c0 28.667 5.16699 55.834 15.5 81.501s24.666 48 42.999 67s40.166 34 65.499 45s53.333 16.5 84 16.5c24.667 0 47.667 -3.5 69 -10.5s40.333 -16.667 57 -29s30.5 -27 41.5 -44s18.833 -35.5 23.5 -55.5h-75c-7.33301 20 -20.833 36.833 -40.5 50.5s-44.5 20.5 -74.5 20.5
zM344.003 611.001l-171 -110l-37 38l161 138z" />
    <glyph glyph-name="Ccircumflex" unicode="&#x108;" horiz-adv-x="778" 
d="M50 350c0 49.333 9.16992 95.8311 27.5029 139.498s43.333 81.834 75 114.501s69 58.5 112 77.5s89.167 28.5 138.5 28.5c42 0 80.833 -6 116.5 -18s67.667 -28.5 96 -49.5s52.666 -46.167 72.999 -75.5s36.166 -61 47.499 -95h-87c-8 21.333 -19.333 41.666 -34 60.999
s-32.334 36.5 -53.001 51.5s-44.167 26.833 -70.5 35.5s-55.166 13 -86.499 13c-38.667 0 -74.667 -7.33301 -108 -22s-62.333 -34.667 -87 -60s-44 -55.166 -58 -89.499s-21 -71.5 -21 -111.5s7 -77.333 21 -112s33.333 -64.667 58 -90s53.667 -45.333 87 -60
s69.333 -22 108 -22c31.333 0 60.5 4.5 87.5 13.5s51 21.167 72 36.5s38.833 33 53.5 53s25.667 41.333 33 64h87c-10 -35.333 -25.333 -67.833 -46 -97.5s-45.334 -55.167 -74.001 -76.5s-61.167 -38 -97.5 -50s-75.5 -18 -117.5 -18c-49.333 0 -95.5 9.33301 -138.5 28
s-80.333 44.334 -112 77.001s-56.667 70.667 -75 114s-27.5 90 -27.5 140zM557.003 794.998l-35 -38l-103 63l-103 -64l-35 39l138 96z" />
    <glyph glyph-name="ccircumflex" unicode="&#x109;" horiz-adv-x="480" 
d="M251 342c-19.333 0 -37.3301 -3.49902 -53.9971 -10.499s-31 -16.667 -43 -29s-21.333 -27.333 -28 -45s-10 -36.834 -10 -57.501c0 -21.333 3.5 -40.833 10.5 -58.5s16.5 -32.667 28.5 -45s26.167 -22 42.5 -29s34.166 -10.5 53.499 -10.5c30.667 0 56 6.83301 76 20.5
s33.667 30.5 41 50.5h74c-4.66699 -20 -12.5 -38.5 -23.5 -55.5s-24.833 -31.5 -41.5 -43.5s-35.667 -21.333 -57 -28s-44.333 -10 -69 -10c-30.667 0 -58.834 5.5 -84.501 16.5s-47.667 25.833 -66 44.5s-32.666 40.667 -42.999 66s-15.5 52.666 -15.5 81.999
c0 28.667 5.16699 55.834 15.5 81.501s24.666 48 42.999 67s40.166 34 65.499 45s53.333 16.5 84 16.5c24.667 0 47.667 -3.5 69 -10.5s40.333 -16.667 57 -29s30.5 -27 41.5 -44s18.833 -35.5 23.5 -55.5h-75c-7.33301 20 -20.833 36.833 -40.5 50.5s-44.5 20.5 -74.5 20.5
zM388.003 544.001l-35 -42l-103 70l-103 -71l-35 43l138 107z" />
    <glyph glyph-name="Cdotaccent" unicode="&#x10a;" horiz-adv-x="778" 
d="M50 350c0 49.333 9.16992 95.8311 27.5029 139.498s43.333 81.834 75 114.501s69 58.5 112 77.5s89.167 28.5 138.5 28.5c42 0 80.833 -6 116.5 -18s67.667 -28.5 96 -49.5s52.666 -46.167 72.999 -75.5s36.166 -61 47.499 -95h-87c-8 21.333 -19.333 41.666 -34 60.999
s-32.334 36.5 -53.001 51.5s-44.167 26.833 -70.5 35.5s-55.166 13 -86.499 13c-38.667 0 -74.667 -7.33301 -108 -22s-62.333 -34.667 -87 -60s-44 -55.166 -58 -89.499s-21 -71.5 -21 -111.5s7 -77.333 21 -112s33.333 -64.667 58 -90s53.667 -45.333 87 -60
s69.333 -22 108 -22c31.333 0 60.5 4.5 87.5 13.5s51 21.167 72 36.5s38.833 33 53.5 53s25.667 41.333 33 64h87c-10 -35.333 -25.333 -67.833 -46 -97.5s-45.334 -55.167 -74.001 -76.5s-61.167 -38 -97.5 -50s-75.5 -18 -117.5 -18c-49.333 0 -95.5 9.33301 -138.5 28
s-80.333 44.334 -112 77.001s-56.667 70.667 -75 114s-27.5 90 -27.5 140zM370.003 807.998c0 12.667 4.66699 23.334 14 32.001s21 13 35 13s25.833 -4.33301 35.5 -13s14.5 -19.334 14.5 -32.001s-4.83301 -23.334 -14.5 -32.001s-21.5 -13 -35.5 -13
s-25.667 4.33301 -35 13s-14 19.334 -14 32.001z" />
    <glyph glyph-name="cdotaccent" unicode="&#x10b;" horiz-adv-x="480" 
d="M251 342c-19.333 0 -37.3301 -3.49902 -53.9971 -10.499s-31 -16.667 -43 -29s-21.333 -27.333 -28 -45s-10 -36.834 -10 -57.501c0 -21.333 3.5 -40.833 10.5 -58.5s16.5 -32.667 28.5 -45s26.167 -22 42.5 -29s34.166 -10.5 53.499 -10.5c30.667 0 56 6.83301 76 20.5
s33.667 30.5 41 50.5h74c-4.66699 -20 -12.5 -38.5 -23.5 -55.5s-24.833 -31.5 -41.5 -43.5s-35.667 -21.333 -57 -28s-44.333 -10 -69 -10c-30.667 0 -58.834 5.5 -84.501 16.5s-47.667 25.833 -66 44.5s-32.666 40.667 -42.999 66s-15.5 52.666 -15.5 81.999
c0 28.667 5.16699 55.834 15.5 81.501s24.666 48 42.999 67s40.166 34 65.499 45s53.333 16.5 84 16.5c24.667 0 47.667 -3.5 69 -10.5s40.333 -16.667 57 -29s30.5 -27 41.5 -44s18.833 -35.5 23.5 -55.5h-75c-7.33301 20 -20.833 36.833 -40.5 50.5s-44.5 20.5 -74.5 20.5
zM201.003 559.001c0 14 4.66699 25.833 14 35.5s21 14.5 35 14.5s25.833 -4.83301 35.5 -14.5s14.5 -21.5 14.5 -35.5s-4.83301 -25.833 -14.5 -35.5s-21.5 -14.5 -35.5 -14.5s-25.667 4.83301 -35 14.5s-14 21.5 -14 35.5z" />
    <glyph glyph-name="Ccaron" unicode="&#x10c;" horiz-adv-x="778" 
d="M50 350c0 49.333 9.16992 95.8311 27.5029 139.498s43.333 81.834 75 114.501s69 58.5 112 77.5s89.167 28.5 138.5 28.5c42 0 80.833 -6 116.5 -18s67.667 -28.5 96 -49.5s52.666 -46.167 72.999 -75.5s36.166 -61 47.499 -95h-87c-8 21.333 -19.333 41.666 -34 60.999
s-32.334 36.5 -53.001 51.5s-44.167 26.833 -70.5 35.5s-55.166 13 -86.499 13c-38.667 0 -74.667 -7.33301 -108 -22s-62.333 -34.667 -87 -60s-44 -55.166 -58 -89.499s-21 -71.5 -21 -111.5s7 -77.333 21 -112s33.333 -64.667 58 -90s53.667 -45.333 87 -60
s69.333 -22 108 -22c31.333 0 60.5 4.5 87.5 13.5s51 21.167 72 36.5s38.833 33 53.5 53s25.667 41.333 33 64h87c-10 -35.333 -25.333 -67.833 -46 -97.5s-45.334 -55.167 -74.001 -76.5s-61.167 -38 -97.5 -50s-75.5 -18 -117.5 -18c-49.333 0 -95.5 9.33301 -138.5 28
s-80.333 44.334 -112 77.001s-56.667 70.667 -75 114s-27.5 90 -27.5 140zM419.003 753.998l-138 96l35 39l103 -64l103 63l35 -38z" />
    <glyph glyph-name="ccaron" unicode="&#x10d;" horiz-adv-x="480" 
d="M251 342c-19.333 0 -37.3301 -3.49902 -53.9971 -10.499s-31 -16.667 -43 -29s-21.333 -27.333 -28 -45s-10 -36.834 -10 -57.501c0 -21.333 3.5 -40.833 10.5 -58.5s16.5 -32.667 28.5 -45s26.167 -22 42.5 -29s34.166 -10.5 53.499 -10.5c30.667 0 56 6.83301 76 20.5
s33.667 30.5 41 50.5h74c-4.66699 -20 -12.5 -38.5 -23.5 -55.5s-24.833 -31.5 -41.5 -43.5s-35.667 -21.333 -57 -28s-44.333 -10 -69 -10c-30.667 0 -58.834 5.5 -84.501 16.5s-47.667 25.833 -66 44.5s-32.666 40.667 -42.999 66s-15.5 52.666 -15.5 81.999
c0 28.667 5.16699 55.834 15.5 81.501s24.666 48 42.999 67s40.166 34 65.499 45s53.333 16.5 84 16.5c24.667 0 47.667 -3.5 69 -10.5s40.333 -16.667 57 -29s30.5 -27 41.5 -44s18.833 -35.5 23.5 -55.5h-75c-7.33301 20 -20.833 36.833 -40.5 50.5s-44.5 20.5 -74.5 20.5
zM240.003 499.001l-138 107l35 43l103 -71l103 70l35 -42z" />
    <glyph glyph-name="Dcaron" unicode="&#x10e;" horiz-adv-x="728" 
d="M82 700l250 -0.00195312c53.333 0 101.333 -8.83301 144 -26.5s79 -42.167 109 -73.5s53 -68.166 69 -110.499s24 -88.166 24 -137.499c0 -50.667 -7.5 -97.5 -22.5 -140.5s-37 -80.167 -66 -111.5s-64.5 -55.833 -106.5 -73.5s-89.667 -26.5 -143 -26.5h-258v700z
M340 75.998c41.333 0 78.001 6.66797 110.001 20.001s58.833 32.166 80.5 56.499s38.167 53.5 49.5 87.5s17 71.333 17 112c0 39.333 -6 75.5 -18 108.5s-29.333 61.5 -52 85.5s-50.334 42.833 -83.001 56.5s-70 20.5 -112 20.5h-169v-547h177zM354.001 753.999l-138 96
l35 39l103 -64l103 63l35 -38z" />
    <glyph glyph-name="dcaron" unicode="&#x10f;" horiz-adv-x="639" 
d="M243 55c20 0 38.332 3.83301 54.999 11.5s31 18 43 31s21.167 28.333 27.5 46s9.5 36.834 9.5 57.501s-3.16699 39.667 -9.5 57s-15.5 32.5 -27.5 45.5s-26.333 23.167 -43 30.5s-35 11 -55 11c-19.333 0 -36.833 -3.83301 -52.5 -11.5s-29.167 -18 -40.5 -31
s-20.166 -28.167 -26.499 -45.5s-9.5 -36 -9.5 -56c0 -20.667 3 -39.834 9 -57.501s14.667 -33 26 -46s24.833 -23.333 40.5 -31s33.5 -11.5 53.5 -11.5zM373.999 64c-12.667 -22 -31.333 -39.6689 -56 -53.002s-52 -20 -82 -20c-28 0 -53.833 5 -77.5 15
s-44.167 24 -61.5 42s-30.833 40 -40.5 66s-14.5 55 -14.5 87c0 29.333 4.66699 56.833 14 82.5s22.5 47.834 39.5 66.501s37.333 33.334 61 44.001s49.5 16 77.5 16c36 0 65.167 -7 87.5 -21s39.833 -30.667 52.5 -50v314h75v-653h-70zM649 687.998l-93 -180l-49 18l66 184
z" />
    <glyph glyph-name="Dcroat" unicode="&#x110;" horiz-adv-x="728" 
d="M82 282l-70 -0.00195312v68h70v350h250c53.333 0 101.333 -8.83301 144 -26.5s79 -42.167 109 -73.5s53 -68.166 69 -110.499s24 -88.166 24 -137.499c0 -50.667 -7.5 -97.5 -22.5 -140.5s-37 -80.167 -66 -111.5s-64.5 -55.833 -106.5 -73.5s-89.667 -26.5 -143 -26.5
h-258v282zM340 75.998c41.333 0 78.001 6.66797 110.001 20.001s58.833 32.166 80.5 56.499s38.167 53.5 49.5 87.5s17 71.333 17 112c0 39.333 -6 75.5 -18 108.5s-29.333 61.5 -52 85.5s-50.334 42.833 -83.001 56.5s-70 20.5 -112 20.5h-169v-273h185v-68h-185v-206h177z
" />
    <glyph glyph-name="dcroat" unicode="&#x111;" horiz-adv-x="519" 
d="M236 579l138.001 -0.00195312v74h75v-74h70v-61h-70v-518h-70l-5 64c-12.667 -22 -31.334 -39.667 -56.001 -53s-52 -20 -82 -20c-28 0 -53.833 5 -77.5 15s-44.167 24 -61.5 42s-30.833 40 -40.5 66s-14.5 55 -14.5 87c0 29.333 4.66699 56.833 14 82.5
s22.5 47.834 39.5 66.501s37.333 33.334 61 44.001s49.5 16 77.5 16c36 0 65.167 -7 87.5 -21s39.833 -30.667 52.5 -50v179h-138v61zM243.001 54.998c20 0 38.332 3.83301 54.999 11.5s31 18 43 31s21.167 28.333 27.5 46s9.5 36.834 9.5 57.501s-3.16699 39.667 -9.5 57
s-15.5 32.5 -27.5 45.5s-26.333 23.167 -43 30.5s-35 11 -55 11c-19.333 0 -36.833 -3.83301 -52.5 -11.5s-29.167 -18 -40.5 -31s-20.166 -28.167 -26.499 -45.5s-9.5 -36 -9.5 -56c0 -20.667 3 -39.834 9 -57.501s14.667 -33 26 -46s24.833 -23.333 40.5 -31
s33.5 -11.5 53.5 -11.5z" />
    <glyph glyph-name="Emacron" unicode="&#x112;" horiz-adv-x="590" 
d="M163 623v-215h338v-77h-338v-254h369v-77h-450v700h450v-77h-369zM174 826h283v-55h-283v55z" />
    <glyph glyph-name="emacron" unicode="&#x113;" horiz-adv-x="486" 
d="M114 173c3.33301 -37.333 16.833 -66.3301 40.5 -86.9971s56.167 -31 97.5 -31c31.333 0 56.333 6.5 75 19.5s31 29.167 37 48.5h72c-9.33301 -38.667 -30 -70.334 -62 -95.001s-73 -37 -123 -37c-31.333 0 -59.833 5.5 -85.5 16.5s-47.667 25.833 -66 44.5
s-32.5 40.667 -42.5 66s-15 52.666 -15 81.999c0 28.667 5 55.834 15 81.501s24.167 48 42.5 67s40 34 65 45s52.5 16.5 82.5 16.5s57.167 -5.5 81.5 -16.5s45 -25.833 62 -44.5s30.167 -39.834 39.5 -63.501s14 -47.834 14 -72.501v-20.5
c0 -7.66699 -0.666992 -14.167 -2 -19.5h-328zM250 346.003c-37.333 0 -67.499 -10.667 -90.499 -32s-37.167 -49 -42.5 -83h255c-0.666992 14.667 -3.83398 29 -9.50098 43s-13.667 26.333 -24 37s-23 19.167 -38 25.5s-31.833 9.5 -50.5 9.5zM112.001 579.003h283v-61
h-283v61z" />
    <glyph glyph-name="Ebreve" unicode="&#x114;" horiz-adv-x="590" 
d="M163 623v-215h338v-77h-338v-254h369v-77h-450v700h450v-77h-369zM315 768c-16.667 0 -33.001 2.5 -49.001 7.5s-30.5 12 -43.5 21s-23.833 20 -32.5 33s-13.667 27.5 -15 43.5h63c4 -16 13.833 -28.167 29.5 -36.5s31.5 -12.5 47.5 -12.5
c16.667 0 32.834 4.16699 48.501 12.5s25.5 20.5 29.5 36.5h63c-1.33301 -16 -6.33301 -30.5 -15 -43.5s-19.5 -24 -32.5 -33s-27.667 -16 -44 -21s-32.833 -7.5 -49.5 -7.5z" />
    <glyph glyph-name="ebreve" unicode="&#x115;" horiz-adv-x="486" 
d="M114 173c3.33301 -37.333 16.833 -66.3301 40.5 -86.9971s56.167 -31 97.5 -31c31.333 0 56.333 6.5 75 19.5s31 29.167 37 48.5h72c-9.33301 -38.667 -30 -70.334 -62 -95.001s-73 -37 -123 -37c-31.333 0 -59.833 5.5 -85.5 16.5s-47.667 25.833 -66 44.5
s-32.5 40.667 -42.5 66s-15 52.666 -15 81.999c0 28.667 5 55.834 15 81.501s24.167 48 42.5 67s40 34 65 45s52.5 16.5 82.5 16.5s57.167 -5.5 81.5 -16.5s45 -25.833 62 -44.5s30.167 -39.834 39.5 -63.501s14 -47.834 14 -72.501v-20.5
c0 -7.66699 -0.666992 -14.167 -2 -19.5h-328zM250 346.003c-37.333 0 -67.499 -10.667 -90.499 -32s-37.167 -49 -42.5 -83h255c-0.666992 14.667 -3.83398 29 -9.50098 43s-13.667 26.333 -24 37s-23 19.167 -38 25.5s-31.833 9.5 -50.5 9.5zM242.001 515.003
c-16.667 0 -33.001 2.66699 -49.001 8s-30.5 13 -43.5 23s-23.833 22.167 -32.5 36.5s-13.667 30.5 -15 48.5h63c4 -17.333 13.833 -30.666 29.5 -39.999s31.5 -14 47.5 -14c16.667 0 32.834 4.66699 48.501 14s25.5 22.666 29.5 39.999h63
c-1.33301 -18 -6.33301 -34.167 -15 -48.5s-19.5 -26.5 -32.5 -36.5s-27.667 -17.667 -44 -23s-32.833 -8 -49.5 -8z" />
    <glyph glyph-name="Edotaccent" unicode="&#x116;" horiz-adv-x="590" 
d="M163 623v-215h338v-77h-338v-254h369v-77h-450v700h450v-77h-369zM276 808c0 12.667 4.66699 23.334 14 32.001s21 13 35 13s25.833 -4.33301 35.5 -13s14.5 -19.334 14.5 -32.001s-4.83301 -23.334 -14.5 -32.001s-21.5 -13 -35.5 -13s-25.667 4.33301 -35 13
s-14 19.334 -14 32.001z" />
    <glyph glyph-name="edotaccent" unicode="&#x117;" horiz-adv-x="486" 
d="M114 173c3.33301 -37.333 16.833 -66.3301 40.5 -86.9971s56.167 -31 97.5 -31c31.333 0 56.333 6.5 75 19.5s31 29.167 37 48.5h72c-9.33301 -38.667 -30 -70.334 -62 -95.001s-73 -37 -123 -37c-31.333 0 -59.833 5.5 -85.5 16.5s-47.667 25.833 -66 44.5
s-32.5 40.667 -42.5 66s-15 52.666 -15 81.999c0 28.667 5 55.834 15 81.501s24.167 48 42.5 67s40 34 65 45s52.5 16.5 82.5 16.5s57.167 -5.5 81.5 -16.5s45 -25.833 62 -44.5s30.167 -39.834 39.5 -63.501s14 -47.834 14 -72.501v-20.5
c0 -7.66699 -0.666992 -14.167 -2 -19.5h-328zM250 346.003c-37.333 0 -67.499 -10.667 -90.499 -32s-37.167 -49 -42.5 -83h255c-0.666992 14.667 -3.83398 29 -9.50098 43s-13.667 26.333 -24 37s-23 19.167 -38 25.5s-31.833 9.5 -50.5 9.5zM204.001 559.003
c0 14 4.66699 25.833 14 35.5s21 14.5 35 14.5s25.833 -4.83301 35.5 -14.5s14.5 -21.5 14.5 -35.5s-4.83301 -25.833 -14.5 -35.5s-21.5 -14.5 -35.5 -14.5s-25.667 4.83301 -35 14.5s-14 21.5 -14 35.5z" />
    <glyph glyph-name="Eogonek" unicode="&#x118;" horiz-adv-x="590" 
d="M163 623l0.000976562 -215h338v-77h-338v-254h369v-77h-2c-19.333 -14 -36.166 -29.5 -50.499 -46.5s-21.5 -35.5 -21.5 -55.5c0 -16.667 5.66699 -27.667 17 -33s26.666 -8 45.999 -8c8.66699 0 17.167 0.666992 25.5 2s16.166 3 23.499 5v-60
c-20 -6.66699 -42.333 -10 -67 -10c-33.333 0 -60.5 8 -81.5 24s-31.5 38.667 -31.5 68c0 25.333 8 47.833 24 67.5s33.333 35.167 52 46.5h-384v700h450v-77h-369z" />
    <glyph glyph-name="eogonek" unicode="&#x119;" horiz-adv-x="486" 
d="M114 173c3.33301 -37.333 16.832 -66.3311 40.499 -86.998s56.167 -31 97.5 -31c31.333 0 56.333 6.5 75 19.5s31 29.167 37 48.5h72c-7.33301 -30 -21.666 -56 -42.999 -78s-48.666 -37.333 -81.999 -46c-18.667 -14 -35 -29.5 -49 -46.5s-21 -35.167 -21 -54.5
c0 -16.667 5.66699 -27.667 17 -33s26.666 -8 45.999 -8c8.66699 0 17.167 0.666992 25.5 2s16.166 3 23.499 5v-60c-20 -6.66699 -42.333 -10 -67 -10c-33.333 0 -60.5 8 -81.5 24s-31.5 38.667 -31.5 68c0 22 6.33301 42.167 19 60.5s27.334 33.5 44.001 45.5
c-29.333 2 -56 8.66699 -80 20s-44.5 26.166 -61.5 44.499s-30 39.833 -39 64.5s-13.5 51 -13.5 79c0 28.667 5 55.834 15 81.501s24.167 48 42.5 67s40 34 65 45s52.5 16.5 82.5 16.5s57.167 -5.5 81.5 -16.5s45 -25.833 62 -44.5s30.167 -39.834 39.5 -63.501
s14 -47.834 14 -72.501v-20.5c0 -7.66699 -0.666992 -14.167 -2 -19.5h-328zM249.999 346.002c-37.333 0 -67.499 -10.667 -90.499 -32s-37.167 -49 -42.5 -83h255c-0.666992 14.667 -3.83398 29 -9.50098 43s-13.667 26.333 -24 37s-23 19.167 -38 25.5
s-31.833 9.5 -50.5 9.5z" />
    <glyph glyph-name="Ecaron" unicode="&#x11a;" horiz-adv-x="590" 
d="M163 623v-215h338v-77h-338v-254h369v-77h-450v700h450v-77h-369zM315 754l-138 96l35 39l103 -64l103 63l35 -38z" />
    <glyph glyph-name="ecaron" unicode="&#x11b;" horiz-adv-x="486" 
d="M114 173c3.33301 -37.333 16.833 -66.3301 40.5 -86.9971s56.167 -31 97.5 -31c31.333 0 56.333 6.5 75 19.5s31 29.167 37 48.5h72c-9.33301 -38.667 -30 -70.334 -62 -95.001s-73 -37 -123 -37c-31.333 0 -59.833 5.5 -85.5 16.5s-47.667 25.833 -66 44.5
s-32.5 40.667 -42.5 66s-15 52.666 -15 81.999c0 28.667 5 55.834 15 81.501s24.167 48 42.5 67s40 34 65 45s52.5 16.5 82.5 16.5s57.167 -5.5 81.5 -16.5s45 -25.833 62 -44.5s30.167 -39.834 39.5 -63.501s14 -47.834 14 -72.501v-20.5
c0 -7.66699 -0.666992 -14.167 -2 -19.5h-328zM250 346.003c-37.333 0 -67.499 -10.667 -90.499 -32s-37.167 -49 -42.5 -83h255c-0.666992 14.667 -3.83398 29 -9.50098 43s-13.667 26.333 -24 37s-23 19.167 -38 25.5s-31.833 9.5 -50.5 9.5zM253.001 499.003l-138 107
l35 43l103 -71l103 70l35 -42z" />
    <glyph glyph-name="Gcircumflex" unicode="&#x11c;" horiz-adv-x="803" 
d="M412 309l0.00390625 73.9971h341v-30c0 -58 -8.83301 -109.5 -26.5 -154.5s-42 -82.833 -73 -113.5s-67.833 -54 -110.5 -70s-89 -24 -139 -24c-49.333 0 -95.5 9.33301 -138.5 28s-80.5 44.334 -112.5 77.001s-57.167 70.667 -75.5 114s-27.5 90 -27.5 140
c0 49.333 9.16699 95.833 27.5 139.5s43.5 81.834 75.5 114.501s69.667 58.5 113 77.5s89.666 28.5 138.999 28.5c42.667 0 81.834 -6.16699 117.501 -18.5s67.667 -29.166 96 -50.499s52.5 -46.5 72.5 -75.5s35.667 -60.167 47 -93.5h-87
c-8 21.333 -19.333 41.666 -34 60.999s-32.334 36.5 -53.001 51.5s-44.167 26.833 -70.5 35.5s-54.833 13 -85.5 13c-39.333 0 -75.833 -7.33301 -109.5 -22s-62.834 -34.667 -87.501 -60s-44.167 -55.166 -58.5 -89.499s-21.5 -71.5 -21.5 -111.5
s7.16699 -77.333 21.5 -112s33.666 -64.667 57.999 -90s53.166 -45.333 86.499 -60s69 -22 107 -22c37.333 0 72 6.16699 104 18.5s59.667 29.5 83 51.5s41.833 47.833 55.5 77.5s21.167 61.5 22.5 95.5h-257zM549.004 794.997l-35 -38l-103 63l-103 -64l-35 39l138 96z" />
    <glyph glyph-name="gcircumflex" unicode="&#x11d;" horiz-adv-x="467" 
d="M57 239c0 23.333 4.66797 45.333 14.001 66s21.833 38.834 37.5 54.501s34.167 28 55.5 37s44 13.5 68 13.5h200v-53l-80 -5c17.333 -13.333 31 -30.5 41 -51.5s15 -43.5 15 -67.5c0 -22 -4.5 -43 -13.5 -63s-21.333 -37.5 -37 -52.5s-34 -26.833 -55 -35.5
s-43.167 -13 -66.5 -13c-24 0 -44 3.33301 -60 10s-30.667 15.667 -44 27c-9.33301 -2.66699 -17.833 -7.5 -25.5 -14.5s-11.5 -17.833 -11.5 -32.5c0 -17.333 7 -30.5 21 -39.5s31 -13.5 51 -13.5h84c62.667 0 110 -13.333 142 -40s48 -64 48 -112
c0 -23.333 -4.33301 -45 -13 -65s-21.5 -37.167 -38.5 -51.5s-38 -25.5 -63 -33.5s-53.5 -12 -85.5 -12c-34.667 0 -64.667 4.5 -90 13.5s-46.333 20.833 -63 35.5s-29.167 31.5 -37.5 50.5s-12.5 38.5 -12.5 58.5c0 27.333 6.66699 51.5 20 72.5s27.666 35.833 42.999 44.5
c-20.667 6.66699 -38 17.667 -52 33s-21 35.333 -21 60c0 12 1.83301 22.833 5.5 32.5s8.5 18.167 14.5 25.5s12.5 13.666 19.5 18.999s13.833 9.66602 20.5 12.999c-9.33301 9.33301 -16.833 22.333 -22.5 39s-8.5 33.334 -8.5 50.001zM162.001 -57
c-14.667 -7.33301 -27.001 -18.5 -37.001 -33.5s-15 -33.5 -15 -55.5c0 -28 10.667 -51.333 32 -70s54.333 -28 99 -28s77.334 8.83301 98.001 26.5s31 41.5 31 71.5c0 28 -8.33301 49.833 -25 65.5s-48 23.5 -94 23.5h-89zM129 239c0 -32 9.66699 -57.667 29 -77
s44 -29 74 -29s55 9.66699 75 29s30 45 30 77s-10 57.833 -30 77.5s-45 29.5 -75 29.5s-54.667 -9.83301 -74 -29.5s-29 -45.5 -29 -77.5zM371 544l-35 -42l-103 70l-103 -71l-35 43l138 107z" />
    <glyph glyph-name="Gbreve" unicode="&#x11e;" horiz-adv-x="803" 
d="M412 309l0.00390625 73.9971h341v-30c0 -58 -8.83301 -109.5 -26.5 -154.5s-42 -82.833 -73 -113.5s-67.833 -54 -110.5 -70s-89 -24 -139 -24c-49.333 0 -95.5 9.33301 -138.5 28s-80.5 44.334 -112.5 77.001s-57.167 70.667 -75.5 114s-27.5 90 -27.5 140
c0 49.333 9.16699 95.833 27.5 139.5s43.5 81.834 75.5 114.501s69.667 58.5 113 77.5s89.666 28.5 138.999 28.5c42.667 0 81.834 -6.16699 117.501 -18.5s67.667 -29.166 96 -50.499s52.5 -46.5 72.5 -75.5s35.667 -60.167 47 -93.5h-87
c-8 21.333 -19.333 41.666 -34 60.999s-32.334 36.5 -53.001 51.5s-44.167 26.833 -70.5 35.5s-54.833 13 -85.5 13c-39.333 0 -75.833 -7.33301 -109.5 -22s-62.834 -34.667 -87.501 -60s-44.167 -55.166 -58.5 -89.499s-21.5 -71.5 -21.5 -111.5
s7.16699 -77.333 21.5 -112s33.666 -64.667 57.999 -90s53.166 -45.333 86.499 -60s69 -22 107 -22c37.333 0 72 6.16699 104 18.5s59.667 29.5 83 51.5s41.833 47.833 55.5 77.5s21.167 61.5 22.5 95.5h-257zM411.004 767.997c-16.667 0 -33.001 2.5 -49.001 7.5
s-30.5 12 -43.5 21s-23.833 20 -32.5 33s-13.667 27.5 -15 43.5h63c4 -16 13.833 -28.167 29.5 -36.5s31.5 -12.5 47.5 -12.5c16.667 0 32.834 4.16699 48.501 12.5s25.5 20.5 29.5 36.5h63c-1.33301 -16 -6.33301 -30.5 -15 -43.5s-19.5 -24 -32.5 -33s-27.667 -16 -44 -21
s-32.833 -7.5 -49.5 -7.5z" />
    <glyph glyph-name="gbreve" unicode="&#x11f;" horiz-adv-x="467" 
d="M57 239c0 23.333 4.66797 45.333 14.001 66s21.833 38.834 37.5 54.501s34.167 28 55.5 37s44 13.5 68 13.5h200v-53l-80 -5c17.333 -13.333 31 -30.5 41 -51.5s15 -43.5 15 -67.5c0 -22 -4.5 -43 -13.5 -63s-21.333 -37.5 -37 -52.5s-34 -26.833 -55 -35.5
s-43.167 -13 -66.5 -13c-24 0 -44 3.33301 -60 10s-30.667 15.667 -44 27c-9.33301 -2.66699 -17.833 -7.5 -25.5 -14.5s-11.5 -17.833 -11.5 -32.5c0 -17.333 7 -30.5 21 -39.5s31 -13.5 51 -13.5h84c62.667 0 110 -13.333 142 -40s48 -64 48 -112
c0 -23.333 -4.33301 -45 -13 -65s-21.5 -37.167 -38.5 -51.5s-38 -25.5 -63 -33.5s-53.5 -12 -85.5 -12c-34.667 0 -64.667 4.5 -90 13.5s-46.333 20.833 -63 35.5s-29.167 31.5 -37.5 50.5s-12.5 38.5 -12.5 58.5c0 27.333 6.66699 51.5 20 72.5s27.666 35.833 42.999 44.5
c-20.667 6.66699 -38 17.667 -52 33s-21 35.333 -21 60c0 12 1.83301 22.833 5.5 32.5s8.5 18.167 14.5 25.5s12.5 13.666 19.5 18.999s13.833 9.66602 20.5 12.999c-9.33301 9.33301 -16.833 22.333 -22.5 39s-8.5 33.334 -8.5 50.001zM162.001 -57
c-14.667 -7.33301 -27.001 -18.5 -37.001 -33.5s-15 -33.5 -15 -55.5c0 -28 10.667 -51.333 32 -70s54.333 -28 99 -28s77.334 8.83301 98.001 26.5s31 41.5 31 71.5c0 28 -8.33301 49.833 -25 65.5s-48 23.5 -94 23.5h-89zM129 239c0 -32 9.66699 -57.667 29 -77
s44 -29 74 -29s55 9.66699 75 29s30 45 30 77s-10 57.833 -30 77.5s-45 29.5 -75 29.5s-54.667 -9.83301 -74 -29.5s-29 -45.5 -29 -77.5zM233 515c-16.667 0 -33.001 2.66699 -49.001 8s-30.5 13 -43.5 23s-23.833 22.167 -32.5 36.5s-13.667 30.5 -15 48.5h63
c4 -17.333 13.833 -30.666 29.5 -39.999s31.5 -14 47.5 -14c16.667 0 32.834 4.66699 48.501 14s25.5 22.666 29.5 39.999h63c-1.33301 -18 -6.33301 -34.167 -15 -48.5s-19.5 -26.5 -32.5 -36.5s-27.667 -17.667 -44 -23s-32.833 -8 -49.5 -8z" />
    <glyph glyph-name="Gdotaccent" unicode="&#x120;" horiz-adv-x="803" 
d="M412 309l0.00390625 73.9971h341v-30c0 -58 -8.83301 -109.5 -26.5 -154.5s-42 -82.833 -73 -113.5s-67.833 -54 -110.5 -70s-89 -24 -139 -24c-49.333 0 -95.5 9.33301 -138.5 28s-80.5 44.334 -112.5 77.001s-57.167 70.667 -75.5 114s-27.5 90 -27.5 140
c0 49.333 9.16699 95.833 27.5 139.5s43.5 81.834 75.5 114.501s69.667 58.5 113 77.5s89.666 28.5 138.999 28.5c42.667 0 81.834 -6.16699 117.501 -18.5s67.667 -29.166 96 -50.499s52.5 -46.5 72.5 -75.5s35.667 -60.167 47 -93.5h-87
c-8 21.333 -19.333 41.666 -34 60.999s-32.334 36.5 -53.001 51.5s-44.167 26.833 -70.5 35.5s-54.833 13 -85.5 13c-39.333 0 -75.833 -7.33301 -109.5 -22s-62.834 -34.667 -87.501 -60s-44.167 -55.166 -58.5 -89.499s-21.5 -71.5 -21.5 -111.5
s7.16699 -77.333 21.5 -112s33.666 -64.667 57.999 -90s53.166 -45.333 86.499 -60s69 -22 107 -22c37.333 0 72 6.16699 104 18.5s59.667 29.5 83 51.5s41.833 47.833 55.5 77.5s21.167 61.5 22.5 95.5h-257zM362.004 807.997c0 12.667 4.66699 23.334 14 32.001
s21 13 35 13s25.833 -4.33301 35.5 -13s14.5 -19.334 14.5 -32.001s-4.83301 -23.334 -14.5 -32.001s-21.5 -13 -35.5 -13s-25.667 4.33301 -35 13s-14 19.334 -14 32.001z" />
    <glyph glyph-name="gdotaccent" unicode="&#x121;" horiz-adv-x="467" 
d="M57 239c0 23.333 4.66797 45.333 14.001 66s21.833 38.834 37.5 54.501s34.167 28 55.5 37s44 13.5 68 13.5h200v-53l-80 -5c17.333 -13.333 31 -30.5 41 -51.5s15 -43.5 15 -67.5c0 -22 -4.5 -43 -13.5 -63s-21.333 -37.5 -37 -52.5s-34 -26.833 -55 -35.5
s-43.167 -13 -66.5 -13c-24 0 -44 3.33301 -60 10s-30.667 15.667 -44 27c-9.33301 -2.66699 -17.833 -7.5 -25.5 -14.5s-11.5 -17.833 -11.5 -32.5c0 -17.333 7 -30.5 21 -39.5s31 -13.5 51 -13.5h84c62.667 0 110 -13.333 142 -40s48 -64 48 -112
c0 -23.333 -4.33301 -45 -13 -65s-21.5 -37.167 -38.5 -51.5s-38 -25.5 -63 -33.5s-53.5 -12 -85.5 -12c-34.667 0 -64.667 4.5 -90 13.5s-46.333 20.833 -63 35.5s-29.167 31.5 -37.5 50.5s-12.5 38.5 -12.5 58.5c0 27.333 6.66699 51.5 20 72.5s27.666 35.833 42.999 44.5
c-20.667 6.66699 -38 17.667 -52 33s-21 35.333 -21 60c0 12 1.83301 22.833 5.5 32.5s8.5 18.167 14.5 25.5s12.5 13.666 19.5 18.999s13.833 9.66602 20.5 12.999c-9.33301 9.33301 -16.833 22.333 -22.5 39s-8.5 33.334 -8.5 50.001zM162.001 -57
c-14.667 -7.33301 -27.001 -18.5 -37.001 -33.5s-15 -33.5 -15 -55.5c0 -28 10.667 -51.333 32 -70s54.333 -28 99 -28s77.334 8.83301 98.001 26.5s31 41.5 31 71.5c0 28 -8.33301 49.833 -25 65.5s-48 23.5 -94 23.5h-89zM129 239c0 -32 9.66699 -57.667 29 -77
s44 -29 74 -29s55 9.66699 75 29s30 45 30 77s-10 57.833 -30 77.5s-45 29.5 -75 29.5s-54.667 -9.83301 -74 -29.5s-29 -45.5 -29 -77.5zM184 559c0 14 4.66699 25.833 14 35.5s21 14.5 35 14.5s25.833 -4.83301 35.5 -14.5s14.5 -21.5 14.5 -35.5
s-4.83301 -25.833 -14.5 -35.5s-21.5 -14.5 -35.5 -14.5s-25.667 4.83301 -35 14.5s-14 21.5 -14 35.5z" />
    <glyph glyph-name="Gcommaaccent" unicode="&#x122;" horiz-adv-x="803" 
d="M412 309l0.00390625 73.9971h341v-30c0 -58 -8.83301 -109.5 -26.5 -154.5s-42 -82.833 -73 -113.5s-67.833 -54 -110.5 -70s-89 -24 -139 -24c-49.333 0 -95.5 9.33301 -138.5 28s-80.5 44.334 -112.5 77.001s-57.167 70.667 -75.5 114s-27.5 90 -27.5 140
c0 49.333 9.16699 95.833 27.5 139.5s43.5 81.834 75.5 114.501s69.667 58.5 113 77.5s89.666 28.5 138.999 28.5c42.667 0 81.834 -6.16699 117.501 -18.5s67.667 -29.166 96 -50.499s52.5 -46.5 72.5 -75.5s35.667 -60.167 47 -93.5h-87
c-8 21.333 -19.333 41.666 -34 60.999s-32.334 36.5 -53.001 51.5s-44.167 26.833 -70.5 35.5s-54.833 13 -85.5 13c-39.333 0 -75.833 -7.33301 -109.5 -22s-62.834 -34.667 -87.501 -60s-44.167 -55.166 -58.5 -89.499s-21.5 -71.5 -21.5 -111.5
s7.16699 -77.333 21.5 -112s33.666 -64.667 57.999 -90s53.166 -45.333 86.499 -60s69 -22 107 -22c37.333 0 72 6.16699 104 18.5s59.667 29.5 83 51.5s41.833 47.833 55.5 77.5s21.167 61.5 22.5 95.5h-257zM472.004 -104.003l-93 -180l-49 18l66 184z" />
    <glyph glyph-name="gcommaaccent" unicode="&#x123;" horiz-adv-x="467" 
d="M57 239c0 23.333 4.66797 45.333 14.001 66s21.833 38.834 37.5 54.501s34.167 28 55.5 37s44 13.5 68 13.5h200v-53l-80 -5c17.333 -13.333 31 -30.5 41 -51.5s15 -43.5 15 -67.5c0 -22 -4.5 -43 -13.5 -63s-21.333 -37.5 -37 -52.5s-34 -26.833 -55 -35.5
s-43.167 -13 -66.5 -13c-24 0 -44 3.33301 -60 10s-30.667 15.667 -44 27c-9.33301 -2.66699 -17.833 -7.5 -25.5 -14.5s-11.5 -17.833 -11.5 -32.5c0 -17.333 7 -30.5 21 -39.5s31 -13.5 51 -13.5h84c62.667 0 110 -13.333 142 -40s48 -64 48 -112
c0 -23.333 -4.33301 -45 -13 -65s-21.5 -37.167 -38.5 -51.5s-38 -25.5 -63 -33.5s-53.5 -12 -85.5 -12c-34.667 0 -64.667 4.5 -90 13.5s-46.333 20.833 -63 35.5s-29.167 31.5 -37.5 50.5s-12.5 38.5 -12.5 58.5c0 27.333 6.66699 51.5 20 72.5s27.666 35.833 42.999 44.5
c-20.667 6.66699 -38 17.667 -52 33s-21 35.333 -21 60c0 12 1.83301 22.833 5.5 32.5s8.5 18.167 14.5 25.5s12.5 13.666 19.5 18.999s13.833 9.66602 20.5 12.999c-9.33301 9.33301 -16.833 22.333 -22.5 39s-8.5 33.334 -8.5 50.001zM162.001 -57
c-14.667 -7.33301 -27.001 -18.5 -37.001 -33.5s-15 -33.5 -15 -55.5c0 -28 10.667 -51.333 32 -70s54.333 -28 99 -28s77.334 8.83301 98.001 26.5s31 41.5 31 71.5c0 28 -8.33301 49.833 -25 65.5s-48 23.5 -94 23.5h-89zM129 239c0 -32 9.66699 -57.667 29 -77
s44 -29 74 -29s55 9.66699 75 29s30 45 30 77s-10 57.833 -30 77.5s-45 29.5 -75 29.5s-54.667 -9.83301 -74 -29.5s-29 -45.5 -29 -77.5zM182 530l92 180l50 -18l-66 -184z" />
    <glyph glyph-name="Hcircumflex" unicode="&#x124;" horiz-adv-x="730" 
d="M648 0h-81v331h-404v-331h-81v700h81v-292h404v292h81v-700zM503 795l-35 -38l-103 63l-103 -64l-35 39l138 96z" />
    <glyph glyph-name="hcircumflex" unicode="&#x125;" horiz-adv-x="515" 
d="M70 653l74.999 0.00292969v-304c13.333 14 32 27.667 56 41s54 20 90 20c23.333 0 44.833 -3.83301 64.5 -11.5s36.5 -18.834 50.5 -33.501s24.833 -32.334 32.5 -53.001s11.5 -44 11.5 -70v-242h-75v230c0 36 -8.5 63.667 -25.5 83s-42.167 29 -75.5 29
c-31.333 0 -57.666 -7.33301 -78.999 -22s-38 -30.334 -50 -47.001v-273h-75v653zM245.999 795.003l-35 -38l-103 63l-103 -64l-35 39l138 96z" />
    <glyph glyph-name="Hbar" unicode="&#x126;" horiz-adv-x="730" 
d="M3 579h79v121h81v-121h404v121h81v-121h78v-61h-78v-518h-81v331h-404v-331h-81v518h-79v61zM567 408v110h-404v-110h404z" />
    <glyph glyph-name="hbar" unicode="&#x127;" horiz-adv-x="515" 
d="M0 579l69.999 0.00292969v74h75v-74h138v-61h-138v-169c13.333 14 32 27.667 56 41s54 20 90 20c23.333 0 44.833 -3.83301 64.5 -11.5s36.5 -18.834 50.5 -33.501s24.833 -32.334 32.5 -53.001s11.5 -44 11.5 -70v-242h-75v230c0 36 -8.5 63.667 -25.5 83
s-42.167 29 -75.5 29c-31.333 0 -57.666 -7.33301 -78.999 -22s-38 -30.334 -50 -47.001v-273h-75v518h-70v61z" />
    <glyph glyph-name="Itilde" unicode="&#x128;" horiz-adv-x="261" 
d="M171 0h-81v700h81v-700zM-22 793c7.33301 17.333 18.666 32.499 33.999 45.499s33 19.5 53 19.5c12 0 23.5 -2 34.5 -6s21.833 -8.16699 32.5 -12.5l31.5 -12.5c10.333 -4 20.5 -6 30.5 -6c10.667 0 19.834 4.16699 27.501 12.5s13.5 17.5 17.5 27.5l44 -28
c-6.66699 -19.333 -18 -35.166 -34 -47.499s-34 -18.5 -54 -18.5c-11.333 0 -22.333 2 -33 6l-32 12.5l-31 12.5c-10 4 -20 6 -30 6c-12.667 0 -22.5 -4 -29.5 -12s-13.167 -17.667 -18.5 -29z" />
    <glyph glyph-name="itilde" unicode="&#x129;" horiz-adv-x="225" 
d="M75 400h75v-400h-75v400zM-40 542c7.33301 19.333 18.667 36.334 34 51.001s33 22 53 22c12 0 23.5 -2.16699 34.5 -6.5s21.833 -9.16602 32.5 -14.499s21.167 -10.166 31.5 -14.499s20.5 -6.5 30.5 -6.5c10.667 0 19.834 4.66699 27.501 14s13.5 19.666 17.5 30.999
l44 -31c-6.66699 -21.333 -18 -39 -34 -53s-34 -21 -54 -21c-11.333 0 -22.333 2.16699 -33 6.5s-21.334 9.16602 -32.001 14.499s-21 10.166 -31 14.499s-20 6.5 -30 6.5c-12.667 0 -22.5 -4.33301 -29.5 -13s-13.167 -19.667 -18.5 -33z" />
    <glyph glyph-name="Imacron" unicode="&#x12a;" horiz-adv-x="261" 
d="M171 0h-81v700h81v-700zM-11 826h283v-55h-283v55z" />
    <glyph glyph-name="imacron" unicode="&#x12b;" horiz-adv-x="225" 
d="M75 400h75v-400h-75v400zM-29 579h283v-61h-283v61z" />
    <glyph glyph-name="Ibreve" unicode="&#x12c;" horiz-adv-x="261" 
d="M171 0h-81v700h81v-700zM130 768c-16.667 0 -33.001 2.5 -49.001 7.5s-30.5 12 -43.5 21s-23.833 20 -32.5 33s-13.667 27.5 -15 43.5h63c4 -16 13.833 -28.167 29.5 -36.5s31.5 -12.5 47.5 -12.5c16.667 0 32.834 4.16699 48.501 12.5s25.5 20.5 29.5 36.5h63
c-1.33301 -16 -6.33301 -30.5 -15 -43.5s-19.5 -24 -32.5 -33s-27.667 -16 -44 -21s-32.833 -7.5 -49.5 -7.5z" />
    <glyph glyph-name="ibreve" unicode="&#x12d;" horiz-adv-x="225" 
d="M75 400h75v-400h-75v400zM112 515c-16.667 0 -33.001 2.66699 -49.001 8s-30.5 13 -43.5 23s-23.833 22.167 -32.5 36.5s-13.667 30.5 -15 48.5h63c4 -17.333 13.833 -30.666 29.5 -39.999s31.5 -14 47.5 -14c16.667 0 32.834 4.66699 48.501 14s25.5 22.666 29.5 39.999
h63c-1.33301 -18 -6.33301 -34.167 -15 -48.5s-19.5 -26.5 -32.5 -36.5s-27.667 -17.667 -44 -23s-32.833 -8 -49.5 -8z" />
    <glyph glyph-name="Iogonek" unicode="&#x12e;" horiz-adv-x="261" 
d="M90 700l81.001 -0.00195312v-700h-20c-19.333 -14 -36.166 -29.5 -50.499 -46.5s-21.5 -35.5 -21.5 -55.5c0 -16.667 5.66699 -27.667 17 -33s26.666 -8 45.999 -8c8.66699 0 17.167 0.666992 25.5 2s16.166 3 23.499 5v-60c-20 -6.66699 -42.333 -10 -67 -10
c-33.333 0 -60.5 8 -81.5 24s-31.5 38.667 -31.5 68c0 12.667 2.33301 24.834 7 36.501s10.667 22.334 18 32.001s15.833 18.5 25.5 26.5s19.167 15 28.5 21v698z" />
    <glyph glyph-name="iogonek" unicode="&#x12f;" horiz-adv-x="225" 
d="M75 400h75.001v-400h-11c-19.333 -14 -36.166 -29.5 -50.499 -46.5s-21.5 -35.5 -21.5 -55.5c0 -16.667 5.66699 -27.667 17 -33s26.666 -8 45.999 -8c8.66699 0 17.167 0.666992 25.5 2s16.166 3 23.499 5v-60c-20 -6.66699 -42.333 -10 -67 -10
c-33.333 0 -60.5 8 -81.5 24s-31.5 38.667 -31.5 68c0 25.333 8 47.833 24 67.5s33.333 35.167 52 46.5v400zM62.001 559c0 14 4.66699 25.833 14 35.5s21.333 14.5 36 14.5c14 0 26 -4.83301 36 -14.5s15 -21.5 15 -35.5s-5 -25.833 -15 -35.5s-22 -14.5 -36 -14.5
c-14.667 0 -26.667 4.83301 -36 14.5s-14 21.5 -14 35.5z" />
    <glyph glyph-name="Idotaccent" unicode="&#x130;" horiz-adv-x="261" 
d="M171 0h-81v700h81v-700zM81 808c0 12.667 4.66699 23.334 14 32.001s21 13 35 13s25.833 -4.33301 35.5 -13s14.5 -19.334 14.5 -32.001s-4.83301 -23.334 -14.5 -32.001s-21.5 -13 -35.5 -13s-25.667 4.33301 -35 13s-14 19.334 -14 32.001z" />
    <glyph glyph-name="dotlessi" unicode="&#x131;" horiz-adv-x="225" 
d="M75 400h75v-400h-75v400z" />
    <glyph glyph-name="IJ" unicode="&#x132;" horiz-adv-x="782" 
d="M171 0h-81v700h81v-700zM619 700l81.002 0.00195312v-499c0 -30.667 -5.33301 -58.834 -16 -84.501s-25.667 -47.834 -45 -66.501s-42.5 -33.167 -69.5 -43.5s-57.167 -15.5 -90.5 -15.5c-26.667 0 -52.334 3.83301 -77.001 11.5s-46.834 19 -66.501 34
s-36 33.333 -49 55s-21.5 46.167 -25.5 73.5h81c7.33301 -32.667 23 -57 47 -73s54 -24 90 -24c44 0 78.333 11.167 103 33.5s37 55.5 37 99.5v499z" />
    <glyph glyph-name="ij" unicode="&#x133;" horiz-adv-x="450" 
d="M75 400h75v-400h-75v400zM62 559c0 14 4.66699 25.833 14 35.5s21.333 14.5 36 14.5c14 0 26 -4.83301 36 -14.5s15 -21.5 15 -35.5s-5 -25.833 -15 -35.5s-22 -14.5 -36 -14.5c-14.667 0 -26.667 4.83301 -36 14.5s-14 21.5 -14 35.5zM375 -90
c0 -55.333 -12.001 -97.5 -36.001 -126.5s-60.667 -43.5 -110 -43.5c-8 0 -16.167 0.5 -24.5 1.5s-16.166 2.5 -23.499 4.5v67c7.33301 -1.33301 13.5 -2.5 18.5 -3.5s11.833 -1.5 20.5 -1.5c28.667 0 49.167 8.66699 61.5 26s18.5 42.333 18.5 75v491h75v-490zM287.999 559
c0 14 4.66699 25.833 14 35.5s21 14.5 35 14.5c14.667 0 26.667 -4.83301 36 -14.5s14 -21.5 14 -35.5c0 -14.667 -4.66699 -26.667 -14 -36s-21.333 -14 -36 -14c-14 0 -25.667 4.66699 -35 14s-14 21.333 -14 36z" />
    <glyph glyph-name="Jcircumflex" unicode="&#x134;" horiz-adv-x="521" 
d="M358 700l81.002 0.00195312v-499c0 -30.667 -5.33301 -58.834 -16 -84.501s-25.667 -47.834 -45 -66.501s-42.5 -33.167 -69.5 -43.5s-57.167 -15.5 -90.5 -15.5c-26.667 0 -52.334 3.83301 -77.001 11.5s-46.834 19 -66.501 34s-36 33.333 -49 55
s-21.5 46.167 -25.5 73.5h81c7.33301 -32.667 23 -57 47 -73s54 -24 90 -24c44 0 78.333 11.167 103 33.5s37 55.5 37 99.5v499zM537.002 795.002l-35 -38l-103 63l-103 -64l-35 39l138 96z" />
    <glyph glyph-name="jcircumflex" unicode="&#x135;" horiz-adv-x="225" 
d="M150 -90c0 -55.333 -12.001 -97.5 -36.001 -126.5s-60.667 -43.5 -110 -43.5c-8 0 -16.167 0.5 -24.5 1.5s-16.166 2.5 -23.499 4.5v67c7.33301 -1.33301 13.5 -2.5 18.5 -3.5s11.833 -1.5 20.5 -1.5c28.667 0 49.167 8.66699 61.5 26s18.5 42.333 18.5 75v491h75v-490z
M250.999 544l-35 -42l-103 70l-103 -71l-35 43l138 107z" />
    <glyph glyph-name="Kcommaaccent" unicode="&#x136;" horiz-adv-x="608" 
d="M215 349l-52 -47v-302h-81v700h81v-302l328 302h104l-327 -301l334 -399h-95zM375 -104l-93 -180l-49 18l66 184z" />
    <glyph glyph-name="kcommaaccent" unicode="&#x137;" horiz-adv-x="439" 
d="M183 197l-38 -33v-164h-75v653h75v-406l181 153h96l-189 -162l198 -238h-86zM290 -104l-93 -180l-49 18l66 184z" />
    <glyph glyph-name="kgreenlandic" unicode="&#x138;" horiz-adv-x="439" 
d="M183 197l-38 -33v-164h-75v400h75v-153l181 153h96l-189 -162l198 -238h-86z" />
    <glyph glyph-name="Lacute" unicode="&#x139;" horiz-adv-x="544" 
d="M163 700v-623h361v-77h-442v700h81zM223 855l-171 -99l-37 34l161 124z" />
    <glyph glyph-name="lacute" unicode="&#x13a;" horiz-adv-x="223" 
d="M149 0h-75v653h75v-653zM215 855l-171 -99l-37 34l161 124z" />
    <glyph glyph-name="Lcommaaccent" unicode="&#x13b;" horiz-adv-x="544" 
d="M163 700v-623h361v-77h-442v700h81zM343 -104l-93 -180l-49 18l66 184z" />
    <glyph glyph-name="lcommaaccent" unicode="&#x13c;" horiz-adv-x="223" 
d="M149 0h-75v653h75v-653zM153 -104l-93 -180l-49 18l66 184z" />
    <glyph glyph-name="Lcaron" unicode="&#x13d;" horiz-adv-x="544" 
d="M163 700v-623h361v-77h-442v700h81zM403 688l-93 -180l-49 18l66 184z" />
    <glyph glyph-name="lcaron" unicode="&#x13e;" horiz-adv-x="339" 
d="M149 0h-75v653h75v-653zM349 688l-93 -180l-49 18l66 184z" />
    <glyph glyph-name="Ldot" unicode="&#x13f;" horiz-adv-x="544" 
d="M163 700v-623h361v-77h-442v700h81zM286 311c0 15.333 5.33301 28.5 16 39.5s23.667 16.5 39 16.5s28.5 -5.5 39.5 -16.5s16.5 -24.167 16.5 -39.5s-5.5 -28.333 -16.5 -39s-24.167 -16 -39.5 -16s-28.333 5.33301 -39 16s-16 23.667 -16 39z" />
    <glyph glyph-name="ldot" unicode="&#x140;" horiz-adv-x="354" 
d="M149 0h-75v653h75v-653zM223 311c0 15.333 5.33301 28.5 16 39.5s23.667 16.5 39 16.5s28.5 -5.5 39.5 -16.5s16.5 -24.167 16.5 -39.5s-5.5 -28.333 -16.5 -39s-24.167 -16 -39.5 -16s-28.333 5.33301 -39 16s-16 23.667 -16 39z" />
    <glyph glyph-name="Lslash" unicode="&#x141;" horiz-adv-x="544" 
d="M0 284l82 47v369h81v-322l203 117l34 -59l-237 -137v-222h361v-77h-442v252l-48 -27z" />
    <glyph glyph-name="lslash" unicode="&#x142;" horiz-adv-x="223" 
d="M149 376l50 29l34 -59l-84 -49v-297h-75v254l-50 -29l-34 59l84 48v321h75v-277z" />
    <glyph glyph-name="Nacute" unicode="&#x143;" horiz-adv-x="740" 
d="M658 -32h-32l-463 574v-542h-81v719h32l463 -572v553h81v-732zM474 855l-171 -99l-37 34l161 124z" />
    <glyph glyph-name="nacute" unicode="&#x144;" horiz-adv-x="512" 
d="M67 400l68.999 0.00292969l6 -54c14 14 32.833 28.167 56.5 42.5s53.5 21.5 89.5 21.5c24 0 45.667 -3.83301 65 -11.5s36 -18.834 50 -33.501s24.833 -32.334 32.5 -53.001s11.5 -44 11.5 -70v-242h-75v230c0 36 -8.33301 63.667 -25 83s-41.667 29 -75 29
c-15.333 0 -29.666 -2.16699 -42.999 -6.5s-25.5 -10 -36.5 -17s-20.667 -14.833 -29 -23.5s-15.5 -17.334 -21.5 -26.001v-269h-75v400zM359.999 611.003l-171 -110l-37 38l161 138z" />
    <glyph glyph-name="Ncommaaccent" unicode="&#x145;" horiz-adv-x="740" 
d="M658 -32h-32l-463 574v-542h-81v719h32l463 -572v553h81v-732zM441 -104l-93 -180l-49 18l66 184z" />
    <glyph glyph-name="ncommaaccent" unicode="&#x146;" horiz-adv-x="512" 
d="M67 400l68.999 0.00292969l6 -54c14 14 32.833 28.167 56.5 42.5s53.5 21.5 89.5 21.5c24 0 45.667 -3.83301 65 -11.5s36 -18.834 50 -33.501s24.833 -32.334 32.5 -53.001s11.5 -44 11.5 -70v-242h-75v230c0 36 -8.33301 63.667 -25 83s-41.667 29 -75 29
c-15.333 0 -29.666 -2.16699 -42.999 -6.5s-25.5 -10 -36.5 -17s-20.667 -14.833 -29 -23.5s-15.5 -17.334 -21.5 -26.001v-269h-75v400zM326.999 -103.997l-93 -180l-49 18l66 184z" />
    <glyph glyph-name="Ncaron" unicode="&#x147;" horiz-adv-x="740" 
d="M658 -32h-32l-463 574v-542h-81v719h32l463 -572v553h81v-732zM370 754l-138 96l35 39l103 -64l103 63l35 -38z" />
    <glyph glyph-name="ncaron" unicode="&#x148;" horiz-adv-x="512" 
d="M67 400l68.999 0.00292969l6 -54c14 14 32.833 28.167 56.5 42.5s53.5 21.5 89.5 21.5c24 0 45.667 -3.83301 65 -11.5s36 -18.834 50 -33.501s24.833 -32.334 32.5 -53.001s11.5 -44 11.5 -70v-242h-75v230c0 36 -8.33301 63.667 -25 83s-41.667 29 -75 29
c-15.333 0 -29.666 -2.16699 -42.999 -6.5s-25.5 -10 -36.5 -17s-20.667 -14.833 -29 -23.5s-15.5 -17.334 -21.5 -26.001v-269h-75v400zM255.999 499.003l-138 107l35 43l103 -71l103 70l35 -42z" />
    <glyph glyph-name="napostrophe" unicode="&#x149;" horiz-adv-x="522" 
d="M77 400l68.999 0.00292969l6 -54c14 14 32.833 28.167 56.5 42.5s53.5 21.5 89.5 21.5c24 0 45.667 -3.83301 65 -11.5s36 -18.834 50 -33.501s24.833 -32.334 32.5 -53.001s11.5 -44 11.5 -70v-242h-75v230c0 36 -8.33301 63.667 -25 83s-41.667 29 -75 29
c-15.333 0 -29.666 -2.16699 -42.999 -6.5s-25.5 -10 -36.5 -17s-20.667 -14.833 -29 -23.5s-15.5 -17.334 -21.5 -26.001v-269h-75v400zM131.999 688.003l-93 -180l-49 18l66 184z" />
    <glyph glyph-name="Eng" unicode="&#x14a;" horiz-adv-x="740" 
d="M577 28l-413.998 514.002v-542h-81v719h32l463 -572v553h81v-750c0 -30.667 -5.33301 -58.834 -16 -84.501s-25.667 -47.834 -45 -66.501s-42.5 -33.167 -69.5 -43.5s-57.167 -15.5 -90.5 -15.5c-26.667 0 -52.334 3.83301 -77.001 11.5s-46.834 19 -66.501 34
s-36 33.333 -49 55s-21.5 46.167 -25.5 73.5h81c7.33301 -32.667 23 -57 47 -73s54 -24 90 -24c44 0 78.333 11.167 103 33.5s37 55.5 37 99.5v78z" />
    <glyph glyph-name="eng" unicode="&#x14b;" horiz-adv-x="512" 
d="M67 400l68.998 0.00292969l6 -54c14 14 32.833 28.167 56.5 42.5s53.5 21.5 89.5 21.5c24 0 45.667 -3.83301 65 -11.5s36 -18.834 50 -33.501s24.833 -32.334 32.5 -53.001s11.5 -44 11.5 -70v-332c0 -55.333 -12 -97.5 -36 -126.5s-60.667 -43.5 -110 -43.5
c-8 0 -16.167 0.5 -24.5 1.5s-16.166 2.5 -23.499 4.5v67c7.33301 -1.33301 13.5 -2.5 18.5 -3.5s11.833 -1.5 20.5 -1.5c28.667 0 49.167 8.66699 61.5 26s18.5 42.333 18.5 75v321c0 36 -8.33301 63.667 -25 83s-41.667 29 -75 29
c-15.333 0 -29.666 -2.16699 -42.999 -6.5s-25.5 -10 -36.5 -17s-20.667 -14.833 -29 -23.5s-15.5 -17.334 -21.5 -26.001v-269h-75v400z" />
    <glyph glyph-name="Omacron" unicode="&#x14c;" horiz-adv-x="807" 
d="M50 350c0 49.333 9.16699 95.833 27.5 139.5s43.5 81.834 75.5 114.501s69.333 58.5 112 77.5s88.667 28.5 138 28.5c48.667 0 94.5 -9.5 137.5 -28.5s80.5 -44.833 112.5 -77.5s57.333 -70.834 76 -114.501s28 -90.167 28 -139.5c0 -50 -9.33301 -96.667 -28 -140
s-44 -81.333 -76 -114s-69.5 -58.334 -112.5 -77.001s-88.833 -28 -137.5 -28c-49.333 0 -95.333 9.33301 -138 28s-80 44.334 -112 77.001s-57.167 70.667 -75.5 114s-27.5 90 -27.5 140zM131 350c0 -40 7.16699 -77.167 21.5 -111.5s33.666 -64.333 57.999 -90
s53 -45.667 86 -60s68.5 -21.5 106.5 -21.5s73.5 7.16699 106.5 21.5s61.833 34.333 86.5 60s44.167 55.667 58.5 90s21.5 71.5 21.5 111.5s-7.16699 77.167 -21.5 111.5s-33.833 64.166 -58.5 89.499s-53.5 45.333 -86.5 60s-68.5 22 -106.5 22s-73.5 -7.33301 -106.5 -22
s-61.667 -34.667 -86 -60s-43.666 -55.166 -57.999 -89.499s-21.5 -71.5 -21.5 -111.5zM262 826h283v-55h-283v55z" />
    <glyph glyph-name="omacron" unicode="&#x14d;" horiz-adv-x="498" 
d="M116 200c0 -21.333 3.33301 -40.666 10 -57.999s16 -32.166 28 -44.499s26 -22 42 -29s33.667 -10.5 53 -10.5c18.667 0 36.167 3.5 52.5 10.5s30.5 16.667 42.5 29s21.333 27.166 28 44.499s10 36.666 10 57.999c0 20.667 -3.33301 39.834 -10 57.501
s-16 32.834 -28 45.501s-26.167 22.5 -42.5 29.5s-33.833 10.5 -52.5 10.5c-19.333 0 -37 -3.5 -53 -10.5s-30 -16.833 -42 -29.5s-21.333 -27.834 -28 -45.501s-10 -36.834 -10 -57.501zM42 200c0 28.667 5.16699 55.834 15.5 81.501s24.833 48 43.5 67s40.5 34 65.5 45
s52.5 16.5 82.5 16.5s57.5 -5.5 82.5 -16.5s46.833 -26 65.5 -45s33.167 -41.333 43.5 -67s15.5 -52.834 15.5 -81.501c0 -29.333 -5.16699 -56.666 -15.5 -81.999s-24.833 -47.333 -43.5 -66s-40.5 -33.5 -65.5 -44.5s-52.5 -16.5 -82.5 -16.5s-57.5 5.5 -82.5 16.5
s-46.833 25.833 -65.5 44.5s-33.167 40.667 -43.5 66s-15.5 52.666 -15.5 81.999zM107 579h283v-61h-283v61z" />
    <glyph glyph-name="Obreve" unicode="&#x14e;" horiz-adv-x="807" 
d="M50 350c0 49.333 9.16699 95.833 27.5 139.5s43.5 81.834 75.5 114.501s69.333 58.5 112 77.5s88.667 28.5 138 28.5c48.667 0 94.5 -9.5 137.5 -28.5s80.5 -44.833 112.5 -77.5s57.333 -70.834 76 -114.501s28 -90.167 28 -139.5c0 -50 -9.33301 -96.667 -28 -140
s-44 -81.333 -76 -114s-69.5 -58.334 -112.5 -77.001s-88.833 -28 -137.5 -28c-49.333 0 -95.333 9.33301 -138 28s-80 44.334 -112 77.001s-57.167 70.667 -75.5 114s-27.5 90 -27.5 140zM131 350c0 -40 7.16699 -77.167 21.5 -111.5s33.666 -64.333 57.999 -90
s53 -45.667 86 -60s68.5 -21.5 106.5 -21.5s73.5 7.16699 106.5 21.5s61.833 34.333 86.5 60s44.167 55.667 58.5 90s21.5 71.5 21.5 111.5s-7.16699 77.167 -21.5 111.5s-33.833 64.166 -58.5 89.499s-53.5 45.333 -86.5 60s-68.5 22 -106.5 22s-73.5 -7.33301 -106.5 -22
s-61.667 -34.667 -86 -60s-43.666 -55.166 -57.999 -89.499s-21.5 -71.5 -21.5 -111.5zM403 768c-16.667 0 -33.001 2.5 -49.001 7.5s-30.5 12 -43.5 21s-23.833 20 -32.5 33s-13.667 27.5 -15 43.5h63c4 -16 13.833 -28.167 29.5 -36.5s31.5 -12.5 47.5 -12.5
c16.667 0 32.834 4.16699 48.501 12.5s25.5 20.5 29.5 36.5h63c-1.33301 -16 -6.33301 -30.5 -15 -43.5s-19.5 -24 -32.5 -33s-27.667 -16 -44 -21s-32.833 -7.5 -49.5 -7.5z" />
    <glyph glyph-name="obreve" unicode="&#x14f;" horiz-adv-x="498" 
d="M116 200c0 -21.333 3.33301 -40.666 10 -57.999s16 -32.166 28 -44.499s26 -22 42 -29s33.667 -10.5 53 -10.5c18.667 0 36.167 3.5 52.5 10.5s30.5 16.667 42.5 29s21.333 27.166 28 44.499s10 36.666 10 57.999c0 20.667 -3.33301 39.834 -10 57.501
s-16 32.834 -28 45.501s-26.167 22.5 -42.5 29.5s-33.833 10.5 -52.5 10.5c-19.333 0 -37 -3.5 -53 -10.5s-30 -16.833 -42 -29.5s-21.333 -27.834 -28 -45.501s-10 -36.834 -10 -57.501zM42 200c0 28.667 5.16699 55.834 15.5 81.501s24.833 48 43.5 67s40.5 34 65.5 45
s52.5 16.5 82.5 16.5s57.5 -5.5 82.5 -16.5s46.833 -26 65.5 -45s33.167 -41.333 43.5 -67s15.5 -52.834 15.5 -81.501c0 -29.333 -5.16699 -56.666 -15.5 -81.999s-24.833 -47.333 -43.5 -66s-40.5 -33.5 -65.5 -44.5s-52.5 -16.5 -82.5 -16.5s-57.5 5.5 -82.5 16.5
s-46.833 25.833 -65.5 44.5s-33.167 40.667 -43.5 66s-15.5 52.666 -15.5 81.999zM248 515c-16.667 0 -33.001 2.66699 -49.001 8s-30.5 13 -43.5 23s-23.833 22.167 -32.5 36.5s-13.667 30.5 -15 48.5h63c4 -17.333 13.833 -30.666 29.5 -39.999s31.5 -14 47.5 -14
c16.667 0 32.834 4.66699 48.501 14s25.5 22.666 29.5 39.999h63c-1.33301 -18 -6.33301 -34.167 -15 -48.5s-19.5 -26.5 -32.5 -36.5s-27.667 -17.667 -44 -23s-32.833 -8 -49.5 -8z" />
    <glyph glyph-name="Ohungarumlaut" unicode="&#x150;" horiz-adv-x="807" 
d="M50 350c0 49.333 9.16699 95.833 27.5 139.5s43.5 81.834 75.5 114.501s69.333 58.5 112 77.5s88.667 28.5 138 28.5c48.667 0 94.5 -9.5 137.5 -28.5s80.5 -44.833 112.5 -77.5s57.333 -70.834 76 -114.501s28 -90.167 28 -139.5c0 -50 -9.33301 -96.667 -28 -140
s-44 -81.333 -76 -114s-69.5 -58.334 -112.5 -77.001s-88.833 -28 -137.5 -28c-49.333 0 -95.333 9.33301 -138 28s-80 44.334 -112 77.001s-57.167 70.667 -75.5 114s-27.5 90 -27.5 140zM131 350c0 -40 7.16699 -77.167 21.5 -111.5s33.666 -64.333 57.999 -90
s53 -45.667 86 -60s68.5 -21.5 106.5 -21.5s73.5 7.16699 106.5 21.5s61.833 34.333 86.5 60s44.167 55.667 58.5 90s21.5 71.5 21.5 111.5s-7.16699 77.167 -21.5 111.5s-33.833 64.166 -58.5 89.499s-53.5 45.333 -86.5 60s-68.5 22 -106.5 22s-73.5 -7.33301 -106.5 -22
s-61.667 -34.667 -86 -60s-43.666 -55.166 -57.999 -89.499s-21.5 -71.5 -21.5 -111.5zM331 759l-52 25l78 146l72 -24zM509 759l-52 25l77 146l73 -24z" />
    <glyph glyph-name="ohungarumlaut" unicode="&#x151;" horiz-adv-x="498" 
d="M116 200c0 -21.333 3.33301 -40.666 10 -57.999s16 -32.166 28 -44.499s26 -22 42 -29s33.667 -10.5 53 -10.5c18.667 0 36.167 3.5 52.5 10.5s30.5 16.667 42.5 29s21.333 27.166 28 44.499s10 36.666 10 57.999c0 20.667 -3.33301 39.834 -10 57.501
s-16 32.834 -28 45.501s-26.167 22.5 -42.5 29.5s-33.833 10.5 -52.5 10.5c-19.333 0 -37 -3.5 -53 -10.5s-30 -16.833 -42 -29.5s-21.333 -27.834 -28 -45.501s-10 -36.834 -10 -57.501zM42 200c0 28.667 5.16699 55.834 15.5 81.501s24.833 48 43.5 67s40.5 34 65.5 45
s52.5 16.5 82.5 16.5s57.5 -5.5 82.5 -16.5s46.833 -26 65.5 -45s33.167 -41.333 43.5 -67s15.5 -52.834 15.5 -81.501c0 -29.333 -5.16699 -56.666 -15.5 -81.999s-24.833 -47.333 -43.5 -66s-40.5 -33.5 -65.5 -44.5s-52.5 -16.5 -82.5 -16.5s-57.5 5.5 -82.5 16.5
s-46.833 25.833 -65.5 44.5s-33.167 40.667 -43.5 66s-15.5 52.666 -15.5 81.999zM177 504l-52 28l78 163l72 -27zM355 504l-52 28l77 163l73 -27z" />
    <glyph glyph-name="OE" unicode="&#x152;" horiz-adv-x="1184" 
d="M757 623v-215.002h338v-77h-338v-254h369v-77h-450v121c-32.667 -40 -72.5 -71.667 -119.5 -95s-98.167 -35 -153.5 -35c-49.333 0 -95.333 9.33301 -138 28s-80 44.334 -112 77.001s-57.167 70.667 -75.5 114s-27.5 90 -27.5 140c0 49.333 9.16699 95.833 27.5 139.5
s43.5 81.834 75.5 114.501s69.333 58.5 112 77.5s88.667 28.5 138 28.5c55.333 0 106.5 -11.833 153.5 -35.5s86.833 -55.5 119.5 -95.5v121h450v-77h-369zM131 349.998c0 -40 7.16699 -77.167 21.5 -111.5s33.666 -64.333 57.999 -90s53 -45.667 86 -60
s68.5 -21.5 106.5 -21.5s73.5 7.16699 106.5 21.5s61.833 34.333 86.5 60s44.167 55.667 58.5 90s21.5 71.5 21.5 111.5s-7.16699 77.167 -21.5 111.5s-33.833 64.166 -58.5 89.499s-53.5 45.333 -86.5 60s-68.5 22 -106.5 22s-73.5 -7.33301 -106.5 -22
s-61.667 -34.667 -86 -60s-43.666 -55.166 -57.999 -89.499s-21.5 -71.5 -21.5 -111.5z" />
    <glyph glyph-name="oe" unicode="&#x153;" horiz-adv-x="827" 
d="M455 173c3.33301 -37.333 16.833 -66.3301 40.5 -86.9971s56.167 -31 97.5 -31c31.333 0 56.333 6.5 75 19.5s31 29.167 37 48.5h72c-9.33301 -38.667 -30 -70.334 -62 -95.001s-73 -37 -123 -37c-38.667 0 -72.667 8.5 -102 25.5s-53 38.833 -71 65.5
c-18.667 -26.667 -42.667 -48.5 -72 -65.5s-62 -25.5 -98 -25.5c-30 0 -57.5 5.5 -82.5 16.5s-46.833 25.833 -65.5 44.5s-33.167 40.667 -43.5 66s-15.5 52.666 -15.5 81.999c0 28.667 5.16699 55.834 15.5 81.501s24.833 48 43.5 67s40.5 34 65.5 45s52.5 16.5 82.5 16.5
c36 0 68.667 -8.66699 98 -26s53.333 -39.333 72 -66c18 26.667 41.5 48.667 70.5 66s61.833 26 98.5 26c30 0 57.167 -5.5 81.5 -16.5s45 -25.833 62 -44.5s30.167 -39.834 39.5 -63.501s14 -47.834 14 -72.501v-20.5c0 -7.66699 -0.666992 -14.167 -2 -19.5h-328z
M116 200.003c0 -21.333 3.33301 -40.666 10 -57.999s16 -32.166 28 -44.499s26 -22 42 -29s33.667 -10.5 53 -10.5c18.667 0 36.167 3.5 52.5 10.5s30.5 16.667 42.5 29s21.333 27.166 28 44.499s10 36.666 10 57.999c0 20.667 -3.33301 39.834 -10 57.501
s-16 32.834 -28 45.501s-26.167 22.5 -42.5 29.5s-33.833 10.5 -52.5 10.5c-19.333 0 -37 -3.5 -53 -10.5s-30 -16.833 -42 -29.5s-21.333 -27.834 -28 -45.501s-10 -36.834 -10 -57.501zM591 346.003c-37.333 0 -67.499 -10.667 -90.499 -32s-37.167 -49 -42.5 -83h255
c-0.666992 14.667 -3.83398 29 -9.50098 43s-13.667 26.333 -24 37s-23 19.167 -38 25.5s-31.833 9.5 -50.5 9.5z" />
    <glyph glyph-name="Racute" unicode="&#x154;" horiz-adv-x="626" 
d="M163 0h-81.001v700h261c32.667 0 63.5 -3.5 92.5 -10.5s54.333 -18.667 76 -35s38.834 -37.5 51.501 -63.5s19 -58 19 -96c0 -32 -5 -59.667 -15 -83s-23.833 -42.833 -41.5 -58.5s-38.167 -27.667 -61.5 -36s-48.333 -13.5 -75 -15.5l205 -302h-88l-205 298h-138v-298z
M344.999 375c21.333 0 41.499 1.83301 60.499 5.5s35.5 10.167 49.5 19.5s25.167 21.833 33.5 37.5s12.5 35.5 12.5 59.5s-4 44 -12 60s-19.167 28.833 -33.5 38.5s-31.166 16.667 -50.499 21s-40 6.5 -62 6.5h-180v-248h182zM416.998 855l-171 -99l-37 34l161 124z" />
    <glyph glyph-name="racute" unicode="&#x155;" horiz-adv-x="321" 
d="M67 400l68 -0.00195312l7 -55c6 6 12.833 12.5 20.5 19.5s16.667 13.5 27 19.5s22.666 11.167 36.999 15.5s30.833 6.5 49.5 6.5c5.33301 0 10.833 -0.166992 16.5 -0.5s11.167 -1.16602 16.5 -2.49902v-67c-9.33301 2 -18.666 3 -27.999 3
c-17.333 0 -33.333 -2.16699 -48 -6.5s-27.667 -10 -39 -17s-21.333 -14.667 -30 -23s-16 -16.166 -22 -23.499v-269h-75v400zM274 610.998l-171 -110l-37 38l161 138z" />
    <glyph glyph-name="Rcommaaccent" unicode="&#x156;" horiz-adv-x="626" 
d="M163 0h-81.001v700h261c32.667 0 63.5 -3.5 92.5 -10.5s54.333 -18.667 76 -35s38.834 -37.5 51.501 -63.5s19 -58 19 -96c0 -32 -5 -59.667 -15 -83s-23.833 -42.833 -41.5 -58.5s-38.167 -27.667 -61.5 -36s-48.333 -13.5 -75 -15.5l205 -302h-88l-205 298h-138v-298z
M344.999 375c21.333 0 41.499 1.83301 60.499 5.5s35.5 10.167 49.5 19.5s25.167 21.833 33.5 37.5s12.5 35.5 12.5 59.5s-4 44 -12 60s-19.167 28.833 -33.5 38.5s-31.166 16.667 -50.499 21s-40 6.5 -62 6.5h-180v-248h182zM383.998 -104l-93 -180l-49 18l66 184z" />
    <glyph glyph-name="rcommaaccent" unicode="&#x157;" horiz-adv-x="321" 
d="M67 400l68 -0.00195312l7 -55c6 6 12.833 12.5 20.5 19.5s16.667 13.5 27 19.5s22.666 11.167 36.999 15.5s30.833 6.5 49.5 6.5c5.33301 0 10.833 -0.166992 16.5 -0.5s11.167 -1.16602 16.5 -2.49902v-67c-9.33301 2 -18.666 3 -27.999 3
c-17.333 0 -33.333 -2.16699 -48 -6.5s-27.667 -10 -39 -17s-21.333 -14.667 -30 -23s-16 -16.166 -22 -23.499v-269h-75v400zM151 -104.002l-93 -180l-49 18l66 184z" />
    <glyph glyph-name="Rcaron" unicode="&#x158;" horiz-adv-x="626" 
d="M163 0h-81.001v700h261c32.667 0 63.5 -3.5 92.5 -10.5s54.333 -18.667 76 -35s38.834 -37.5 51.501 -63.5s19 -58 19 -96c0 -32 -5 -59.667 -15 -83s-23.833 -42.833 -41.5 -58.5s-38.167 -27.667 -61.5 -36s-48.333 -13.5 -75 -15.5l205 -302h-88l-205 298h-138v-298z
M344.999 375c21.333 0 41.499 1.83301 60.499 5.5s35.5 10.167 49.5 19.5s25.167 21.833 33.5 37.5s12.5 35.5 12.5 59.5s-4 44 -12 60s-19.167 28.833 -33.5 38.5s-31.166 16.667 -50.499 21s-40 6.5 -62 6.5h-180v-248h182zM312.998 754l-138 96l35 39l103 -64l103 63
l35 -38z" />
    <glyph glyph-name="rcaron" unicode="&#x159;" horiz-adv-x="321" 
d="M67 400l68 -0.00195312l7 -55c6 6 12.833 12.5 20.5 19.5s16.667 13.5 27 19.5s22.666 11.167 36.999 15.5s30.833 6.5 49.5 6.5c5.33301 0 10.833 -0.166992 16.5 -0.5s11.167 -1.16602 16.5 -2.49902v-67c-9.33301 2 -18.666 3 -27.999 3
c-17.333 0 -33.333 -2.16699 -48 -6.5s-27.667 -10 -39 -17s-21.333 -14.667 -30 -23s-16 -16.166 -22 -23.499v-269h-75v400zM190 498.998l-138 107l35 43l103 -71l103 70l35 -42z" />
    <glyph glyph-name="Sacute" unicode="&#x15a;" horiz-adv-x="554" 
d="M283 66c18.667 0 37 2.49805 55 7.49805s34 12.333 48 22s25.167 21.667 33.5 36s12.5 31.166 12.5 50.499c0 20 -4.5 37.167 -13.5 51.5s-21.667 27 -38 38s-35.833 20.833 -58.5 29.5l-74 27c-29.333 10 -56.333 20.5 -81 31.5s-46 24 -64 39s-32 33 -42 54
s-15 46.5 -15 76.5c0 22 4.5 43.833 13.5 65.5s22.667 41 41 58s41.833 30.833 70.5 41.5s62.667 16 102 16c28.667 0 55.834 -4 81.501 -12s48.5 -19.5 68.5 -34.5s36.833 -33.167 50.5 -54.5s23.167 -45.333 28.5 -72h-80c-6.66699 30 -23.334 53.833 -50.001 71.5
s-59.667 26.5 -99 26.5c-25.333 0 -47.166 -3.16699 -65.499 -9.5s-33.5 -14.5 -45.5 -24.5s-21 -21.333 -27 -34s-9 -25 -9 -37c0 -19.333 3.83301 -35.5 11.5 -48.5s18.334 -24.333 32.001 -34s29.834 -18.167 48.501 -25.5s39 -14.666 61 -21.999
c34.667 -12 66.167 -24.167 94.5 -36.5s52.833 -26.666 73.5 -42.999s36.667 -35.333 48 -57s17 -47.5 17 -77.5c0 -31.333 -6.33301 -59.166 -19 -83.499s-29.834 -44.833 -51.501 -61.5s-46.334 -29.167 -74.001 -37.5s-56.5 -12.5 -86.5 -12.5
c-33.333 0 -64 4.16699 -92 12.5s-52.5 20 -73.5 35s-38.333 33.167 -52 54.5s-22.834 45.333 -27.501 72h80c7.33301 -32 25 -56.5 53 -73.5s66 -25.5 114 -25.5zM381 854.998l-171 -99l-37 34l161 124z" />
    <glyph glyph-name="sacute" unicode="&#x15b;" horiz-adv-x="380" 
d="M189 52c22.667 0 42.165 4.5 58.498 13.5s24.5 23.167 24.5 42.5c0 10.667 -2.5 19.5 -7.5 26.5s-12 13.167 -21 18.5s-19.5 9.83301 -31.5 13.5s-25.333 7.16699 -40 10.5c-17.333 4 -33.833 9.16699 -49.5 15.5s-29.334 14.166 -41.001 23.499s-21 20.666 -28 33.999
s-10.5 29.333 -10.5 48c0 14.667 3 28.834 9 42.501s15 25.667 27 36s26.833 18.5 44.5 24.5s37.834 9 60.501 9s42.834 -3.16699 60.501 -9.5s32.834 -14.666 45.501 -24.999s22.667 -22 30 -35s12.333 -26.5 15 -40.5h-70c-3.33301 12 -11 23.167 -23 33.5
s-30.667 15.5 -56 15.5c-23.333 0 -41.333 -5 -54 -15s-19 -22.667 -19 -38c0 -18 8 -31.333 24 -40s38.333 -16.667 67 -24c17.333 -4 34.333 -9.16699 51 -15.5s31.5 -14.333 44.5 -24s23.333 -21.334 31 -35.001s11.5 -30.5 11.5 -50.5c0 -19.333 -4 -36.166 -12 -50.499
s-19 -26.333 -33 -36s-30.167 -17 -48.5 -22s-37.833 -7.5 -58.5 -7.5c-44 0 -79.5 10.333 -106.5 31s-43.5 47 -49.5 79h68c3.33301 -12.667 12 -24 26 -34s34.333 -15 61 -15zM293.998 611l-171 -110l-37 38l161 138z" />
    <glyph glyph-name="Scircumflex" unicode="&#x15c;" horiz-adv-x="554" 
d="M283 66c18.667 0 37 2.49805 55 7.49805s34 12.333 48 22s25.167 21.667 33.5 36s12.5 31.166 12.5 50.499c0 20 -4.5 37.167 -13.5 51.5s-21.667 27 -38 38s-35.833 20.833 -58.5 29.5l-74 27c-29.333 10 -56.333 20.5 -81 31.5s-46 24 -64 39s-32 33 -42 54
s-15 46.5 -15 76.5c0 22 4.5 43.833 13.5 65.5s22.667 41 41 58s41.833 30.833 70.5 41.5s62.667 16 102 16c28.667 0 55.834 -4 81.501 -12s48.5 -19.5 68.5 -34.5s36.833 -33.167 50.5 -54.5s23.167 -45.333 28.5 -72h-80c-6.66699 30 -23.334 53.833 -50.001 71.5
s-59.667 26.5 -99 26.5c-25.333 0 -47.166 -3.16699 -65.499 -9.5s-33.5 -14.5 -45.5 -24.5s-21 -21.333 -27 -34s-9 -25 -9 -37c0 -19.333 3.83301 -35.5 11.5 -48.5s18.334 -24.333 32.001 -34s29.834 -18.167 48.501 -25.5s39 -14.666 61 -21.999
c34.667 -12 66.167 -24.167 94.5 -36.5s52.833 -26.666 73.5 -42.999s36.667 -35.333 48 -57s17 -47.5 17 -77.5c0 -31.333 -6.33301 -59.166 -19 -83.499s-29.834 -44.833 -51.501 -61.5s-46.334 -29.167 -74.001 -37.5s-56.5 -12.5 -86.5 -12.5
c-33.333 0 -64 4.16699 -92 12.5s-52.5 20 -73.5 35s-38.333 33.167 -52 54.5s-22.834 45.333 -27.501 72h80c7.33301 -32 25 -56.5 53 -73.5s66 -25.5 114 -25.5zM415 794.998l-35 -38l-103 63l-103 -64l-35 39l138 96z" />
    <glyph glyph-name="scircumflex" unicode="&#x15d;" horiz-adv-x="380" 
d="M189 52c22.667 0 42.165 4.5 58.498 13.5s24.5 23.167 24.5 42.5c0 10.667 -2.5 19.5 -7.5 26.5s-12 13.167 -21 18.5s-19.5 9.83301 -31.5 13.5s-25.333 7.16699 -40 10.5c-17.333 4 -33.833 9.16699 -49.5 15.5s-29.334 14.166 -41.001 23.499s-21 20.666 -28 33.999
s-10.5 29.333 -10.5 48c0 14.667 3 28.834 9 42.501s15 25.667 27 36s26.833 18.5 44.5 24.5s37.834 9 60.501 9s42.834 -3.16699 60.501 -9.5s32.834 -14.666 45.501 -24.999s22.667 -22 30 -35s12.333 -26.5 15 -40.5h-70c-3.33301 12 -11 23.167 -23 33.5
s-30.667 15.5 -56 15.5c-23.333 0 -41.333 -5 -54 -15s-19 -22.667 -19 -38c0 -18 8 -31.333 24 -40s38.333 -16.667 67 -24c17.333 -4 34.333 -9.16699 51 -15.5s31.5 -14.333 44.5 -24s23.333 -21.334 31 -35.001s11.5 -30.5 11.5 -50.5c0 -19.333 -4 -36.166 -12 -50.499
s-19 -26.333 -33 -36s-30.167 -17 -48.5 -22s-37.833 -7.5 -58.5 -7.5c-44 0 -79.5 10.333 -106.5 31s-43.5 47 -49.5 79h68c3.33301 -12.667 12 -24 26 -34s34.333 -15 61 -15zM327.998 544l-35 -42l-103 70l-103 -71l-35 43l138 107z" />
    <glyph glyph-name="Scedilla" unicode="&#x15e;" horiz-adv-x="554" 
d="M283 66c18.667 0 37 2.49805 55 7.49805s34 12.333 48 22s25.167 21.667 33.5 36s12.5 31.166 12.5 50.499c0 20 -4.5 37.167 -13.5 51.5s-21.667 27 -38 38s-35.833 20.833 -58.5 29.5l-74 27c-29.333 10 -56.333 20.5 -81 31.5s-46 24 -64 39s-32 33 -42 54
s-15 46.5 -15 76.5c0 22 4.5 43.833 13.5 65.5s22.667 41 41 58s41.833 30.833 70.5 41.5s62.667 16 102 16c28.667 0 55.834 -4 81.501 -12s48.5 -19.5 68.5 -34.5s36.833 -33.167 50.5 -54.5s23.167 -45.333 28.5 -72h-80c-6.66699 30 -23.334 53.833 -50.001 71.5
s-59.667 26.5 -99 26.5c-25.333 0 -47.166 -3.16699 -65.499 -9.5s-33.5 -14.5 -45.5 -24.5s-21 -21.333 -27 -34s-9 -25 -9 -37c0 -19.333 3.83301 -35.5 11.5 -48.5s18.334 -24.333 32.001 -34s29.834 -18.167 48.501 -25.5s39 -14.666 61 -21.999
c34.667 -12 66.167 -24.167 94.5 -36.5s52.833 -26.666 73.5 -42.999s36.667 -35.333 48 -57s17 -47.5 17 -77.5c0 -31.333 -6.33301 -59.166 -19 -83.499s-29.834 -44.833 -51.501 -61.5s-46.334 -29.167 -74.001 -37.5s-56.5 -12.5 -86.5 -12.5
c-33.333 0 -64 4.16699 -92 12.5s-52.5 20 -73.5 35s-38.333 33.167 -52 54.5s-22.834 45.333 -27.501 72h80c7.33301 -32 25 -56.5 53 -73.5s66 -25.5 114 -25.5zM209 -239.002l-52 30l81 172l79 -27z" />
    <glyph glyph-name="scedilla" unicode="&#x15f;" horiz-adv-x="380" 
d="M189 52c22.667 0 42.165 4.5 58.498 13.5s24.5 23.167 24.5 42.5c0 10.667 -2.5 19.5 -7.5 26.5s-12 13.167 -21 18.5s-19.5 9.83301 -31.5 13.5s-25.333 7.16699 -40 10.5c-17.333 4 -33.833 9.16699 -49.5 15.5s-29.334 14.166 -41.001 23.499s-21 20.666 -28 33.999
s-10.5 29.333 -10.5 48c0 14.667 3 28.834 9 42.501s15 25.667 27 36s26.833 18.5 44.5 24.5s37.834 9 60.501 9s42.834 -3.16699 60.501 -9.5s32.834 -14.666 45.501 -24.999s22.667 -22 30 -35s12.333 -26.5 15 -40.5h-70c-3.33301 12 -11 23.167 -23 33.5
s-30.667 15.5 -56 15.5c-23.333 0 -41.333 -5 -54 -15s-19 -22.667 -19 -38c0 -18 8 -31.333 24 -40s38.333 -16.667 67 -24c17.333 -4 34.333 -9.16699 51 -15.5s31.5 -14.333 44.5 -24s23.333 -21.334 31 -35.001s11.5 -30.5 11.5 -50.5c0 -19.333 -4 -36.166 -12 -50.499
s-19 -26.333 -33 -36s-30.167 -17 -48.5 -22s-37.833 -7.5 -58.5 -7.5c-44 0 -79.5 10.333 -106.5 31s-43.5 47 -49.5 79h68c3.33301 -12.667 12 -24 26 -34s34.333 -15 61 -15zM131.998 -239l-52 30l81 172l79 -27z" />
    <glyph glyph-name="Scaron" unicode="&#x160;" horiz-adv-x="554" 
d="M283 66c18.667 0 37 2.49805 55 7.49805s34 12.333 48 22s25.167 21.667 33.5 36s12.5 31.166 12.5 50.499c0 20 -4.5 37.167 -13.5 51.5s-21.667 27 -38 38s-35.833 20.833 -58.5 29.5l-74 27c-29.333 10 -56.333 20.5 -81 31.5s-46 24 -64 39s-32 33 -42 54
s-15 46.5 -15 76.5c0 22 4.5 43.833 13.5 65.5s22.667 41 41 58s41.833 30.833 70.5 41.5s62.667 16 102 16c28.667 0 55.834 -4 81.501 -12s48.5 -19.5 68.5 -34.5s36.833 -33.167 50.5 -54.5s23.167 -45.333 28.5 -72h-80c-6.66699 30 -23.334 53.833 -50.001 71.5
s-59.667 26.5 -99 26.5c-25.333 0 -47.166 -3.16699 -65.499 -9.5s-33.5 -14.5 -45.5 -24.5s-21 -21.333 -27 -34s-9 -25 -9 -37c0 -19.333 3.83301 -35.5 11.5 -48.5s18.334 -24.333 32.001 -34s29.834 -18.167 48.501 -25.5s39 -14.666 61 -21.999
c34.667 -12 66.167 -24.167 94.5 -36.5s52.833 -26.666 73.5 -42.999s36.667 -35.333 48 -57s17 -47.5 17 -77.5c0 -31.333 -6.33301 -59.166 -19 -83.499s-29.834 -44.833 -51.501 -61.5s-46.334 -29.167 -74.001 -37.5s-56.5 -12.5 -86.5 -12.5
c-33.333 0 -64 4.16699 -92 12.5s-52.5 20 -73.5 35s-38.333 33.167 -52 54.5s-22.834 45.333 -27.501 72h80c7.33301 -32 25 -56.5 53 -73.5s66 -25.5 114 -25.5zM277 753.998l-138 96l35 39l103 -64l103 63l35 -38z" />
    <glyph glyph-name="scaron" unicode="&#x161;" horiz-adv-x="380" 
d="M189 52c22.667 0 42.165 4.5 58.498 13.5s24.5 23.167 24.5 42.5c0 10.667 -2.5 19.5 -7.5 26.5s-12 13.167 -21 18.5s-19.5 9.83301 -31.5 13.5s-25.333 7.16699 -40 10.5c-17.333 4 -33.833 9.16699 -49.5 15.5s-29.334 14.166 -41.001 23.499s-21 20.666 -28 33.999
s-10.5 29.333 -10.5 48c0 14.667 3 28.834 9 42.501s15 25.667 27 36s26.833 18.5 44.5 24.5s37.834 9 60.501 9s42.834 -3.16699 60.501 -9.5s32.834 -14.666 45.501 -24.999s22.667 -22 30 -35s12.333 -26.5 15 -40.5h-70c-3.33301 12 -11 23.167 -23 33.5
s-30.667 15.5 -56 15.5c-23.333 0 -41.333 -5 -54 -15s-19 -22.667 -19 -38c0 -18 8 -31.333 24 -40s38.333 -16.667 67 -24c17.333 -4 34.333 -9.16699 51 -15.5s31.5 -14.333 44.5 -24s23.333 -21.334 31 -35.001s11.5 -30.5 11.5 -50.5c0 -19.333 -4 -36.166 -12 -50.499
s-19 -26.333 -33 -36s-30.167 -17 -48.5 -22s-37.833 -7.5 -58.5 -7.5c-44 0 -79.5 10.333 -106.5 31s-43.5 47 -49.5 79h68c3.33301 -12.667 12 -24 26 -34s34.333 -15 61 -15zM189.998 499l-138 107l35 43l103 -71l103 70l35 -42z" />
    <glyph glyph-name="Tcommaaccent" unicode="&#x162;" horiz-adv-x="561" 
d="M541 623h-220v-623h-81v623h-220v77h521v-77zM331 -104l-93 -180l-49 18l66 184z" />
    <glyph glyph-name="tcommaaccent" unicode="&#x163;" horiz-adv-x="331" 
d="M14 400h83.999l14 142h60v-142h124v-68h-124v-202c0 -29.333 5.83301 -48.5 17.5 -57.5s28.834 -13.5 51.501 -13.5c22 0 42 2 60 6v-64c-22 -6.66699 -46.333 -10 -73 -10c-18 0 -35 2.16699 -51 6.5s-29.833 11.666 -41.5 21.999s-21 23.833 -28 40.5
s-10.5 37.334 -10.5 62.001v210h-83v68zM235.999 -104l-93 -180l-49 18l66 184z" />
    <glyph glyph-name="Tcaron" unicode="&#x164;" horiz-adv-x="561" 
d="M541 623h-220v-623h-81v623h-220v77h521v-77zM280 754l-138 96l35 39l103 -64l103 63l35 -38z" />
    <glyph glyph-name="tcaron" unicode="&#x165;" horiz-adv-x="458" 
d="M14 400h83.999l14 142h60v-142h124v-68h-124v-202c0 -29.333 5.83301 -48.5 17.5 -57.5s28.834 -13.5 51.501 -13.5c22 0 42 2 60 6v-64c-22 -6.66699 -46.333 -10 -73 -10c-18 0 -35 2.16699 -51 6.5s-29.833 11.666 -41.5 21.999s-21 23.833 -28 40.5
s-10.5 37.334 -10.5 62.001v210h-83v68zM467.999 688l-93 -180l-49 18l66 184z" />
    <glyph glyph-name="Tbar" unicode="&#x166;" horiz-adv-x="561" 
d="M129 355h111v268h-220v77h521v-77h-220v-268h111v-61h-111v-294h-81v294h-111v61z" />
    <glyph glyph-name="tbar" unicode="&#x167;" horiz-adv-x="331" 
d="M14 231h82.999v101h-83v68h84l14 142h60v-142h124v-68h-124v-101h124v-61h-124v-40c0 -29.333 5.83301 -48.5 17.5 -57.5s28.834 -13.5 51.501 -13.5c22 0 42 2 60 6v-64c-22 -6.66699 -46.333 -10 -73 -10c-18 0 -35 2.16699 -51 6.5s-29.833 11.666 -41.5 21.999
s-21 23.833 -28 40.5s-10.5 37.334 -10.5 62.001v48h-83v61z" />
    <glyph glyph-name="Utilde" unicode="&#x168;" horiz-adv-x="712" 
d="M356 68c35.333 0 65.334 5.5 90.001 16.5s44.834 26.5 60.501 46.5s27 43.667 34 71s10.5 57 10.5 89v409h81v-409c0 -43.333 -5.5 -83.166 -16.5 -119.499s-28 -68 -51 -95s-51.833 -48 -86.5 -63s-75.334 -22.5 -122.001 -22.5s-87.334 7.5 -122.001 22.5
s-63.334 36 -86.001 63s-39.667 58.667 -51 95s-17 76.166 -17 119.499v409h81v-409c0 -32 3.5 -61.667 10.5 -89s18.333 -51 34 -71s35.834 -35.5 60.501 -46.5s54.667 -16.5 90 -16.5zM204.001 793c7.33301 17.333 18.666 32.499 33.999 45.499s33 19.5 53 19.5
c12 0 23.5 -2 34.5 -6s21.833 -8.16699 32.5 -12.5l31.5 -12.5c10.333 -4 20.5 -6 30.5 -6c10.667 0 19.834 4.16699 27.501 12.5s13.5 17.5 17.5 27.5l44 -28c-6.66699 -19.333 -18 -35.166 -34 -47.499s-34 -18.5 -54 -18.5c-11.333 0 -22.333 2 -33 6l-32 12.5l-31 12.5
c-10 4 -20 6 -30 6c-12.667 0 -22.5 -4 -29.5 -12s-13.167 -17.667 -18.5 -29z" />
    <glyph glyph-name="utilde" unicode="&#x169;" horiz-adv-x="499" 
d="M357 61c-12.667 -17.333 -30.167 -33.5 -52.5 -48.5s-52.833 -22.5 -91.5 -22.5c-44.667 0 -80.5 13.667 -107.5 41s-40.5 67.333 -40.5 120v249h75v-240c0 -32 6.66699 -56.5 20 -73.5s34 -25.5 62 -25.5c35.333 0 63.833 8 85.5 24s38.167 33.667 49.5 53v262h75v-400
h-70zM97 542c7.33301 19.333 18.667 36.334 34 51.001s33 22 53 22c12 0 23.5 -2.16699 34.5 -6.5s21.833 -9.16602 32.5 -14.499s21.167 -10.166 31.5 -14.499s20.5 -6.5 30.5 -6.5c10.667 0 19.834 4.66699 27.501 14s13.5 19.666 17.5 30.999l44 -31
c-6.66699 -21.333 -18 -39 -34 -53s-34 -21 -54 -21c-11.333 0 -22.333 2.16699 -33 6.5s-21.334 9.16602 -32.001 14.499s-21 10.166 -31 14.499s-20 6.5 -30 6.5c-12.667 0 -22.5 -4.33301 -29.5 -13s-13.167 -19.667 -18.5 -33z" />
    <glyph glyph-name="Umacron" unicode="&#x16a;" horiz-adv-x="712" 
d="M356 68c35.333 0 65.334 5.5 90.001 16.5s44.834 26.5 60.501 46.5s27 43.667 34 71s10.5 57 10.5 89v409h81v-409c0 -43.333 -5.5 -83.166 -16.5 -119.499s-28 -68 -51 -95s-51.833 -48 -86.5 -63s-75.334 -22.5 -122.001 -22.5s-87.334 7.5 -122.001 22.5
s-63.334 36 -86.001 63s-39.667 58.667 -51 95s-17 76.166 -17 119.499v409h81v-409c0 -32 3.5 -61.667 10.5 -89s18.333 -51 34 -71s35.834 -35.5 60.501 -46.5s54.667 -16.5 90 -16.5zM215.001 826h283v-55h-283v55z" />
    <glyph glyph-name="umacron" unicode="&#x16b;" horiz-adv-x="499" 
d="M357 61c-12.667 -17.333 -30.167 -33.5 -52.5 -48.5s-52.833 -22.5 -91.5 -22.5c-44.667 0 -80.5 13.667 -107.5 41s-40.5 67.333 -40.5 120v249h75v-240c0 -32 6.66699 -56.5 20 -73.5s34 -25.5 62 -25.5c35.333 0 63.833 8 85.5 24s38.167 33.667 49.5 53v262h75v-400
h-70zM108 579h283v-61h-283v61z" />
    <glyph glyph-name="Ubreve" unicode="&#x16c;" horiz-adv-x="712" 
d="M356 68c35.333 0 65.334 5.5 90.001 16.5s44.834 26.5 60.501 46.5s27 43.667 34 71s10.5 57 10.5 89v409h81v-409c0 -43.333 -5.5 -83.166 -16.5 -119.499s-28 -68 -51 -95s-51.833 -48 -86.5 -63s-75.334 -22.5 -122.001 -22.5s-87.334 7.5 -122.001 22.5
s-63.334 36 -86.001 63s-39.667 58.667 -51 95s-17 76.166 -17 119.499v409h81v-409c0 -32 3.5 -61.667 10.5 -89s18.333 -51 34 -71s35.834 -35.5 60.501 -46.5s54.667 -16.5 90 -16.5zM356.001 768c-16.667 0 -33.001 2.5 -49.001 7.5s-30.5 12 -43.5 21
s-23.833 20 -32.5 33s-13.667 27.5 -15 43.5h63c4 -16 13.833 -28.167 29.5 -36.5s31.5 -12.5 47.5 -12.5c16.667 0 32.834 4.16699 48.501 12.5s25.5 20.5 29.5 36.5h63c-1.33301 -16 -6.33301 -30.5 -15 -43.5s-19.5 -24 -32.5 -33s-27.667 -16 -44 -21
s-32.833 -7.5 -49.5 -7.5z" />
    <glyph glyph-name="ubreve" unicode="&#x16d;" horiz-adv-x="499" 
d="M357 61c-12.667 -17.333 -30.167 -33.5 -52.5 -48.5s-52.833 -22.5 -91.5 -22.5c-44.667 0 -80.5 13.667 -107.5 41s-40.5 67.333 -40.5 120v249h75v-240c0 -32 6.66699 -56.5 20 -73.5s34 -25.5 62 -25.5c35.333 0 63.833 8 85.5 24s38.167 33.667 49.5 53v262h75v-400
h-70zM249 515c-16.667 0 -33.001 2.66699 -49.001 8s-30.5 13 -43.5 23s-23.833 22.167 -32.5 36.5s-13.667 30.5 -15 48.5h63c4 -17.333 13.833 -30.666 29.5 -39.999s31.5 -14 47.5 -14c16.667 0 32.834 4.66699 48.501 14s25.5 22.666 29.5 39.999h63
c-1.33301 -18 -6.33301 -34.167 -15 -48.5s-19.5 -26.5 -32.5 -36.5s-27.667 -17.667 -44 -23s-32.833 -8 -49.5 -8z" />
    <glyph glyph-name="Uring" unicode="&#x16e;" horiz-adv-x="712" 
d="M356 68c35.333 0 65.334 5.5 90.001 16.5s44.834 26.5 60.501 46.5s27 43.667 34 71s10.5 57 10.5 89v409h81v-409c0 -43.333 -5.5 -83.166 -16.5 -119.499s-28 -68 -51 -95s-51.833 -48 -86.5 -63s-75.334 -22.5 -122.001 -22.5s-87.334 7.5 -122.001 22.5
s-63.334 36 -86.001 63s-39.667 58.667 -51 95s-17 76.166 -17 119.499v409h81v-409c0 -32 3.5 -61.667 10.5 -89s18.333 -51 34 -71s35.834 -35.5 60.501 -46.5s54.667 -16.5 90 -16.5zM356.001 921c12.667 0 24.834 -2.33301 36.501 -7s21.834 -10.834 30.501 -18.501
s15.5 -16.5 20.5 -26.5s7.5 -20.667 7.5 -32s-2.5 -22.166 -7.5 -32.499s-11.833 -19.333 -20.5 -27s-18.834 -13.834 -30.501 -18.501s-23.834 -7 -36.501 -7c-13.333 0 -25.666 2.33301 -36.999 7s-21.333 10.834 -30 18.501s-15.5 16.667 -20.5 27
s-7.5 21.166 -7.5 32.499s2.5 22 7.5 32s11.833 18.833 20.5 26.5s18.667 13.834 30 18.501s23.666 7 36.999 7zM356.001 881c-13.333 0 -24.833 -4.33301 -34.5 -13s-14.5 -19 -14.5 -31c0 -12.667 4.83301 -23.334 14.5 -32.001s21.167 -13 34.5 -13
s24.833 4.33301 34.5 13s14.5 19.334 14.5 32.001c0 12 -4.83301 22.333 -14.5 31s-21.167 13 -34.5 13z" />
    <glyph glyph-name="uring" unicode="&#x16f;" horiz-adv-x="499" 
d="M357 61c-12.667 -17.333 -30.167 -33.5 -52.5 -48.5s-52.833 -22.5 -91.5 -22.5c-44.667 0 -80.5 13.667 -107.5 41s-40.5 67.333 -40.5 120v249h75v-240c0 -32 6.66699 -56.5 20 -73.5s34 -25.5 62 -25.5c35.333 0 63.833 8 85.5 24s38.167 33.667 49.5 53v262h75v-400
h-70zM249 684c12.667 0 24.834 -2.5 36.501 -7.5s21.834 -11.833 30.501 -20.5s15.5 -18.5 20.5 -29.5s7.5 -22.833 7.5 -35.5s-2.5 -24.667 -7.5 -36s-11.833 -21.333 -20.5 -30s-18.834 -15.5 -30.501 -20.5s-23.834 -7.5 -36.501 -7.5c-13.333 0 -25.666 2.5 -36.999 7.5
s-21.333 11.833 -30 20.5s-15.5 18.667 -20.5 30s-7.5 23.333 -7.5 36s2.5 24.5 7.5 35.5s11.833 20.833 20.5 29.5s18.667 15.5 30 20.5s23.666 7.5 36.999 7.5zM249 640c-13.333 0 -24.833 -4.83301 -34.5 -14.5s-14.5 -21.167 -14.5 -34.5
c0 -14 4.83301 -25.833 14.5 -35.5s21.167 -14.5 34.5 -14.5s24.833 4.83301 34.5 14.5s14.5 21.5 14.5 35.5c0 13.333 -4.83301 24.833 -14.5 34.5s-21.167 14.5 -34.5 14.5z" />
    <glyph glyph-name="Uhungarumlaut" unicode="&#x170;" horiz-adv-x="712" 
d="M356 68c35.333 0 65.334 5.5 90.001 16.5s44.834 26.5 60.501 46.5s27 43.667 34 71s10.5 57 10.5 89v409h81v-409c0 -43.333 -5.5 -83.166 -16.5 -119.499s-28 -68 -51 -95s-51.833 -48 -86.5 -63s-75.334 -22.5 -122.001 -22.5s-87.334 7.5 -122.001 22.5
s-63.334 36 -86.001 63s-39.667 58.667 -51 95s-17 76.166 -17 119.499v409h81v-409c0 -32 3.5 -61.667 10.5 -89s18.333 -51 34 -71s35.834 -35.5 60.501 -46.5s54.667 -16.5 90 -16.5zM264.001 759l-52 25l78 146l72 -24zM442.001 759l-52 25l77 146l73 -24z" />
    <glyph glyph-name="uhungarumlaut" unicode="&#x171;" horiz-adv-x="499" 
d="M357 61c-12.667 -17.333 -30.167 -33.5 -52.5 -48.5s-52.833 -22.5 -91.5 -22.5c-44.667 0 -80.5 13.667 -107.5 41s-40.5 67.333 -40.5 120v249h75v-240c0 -32 6.66699 -56.5 20 -73.5s34 -25.5 62 -25.5c35.333 0 63.833 8 85.5 24s38.167 33.667 49.5 53v262h75v-400
h-70zM167 504l-52 28l78 163l72 -27zM345 504l-52 28l77 163l73 -27z" />
    <glyph glyph-name="Uogonek" unicode="&#x172;" horiz-adv-x="712" 
d="M356 68c35.333 0 65.332 5.49707 89.999 16.4971s44.834 26.5 60.501 46.5s27 43.667 34 71s10.5 57 10.5 89v409h81v-409c0 -39.333 -4.66699 -75.833 -14 -109.5s-23.333 -63.5 -42 -89.5s-42.167 -47.5 -70.5 -64.5s-61.833 -27.833 -100.5 -32.5
c-17.333 -13.333 -32.5 -28.166 -45.5 -44.499s-19.5 -33.833 -19.5 -52.5c0 -16.667 5.66699 -27.667 17 -33s26.666 -8 45.999 -8c8.66699 0 17.167 0.666992 25.5 2s16.166 3 23.499 5v-60c-20 -6.66699 -42.333 -10 -67 -10c-33.333 0 -60.5 8 -81.5 24
s-31.5 38.667 -31.5 68c0 22 6.33301 42.167 19 60.5s27.334 33.5 44.001 45.5c-43.333 2 -81 10.833 -113 26.5s-58.5 36.834 -79.5 63.501s-36.667 57.834 -47 93.501s-15.5 74.167 -15.5 115.5v409h81v-409c0 -32 3.5 -61.667 10.5 -89s18.333 -51 34 -71
s35.834 -35.5 60.501 -46.5s54.667 -16.5 90 -16.5z" />
    <glyph glyph-name="uogonek" unicode="&#x173;" horiz-adv-x="499" 
d="M357 61c-12.667 -17.333 -30.166 -33.502 -52.499 -48.502s-52.833 -22.5 -91.5 -22.5c-44.667 0 -80.5 13.667 -107.5 41s-40.5 67.333 -40.5 120v249h75v-240c0 -32 6.66699 -56.5 20 -73.5s34 -25.5 62 -25.5c35.333 0 63.833 8 85.5 24s38.167 33.667 49.5 53v262h75
v-400h-9c-19.333 -14 -36.166 -29.5 -50.499 -46.5s-21.5 -35.5 -21.5 -55.5c0 -16.667 5.66699 -27.667 17 -33s26.666 -8 45.999 -8c8.66699 0 17.167 0.666992 25.5 2s16.166 3 23.499 5v-60c-20 -6.66699 -42.333 -10 -67 -10c-33.333 0 -60.5 8 -81.5 24
s-31.5 38.667 -31.5 68c0 12.667 2.33301 24.834 7 36.501s10.667 22.334 18 32.001s15.833 18.5 25.5 26.5s19.167 15 28.5 21z" />
    <glyph glyph-name="Wcircumflex" unicode="&#x174;" horiz-adv-x="1012" 
d="M730 154l173 546h85l-237 -719h-36l-209 556l-209 -556h-36l-237 719h85l173 -546l210 572h28zM644 795l-35 -38l-103 63l-103 -64l-35 39l138 96z" />
    <glyph glyph-name="wcircumflex" unicode="&#x175;" horiz-adv-x="593" 
d="M297 273l-108 -289h-28l-149 416h73l92 -277l107 290h25l107 -290l92 277h73l-149 -416h-28zM434 544l-35 -42l-103 70l-103 -71l-35 43l138 107z" />
    <glyph glyph-name="Ycircumflex" unicode="&#x176;" horiz-adv-x="591" 
d="M296 367l199 333h86l-245 -400v-300h-81v300l-245 400h86l199 -333h1zM433 795l-35 -38l-103 63l-103 -64l-35 39l138 96z" />
    <glyph glyph-name="ycircumflex" unicode="&#x177;" horiz-adv-x="423" 
d="M57 -250l120 276l-171 374h76l128 -299l131 299h76l-299 -650h-61zM349 544l-35 -42l-103 70l-103 -71l-35 43l138 107z" />
    <glyph glyph-name="Ydieresis" unicode="&#x178;" horiz-adv-x="591" 
d="M296 367l199 333h86l-245 -400v-300h-81v300l-245 400h86l199 -333h1zM141 806c0 12.667 4.66699 23.167 14 31.5s20.666 12.5 33.999 12.5s24.833 -4.16699 34.5 -12.5s14.5 -18.833 14.5 -31.5c0 -12 -4.83301 -22.167 -14.5 -30.5s-21.167 -12.5 -34.5 -12.5
s-24.666 4.16699 -33.999 12.5s-14 18.5 -14 30.5zM354 806c0 12.667 4.66699 23.167 14 31.5s20.666 12.5 33.999 12.5s24.666 -4.16699 33.999 -12.5s14 -18.833 14 -31.5c0 -12 -4.66699 -22.167 -14 -30.5s-20.666 -12.5 -33.999 -12.5s-24.666 4.16699 -33.999 12.5
s-14 18.5 -14 30.5z" />
    <glyph glyph-name="Zacute" unicode="&#x179;" horiz-adv-x="602" 
d="M24 0v29l422 596h-383v75h515v-24l-426 -601h406v-75h-534zM405 855l-171 -99l-37 34l161 124z" />
    <glyph glyph-name="zacute" unicode="&#x17a;" horiz-adv-x="392" 
d="M41 400h333v-16l-242 -324h229v-60h-343v17l241 323h-218v60zM300 611l-171 -110l-37 38l161 138z" />
    <glyph glyph-name="Zdotaccent" unicode="&#x17b;" horiz-adv-x="602" 
d="M24 0v29l422 596h-383v75h515v-24l-426 -601h406v-75h-534zM252 808c0 12.667 4.66699 23.334 14 32.001s21 13 35 13s25.833 -4.33301 35.5 -13s14.5 -19.334 14.5 -32.001s-4.83301 -23.334 -14.5 -32.001s-21.5 -13 -35.5 -13s-25.667 4.33301 -35 13
s-14 19.334 -14 32.001z" />
    <glyph glyph-name="zdotaccent" unicode="&#x17c;" horiz-adv-x="392" 
d="M41 400h333v-16l-242 -324h229v-60h-343v17l241 323h-218v60zM146 559c0 14 4.66699 25.833 14 35.5s21 14.5 35 14.5s25.833 -4.83301 35.5 -14.5s14.5 -21.5 14.5 -35.5s-4.83301 -25.833 -14.5 -35.5s-21.5 -14.5 -35.5 -14.5s-25.667 4.83301 -35 14.5
s-14 21.5 -14 35.5z" />
    <glyph glyph-name="Zcaron" unicode="&#x17d;" horiz-adv-x="602" 
d="M24 0v29l422 596h-383v75h515v-24l-426 -601h406v-75h-534zM301 754l-138 96l35 39l103 -64l103 63l35 -38z" />
    <glyph glyph-name="zcaron" unicode="&#x17e;" horiz-adv-x="392" 
d="M41 400h333v-16l-242 -324h229v-60h-343v17l241 323h-218v60zM196 499l-138 107l35 43l103 -71l103 70l35 -42z" />
    <glyph glyph-name="longs" unicode="&#x17f;" horiz-adv-x="313" 
d="M93 487c0 56.667 14.334 99.167 43.001 127.5s71.334 42.5 128.001 42.5c9.33301 0 18.666 -0.333008 27.999 -1s17.666 -1.66699 24.999 -3v-68c-7.33301 1.33301 -15 2.33301 -23 3s-16 1 -24 1c-36 0 -62 -8.33301 -78 -25s-24 -43.667 -24 -81v-483h-75v487z" />
    <glyph glyph-name="florin" unicode="&#x192;" 
d="M158 400h98l13 82c10 58 32.5 101.667 67.5 131s80.833 44 137.5 44c9.33301 0 18.666 -0.333008 27.999 -1s17.333 -1.66699 24 -3l-12 -69c-6.66699 1.33301 -13.834 2.33301 -21.501 3s-15.5 1 -23.5 1c-36.667 0 -64.834 -8.5 -84.501 -25.5
s-32.834 -43.833 -39.501 -80.5l-13 -82h142l-11 -68h-143l-70 -416c-10 -58 -32.5 -101.667 -67.5 -131s-80.833 -44 -137.5 -44c-9.33301 0 -18.666 0.333008 -27.999 1s-17.333 1.66699 -24 3l12 69c6.66699 -1.33301 13.834 -2.33301 21.501 -3s15.5 -1 23.5 -1
c36.667 0 64.834 8.5 84.501 25.5s32.834 43.833 39.501 80.5l70 416h-97z" />
    <glyph glyph-name="Aringacute" unicode="&#x1fa;" horiz-adv-x="701" 
d="M350 684c12.667 0 24.833 -2.5 36.5 -7.5s21.834 -11.833 30.501 -20.5s15.5 -18.5 20.5 -29.5s7.5 -22.833 7.5 -35.5c0 -13.333 -2.33301 -25 -7 -35l247 -556h-85l-80 183h-338l-81 -183h-85l246 555c-4.66699 10 -7 22 -7 36c0 12.667 2.5 24.5 7.5 35.5
s11.833 20.833 20.5 29.5s18.667 15.5 30 20.5s23.666 7.5 36.999 7.5zM381.999 502c-11.333 -3.33301 -22 -5 -32 -5c-5.33301 0 -10.5 0.333008 -15.5 1s-10.167 2 -15.5 4l-106 -244h275zM349.999 640c-13.333 0 -24.833 -4.83301 -34.5 -14.5s-14.5 -21.167 -14.5 -34.5
c0 -14 4.83301 -25.833 14.5 -35.5s21.167 -14.5 34.5 -14.5s24.833 4.83301 34.5 14.5s14.5 21.5 14.5 35.5c0 13.333 -4.83301 24.833 -14.5 34.5s-21.167 14.5 -34.5 14.5zM453.999 855l-171 -99l-37 34l161 124z" />
    <glyph glyph-name="aringacute" unicode="&#x1fb;" horiz-adv-x="465" 
d="M57 291c8 34 27.001 62.332 57.001 84.999s68.333 34 115 34c53.333 0 95.166 -13.333 125.499 -40s45.5 -61.667 45.5 -105v-265h-67l-5 61c-12 -18 -28.667 -33.5 -50 -46.5s-51 -19.5 -89 -19.5c-21.333 0 -41 2.83301 -59 8.5s-33.667 14 -47 25
s-23.833 24.333 -31.5 40s-11.5 33.5 -11.5 53.5c0 85.333 63.333 128 190 128h98v15c0 24.667 -8.33301 44.667 -25 60s-42 23 -76 23c-26 0 -47.333 -5.16699 -64 -15.5s-27.667 -24.166 -33 -41.499h-73zM202.001 55.999c38 0 68.501 9.5 91.501 28.5
s34.5 47.5 34.5 85.5v23h-98c-42 0 -72.167 -5.83301 -90.5 -17.5s-27.5 -29.167 -27.5 -52.5c0 -21.333 8.16699 -37.833 24.5 -49.5s38.166 -17.5 65.499 -17.5zM229.002 663.999c12.667 0 24.834 -2.5 36.501 -7.5s21.834 -11.833 30.501 -20.5s15.5 -18.5 20.5 -29.5
s7.5 -22.833 7.5 -35.5s-2.5 -24.667 -7.5 -36s-11.833 -21.333 -20.5 -30s-18.834 -15.5 -30.501 -20.5s-23.834 -7.5 -36.501 -7.5c-13.333 0 -25.666 2.5 -36.999 7.5s-21.333 11.833 -30 20.5s-15.5 18.667 -20.5 30s-7.5 23.333 -7.5 36s2.5 24.5 7.5 35.5
s11.833 20.833 20.5 29.5s18.667 15.5 30 20.5s23.666 7.5 36.999 7.5zM229.002 619.999c-13.333 0 -24.833 -4.83301 -34.5 -14.5s-14.5 -21.167 -14.5 -34.5c0 -14 4.83301 -25.833 14.5 -35.5s21.167 -14.5 34.5 -14.5s24.833 4.83301 34.5 14.5s14.5 21.5 14.5 35.5
c0 13.333 -4.83301 24.833 -14.5 34.5s-21.167 14.5 -34.5 14.5zM346.002 810.999l-171 -110l-37 38l161 138z" />
    <glyph glyph-name="AEacute" unicode="&#x1fc;" horiz-adv-x="1014" 
d="M587 623v-215h338v-77h-338v-254h369v-77h-450v187h-265l-133 -187h-93l499 700h442v-77h-369zM506 260v299l-213 -299h213zM611 855l-171 -99l-37 34l161 124z" />
    <glyph glyph-name="aeacute" unicode="&#x1fd;" horiz-adv-x="754" 
d="M392 185c2 -18.667 5.99902 -36.1641 11.999 -52.4971s14.5 -30.5 25.5 -42.5s24.5 -21.5 40.5 -28.5s34.333 -10.5 55 -10.5c30.667 0 55 7.16699 73 21.5s29.667 31.166 35 50.499h70c-8.66699 -38.667 -28.334 -70.334 -59.001 -95.001s-70.667 -37 -120 -37
c-40.667 0 -74.5 8.5 -101.5 25.5s-48.833 39.833 -65.5 68.5c-13.333 -28 -34.166 -50 -62.499 -66s-63.166 -24 -104.499 -24c-44.667 0 -81.334 10.667 -110.001 32s-43 50.333 -43 87c0 41.333 15.833 71.666 47.5 90.999s78.834 29 141.501 29h97v32
c0 25.333 -8.16699 45.666 -24.5 60.999s-41.5 23 -75.5 23c-26.667 0 -48.5 -5.16699 -65.5 -15.5s-28.167 -24.5 -33.5 -42.5h-69c7.33301 34 26 62.167 56 84.5s68 33.5 114 33.5c36 0 66.5 -7 91.5 -21s42.833 -33.333 53.5 -58c15.333 23.333 36.333 42.333 63 57
s56 22 88 22c28 0 53.667 -5.33301 77 -16s43.5 -24.667 60.5 -42s30.167 -37.666 39.5 -60.999s14 -47.333 14 -72c0 -10.667 -1 -22 -3 -34h-317zM523.999 350.003c-35.333 0 -64.334 -10.667 -87.001 -32s-36.667 -49.333 -42 -84h247
c-0.666992 14.667 -3.83398 29 -9.50098 43s-13.667 26.5 -24 37.5s-22.666 19.667 -36.999 26s-30.166 9.5 -47.499 9.5zM197.998 55.0029c16 0 31.668 2.33301 47.001 7s28.666 11.5 39.999 20.5s20.5 20.333 27.5 34s10.5 29.834 10.5 48.501
c-0.666992 2 -1 5.33301 -1 10v10h-96c-42 0 -72.333 -5.83301 -91 -17.5s-28 -28.167 -28 -49.5c0 -20.667 8.5 -36.334 25.5 -47.001s38.833 -16 65.5 -16zM480.999 611.003l-171 -110l-37 38l161 138z" />
    <glyph glyph-name="Oslashacute" unicode="&#x1fe;" horiz-adv-x="807" 
d="M507 855l-171 -99l-37 34l161 124zM50 350c0 49.333 9.16699 95.832 27.5 139.499s43.5 81.834 75.5 114.501s69.333 58.5 112 77.5s88.667 28.5 138 28.5c52.667 0 102.667 -11.333 150 -34l71 124l58 -30l-73 -127c45.333 -33.333 81.333 -75.333 108 -126
s40 -106.334 40 -167.001c0 -50 -9.33301 -96.667 -28 -140s-44 -81.333 -76 -114s-69.5 -58.334 -112.5 -77.001s-88.833 -28 -137.5 -28c-53.333 0 -103.333 11.333 -150 34l-72 -125l-57 34l72 124c-44.667 32.667 -80.167 74.334 -106.5 125.001
s-39.5 106.334 -39.5 167.001zM676 349.999c0 46.667 -9.66699 89.5 -29 128.5s-45.333 71.167 -78 96.5l-278 -484c34 -16 71.333 -24 112 -24c38 0 73.5 7.16699 106.5 21.5s61.833 34.333 86.5 60s44.167 55.667 58.5 90s21.5 71.5 21.5 111.5zM131 349.999
c0 -46.667 9.33203 -89.333 27.999 -128s44 -70.667 76 -96l279 483c-17.333 7.33301 -35.333 13.166 -54 17.499s-37.667 6.5 -57 6.5c-38 0 -73.5 -7.33301 -106.5 -22s-61.667 -34.667 -86 -60s-43.666 -55.166 -57.999 -89.499s-21.5 -71.5 -21.5 -111.5z" />
    <glyph glyph-name="oslashacute" unicode="&#x1ff;" horiz-adv-x="498" 
d="M42 200c0 28.667 5.16406 55.833 15.4971 81.5s24.833 48 43.5 67s40.5 34 65.5 45s52.5 16.5 82.5 16.5c14 0 27.667 -1.33301 41 -4s26 -6.33398 38 -11.001l59 102l44 -23l-60 -103c26 -19.333 46.667 -43.833 62 -73.5s23 -62.167 23 -97.5
c0 -29.333 -5.16699 -56.666 -15.5 -81.999s-24.833 -47.333 -43.5 -66s-40.5 -33.5 -65.5 -44.5s-52.5 -16.5 -82.5 -16.5c-16 0 -31.167 1.66699 -45.5 5s-28.166 7.66602 -41.499 12.999l-63 -109c-7.33301 4.66699 -14.666 8.83398 -21.999 12.501
s-14.666 7.83398 -21.999 12.501l64 110c-24 19.333 -42.833 43.166 -56.5 71.499s-20.5 59.5 -20.5 93.5zM381.997 199.999c0 23.333 -4.16699 44.334 -12.5 63.001s-19.5 34.334 -33.5 47.001l-140 -242c8 -3.33301 16.5 -5.83301 25.5 -7.5s18.167 -2.5 27.5 -2.5
c18.667 0 36.167 3.5 52.5 10.5s30.5 16.667 42.5 29s21.333 27.166 28 44.499s10 36.666 10 57.999zM115.997 200c0 -21.333 3.33301 -40.665 10 -57.998s16 -32.333 28 -45l139 239c-13.333 4.66699 -28 7 -44 7c-19.333 0 -37 -3.5 -53 -10.5s-30 -16.833 -42 -29.5
s-21.333 -27.834 -28 -45.501s-10 -36.834 -10 -57.501zM352.997 611.001l-171 -110l-37 38l161 138z" />
    </font>
</defs>
</svg>
