<?xml version="1.0" standalone="no"?>
<!DOCTYPE svg PUBLIC "-//W3C//DTD SVG 1.1//EN" "http://www.w3.org/Graphics/SVG/1.1/DTD/svg11.dtd" >
<svg>
<metadata>
Created by FontForge 20090914 at Tue Jul 14 13:20:14 2015
 By www-data
Copyright &#194;&#169; 2013 by Stawix Ruecha. All rights reserved.
</metadata>
<defs>
<font id="SoinSansPro-Bold" horiz-adv-x="604" >
  <font-face 
    font-family="Soin Sans Pro Bold"
    font-weight="700"
    font-stretch="normal"
    units-per-em="1000"
    panose-1="2 0 0 0 0 0 0 0 0 0"
    ascent="750"
    descent="-250"
    x-height="400"
    cap-height="700"
    bbox="-72 -327.002 1148 958.004"
    underline-thickness="36"
    underline-position="-64"
    unicode-range="U+000D-U+FB02"
  />
<missing-glyph horiz-adv-x="500" 
d="M0 700h500v-700h-500v700zM420 650h-340l170 -255zM450 95v510l-170 -255zM420 50l-170 255l-170 -255h340zM50 95l170 255l-170 255v-510z" />
    <glyph glyph-name="fi" unicode="fi" horiz-adv-x="546" 
d="M358 282l-153 -0.000976562v-282h-130v282h-69v118h69v60c0 28.667 4.83301 55 14.5 79s23.834 44.667 42.501 62s41.5 31 68.5 41s57.833 15 92.5 15c10 0 23 -0.5 39 -1.5s28.667 -2.16699 38 -3.5v-117c-8.66699 1.33301 -18.667 2.33301 -30 3s-22.333 1 -33 1
c-32.667 0 -57.834 -6.16699 -75.501 -18.5s-26.5 -32.166 -26.5 -59.499v-61h283v-400h-130v282z" />
    <glyph glyph-name="fl" unicode="fl" horiz-adv-x="566" 
d="M378 534c-8.66699 1.33301 -19.666 2.50098 -32.999 3.50098s-26 1.5 -38 1.5c-32.667 0 -57.834 -6.66699 -75.501 -20s-26.5 -36.333 -26.5 -69v-50h107v-118h-107v-282h-130v282h-69v118h69v50c0 65.333 20.833 116.166 62.5 152.499s99.834 54.5 174.501 54.5
c34.667 0 69.667 -2 105 -6s65.666 -8.66699 90.999 -14v-637h-130v534z" />
    <glyph glyph-name="f_f_j" unicode="ffj" horiz-adv-x="846" 
d="M658 282l-153.002 -0.000976562v-282h-130v282h-170v-282h-130v282h-69v118h69v84c0 60 15.667 103.833 47 131.5s73 41.5 125 41.5c17.333 0 30.833 -0.5 40.5 -1.5s19.167 -2.16699 28.5 -3.5v-117c-9.33301 1.33301 -18.166 2.33301 -26.499 3s-17.5 1 -27.5 1
c-21.333 0 -36.166 -4.16699 -44.499 -12.5s-12.5 -23.5 -12.5 -45.5v-81h170v60c0 28.667 4.83301 55 14.5 79s23.834 44.667 42.501 62s41.5 31 68.5 41s57.833 15 92.5 15c10 0 23 -0.5 39 -1.5s28.667 -2.16699 38 -3.5v-117c-8.66699 1.33301 -18.667 2.33301 -30 3
s-22.333 1 -33 1c-32.667 0 -57.834 -6.16699 -75.501 -18.5s-26.5 -32.166 -26.5 -59.499v-61h283v-480c0 -120 -56.667 -180 -170 -180c-11.333 0 -22 0.333008 -32 1s-21 2 -33 4v116c10 -1.33301 20 -2.5 30 -3.5s18.667 -1.5 26 -1.5c32.667 0 49 20.667 49 62v364z
" />
    <glyph glyph-name="f_f_i" unicode="ffi" horiz-adv-x="846" 
d="M375 460c0 28.667 4.83105 54.999 14.498 78.999s23.834 44.667 42.501 62s41.5 31 68.5 41s57.833 15 92.5 15c10 0 23 -0.5 39 -1.5s28.667 -2.16699 38 -3.5v-117c-8.66699 1.33301 -18.667 2.33301 -30 3s-22.333 1 -33 1c-32.667 0 -57.834 -6.16699 -75.501 -18.5
s-26.5 -32.166 -26.5 -59.499v-61h283v-400h-130v282h-153v-282h-130v282h-170v-282h-130v282h-69v118h69v84c0 60 15.667 103.833 47 131.5s73 41.5 125 41.5c17.333 0 30.833 -0.5 40.5 -1.5s19.167 -2.16699 28.5 -3.5v-117c-9.33301 1.33301 -18.166 2.33301 -26.499 3
s-17.5 1 -27.5 1c-21.333 0 -36.166 -4.16699 -44.499 -12.5s-12.5 -23.5 -12.5 -45.5v-81h170v60z" />
    <glyph glyph-name="f_f_l" unicode="ffl" horiz-adv-x="866" 
d="M375 450c0 65.333 20.832 116.167 62.499 152.5s99.834 54.5 174.501 54.5c34.667 0 69.667 -2 105 -6s65.666 -8.66699 90.999 -14v-637h-130v534c-8.66699 1.33301 -19.667 2.5 -33 3.5s-26 1.5 -38 1.5c-32.667 0 -57.834 -6.66699 -75.501 -20
s-26.5 -36.333 -26.5 -69v-50h107v-118h-107v-282h-130v282h-170v-282h-130v282h-69v118h69v84c0 60 15.667 103.833 47 131.5s73 41.5 125 41.5c17.333 0 30.833 -0.5 40.5 -1.5s19.167 -2.16699 28.5 -3.5v-117c-9.33301 1.33301 -18.166 2.33301 -26.499 3
s-17.5 1 -27.5 1c-21.333 0 -36.166 -4.16699 -44.499 -12.5s-12.5 -23.5 -12.5 -45.5v-81h170v50z" />
    <glyph glyph-name="f_f_b" unicode="ffb" horiz-adv-x="1138" 
d="M375 450c0 65.333 20.8359 116.169 62.5029 152.502s99.834 54.5 174.501 54.5c34.667 0 69.667 -2 105 -6s65.666 -8.66699 90.999 -14v-281c10 13.333 25.167 25.666 45.5 36.999s45.166 17 74.499 17c25.333 0 48.666 -5.33301 69.999 -16s39.833 -25.5 55.5 -44.5
s28 -41.167 37 -66.5s13.5 -53 13.5 -83c0 -34.667 -5.16699 -65 -15.5 -91s-24 -47.833 -41 -65.5s-36.5 -31 -58.5 -40s-45 -13.5 -69 -13.5c-24.667 0 -47.334 6.16699 -68.001 18.5s-35.334 26.166 -44.001 41.499l-10 -50h-120v534
c-8.66699 1.33301 -19.667 2.5 -33 3.5s-26 1.5 -38 1.5c-32.667 0 -57.834 -6.66699 -75.501 -20s-26.5 -36.333 -26.5 -69v-50h107v-118h-107v-282h-130v282h-170v-282h-130v282h-69v118h69v84c0 60 15.667 103.833 47 131.5s73 41.5 125 41.5
c17.333 0 30.833 -0.5 40.5 -1.5s19.167 -2.16699 28.5 -3.5v-117c-9.33301 1.33301 -18.166 2.33301 -26.499 3s-17.5 1 -27.5 1c-21.333 0 -36.166 -4.16699 -44.499 -12.5s-12.5 -23.5 -12.5 -45.5v-81h170v50zM895.003 294.003c-24 0 -44.833 -8.33301 -62.5 -25
s-26.5 -39.667 -26.5 -69s8.83301 -52.333 26.5 -69s38.5 -25 62.5 -25s43.5 8.33301 58.5 25s22.5 39.667 22.5 69s-7.5 52.333 -22.5 69s-34.5 25 -58.5 25z" />
    <glyph glyph-name="f_f_h" unicode="ffh" horiz-adv-x="1146" 
d="M375 450c0 65.333 20.833 116.168 62.5 152.501s99.834 54.5 174.501 54.5c34.667 0 69.667 -2 105 -6s65.666 -8.66699 90.999 -14v-281c13.333 13.333 30.5 25.666 51.5 36.999s47.833 17 80.5 17c22 0 42.5 -3.66699 61.5 -11s35.667 -17.833 50 -31.5
s25.666 -30.334 33.999 -50.001s12.5 -42.167 12.5 -67.5v-250h-130v219c0 48.667 -22 73 -66 73c-22 0 -41 -6.16699 -57 -18.5s-28.333 -27.166 -37 -44.499v-229h-130v534c-8.66699 1.33301 -19.667 2.5 -33 3.5s-26 1.5 -38 1.5c-32.667 0 -57.834 -6.66699 -75.501 -20
s-26.5 -36.333 -26.5 -69v-50h107v-118h-107v-282h-130v282h-170v-282h-130v282h-69v118h69v84c0 60 15.667 103.833 47 131.5s73 41.5 125 41.5c17.333 0 30.833 -0.5 40.5 -1.5s19.167 -2.16699 28.5 -3.5v-117c-9.33301 1.33301 -18.166 2.33301 -26.499 3
s-17.5 1 -27.5 1c-21.333 0 -36.166 -4.16699 -44.499 -12.5s-12.5 -23.5 -12.5 -45.5v-81h170v50z" />
    <glyph glyph-name="f_f_k" unicode="ffk" horiz-adv-x="1083" 
d="M375 450c0 65.333 20.832 116.167 62.499 152.5s99.834 54.5 174.501 54.5c34.667 0 69.667 -2 105 -6s65.666 -8.66699 90.999 -14v-350l115 113h159l-187 -175l190 -225h-147l-130 160v-160h-130v534c-8.66699 1.33301 -19.667 2.5 -33 3.5s-26 1.5 -38 1.5
c-32.667 0 -57.834 -6.66699 -75.501 -20s-26.5 -36.333 -26.5 -69v-50h107v-118h-107v-282h-130v282h-170v-282h-130v282h-69v118h69v84c0 60 15.667 103.833 47 131.5s73 41.5 125 41.5c17.333 0 30.833 -0.5 40.5 -1.5s19.167 -2.16699 28.5 -3.5v-117
c-9.33301 1.33301 -18.166 2.33301 -26.499 3s-17.5 1 -27.5 1c-21.333 0 -36.166 -4.16699 -44.499 -12.5s-12.5 -23.5 -12.5 -45.5v-81h170v50z" />
    <glyph glyph-name="f_j" unicode="fj" horiz-adv-x="546" 
d="M358 282l-153 -0.000976562v-282h-130v282h-69v118h69v60c0 28.667 4.83301 55 14.5 79s23.834 44.667 42.501 62s41.5 31 68.5 41s57.833 15 92.5 15c10 0 23 -0.5 39 -1.5s28.667 -2.16699 38 -3.5v-117c-8.66699 1.33301 -18.667 2.33301 -30 3s-22.333 1 -33 1
c-32.667 0 -57.834 -6.16699 -75.501 -18.5s-26.5 -32.166 -26.5 -59.499v-61h283v-480c0 -120 -56.667 -180 -170 -180c-11.333 0 -22 0.333008 -32 1s-21 2 -33 4v116c10 -1.33301 20 -2.5 30 -3.5s18.667 -1.5 26 -1.5c32.667 0 49 20.667 49 62v364z" />
    <glyph glyph-name="f_t" unicode="ft" horiz-adv-x="642" 
d="M205 400h178l20 142h107v-142h111v-118h-111v-128c0 -17.333 4.16699 -29.333 12.5 -36s22.166 -10 41.499 -10c16.667 0 36 2 58 6v-111c-16.667 -4.66699 -32.334 -7.83398 -47.001 -9.50098s-29.667 -2.5 -45 -2.5c-19.333 0 -38 2.33301 -56 7s-34 12.334 -48 23.001
s-25.167 25 -33.5 43s-12.5 40.667 -12.5 68v150h-175v-282h-130v282h-69v118h69v84c0 60 15.667 103.833 47 131.5s73 41.5 125 41.5c17.333 0 30.833 -0.5 40.5 -1.5s19.167 -2.16699 28.5 -3.5v-117c-9.33301 1.33301 -18.166 2.33301 -26.499 3s-17.5 1 -27.5 1
c-21.333 0 -36.166 -4.16699 -44.499 -12.5s-12.5 -23.5 -12.5 -45.5v-81z" />
    <glyph glyph-name="t_t" unicode="tt" horiz-adv-x="658" 
d="M204 154c0 -17.333 4.1709 -29.333 12.5039 -36s22.166 -10 41.499 -10c16.667 0 36 2 58 6v-111c-16.667 -4.66699 -32.334 -7.83398 -47.001 -9.50098s-29.667 -2.5 -45 -2.5c-19.333 0 -38 2.33301 -56 7s-34 12.334 -48 23.001s-25.167 25 -33.5 43
s-12.5 40.667 -12.5 68v150h-72v118h75l20 142h107v-142h195l20 142h107v-142h111v-118h-111v-128c0 -17.333 4.16699 -29.333 12.5 -36s22.166 -10 41.499 -10c16.667 0 36 2 58 6v-111c-16.667 -4.66699 -32.334 -7.83398 -47.001 -9.50098s-29.667 -2.5 -45 -2.5
c-19.333 0 -38 2.33301 -56 7s-34 12.334 -48 23.001s-25.167 25 -33.5 43s-12.5 40.667 -12.5 68v150h-192v-128z" />
    <glyph glyph-name="f_f" unicode="ff" horiz-adv-x="626" 
d="M6 400h68.998v84c0 60 15.667 103.833 47 131.5s73 41.5 125 41.5c17.333 0 30.833 -0.5 40.5 -1.5s19.167 -2.16699 28.5 -3.5v-117c-9.33301 1.33301 -18.166 2.33301 -26.499 3s-17.5 1 -27.5 1c-21.333 0 -36.166 -4.16699 -44.499 -12.5s-12.5 -23.5 -12.5 -45.5
v-81h170v90c0 57.333 16.5 99.5 49.5 126.5s79.5 40.5 139.5 40.5c13.333 0 26.333 -0.5 39 -1.5s23.667 -2.16699 33 -3.5v-117c-9.33301 1.33301 -19.5 2.33301 -30.5 3s-22.167 1 -33.5 1c-23.333 0 -40.333 -4.16699 -51 -12.5s-16 -23.5 -16 -45.5v-81h107v-118h-107
v-282h-130v282h-170v-282h-130v282h-69v118z" />
    <glyph glyph-name="f_b" unicode="fb" horiz-adv-x="838" 
d="M595 294c-24 0 -44.833 -8.33301 -62.5 -25s-26.5 -39.667 -26.5 -69s8.83301 -52.333 26.5 -69s38.5 -25 62.5 -25s43.5 8.33301 58.5 25s22.5 39.667 22.5 69s-7.5 52.333 -22.5 69s-34.5 25 -58.5 25zM508 356c10 13.333 25.1719 25.6689 45.5049 37.002
s45.166 17 74.499 17c25.333 0 48.666 -5.33301 69.999 -16s39.833 -25.5 55.5 -44.5s28 -41.167 37 -66.5s13.5 -53 13.5 -83c0 -34.667 -5.16699 -65 -15.5 -91s-24 -47.833 -41 -65.5s-36.5 -31 -58.5 -40s-45 -13.5 -69 -13.5c-24.667 0 -47.334 6.16699 -68.001 18.5
s-35.334 26.166 -44.001 41.499l-10 -50h-120v534c-8.66699 1.33301 -19.667 2.5 -33 3.5s-26 1.5 -38 1.5c-32.667 0 -57.834 -6.66699 -75.501 -20s-26.5 -36.333 -26.5 -69v-50h107v-118h-107v-282h-130v282h-69v118h69v50c0 65.333 20.833 116.166 62.5 152.499
s99.834 54.5 174.501 54.5c34.667 0 69.667 -2 105 -6s65.666 -8.66699 90.999 -14v-281z" />
    <glyph glyph-name="f_h" unicode="fh" horiz-adv-x="846" 
d="M508 356c13.333 13.333 30.502 25.668 51.502 37.001s47.833 17 80.5 17c22 0 42.5 -3.66699 61.5 -11s35.667 -17.833 50 -31.5s25.666 -30.334 33.999 -50.001s12.5 -42.167 12.5 -67.5v-250h-130v219c0 48.667 -22 73 -66 73c-22 0 -41 -6.16699 -57 -18.5
s-28.333 -27.166 -37 -44.499v-229h-130v534c-8.66699 1.33301 -19.667 2.5 -33 3.5s-26 1.5 -38 1.5c-32.667 0 -57.834 -6.66699 -75.501 -20s-26.5 -36.333 -26.5 -69v-50h107v-118h-107v-282h-130v282h-69v118h69v50c0 65.333 20.833 116.166 62.5 152.499
s99.834 54.5 174.501 54.5c34.667 0 69.667 -2 105 -6s65.666 -8.66699 90.999 -14v-281z" />
    <glyph glyph-name="f_k" unicode="fk" horiz-adv-x="783" 
d="M508 287l115.001 113.001h159l-187 -175l190 -225h-147l-130 160v-160h-130v534c-8.66699 1.33301 -19.667 2.5 -33 3.5s-26 1.5 -38 1.5c-32.667 0 -57.834 -6.66699 -75.501 -20s-26.5 -36.333 -26.5 -69v-50h107v-118h-107v-282h-130v282h-69v118h69v50
c0 65.333 20.833 116.166 62.5 152.499s99.834 54.5 174.501 54.5c34.667 0 69.667 -2 105 -6s65.666 -8.66699 90.999 -14v-350z" />
    <glyph glyph-name=".notdef" horiz-adv-x="500" 
d="M0 700h500v-700h-500v700zM420 650h-340l170 -255zM450 95v510l-170 -255zM420 50l-170 255l-170 -255h340zM50 95l170 255l-170 255v-510z" />
    <glyph glyph-name="NULL" horiz-adv-x="0" 
 />
    <glyph glyph-name="NULL" horiz-adv-x="0" 
 />
    <glyph glyph-name="nonmarkingreturn" unicode="&#xd;" horiz-adv-x="229" 
 />
    <glyph glyph-name="space" unicode=" " horiz-adv-x="210" 
 />
    <glyph glyph-name="exclam" unicode="!" horiz-adv-x="303" 
d="M213 220h-122l-8 480h138zM68 73c0 23.333 8 43.166 24 59.499s35.667 24.5 59 24.5s43.166 -8.16699 59.499 -24.5s24.5 -36.166 24.5 -59.499s-8.16699 -43 -24.5 -59s-36.166 -24 -59.499 -24s-43 8 -59 24s-24 35.667 -24 59z" />
    <glyph glyph-name="quotedbl" unicode="&#x22;" horiz-adv-x="361" 
d="M153 700l-12 -240h-102l-9 240h123zM331 700l-12 -240h-102l-9 240h123z" />
    <glyph glyph-name="numbersign" unicode="#" 
d="M276 512h92l25 188h128l-25 -188h68v-102h-81l-13 -105h78v-102h-91l-26 -203h-128l26 203h-92l-26 -203h-128l26 203h-69v102h82l13 105h-79v102h92l25 188h128zM246 305h100l13 105h-100z" />
    <glyph glyph-name="dollar" unicode="$" 
d="M357 704c48 -10.667 89.8311 -33.0059 125.498 -67.0059s58.5 -79 68.5 -135h-144c-3.33301 14.667 -9.33301 27.334 -18 38.001s-19.334 19.334 -32.001 26.001v-159c29.333 -10.667 56.333 -22 81 -34s45.834 -26 63.501 -42s31.334 -34.5 41.001 -55.5
s14.5 -45.833 14.5 -74.5c0 -29.333 -5.33301 -55.666 -16 -78.999s-25 -43.833 -43 -61.5s-39.167 -32 -63.5 -43s-50.166 -18.5 -77.499 -22.5v-95h-104v95c-58.667 8 -106.5 29.5 -143.5 64.5s-61.167 81.833 -72.5 140.5h144c8.66699 -38.667 32.667 -63 72 -73v178
c-29.333 10 -56.5 20.5 -81.5 31.5s-46.5 24.333 -64.5 40s-32.167 34.334 -42.5 56.001s-15.5 48.5 -15.5 80.5c0 22.667 4.16699 44.834 12.5 66.501s21 41.334 38 59.001s38.333 32.5 64 44.5s55.5 20 89.5 24v93h104v-96zM190.998 513.994
c0 -16.667 5.66699 -30.333 17 -41s26.333 -20 45 -28v131c-21.333 -5.33301 -37 -13.5 -47 -24.5s-15 -23.5 -15 -37.5zM414.998 193.995c0 15.333 -5.33301 28.668 -16 40.001s-24.667 21.666 -42 30.999v-138c16 4.66699 29.667 12.5 41 23.5s17 25.5 17 43.5z" />
    <glyph glyph-name="percent" unicode="%" horiz-adv-x="764" 
d="M30 552c0 22.667 3.66699 43.667 11 63s17.666 36 30.999 50s29.666 25 48.999 33s40.666 12 63.999 12s44.5 -4 63.5 -12s35.167 -19 48.5 -33s23.666 -30.667 30.999 -50s11 -40.333 11 -63s-3.66699 -43.5 -11 -62.5s-17.666 -35.5 -30.999 -49.5s-29.5 -25 -48.5 -33
s-40.167 -12 -63.5 -12s-44.666 4 -63.999 12s-35.666 19 -48.999 33s-23.666 30.5 -30.999 49.5s-11 39.833 -11 62.5zM229 552c0 15.333 -3.83301 28.833 -11.5 40.5s-18.5 17.5 -32.5 17.5s-24.833 -5.83301 -32.5 -17.5s-11.5 -25.167 -11.5 -40.5
s3.83301 -28.833 11.5 -40.5s18.5 -17.5 32.5 -17.5s24.833 5.83301 32.5 17.5s11.5 25.167 11.5 40.5zM221 -42l-100 58l408 703l100 -58zM425 146c0 22.667 3.66699 43.667 11 63s17.666 36 30.999 50s29.666 25 48.999 33s40.666 12 63.999 12s44.5 -4 63.5 -12
s35.167 -19 48.5 -33s23.666 -30.667 30.999 -50s11 -40.333 11 -63s-3.66699 -43.5 -11 -62.5s-17.666 -35.5 -30.999 -49.5s-29.5 -25 -48.5 -33s-40.167 -12 -63.5 -12s-44.666 4 -63.999 12s-35.666 19 -48.999 33s-23.666 30.5 -30.999 49.5s-11 39.833 -11 62.5z
M624 146c0 15.333 -3.83301 28.833 -11.5 40.5s-18.5 17.5 -32.5 17.5s-24.833 -5.83301 -32.5 -17.5s-11.5 -25.167 -11.5 -40.5s3.83301 -28.833 11.5 -40.5s18.5 -17.5 32.5 -17.5s24.833 5.83301 32.5 17.5s11.5 25.167 11.5 40.5z" />
    <glyph glyph-name="ampersand" unicode="&#x26;" horiz-adv-x="659" 
d="M36 195c0 22 2.83398 41.9971 8.50098 59.9971s13.5 34.5 23.5 49.5s21.5 28.833 34.5 41.5s26.833 24.334 41.5 35.001c-18.667 21.333 -34.334 44.5 -47.001 69.5s-19 54.5 -19 88.5c0 17.333 3.66699 36 11 56s18.833 38.5 34.5 55.5s35.834 31.167 60.501 42.5
s54.334 17 89.001 17c32 0 59.667 -4.83301 83 -14.5s42.833 -22.667 58.5 -39s27.334 -35.166 35.001 -56.499s11.5 -43.333 11.5 -66c0 -21.333 -3.66699 -40.5 -11 -57.5s-17 -32.667 -29 -47s-25.667 -27.5 -41 -39.5s-31 -23 -47 -33l113 -120
c6.66699 9.33301 12.667 21 18 35s8 30.333 8 49v79h134v-79c0 -36 -6.66699 -69.5 -20 -100.5s-29.666 -59.167 -48.999 -84.5l124 -136h-163l-41 44c-22.667 -16.667 -48.834 -29.667 -78.501 -39s-62.834 -14 -99.501 -14c-36 0 -68.833 5.5 -98.5 16.5
s-55.334 25.833 -77.001 44.5s-38.334 40.334 -50.001 65.001s-17.5 50.667 -17.5 78zM279.001 111.997c18 0 34.333 2.33203 49 6.99902s28 11.334 40 20.001l-139 150c-16.667 -12.667 -30.5 -26.5 -41.5 -41.5s-16.5 -32.5 -16.5 -52.5c0 -11.333 2.83301 -22 8.5 -32
s13.5 -18.833 23.5 -26.5s21.5 -13.667 34.5 -18s26.833 -6.5 41.5 -6.5zM213.001 538.996c0 -16.667 4.00195 -32.332 12.002 -46.999s17.667 -28.334 29 -41.001c19.333 12.667 36.333 25.5 51 38.5s22 27.5 22 43.5c0 13.333 -4.33301 26 -13 38s-22.334 18 -41.001 18
c-20.667 0 -35.834 -5.66699 -45.501 -17s-14.5 -22.333 -14.5 -33z" />
    <glyph glyph-name="quotesingle" unicode="'" horiz-adv-x="183" 
d="M153 700l-12 -240h-102l-9 240h123z" />
    <glyph glyph-name="parenleft" unicode="(" horiz-adv-x="323" 
d="M60 226c0 93.333 12.333 184 37 272s57 169 97 243l109 -63c-16.667 -34 -31.834 -68.167 -45.501 -102.5s-25.5 -69.833 -35.5 -106.5s-17.833 -75 -23.5 -115s-8.5 -82.667 -8.5 -128s2.83301 -88 8.5 -128s13.5 -78.333 23.5 -115s21.833 -72.167 35.5 -106.5
s28.834 -68.5 45.501 -102.5l-109 -63c-40 74 -72.333 155.167 -97 243.5s-37 178.833 -37 271.5z" />
    <glyph glyph-name="parenright" unicode=")" horiz-adv-x="323" 
d="M263 226c0 -92.667 -12.333 -183.167 -37 -271.5s-57 -169.5 -97 -243.5l-109 63c16.667 34 31.834 68.167 45.501 102.5s25.5 69.833 35.5 106.5s17.833 75 23.5 115s8.5 82.667 8.5 128s-2.83301 88 -8.5 128s-13.5 78.333 -23.5 115s-21.833 72.167 -35.5 106.5
s-28.834 68.5 -45.501 102.5l109 63c40 -74 72.333 -155 97 -243s37 -178.667 37 -272z" />
    <glyph glyph-name="asterisk" unicode="*" horiz-adv-x="411" 
d="M156 700h100l-5 -114l108 39l32 -96l-110 -34c11.333 -15.333 23.833 -31.333 37.5 -48s24.5 -30.667 32.5 -42l-81 -58l-64 95l-65 -94l-81 57l70 90l-110 34l33 96l106 -39z" />
    <glyph glyph-name="plus" unicode="+" 
d="M537 225h-170v-175h-130v175h-170v120h170v175h130v-175h170v-120z" />
    <glyph glyph-name="comma" unicode="," horiz-adv-x="247" 
d="M205 118l-88 -284l-97 31l50 285z" />
    <glyph glyph-name="hyphen" unicode="-" horiz-adv-x="404" 
d="M30 375h344v-120h-344v120z" />
    <glyph glyph-name="period" unicode="." horiz-adv-x="247" 
d="M40 73c0 23.333 8 43.166 24 59.499s35.667 24.5 59 24.5s43.166 -8.16699 59.499 -24.5s24.5 -36.166 24.5 -59.499s-8.16699 -43 -24.5 -59s-36.166 -24 -59.499 -24s-43 8 -59 24s-24 35.667 -24 59z" />
    <glyph glyph-name="slash" unicode="/" horiz-adv-x="584" 
d="M94 -124l-114 66l506 879l118 -61z" />
    <glyph glyph-name="zero" unicode="0" horiz-adv-x="652" 
d="M326 708c39.333 0 76 -8.5 110 -25.5s63.667 -41 89 -72s45.166 -68.5 59.499 -112.5s21.5 -93.333 21.5 -148s-7.16699 -104 -21.5 -148s-34.166 -81.5 -59.499 -112.5s-55 -55 -89 -72s-70.667 -25.5 -110 -25.5s-76 8.5 -110 25.5s-63.667 41 -89 72
s-45.166 68.5 -59.499 112.5s-21.5 93.333 -21.5 148s7.16699 104 21.5 148s34.166 81.5 59.499 112.5s55 55 89 72s70.667 25.5 110 25.5zM326 124c18 0 35.333 5.16699 52 15.5s31.167 25.333 43.5 45s22.166 43.334 29.499 71.001s11 59.167 11 94.5
c0 34.667 -3.66699 66 -11 94s-17.166 51.667 -29.499 71s-26.833 34.333 -43.5 45s-34 16 -52 16s-35.333 -5.33301 -52 -16s-31.167 -25.667 -43.5 -45s-22.166 -43 -29.499 -71s-11 -59.333 -11 -94c0 -35.333 3.66699 -66.833 11 -94.5s17.166 -51.334 29.499 -71.001
s26.833 -34.667 43.5 -45s34 -15.5 52 -15.5z" />
    <glyph glyph-name="one" unicode="1" horiz-adv-x="425" 
d="M191 523l-121 -75l-64 117l219 135h110v-700h-144v523z" />
    <glyph glyph-name="two" unicode="2" horiz-adv-x="558" 
d="M518 132v-132h-484v77l241 268l24 26.5c10 11 20 23.167 30 36.5s18.5 27.333 25.5 42s10.5 29 10.5 43c0 25.333 -7.66699 45.666 -23 60.999s-35.666 23 -60.999 23c-32 0 -57.833 -10 -77.5 -30s-28.167 -51 -25.5 -93h-139c-2 34.667 1.66699 67.5 11 98.5
s24 58 44 81s45.167 41.333 75.5 55s65.166 20.5 104.499 20.5c36 0 68.5 -5.66699 97.5 -17s53.667 -27.166 74 -47.499s36 -44.166 47 -71.499s16.5 -57 16.5 -89c0 -24.667 -4.66699 -48 -14 -70s-20.833 -42.833 -34.5 -62.5s-28.5 -37.834 -44.5 -54.501l-44 -47
l-109 -118h255z" />
    <glyph glyph-name="three" unicode="3" horiz-adv-x="579" 
d="M259 422c40.667 0.666992 68.6631 8.66602 83.9961 23.999s23 35.666 23 60.999c0 19.333 -8.16699 35.666 -24.5 48.999s-36.166 20 -59.499 20c-12.667 0 -24.834 -1.83301 -36.501 -5.5s-21.834 -9.16699 -30.501 -16.5s-15.5 -17 -20.5 -29
s-7.16699 -26.333 -6.5 -43h-145c0 34 6.16699 64.833 18.5 92.5s29 51.334 50 71.001s46 35 75 46s60.167 16.5 93.5 16.5c36.667 0 69.5 -5.16699 98.5 -15.5s53.333 -24.166 73 -41.499s34.667 -37.5 45 -60.5s15.5 -47.167 15.5 -72.5c0 -36.667 -8.16699 -68 -24.5 -94
s-39.166 -45.333 -68.499 -58c32.667 -10.667 59.167 -30.667 79.5 -60s30.5 -64.666 30.5 -105.999c0 -27.333 -5.66699 -53.5 -17 -78.5s-27.666 -47.167 -48.999 -66.5s-47.166 -34.666 -77.499 -45.999s-64.5 -17 -102.5 -17c-32 0 -63.167 5 -93.5 15
s-57.5 24.833 -81.5 44.5s-43.167 44 -57.5 73s-21.5 62.5 -21.5 100.5h140c0 -18.667 3.33301 -34.334 10 -47.001s15.334 -23 26.001 -31s22.834 -13.833 36.501 -17.5s27.167 -5.5 40.5 -5.5c30.667 0 55.167 8.66699 73.5 26s27.5 37.333 27.5 60
c0 59.333 -41.333 91 -124 95v117z" />
    <glyph glyph-name="four" unicode="4" horiz-adv-x="557" 
d="M541 240v-128h-87v-112h-142v112h-302v101l333 487h111v-460h87zM312 443l-134 -203h134v203z" />
    <glyph glyph-name="five" unicode="5" horiz-adv-x="570" 
d="M534 233c0 -34 -6 -65.667 -18 -95s-29 -54.833 -51 -76.5s-48.5 -38.667 -79.5 -51s-65.833 -18.5 -104.5 -18.5c-31.333 0 -62 5 -92 15s-56.667 24.833 -80 44.5s-42 44 -56 73s-20.667 62.5 -20 100.5h140c3.33301 -36 15.166 -61.833 35.499 -77.5
s44.5 -23.5 72.5 -23.5c33.333 0 59.5 9.33301 78.5 28s28.5 46 28.5 82c0 28 -8.66699 52 -26 72s-45.666 30 -84.999 30h-219l17 364h400v-132h-264l-5 -100h71c87.333 0 152 -20.833 194 -62.5s63 -99.167 63 -172.5z" />
    <glyph glyph-name="six" unicode="6" horiz-adv-x="582" 
d="M394 522c-4 16 -12.667 29.5 -26 40.5s-30.666 16.5 -51.999 16.5c-22.667 0 -42.334 -5.83301 -59.001 -17.5s-30.5 -26.334 -41.5 -44.001s-19.5 -36.834 -25.5 -57.501s-9.66699 -40 -11 -58c16 24.667 36.667 43.334 62 56.001s56.333 19 93 19
c30 0 58.333 -5.83301 85 -17.5s49.834 -28.167 69.501 -49.5s35.167 -46.833 46.5 -76.5s17 -62.5 17 -98.5c0 -35.333 -5.66699 -67.833 -17 -97.5s-27.5 -55.334 -48.5 -77.001s-46.5 -38.667 -76.5 -51s-64 -18.5 -102 -18.5c-34.667 0 -67.834 6.5 -99.501 19.5
s-59.5 33.667 -83.5 62s-43.167 65.5 -57.5 111.5s-21.5 102 -21.5 168c0 22 1.66699 46.167 5 72.5s9 52.833 17 79.5s18.667 52.334 32 77.001s29.833 46.5 49.5 65.5s43 34.167 70 45.5s58.167 17 93.5 17c28 0 54.833 -3.83301 80.5 -11.5s48.5 -19.167 68.5 -34.5
s36.667 -34.666 50 -57.999s22 -51 26 -83h-144zM310 115c31.333 0 56.166 11.168 74.499 33.501s27.5 51.833 27.5 88.5c0 16.667 -2.5 32.167 -7.5 46.5s-12 26.666 -21 36.999s-19.333 18.333 -31 24s-24.5 8.5 -38.5 8.5c-15.333 0 -29.666 -3 -42.999 -9
s-25 -14.167 -35 -24.5s-18 -22.833 -24 -37.5s-9 -30.667 -9 -48c0 -36 10 -64.833 30 -86.5s45.667 -32.5 77 -32.5z" />
    <glyph glyph-name="seven" unicode="7" horiz-adv-x="513" 
d="M16 568v132h477v-109l-300 -591h-158l290 568h-309z" />
    <glyph glyph-name="eight" unicode="8" horiz-adv-x="592" 
d="M296 117c32.667 0 58.832 8.66699 78.499 26s29.5 39.333 29.5 66c0 27.333 -9.5 49.166 -28.5 65.499s-45.5 24.5 -79.5 24.5s-60.5 -8.16699 -79.5 -24.5s-28.5 -38.166 -28.5 -65.499c0 -26.667 9.83301 -48.667 29.5 -66s45.834 -26 78.501 -26zM295.998 708
c35.333 0 67.5039 -5.16699 96.5039 -15.5s53.667 -24.666 74 -42.999s36.166 -40.166 47.499 -65.499s17 -52.666 17 -81.999c0 -36 -9.33301 -65.167 -28 -87.5s-40 -39.166 -64 -50.499c15.333 -5.33301 29.5 -13.666 42.5 -24.999s24.333 -24.333 34 -39
s17.167 -30.667 22.5 -48s8 -35 8 -53c0 -29.333 -6 -56.666 -18 -81.999s-29 -47.333 -51 -66s-48.333 -33.167 -79 -43.5s-64.667 -15.5 -102 -15.5s-71.333 5.16699 -102 15.5s-57 24.833 -79 43.5s-39 40.667 -51 66s-18 52.666 -18 81.999c0 18 2.66699 35.667 8 53
s12.666 33.333 21.999 48s20.666 27.667 33.999 39s27.666 19.666 42.999 24.999c-24 11.333 -45.333 28.166 -64 50.499s-28 51.5 -28 87.5c0 29.333 5.5 56.666 16.5 81.999s26.833 47.166 47.5 65.499s45.5 32.666 74.5 42.999s61.167 15.5 96.5 15.5zM296.002 582
c-30 0 -53 -7.83301 -69 -23.5s-24 -34.834 -24 -57.501s8.5 -41 25.5 -55s39.5 -21 67.5 -21s50.5 7 67.5 21s25.5 32.333 25.5 55s-8 41.834 -24 57.501s-39 23.5 -69 23.5z" />
    <glyph glyph-name="nine" unicode="9" horiz-adv-x="582" 
d="M186 177c4 -16 13.0029 -29.665 27.0029 -40.998s31.667 -17 53 -17c46 0 80.333 16.167 103 48.5s35.667 78.833 39 139.5c-16 -24.667 -37.5 -45 -64.5 -61s-58.833 -24 -95.5 -24c-30 0 -58.333 5.83301 -85 17.5s-49.834 28.167 -69.501 49.5
s-35.167 46.833 -46.5 76.5s-17 62.5 -17 98.5c0 35.333 5.5 68 16.5 98s27 55.833 48 77.5s46.333 38.667 76 51s63.167 18.5 100.5 18.5c35.333 0 69 -6.5 101 -19.5s60.167 -33.833 84.5 -62.5s43.666 -66 57.999 -112s21.5 -102 21.5 -168c0 -42 -4 -84.167 -12 -126.5
s-22 -80.5 -42 -114.5s-47.333 -61.667 -82 -83s-78.334 -32 -131.001 -32c-28 0 -54.833 3.66699 -80.5 11s-48.5 18.666 -68.5 33.999s-36.667 34.666 -50 57.999s-22 51 -26 83h142zM272.003 585.002c-31.333 0 -56.166 -11.334 -74.499 -34.001
s-27.5 -52.334 -27.5 -89.001c0 -17.333 2.5 -33 7.5 -47s12 -26.167 21 -36.5s19.333 -18.333 31 -24s24.5 -8.5 38.5 -8.5c15.333 0 29.666 2.83301 42.999 8.5s25 13.834 35 24.501s18 23.334 24 38.001s9 30.667 9 48c0 36 -10 65 -30 87s-45.667 33 -77 33z" />
    <glyph glyph-name="colon" unicode=":" horiz-adv-x="247" 
d="M40 73c0 23.333 8 43.166 24 59.499s35.667 24.5 59 24.5s43.166 -8.16699 59.499 -24.5s24.5 -36.166 24.5 -59.499s-8.16699 -43 -24.5 -59s-36.166 -24 -59.499 -24s-43 8 -59 24s-24 35.667 -24 59zM40 358c0 23.333 8 43.166 24 59.499s35.667 24.5 59 24.5
s43.166 -8.16699 59.499 -24.5s24.5 -36.166 24.5 -59.499s-8.16699 -43 -24.5 -59s-36.166 -24 -59.499 -24s-43 8 -59 24s-24 35.667 -24 59z" />
    <glyph glyph-name="semicolon" unicode=";" horiz-adv-x="247" 
d="M40 358c0 23.333 8 43.166 24 59.499s35.667 24.5 59 24.5s43.166 -8.16699 59.499 -24.5s24.5 -36.166 24.5 -59.499s-8.16699 -43 -24.5 -59s-36.166 -24 -59.499 -24s-43 8 -59 24s-24 35.667 -24 59zM205 118l-88 -284l-97 31l50 285z" />
    <glyph glyph-name="less" unicode="&#x3c;" 
d="M536 578v-136l-295 -139l295 -139v-136l-468 233v84z" />
    <glyph glyph-name="equal" unicode="=" 
d="M537 452v-120h-470v120h470zM537 237v-120h-470v120h470z" />
    <glyph glyph-name="greater" unicode="&#x3e;" 
d="M536 345v-84l-468 -233v136l295 139l-295 139v136z" />
    <glyph glyph-name="question" unicode="?" horiz-adv-x="517" 
d="M197 220l0.00390625 113.997c18.667 8 37.167 17.333 55.5 28s34.833 22.667 49.5 36s26.5 27.833 35.5 43.5s13.5 32.834 13.5 51.501c0 27.333 -8.5 49.333 -25.5 66s-40.833 25 -71.5 25c-36 0 -63 -10 -81 -30s-25.667 -51.667 -23 -95h-134
c-4 38 -0.666992 72.333 10 103s26.667 56.834 48 78.501s47.166 38.334 77.499 50.001s63.166 17.5 98.499 17.5c37.333 0 70.666 -5.66699 99.999 -17s54.166 -26.833 74.499 -46.5s35.833 -43 46.5 -70s16 -56.167 16 -87.5c0 -26 -4.5 -50 -13.5 -72
s-20.833 -41.833 -35.5 -59.5s-31.167 -33 -49.5 -46s-36.833 -23.5 -55.5 -31.5v-58h-136zM185.004 72.9971c0 23.333 8 43.166 24 59.499s35.667 24.5 59 24.5s43.166 -8.16699 59.499 -24.5s24.5 -36.166 24.5 -59.499s-8.16699 -43 -24.5 -59s-36.166 -24 -59.499 -24
s-43 8 -59 24s-24 35.667 -24 59z" />
    <glyph glyph-name="at" unicode="@" horiz-adv-x="1029" 
d="M969 295c0 -40 -5.33398 -76.998 -16.001 -110.998s-25.167 -63.5 -43.5 -88.5s-40.333 -44.5 -66 -58.5s-53.5 -21 -83.5 -21c-22.667 0 -45.334 5.16699 -68.001 15.5s-41 26.166 -55 47.499c-11.333 -19.333 -26.833 -36.333 -46.5 -51s-46.5 -22 -80.5 -22
c-30 0 -57.667 4.83301 -83 14.5s-47 23.667 -65 42s-32.167 40.666 -42.5 66.999s-15.5 55.833 -15.5 88.5c0 31.333 5 59.666 15 84.999s23.5 47 40.5 65s36.833 32 59.5 42s46.334 15 71.001 15c32 0 57.667 -6.5 77 -19.5s33.666 -27.833 42.999 -44.5l10 54h105v-280
c12 -11.333 25.667 -17 41 -17c11.333 0 22.333 4.5 33 13.5s20.167 21.5 28.5 37.5s15 34.833 20 56.5s7.5 44.834 7.5 69.501c0 44 -7.66699 85 -23 123s-37.166 71 -65.499 99s-62.5 50 -102.5 66s-84.333 24 -133 24c-51.333 0 -98.5 -9.5 -141.5 -28.5
s-80.167 -45.5 -111.5 -79.5s-55.833 -74.333 -73.5 -121s-26.5 -97.667 -26.5 -153c0 -58 9.33301 -111.167 28 -159.5s44.167 -89.833 76.5 -124.5s70.166 -61.5 113.499 -80.5s89.333 -28.5 138 -28.5c24.667 0 50.5 1.66699 77.5 5s53.833 8.66602 80.5 15.999
s53 16.833 79 28.5s50.667 26.167 74 43.5l41 -97c-58.667 -36 -116.5 -61.333 -173.5 -76s-116.833 -22 -179.5 -22c-65.333 0 -126.666 11.5 -183.999 34.5s-107.333 56 -150 99s-76.5 95 -101.5 156s-37.5 129.5 -37.5 205.5c0 68.667 11.5 132.5 34.5 191.5
s55.333 110.167 97 153.5s91.334 77.333 149.001 102s121.167 37 190.5 37c66.667 0 127 -10.5 181 -31.5s100 -50 138 -87s67.333 -80.667 88 -131s31 -105.166 31 -164.499zM512.999 111.002c28 0 50.832 9.33105 68.499 27.998s26.5 45 26.5 79
c0 32.667 -8.66699 57.834 -26 75.501s-38.666 26.5 -63.999 26.5c-28 0 -50.667 -9.16699 -68 -27.5s-26 -43.166 -26 -74.499c0 -34 8.5 -60.333 25.5 -79s38.167 -28 63.5 -28z" />
    <glyph glyph-name="A" unicode="A" horiz-adv-x="718" 
d="M359 479l-96 -223h192zM209 131l-57 -131h-152l312 702h94l312 -702h-152l-57 131h-300z" />
    <glyph glyph-name="B" unicode="B" horiz-adv-x="639" 
d="M206 128h136c17.333 0 33.5 1.5 48.5 4.5s28 7.83301 39 14.5s19.667 15.167 26 25.5s9.5 22.833 9.5 37.5c0 30 -10.833 51.167 -32.5 63.5s-53.167 18.5 -94.5 18.5h-132v-164zM64 0l-0.00195312 700.001h265c34 0 65.667 -3.33301 95 -10s55 -17.667 77 -33
s39.167 -35.333 51.5 -60s18.5 -54.667 18.5 -90s-8.66699 -64.5 -26 -87.5s-40.333 -39.833 -69 -50.5c38 -6.66699 69.333 -23.834 94 -51.501s37 -63.167 37 -106.5c0 -35.333 -6.66699 -66.333 -20 -93s-31.666 -48.667 -54.999 -66s-51.166 -30.333 -83.499 -39
s-67.833 -13 -106.5 -13h-278zM205.998 420.001l112.001 -0.000976562c41.333 0 70.166 6 86.499 18s24.5 31.333 24.5 58c0 14.667 -2.83301 26.834 -8.5 36.501s-13 17.5 -22 23.5s-19.667 10.167 -32 12.5s-24.833 3.5 -37.5 3.5h-123v-152z" />
    <glyph glyph-name="C" unicode="C" horiz-adv-x="738" 
d="M382 124c22.667 0 43.668 3.3291 63.001 9.99609s36.5 15.667 51.5 27s27.5 24.333 37.5 39s17 30.334 21 47.001h153c-9.33301 -36 -23.5 -69.667 -42.5 -101s-42.667 -58.5 -71 -81.5s-60.833 -41 -97.5 -54s-76.667 -19.5 -120 -19.5
c-47.333 0 -91.833 9.33301 -133.5 28s-78 44.334 -109 77.001s-55.5 70.834 -73.5 114.501s-27 90.167 -27 139.5s9 95.833 27 139.5s42.5 81.834 73.5 114.501s67.333 58.5 109 77.5s86.167 28.5 133.5 28.5c43.333 0 83 -6.5 119 -19.5s67.833 -30.833 95.5 -53.5
s51 -49.5 70 -80.5s33.5 -64.5 43.5 -100.5h-153c-4.66699 16 -11.834 31.333 -21.501 46s-21.667 27.5 -36 38.5s-31 19.833 -50 26.5s-39.833 10 -62.5 10c-29.333 0 -56.333 -5.83301 -81 -17.5s-46 -27.834 -64 -48.501s-32.167 -44.667 -42.5 -72s-15.5 -57 -15.5 -89
s5.16699 -61.667 15.5 -89s24.5 -51.166 42.5 -71.499s39.333 -36.333 64 -48s51.667 -17.5 81 -17.5z" />
    <glyph glyph-name="D" unicode="D" horiz-adv-x="711" 
d="M64 700l268 -0.00195312c55.333 0 104.333 -8.83301 147 -26.5s78.5 -42.167 107.5 -73.5s51 -68.166 66 -110.499s22.5 -88.166 22.5 -137.499c0 -50.667 -7.16699 -97.5 -21.5 -140.5s-35.5 -80.167 -63.5 -111.5s-63 -55.833 -105 -73.5s-90.667 -26.5 -146 -26.5
h-275v700zM339 131.998c34 0 63 5.33496 87 16.002s43.833 25.667 59.5 45s27.167 42.5 34.5 69.5s11 56.833 11 89.5c0 31.333 -4 60.166 -12 86.499s-20.167 49.166 -36.5 68.499s-37 34.333 -62 45s-54.5 16 -88.5 16h-124v-436h131z" />
    <glyph glyph-name="E" unicode="E" horiz-adv-x="587" 
d="M208 568v-147h305v-132h-305v-157h339v-132h-483v700h483v-132h-339z" />
    <glyph glyph-name="F" unicode="F" horiz-adv-x="559" 
d="M208 568v-147h295v-132h-295v-289h-144v700h473v-132h-329z" />
    <glyph glyph-name="G" unicode="G" horiz-adv-x="750" 
d="M384 124c54 0 96.498 13.3311 127.498 39.998s50.5 62.667 58.5 108h-186v128h334v-57c0 -58 -8.66699 -109 -26 -153s-41.166 -80.667 -71.499 -110s-65.833 -51.5 -106.5 -66.5s-84 -22.5 -130 -22.5c-48.667 0 -94.334 9.33301 -137.001 28
s-79.667 44.334 -111 77.001s-56.166 70.834 -74.499 114.501s-27.5 90.167 -27.5 139.5s9 95.833 27 139.5s42.667 81.834 74 114.501s68 58.5 110 77.5s86.667 28.5 134 28.5c44 0 84.5 -7 121.5 -21s69.5 -32.667 97.5 -56s51.333 -50.333 70 -81
s32.334 -62.667 41.001 -96h-153c-4.66699 16 -12 31.167 -22 45.5s-22.333 27.166 -37 38.499s-31.5 20.333 -50.5 27s-39.833 10 -62.5 10c-29.333 0 -56.333 -5.83301 -81 -17.5s-46.334 -27.834 -65.001 -48.501s-33.167 -44.667 -43.5 -72s-15.5 -57 -15.5 -89
s5.16699 -61.667 15.5 -89s24.833 -51.166 43.5 -71.499s40.334 -36.333 65.001 -48s51.667 -17.5 81 -17.5z" />
    <glyph glyph-name="H" unicode="H" horiz-adv-x="732" 
d="M668 0h-144v289h-316v-289h-144v700h144v-279h316v279h144v-700z" />
    <glyph glyph-name="I" unicode="I" horiz-adv-x="284" 
d="M214 0h-144v700h144v-700z" />
    <glyph glyph-name="J" unicode="J" horiz-adv-x="528" 
d="M322 700l144 -0.000976562v-480c0 -34 -5.5 -65 -16.5 -93s-26.667 -52 -47 -72s-45 -35.5 -74 -46.5s-61.833 -16.5 -98.5 -16.5c-29.333 0 -57.5 4 -84.5 12s-51.5 20.5 -73.5 37.5s-40.333 38.667 -55 65s-23.667 57.5 -27 93.5h144
c6.66699 -31.333 18.5 -52.166 35.5 -62.499s37.167 -15.5 60.5 -15.5c28.667 0 51.167 8.5 67.5 25.5s24.5 41.167 24.5 72.5v480z" />
    <glyph glyph-name="K" unicode="K" horiz-adv-x="608" 
d="M211 293l-17 -16v-277h-144v700h144v-264l245 264h178l-301 -323l306 -377h-174z" />
    <glyph glyph-name="L" unicode="L" horiz-adv-x="547" 
d="M208 700v-568h329v-132h-473v700h144z" />
    <glyph glyph-name="M" unicode="M" horiz-adv-x="882" 
d="M674 700h107l71 -700h-145l-37 391l-189 -391h-80l-189 391l-37 -391h-145l71 700h107l233 -483z" />
    <glyph glyph-name="N" unicode="N" horiz-adv-x="725" 
d="M661 0h-115l-338 443v-443h-144v700h104l349 -452v452h144v-700z" />
    <glyph glyph-name="O" unicode="O" horiz-adv-x="754" 
d="M377 710c47.333 0 91.833 -9.5 133.5 -28.5s78 -44.833 109 -77.5s55.5 -70.834 73.5 -114.501s27 -90.167 27 -139.5s-9 -95.833 -27 -139.5s-42.5 -81.834 -73.5 -114.501s-67.333 -58.334 -109 -77.001s-86.167 -28 -133.5 -28s-91.833 9.33301 -133.5 28
s-78 44.334 -109 77.001s-55.5 70.834 -73.5 114.501s-27 90.167 -27 139.5s9 95.833 27 139.5s42.5 81.834 73.5 114.501s67.333 58.5 109 77.5s86.167 28.5 133.5 28.5zM377 577c-28 0 -54 -5.83301 -78 -17.5s-44.833 -27.834 -62.5 -48.501s-31.667 -44.667 -42 -72
s-15.5 -57 -15.5 -89s5.16699 -61.667 15.5 -89s24.333 -51.166 42 -71.499s38.5 -36.333 62.5 -48s50 -17.5 78 -17.5s54 5.83301 78 17.5s44.833 27.667 62.5 48s31.667 44.166 42 71.499s15.5 57 15.5 89s-5.16699 61.667 -15.5 89s-24.333 51.333 -42 72
s-38.5 36.834 -62.5 48.501s-50 17.5 -78 17.5z" />
    <glyph glyph-name="P" unicode="P" horiz-adv-x="614" 
d="M208 0h-144.001v700h267c36 0 69.333 -4.16699 100 -12.5s57.334 -21.5 80.001 -39.5s40.5 -41.167 53.5 -69.5s19.5 -62.833 19.5 -103.5c0 -38.667 -6.33301 -71.667 -19 -99s-30.167 -49.833 -52.5 -67.5s-48.833 -30.667 -79.5 -39s-64 -12.5 -100 -12.5h-125v-257z
M332.999 387c32 0 57.833 6.99902 77.5 20.999s29.5 37 29.5 69c0 32.667 -9.83301 56.334 -29.5 71.001s-46.167 22 -79.5 22h-125v-183h127z" />
    <glyph glyph-name="Q" unicode="Q" horiz-adv-x="760" 
d="M377 710c47.333 0 91.833 -9.33301 133.5 -28s78 -44 109 -76s55.5 -69.667 73.5 -113s27 -89.666 27 -138.999s-10.667 -93.833 -32 -133.5s-47 -70.167 -77 -91.5h127v-129h-361c-47.333 0 -91.833 9.16699 -133.5 27.5s-78 43.5 -109 75.5s-55.5 69.5 -73.5 112.5
s-27 89.167 -27 138.5s9 95.666 27 138.999s42.5 81 73.5 113s67.333 57.333 109 76s86.167 28 133.5 28zM377 577c-28 0 -54 -5.66699 -78 -17s-44.833 -27 -62.5 -47s-31.667 -43.5 -42 -70.5s-15.5 -56.5 -15.5 -88.5s5.16699 -61.5 15.5 -88.5s24.333 -50.333 42 -70
s38.5 -35 62.5 -46s50 -16.5 78 -16.5s54 5.5 78 16.5s44.833 26.333 62.5 46s31.667 43 42 70s15.5 56.5 15.5 88.5s-5.16699 61.5 -15.5 88.5s-24.333 50.5 -42 70.5s-38.5 35.667 -62.5 47s-50 17 -78 17z" />
    <glyph glyph-name="R" unicode="R" horiz-adv-x="638" 
d="M208 0l-144.001 0.000976562v700h281c36 0 69.333 -3.83301 100 -11.5s57.334 -20 80.001 -37s40.5 -39.333 53.5 -67s19.5 -61.834 19.5 -102.501c0 -57.333 -13.667 -102 -41 -134s-63.333 -53.667 -108 -65l173 -283h-154l-166 271h-94v-271zM346.999 401.001
c32 0 57.833 6 77.5 18s29.5 33.667 29.5 65c0 32 -9.83301 54.333 -29.5 67s-46.167 19 -79.5 19h-139v-169h141z" />
    <glyph glyph-name="S" unicode="S" horiz-adv-x="564" 
d="M293 121c12.667 0 25.166 1.33496 37.499 4.00195s23.333 7 33 13s17.5 13.5 23.5 22.5s9 20.167 9 33.5c0 14 -4 26.167 -12 36.5s-19 19.666 -33 27.999s-30.333 15.833 -49 22.5l-59 21c-30 10.667 -58 21.5 -84 32.5s-48.5 24.333 -67.5 40s-34 34.5 -45 56.5
s-16.5 49.333 -16.5 82c0 24.667 5.16699 48.834 15.5 72.501s25.666 44.834 45.999 63.501s46 33.5 77 44.5s67.5 16.5 109.5 16.5c30.667 0 60 -4.5 88 -13.5s53.333 -22.333 76 -40s41.834 -39.5 57.501 -65.5s26.5 -55.667 32.5 -89h-144
c-6 25.333 -18.833 44.666 -38.5 57.999s-43.5 20 -71.5 20c-37.333 0 -64.333 -6.5 -81 -19.5s-25 -28.5 -25 -46.5c0 -12 3.33301 -22.5 10 -31.5s15.5 -17 26.5 -24s24 -13.333 39 -19s30.5 -11.167 46.5 -16.5c35.333 -12 67.833 -24.333 97.5 -37
s55.334 -27.334 77.001 -44.001s38.667 -36.334 51 -59.001s18.5 -50 18.5 -82c0 -34 -7 -64 -21 -90s-32.5 -47.833 -55.5 -65.5s-49.667 -31.167 -80 -40.5s-61.833 -14 -94.5 -14c-73.333 0 -133.333 18 -180 54s-76.334 87.667 -89.001 155h144
c6.66699 -28.667 20.834 -49 42.501 -61s51.167 -18 88.5 -18z" />
    <glyph glyph-name="T" unicode="T" horiz-adv-x="576" 
d="M566 568h-206v-568h-144v568h-206v132h556v-132z" />
    <glyph glyph-name="U" unicode="U" horiz-adv-x="710" 
d="M355 124c51.333 0 89 16 113 48s36 73.667 36 125v403h144v-403c0 -44.667 -6.16699 -85.667 -18.5 -123s-30.666 -69.5 -54.999 -96.5s-54.833 -48 -91.5 -63s-79.334 -22.5 -128.001 -22.5s-91.334 7.5 -128.001 22.5s-67.167 36 -91.5 63s-42.666 59.167 -54.999 96.5
s-18.5 78.333 -18.5 123v403h144v-403c0 -51.333 12 -93 36 -125s61.667 -48 113 -48z" />
    <glyph glyph-name="V" unicode="V" horiz-adv-x="718" 
d="M564 702h154l-312 -702h-94l-312 702h154l205 -465z" />
    <glyph glyph-name="W" unicode="W" horiz-adv-x="1012" 
d="M555 700l163 -431l138 431h150l-233 -700h-100l-167 435l-167 -435h-100l-233 700h150l140 -431l161 431h98z" />
    <glyph glyph-name="X" unicode="X" horiz-adv-x="653" 
d="M326 257l-177 -257h-159l257 361l-241 339h159l161 -235l162 235h159l-241 -339l257 -361h-159z" />
    <glyph glyph-name="Y" unicode="Y" horiz-adv-x="606" 
d="M463 700h153l-241 -405v-295h-144v295l-241 405h153l160 -276z" />
    <glyph glyph-name="Z" unicode="Z" horiz-adv-x="584" 
d="M26 0v106l343 468h-330v126h509v-106l-342 -468h352v-126h-532z" />
    <glyph glyph-name="bracketleft" unicode="[" horiz-adv-x="327" 
d="M317 700v-112h-107v-726h107v-112h-241v950h241z" />
    <glyph glyph-name="backslash" unicode="\" horiz-adv-x="584" 
d="M-20 760l118 61l506 -879l-114 -66z" />
    <glyph glyph-name="bracketright" unicode="]" horiz-adv-x="327" 
d="M251 700v-950h-241v112h107v726h-107v112h241z" />
    <glyph glyph-name="asciicircum" unicode="^" horiz-adv-x="617" 
d="M587 317h-154l-124 232l-125 -232h-154l233 383h91z" />
    <glyph glyph-name="underscore" unicode="_" horiz-adv-x="438" 
d="M20 -60h398v-90h-398v90z" />
    <glyph glyph-name="grave" unicode="`" horiz-adv-x="320" 
d="M96 714l199 -169l-62 -66l-209 132z" />
    <glyph glyph-name="a" unicode="a" horiz-adv-x="451" 
d="M219 315c-18 0 -32.5039 -3.99805 -43.5039 -11.998s-18.5 -18 -22.5 -30h-118c4.66699 17.333 11.834 34.166 21.501 50.499s22.167 31 37.5 44s33.833 23.333 55.5 31s46.834 11.5 75.501 11.5c29.333 0 55 -3.83301 77 -11.5s40.5 -18.334 55.5 -32.001
s26.333 -29.667 34 -48s11.5 -38.166 11.5 -59.499v-259h-110l-10 50c-10.667 -15.333 -24.667 -28.333 -42 -39s-41 -16 -71 -16c-21.333 0 -40.666 3 -57.999 9s-32.5 14.5 -45.5 25.5s-23 24 -30 39s-10.5 31.5 -10.5 49.5c0 45.333 16.333 77.666 49 96.999
s77.334 29 134.001 29h74v16c0 13.333 -4.83301 25.833 -14.5 37.5s-26.167 17.5 -49.5 17.5zM192.996 90.002c23.333 0 44.168 4.83301 62.501 14.5s27.5 23.167 27.5 40.5v21h-74c-22.667 0 -38.834 -4 -48.501 -12s-14.5 -17 -14.5 -27
c0 -11.333 4.16699 -20.333 12.5 -27s19.833 -10 34.5 -10z" />
    <glyph glyph-name="b" unicode="b" horiz-adv-x="512" 
d="M52 653l130.004 0.00195312v-297c10 13.333 25.167 25.666 45.5 36.999s45.166 17 74.499 17c25.333 0 48.666 -5.33301 69.999 -16s39.833 -25.5 55.5 -44.5s28 -41.167 37 -66.5s13.5 -53 13.5 -83c0 -34.667 -5.16699 -65 -15.5 -91s-24 -47.833 -41 -65.5
s-36.5 -31 -58.5 -40s-45 -13.5 -69 -13.5c-24.667 0 -47.334 6.16699 -68.001 18.5s-35.334 26.166 -44.001 41.499l-10 -50h-120v653zM269.004 294.002c-24 0 -44.833 -8.33301 -62.5 -25s-26.5 -39.667 -26.5 -69s8.83301 -52.333 26.5 -69s38.5 -25 62.5 -25
s43.5 8.33301 58.5 25s22.5 39.667 22.5 69s-7.5 52.333 -22.5 69s-34.5 25 -58.5 25z" />
    <glyph glyph-name="c" unicode="c" horiz-adv-x="474" 
d="M314 247c-3.33301 13.333 -11.6699 24.498 -25.0029 33.498s-27.666 13.5 -42.999 13.5c-24 0 -44.333 -8.33301 -61 -25s-25 -39.667 -25 -69s8.33301 -52.333 25 -69s37 -25 61 -25c18.667 0 33.5 4.5 44.5 13.5s18.833 20.167 23.5 33.5h130
c-2.66699 -22.667 -9.16699 -44 -19.5 -64s-24 -37.333 -41 -52s-37.167 -26.167 -60.5 -34.5s-49.333 -12.5 -78 -12.5c-32 0 -61.167 5.5 -87.5 16.5s-48.666 26 -66.999 45s-32.666 41.333 -42.999 67s-15.5 52.834 -15.5 81.501s5.16699 55.834 15.5 81.501
s24.833 48 43.5 67s41 34 67 45s55 16.5 87 16.5c28.667 0 54.667 -4.16699 78 -12.5s43.5 -19.833 60.5 -34.5s30.667 -32 41 -52s16.833 -41.333 19.5 -64h-130z" />
    <glyph glyph-name="d" unicode="d" horiz-adv-x="512" 
d="M460 0l-119.996 -0.00195312l-10 50c-8.66699 -15.333 -23.334 -29.166 -44.001 -41.499s-43.334 -18.5 -68.001 -18.5c-24 0 -47.167 4.5 -69.5 13.5s-42 22.333 -59 40s-30.5 39.5 -40.5 65.5s-15 56.333 -15 91c0 30 4.5 57.667 13.5 83s21.333 47.5 37 66.5
s34.167 33.833 55.5 44.5s44.666 16 69.999 16c29.333 0 54.166 -5.66699 74.499 -17s35.5 -23.666 45.5 -36.999v297h130v-653zM243.004 293.998c-24 0 -43.5 -8.33301 -58.5 -25s-22.5 -39.667 -22.5 -69s7.5 -52.333 22.5 -69s34.5 -25 58.5 -25s44.833 8.33301 62.5 25
s26.5 39.667 26.5 69s-8.83301 52.333 -26.5 69s-38.5 25 -62.5 25z" />
    <glyph glyph-name="e" unicode="e" horiz-adv-x="482" 
d="M152 173c4.66699 -21.333 14.498 -40.502 29.498 -57.502s37.167 -25.5 66.5 -25.5c18.667 0 34.667 4.83301 48 14.5s22.333 21.167 27 34.5h119c-10.667 -44 -32.167 -79.833 -64.5 -107.5s-76.5 -41.5 -132.5 -41.5c-32 0 -61 5.5 -87 16.5s-48.333 26 -67 45
s-33.167 41.333 -43.5 67s-15.5 52.834 -15.5 81.501s5.16699 55.834 15.5 81.501s24.833 48 43.5 67s40.834 34 66.501 45s53.834 16.5 84.501 16.5c31.333 0 59.833 -5.83301 85.5 -17.5s47.5 -27 65.5 -46s32 -40.5 42 -64.5s15 -48.667 15 -74v-15.5
c0 -5 -0.666992 -11.5 -2 -19.5h-296zM249.998 309.998c-24.667 0 -44.5 -6.83301 -59.5 -20.5s-25.833 -29.167 -32.5 -46.5h173c-2.66699 16 -11.667 31.167 -27 45.5s-33.333 21.5 -54 21.5z" />
    <glyph glyph-name="f" unicode="f" horiz-adv-x="326" 
d="M6 400h69v90c0 57.333 16.5 99.5 49.5 126.5s79.5 40.5 139.5 40.5c13.333 0 26.333 -0.5 39 -1.5s23.667 -2.16699 33 -3.5v-117c-9.33301 1.33301 -19.5 2.33301 -30.5 3s-22.167 1 -33.5 1c-23.333 0 -40.333 -4.16699 -51 -12.5s-16 -23.5 -16 -45.5v-81h107v-118
h-107v-282h-130v282h-69v118z" />
    <glyph glyph-name="g" unicode="g" horiz-adv-x="466" 
d="M45 236c0 24 4.83301 46.502 14.5 67.502s23 39.333 40 55s36.5 28.167 58.5 37.5s45.667 14 71 14h212v-91l-62 -6c11.333 -10 20 -22.667 26 -38s9 -33.666 9 -54.999c0 -20.667 -4.83301 -40.5 -14.5 -59.5s-22.667 -35.833 -39 -50.5s-35 -26.334 -56 -35.001
s-42.5 -13 -64.5 -13c-24 0 -43.333 3 -58 9s-27.667 13.667 -39 23c-3.33301 -1.33301 -6.83301 -4.83301 -10.5 -10.5s-5.5 -13.167 -5.5 -22.5c0 -8.66699 3.5 -18.334 10.5 -29.001s19.167 -16 36.5 -16h76c64.667 0 113.167 -13.833 145.5 -41.5
s48.5 -66.5 48.5 -116.5c0 -48.667 -17.333 -88.5 -52 -119.5s-85 -46.5 -151 -46.5c-35.333 0 -65.833 4.33301 -91.5 13s-47 20.334 -64 35.001s-29.667 31.5 -38 50.5s-12.5 38.833 -12.5 59.5c0 11.333 1.66699 22.666 5 33.999s7.66602 22 12.999 32
s11.5 18.833 18.5 26.5s14.5 13.5 22.5 17.5c-17.333 6.66699 -33.666 19 -48.999 37s-23 39.667 -23 65c0 22 5 41.5 15 58.5s21 30.5 33 40.5c-7.33301 9.33301 -13.333 20.666 -18 33.999s-7 27 -7 41zM182 -87.998c-8 -5.33301 -14.667 -12.166 -20 -20.499
s-8 -19.5 -8 -33.5c0 -18 7 -32.667 21 -44s36 -17 66 -17s51.667 5.33301 65 16s20 25.667 20 45c0 17.333 -5.16699 30.666 -15.5 39.999s-30.5 14 -60.5 14h-68zM164 236.002c0 -21.333 5.99902 -38.166 17.999 -50.499s28 -18.5 48 -18.5
c19.333 0 35.166 6.16699 47.499 18.5s18.5 29.166 18.5 50.499c0 20.667 -6.16699 37.334 -18.5 50.001s-28.166 19 -47.499 19s-35.166 -6.33301 -47.499 -19s-18.5 -29.334 -18.5 -50.001z" />
    <glyph glyph-name="h" unicode="h" horiz-adv-x="520" 
d="M52 653l130.001 0.000976562v-297c13.333 13.333 30.5 25.666 51.5 36.999s47.833 17 80.5 17c22 0 42.5 -3.66699 61.5 -11s35.667 -17.833 50 -31.5s25.666 -30.334 33.999 -50.001s12.5 -42.167 12.5 -67.5v-250h-130v219c0 48.667 -22 73 -66 73
c-22 0 -41 -6.16699 -57 -18.5s-28.333 -27.166 -37 -44.499v-229h-130v653z" />
    <glyph glyph-name="i" unicode="i" horiz-adv-x="246" 
d="M58 400h130v-400h-130v400zM43 577c0 22.667 7.66699 41.667 23 57s34.333 23 57 23s41.667 -7.66699 57 -23s23 -34.333 23 -57s-7.66699 -41.667 -23 -57s-34.333 -23 -57 -23s-41.667 7.66699 -57 23s-23 34.333 -23 57z" />
    <glyph glyph-name="j" unicode="j" horiz-adv-x="246" 
d="M188 -80c0 -120 -56.667 -180 -170 -180c-11.333 0 -22 0.333008 -32 1s-21 2 -33 4v116c10 -1.33301 20 -2.5 30 -3.5s18.667 -1.5 26 -1.5c32.667 0 49 20.667 49 62v482h130v-480zM43 577c0 22.667 7.66699 41.667 23 57s34.333 23 57 23s41.667 -7.66699 57 -23
s23 -34.333 23 -57s-7.66699 -41.667 -23 -57s-34.333 -23 -57 -23s-41.667 7.66699 -57 23s-23 34.333 -23 57z" />
    <glyph glyph-name="k" unicode="k" horiz-adv-x="457" 
d="M52 653h130v-366l115 113h159l-187 -175l190 -225h-147l-130 160v-160h-130v653z" />
    <glyph glyph-name="l" unicode="l" horiz-adv-x="246" 
d="M58 653h130v-653h-130v653z" />
    <glyph glyph-name="m" unicode="m" horiz-adv-x="770" 
d="M452 0l-129.999 0.00390625v219c0 24.667 -4.33301 43 -13 55s-23 18 -43 18s-36.833 -6.83301 -50.5 -20.5s-24.834 -29.834 -33.501 -48.501v-223h-130v400h120l10 -50c13.333 15.333 29.333 29.166 48 41.499s43.334 18.5 74.001 18.5c28 0 53 -6.5 75 -19.5
s39.667 -31.167 53 -54.5c17.333 20.667 38.333 38.167 63 52.5s51 21.5 79 21.5c20.667 0 40 -3.66699 58 -11s33.667 -17.833 47 -31.5s23.833 -30.334 31.5 -50.001s11.5 -42.167 11.5 -67.5v-250h-130v219c0 24.667 -4.33301 43 -13 55s-23 18 -43 18
s-36.833 -6.83301 -50.5 -20.5s-24.834 -29.834 -33.501 -48.501v-223z" />
    <glyph glyph-name="n" unicode="n" horiz-adv-x="520" 
d="M52 400l120.001 0.00292969l10 -50c13.333 15.333 30.5 29.166 51.5 41.499s47.833 18.5 80.5 18.5c22 0 42.5 -3.66699 61.5 -11s35.667 -17.833 50 -31.5s25.666 -30.334 33.999 -50.001s12.5 -42.167 12.5 -67.5v-250h-130v219c0 48.667 -22 73 -66 73
c-22 0 -41 -6.83301 -57 -20.5s-28.333 -29.834 -37 -48.501v-223h-130v400z" />
    <glyph glyph-name="o" unicode="o" horiz-adv-x="482" 
d="M160 200c0 -29.333 7.5 -52.333 22.5 -69s34.5 -25 58.5 -25s43.5 8.33301 58.5 25s22.5 39.667 22.5 69s-7.5 52.333 -22.5 69s-34.5 25 -58.5 25s-43.5 -8.33301 -58.5 -25s-22.5 -39.667 -22.5 -69zM32 200c0 28.667 5.16699 55.834 15.5 81.501s24.666 48 42.999 67
s40.333 34 66 45s53.834 16.5 84.501 16.5s58.834 -5.5 84.501 -16.5s47.667 -26 66 -45s32.666 -41.333 42.999 -67s15.5 -52.834 15.5 -81.501s-5.16699 -55.834 -15.5 -81.501s-24.666 -48 -42.999 -67s-40.333 -34 -66 -45s-53.834 -16.5 -84.501 -16.5
s-58.834 5.5 -84.501 16.5s-47.667 26 -66 45s-32.666 41.333 -42.999 67s-15.5 52.834 -15.5 81.501z" />
    <glyph glyph-name="p" unicode="p" horiz-adv-x="512" 
d="M52 400l120.002 0.00195312l10 -50c11.333 15.333 26.666 29.166 45.999 41.499s45.666 18.5 78.999 18.5c20 0 40.167 -4.5 60.5 -13.5s38.666 -22.333 54.999 -40s29.666 -39.5 39.999 -65.5s15.5 -56.333 15.5 -91c0 -30 -4.5 -57.667 -13.5 -83
s-21.333 -47.5 -37 -66.5s-34.167 -33.833 -55.5 -44.5s-44.666 -16 -69.999 -16c-29.333 0 -54.166 5.66699 -74.499 17s-35.5 23.666 -45.5 36.999v-294h-130v650zM269.002 106.002c24 0 43.5 8.33301 58.5 25s22.5 39.667 22.5 69s-7.5 52.333 -22.5 69
s-34.5 25 -58.5 25s-44.833 -8.33301 -62.5 -25s-26.5 -39.667 -26.5 -69s8.83301 -52.333 26.5 -69s38.5 -25 62.5 -25z" />
    <glyph glyph-name="q" unicode="q" horiz-adv-x="512" 
d="M460 -250l-129.998 -0.00195312v294c-10 -13.333 -25.167 -25.666 -45.5 -36.999s-45.166 -17 -74.499 -17c-25.333 0 -48.666 5.33301 -69.999 16s-39.833 25.5 -55.5 44.5s-28 41.167 -37 66.5s-13.5 53 -13.5 83c0 34.667 5.16699 65 15.5 91
s23.666 47.833 39.999 65.5s34.666 31 54.999 40s40.5 13.5 60.5 13.5c33.333 0 59.666 -6.16699 78.999 -18.5s34.666 -26.166 45.999 -41.499l10 50h120v-650zM243.002 105.998c24 0 44.833 8.33301 62.5 25s26.5 39.667 26.5 69s-8.83301 52.333 -26.5 69
s-38.5 25 -62.5 25s-43.5 -8.33301 -58.5 -25s-22.5 -39.667 -22.5 -69s7.5 -52.333 22.5 -69s34.5 -25 58.5 -25z" />
    <glyph glyph-name="r" unicode="r" horiz-adv-x="344" 
d="M52 400l119.998 0.000976562l10 -50l21.5 22c7.66699 8 17.334 15.333 29.001 22s25.5 11.667 41.5 15s36 3.66602 60 0.999023v-118c-18.667 2.66699 -36.167 2.16699 -52.5 -1.5s-31.166 -9.16699 -44.499 -16.5s-24.833 -15.5 -34.5 -24.5s-16.5 -17.833 -20.5 -26.5
v-223h-130v400z" />
    <glyph glyph-name="s" unicode="s" horiz-adv-x="374" 
d="M185 95c13.333 0 24.666 1.66895 33.999 5.00195s14 9.66602 14 18.999c0 11.333 -6.33301 19 -19 23s-29 8.66699 -49 14c-19.333 5.33301 -37.333 11.333 -54 18s-31.334 15 -44.001 25s-22.667 22.167 -30 36.5s-11 31.833 -11 52.5c0 34.667 13.667 63.667 41 87
s65 35 113 35c26 0 49 -3.83301 69 -11.5s36.833 -17.834 50.5 -30.501s24.5 -27 32.5 -43s13 -32.333 15 -49h-118c-6 20 -21 30 -45 30c-11.333 0 -20.333 -2 -27 -6s-10 -9.33301 -10 -16c0 -8.66699 6 -15 18 -19s30.667 -9.33301 56 -16
c14.667 -4 29.834 -9.16699 45.501 -15.5s30 -14.833 43 -25.5s23.667 -23.5 32 -38.5s12.5 -33.167 12.5 -54.5c0 -20 -4.5 -37.667 -13.5 -53s-21 -28.333 -36 -39s-32.5 -18.667 -52.5 -24s-41 -8 -63 -8c-48.667 0 -87.667 12 -117 36s-48 57 -56 99h116
c4.66699 -20.667 22.334 -31 53.001 -31z" />
    <glyph glyph-name="t" unicode="t" horiz-adv-x="336" 
d="M2 400h75.002l20 142h107v-142h111v-118h-111v-128c0 -17.333 4.16699 -29.333 12.5 -36s22.166 -10 41.499 -10c16.667 0 36 2 58 6v-111c-16.667 -4.66699 -32.334 -7.83398 -47.001 -9.50098s-29.667 -2.5 -45 -2.5c-19.333 0 -38 2.33301 -56 7
s-34 12.334 -48 23.001s-25.167 25 -33.5 43s-12.5 40.667 -12.5 68v150h-72v118z" />
    <glyph glyph-name="u" unicode="u" horiz-adv-x="510" 
d="M460 0l-120.001 0.000976562l-10 50c-12.667 -16 -29.167 -30 -49.5 -42s-48.166 -18 -83.499 -18c-44 0 -79.833 14 -107.5 42s-41.5 67.333 -41.5 118v250h130v-226c0 -22 4.83301 -38.5 14.5 -49.5s25.5 -16.5 47.5 -16.5s40.5 6.66699 55.5 20
s26.5 29.666 34.5 48.999v223h130v-400z" />
    <glyph glyph-name="v" unicode="v" horiz-adv-x="449" 
d="M-10 400h132l102 -229l103 229h132l-197 -400h-76z" />
    <glyph glyph-name="w" unicode="w" horiz-adv-x="618" 
d="M417 192l66 208h129l-141 -400h-92l-70 213l-70 -213h-92l-141 400h129l66 -208l69 208h78z" />
    <glyph glyph-name="x" unicode="x" horiz-adv-x="451" 
d="M-2 400h141l86 -116l87 116h141l-157 -195l165 -205h-141l-95 125l-94 -125h-141l165 205z" />
    <glyph glyph-name="y" unicode="y" horiz-adv-x="449" 
d="M164 44l-174 356h132l102 -229l103 229h132l-320 -651h-116z" />
    <glyph glyph-name="z" unicode="z" horiz-adv-x="388" 
d="M29 400h326v-83l-179 -213h186v-104h-340v83l178 213h-171v104z" />
    <glyph glyph-name="braceleft" unicode="{" horiz-adv-x="352" 
d="M35 267c22.667 11.333 40.5 23.667 53.5 37s19.5 32.333 19.5 57v205c0 64.667 20 111.834 60 141.501s94.667 45.167 164 46.5v-122c-29.333 0 -51.833 -5.33301 -67.5 -16s-23.5 -29.667 -23.5 -57v-192c0 -18 -2.16699 -34.333 -6.5 -49s-10.166 -27.667 -17.499 -39
s-15.666 -21.666 -24.999 -30.999s-19 -17.666 -29 -24.999c10 -7.33301 19.667 -15.5 29 -24.5s17.666 -19.333 24.999 -31s13.166 -24.834 17.499 -39.501s6.5 -31.334 6.5 -50.001v-191c0 -28 7.83301 -47.167 23.5 -57.5s38.167 -15.5 67.5 -15.5v-122
c-69.333 1.33301 -124 16.666 -164 45.999s-60 76.666 -60 141.999v205c0 24.667 -6.5 43.834 -19.5 57.501s-30.833 26.167 -53.5 37.5v87z" />
    <glyph glyph-name="bar" unicode="|" horiz-adv-x="274" 
d="M204 -200h-134v1000h134v-1000z" />
    <glyph glyph-name="braceright" unicode="}" horiz-adv-x="352" 
d="M317 180c-22.667 -11.333 -40.5 -23.834 -53.5 -37.501s-19.5 -32.834 -19.5 -57.501v-205c0 -32.667 -5.16699 -60.667 -15.5 -84s-25.166 -42.666 -44.499 -57.999s-42.833 -26.666 -70.5 -33.999s-58.834 -11.333 -93.501 -12v122c29.333 0 51.833 5.16699 67.5 15.5
s23.5 29.5 23.5 57.5v191c0 18.667 2.16699 35.334 6.5 50.001s10.166 27.834 17.499 39.501s15.666 22 24.999 31s19 17.167 29 24.5c-10 7.33301 -19.667 15.666 -29 24.999s-17.666 19.666 -24.999 30.999s-13.166 24.333 -17.499 39s-6.5 31 -6.5 49v192
c0 27.333 -7.83301 46.333 -23.5 57s-38.167 16 -67.5 16v122c34.667 -0.666992 65.834 -4.83398 93.501 -12.501s51.167 -19 70.5 -34s34.166 -34.167 44.499 -57.5s15.5 -51.333 15.5 -84v-205c0 -24.667 6.5 -43.667 19.5 -57s30.833 -25.666 53.5 -36.999v-87z" />
    <glyph glyph-name="asciitilde" unicode="~" 
d="M209 342c17.333 0 33.3359 -3.16699 48.0029 -9.5s28.834 -13.166 42.501 -20.499s27.167 -14.166 40.5 -20.499s27.666 -9.5 42.999 -9.5c13.333 0 26 5 38 15s21.333 25 28 45l110 -48c-3.33301 -18.667 -9.33301 -36.167 -18 -52.5s-20 -30.666 -34 -42.999
s-30.333 -22 -49 -29s-39.667 -10.5 -63 -10.5c-17.333 0 -33.333 3.16699 -48 9.5s-28.834 13.166 -42.501 20.499s-27.334 14.166 -41.001 20.499s-27.834 9.5 -42.501 9.5c-13.333 0 -26 -5 -38 -15s-21.333 -25 -28 -45l-110 48c3.33301 18.667 9.33301 36.167 18 52.5
s20 30.666 34 42.999s30.333 22 49 29s39.667 10.5 63 10.5z" />
    <glyph glyph-name="uni00A0" unicode="&#xa0;" horiz-adv-x="310" 
 />
    <glyph glyph-name="exclamdown" unicode="&#xa1;" horiz-adv-x="303" 
d="M90 184h122l8 -480h-138zM235 331c0 -23.333 -8 -43.166 -24 -59.499s-35.667 -24.5 -59 -24.5s-43.166 8.16699 -59.499 24.5s-24.5 36.166 -24.5 59.499s8.16699 43 24.5 59s36.166 24 59.499 24s43 -8 59 -24s24 -35.667 24 -59z" />
    <glyph glyph-name="cent" unicode="&#xa2;" 
d="M349 408c50 -6.66699 90.0049 -24.999 120.005 -54.999s47.667 -65.333 53 -106h-130c-2.66699 9.33301 -7.83398 17.333 -15.501 24s-16.834 12 -27.501 16v-176c22.667 8 37 22 43 42h130c-5.33301 -41.333 -23 -76.833 -53 -106.5s-70 -47.834 -120 -54.501v-92h-84
v95c-26.667 4.66699 -50.834 13.334 -72.501 26.001s-40 28 -55 46s-26.667 38.333 -35 61s-12.5 46.667 -12.5 72c0 24.667 4.16699 48.334 12.5 71.001s20.166 43.167 35.499 61.5s33.666 33.666 54.999 45.999s45.333 21.166 72 26.499v95h84v-92zM218.005 200.001
c0 -19.333 4.33301 -36.168 13 -50.501s20 -25.166 34 -32.499v165c-14 -7.33301 -25.333 -18 -34 -32s-13 -30.667 -13 -50z" />
    <glyph glyph-name="sterling" unicode="&#xa3;" 
d="M112 331l63.999 -0.00390625l-30.5 37.5c-10.333 13 -20 26.833 -29 41.5s-16.333 30.334 -22 47.001s-8.5 35 -8.5 55c0 24 5 47.833 15 71.5s24.333 44.834 43 63.501s41.667 33.667 69 45s58 17 92 17s65.5 -5.83301 94.5 -17.5s53.833 -28.5 74.5 -50.5
s36 -48.333 46 -79s13 -65 9 -103h-134c2.66699 42.667 -5 74.334 -23 95.001s-40.333 31 -67 31c-13.333 0 -25.166 -2.33301 -35.499 -7s-19 -10.5 -26 -17.5s-12.5 -15 -16.5 -24s-6 -17.833 -6 -26.5c0 -20.667 3.5 -39 10.5 -55s15.667 -30.833 26 -44.5
s21.333 -26.834 33 -39.501s22.5 -26 32.5 -40h139v-90h-108v-7c0 -20 -6.5 -40.167 -19.5 -60.5s-26.5 -37.166 -40.5 -50.499h257v-123h-505v123h103c18 10 34.667 24 50 42s23 39.667 23 65c0 4.66699 -0.333008 8.33398 -1 11.001h-109v90z" />
    <glyph glyph-name="currency" unicode="&#xa4;" horiz-adv-x="641" 
d="M89 169c-26 40.667 -38.9971 86.3311 -38.9971 136.998c0 49.333 12.667 94.333 38 135l-52 52l91 91l53 -53c19.333 11.333 40.666 20.333 63.999 27s47.666 10 72.999 10c24 0 47.667 -3.16699 71 -9.5s44.666 -15.166 63.999 -26.499l62 52l91 -91l-61 -51
c26 -41.333 39 -86.666 39 -135.999c0 -50.667 -13.667 -96.667 -41 -138l53 -52l-91 -91l-54 55c-19.333 -10.667 -40.5 -19.167 -63.5 -25.5s-46.167 -9.5 -69.5 -9.5c-51.333 0 -96.333 11.667 -135 35l-55 -55l-91 91zM184.003 305.997
c0 -18.667 3.5 -36.334 10.5 -53.001s16.5 -31.167 28.5 -43.5s26.167 -22.166 42.5 -29.499s33.5 -11 51.5 -11s35 3.66699 51 11s30 17.166 42 29.499s21.5 26.833 28.5 43.5s10.5 34.334 10.5 53.001s-3.5 36.334 -10.5 53.001s-16.5 31.334 -28.5 44.001
s-26 22.667 -42 30s-33 11 -51 11s-35.167 -3.66699 -51.5 -11s-30.5 -17.333 -42.5 -30s-21.5 -27.334 -28.5 -44.001s-10.5 -34.334 -10.5 -53.001z" />
    <glyph glyph-name="yen" unicode="&#xa5;" 
d="M68 468h63l-131 232h153l149 -276l149 276h153l-132 -232h66v-90h-117l-32 -57h149v-90h-164v-231h-144v231h-162v90h147l-33 57h-114v90z" />
    <glyph glyph-name="brokenbar" unicode="&#xa6;" horiz-adv-x="294" 
d="M214 393h-134v347h134v-347zM214 -139h-134v347h134v-347z" />
    <glyph glyph-name="section" unicode="&#xa7;" 
d="M96 257c0 27.333 6.8418 54.1709 20.5088 80.5039s31.167 47.166 52.5 62.499c-7.33301 6.66699 -14.833 15.167 -22.5 25.5s-14.834 21.5 -21.501 33.5s-12 24.667 -16 38s-6 27 -6 41c0 20 3.66699 40.333 11 61s19.166 39.167 35.499 55.5
s37.166 29.666 62.499 39.999s56 15.5 92 15.5c25.333 0 49.666 -4 72.999 -12s44.166 -19.833 62.499 -35.5s34 -34.834 47 -57.501s22.167 -49 27.5 -79h-136c-4.66699 24.667 -13.667 41 -27 49s-29 12 -47 12c-23.333 0 -40.333 -5.33301 -51 -16
s-16 -21.334 -16 -32.001c0 -18.667 5.5 -35.834 16.5 -51.501s29.833 -25.5 56.5 -29.5c26.667 -1.33301 52 -7.33301 76 -18s45 -25.167 63 -43.5s32.333 -39.5 43 -63.5s16 -49.333 16 -76c0 -27.333 -6.83301 -54.166 -20.5 -80.499s-30.5 -47.166 -50.5 -62.499
c21.333 -13.333 38.833 -33 52.5 -59s20.5 -54.667 20.5 -86c0 -30 -5.83301 -56.333 -17.5 -79s-27 -41.834 -46 -57.501s-40.667 -27.334 -65 -35.001s-49.5 -11.5 -75.5 -11.5c-28.667 0 -55.334 4 -80.001 12s-46.667 19.833 -66 35.5s-35.5 34.834 -48.5 57.501
s-22.5 49 -28.5 79h137c4.66699 -24.667 14.334 -41 29.001 -49s33.667 -12 57 -12c17.333 0 33.166 5 47.499 15s21.5 24.667 21.5 44s-7.83301 37.833 -23.5 55.5s-38.834 29.167 -69.501 34.5c-26 2 -50.333 8.66699 -73 20s-42.334 25.833 -59.001 43.5
s-29.834 38.167 -39.501 61.5s-14.5 48 -14.5 74zM233.009 257.005c0 -20.667 6.5 -38 19.5 -52s29.167 -21 48.5 -21s35.666 7 48.999 21s20 31.333 20 52s-6.66699 38.334 -20 53.001s-29.666 22 -48.999 22s-35.5 -7.33301 -48.5 -22s-19.5 -32.334 -19.5 -53.001z" />
    <glyph glyph-name="dieresis" unicode="&#xa8;" horiz-adv-x="320" 
d="M-35 573c0 21.333 7.33301 39.166 22 53.499s32.667 21.5 54 21.5s39.166 -7.16699 53.499 -21.5s21.5 -32.166 21.5 -53.499s-7.16699 -39.333 -21.5 -54s-32.166 -22 -53.499 -22s-39.333 7.33301 -54 22s-22 32.667 -22 54zM204 573
c0 21.333 7.16699 39.166 21.5 53.499s32.166 21.5 53.499 21.5s39.333 -7.16699 54 -21.5s22 -32.166 22 -53.499s-7.33301 -39.333 -22 -54s-32.667 -22 -54 -22s-39.166 7.33301 -53.499 22s-21.5 32.667 -21.5 54z" />
    <glyph glyph-name="copyright" unicode="&#xa9;" horiz-adv-x="848" 
d="M244 352c0 24.667 4.49805 47.998 13.498 69.998s21.667 41.333 38 58s35.666 29.834 57.999 39.501s46.833 14.5 73.5 14.5c48 0 88.333 -13 121 -39s53.334 -62 62.001 -108h-88c-4 21.333 -14.667 38.333 -32 51s-37.666 19 -60.999 19
c-29.333 0 -53.666 -10 -72.999 -30s-29 -45 -29 -75c0 -14.667 2.5 -28.334 7.5 -41.001s12 -23.667 21 -33s19.667 -16.666 32 -21.999s25.5 -8 39.5 -8c23.333 0 44 6.16699 62 18.5s28.333 29.833 31 52.5h89c-7.33301 -46.667 -28 -83 -62 -109s-74 -39 -120 -39
c-26 0 -50 4.66699 -72 14s-41.333 22.333 -58 39s-29.667 35.834 -39 57.501s-14 45.167 -14 70.5zM59.998 349.998c0 50 9.5 96.833 28.5 140.5s45 81.667 78 114s71.5 58 115.5 77s91.333 28.5 142 28.5c50 0 97.167 -9.5 141.5 -28.5s83 -44.667 116 -77
s59 -70.333 78 -114s28.5 -90.5 28.5 -140.5s-9.5 -96.667 -28.5 -140s-45 -81.333 -78 -114s-71.667 -58.334 -116 -77.001s-91.5 -28 -141.5 -28c-50.667 0 -98 9.33301 -142 28s-82.5 44.334 -115.5 77.001s-59 70.667 -78 114s-28.5 90 -28.5 140zM152.998 349.998
c0 -38.667 7.16699 -74.834 21.5 -108.501s33.666 -63 57.999 -88s53 -44.667 86 -59s68.167 -21.5 105.5 -21.5s72.5 7.16699 105.5 21.5s61.667 34 86 59s43.666 54.333 57.999 88s21.5 69.834 21.5 108.501s-7.16699 75 -21.5 109s-33.666 63.5 -57.999 88.5
s-53 44.667 -86 59s-68.167 21.5 -105.5 21.5s-72.5 -7.16699 -105.5 -21.5s-61.667 -34 -86 -59s-43.666 -54.5 -57.999 -88.5s-21.5 -70.333 -21.5 -109z" />
    <glyph glyph-name="ordfeminine" unicode="&#xaa;" horiz-adv-x="344" 
d="M37 602c2.66699 16.667 8.16895 31.1689 16.502 43.502s18.666 22.666 30.999 30.999s26.166 14.666 41.499 18.999s31.333 6.5 48 6.5c42 0 73.667 -10.5 95 -31.5s32 -46.5 32 -76.5v-194h-71l-5 32c-7.33301 -9.33301 -17.333 -18 -30 -26s-32.667 -12 -60 -12
c-14 0 -27.5 1.5 -40.5 4.5s-24.5 8.33301 -34.5 16s-18.167 17.5 -24.5 29.5s-9.5 27 -9.5 45c0 31.333 11.667 55.5 35 72.5s59 25.5 107 25.5h56v7c0 12 -3.66699 21.833 -11 29.5s-20.333 11.5 -39 11.5c-30.667 0 -49.667 -11 -57 -33h-80zM155.002 459.002
c19.333 0 35.667 4.66699 49 14s20 21 20 35v18h-43c-51.333 0 -77 -11.667 -77 -35c0 -11.333 4.5 -19.5 13.5 -24.5s21.5 -7.5 37.5 -7.5z" />
    <glyph glyph-name="guillemotleft" unicode="&#xab;" horiz-adv-x="598" 
d="M213 506l86 -90l-108 -130l108 -130l-86 -90l-183 220zM472 506l86 -90l-108 -130l108 -130l-86 -90l-183 220z" />
    <glyph glyph-name="logicalnot" unicode="&#xac;" 
d="M534 345v-301h-130v182h-358v119h488z" />
    <glyph glyph-name="uni00AD" unicode="&#xad;" horiz-adv-x="273" 
d="M273 367v-122h-273v122h273z" />
    <glyph glyph-name="registered" unicode="&#xae;" horiz-adv-x="848" 
d="M386 174h-81v354h131c18 0 34.833 -2 50.5 -6s29.5 -10.333 41.5 -19s21.5 -20.167 28.5 -34.5s10.5 -31.5 10.5 -51.5c0 -28.667 -6.66699 -51.167 -20 -67.5s-30.333 -27.833 -51 -34.5l85 -141h-87l-80 133h-28v-133zM437 380c12.667 0 23.5 2.66699 32.5 8
s13.5 15 13.5 29c0 12.667 -4.5 21.667 -13.5 27s-20.167 8 -33.5 8h-50v-72h51zM60 350c0 50 9.5 96.833 28.5 140.5s45 81.667 78 114s71.5 58 115.5 77s91.333 28.5 142 28.5c50 0 97.167 -9.5 141.5 -28.5s83 -44.667 116 -77s59 -70.333 78 -114
s28.5 -90.5 28.5 -140.5s-9.5 -96.667 -28.5 -140s-45 -81.333 -78 -114s-71.667 -58.334 -116 -77.001s-91.5 -28 -141.5 -28c-50.667 0 -98 9.33301 -142 28s-82.5 44.334 -115.5 77.001s-59 70.667 -78 114s-28.5 90 -28.5 140zM153 350
c0 -38.667 7.16699 -74.834 21.5 -108.501s33.666 -63 57.999 -88s53 -44.667 86 -59s68.167 -21.5 105.5 -21.5s72.5 7.16699 105.5 21.5s61.667 34 86 59s43.666 54.333 57.999 88s21.5 69.834 21.5 108.501s-7.16699 75 -21.5 109s-33.666 63.5 -57.999 88.5
s-53 44.667 -86 59s-68.167 21.5 -105.5 21.5s-72.5 -7.16699 -105.5 -21.5s-61.667 -34 -86 -59s-43.666 -54.5 -57.999 -88.5s-21.5 -70.333 -21.5 -109z" />
    <glyph glyph-name="macron" unicode="&#xaf;" horiz-adv-x="320" 
d="M0 600h320v-103h-320v103z" />
    <glyph glyph-name="degree" unicode="&#xb0;" horiz-adv-x="402" 
d="M47 562c0 20.667 3.83398 40 11.501 58s18.334 33.833 32.001 47.5s30 24.5 49 32.5s39.833 12 62.5 12c22 0 42.5 -4 61.5 -12s35.333 -18.833 49 -32.5s24.167 -29.667 31.5 -48s11 -37.5 11 -57.5c0 -20.667 -4 -40 -12 -58s-18.833 -33.833 -32.5 -47.5
s-29.834 -24.334 -48.501 -32.001s-38.667 -11.5 -60 -11.5c-22.667 0 -43.5 3.83301 -62.5 11.5s-35.333 18.334 -49 32.001s-24.334 29.5 -32.001 47.5s-11.5 37.333 -11.5 58zM202.001 494c16 0 30.333 6.5 43 19.5s19 29.5 19 49.5s-6.33301 36.5 -19 49.5
s-27.334 19.5 -44.001 19.5c-17.333 0 -32.166 -6.5 -44.499 -19.5s-18.5 -29.5 -18.5 -49.5s6.16699 -36.5 18.5 -49.5s27.5 -19.5 45.5 -19.5z" />
    <glyph glyph-name="plusminus" unicode="&#xb1;" 
d="M537 285h-170v-155h-130v155h-170v120h170v155h130v-155h170v-120zM67 90h470v-90h-470v90z" />
    <glyph glyph-name="twosuperior" unicode="&#xb2;" horiz-adv-x="348" 
d="M312 618l-0.00390625 -92.999h-276v76l117 97c4 2.66699 8.66699 6.5 14 11.5l16 15.5c5.33301 5.33301 9.83301 11.166 13.5 17.499s5.5 12.5 5.5 18.5c0 19.333 -10.333 29 -31 29c-12 0 -22.167 -4.16699 -30.5 -12.5s-11.5 -20.5 -9.5 -36.5h-96
c-1.33301 19.333 0.833984 37.666 6.50098 54.999s14.334 32.5 26.001 45.5s26 23.167 43 30.5s36.5 11 58.5 11c44 0 77.833 -11 101.5 -33s35.5 -50 35.5 -84c0 -12.667 -2.33301 -24.334 -7 -35.001s-10.667 -20.667 -18 -30s-15.666 -18.166 -24.999 -26.499
s-18.666 -16.166 -27.999 -23.499l-41 -33h125z" />
    <glyph glyph-name="threesuperior" unicode="&#xb3;" horiz-adv-x="332" 
d="M149 732c14.667 0.666992 25.1689 3.16406 31.502 7.49707s9.5 12.166 9.5 23.499c0 10.667 -3.5 18 -10.5 22s-14.5 6 -22.5 6c-9.33301 0 -17.833 -2.66699 -25.5 -8s-10.834 -15.333 -9.50098 -30h-96c0.666992 38.667 13.667 70.167 39 94.5s58.666 36.5 99.999 36.5
c18 0 34.833 -2.66699 50.5 -8s29.167 -12.666 40.5 -21.999s20.166 -20.5 26.499 -33.5s9.5 -26.833 9.5 -41.5c0 -15.333 -3.16699 -29.666 -9.5 -42.999s-16.166 -23.666 -29.499 -30.999c15.333 -6 27 -15.667 35 -29s12 -28.666 12 -45.999
c0 -14.667 -3.33301 -28.5 -10 -41.5s-15.834 -24.5 -27.501 -34.5s-25.667 -17.833 -42 -23.5s-34.166 -8.5 -53.499 -8.5c-20 0 -38.833 2.5 -56.5 7.5s-33.167 13 -46.5 24s-23.833 25 -31.5 42s-11.5 37.167 -11.5 60.5h96c0 -17.333 4.16699 -28.5 12.5 -33.5
s18.833 -7.5 31.5 -7.5c11.333 0 20.333 2.66699 27 8s10 12.333 10 21c0 4 -0.333008 7.83301 -1 11.5s-2.66699 7 -6 10s-8.33301 5.5 -15 7.5s-15.667 3.33301 -27 4v55z" />
    <glyph glyph-name="acute" unicode="&#xb4;" horiz-adv-x="320" 
d="M296 611l-209 -132l-62 66l199 169z" />
    <glyph glyph-name="mu" unicode="&#xb5;" horiz-adv-x="512" 
d="M50 400h129.998v-233c0.666992 -19.333 5.83398 -34 15.501 -44s25.167 -15 46.5 -15c22 0 40.5 6.66699 55.5 20s26.5 29.666 34.5 48.999v223h130v-400h-120l-10 50c-10.667 -17.333 -23.167 -31.666 -37.5 -42.999s-32.166 -17 -53.499 -17c-26.667 0 -47 6 -61 18
v-258h-130v650z" />
    <glyph glyph-name="paragraph" unicode="&#xb6;" horiz-adv-x="553" 
d="M220 307c-48 8 -85 28.667 -111 62s-39 75.333 -39 126c0 69.333 18.167 120.833 54.5 154.5s93.833 50.5 172.5 50.5h186v-122h-93c-10.667 0 -19 -3.16699 -25 -9.5s-9 -14.833 -9 -25.5v-743h-136v507z" />
    <glyph glyph-name="periodcentered" unicode="&#xb7;" horiz-adv-x="247" 
d="M40 312c0 23.333 8 43.166 24 59.499s35.667 24.5 59 24.5s43.166 -8.16699 59.499 -24.5s24.5 -36.166 24.5 -59.499s-8.16699 -43 -24.5 -59s-36.166 -24 -59.499 -24s-43 8 -59 24s-24 35.667 -24 59z" />
    <glyph glyph-name="cedilla" unicode="&#xb8;" horiz-adv-x="320" 
d="M102 -284l-87 51l95 201l126 -44z" />
    <glyph glyph-name="onesuperior" unicode="&#xb9;" horiz-adv-x="293" 
d="M115 768l-60 -37l-47 76l117 72h94v-354h-104v243z" />
    <glyph glyph-name="ordmasculine" unicode="&#xba;" horiz-adv-x="363" 
d="M30 547c0 21.333 3.83301 41.333 11.5 60s18.334 35 32.001 49s29.834 25.167 48.501 33.5s38.667 12.5 60 12.5s41.166 -4.16699 59.499 -12.5s34.333 -19.5 48 -33.5s24.334 -30.333 32.001 -49s11.5 -38.667 11.5 -60s-3.83301 -41.166 -11.5 -59.499
s-18.334 -34.5 -32.001 -48.5s-29.667 -25 -48 -33s-38.166 -12 -59.499 -12s-41.333 4 -60 12s-34.834 19 -48.501 33s-24.334 30.167 -32.001 48.5s-11.5 38.166 -11.5 59.499zM109 547c0 -21.333 7.16699 -39.5 21.5 -54.5s31.5 -22.5 51.5 -22.5s37.167 7.5 51.5 22.5
s21.5 33.167 21.5 54.5c0 22 -7.16699 40.667 -21.5 56s-31.5 23 -51.5 23s-37.167 -7.66699 -51.5 -23s-21.5 -34 -21.5 -56z" />
    <glyph glyph-name="guillemotright" unicode="&#xbb;" horiz-adv-x="598" 
d="M309 286l-183 -220l-86 90l108 130l-108 130l86 90zM568 286l-183 -220l-86 90l108 130l-108 130l86 90z" />
    <glyph glyph-name="onequarter" unicode="&#xbc;" horiz-adv-x="850" 
d="M166 590l-60 -37l-47 76l117 72h94v-354h-104v243zM791 132v-84h-48v-48h-102v48h-159v80l169 226h92v-222h48zM641 214l-62 -82h62v82zM271 -42l-100 58l408 703l100 -58z" />
    <glyph glyph-name="onehalf" unicode="&#xbd;" horiz-adv-x="850" 
d="M801 93l-0.00390625 -92.999h-276v76l117 97c4 2.66699 8.66699 6.5 14 11.5l16 15.5c5.33301 5.33301 9.83301 11.166 13.5 17.499s5.5 12.5 5.5 18.5c0 19.333 -10.333 29 -31 29c-12 0 -22.167 -4.16699 -30.5 -12.5s-11.5 -20.5 -9.5 -36.5h-96
c-1.33301 19.333 0.833984 37.666 6.50098 54.999s14.334 32.5 26.001 45.5s26 23.167 43 30.5s36.5 11 58.5 11c44 0 77.833 -11 101.5 -33s35.5 -50 35.5 -84c0 -12.667 -2.33301 -24.334 -7 -35.001s-10.667 -20.667 -18 -30s-15.666 -18.166 -24.999 -26.499
s-18.666 -16.166 -27.999 -23.499l-41 -33h125zM270.996 -41.999l-100 58l408 703l100 -58zM165.996 590.001l-60 -37l-47 76l117 72h94v-354h-104v243z" />
    <glyph glyph-name="threequarters" unicode="&#xbe;" horiz-adv-x="850" 
d="M166 553c14.667 0.666992 25.1689 3.16406 31.502 7.49707s9.5 12.166 9.5 23.499c0 10.667 -3.5 18 -10.5 22s-14.5 6 -22.5 6c-9.33301 0 -17.833 -2.66699 -25.5 -8s-10.834 -15.333 -9.50098 -30h-96c0.666992 38.667 13.667 70.167 39 94.5s58.666 36.5 99.999 36.5
c18 0 34.833 -2.66699 50.5 -8s29.167 -12.666 40.5 -21.999s20.166 -20.5 26.499 -33.5s9.5 -26.833 9.5 -41.5c0 -15.333 -3.16699 -29.666 -9.5 -42.999s-16.166 -23.666 -29.499 -30.999c15.333 -6 27 -15.667 35 -29s12 -28.666 12 -45.999
c0 -14.667 -3.33301 -28.5 -10 -41.5s-15.834 -24.5 -27.501 -34.5s-25.667 -17.833 -42 -23.5s-34.166 -8.5 -53.499 -8.5c-20 0 -38.833 2.5 -56.5 7.5s-33.167 13 -46.5 24s-23.833 25 -31.5 42s-11.5 37.167 -11.5 60.5h96c0 -17.333 4.16699 -28.5 12.5 -33.5
s18.833 -7.5 31.5 -7.5c11.333 0 20.333 2.66699 27 8s10 12.333 10 21c0 4 -0.333008 7.83301 -1 11.5s-2.66699 7 -6 10s-8.33301 5.5 -15 7.5s-15.667 3.33301 -27 4v55zM271.002 -42.0029l-100 58l408 703l100 -58zM791.002 131.997v-84h-48v-48h-102v48h-159v80
l169 226h92v-222h48zM641.002 213.997l-62 -82h62v82z" />
    <glyph glyph-name="questiondown" unicode="&#xbf;" horiz-adv-x="517" 
d="M304 184l-0.00390625 -113.997c-18.667 -8 -37.167 -17.333 -55.5 -28s-34.833 -22.667 -49.5 -36s-26.5 -27.833 -35.5 -43.5s-13.5 -32.834 -13.5 -51.501c0 -27.333 8.5 -49.333 25.5 -66s40.833 -25 71.5 -25c36 0 63 10 81 30s25.667 51.667 23 95h134
c4 -38 0.666992 -72.333 -10 -103s-26.667 -56.834 -48 -78.501s-47.166 -38.334 -77.499 -50.001s-63.166 -17.5 -98.499 -17.5c-37.333 0 -70.666 5.66699 -99.999 17s-54.166 26.833 -74.499 46.5s-35.833 43 -46.5 70s-16 56.167 -16 87.5c0 26 4.5 50 13.5 72
s20.833 41.833 35.5 59.5s31.167 33 49.5 46s36.833 23.5 55.5 31.5v58h136zM315.996 331.003c0 -23.333 -8 -43.166 -24 -59.499s-35.667 -24.5 -59 -24.5s-43.166 8.16699 -59.499 24.5s-24.5 36.166 -24.5 59.499s8.16699 43 24.5 59s36.166 24 59.499 24s43 -8 59 -24
s24 -35.667 24 -59z" />
    <glyph glyph-name="Agrave" unicode="&#xc0;" horiz-adv-x="718" 
d="M455 256h-192l96 223zM509 131l57 -131h152l-312 702h-94l-312 -702h152l57 131h300zM296 958l199 -153l-62 -59l-209 119z" />
    <glyph glyph-name="Aacute" unicode="&#xc1;" horiz-adv-x="718" 
d="M455 256h-192l96 223zM509 131l57 -131h152l-312 702h-94l-312 -702h152l57 131h300zM495 865l-209 -119l-62 59l199 153z" />
    <glyph glyph-name="Acircumflex" unicode="&#xc2;" horiz-adv-x="718" 
d="M359 479l-96 -223h192zM209 131l-57 -131h-152l312 702h94l312 -702h-152l-57 131h-300zM531 809l-57 -64l-115 70l-114 -71l-58 65l172 118z" />
    <glyph glyph-name="Atilde" unicode="&#xc3;" horiz-adv-x="718" 
d="M359 479l-96 -223h192zM209 131l-57 -131h-152l312 702h94l312 -702h-152l-57 131h-300zM436 757c-14.667 0 -27.8301 2.5 -39.4971 7.5s-22.667 10.5 -33 16.5s-20.5 11.5 -30.5 16.5s-20.667 7.5 -32 7.5c-14.667 0 -26.667 -5.5 -36 -16.5s-16 -24.167 -20 -39.5
l-76 49c11.333 25.333 27.166 47 47.499 65s43.166 27 68.499 27c14 0 27.167 -2.5 39.5 -7.5s24 -10.5 35 -16.5s21.833 -11.5 32.5 -16.5s22 -7.5 34 -7.5c10.667 0 20.167 5.5 28.5 16.5s14.5 24.167 18.5 39.5l76 -49c-11.333 -25.333 -26.833 -47 -46.5 -65
s-41.834 -27 -66.501 -27z" />
    <glyph glyph-name="Adieresis" unicode="&#xc4;" horiz-adv-x="718" 
d="M359 479l-96 -223h192zM209 131l-57 -131h-152l312 702h94l312 -702h-152l-57 131h-300zM164 823c0 18.667 7.33301 34.5 22 47.5s32.667 19.5 54 19.5s39.166 -6.5 53.499 -19.5s21.5 -28.833 21.5 -47.5c0 -19.333 -7.16699 -35.666 -21.5 -48.999
s-32.166 -20 -53.499 -20s-39.333 6.66699 -54 20s-22 29.666 -22 48.999zM403 823c0 18.667 7.16699 34.5 21.5 47.5s32.166 19.5 53.499 19.5s39.333 -6.5 54 -19.5s22 -28.833 22 -47.5c0 -19.333 -7.33301 -35.666 -22 -48.999s-32.667 -20 -54 -20
s-39.166 6.66699 -53.499 20s-21.5 29.666 -21.5 48.999z" />
    <glyph glyph-name="Aring" unicode="&#xc5;" horiz-adv-x="718" 
d="M359 479l-96 -223h192zM209 131l-57 -131h-152l312 702h94l312 -702h-152l-57 131h-300zM359 941c16 0 30.833 -2.66699 44.5 -8s25.834 -12.5 36.501 -21.5s19 -19.5 25 -31.5s9 -24.667 9 -38s-3 -26.166 -9 -38.499s-14.333 -23 -25 -32
s-22.834 -16.167 -36.501 -21.5s-28.5 -8 -44.5 -8s-30.833 2.66699 -44.5 8s-25.834 12.5 -36.501 21.5s-19 19.667 -25 32s-9 25.166 -9 38.499s3 26 9 38s14.333 22.5 25 31.5s22.834 16.167 36.501 21.5s28.5 8 44.5 8zM359 883
c-12.667 0 -23.334 -4.16699 -32.001 -12.5s-13 -17.833 -13 -28.5s4.33301 -20.334 13 -29.001s19.334 -13 32.001 -13s23.334 4.33301 32.001 13s13 18.334 13 29.001s-4.33301 20.167 -13 28.5s-19.334 12.5 -32.001 12.5z" />
    <glyph glyph-name="AE" unicode="&#xc6;" horiz-adv-x="1002" 
d="M618 577v-156h320v-123h-320v-175h344v-123h-487v136h-220l-96 -136h-161l498 700h466v-123h-344zM475 259v185l-132 -185h132z" />
    <glyph glyph-name="Ccedilla" unicode="&#xc7;" horiz-adv-x="738" 
d="M382 124c22.667 0 43.668 3.3291 63.001 9.99609s36.5 15.667 51.5 27s27.5 24.333 37.5 39s17 30.334 21 47.001h153c-9.33301 -36 -23.5 -69.667 -42.5 -101s-42.667 -58.5 -71 -81.5s-60.833 -41 -97.5 -54s-76.667 -19.5 -120 -19.5
c-47.333 0 -91.833 9.33301 -133.5 28s-78 44.334 -109 77.001s-55.5 70.834 -73.5 114.501s-27 90.167 -27 139.5s9 95.833 27 139.5s42.5 81.834 73.5 114.501s67.333 58.5 109 77.5s86.167 28.5 133.5 28.5c43.333 0 83 -6.5 119 -19.5s67.833 -30.833 95.5 -53.5
s51 -49.5 70 -80.5s33.5 -64.5 43.5 -100.5h-153c-4.66699 16 -11.834 31.333 -21.501 46s-21.667 27.5 -36 38.5s-31 19.833 -50 26.5s-39.833 10 -62.5 10c-29.333 0 -56.333 -5.83301 -81 -17.5s-46 -27.834 -64 -48.501s-32.167 -44.667 -42.5 -72s-15.5 -57 -15.5 -89
s5.16699 -61.667 15.5 -89s24.5 -51.166 42.5 -71.499s39.333 -36.333 64 -48s51.667 -17.5 81 -17.5zM346.001 -284.004l-87 51l95 201l126 -44z" />
    <glyph glyph-name="Egrave" unicode="&#xc8;" horiz-adv-x="587" 
d="M547 568v132h-483v-700h483v132h-339v157h305v132h-305v147h339zM233 958l199 -153l-62 -59l-209 119z" />
    <glyph glyph-name="Eacute" unicode="&#xc9;" horiz-adv-x="587" 
d="M547 568v132h-483v-700h483v132h-339v157h305v132h-305v147h339zM469 865l-209 -119l-62 59l199 153z" />
    <glyph glyph-name="Ecircumflex" unicode="&#xca;" horiz-adv-x="587" 
d="M208 568v-147h305v-132h-305v-157h339v-132h-483v700h483v-132h-339zM482 809l-57 -64l-115 70l-114 -71l-58 65l172 118z" />
    <glyph glyph-name="Edieresis" unicode="&#xcb;" horiz-adv-x="587" 
d="M208 568v-147h305v-132h-305v-157h339v-132h-483v700h483v-132h-339zM116 823c0 18.667 7.33301 34.5 22 47.5s32.667 19.5 54 19.5s39.166 -6.5 53.499 -19.5s21.5 -28.833 21.5 -47.5c0 -19.333 -7.16699 -35.666 -21.5 -48.999s-32.166 -20 -53.499 -20
s-39.333 6.66699 -54 20s-22 29.666 -22 48.999zM355 823c0 18.667 7.16699 34.5 21.5 47.5s32.166 19.5 53.499 19.5s39.333 -6.5 54 -19.5s22 -28.833 22 -47.5c0 -19.333 -7.33301 -35.666 -22 -48.999s-32.667 -20 -54 -20s-39.166 6.66699 -53.499 20
s-21.5 29.666 -21.5 48.999z" />
    <glyph glyph-name="Igrave" unicode="&#xcc;" horiz-adv-x="284" 
d="M214 700h-144v-700h144v700zM79 958l199 -153l-62 -59l-209 119z" />
    <glyph glyph-name="Iacute" unicode="&#xcd;" horiz-adv-x="284" 
d="M214 700h-144v-700h144v700zM278 865l-209 -119l-62 59l199 153z" />
    <glyph glyph-name="Icircumflex" unicode="&#xce;" horiz-adv-x="284" 
d="M214 0h-144v700h144v-700zM314 809l-57 -64l-115 70l-114 -71l-58 65l172 118z" />
    <glyph glyph-name="Idieresis" unicode="&#xcf;" horiz-adv-x="284" 
d="M214 0h-144v700h144v-700zM-53 823c0 18.667 7.33301 34.5 22 47.5s32.667 19.5 54 19.5s39.166 -6.5 53.499 -19.5s21.5 -28.833 21.5 -47.5c0 -19.333 -7.16699 -35.666 -21.5 -48.999s-32.166 -20 -53.499 -20s-39.333 6.66699 -54 20s-22 29.666 -22 48.999zM186 823
c0 18.667 7.16699 34.5 21.5 47.5s32.166 19.5 53.499 19.5s39.333 -6.5 54 -19.5s22 -28.833 22 -47.5c0 -19.333 -7.33301 -35.666 -22 -48.999s-32.667 -20 -54 -20s-39.166 6.66699 -53.499 20s-21.5 29.666 -21.5 48.999z" />
    <glyph glyph-name="Eth" unicode="&#xd0;" horiz-adv-x="717" 
d="M70 265l-78 -0.00195312v120h78v315h268c55.333 0 104.333 -8.83301 147 -26.5s78.5 -42.167 107.5 -73.5s51 -68.166 66 -110.499s22.5 -88.166 22.5 -137.499c0 -50.667 -7.16699 -97.5 -21.5 -140.5s-35.5 -80.167 -63.5 -111.5s-63 -55.833 -105 -73.5
s-90.667 -26.5 -146 -26.5h-275v265zM345 131.998c34 0 63 5.33496 87 16.002s43.833 25.667 59.5 45s27.167 42.5 34.5 69.5s11 56.833 11 89.5c0 31.333 -4 60.166 -12 86.499s-20.167 49.166 -36.5 68.499s-37 34.333 -62 45s-54.5 16 -88.5 16h-124v-183h122v-120h-122
v-133h131z" />
    <glyph glyph-name="Ntilde" unicode="&#xd1;" horiz-adv-x="725" 
d="M661 0h-115l-338 443v-443h-144v700h104l349 -452v452h144v-700zM439 757c-14.667 0 -27.8301 2.5 -39.4971 7.5s-22.667 10.5 -33 16.5s-20.5 11.5 -30.5 16.5s-20.667 7.5 -32 7.5c-14.667 0 -26.667 -5.5 -36 -16.5s-16 -24.167 -20 -39.5l-76 49
c11.333 25.333 27.166 47 47.499 65s43.166 27 68.499 27c14 0 27.167 -2.5 39.5 -7.5s24 -10.5 35 -16.5s21.833 -11.5 32.5 -16.5s22 -7.5 34 -7.5c10.667 0 20.167 5.5 28.5 16.5s14.5 24.167 18.5 39.5l76 -49c-11.333 -25.333 -26.833 -47 -46.5 -65
s-41.834 -27 -66.501 -27z" />
    <glyph glyph-name="Ograve" unicode="&#xd2;" horiz-adv-x="754" 
d="M377 710c-47.333 0 -91.833 -9.5 -133.5 -28.5s-78 -44.833 -109 -77.5s-55.5 -70.834 -73.5 -114.501s-27 -90.167 -27 -139.5s9 -95.833 27 -139.5s42.5 -81.834 73.5 -114.501s67.333 -58.334 109 -77.001s86.167 -28 133.5 -28s91.833 9.33301 133.5 28
s78 44.334 109 77.001s55.5 70.834 73.5 114.501s27 90.167 27 139.5s-9 95.833 -27 139.5s-42.5 81.834 -73.5 114.501s-67.333 58.5 -109 77.5s-86.167 28.5 -133.5 28.5zM377 577c28 0 54 -5.83301 78 -17.5s44.833 -27.834 62.5 -48.501s31.667 -44.667 42 -72
s15.5 -57 15.5 -89s-5.16699 -61.667 -15.5 -89s-24.333 -51.166 -42 -71.499s-38.5 -36.333 -62.5 -48s-50 -17.5 -78 -17.5s-54 5.83301 -78 17.5s-44.833 27.667 -62.5 48s-31.667 44.166 -42 71.499s-15.5 57 -15.5 89s5.16699 61.667 15.5 89s24.333 51.333 42 72
s38.5 36.834 62.5 48.501s50 17.5 78 17.5zM314 958l199 -153l-62 -59l-209 119z" />
    <glyph glyph-name="Oacute" unicode="&#xd3;" horiz-adv-x="754" 
d="M377 710c-47.333 0 -91.833 -9.5 -133.5 -28.5s-78 -44.833 -109 -77.5s-55.5 -70.834 -73.5 -114.501s-27 -90.167 -27 -139.5s9 -95.833 27 -139.5s42.5 -81.834 73.5 -114.501s67.333 -58.334 109 -77.001s86.167 -28 133.5 -28s91.833 9.33301 133.5 28
s78 44.334 109 77.001s55.5 70.834 73.5 114.501s27 90.167 27 139.5s-9 95.833 -27 139.5s-42.5 81.834 -73.5 114.501s-67.333 58.5 -109 77.5s-86.167 28.5 -133.5 28.5zM377 577c28 0 54 -5.83301 78 -17.5s44.833 -27.834 62.5 -48.501s31.667 -44.667 42 -72
s15.5 -57 15.5 -89s-5.16699 -61.667 -15.5 -89s-24.333 -51.166 -42 -71.499s-38.5 -36.333 -62.5 -48s-50 -17.5 -78 -17.5s-54 5.83301 -78 17.5s-44.833 27.667 -62.5 48s-31.667 44.166 -42 71.499s-15.5 57 -15.5 89s5.16699 61.667 15.5 89s24.333 51.333 42 72
s38.5 36.834 62.5 48.501s50 17.5 78 17.5zM513 865l-209 -119l-62 59l199 153z" />
    <glyph glyph-name="Ocircumflex" unicode="&#xd4;" horiz-adv-x="754" 
d="M377 710c47.333 0 91.833 -9.5 133.5 -28.5s78 -44.833 109 -77.5s55.5 -70.834 73.5 -114.501s27 -90.167 27 -139.5s-9 -95.833 -27 -139.5s-42.5 -81.834 -73.5 -114.501s-67.333 -58.334 -109 -77.001s-86.167 -28 -133.5 -28s-91.833 9.33301 -133.5 28
s-78 44.334 -109 77.001s-55.5 70.834 -73.5 114.501s-27 90.167 -27 139.5s9 95.833 27 139.5s42.5 81.834 73.5 114.501s67.333 58.5 109 77.5s86.167 28.5 133.5 28.5zM377 577c-28 0 -54 -5.83301 -78 -17.5s-44.833 -27.834 -62.5 -48.501s-31.667 -44.667 -42 -72
s-15.5 -57 -15.5 -89s5.16699 -61.667 15.5 -89s24.333 -51.166 42 -71.499s38.5 -36.333 62.5 -48s50 -17.5 78 -17.5s54 5.83301 78 17.5s44.833 27.667 62.5 48s31.667 44.166 42 71.499s15.5 57 15.5 89s-5.16699 61.667 -15.5 89s-24.333 51.333 -42 72
s-38.5 36.834 -62.5 48.501s-50 17.5 -78 17.5zM549 809l-57 -64l-115 70l-114 -71l-58 65l172 118z" />
    <glyph glyph-name="Otilde" unicode="&#xd5;" horiz-adv-x="754" 
d="M377 710c47.333 0 91.833 -9.5 133.5 -28.5s78 -44.833 109 -77.5s55.5 -70.834 73.5 -114.501s27 -90.167 27 -139.5s-9 -95.833 -27 -139.5s-42.5 -81.834 -73.5 -114.501s-67.333 -58.334 -109 -77.001s-86.167 -28 -133.5 -28s-91.833 9.33301 -133.5 28
s-78 44.334 -109 77.001s-55.5 70.834 -73.5 114.501s-27 90.167 -27 139.5s9 95.833 27 139.5s42.5 81.834 73.5 114.501s67.333 58.5 109 77.5s86.167 28.5 133.5 28.5zM377 577c-28 0 -54 -5.83301 -78 -17.5s-44.833 -27.834 -62.5 -48.501s-31.667 -44.667 -42 -72
s-15.5 -57 -15.5 -89s5.16699 -61.667 15.5 -89s24.333 -51.166 42 -71.499s38.5 -36.333 62.5 -48s50 -17.5 78 -17.5s54 5.83301 78 17.5s44.833 27.667 62.5 48s31.667 44.166 42 71.499s15.5 57 15.5 89s-5.16699 61.667 -15.5 89s-24.333 51.333 -42 72
s-38.5 36.834 -62.5 48.501s-50 17.5 -78 17.5zM454 757c-14.667 0 -27.8301 2.5 -39.4971 7.5s-22.667 10.5 -33 16.5s-20.5 11.5 -30.5 16.5s-20.667 7.5 -32 7.5c-14.667 0 -26.667 -5.5 -36 -16.5s-16 -24.167 -20 -39.5l-76 49c11.333 25.333 27.166 47 47.499 65
s43.166 27 68.499 27c14 0 27.167 -2.5 39.5 -7.5s24 -10.5 35 -16.5s21.833 -11.5 32.5 -16.5s22 -7.5 34 -7.5c10.667 0 20.167 5.5 28.5 16.5s14.5 24.167 18.5 39.5l76 -49c-11.333 -25.333 -26.833 -47 -46.5 -65s-41.834 -27 -66.501 -27z" />
    <glyph glyph-name="Odieresis" unicode="&#xd6;" horiz-adv-x="754" 
d="M377 710c47.333 0 91.833 -9.5 133.5 -28.5s78 -44.833 109 -77.5s55.5 -70.834 73.5 -114.501s27 -90.167 27 -139.5s-9 -95.833 -27 -139.5s-42.5 -81.834 -73.5 -114.501s-67.333 -58.334 -109 -77.001s-86.167 -28 -133.5 -28s-91.833 9.33301 -133.5 28
s-78 44.334 -109 77.001s-55.5 70.834 -73.5 114.501s-27 90.167 -27 139.5s9 95.833 27 139.5s42.5 81.834 73.5 114.501s67.333 58.5 109 77.5s86.167 28.5 133.5 28.5zM377 577c-28 0 -54 -5.83301 -78 -17.5s-44.833 -27.834 -62.5 -48.501s-31.667 -44.667 -42 -72
s-15.5 -57 -15.5 -89s5.16699 -61.667 15.5 -89s24.333 -51.166 42 -71.499s38.5 -36.333 62.5 -48s50 -17.5 78 -17.5s54 5.83301 78 17.5s44.833 27.667 62.5 48s31.667 44.166 42 71.499s15.5 57 15.5 89s-5.16699 61.667 -15.5 89s-24.333 51.333 -42 72
s-38.5 36.834 -62.5 48.501s-50 17.5 -78 17.5zM182 823c0 18.667 7.33301 34.5 22 47.5s32.667 19.5 54 19.5s39.166 -6.5 53.499 -19.5s21.5 -28.833 21.5 -47.5c0 -19.333 -7.16699 -35.666 -21.5 -48.999s-32.166 -20 -53.499 -20s-39.333 6.66699 -54 20
s-22 29.666 -22 48.999zM421 823c0 18.667 7.16699 34.5 21.5 47.5s32.166 19.5 53.499 19.5s39.333 -6.5 54 -19.5s22 -28.833 22 -47.5c0 -19.333 -7.33301 -35.666 -22 -48.999s-32.667 -20 -54 -20s-39.166 6.66699 -53.499 20s-21.5 29.666 -21.5 48.999z" />
    <glyph glyph-name="multiply" unicode="&#xd7;" horiz-adv-x="590" 
d="M302 193l-141 -141l-92 92l141 141l-141 141l92 92l141 -141l141 141l92 -92l-141 -141l141 -141l-92 -92z" />
    <glyph glyph-name="Oslash" unicode="&#xd8;" horiz-adv-x="754" 
d="M377 710c23.333 0 45.833 -2.33008 67.5 -6.99707s42.5 -11.334 62.5 -20.001l68 117l92 -47l-72 -125c38 -33.333 68.333 -74 91 -122s34 -100 34 -156c0 -49.333 -9 -95.833 -27 -139.5s-42.5 -81.834 -73.5 -114.501s-67.333 -58.334 -109 -77.001
s-86.167 -28 -133.5 -28c-46 0 -90.333 9.33301 -133 28l-68 -119l-89 54l69 120c-38 33.333 -67.833 73.666 -89.5 120.999s-32.5 99 -32.5 155c0 49.333 9 95.833 27 139.5s42.5 81.834 73.5 114.501s67.333 58.5 109 77.5s86.167 28.5 133.5 28.5zM575 350.003
c0 30 -4.66699 58.168 -14 84.501s-22 49.5 -38 69.5l-211 -368c20 -8 41.667 -12 65 -12c28 0 54 5.83301 78 17.5s44.833 27.667 62.5 48s31.667 44.166 42 71.499s15.5 57 15.5 89zM377 577.004c-28 0 -54 -5.83203 -78 -17.499s-44.833 -27.834 -62.5 -48.501
s-31.667 -44.667 -42 -72s-15.5 -57 -15.5 -89c0 -30 4.33301 -57.833 13 -83.5s20.667 -48.167 36 -67.5l212 366c-20 8 -41 12 -63 12z" />
    <glyph glyph-name="Ugrave" unicode="&#xd9;" horiz-adv-x="710" 
d="M355 124c-51.333 0 -89 16 -113 48s-36 73.667 -36 125v403h-144v-403c0 -44.667 6.16699 -85.667 18.5 -123s30.666 -69.5 54.999 -96.5s54.833 -48 91.5 -63s79.334 -22.5 128.001 -22.5s91.334 7.5 128.001 22.5s67.167 36 91.5 63s42.666 59.167 54.999 96.5
s18.5 78.333 18.5 123v403h-144v-403c0 -51.333 -12 -93 -36 -125s-61.667 -48 -113 -48zM292 958l199 -153l-62 -59l-209 119z" />
    <glyph glyph-name="Uacute" unicode="&#xda;" horiz-adv-x="710" 
d="M355 124c-51.333 0 -89 16 -113 48s-36 73.667 -36 125v403h-144v-403c0 -44.667 6.16699 -85.667 18.5 -123s30.666 -69.5 54.999 -96.5s54.833 -48 91.5 -63s79.334 -22.5 128.001 -22.5s91.334 7.5 128.001 22.5s67.167 36 91.5 63s42.666 59.167 54.999 96.5
s18.5 78.333 18.5 123v403h-144v-403c0 -51.333 -12 -93 -36 -125s-61.667 -48 -113 -48zM491 865l-209 -119l-62 59l199 153z" />
    <glyph glyph-name="Ucircumflex" unicode="&#xdb;" horiz-adv-x="710" 
d="M355 124c51.333 0 89 16 113 48s36 73.667 36 125v403h144v-403c0 -44.667 -6.16699 -85.667 -18.5 -123s-30.666 -69.5 -54.999 -96.5s-54.833 -48 -91.5 -63s-79.334 -22.5 -128.001 -22.5s-91.334 7.5 -128.001 22.5s-67.167 36 -91.5 63s-42.666 59.167 -54.999 96.5
s-18.5 78.333 -18.5 123v403h144v-403c0 -51.333 12 -93 36 -125s61.667 -48 113 -48zM527 809l-57 -64l-115 70l-114 -71l-58 65l172 118z" />
    <glyph glyph-name="Udieresis" unicode="&#xdc;" horiz-adv-x="710" 
d="M355 124c51.333 0 89 16 113 48s36 73.667 36 125v403h144v-403c0 -44.667 -6.16699 -85.667 -18.5 -123s-30.666 -69.5 -54.999 -96.5s-54.833 -48 -91.5 -63s-79.334 -22.5 -128.001 -22.5s-91.334 7.5 -128.001 22.5s-67.167 36 -91.5 63s-42.666 59.167 -54.999 96.5
s-18.5 78.333 -18.5 123v403h144v-403c0 -51.333 12 -93 36 -125s61.667 -48 113 -48zM160 823c0 18.667 7.33301 34.5 22 47.5s32.667 19.5 54 19.5s39.166 -6.5 53.499 -19.5s21.5 -28.833 21.5 -47.5c0 -19.333 -7.16699 -35.666 -21.5 -48.999s-32.166 -20 -53.499 -20
s-39.333 6.66699 -54 20s-22 29.666 -22 48.999zM399 823c0 18.667 7.16699 34.5 21.5 47.5s32.166 19.5 53.499 19.5s39.333 -6.5 54 -19.5s22 -28.833 22 -47.5c0 -19.333 -7.33301 -35.666 -22 -48.999s-32.667 -20 -54 -20s-39.166 6.66699 -53.499 20
s-21.5 29.666 -21.5 48.999z" />
    <glyph glyph-name="Yacute" unicode="&#xdd;" horiz-adv-x="606" 
d="M303 424l-160 276h-153l241 -405v-295h144v295l241 405h-153zM439 865l-209 -119l-62 59l199 153z" />
    <glyph glyph-name="Thorn" unicode="&#xde;" horiz-adv-x="574" 
d="M208 0l-144.001 0.00390625v700h142v-140h85c36 0 69.333 -3.83301 100 -11.5s57.334 -20 80.001 -37s40.5 -39.333 53.5 -67s19.5 -61.834 19.5 -102.501c0 -38.667 -6.33301 -71.334 -19 -98.001s-30.167 -48.334 -52.5 -65.001s-48.833 -28.834 -79.5 -36.501
s-64 -11.5 -100 -11.5h-85v-131zM292.999 261.004c32 0 57.833 6 77.5 18s29.5 33.667 29.5 65c0 32 -9.83301 54.333 -29.5 67s-46.167 19 -79.5 19h-85v-169h87z" />
    <glyph glyph-name="germandbls" unicode="&#xdf;" horiz-adv-x="527" 
d="M248 547c-18.667 0 -34.333 -6.83594 -47 -20.5029s-19 -31.167 -19 -52.5v-474h-130v474c0 27.333 4.66699 52.333 14 75s22.5 42 39.5 58s37.5 28.333 61.5 37s51 13 81 13c36 0 66.5 -5.66699 91.5 -17s45.333 -25.5 61 -42.5s27 -35.833 34 -56.5
s10.5 -40.334 10.5 -59.001c0 -28 -6.66699 -51.833 -20 -71.5s-28.333 -33.5 -45 -41.5c16.667 -5.33301 32.334 -12.666 47.001 -21.999s27.5 -21 38.5 -35s19.667 -30.167 26 -48.5s9.5 -39.5 9.5 -63.5c0 -33.333 -6.5 -62.5 -19.5 -87.5s-31 -46 -54 -63
s-50.5 -30.167 -82.5 -39.5s-67 -15 -105 -17v118c40 2 71.833 10.333 95.5 25s35.5 37 35.5 67c0 15.333 -3.5 28.833 -10.5 40.5s-16.5 21.334 -28.5 29.001s-25.833 13.5 -41.5 17.5s-32.5 6 -50.5 6v105c23.333 0.666992 41.666 7.83398 54.999 21.501
s20 30.167 20 49.5c0 20.667 -5.83301 38.334 -17.5 53.001s-28.167 22 -49.5 22z" />
    <glyph glyph-name="agrave" unicode="&#xe0;" horiz-adv-x="451" 
d="M219 315c23.333 0 39.8369 -5.83496 49.5039 -17.502s14.5 -24.167 14.5 -37.5v-16h-74c-56.667 0 -101.334 -9.66699 -134.001 -29s-49 -51.666 -49 -96.999c0 -18 3.5 -34.5 10.5 -49.5s17 -28 30 -39s28.167 -19.5 45.5 -25.5s36.666 -9 57.999 -9
c30 0 53.667 5.33301 71 16s31.333 23.667 42 39l10 -50h110v259c0 21.333 -3.83301 41.166 -11.5 59.499s-19 34.333 -34 48s-33.5 24.334 -55.5 32.001s-47.667 11.5 -77 11.5c-28.667 0 -53.834 -3.83301 -75.501 -11.5s-40.167 -18 -55.5 -31s-27.833 -27.667 -37.5 -44
s-16.834 -33.166 -21.501 -50.499h118c4 12 11.5 22 22.5 30s25.5 12 43.5 12zM193.004 89.998c-14.667 0 -26.1689 3.33301 -34.502 10s-12.5 15.667 -12.5 27c0 10 4.83301 19 14.5 27s25.834 12 48.501 12h74v-21c0 -17.333 -9.16699 -30.833 -27.5 -40.5
s-39.166 -14.5 -62.499 -14.5zM162.002 713.998l199 -169l-62 -66l-209 132z" />
    <glyph glyph-name="aacute" unicode="&#xe1;" horiz-adv-x="451" 
d="M219 315c23.333 0 39.8369 -5.83496 49.5039 -17.502s14.5 -24.167 14.5 -37.5v-16h-74c-56.667 0 -101.334 -9.66699 -134.001 -29s-49 -51.666 -49 -96.999c0 -18 3.5 -34.5 10.5 -49.5s17 -28 30 -39s28.167 -19.5 45.5 -25.5s36.666 -9 57.999 -9
c30 0 53.667 5.33301 71 16s31.333 23.667 42 39l10 -50h110v259c0 21.333 -3.83301 41.166 -11.5 59.499s-19 34.333 -34 48s-33.5 24.334 -55.5 32.001s-47.667 11.5 -77 11.5c-28.667 0 -53.834 -3.83301 -75.501 -11.5s-40.167 -18 -55.5 -31s-27.833 -27.667 -37.5 -44
s-16.834 -33.166 -21.501 -50.499h118c4 12 11.5 22 22.5 30s25.5 12 43.5 12zM193.004 89.998c-14.667 0 -26.1689 3.33301 -34.502 10s-12.5 15.667 -12.5 27c0 10 4.83301 19 14.5 27s25.834 12 48.501 12h74v-21c0 -17.333 -9.16699 -30.833 -27.5 -40.5
s-39.166 -14.5 -62.499 -14.5zM361.002 610.998l-209 -132l-62 66l199 169z" />
    <glyph glyph-name="acircumflex" unicode="&#xe2;" horiz-adv-x="451" 
d="M219 315c-18 0 -32.5039 -3.99805 -43.5039 -11.998s-18.5 -18 -22.5 -30h-118c4.66699 17.333 11.834 34.166 21.501 50.499s22.167 31 37.5 44s33.833 23.333 55.5 31s46.834 11.5 75.501 11.5c29.333 0 55 -3.83301 77 -11.5s40.5 -18.334 55.5 -32.001
s26.333 -29.667 34 -48s11.5 -38.166 11.5 -59.499v-259h-110l-10 50c-10.667 -15.333 -24.667 -28.333 -42 -39s-41 -16 -71 -16c-21.333 0 -40.666 3 -57.999 9s-32.5 14.5 -45.5 25.5s-23 24 -30 39s-10.5 31.5 -10.5 49.5c0 45.333 16.333 77.666 49 96.999
s77.334 29 134.001 29h74v16c0 13.333 -4.83301 25.833 -14.5 37.5s-26.167 17.5 -49.5 17.5zM192.996 90.002c23.333 0 44.168 4.83301 62.501 14.5s27.5 23.167 27.5 40.5v21h-74c-22.667 0 -38.834 -4 -48.501 -12s-14.5 -17 -14.5 -27
c0 -11.333 4.16699 -20.333 12.5 -27s19.833 -10 34.5 -10zM396.998 549.002l-57 -71l-115 78l-114 -79l-58 72l172 131z" />
    <glyph glyph-name="atilde" unicode="&#xe3;" horiz-adv-x="451" 
d="M219 315c-18 0 -32.5039 -3.99805 -43.5039 -11.998s-18.5 -18 -22.5 -30h-118c4.66699 17.333 11.834 34.166 21.501 50.499s22.167 31 37.5 44s33.833 23.333 55.5 31s46.834 11.5 75.501 11.5c29.333 0 55 -3.83301 77 -11.5s40.5 -18.334 55.5 -32.001
s26.333 -29.667 34 -48s11.5 -38.166 11.5 -59.499v-259h-110l-10 50c-10.667 -15.333 -24.667 -28.333 -42 -39s-41 -16 -71 -16c-21.333 0 -40.666 3 -57.999 9s-32.5 14.5 -45.5 25.5s-23 24 -30 39s-10.5 31.5 -10.5 49.5c0 45.333 16.333 77.666 49 96.999
s77.334 29 134.001 29h74v16c0 13.333 -4.83301 25.833 -14.5 37.5s-26.167 17.5 -49.5 17.5zM192.996 90.002c23.333 0 44.168 4.83301 62.501 14.5s27.5 23.167 27.5 40.5v21h-74c-22.667 0 -38.834 -4 -48.501 -12s-14.5 -17 -14.5 -27
c0 -11.333 4.16699 -20.333 12.5 -27s19.833 -10 34.5 -10zM301.998 491.002c-14.667 0 -27.8301 2.83301 -39.4971 8.5s-22.667 11.667 -33 18l-30.5 18c-10 5.66699 -20.667 8.5 -32 8.5c-14.667 0 -26.667 -6 -36 -18s-16 -26.667 -20 -44l-76 55
c11.333 28 27.166 52 47.499 72s43.166 30 68.499 30c14 0 27.167 -2.83301 39.5 -8.5s24 -11.667 35 -18l32.5 -18c10.667 -5.66699 22 -8.5 34 -8.5c10.667 0 20.167 6 28.5 18s14.5 26.667 18.5 44l76 -55c-11.333 -28 -26.833 -52 -46.5 -72s-41.834 -30 -66.501 -30z
" />
    <glyph glyph-name="adieresis" unicode="&#xe4;" horiz-adv-x="451" 
d="M219 315c-18 0 -32.5039 -3.99805 -43.5039 -11.998s-18.5 -18 -22.5 -30h-118c4.66699 17.333 11.834 34.166 21.501 50.499s22.167 31 37.5 44s33.833 23.333 55.5 31s46.834 11.5 75.501 11.5c29.333 0 55 -3.83301 77 -11.5s40.5 -18.334 55.5 -32.001
s26.333 -29.667 34 -48s11.5 -38.166 11.5 -59.499v-259h-110l-10 50c-10.667 -15.333 -24.667 -28.333 -42 -39s-41 -16 -71 -16c-21.333 0 -40.666 3 -57.999 9s-32.5 14.5 -45.5 25.5s-23 24 -30 39s-10.5 31.5 -10.5 49.5c0 45.333 16.333 77.666 49 96.999
s77.334 29 134.001 29h74v16c0 13.333 -4.83301 25.833 -14.5 37.5s-26.167 17.5 -49.5 17.5zM192.996 90.002c23.333 0 44.168 4.83301 62.501 14.5s27.5 23.167 27.5 40.5v21h-74c-22.667 0 -38.834 -4 -48.501 -12s-14.5 -17 -14.5 -27
c0 -11.333 4.16699 -20.333 12.5 -27s19.833 -10 34.5 -10zM29.998 573.002c0 21.333 7.33301 39.166 22 53.499s32.667 21.5 54 21.5s39.166 -7.16699 53.499 -21.5s21.5 -32.166 21.5 -53.499s-7.16699 -39.333 -21.5 -54s-32.166 -22 -53.499 -22s-39.333 7.33301 -54 22
s-22 32.667 -22 54zM268.998 573.002c0 21.333 7.16699 39.166 21.5 53.499s32.166 21.5 53.499 21.5s39.333 -7.16699 54 -21.5s22 -32.166 22 -53.499s-7.33301 -39.333 -22 -54s-32.667 -22 -54 -22s-39.166 7.33301 -53.499 22s-21.5 32.667 -21.5 54z" />
    <glyph glyph-name="aring" unicode="&#xe5;" horiz-adv-x="451" 
d="M219 315c-18 0 -32.5039 -3.99805 -43.5039 -11.998s-18.5 -18 -22.5 -30h-118c4.66699 17.333 11.834 34.166 21.501 50.499s22.167 31 37.5 44s33.833 23.333 55.5 31s46.834 11.5 75.501 11.5c29.333 0 55 -3.83301 77 -11.5s40.5 -18.334 55.5 -32.001
s26.333 -29.667 34 -48s11.5 -38.166 11.5 -59.499v-259h-110l-10 50c-10.667 -15.333 -24.667 -28.333 -42 -39s-41 -16 -71 -16c-21.333 0 -40.666 3 -57.999 9s-32.5 14.5 -45.5 25.5s-23 24 -30 39s-10.5 31.5 -10.5 49.5c0 45.333 16.333 77.666 49 96.999
s77.334 29 134.001 29h74v16c0 13.333 -4.83301 25.833 -14.5 37.5s-26.167 17.5 -49.5 17.5zM192.996 90.002c23.333 0 44.168 4.83301 62.501 14.5s27.5 23.167 27.5 40.5v21h-74c-22.667 0 -38.834 -4 -48.501 -12s-14.5 -17 -14.5 -27
c0 -11.333 4.16699 -20.333 12.5 -27s19.833 -10 34.5 -10zM224.998 707.002c16 0 30.833 -3 44.5 -9s25.834 -14 36.501 -24s19 -21.667 25 -35s9 -27.333 9 -42c0 -15.333 -3 -29.666 -9 -42.999s-14.333 -25 -25 -35s-22.834 -18 -36.501 -24s-28.5 -9 -44.5 -9
s-30.833 3 -44.5 9s-25.834 14 -36.501 24s-19 21.667 -25 35s-9 27.666 -9 42.999c0 14.667 3 28.667 9 42s14.333 25 25 35s22.834 18 36.501 24s28.5 9 44.5 9zM224.998 642.002c-12.667 0 -23.334 -4.66699 -32.001 -14s-13 -19.666 -13 -30.999
c0 -12 4.33301 -22.833 13 -32.5s19.334 -14.5 32.001 -14.5s23.334 4.83301 32.001 14.5s13 20.5 13 32.5c0 11.333 -4.33301 21.666 -13 30.999s-19.334 14 -32.001 14z" />
    <glyph glyph-name="ae" unicode="&#xe6;" horiz-adv-x="731" 
d="M401 170c4.66699 -21.333 14.498 -40.002 29.498 -56.002s37.167 -24 66.5 -24c18.667 0 34.667 4.83301 48 14.5s22.333 21.167 27 34.5h119c-10.667 -44 -32.167 -79.833 -64.5 -107.5s-76.5 -41.5 -132.5 -41.5c-36 0 -66.333 6.83301 -91 20.5
s-46.334 31.834 -65.001 54.501c-6 -7.33301 -13.333 -15 -22 -23s-19.834 -15.5 -33.501 -22.5s-29.667 -12.833 -48 -17.5s-39.833 -7 -64.5 -7c-21.333 0 -40.666 3 -57.999 9s-32.5 14.5 -45.5 25.5s-23 24 -30 39s-10.5 31.5 -10.5 49.5
c0 44.667 16.333 76.167 49 94.5s77.334 27.5 134.001 27.5h74v20c0 13.333 -4.83301 25.833 -14.5 37.5s-26.167 17.5 -49.5 17.5c-18 0 -32.5 -4 -43.5 -12s-18.5 -18 -22.5 -30h-118c4.66699 17.333 11.834 34.166 21.501 50.499s22.167 31 37.5 44
s33.833 23.333 55.5 31s46.834 11.5 75.501 11.5c30 0 56.667 -5.16699 80 -15.5s41 -23.5 53 -39.5c13.333 16 32.333 29.167 57 39.5s50 15.5 76 15.5c31.333 0 59.833 -6 85.5 -18s47.5 -27.667 65.5 -47s32 -41.166 42 -65.499s15 -49.166 15 -74.499v-15.5
c0 -5 -0.666992 -11.5 -2 -19.5h-296zM498.998 309.998c-24.667 0 -44.5 -7.33301 -59.5 -22s-25.833 -30.667 -32.5 -48h173c-2.66699 16 -11.167 31.667 -25.5 47s-32.833 23 -55.5 23zM192.998 89.998c12 0 23.334 1.50098 34.001 4.50098s20.167 7.16699 28.5 12.5
s15 11.666 20 18.999s7.5 15.333 7.5 24v20h-74c-22.667 0 -38.834 -4.66699 -48.501 -14s-14.5 -19 -14.5 -29c0 -11.333 4.16699 -20.333 12.5 -27s19.833 -10 34.5 -10z" />
    <glyph glyph-name="ccedilla" unicode="&#xe7;" horiz-adv-x="474" 
d="M314 247c-3.33301 13.333 -11.6699 24.498 -25.0029 33.498s-27.666 13.5 -42.999 13.5c-24 0 -44.333 -8.33301 -61 -25s-25 -39.667 -25 -69s8.33301 -52.333 25 -69s37 -25 61 -25c18.667 0 33.5 4.5 44.5 13.5s18.833 20.167 23.5 33.5h130
c-2.66699 -22.667 -9.16699 -44 -19.5 -64s-24 -37.333 -41 -52s-37.167 -26.167 -60.5 -34.5s-49.333 -12.5 -78 -12.5c-32 0 -61.167 5.5 -87.5 16.5s-48.666 26 -66.999 45s-32.666 41.333 -42.999 67s-15.5 52.834 -15.5 81.501s5.16699 55.834 15.5 81.501
s24.833 48 43.5 67s41 34 67 45s55 16.5 87 16.5c28.667 0 54.667 -4.16699 78 -12.5s43.5 -19.833 60.5 -34.5s30.667 -32 41 -52s16.833 -41.333 19.5 -64h-130zM212.996 -284.002l-87 51l95 201l126 -44z" />
    <glyph glyph-name="egrave" unicode="&#xe8;" horiz-adv-x="482" 
d="M448 173c1.33301 8 2.00195 14.502 2.00195 19.502v15.5c0 25.333 -5 50 -15 74s-24 45.5 -42 64.5s-39.833 34.333 -65.5 46s-54.167 17.5 -85.5 17.5c-30.667 0 -58.834 -5.5 -84.501 -16.5s-47.834 -26 -66.501 -45s-33.167 -41.333 -43.5 -67
s-15.5 -52.834 -15.5 -81.501s5.16699 -55.834 15.5 -81.501s24.833 -48 43.5 -67s41 -34 67 -45s55 -16.5 87 -16.5c56 0 100.167 13.833 132.5 41.5s53.833 63.5 64.5 107.5h-119c-4.66699 -13.333 -13.667 -24.833 -27 -34.5s-29.333 -14.5 -48 -14.5
c-29.333 0 -51.5 8.5 -66.5 25.5s-24.833 36.167 -29.5 57.5h296zM250.002 310.002c20.667 0 38.667 -7.16699 54 -21.5s24.333 -29.5 27 -45.5h-173c6.66699 17.333 17.5 32.833 32.5 46.5s34.833 20.5 59.5 20.5zM177.002 714.002l199 -169l-62 -66l-209 132z" />
    <glyph glyph-name="eacute" unicode="&#xe9;" horiz-adv-x="482" 
d="M448 173c1.33301 8 2.00195 14.502 2.00195 19.502v15.5c0 25.333 -5 50 -15 74s-24 45.5 -42 64.5s-39.833 34.333 -65.5 46s-54.167 17.5 -85.5 17.5c-30.667 0 -58.834 -5.5 -84.501 -16.5s-47.834 -26 -66.501 -45s-33.167 -41.333 -43.5 -67
s-15.5 -52.834 -15.5 -81.501s5.16699 -55.834 15.5 -81.501s24.833 -48 43.5 -67s41 -34 67 -45s55 -16.5 87 -16.5c56 0 100.167 13.833 132.5 41.5s53.833 63.5 64.5 107.5h-119c-4.66699 -13.333 -13.667 -24.833 -27 -34.5s-29.333 -14.5 -48 -14.5
c-29.333 0 -51.5 8.5 -66.5 25.5s-24.833 36.167 -29.5 57.5h296zM250.002 310.002c20.667 0 38.667 -7.16699 54 -21.5s24.333 -29.5 27 -45.5h-173c6.66699 17.333 17.5 32.833 32.5 46.5s34.833 20.5 59.5 20.5zM376.002 611.002l-209 -132l-62 66l199 169z" />
    <glyph glyph-name="ecircumflex" unicode="&#xea;" horiz-adv-x="482" 
d="M152 173c4.66699 -21.333 14.498 -40.502 29.498 -57.502s37.167 -25.5 66.5 -25.5c18.667 0 34.667 4.83301 48 14.5s22.333 21.167 27 34.5h119c-10.667 -44 -32.167 -79.833 -64.5 -107.5s-76.5 -41.5 -132.5 -41.5c-32 0 -61 5.5 -87 16.5s-48.333 26 -67 45
s-33.167 41.333 -43.5 67s-15.5 52.834 -15.5 81.501s5.16699 55.834 15.5 81.501s24.833 48 43.5 67s40.834 34 66.501 45s53.834 16.5 84.501 16.5c31.333 0 59.833 -5.83301 85.5 -17.5s47.5 -27 65.5 -46s32 -40.5 42 -64.5s15 -48.667 15 -74v-15.5
c0 -5 -0.666992 -11.5 -2 -19.5h-296zM249.998 309.998c-24.667 0 -44.5 -6.83301 -59.5 -20.5s-25.833 -29.167 -32.5 -46.5h173c-2.66699 16 -11.667 31.167 -27 45.5s-33.333 21.5 -54 21.5zM412.998 548.998l-57 -71l-115 78l-114 -79l-58 72l172 131z" />
    <glyph glyph-name="edieresis" unicode="&#xeb;" horiz-adv-x="482" 
d="M152 173c4.66699 -21.333 14.498 -40.502 29.498 -57.502s37.167 -25.5 66.5 -25.5c18.667 0 34.667 4.83301 48 14.5s22.333 21.167 27 34.5h119c-10.667 -44 -32.167 -79.833 -64.5 -107.5s-76.5 -41.5 -132.5 -41.5c-32 0 -61 5.5 -87 16.5s-48.333 26 -67 45
s-33.167 41.333 -43.5 67s-15.5 52.834 -15.5 81.501s5.16699 55.834 15.5 81.501s24.833 48 43.5 67s40.834 34 66.501 45s53.834 16.5 84.501 16.5c31.333 0 59.833 -5.83301 85.5 -17.5s47.5 -27 65.5 -46s32 -40.5 42 -64.5s15 -48.667 15 -74v-15.5
c0 -5 -0.666992 -11.5 -2 -19.5h-296zM249.998 309.998c-24.667 0 -44.5 -6.83301 -59.5 -20.5s-25.833 -29.167 -32.5 -46.5h173c-2.66699 16 -11.667 31.167 -27 45.5s-33.333 21.5 -54 21.5zM45.998 572.998c0 21.333 7.33301 39.166 22 53.499s32.667 21.5 54 21.5
s39.166 -7.16699 53.499 -21.5s21.5 -32.166 21.5 -53.499s-7.16699 -39.333 -21.5 -54s-32.166 -22 -53.499 -22s-39.333 7.33301 -54 22s-22 32.667 -22 54zM284.998 572.998c0 21.333 7.16699 39.166 21.5 53.499s32.166 21.5 53.499 21.5s39.333 -7.16699 54 -21.5
s22 -32.166 22 -53.499s-7.33301 -39.333 -22 -54s-32.667 -22 -54 -22s-39.166 7.33301 -53.499 22s-21.5 32.667 -21.5 54z" />
    <glyph glyph-name="igrave" unicode="&#xec;" horiz-adv-x="246" 
d="M58 0h130v400h-130v-400zM60 714l199 -169l-62 -66l-209 132z" />
    <glyph glyph-name="iacute" unicode="&#xed;" horiz-adv-x="246" 
d="M58 0h130v400h-130v-400zM259 611l-209 -132l-62 66l199 169z" />
    <glyph glyph-name="icircumflex" unicode="&#xee;" horiz-adv-x="246" 
d="M58 400h130v-400h-130v400zM295 549l-57 -71l-115 78l-114 -79l-58 72l172 131z" />
    <glyph glyph-name="idieresis" unicode="&#xef;" horiz-adv-x="246" 
d="M58 400h130v-400h-130v400zM-72 573c0 21.333 7.33301 39.166 22 53.499s32.667 21.5 54 21.5s39.166 -7.16699 53.499 -21.5s21.5 -32.166 21.5 -53.499s-7.16699 -39.333 -21.5 -54s-32.166 -22 -53.499 -22s-39.333 7.33301 -54 22s-22 32.667 -22 54zM167 573
c0 21.333 7.16699 39.166 21.5 53.499s32.166 21.5 53.499 21.5s39.333 -7.16699 54 -21.5s22 -32.166 22 -53.499s-7.33301 -39.333 -22 -54s-32.667 -22 -54 -22s-39.166 7.33301 -53.499 22s-21.5 32.667 -21.5 54z" />
    <glyph glyph-name="eth" unicode="&#xf0;" horiz-adv-x="521" 
d="M175 499l37.998 22.001c-12.667 5.33301 -26 10.166 -40 14.499s-29 7.83301 -45 10.5l57 103c20 -6 42 -14.333 66 -25s47.667 -24 71 -40l80 46l41 -71l-55 -32c28 -30 50.833 -65.833 68.5 -107.5s26.5 -91.834 26.5 -150.501c0 -38.667 -4.83301 -75 -14.5 -109
s-24 -63.5 -43 -88.5s-43 -44.833 -72 -59.5s-62.833 -22 -101.5 -22c-31.333 0 -60.333 4.83301 -87 14.5s-49.667 23.667 -69 42s-34.5 40.5 -45.5 66.5s-16.5 55 -16.5 87c0 34 5.83301 64.167 17.5 90.5s27.5 48.333 47.5 66s43 31 69 40s53 13.5 81 13.5
c24.667 0 45.834 -4 63.501 -12s30.834 -15 39.501 -21c-8 16.667 -17.167 32.834 -27.5 48.501s-22.5 30.167 -36.5 43.5l-72 -41zM163.998 198.001c0 -29.333 9 -51.667 27 -67s38.333 -23 61 -23c19.333 0 35.333 4 48 12s22.834 18.5 30.501 31.5
s13.167 28.167 16.5 45.5s5 35 5 53c-2.66699 3.33301 -6.83398 7.5 -12.501 12.5s-12.5 9.66699 -20.5 14s-17.167 8 -27.5 11s-21.5 4.5 -33.5 4.5c-28.667 0 -51.5 -8.66699 -68.5 -26s-25.5 -40 -25.5 -68z" />
    <glyph glyph-name="ntilde" unicode="&#xf1;" horiz-adv-x="520" 
d="M52 400l120.001 0.00292969l10 -50c13.333 15.333 30.5 29.166 51.5 41.499s47.833 18.5 80.5 18.5c22 0 42.5 -3.66699 61.5 -11s35.667 -17.833 50 -31.5s25.666 -30.334 33.999 -50.001s12.5 -42.167 12.5 -67.5v-250h-130v219c0 48.667 -22 73 -66 73
c-22 0 -41 -6.83301 -57 -20.5s-28.333 -29.834 -37 -48.501v-223h-130v400zM337.001 491.003c-14.667 0 -27.8301 2.83301 -39.4971 8.5s-22.667 11.667 -33 18l-30.5 18c-10 5.66699 -20.667 8.5 -32 8.5c-14.667 0 -26.667 -6 -36 -18s-16 -26.667 -20 -44l-76 55
c11.333 28 27.166 52 47.499 72s43.166 30 68.499 30c14 0 27.167 -2.83301 39.5 -8.5s24 -11.667 35 -18l32.5 -18c10.667 -5.66699 22 -8.5 34 -8.5c10.667 0 20.167 6 28.5 18s14.5 26.667 18.5 44l76 -55c-11.333 -28 -26.833 -52 -46.5 -72s-41.834 -30 -66.501 -30z
" />
    <glyph glyph-name="ograve" unicode="&#xf2;" horiz-adv-x="482" 
d="M160 200c0 29.333 7.5 52.333 22.5 69s34.5 25 58.5 25s43.5 -8.33301 58.5 -25s22.5 -39.667 22.5 -69s-7.5 -52.333 -22.5 -69s-34.5 -25 -58.5 -25s-43.5 8.33301 -58.5 25s-22.5 39.667 -22.5 69zM32 200c0 -28.667 5.16699 -55.834 15.5 -81.501
s24.666 -48 42.999 -67s40.333 -34 66 -45s53.834 -16.5 84.501 -16.5s58.834 5.5 84.501 16.5s47.667 26 66 45s32.666 41.333 42.999 67s15.5 52.834 15.5 81.501s-5.16699 55.834 -15.5 81.501s-24.666 48 -42.999 67s-40.333 34 -66 45s-53.834 16.5 -84.501 16.5
s-58.834 -5.5 -84.501 -16.5s-47.667 -26 -66 -45s-32.666 -41.333 -42.999 -67s-15.5 -52.834 -15.5 -81.501zM177 714l199 -169l-62 -66l-209 132z" />
    <glyph glyph-name="oacute" unicode="&#xf3;" horiz-adv-x="482" 
d="M160 200c0 29.333 7.5 52.333 22.5 69s34.5 25 58.5 25s43.5 -8.33301 58.5 -25s22.5 -39.667 22.5 -69s-7.5 -52.333 -22.5 -69s-34.5 -25 -58.5 -25s-43.5 8.33301 -58.5 25s-22.5 39.667 -22.5 69zM32 200c0 -28.667 5.16699 -55.834 15.5 -81.501
s24.666 -48 42.999 -67s40.333 -34 66 -45s53.834 -16.5 84.501 -16.5s58.834 5.5 84.501 16.5s47.667 26 66 45s32.666 41.333 42.999 67s15.5 52.834 15.5 81.501s-5.16699 55.834 -15.5 81.501s-24.666 48 -42.999 67s-40.333 34 -66 45s-53.834 16.5 -84.501 16.5
s-58.834 -5.5 -84.501 -16.5s-47.667 -26 -66 -45s-32.666 -41.333 -42.999 -67s-15.5 -52.834 -15.5 -81.501zM376 611l-209 -132l-62 66l199 169z" />
    <glyph glyph-name="ocircumflex" unicode="&#xf4;" horiz-adv-x="482" 
d="M160 200c0 -29.333 7.5 -52.333 22.5 -69s34.5 -25 58.5 -25s43.5 8.33301 58.5 25s22.5 39.667 22.5 69s-7.5 52.333 -22.5 69s-34.5 25 -58.5 25s-43.5 -8.33301 -58.5 -25s-22.5 -39.667 -22.5 -69zM32 200c0 28.667 5.16699 55.834 15.5 81.501s24.666 48 42.999 67
s40.333 34 66 45s53.834 16.5 84.501 16.5s58.834 -5.5 84.501 -16.5s47.667 -26 66 -45s32.666 -41.333 42.999 -67s15.5 -52.834 15.5 -81.501s-5.16699 -55.834 -15.5 -81.501s-24.666 -48 -42.999 -67s-40.333 -34 -66 -45s-53.834 -16.5 -84.501 -16.5
s-58.834 5.5 -84.501 16.5s-47.667 26 -66 45s-32.666 41.333 -42.999 67s-15.5 52.834 -15.5 81.501zM413 549l-57 -71l-115 78l-114 -79l-58 72l172 131z" />
    <glyph glyph-name="otilde" unicode="&#xf5;" horiz-adv-x="482" 
d="M160 200c0 -29.333 7.5 -52.333 22.5 -69s34.5 -25 58.5 -25s43.5 8.33301 58.5 25s22.5 39.667 22.5 69s-7.5 52.333 -22.5 69s-34.5 25 -58.5 25s-43.5 -8.33301 -58.5 -25s-22.5 -39.667 -22.5 -69zM32 200c0 28.667 5.16699 55.834 15.5 81.501s24.666 48 42.999 67
s40.333 34 66 45s53.834 16.5 84.501 16.5s58.834 -5.5 84.501 -16.5s47.667 -26 66 -45s32.666 -41.333 42.999 -67s15.5 -52.834 15.5 -81.501s-5.16699 -55.834 -15.5 -81.501s-24.666 -48 -42.999 -67s-40.333 -34 -66 -45s-53.834 -16.5 -84.501 -16.5
s-58.834 5.5 -84.501 16.5s-47.667 26 -66 45s-32.666 41.333 -42.999 67s-15.5 52.834 -15.5 81.501zM318 491c-14.667 0 -27.8301 2.83301 -39.4971 8.5s-22.667 11.667 -33 18l-30.5 18c-10 5.66699 -20.667 8.5 -32 8.5c-14.667 0 -26.667 -6 -36 -18
s-16 -26.667 -20 -44l-76 55c11.333 28 27.166 52 47.499 72s43.166 30 68.499 30c14 0 27.167 -2.83301 39.5 -8.5s24 -11.667 35 -18l32.5 -18c10.667 -5.66699 22 -8.5 34 -8.5c10.667 0 20.167 6 28.5 18s14.5 26.667 18.5 44l76 -55c-11.333 -28 -26.833 -52 -46.5 -72
s-41.834 -30 -66.501 -30z" />
    <glyph glyph-name="odieresis" unicode="&#xf6;" horiz-adv-x="482" 
d="M160 200c0 -29.333 7.5 -52.333 22.5 -69s34.5 -25 58.5 -25s43.5 8.33301 58.5 25s22.5 39.667 22.5 69s-7.5 52.333 -22.5 69s-34.5 25 -58.5 25s-43.5 -8.33301 -58.5 -25s-22.5 -39.667 -22.5 -69zM32 200c0 28.667 5.16699 55.834 15.5 81.501s24.666 48 42.999 67
s40.333 34 66 45s53.834 16.5 84.501 16.5s58.834 -5.5 84.501 -16.5s47.667 -26 66 -45s32.666 -41.333 42.999 -67s15.5 -52.834 15.5 -81.501s-5.16699 -55.834 -15.5 -81.501s-24.666 -48 -42.999 -67s-40.333 -34 -66 -45s-53.834 -16.5 -84.501 -16.5
s-58.834 5.5 -84.501 16.5s-47.667 26 -66 45s-32.666 41.333 -42.999 67s-15.5 52.834 -15.5 81.501zM46 573c0 21.333 7.33301 39.166 22 53.499s32.667 21.5 54 21.5s39.166 -7.16699 53.499 -21.5s21.5 -32.166 21.5 -53.499s-7.16699 -39.333 -21.5 -54
s-32.166 -22 -53.499 -22s-39.333 7.33301 -54 22s-22 32.667 -22 54zM285 573c0 21.333 7.16699 39.166 21.5 53.499s32.166 21.5 53.499 21.5s39.333 -7.16699 54 -21.5s22 -32.166 22 -53.499s-7.33301 -39.333 -22 -54s-32.667 -22 -54 -22s-39.166 7.33301 -53.499 22
s-21.5 32.667 -21.5 54z" />
    <glyph glyph-name="divide" unicode="&#xf7;" 
d="M537 225h-470v120h470v-120zM228 467c0 20.667 7.16699 38.334 21.5 53.001s31.833 22 52.5 22s38.334 -7.33301 53.001 -22s22 -32.334 22 -53.001s-7.33301 -38.167 -22 -52.5s-32.334 -21.5 -53.001 -21.5s-38.167 7.16699 -52.5 21.5s-21.5 31.833 -21.5 52.5z
M228 102c0 20.667 7.16699 38.334 21.5 53.001s31.833 22 52.5 22s38.334 -7.33301 53.001 -22s22 -32.334 22 -53.001s-7.33301 -38.167 -22 -52.5s-32.334 -21.5 -53.001 -21.5s-38.167 7.16699 -52.5 21.5s-21.5 31.833 -21.5 52.5z" />
    <glyph glyph-name="oslash" unicode="&#xf8;" horiz-adv-x="482" 
d="M109 34c-24 19.333 -42.832 43.332 -56.499 71.999s-20.5 60 -20.5 94c0 28.667 5.16699 55.834 15.5 81.501s24.666 48 42.999 67s40.333 34 66 45s53.834 16.5 84.501 16.5c28.667 0 55 -5 79 -15l56 97l57 -29l-58 -100c23.333 -19.333 41.666 -43.166 54.999 -71.499
s20 -58.833 20 -91.5c0 -28.667 -5.16699 -55.834 -15.5 -81.501s-24.666 -48 -42.999 -67s-40.333 -34 -66 -45s-53.834 -16.5 -84.501 -16.5c-25.333 0 -50.333 4.33301 -75 13l-60 -103l-58 29zM160.001 199.999c0 -21.333 4.33301 -40 13 -56l86 148
c-3.33301 0.666992 -6.33301 1.16699 -9 1.5s-5.66699 0.5 -9 0.5c-24 0 -43.5 -8.33301 -58.5 -25s-22.5 -39.667 -22.5 -69zM322.001 199.999c0 19.333 -4 36.667 -12 52l-84 -145c3.33301 -0.666992 8.33301 -1 15 -1c24 0 43.5 8.33301 58.5 25s22.5 39.667 22.5 69z
" />
    <glyph glyph-name="ugrave" unicode="&#xf9;" horiz-adv-x="510" 
d="M460 400l-129.999 -0.000976562v-223c-8 -19.333 -19.5 -35.666 -34.5 -48.999s-33.5 -20 -55.5 -20s-37.833 5.5 -47.5 16.5s-14.5 27.5 -14.5 49.5v226h-130v-250c0 -50.667 13.833 -90 41.5 -118s63.5 -42 107.5 -42c35.333 0 63.166 6 83.499 18s36.833 26 49.5 42
l10 -50h120v400zM191.001 713.999l199 -169l-62 -66l-209 132z" />
    <glyph glyph-name="uacute" unicode="&#xfa;" horiz-adv-x="510" 
d="M460 400l-129.999 -0.000976562v-223c-8 -19.333 -19.5 -35.666 -34.5 -48.999s-33.5 -20 -55.5 -20s-37.833 5.5 -47.5 16.5s-14.5 27.5 -14.5 49.5v226h-130v-250c0 -50.667 13.833 -90 41.5 -118s63.5 -42 107.5 -42c35.333 0 63.166 6 83.499 18s36.833 26 49.5 42
l10 -50h120v400zM390.001 610.999l-209 -132l-62 66l199 169z" />
    <glyph glyph-name="ucircumflex" unicode="&#xfb;" horiz-adv-x="510" 
d="M460 0l-120.001 0.000976562l-10 50c-12.667 -16 -29.167 -30 -49.5 -42s-48.166 -18 -83.499 -18c-44 0 -79.833 14 -107.5 42s-41.5 67.333 -41.5 118v250h130v-226c0 -22 4.83301 -38.5 14.5 -49.5s25.5 -16.5 47.5 -16.5s40.5 6.66699 55.5 20
s26.5 29.666 34.5 48.999v223h130v-400zM426.999 549.001l-57 -71l-115 78l-114 -79l-58 72l172 131z" />
    <glyph glyph-name="udieresis" unicode="&#xfc;" horiz-adv-x="510" 
d="M460 0l-120.001 0.000976562l-10 50c-12.667 -16 -29.167 -30 -49.5 -42s-48.166 -18 -83.499 -18c-44 0 -79.833 14 -107.5 42s-41.5 67.333 -41.5 118v250h130v-226c0 -22 4.83301 -38.5 14.5 -49.5s25.5 -16.5 47.5 -16.5s40.5 6.66699 55.5 20
s26.5 29.666 34.5 48.999v223h130v-400zM59.999 573.001c0 21.333 7.33301 39.166 22 53.499s32.667 21.5 54 21.5s39.166 -7.16699 53.499 -21.5s21.5 -32.166 21.5 -53.499s-7.16699 -39.333 -21.5 -54s-32.166 -22 -53.499 -22s-39.333 7.33301 -54 22s-22 32.667 -22 54
zM298.999 573.001c0 21.333 7.16699 39.166 21.5 53.499s32.166 21.5 53.499 21.5s39.333 -7.16699 54 -21.5s22 -32.166 22 -53.499s-7.33301 -39.333 -22 -54s-32.667 -22 -54 -22s-39.166 7.33301 -53.499 22s-21.5 32.667 -21.5 54z" />
    <glyph glyph-name="yacute" unicode="&#xfd;" horiz-adv-x="449" 
d="M23 -251h116l320 651h-132l-103 -229l-102 229h-132l174 -356zM360 611l-209 -132l-62 66l199 169z" />
    <glyph glyph-name="thorn" unicode="&#xfe;" horiz-adv-x="512" 
d="M52 653l130.002 0.00195312v-303c11.333 15.333 26.666 29.166 45.999 41.499s45.666 18.5 78.999 18.5c20 0 40.167 -4.5 60.5 -13.5s38.666 -22.333 54.999 -40s29.666 -39.5 39.999 -65.5s15.5 -56.333 15.5 -91c0 -30 -4.5 -57.667 -13.5 -83
s-21.333 -47.5 -37 -66.5s-34.167 -33.833 -55.5 -44.5s-44.666 -16 -69.999 -16c-29.333 0 -54.166 5.66699 -74.499 17s-35.5 23.666 -45.5 36.999v-294h-130v903zM269.002 106.002c24 0 43.5 8.33301 58.5 25s22.5 39.667 22.5 69s-7.5 52.333 -22.5 69
s-34.5 25 -58.5 25s-44.833 -8.33301 -62.5 -25s-26.5 -39.667 -26.5 -69s8.83301 -52.333 26.5 -69s38.5 -25 62.5 -25z" />
    <glyph glyph-name="ydieresis" unicode="&#xff;" horiz-adv-x="449" 
d="M164 44l-174 356h132l102 -229l103 229h132l-320 -651h-116zM29 573c0 21.333 7.33301 39.166 22 53.499s32.667 21.5 54 21.5s39.166 -7.16699 53.499 -21.5s21.5 -32.166 21.5 -53.499s-7.16699 -39.333 -21.5 -54s-32.166 -22 -53.499 -22s-39.333 7.33301 -54 22
s-22 32.667 -22 54zM268 573c0 21.333 7.16699 39.166 21.5 53.499s32.166 21.5 53.499 21.5s39.333 -7.16699 54 -21.5s22 -32.166 22 -53.499s-7.33301 -39.333 -22 -54s-32.667 -22 -54 -22s-39.166 7.33301 -53.499 22s-21.5 32.667 -21.5 54z" />
    <glyph glyph-name="Amacron" unicode="&#x100;" horiz-adv-x="718" 
d="M359 479l-96 -223h192zM209 131l-57 -131h-152l312 702h94l312 -702h-152l-57 131h-300zM199 854h320v-93h-320v93z" />
    <glyph glyph-name="amacron" unicode="&#x101;" horiz-adv-x="451" 
d="M219 315c-18 0 -32.5039 -3.99805 -43.5039 -11.998s-18.5 -18 -22.5 -30h-118c4.66699 17.333 11.834 34.166 21.501 50.499s22.167 31 37.5 44s33.833 23.333 55.5 31s46.834 11.5 75.501 11.5c29.333 0 55 -3.83301 77 -11.5s40.5 -18.334 55.5 -32.001
s26.333 -29.667 34 -48s11.5 -38.166 11.5 -59.499v-259h-110l-10 50c-10.667 -15.333 -24.667 -28.333 -42 -39s-41 -16 -71 -16c-21.333 0 -40.666 3 -57.999 9s-32.5 14.5 -45.5 25.5s-23 24 -30 39s-10.5 31.5 -10.5 49.5c0 45.333 16.333 77.666 49 96.999
s77.334 29 134.001 29h74v16c0 13.333 -4.83301 25.833 -14.5 37.5s-26.167 17.5 -49.5 17.5zM192.996 90.002c23.333 0 44.168 4.83301 62.501 14.5s27.5 23.167 27.5 40.5v21h-74c-22.667 0 -38.834 -4 -48.501 -12s-14.5 -17 -14.5 -27
c0 -11.333 4.16699 -20.333 12.5 -27s19.833 -10 34.5 -10zM64.998 600.002h320v-103h-320v103z" />
    <glyph glyph-name="Abreve" unicode="&#x102;" horiz-adv-x="718" 
d="M359 479l-96 -223h192zM209 131l-57 -131h-152l312 702h94l312 -702h-152l-57 131h-300zM359 851c13.333 0 26 3.83301 38 11.5s19.333 18.834 22 33.501h108c-0.666992 -21.333 -5.66699 -40.5 -15 -57.5s-21.833 -31.5 -37.5 -43.5s-33.5 -21.167 -53.5 -27.5
s-40.667 -9.5 -62 -9.5s-42 3.16699 -62 9.5s-37.833 15.5 -53.5 27.5s-28.167 26.5 -37.5 43.5s-14.333 36.167 -15 57.5h108c2.66699 -14.667 10 -25.834 22 -33.501s24.667 -11.5 38 -11.5z" />
    <glyph glyph-name="abreve" unicode="&#x103;" horiz-adv-x="451" 
d="M219 315c-18 0 -32.5039 -3.99805 -43.5039 -11.998s-18.5 -18 -22.5 -30h-118c4.66699 17.333 11.834 34.166 21.501 50.499s22.167 31 37.5 44s33.833 23.333 55.5 31s46.834 11.5 75.501 11.5c29.333 0 55 -3.83301 77 -11.5s40.5 -18.334 55.5 -32.001
s26.333 -29.667 34 -48s11.5 -38.166 11.5 -59.499v-259h-110l-10 50c-10.667 -15.333 -24.667 -28.333 -42 -39s-41 -16 -71 -16c-21.333 0 -40.666 3 -57.999 9s-32.5 14.5 -45.5 25.5s-23 24 -30 39s-10.5 31.5 -10.5 49.5c0 45.333 16.333 77.666 49 96.999
s77.334 29 134.001 29h74v16c0 13.333 -4.83301 25.833 -14.5 37.5s-26.167 17.5 -49.5 17.5zM192.996 90.002c23.333 0 44.168 4.83301 62.501 14.5s27.5 23.167 27.5 40.5v21h-74c-22.667 0 -38.834 -4 -48.501 -12s-14.5 -17 -14.5 -27
c0 -11.333 4.16699 -20.333 12.5 -27s19.833 -10 34.5 -10zM224.998 593.002c13.333 0 26 4.33301 38 13s19.333 21 22 37h108c-0.666992 -24 -5.66699 -45.333 -15 -64s-21.833 -34.667 -37.5 -48s-33.5 -23.5 -53.5 -30.5s-40.667 -10.5 -62 -10.5s-42 3.5 -62 10.5
s-37.833 17.167 -53.5 30.5s-28.167 29.333 -37.5 48s-14.333 40 -15 64h108c2.66699 -16 10 -28.333 22 -37s24.667 -13 38 -13z" />
    <glyph glyph-name="Aogonek" unicode="&#x104;" horiz-adv-x="718" 
d="M209 131l-56.998 -131.003h-152l312 702h94l312 -702h-51c-27.333 -19.333 -46.833 -37 -58.5 -53s-17.5 -29 -17.5 -39c0 -9.33301 3 -15.5 9 -18.5s14.333 -4.5 25 -4.5c8.66699 0 19.167 1.33301 31.5 4s25.833 6.66699 40.5 12v-102
c-14.667 -6.66699 -29.334 -11.5 -44.001 -14.5s-31 -4.5 -49 -4.5c-42 0 -73.833 9 -95.5 27s-32.5 41 -32.5 69c0 14 2.5 27.333 7.5 40s11.833 24.334 20.5 35.001s18.167 20.334 28.5 29.001s21.166 16.334 32.499 23.001l-56 128h-300zM359.002 478.997l-96 -223h192z
" />
    <glyph glyph-name="aogonek" unicode="&#x105;" horiz-adv-x="451" 
d="M219 315c-18 0 -32.501 -4 -43.501 -12s-18.5 -18 -22.5 -30h-118c4.66699 17.333 11.834 34.166 21.501 50.499s22.167 31 37.5 44s33.833 23.333 55.5 31s46.834 11.5 75.501 11.5c29.333 0 55 -3.83301 77 -11.5s40.5 -18.334 55.5 -32.001s26.333 -29.667 34 -48
s11.5 -38.166 11.5 -59.499v-259h-8c-27.333 -19.333 -46.833 -37 -58.5 -53s-17.5 -29 -17.5 -39c0 -9.33301 3 -15.5 9 -18.5s14.333 -4.5 25 -4.5c8.66699 0 19.167 1.33301 31.5 4s25.833 6.66699 40.5 12v-102c-14.667 -6.66699 -29.334 -11.5 -44.001 -14.5
s-31 -4.5 -49 -4.5c-42 0 -73.833 9 -95.5 27s-32.5 41 -32.5 69c0 14 2.5 27.333 7.5 40s11.667 24.334 20 35.001s17.666 20.334 27.999 29.001s21.166 16 32.499 22l-9 48c-10.667 -15.333 -24.667 -28.333 -42 -39s-41 -16 -71 -16c-21.333 0 -40.666 3 -57.999 9
s-32.5 14.5 -45.5 25.5s-23 24 -30 39s-10.5 31.5 -10.5 49.5c0 45.333 16.333 77.666 49 96.999s77.334 29 134.001 29h74v16c0 13.333 -4.83301 25.833 -14.5 37.5s-26.167 17.5 -49.5 17.5zM192.999 90c23.333 0 44.168 4.83301 62.501 14.5s27.5 23.167 27.5 40.5v21
h-74c-22.667 0 -38.834 -4 -48.501 -12s-14.5 -17 -14.5 -27c0 -11.333 4.16699 -20.333 12.5 -27s19.833 -10 34.5 -10z" />
    <glyph glyph-name="Cacute" unicode="&#x106;" horiz-adv-x="738" 
d="M382 124c-29.333 0 -56.334 5.83691 -81.001 17.5039s-46 27.667 -64 48s-32.167 44.166 -42.5 71.499s-15.5 57 -15.5 89s5.16699 61.667 15.5 89s24.5 51.333 42.5 72s39.333 36.834 64 48.501s51.667 17.5 81 17.5c22.667 0 43.5 -3.33301 62.5 -10
s35.667 -15.5 50 -26.5s26.333 -23.833 36 -38.5s16.834 -30 21.501 -46h153c-10 36 -24.5 69.5 -43.5 100.5s-42.333 57.833 -70 80.5s-59.5 40.5 -95.5 53.5s-75.667 19.5 -119 19.5c-47.333 0 -91.833 -9.5 -133.5 -28.5s-78 -44.833 -109 -77.5
s-55.5 -70.834 -73.5 -114.501s-27 -90.167 -27 -139.5s9 -95.833 27 -139.5s42.5 -81.834 73.5 -114.501s67.333 -58.334 109 -77.001s86.167 -28 133.5 -28c43.333 0 83.333 6.5 120 19.5s69.167 31 97.5 54s52 50.167 71 81.5s33.167 65 42.5 101h-153
c-4 -16.667 -11 -32.334 -21 -47.001s-22.5 -27.667 -37.5 -39s-32.167 -20.333 -51.5 -27s-40.333 -10 -63 -10zM504.999 865.004l-209 -119l-62 59l199 153z" />
    <glyph glyph-name="cacute" unicode="&#x107;" horiz-adv-x="474" 
d="M444 247c-2.66699 22.667 -9.16309 44.002 -19.4961 64.002s-24 37.333 -41 52s-37.167 26.167 -60.5 34.5s-49.333 12.5 -78 12.5c-32 0 -61 -5.5 -87 -16.5s-48.333 -26 -67 -45s-33.167 -41.333 -43.5 -67s-15.5 -52.834 -15.5 -81.501s5.16699 -55.834 15.5 -81.501
s24.666 -48 42.999 -67s40.666 -34 66.999 -45s55.5 -16.5 87.5 -16.5c28.667 0 54.667 4.16699 78 12.5s43.5 19.833 60.5 34.5s30.667 32 41 52s16.833 41.333 19.5 64h-130c-4.66699 -13.333 -12.5 -24.5 -23.5 -33.5s-25.833 -13.5 -44.5 -13.5
c-24 0 -44.333 8.33301 -61 25s-25 39.667 -25 69s8.33301 52.333 25 69s37 25 61 25c15.333 0 29.666 -4.5 42.999 -13.5s21.666 -20.167 24.999 -33.5h130zM372.004 611.002l-209 -132l-62 66l199 169z" />
    <glyph glyph-name="Ccircumflex" unicode="&#x108;" horiz-adv-x="738" 
d="M382 124c22.667 0 43.668 3.3291 63.001 9.99609s36.5 15.667 51.5 27s27.5 24.333 37.5 39s17 30.334 21 47.001h153c-9.33301 -36 -23.5 -69.667 -42.5 -101s-42.667 -58.5 -71 -81.5s-60.833 -41 -97.5 -54s-76.667 -19.5 -120 -19.5
c-47.333 0 -91.833 9.33301 -133.5 28s-78 44.334 -109 77.001s-55.5 70.834 -73.5 114.501s-27 90.167 -27 139.5s9 95.833 27 139.5s42.5 81.834 73.5 114.501s67.333 58.5 109 77.5s86.167 28.5 133.5 28.5c43.333 0 83 -6.5 119 -19.5s67.833 -30.833 95.5 -53.5
s51 -49.5 70 -80.5s33.5 -64.5 43.5 -100.5h-153c-4.66699 16 -11.834 31.333 -21.501 46s-21.667 27.5 -36 38.5s-31 19.833 -50 26.5s-39.833 10 -62.5 10c-29.333 0 -56.333 -5.83301 -81 -17.5s-46 -27.834 -64 -48.501s-32.167 -44.667 -42.5 -72s-15.5 -57 -15.5 -89
s5.16699 -61.667 15.5 -89s24.5 -51.166 42.5 -71.499s39.333 -36.333 64 -48s51.667 -17.5 81 -17.5zM541.001 808.996l-57 -64l-115 70l-114 -71l-58 65l172 118z" />
    <glyph glyph-name="ccircumflex" unicode="&#x109;" horiz-adv-x="474" 
d="M314 247c-3.33301 13.333 -11.6699 24.498 -25.0029 33.498s-27.666 13.5 -42.999 13.5c-24 0 -44.333 -8.33301 -61 -25s-25 -39.667 -25 -69s8.33301 -52.333 25 -69s37 -25 61 -25c18.667 0 33.5 4.5 44.5 13.5s18.833 20.167 23.5 33.5h130
c-2.66699 -22.667 -9.16699 -44 -19.5 -64s-24 -37.333 -41 -52s-37.167 -26.167 -60.5 -34.5s-49.333 -12.5 -78 -12.5c-32 0 -61.167 5.5 -87.5 16.5s-48.666 26 -66.999 45s-32.666 41.333 -42.999 67s-15.5 52.834 -15.5 81.501s5.16699 55.834 15.5 81.501
s24.833 48 43.5 67s41 34 67 45s55 16.5 87 16.5c28.667 0 54.667 -4.16699 78 -12.5s43.5 -19.833 60.5 -34.5s30.667 -32 41 -52s16.833 -41.333 19.5 -64h-130zM408.996 548.998l-57 -71l-115 78l-114 -79l-58 72l172 131z" />
    <glyph glyph-name="Cdotaccent" unicode="&#x10a;" horiz-adv-x="738" 
d="M382 124c22.667 0 43.668 3.3291 63.001 9.99609s36.5 15.667 51.5 27s27.5 24.333 37.5 39s17 30.334 21 47.001h153c-9.33301 -36 -23.5 -69.667 -42.5 -101s-42.667 -58.5 -71 -81.5s-60.833 -41 -97.5 -54s-76.667 -19.5 -120 -19.5
c-47.333 0 -91.833 9.33301 -133.5 28s-78 44.334 -109 77.001s-55.5 70.834 -73.5 114.501s-27 90.167 -27 139.5s9 95.833 27 139.5s42.5 81.834 73.5 114.501s67.333 58.5 109 77.5s86.167 28.5 133.5 28.5c43.333 0 83 -6.5 119 -19.5s67.833 -30.833 95.5 -53.5
s51 -49.5 70 -80.5s33.5 -64.5 43.5 -100.5h-153c-4.66699 16 -11.834 31.333 -21.501 46s-21.667 27.5 -36 38.5s-31 19.833 -50 26.5s-39.833 10 -62.5 10c-29.333 0 -56.333 -5.83301 -81 -17.5s-46 -27.834 -64 -48.501s-32.167 -44.667 -42.5 -72s-15.5 -57 -15.5 -89
s5.16699 -61.667 15.5 -89s24.5 -51.166 42.5 -71.499s39.333 -36.333 64 -48s51.667 -17.5 81 -17.5zM289.001 824.996c0 20.667 7.66699 37.834 23 51.501s34.333 20.5 57 20.5s41.667 -6.83301 57 -20.5s23 -30.834 23 -51.501c0 -20 -7.66699 -37 -23 -51
s-34.333 -21 -57 -21s-41.667 7 -57 21s-23 31 -23 51z" />
    <glyph glyph-name="cdotaccent" unicode="&#x10b;" horiz-adv-x="474" 
d="M314 247c-3.33301 13.333 -11.6699 24.498 -25.0029 33.498s-27.666 13.5 -42.999 13.5c-24 0 -44.333 -8.33301 -61 -25s-25 -39.667 -25 -69s8.33301 -52.333 25 -69s37 -25 61 -25c18.667 0 33.5 4.5 44.5 13.5s18.833 20.167 23.5 33.5h130
c-2.66699 -22.667 -9.16699 -44 -19.5 -64s-24 -37.333 -41 -52s-37.167 -26.167 -60.5 -34.5s-49.333 -12.5 -78 -12.5c-32 0 -61.167 5.5 -87.5 16.5s-48.666 26 -66.999 45s-32.666 41.333 -42.999 67s-15.5 52.834 -15.5 81.501s5.16699 55.834 15.5 81.501
s24.833 48 43.5 67s41 34 67 45s55 16.5 87 16.5c28.667 0 54.667 -4.16699 78 -12.5s43.5 -19.833 60.5 -34.5s30.667 -32 41 -52s16.833 -41.333 19.5 -64h-130zM156.996 576.998c0 22.667 7.66699 41.667 23 57s34.333 23 57 23s41.667 -7.66699 57 -23
s23 -34.333 23 -57s-7.66699 -41.667 -23 -57s-34.333 -23 -57 -23s-41.667 7.66699 -57 23s-23 34.333 -23 57z" />
    <glyph glyph-name="Ccaron" unicode="&#x10c;" horiz-adv-x="738" 
d="M382 124c22.667 0 43.668 3.3291 63.001 9.99609s36.5 15.667 51.5 27s27.5 24.333 37.5 39s17 30.334 21 47.001h153c-9.33301 -36 -23.5 -69.667 -42.5 -101s-42.667 -58.5 -71 -81.5s-60.833 -41 -97.5 -54s-76.667 -19.5 -120 -19.5
c-47.333 0 -91.833 9.33301 -133.5 28s-78 44.334 -109 77.001s-55.5 70.834 -73.5 114.501s-27 90.167 -27 139.5s9 95.833 27 139.5s42.5 81.834 73.5 114.501s67.333 58.5 109 77.5s86.167 28.5 133.5 28.5c43.333 0 83 -6.5 119 -19.5s67.833 -30.833 95.5 -53.5
s51 -49.5 70 -80.5s33.5 -64.5 43.5 -100.5h-153c-4.66699 16 -11.834 31.333 -21.501 46s-21.667 27.5 -36 38.5s-31 19.833 -50 26.5s-39.833 10 -62.5 10c-29.333 0 -56.333 -5.83301 -81 -17.5s-46 -27.834 -64 -48.501s-32.167 -44.667 -42.5 -72s-15.5 -57 -15.5 -89
s5.16699 -61.667 15.5 -89s24.5 -51.166 42.5 -71.499s39.333 -36.333 64 -48s51.667 -17.5 81 -17.5zM369.001 743.996l-172 118l58 65l114 -71l115 70l57 -64z" />
    <glyph glyph-name="ccaron" unicode="&#x10d;" horiz-adv-x="474" 
d="M314 247c-3.33301 13.333 -11.6699 24.498 -25.0029 33.498s-27.666 13.5 -42.999 13.5c-24 0 -44.333 -8.33301 -61 -25s-25 -39.667 -25 -69s8.33301 -52.333 25 -69s37 -25 61 -25c18.667 0 33.5 4.5 44.5 13.5s18.833 20.167 23.5 33.5h130
c-2.66699 -22.667 -9.16699 -44 -19.5 -64s-24 -37.333 -41 -52s-37.167 -26.167 -60.5 -34.5s-49.333 -12.5 -78 -12.5c-32 0 -61.167 5.5 -87.5 16.5s-48.666 26 -66.999 45s-32.666 41.333 -42.999 67s-15.5 52.834 -15.5 81.501s5.16699 55.834 15.5 81.501
s24.833 48 43.5 67s41 34 67 45s55 16.5 87 16.5c28.667 0 54.667 -4.16699 78 -12.5s43.5 -19.833 60.5 -34.5s30.667 -32 41 -52s16.833 -41.333 19.5 -64h-130zM236.996 474.998l-172 131l58 72l114 -79l115 78l57 -71z" />
    <glyph glyph-name="Dcaron" unicode="&#x10e;" horiz-adv-x="711" 
d="M64 700l268 -0.00195312c55.333 0 104.333 -8.83301 147 -26.5s78.5 -42.167 107.5 -73.5s51 -68.166 66 -110.499s22.5 -88.166 22.5 -137.499c0 -50.667 -7.16699 -97.5 -21.5 -140.5s-35.5 -80.167 -63.5 -111.5s-63 -55.833 -105 -73.5s-90.667 -26.5 -146 -26.5
h-275v700zM339 131.998c34 0 63 5.33496 87 16.002s43.833 25.667 59.5 45s27.167 42.5 34.5 69.5s11 56.833 11 89.5c0 31.333 -4 60.166 -12 86.499s-20.167 49.166 -36.5 68.499s-37 34.333 -62 45s-54.5 16 -88.5 16h-124v-436h131zM350 744l-172 118l58 65l114 -71
l115 70l57 -64z" />
    <glyph glyph-name="dcaron" unicode="&#x10f;" horiz-adv-x="685" 
d="M460 0l-119.996 -0.00195312l-10 50c-8.66699 -15.333 -23.334 -29.166 -44.001 -41.499s-43.334 -18.5 -68.001 -18.5c-24 0 -47.167 4.5 -69.5 13.5s-42 22.333 -59 40s-30.5 39.5 -40.5 65.5s-15 56.333 -15 91c0 30 4.5 57.667 13.5 83s21.333 47.5 37 66.5
s34.167 33.833 55.5 44.5s44.666 16 69.999 16c29.333 0 54.166 -5.66699 74.499 -17s35.5 -23.666 45.5 -36.999v297h130v-653zM243.004 293.998c-24 0 -43.5 -8.33301 -58.5 -25s-22.5 -39.667 -22.5 -69s7.5 -52.333 22.5 -69s34.5 -25 58.5 -25s44.833 8.33301 62.5 25
s26.5 39.667 26.5 69s-8.83301 52.333 -26.5 69s-38.5 25 -62.5 25zM705.004 678.998l-118 -214l-82 29l77 222z" />
    <glyph glyph-name="Dcroat" unicode="&#x110;" horiz-adv-x="717" 
d="M70 265l-78 -0.00195312v120h78v315h268c55.333 0 104.333 -8.83301 147 -26.5s78.5 -42.167 107.5 -73.5s51 -68.166 66 -110.499s22.5 -88.166 22.5 -137.499c0 -50.667 -7.16699 -97.5 -21.5 -140.5s-35.5 -80.167 -63.5 -111.5s-63 -55.833 -105 -73.5
s-90.667 -26.5 -146 -26.5h-275v265zM345 131.998c34 0 63 5.33496 87 16.002s43.833 25.667 59.5 45s27.167 42.5 34.5 69.5s11 56.833 11 89.5c0 31.333 -4 60.166 -12 86.499s-20.167 49.166 -36.5 68.499s-37 34.333 -62 45s-54.5 16 -88.5 16h-124v-183h122v-120h-122
v-133h131z" />
    <glyph glyph-name="dcroat" unicode="&#x111;" horiz-adv-x="512" 
d="M232 600l98.0039 -0.00195312v53h130v-53h52v-103h-52v-497h-120l-10 50c-8.66699 -15.333 -23.334 -29.166 -44.001 -41.499s-43.334 -18.5 -68.001 -18.5c-24 0 -47.167 4.5 -69.5 13.5s-42 22.333 -59 40s-30.5 39.5 -40.5 65.5s-15 56.333 -15 91
c0 30 4.5 57.667 13.5 83s21.333 47.5 37 66.5s34.167 33.833 55.5 44.5s44.666 16 69.999 16c29.333 0 54.166 -5.66699 74.499 -17s35.5 -23.666 45.5 -36.999v141h-98v103zM243.004 293.998c-24 0 -43.5 -8.33301 -58.5 -25s-22.5 -39.667 -22.5 -69
s7.5 -52.333 22.5 -69s34.5 -25 58.5 -25s44.833 8.33301 62.5 25s26.5 39.667 26.5 69s-8.83301 52.333 -26.5 69s-38.5 25 -62.5 25z" />
    <glyph glyph-name="Emacron" unicode="&#x112;" horiz-adv-x="587" 
d="M208 568v-147h305v-132h-305v-157h339v-132h-483v700h483v-132h-339zM151 854h320v-93h-320v93z" />
    <glyph glyph-name="emacron" unicode="&#x113;" horiz-adv-x="482" 
d="M152 173c4.66699 -21.333 14.498 -40.502 29.498 -57.502s37.167 -25.5 66.5 -25.5c18.667 0 34.667 4.83301 48 14.5s22.333 21.167 27 34.5h119c-10.667 -44 -32.167 -79.833 -64.5 -107.5s-76.5 -41.5 -132.5 -41.5c-32 0 -61 5.5 -87 16.5s-48.333 26 -67 45
s-33.167 41.333 -43.5 67s-15.5 52.834 -15.5 81.501s5.16699 55.834 15.5 81.501s24.833 48 43.5 67s40.834 34 66.501 45s53.834 16.5 84.501 16.5c31.333 0 59.833 -5.83301 85.5 -17.5s47.5 -27 65.5 -46s32 -40.5 42 -64.5s15 -48.667 15 -74v-15.5
c0 -5 -0.666992 -11.5 -2 -19.5h-296zM249.998 309.998c-24.667 0 -44.5 -6.83301 -59.5 -20.5s-25.833 -29.167 -32.5 -46.5h173c-2.66699 16 -11.667 31.167 -27 45.5s-33.333 21.5 -54 21.5zM80.998 599.998h320v-103h-320v103z" />
    <glyph glyph-name="Ebreve" unicode="&#x114;" horiz-adv-x="587" 
d="M208 568v-147h305v-132h-305v-157h339v-132h-483v700h483v-132h-339zM321 851c13.333 0 26 3.83301 38 11.5s19.333 18.834 22 33.501h108c-0.666992 -21.333 -5.66699 -40.5 -15 -57.5s-21.833 -31.5 -37.5 -43.5s-33.5 -21.167 -53.5 -27.5s-40.667 -9.5 -62 -9.5
s-42 3.16699 -62 9.5s-37.833 15.5 -53.5 27.5s-28.167 26.5 -37.5 43.5s-14.333 36.167 -15 57.5h108c2.66699 -14.667 10 -25.834 22 -33.501s24.667 -11.5 38 -11.5z" />
    <glyph glyph-name="ebreve" unicode="&#x115;" horiz-adv-x="482" 
d="M152 173c4.66699 -21.333 14.498 -40.502 29.498 -57.502s37.167 -25.5 66.5 -25.5c18.667 0 34.667 4.83301 48 14.5s22.333 21.167 27 34.5h119c-10.667 -44 -32.167 -79.833 -64.5 -107.5s-76.5 -41.5 -132.5 -41.5c-32 0 -61 5.5 -87 16.5s-48.333 26 -67 45
s-33.167 41.333 -43.5 67s-15.5 52.834 -15.5 81.501s5.16699 55.834 15.5 81.501s24.833 48 43.5 67s40.834 34 66.501 45s53.834 16.5 84.501 16.5c31.333 0 59.833 -5.83301 85.5 -17.5s47.5 -27 65.5 -46s32 -40.5 42 -64.5s15 -48.667 15 -74v-15.5
c0 -5 -0.666992 -11.5 -2 -19.5h-296zM249.998 309.998c-24.667 0 -44.5 -6.83301 -59.5 -20.5s-25.833 -29.167 -32.5 -46.5h173c-2.66699 16 -11.667 31.167 -27 45.5s-33.333 21.5 -54 21.5zM240.998 592.998c13.333 0 26 4.33301 38 13s19.333 21 22 37h108
c-0.666992 -24 -5.66699 -45.333 -15 -64s-21.833 -34.667 -37.5 -48s-33.5 -23.5 -53.5 -30.5s-40.667 -10.5 -62 -10.5s-42 3.5 -62 10.5s-37.833 17.167 -53.5 30.5s-28.167 29.333 -37.5 48s-14.333 40 -15 64h108c2.66699 -16 10 -28.333 22 -37s24.667 -13 38 -13z
" />
    <glyph glyph-name="Edotaccent" unicode="&#x116;" horiz-adv-x="587" 
d="M208 568v-147h305v-132h-305v-157h339v-132h-483v700h483v-132h-339zM251 825c0 20.667 7.66699 37.834 23 51.501s34.333 20.5 57 20.5s41.667 -6.83301 57 -20.5s23 -30.834 23 -51.501c0 -20 -7.66699 -37 -23 -51s-34.333 -21 -57 -21s-41.667 7 -57 21
s-23 31 -23 51z" />
    <glyph glyph-name="edotaccent" unicode="&#x117;" horiz-adv-x="482" 
d="M152 173c4.66699 -21.333 14.498 -40.502 29.498 -57.502s37.167 -25.5 66.5 -25.5c18.667 0 34.667 4.83301 48 14.5s22.333 21.167 27 34.5h119c-10.667 -44 -32.167 -79.833 -64.5 -107.5s-76.5 -41.5 -132.5 -41.5c-32 0 -61 5.5 -87 16.5s-48.333 26 -67 45
s-33.167 41.333 -43.5 67s-15.5 52.834 -15.5 81.501s5.16699 55.834 15.5 81.501s24.833 48 43.5 67s40.834 34 66.501 45s53.834 16.5 84.501 16.5c31.333 0 59.833 -5.83301 85.5 -17.5s47.5 -27 65.5 -46s32 -40.5 42 -64.5s15 -48.667 15 -74v-15.5
c0 -5 -0.666992 -11.5 -2 -19.5h-296zM249.998 309.998c-24.667 0 -44.5 -6.83301 -59.5 -20.5s-25.833 -29.167 -32.5 -46.5h173c-2.66699 16 -11.667 31.167 -27 45.5s-33.333 21.5 -54 21.5zM160.998 576.998c0 22.667 7.66699 41.667 23 57s34.333 23 57 23
s41.667 -7.66699 57 -23s23 -34.333 23 -57s-7.66699 -41.667 -23 -57s-34.333 -23 -57 -23s-41.667 7.66699 -57 23s-23 34.333 -23 57z" />
    <glyph glyph-name="Eogonek" unicode="&#x118;" horiz-adv-x="587" 
d="M208 568l0.00195312 -147h305v-132h-305v-157h339v-132h-18c-27.333 -19.333 -46.833 -37 -58.5 -53s-17.5 -29 -17.5 -39c0 -9.33301 3 -15.5 9 -18.5s14.333 -4.5 25 -4.5c8.66699 0 19.167 1.33301 31.5 4s25.833 6.66699 40.5 12v-102
c-14.667 -6.66699 -29.334 -11.5 -44.001 -14.5s-31 -4.5 -49 -4.5c-42 0 -73.833 9 -95.5 27s-32.5 41 -32.5 69c0 27.333 8.66699 51.5 26 72.5s36.666 38.167 57.999 51.5h-358v700h483v-132h-339z" />
    <glyph glyph-name="eogonek" unicode="&#x119;" horiz-adv-x="482" 
d="M152 173c4.66699 -21.333 14.501 -40.498 29.501 -57.498s37.167 -25.5 66.5 -25.5c18.667 0 34.667 4.83301 48 14.5s22.333 21.167 27 34.5h119c-8.66699 -34.667 -23.834 -64.5 -45.501 -89.5s-50.5 -42.167 -86.5 -51.5c-26 -19.333 -44.833 -36.833 -56.5 -52.5
s-17.5 -28.167 -17.5 -37.5s3 -15.5 9 -18.5s14.333 -4.5 25 -4.5c8.66699 0 19.167 1.33301 31.5 4s25.833 6.66699 40.5 12v-102c-14.667 -6.66699 -29.334 -11.5 -44.001 -14.5s-31 -4.5 -49 -4.5c-42 0 -73.833 9 -95.5 27s-32.5 41 -32.5 69
c0 25.333 7.66699 48.166 23 68.499s33 37.166 53 50.499c-25.333 4.66699 -48 13.334 -68 26.001s-37.333 28.167 -52 46.5s-25.834 38.666 -33.501 60.999s-11.5 46.166 -11.5 71.499c0 28.667 5.16699 55.834 15.5 81.501s24.833 48 43.5 67s40.834 34 66.501 45
s53.834 16.5 84.501 16.5c31.333 0 59.833 -5.83301 85.5 -17.5s47.5 -27 65.5 -46s32 -40.5 42 -64.5s15 -48.667 15 -74v-15.5c0 -5 -0.666992 -11.5 -2 -19.5h-296zM250.001 310.002c-24.667 0 -44.5 -6.83301 -59.5 -20.5s-25.833 -29.167 -32.5 -46.5h173
c-2.66699 16 -11.667 31.167 -27 45.5s-33.333 21.5 -54 21.5z" />
    <glyph glyph-name="Ecaron" unicode="&#x11a;" horiz-adv-x="587" 
d="M208 568v-147h305v-132h-305v-157h339v-132h-483v700h483v-132h-339zM320 744l-172 118l58 65l114 -71l115 70l57 -64z" />
    <glyph glyph-name="ecaron" unicode="&#x11b;" horiz-adv-x="482" 
d="M152 173c4.66699 -21.333 14.498 -40.502 29.498 -57.502s37.167 -25.5 66.5 -25.5c18.667 0 34.667 4.83301 48 14.5s22.333 21.167 27 34.5h119c-10.667 -44 -32.167 -79.833 -64.5 -107.5s-76.5 -41.5 -132.5 -41.5c-32 0 -61 5.5 -87 16.5s-48.333 26 -67 45
s-33.167 41.333 -43.5 67s-15.5 52.834 -15.5 81.501s5.16699 55.834 15.5 81.501s24.833 48 43.5 67s40.834 34 66.501 45s53.834 16.5 84.501 16.5c31.333 0 59.833 -5.83301 85.5 -17.5s47.5 -27 65.5 -46s32 -40.5 42 -64.5s15 -48.667 15 -74v-15.5
c0 -5 -0.666992 -11.5 -2 -19.5h-296zM249.998 309.998c-24.667 0 -44.5 -6.83301 -59.5 -20.5s-25.833 -29.167 -32.5 -46.5h173c-2.66699 16 -11.667 31.167 -27 45.5s-33.333 21.5 -54 21.5zM242.998 474.998l-172 131l58 72l114 -79l115 78l57 -71z" />
    <glyph glyph-name="Gcircumflex" unicode="&#x11c;" horiz-adv-x="750" 
d="M384 124c54 0 96.498 13.3311 127.498 39.998s50.5 62.667 58.5 108h-186v128h334v-57c0 -58 -8.66699 -109 -26 -153s-41.166 -80.667 -71.499 -110s-65.833 -51.5 -106.5 -66.5s-84 -22.5 -130 -22.5c-48.667 0 -94.334 9.33301 -137.001 28
s-79.667 44.334 -111 77.001s-56.166 70.834 -74.499 114.501s-27.5 90.167 -27.5 139.5s9 95.833 27 139.5s42.667 81.834 74 114.501s68 58.5 110 77.5s86.667 28.5 134 28.5c44 0 84.5 -7 121.5 -21s69.5 -32.667 97.5 -56s51.333 -50.333 70 -81
s32.334 -62.667 41.001 -96h-153c-4.66699 16 -12 31.167 -22 45.5s-22.333 27.166 -37 38.499s-31.5 20.333 -50.5 27s-39.833 10 -62.5 10c-29.333 0 -56.333 -5.83301 -81 -17.5s-46.334 -27.834 -65.001 -48.501s-33.167 -44.667 -43.5 -72s-15.5 -57 -15.5 -89
s5.16699 -61.667 15.5 -89s24.833 -51.166 43.5 -71.499s40.334 -36.333 65.001 -48s51.667 -17.5 81 -17.5zM546.998 808.998l-57 -64l-115 70l-114 -71l-58 65l172 118z" />
    <glyph glyph-name="gcircumflex" unicode="&#x11d;" horiz-adv-x="466" 
d="M45 236c0 24 4.83301 46.502 14.5 67.502s23 39.333 40 55s36.5 28.167 58.5 37.5s45.667 14 71 14h212v-91l-62 -6c11.333 -10 20 -22.667 26 -38s9 -33.666 9 -54.999c0 -20.667 -4.83301 -40.5 -14.5 -59.5s-22.667 -35.833 -39 -50.5s-35 -26.334 -56 -35.001
s-42.5 -13 -64.5 -13c-24 0 -43.333 3 -58 9s-27.667 13.667 -39 23c-3.33301 -1.33301 -6.83301 -4.83301 -10.5 -10.5s-5.5 -13.167 -5.5 -22.5c0 -8.66699 3.5 -18.334 10.5 -29.001s19.167 -16 36.5 -16h76c64.667 0 113.167 -13.833 145.5 -41.5
s48.5 -66.5 48.5 -116.5c0 -48.667 -17.333 -88.5 -52 -119.5s-85 -46.5 -151 -46.5c-35.333 0 -65.833 4.33301 -91.5 13s-47 20.334 -64 35.001s-29.667 31.5 -38 50.5s-12.5 38.833 -12.5 59.5c0 11.333 1.66699 22.666 5 33.999s7.66602 22 12.999 32
s11.5 18.833 18.5 26.5s14.5 13.5 22.5 17.5c-17.333 6.66699 -33.666 19 -48.999 37s-23 39.667 -23 65c0 22 5 41.5 15 58.5s21 30.5 33 40.5c-7.33301 9.33301 -13.333 20.666 -18 33.999s-7 27 -7 41zM182 -87.998c-8 -5.33301 -14.667 -12.166 -20 -20.499
s-8 -19.5 -8 -33.5c0 -18 7 -32.667 21 -44s36 -17 66 -17s51.667 5.33301 65 16s20 25.667 20 45c0 17.333 -5.16699 30.666 -15.5 39.999s-30.5 14 -60.5 14h-68zM164 236.002c0 -21.333 5.99902 -38.166 17.999 -50.499s28 -18.5 48 -18.5
c19.333 0 35.166 6.16699 47.499 18.5s18.5 29.166 18.5 50.499c0 20.667 -6.16699 37.334 -18.5 50.001s-28.166 19 -47.499 19s-35.166 -6.33301 -47.499 -19s-18.5 -29.334 -18.5 -50.001zM404.999 549.002l-57 -71l-115 78l-114 -79l-58 72l172 131z" />
    <glyph glyph-name="Gbreve" unicode="&#x11e;" horiz-adv-x="750" 
d="M384 124c54 0 96.498 13.3311 127.498 39.998s50.5 62.667 58.5 108h-186v128h334v-57c0 -58 -8.66699 -109 -26 -153s-41.166 -80.667 -71.499 -110s-65.833 -51.5 -106.5 -66.5s-84 -22.5 -130 -22.5c-48.667 0 -94.334 9.33301 -137.001 28
s-79.667 44.334 -111 77.001s-56.166 70.834 -74.499 114.501s-27.5 90.167 -27.5 139.5s9 95.833 27 139.5s42.667 81.834 74 114.501s68 58.5 110 77.5s86.667 28.5 134 28.5c44 0 84.5 -7 121.5 -21s69.5 -32.667 97.5 -56s51.333 -50.333 70 -81
s32.334 -62.667 41.001 -96h-153c-4.66699 16 -12 31.167 -22 45.5s-22.333 27.166 -37 38.499s-31.5 20.333 -50.5 27s-39.833 10 -62.5 10c-29.333 0 -56.333 -5.83301 -81 -17.5s-46.334 -27.834 -65.001 -48.501s-33.167 -44.667 -43.5 -72s-15.5 -57 -15.5 -89
s5.16699 -61.667 15.5 -89s24.833 -51.166 43.5 -71.499s40.334 -36.333 65.001 -48s51.667 -17.5 81 -17.5zM374.998 850.998c13.333 0 26 3.83301 38 11.5s19.333 18.834 22 33.501h108c-0.666992 -21.333 -5.66699 -40.5 -15 -57.5s-21.833 -31.5 -37.5 -43.5
s-33.5 -21.167 -53.5 -27.5s-40.667 -9.5 -62 -9.5s-42 3.16699 -62 9.5s-37.833 15.5 -53.5 27.5s-28.167 26.5 -37.5 43.5s-14.333 36.167 -15 57.5h108c2.66699 -14.667 10 -25.834 22 -33.501s24.667 -11.5 38 -11.5z" />
    <glyph glyph-name="gbreve" unicode="&#x11f;" horiz-adv-x="466" 
d="M45 236c0 24 4.83301 46.502 14.5 67.502s23 39.333 40 55s36.5 28.167 58.5 37.5s45.667 14 71 14h212v-91l-62 -6c11.333 -10 20 -22.667 26 -38s9 -33.666 9 -54.999c0 -20.667 -4.83301 -40.5 -14.5 -59.5s-22.667 -35.833 -39 -50.5s-35 -26.334 -56 -35.001
s-42.5 -13 -64.5 -13c-24 0 -43.333 3 -58 9s-27.667 13.667 -39 23c-3.33301 -1.33301 -6.83301 -4.83301 -10.5 -10.5s-5.5 -13.167 -5.5 -22.5c0 -8.66699 3.5 -18.334 10.5 -29.001s19.167 -16 36.5 -16h76c64.667 0 113.167 -13.833 145.5 -41.5
s48.5 -66.5 48.5 -116.5c0 -48.667 -17.333 -88.5 -52 -119.5s-85 -46.5 -151 -46.5c-35.333 0 -65.833 4.33301 -91.5 13s-47 20.334 -64 35.001s-29.667 31.5 -38 50.5s-12.5 38.833 -12.5 59.5c0 11.333 1.66699 22.666 5 33.999s7.66602 22 12.999 32
s11.5 18.833 18.5 26.5s14.5 13.5 22.5 17.5c-17.333 6.66699 -33.666 19 -48.999 37s-23 39.667 -23 65c0 22 5 41.5 15 58.5s21 30.5 33 40.5c-7.33301 9.33301 -13.333 20.666 -18 33.999s-7 27 -7 41zM182 -87.998c-8 -5.33301 -14.667 -12.166 -20 -20.499
s-8 -19.5 -8 -33.5c0 -18 7 -32.667 21 -44s36 -17 66 -17s51.667 5.33301 65 16s20 25.667 20 45c0 17.333 -5.16699 30.666 -15.5 39.999s-30.5 14 -60.5 14h-68zM164 236.002c0 -21.333 5.99902 -38.166 17.999 -50.499s28 -18.5 48 -18.5
c19.333 0 35.166 6.16699 47.499 18.5s18.5 29.166 18.5 50.499c0 20.667 -6.16699 37.334 -18.5 50.001s-28.166 19 -47.499 19s-35.166 -6.33301 -47.499 -19s-18.5 -29.334 -18.5 -50.001zM232.999 593.002c13.333 0 26 4.33301 38 13s19.333 21 22 37h108
c-0.666992 -24 -5.66699 -45.333 -15 -64s-21.833 -34.667 -37.5 -48s-33.5 -23.5 -53.5 -30.5s-40.667 -10.5 -62 -10.5s-42 3.5 -62 10.5s-37.833 17.167 -53.5 30.5s-28.167 29.333 -37.5 48s-14.333 40 -15 64h108c2.66699 -16 10 -28.333 22 -37s24.667 -13 38 -13z
" />
    <glyph glyph-name="Gdotaccent" unicode="&#x120;" horiz-adv-x="750" 
d="M384 124c54 0 96.498 13.3311 127.498 39.998s50.5 62.667 58.5 108h-186v128h334v-57c0 -58 -8.66699 -109 -26 -153s-41.166 -80.667 -71.499 -110s-65.833 -51.5 -106.5 -66.5s-84 -22.5 -130 -22.5c-48.667 0 -94.334 9.33301 -137.001 28
s-79.667 44.334 -111 77.001s-56.166 70.834 -74.499 114.501s-27.5 90.167 -27.5 139.5s9 95.833 27 139.5s42.667 81.834 74 114.501s68 58.5 110 77.5s86.667 28.5 134 28.5c44 0 84.5 -7 121.5 -21s69.5 -32.667 97.5 -56s51.333 -50.333 70 -81
s32.334 -62.667 41.001 -96h-153c-4.66699 16 -12 31.167 -22 45.5s-22.333 27.166 -37 38.499s-31.5 20.333 -50.5 27s-39.833 10 -62.5 10c-29.333 0 -56.333 -5.83301 -81 -17.5s-46.334 -27.834 -65.001 -48.501s-33.167 -44.667 -43.5 -72s-15.5 -57 -15.5 -89
s5.16699 -61.667 15.5 -89s24.833 -51.166 43.5 -71.499s40.334 -36.333 65.001 -48s51.667 -17.5 81 -17.5zM294.998 824.998c0 20.667 7.66699 37.834 23 51.501s34.333 20.5 57 20.5s41.667 -6.83301 57 -20.5s23 -30.834 23 -51.501c0 -20 -7.66699 -37 -23 -51
s-34.333 -21 -57 -21s-41.667 7 -57 21s-23 31 -23 51z" />
    <glyph glyph-name="gdotaccent" unicode="&#x121;" horiz-adv-x="466" 
d="M45 236c0 24 4.83301 46.502 14.5 67.502s23 39.333 40 55s36.5 28.167 58.5 37.5s45.667 14 71 14h212v-91l-62 -6c11.333 -10 20 -22.667 26 -38s9 -33.666 9 -54.999c0 -20.667 -4.83301 -40.5 -14.5 -59.5s-22.667 -35.833 -39 -50.5s-35 -26.334 -56 -35.001
s-42.5 -13 -64.5 -13c-24 0 -43.333 3 -58 9s-27.667 13.667 -39 23c-3.33301 -1.33301 -6.83301 -4.83301 -10.5 -10.5s-5.5 -13.167 -5.5 -22.5c0 -8.66699 3.5 -18.334 10.5 -29.001s19.167 -16 36.5 -16h76c64.667 0 113.167 -13.833 145.5 -41.5
s48.5 -66.5 48.5 -116.5c0 -48.667 -17.333 -88.5 -52 -119.5s-85 -46.5 -151 -46.5c-35.333 0 -65.833 4.33301 -91.5 13s-47 20.334 -64 35.001s-29.667 31.5 -38 50.5s-12.5 38.833 -12.5 59.5c0 11.333 1.66699 22.666 5 33.999s7.66602 22 12.999 32
s11.5 18.833 18.5 26.5s14.5 13.5 22.5 17.5c-17.333 6.66699 -33.666 19 -48.999 37s-23 39.667 -23 65c0 22 5 41.5 15 58.5s21 30.5 33 40.5c-7.33301 9.33301 -13.333 20.666 -18 33.999s-7 27 -7 41zM182 -87.998c-8 -5.33301 -14.667 -12.166 -20 -20.499
s-8 -19.5 -8 -33.5c0 -18 7 -32.667 21 -44s36 -17 66 -17s51.667 5.33301 65 16s20 25.667 20 45c0 17.333 -5.16699 30.666 -15.5 39.999s-30.5 14 -60.5 14h-68zM164 236.002c0 -21.333 5.99902 -38.166 17.999 -50.499s28 -18.5 48 -18.5
c19.333 0 35.166 6.16699 47.499 18.5s18.5 29.166 18.5 50.499c0 20.667 -6.16699 37.334 -18.5 50.001s-28.166 19 -47.499 19s-35.166 -6.33301 -47.499 -19s-18.5 -29.334 -18.5 -50.001zM152.999 577.002c0 22.667 7.66699 41.667 23 57s34.333 23 57 23
s41.667 -7.66699 57 -23s23 -34.333 23 -57s-7.66699 -41.667 -23 -57s-34.333 -23 -57 -23s-41.667 7.66699 -57 23s-23 34.333 -23 57z" />
    <glyph glyph-name="Gcommaaccent" unicode="&#x122;" horiz-adv-x="750" 
d="M384 124c54 0 96.498 13.3311 127.498 39.998s50.5 62.667 58.5 108h-186v128h334v-57c0 -58 -8.66699 -109 -26 -153s-41.166 -80.667 -71.499 -110s-65.833 -51.5 -106.5 -66.5s-84 -22.5 -130 -22.5c-48.667 0 -94.334 9.33301 -137.001 28
s-79.667 44.334 -111 77.001s-56.166 70.834 -74.499 114.501s-27.5 90.167 -27.5 139.5s9 95.833 27 139.5s42.667 81.834 74 114.501s68 58.5 110 77.5s86.667 28.5 134 28.5c44 0 84.5 -7 121.5 -21s69.5 -32.667 97.5 -56s51.333 -50.333 70 -81
s32.334 -62.667 41.001 -96h-153c-4.66699 16 -12 31.167 -22 45.5s-22.333 27.166 -37 38.499s-31.5 20.333 -50.5 27s-39.833 10 -62.5 10c-29.333 0 -56.333 -5.83301 -81 -17.5s-46.334 -27.834 -65.001 -48.501s-33.167 -44.667 -43.5 -72s-15.5 -57 -15.5 -89
s5.16699 -61.667 15.5 -89s24.833 -51.166 43.5 -71.499s40.334 -36.333 65.001 -48s51.667 -17.5 81 -17.5zM462.998 -113.002l-118 -214l-82 29l77 222z" />
    <glyph glyph-name="gcommaaccent" unicode="&#x123;" horiz-adv-x="466" 
d="M45 236c0 24 4.83301 46.502 14.5 67.502s23 39.333 40 55s36.5 28.167 58.5 37.5s45.667 14 71 14h212v-91l-62 -6c11.333 -10 20 -22.667 26 -38s9 -33.666 9 -54.999c0 -20.667 -4.83301 -40.5 -14.5 -59.5s-22.667 -35.833 -39 -50.5s-35 -26.334 -56 -35.001
s-42.5 -13 -64.5 -13c-24 0 -43.333 3 -58 9s-27.667 13.667 -39 23c-3.33301 -1.33301 -6.83301 -4.83301 -10.5 -10.5s-5.5 -13.167 -5.5 -22.5c0 -8.66699 3.5 -18.334 10.5 -29.001s19.167 -16 36.5 -16h76c64.667 0 113.167 -13.833 145.5 -41.5
s48.5 -66.5 48.5 -116.5c0 -48.667 -17.333 -88.5 -52 -119.5s-85 -46.5 -151 -46.5c-35.333 0 -65.833 4.33301 -91.5 13s-47 20.334 -64 35.001s-29.667 31.5 -38 50.5s-12.5 38.833 -12.5 59.5c0 11.333 1.66699 22.666 5 33.999s7.66602 22 12.999 32
s11.5 18.833 18.5 26.5s14.5 13.5 22.5 17.5c-17.333 6.66699 -33.666 19 -48.999 37s-23 39.667 -23 65c0 22 5 41.5 15 58.5s21 30.5 33 40.5c-7.33301 9.33301 -13.333 20.666 -18 33.999s-7 27 -7 41zM182 -87.998c-8 -5.33301 -14.667 -12.166 -20 -20.499
s-8 -19.5 -8 -33.5c0 -18 7 -32.667 21 -44s36 -17 66 -17s51.667 5.33301 65 16s20 25.667 20 45c0 17.333 -5.16699 30.666 -15.5 39.999s-30.5 14 -60.5 14h-68zM164 236.002c0 -21.333 5.99902 -38.166 17.999 -50.499s28 -18.5 48 -18.5
c19.333 0 35.166 6.16699 47.499 18.5s18.5 29.166 18.5 50.499c0 20.667 -6.16699 37.334 -18.5 50.001s-28.166 19 -47.499 19s-35.166 -6.33301 -47.499 -19s-18.5 -29.334 -18.5 -50.001zM152.999 502.002l118 214l82 -29l-77 -222z" />
    <glyph glyph-name="Hcircumflex" unicode="&#x124;" horiz-adv-x="732" 
d="M668 0h-144v289h-316v-289h-144v700h144v-279h316v279h144v-700zM538 809l-57 -64l-115 70l-114 -71l-58 65l172 118z" />
    <glyph glyph-name="hcircumflex" unicode="&#x125;" horiz-adv-x="520" 
d="M52 653l130.001 0.000976562v-297c13.333 13.333 30.5 25.666 51.5 36.999s47.833 17 80.5 17c22 0 42.5 -3.66699 61.5 -11s35.667 -17.833 50 -31.5s25.666 -30.334 33.999 -50.001s12.5 -42.167 12.5 -67.5v-250h-130v219c0 48.667 -22 73 -66 73
c-22 0 -41 -6.16699 -57 -18.5s-28.333 -27.166 -37 -44.499v-229h-130v653zM289.001 809.001l-57 -64l-115 70l-114 -71l-58 65l172 118z" />
    <glyph glyph-name="Hbar" unicode="&#x126;" horiz-adv-x="732" 
d="M6 600h58v100h144v-100h316v100h144v-100h58v-103h-58v-497h-144v289h-316v-289h-144v497h-58v103zM524 421v76h-316v-76h316z" />
    <glyph glyph-name="hbar" unicode="&#x127;" horiz-adv-x="520" 
d="M0 600l52.001 0.000976562v53h130v-53h138v-103h-138v-141c13.333 13.333 30.5 25.666 51.5 36.999s47.833 17 80.5 17c22 0 42.5 -3.66699 61.5 -11s35.667 -17.833 50 -31.5s25.666 -30.334 33.999 -50.001s12.5 -42.167 12.5 -67.5v-250h-130v219
c0 48.667 -22 73 -66 73c-22 0 -41 -6.16699 -57 -18.5s-28.333 -27.166 -37 -44.499v-229h-130v497h-52v103z" />
    <glyph glyph-name="Itilde" unicode="&#x128;" horiz-adv-x="284" 
d="M214 0h-144v700h144v-700zM219 757c-14.667 0 -27.8301 2.5 -39.4971 7.5s-22.667 10.5 -33 16.5s-20.5 11.5 -30.5 16.5s-20.667 7.5 -32 7.5c-14.667 0 -26.667 -5.5 -36 -16.5s-16 -24.167 -20 -39.5l-76 49c11.333 25.333 27.166 47 47.499 65s43.166 27 68.499 27
c14 0 27.167 -2.5 39.5 -7.5s24 -10.5 35 -16.5s21.833 -11.5 32.5 -16.5s22 -7.5 34 -7.5c10.667 0 20.167 5.5 28.5 16.5s14.5 24.167 18.5 39.5l76 -49c-11.333 -25.333 -26.833 -47 -46.5 -65s-41.834 -27 -66.501 -27z" />
    <glyph glyph-name="itilde" unicode="&#x129;" horiz-adv-x="246" 
d="M58 400h130v-400h-130v400zM200 491c-14.667 0 -27.8301 2.83301 -39.4971 8.5s-22.667 11.667 -33 18l-30.5 18c-10 5.66699 -20.667 8.5 -32 8.5c-14.667 0 -26.667 -6 -36 -18s-16 -26.667 -20 -44l-76 55c11.333 28 27.166 52 47.499 72s43.166 30 68.499 30
c14 0 27.167 -2.83301 39.5 -8.5s24 -11.667 35 -18l32.5 -18c10.667 -5.66699 22 -8.5 34 -8.5c10.667 0 20.167 6 28.5 18s14.5 26.667 18.5 44l76 -55c-11.333 -28 -26.833 -52 -46.5 -72s-41.834 -30 -66.501 -30z" />
    <glyph glyph-name="Imacron" unicode="&#x12a;" horiz-adv-x="284" 
d="M214 0h-144v700h144v-700zM-18 854h320v-93h-320v93z" />
    <glyph glyph-name="imacron" unicode="&#x12b;" horiz-adv-x="246" 
d="M58 400h130v-400h-130v400zM-37 600h320v-103h-320v103z" />
    <glyph glyph-name="Ibreve" unicode="&#x12c;" horiz-adv-x="284" 
d="M214 0h-144v700h144v-700zM142 851c13.333 0 26 3.83301 38 11.5s19.333 18.834 22 33.501h108c-0.666992 -21.333 -5.66699 -40.5 -15 -57.5s-21.833 -31.5 -37.5 -43.5s-33.5 -21.167 -53.5 -27.5s-40.667 -9.5 -62 -9.5s-42 3.16699 -62 9.5s-37.833 15.5 -53.5 27.5
s-28.167 26.5 -37.5 43.5s-14.333 36.167 -15 57.5h108c2.66699 -14.667 10 -25.834 22 -33.501s24.667 -11.5 38 -11.5z" />
    <glyph glyph-name="ibreve" unicode="&#x12d;" horiz-adv-x="246" 
d="M58 400h130v-400h-130v400zM123 593c13.333 0 26 4.33301 38 13s19.333 21 22 37h108c-0.666992 -24 -5.66699 -45.333 -15 -64s-21.833 -34.667 -37.5 -48s-33.5 -23.5 -53.5 -30.5s-40.667 -10.5 -62 -10.5s-42 3.5 -62 10.5s-37.833 17.167 -53.5 30.5
s-28.167 29.333 -37.5 48s-14.333 40 -15 64h108c2.66699 -16 10 -28.333 22 -37s24.667 -13 38 -13z" />
    <glyph glyph-name="Iogonek" unicode="&#x12e;" horiz-adv-x="284" 
d="M214 0c-28 -19.333 -47.8311 -37 -59.498 -53s-17.5 -29 -17.5 -39c0 -9.33301 3 -15.5 9 -18.5s14.333 -4.5 25 -4.5c8.66699 0 19.167 1.33301 31.5 4s25.833 6.66699 40.5 12v-102c-14.667 -6.66699 -29.334 -11.5 -44.001 -14.5s-31 -4.5 -49 -4.5
c-42 0 -73.833 9 -95.5 27s-32.5 41 -32.5 69c0 27.333 8.66699 51.5 26 72.5s36.666 38.167 57.999 51.5h-36v700h144v-700z" />
    <glyph glyph-name="iogonek" unicode="&#x12f;" horiz-adv-x="246" 
d="M58 400h130.002v-400h-23c-27.333 -19.333 -46.833 -37 -58.5 -53s-17.5 -29 -17.5 -39c0 -9.33301 3 -15.5 9 -18.5s14.333 -4.5 25 -4.5c8.66699 0 19.167 1.33301 31.5 4s25.833 6.66699 40.5 12v-102c-14.667 -6.66699 -29.334 -11.5 -44.001 -14.5
s-31 -4.5 -49 -4.5c-42 0 -73.833 9 -95.5 27s-32.5 41 -32.5 69c0 27.333 8.66699 51.5 26 72.5s36.666 38.167 57.999 51.5v400zM43.002 577c0 22.667 7.66699 41.667 23 57s34.333 23 57 23s41.667 -7.66699 57 -23s23 -34.333 23 -57s-7.66699 -41.667 -23 -57
s-34.333 -23 -57 -23s-41.667 7.66699 -57 23s-23 34.333 -23 57z" />
    <glyph glyph-name="Idotaccent" unicode="&#x130;" horiz-adv-x="284" 
d="M214 0h-144v700h144v-700zM62 825c0 20.667 7.66699 37.834 23 51.501s34.333 20.5 57 20.5s41.667 -6.83301 57 -20.5s23 -30.834 23 -51.501c0 -20 -7.66699 -37 -23 -51s-34.333 -21 -57 -21s-41.667 7 -57 21s-23 31 -23 51z" />
    <glyph glyph-name="dotlessi" unicode="&#x131;" horiz-adv-x="246" 
d="M58 400h130v-400h-130v400z" />
    <glyph glyph-name="IJ" unicode="&#x132;" horiz-adv-x="812" 
d="M214 0h-144v700h144v-700zM606 700l144 -0.000976562v-480c0 -34 -5.5 -65 -16.5 -93s-26.667 -52 -47 -72s-45 -35.5 -74 -46.5s-61.833 -16.5 -98.5 -16.5c-29.333 0 -57.5 4 -84.5 12s-51.5 20.5 -73.5 37.5s-40.333 38.667 -55 65s-23.667 57.5 -27 93.5h144
c6.66699 -31.333 18.5 -52.166 35.5 -62.499s37.167 -15.5 60.5 -15.5c28.667 0 51.167 8.5 67.5 25.5s24.5 41.167 24.5 72.5v480z" />
    <glyph glyph-name="ij" unicode="&#x133;" horiz-adv-x="492" 
d="M58 400h130v-400h-130v400zM43 577c0 22.667 7.66699 41.667 23 57s34.333 23 57 23s41.667 -7.66699 57 -23s23 -34.333 23 -57s-7.66699 -41.667 -23 -57s-34.333 -23 -57 -23s-41.667 7.66699 -57 23s-23 34.333 -23 57zM434 -80c0 -120 -56.667 -180 -170 -180
c-11.333 0 -22 0.333008 -32 1s-21 2 -33 4v116c10 -1.33301 20 -2.5 30 -3.5s18.667 -1.5 26 -1.5c32.667 0 49 20.667 49 62v482h130v-480zM289 577c0 22.667 7.66699 41.667 23 57s34.333 23 57 23s41.667 -7.66699 57 -23s23 -34.333 23 -57s-7.66699 -41.667 -23 -57
s-34.333 -23 -57 -23s-41.667 7.66699 -57 23s-23 34.333 -23 57z" />
    <glyph glyph-name="Jcircumflex" unicode="&#x134;" horiz-adv-x="528" 
d="M322 700l144 -0.000976562v-480c0 -34 -5.5 -65 -16.5 -93s-26.667 -52 -47 -72s-45 -35.5 -74 -46.5s-61.833 -16.5 -98.5 -16.5c-29.333 0 -57.5 4 -84.5 12s-51.5 20.5 -73.5 37.5s-40.333 38.667 -55 65s-23.667 57.5 -27 93.5h144
c6.66699 -31.333 18.5 -52.166 35.5 -62.499s37.167 -15.5 60.5 -15.5c28.667 0 51.167 8.5 67.5 25.5s24.5 41.167 24.5 72.5v480zM567 808.999l-57 -64l-115 70l-114 -71l-58 65l172 118z" />
    <glyph glyph-name="jcircumflex" unicode="&#x135;" horiz-adv-x="246" 
d="M188 -80c0 -120 -56.667 -180 -170 -180c-11.333 0 -22 0.333008 -32 1s-21 2 -33 4v116c10 -1.33301 20 -2.5 30 -3.5s18.667 -1.5 26 -1.5c32.667 0 49 20.667 49 62v482h130v-480zM295 549l-57 -71l-115 78l-114 -79l-58 72l172 131z" />
    <glyph glyph-name="Kcommaaccent" unicode="&#x136;" horiz-adv-x="608" 
d="M211 293l-17 -16v-277h-144v700h144v-264l245 264h178l-301 -323l306 -377h-174zM404 -113l-118 -214l-82 29l77 222z" />
    <glyph glyph-name="kcommaaccent" unicode="&#x137;" horiz-adv-x="457" 
d="M52 653h130v-366l115 113h159l-187 -175l190 -225h-147l-130 160v-160h-130v653zM328 -113l-118 -214l-82 29l77 222z" />
    <glyph glyph-name="kgreenlandic" unicode="&#x138;" horiz-adv-x="457" 
d="M52 400h130v-113l115 113h159l-187 -175l190 -225h-147l-130 160v-160h-130v400z" />
    <glyph glyph-name="Lacute" unicode="&#x139;" horiz-adv-x="547" 
d="M64 700v-700h473v132h-329v568h-144zM273 865l-209 -119l-62 59l199 153z" />
    <glyph glyph-name="lacute" unicode="&#x13a;" horiz-adv-x="246" 
d="M58 0h130v653h-130v-653zM259 865l-209 -119l-62 59l199 153z" />
    <glyph glyph-name="Lcommaaccent" unicode="&#x13b;" horiz-adv-x="547" 
d="M208 700v-568h329v-132h-473v700h144zM389 -113l-118 -214l-82 29l77 222z" />
    <glyph glyph-name="lcommaaccent" unicode="&#x13c;" horiz-adv-x="246" 
d="M58 653h130v-653h-130v653zM183 -113l-118 -214l-82 29l77 222z" />
    <glyph glyph-name="Lcaron" unicode="&#x13d;" horiz-adv-x="547" 
d="M208 700v-568h329v-132h-473v700h144zM479 679l-118 -214l-82 29l77 222z" />
    <glyph glyph-name="lcaron" unicode="&#x13e;" horiz-adv-x="414" 
d="M58 653h130v-653h-130v653zM434 679l-118 -214l-82 29l77 222z" />
    <glyph glyph-name="Ldot" unicode="&#x13f;" horiz-adv-x="547" 
d="M208 700v-568h329v-132h-473v700h144zM286 312c0 23.333 8 43.166 24 59.499s35.667 24.5 59 24.5s43.166 -8.16699 59.499 -24.5s24.5 -36.166 24.5 -59.499s-8.16699 -43 -24.5 -59s-36.166 -24 -59.499 -24s-43 8 -59 24s-24 35.667 -24 59z" />
    <glyph glyph-name="ldot" unicode="&#x140;" horiz-adv-x="420" 
d="M58 653h130v-653h-130v653zM243 312c0 23.333 8 43.166 24 59.499s35.667 24.5 59 24.5s43.166 -8.16699 59.499 -24.5s24.5 -36.166 24.5 -59.499s-8.16699 -43 -24.5 -59s-36.166 -24 -59.499 -24s-43 8 -59 24s-24 35.667 -24 59z" />
    <glyph glyph-name="Lslash" unicode="&#x141;" horiz-adv-x="580" 
d="M-20 283l117 67v350h144v-267l136 79l55 -95l-191 -110v-175h329v-132h-473v224l-62 -36z" />
    <glyph glyph-name="lslash" unicode="&#x142;" horiz-adv-x="298" 
d="M-30 263l115 66v324h130v-249l58 34l55 -95l-113 -66v-277h-130v202l-60 -34z" />
    <glyph glyph-name="Nacute" unicode="&#x143;" horiz-adv-x="725" 
d="M661 700h-144v-452l-349 452h-104v-700h144v443l338 -443h115v700zM498 865l-209 -119l-62 59l199 153z" />
    <glyph glyph-name="nacute" unicode="&#x144;" horiz-adv-x="520" 
d="M52 0l129.999 -0.00292969v223c8.66699 18.667 21 34.834 37 48.501s35 20.5 57 20.5c44 0 66 -24.333 66 -73v-219h130v250c0 25.333 -4.16699 47.833 -12.5 67.5s-19.666 36.334 -33.999 50.001s-31 24.167 -50 31.5s-39.5 11 -61.5 11
c-32.667 0 -59.5 -6.16699 -80.5 -18.5s-38.167 -26.166 -51.5 -41.499l-10 50h-120v-400zM394.999 610.997l-209 -132l-62 66l199 169z" />
    <glyph glyph-name="Ncommaaccent" unicode="&#x145;" horiz-adv-x="725" 
d="M661 0h-115l-338 443v-443h-144v700h104l349 -452v452h144v-700zM462 -113l-118 -214l-82 29l77 222z" />
    <glyph glyph-name="ncommaaccent" unicode="&#x146;" horiz-adv-x="520" 
d="M52 400l120.001 0.00292969l10 -50c13.333 15.333 30.5 29.166 51.5 41.499s47.833 18.5 80.5 18.5c22 0 42.5 -3.66699 61.5 -11s35.667 -17.833 50 -31.5s25.666 -30.334 33.999 -50.001s12.5 -42.167 12.5 -67.5v-250h-130v219c0 48.667 -22 73 -66 73
c-22 0 -41 -6.83301 -57 -20.5s-28.333 -29.834 -37 -48.501v-223h-130v400zM360.001 -112.997l-118 -214l-82 29l77 222z" />
    <glyph glyph-name="Ncaron" unicode="&#x147;" horiz-adv-x="725" 
d="M661 0h-115l-338 443v-443h-144v700h104l349 -452v452h144v-700zM362 744l-172 118l58 65l114 -71l115 70l57 -64z" />
    <glyph glyph-name="ncaron" unicode="&#x148;" horiz-adv-x="520" 
d="M52 400l120.001 0.00292969l10 -50c13.333 15.333 30.5 29.166 51.5 41.499s47.833 18.5 80.5 18.5c22 0 42.5 -3.66699 61.5 -11s35.667 -17.833 50 -31.5s25.666 -30.334 33.999 -50.001s12.5 -42.167 12.5 -67.5v-250h-130v219c0 48.667 -22 73 -66 73
c-22 0 -41 -6.83301 -57 -20.5s-28.333 -29.834 -37 -48.501v-223h-130v400zM260.001 475.003l-172 131l58 72l114 -79l115 78l57 -71z" />
    <glyph glyph-name="napostrophe" unicode="&#x149;" horiz-adv-x="540" 
d="M72 400l120.001 0.00292969l10 -50c13.333 15.333 30.5 29.166 51.5 41.499s47.833 18.5 80.5 18.5c22 0 42.5 -3.66699 61.5 -11s35.667 -17.833 50 -31.5s25.666 -30.334 33.999 -50.001s12.5 -42.167 12.5 -67.5v-250h-130v219c0 48.667 -22 73 -66 73
c-22 0 -41 -6.83301 -57 -20.5s-28.333 -29.834 -37 -48.501v-223h-130v400zM180.001 679.003l-118 -214l-82 29l77 222z" />
    <glyph glyph-name="Eng" unicode="&#x14a;" horiz-adv-x="725" 
d="M517 38l-309 404.999v-443h-144v700h104l349 -452v452h144v-731c0 -34 -5.5 -65 -16.5 -93s-26.667 -52 -47 -72s-45 -35.5 -74 -46.5s-61.833 -16.5 -98.5 -16.5c-29.333 0 -57.5 4 -84.5 12s-51.5 20.5 -73.5 37.5s-40.333 38.667 -55 65s-23.667 57.5 -27 93.5h144
c6.66699 -31.333 18.5 -52.166 35.5 -62.499s37.167 -15.5 60.5 -15.5c28.667 0 51.167 8.5 67.5 25.5s24.5 41.167 24.5 72.5v69z" />
    <glyph glyph-name="eng" unicode="&#x14b;" horiz-adv-x="520" 
d="M52 400l120.001 0.00292969l10 -50c13.333 15.333 30.5 29.166 51.5 41.499s47.833 18.5 80.5 18.5c22 0 42.5 -3.66699 61.5 -11s35.667 -17.833 50 -31.5s25.666 -30.334 33.999 -50.001s12.5 -42.167 12.5 -67.5v-330c0 -120 -56.667 -180 -170 -180
c-11.333 0 -22 0.333008 -32 1s-21 2 -33 4v116c10 -1.33301 20 -2.5 30 -3.5s18.667 -1.5 26 -1.5c32.667 0 49 20.667 49 62v301c0 48.667 -22 73 -66 73c-22 0 -41 -6.83301 -57 -20.5s-28.333 -29.834 -37 -48.501v-223h-130v400z" />
    <glyph glyph-name="Omacron" unicode="&#x14c;" horiz-adv-x="754" 
d="M377 710c47.333 0 91.833 -9.5 133.5 -28.5s78 -44.833 109 -77.5s55.5 -70.834 73.5 -114.501s27 -90.167 27 -139.5s-9 -95.833 -27 -139.5s-42.5 -81.834 -73.5 -114.501s-67.333 -58.334 -109 -77.001s-86.167 -28 -133.5 -28s-91.833 9.33301 -133.5 28
s-78 44.334 -109 77.001s-55.5 70.834 -73.5 114.501s-27 90.167 -27 139.5s9 95.833 27 139.5s42.5 81.834 73.5 114.501s67.333 58.5 109 77.5s86.167 28.5 133.5 28.5zM377 577c-28 0 -54 -5.83301 -78 -17.5s-44.833 -27.834 -62.5 -48.501s-31.667 -44.667 -42 -72
s-15.5 -57 -15.5 -89s5.16699 -61.667 15.5 -89s24.333 -51.166 42 -71.499s38.5 -36.333 62.5 -48s50 -17.5 78 -17.5s54 5.83301 78 17.5s44.833 27.667 62.5 48s31.667 44.166 42 71.499s15.5 57 15.5 89s-5.16699 61.667 -15.5 89s-24.333 51.333 -42 72
s-38.5 36.834 -62.5 48.501s-50 17.5 -78 17.5zM217 854h320v-93h-320v93z" />
    <glyph glyph-name="omacron" unicode="&#x14d;" horiz-adv-x="482" 
d="M160 200c0 -29.333 7.5 -52.333 22.5 -69s34.5 -25 58.5 -25s43.5 8.33301 58.5 25s22.5 39.667 22.5 69s-7.5 52.333 -22.5 69s-34.5 25 -58.5 25s-43.5 -8.33301 -58.5 -25s-22.5 -39.667 -22.5 -69zM32 200c0 28.667 5.16699 55.834 15.5 81.501s24.666 48 42.999 67
s40.333 34 66 45s53.834 16.5 84.501 16.5s58.834 -5.5 84.501 -16.5s47.667 -26 66 -45s32.666 -41.333 42.999 -67s15.5 -52.834 15.5 -81.501s-5.16699 -55.834 -15.5 -81.501s-24.666 -48 -42.999 -67s-40.333 -34 -66 -45s-53.834 -16.5 -84.501 -16.5
s-58.834 5.5 -84.501 16.5s-47.667 26 -66 45s-32.666 41.333 -42.999 67s-15.5 52.834 -15.5 81.501zM81 600h320v-103h-320v103z" />
    <glyph glyph-name="Obreve" unicode="&#x14e;" horiz-adv-x="754" 
d="M377 710c47.333 0 91.833 -9.5 133.5 -28.5s78 -44.833 109 -77.5s55.5 -70.834 73.5 -114.501s27 -90.167 27 -139.5s-9 -95.833 -27 -139.5s-42.5 -81.834 -73.5 -114.501s-67.333 -58.334 -109 -77.001s-86.167 -28 -133.5 -28s-91.833 9.33301 -133.5 28
s-78 44.334 -109 77.001s-55.5 70.834 -73.5 114.501s-27 90.167 -27 139.5s9 95.833 27 139.5s42.5 81.834 73.5 114.501s67.333 58.5 109 77.5s86.167 28.5 133.5 28.5zM377 577c-28 0 -54 -5.83301 -78 -17.5s-44.833 -27.834 -62.5 -48.501s-31.667 -44.667 -42 -72
s-15.5 -57 -15.5 -89s5.16699 -61.667 15.5 -89s24.333 -51.166 42 -71.499s38.5 -36.333 62.5 -48s50 -17.5 78 -17.5s54 5.83301 78 17.5s44.833 27.667 62.5 48s31.667 44.166 42 71.499s15.5 57 15.5 89s-5.16699 61.667 -15.5 89s-24.333 51.333 -42 72
s-38.5 36.834 -62.5 48.501s-50 17.5 -78 17.5zM377 851c13.333 0 26 3.83301 38 11.5s19.333 18.834 22 33.501h108c-0.666992 -21.333 -5.66699 -40.5 -15 -57.5s-21.833 -31.5 -37.5 -43.5s-33.5 -21.167 -53.5 -27.5s-40.667 -9.5 -62 -9.5s-42 3.16699 -62 9.5
s-37.833 15.5 -53.5 27.5s-28.167 26.5 -37.5 43.5s-14.333 36.167 -15 57.5h108c2.66699 -14.667 10 -25.834 22 -33.501s24.667 -11.5 38 -11.5z" />
    <glyph glyph-name="obreve" unicode="&#x14f;" horiz-adv-x="482" 
d="M160 200c0 -29.333 7.5 -52.333 22.5 -69s34.5 -25 58.5 -25s43.5 8.33301 58.5 25s22.5 39.667 22.5 69s-7.5 52.333 -22.5 69s-34.5 25 -58.5 25s-43.5 -8.33301 -58.5 -25s-22.5 -39.667 -22.5 -69zM32 200c0 28.667 5.16699 55.834 15.5 81.501s24.666 48 42.999 67
s40.333 34 66 45s53.834 16.5 84.501 16.5s58.834 -5.5 84.501 -16.5s47.667 -26 66 -45s32.666 -41.333 42.999 -67s15.5 -52.834 15.5 -81.501s-5.16699 -55.834 -15.5 -81.501s-24.666 -48 -42.999 -67s-40.333 -34 -66 -45s-53.834 -16.5 -84.501 -16.5
s-58.834 5.5 -84.501 16.5s-47.667 26 -66 45s-32.666 41.333 -42.999 67s-15.5 52.834 -15.5 81.501zM241 593c13.333 0 26 4.33301 38 13s19.333 21 22 37h108c-0.666992 -24 -5.66699 -45.333 -15 -64s-21.833 -34.667 -37.5 -48s-33.5 -23.5 -53.5 -30.5
s-40.667 -10.5 -62 -10.5s-42 3.5 -62 10.5s-37.833 17.167 -53.5 30.5s-28.167 29.333 -37.5 48s-14.333 40 -15 64h108c2.66699 -16 10 -28.333 22 -37s24.667 -13 38 -13z" />
    <glyph glyph-name="Ohungarumlaut" unicode="&#x150;" horiz-adv-x="754" 
d="M377 710c47.333 0 91.833 -9.5 133.5 -28.5s78 -44.833 109 -77.5s55.5 -70.834 73.5 -114.501s27 -90.167 27 -139.5s-9 -95.833 -27 -139.5s-42.5 -81.834 -73.5 -114.501s-67.333 -58.334 -109 -77.001s-86.167 -28 -133.5 -28s-91.833 9.33301 -133.5 28
s-78 44.334 -109 77.001s-55.5 70.834 -73.5 114.501s-27 90.167 -27 139.5s9 95.833 27 139.5s42.5 81.834 73.5 114.501s67.333 58.5 109 77.5s86.167 28.5 133.5 28.5zM377 577c-28 0 -54 -5.83301 -78 -17.5s-44.833 -27.834 -62.5 -48.501s-31.667 -44.667 -42 -72
s-15.5 -57 -15.5 -89s5.16699 -61.667 15.5 -89s24.333 -51.166 42 -71.499s38.5 -36.333 62.5 -48s50 -17.5 78 -17.5s54 5.83301 78 17.5s44.833 27.667 62.5 48s31.667 44.166 42 71.499s15.5 57 15.5 89s-5.16699 61.667 -15.5 89s-24.333 51.333 -42 72
s-38.5 36.834 -62.5 48.501s-50 17.5 -78 17.5zM315 749l-86 41l85 162l112 -37zM515 749l-86 41l85 162l112 -37z" />
    <glyph glyph-name="ohungarumlaut" unicode="&#x151;" horiz-adv-x="482" 
d="M160 200c0 -29.333 7.5 -52.333 22.5 -69s34.5 -25 58.5 -25s43.5 8.33301 58.5 25s22.5 39.667 22.5 69s-7.5 52.333 -22.5 69s-34.5 25 -58.5 25s-43.5 -8.33301 -58.5 -25s-22.5 -39.667 -22.5 -69zM32 200c0 28.667 5.16699 55.834 15.5 81.501s24.666 48 42.999 67
s40.333 34 66 45s53.834 16.5 84.501 16.5s58.834 -5.5 84.501 -16.5s47.667 -26 66 -45s32.666 -41.333 42.999 -67s15.5 -52.834 15.5 -81.501s-5.16699 -55.834 -15.5 -81.501s-24.666 -48 -42.999 -67s-40.333 -34 -66 -45s-53.834 -16.5 -84.501 -16.5
s-58.834 5.5 -84.501 16.5s-47.667 26 -66 45s-32.666 41.333 -42.999 67s-15.5 52.834 -15.5 81.501zM158 486l-86 45l85 180l112 -41zM358 486l-86 45l85 180l112 -41z" />
    <glyph glyph-name="OE" unicode="&#x152;" horiz-adv-x="1098" 
d="M719 568v-147.004h305v-132h-305v-157h339v-132h-483v81c-23.333 -26 -52.833 -47.5 -88.5 -64.5s-72.167 -25.5 -109.5 -25.5c-47.333 0 -91.833 9.33301 -133.5 28s-78 44.334 -109 77.001s-55.5 70.834 -73.5 114.501s-27 90.167 -27 139.5s9 95.833 27 139.5
s42.5 81.834 73.5 114.501s67.333 58.5 109 77.5s86.167 28.5 133.5 28.5c37.333 0 73.833 -8.66699 109.5 -26s65.167 -38.666 88.5 -63.999v80h483v-132h-339zM377 576.996c-28 0 -54 -5.83398 -78 -17.501s-44.833 -27.834 -62.5 -48.501s-31.667 -44.667 -42 -72
s-15.5 -57 -15.5 -89s5.16699 -61.667 15.5 -89s24.333 -51.166 42 -71.499s38.5 -36.333 62.5 -48s50 -17.5 78 -17.5c26.667 0 51.834 5.5 75.501 16.5s44.5 26.5 62.5 46.5s32.167 43.833 42.5 71.5s16.166 58.167 17.499 91.5c0 32 -5.16699 61.667 -15.5 89
s-24.333 51.333 -42 72s-38.5 36.834 -62.5 48.501s-50 17.5 -78 17.5z" />
    <glyph glyph-name="oe" unicode="&#x153;" horiz-adv-x="763" 
d="M433 173c4.66699 -21.333 14.499 -40.502 29.499 -57.502s37.167 -25.5 66.5 -25.5c18.667 0 34.667 4.83301 48 14.5s22.333 21.167 27 34.5h119c-10.667 -44 -32.167 -79.833 -64.5 -107.5s-76.5 -41.5 -132.5 -41.5c-31.333 0 -59.333 6.83301 -84 20.5
s-45.334 29.834 -62.001 48.501c-15.333 -18.667 -34.833 -34.834 -58.5 -48.501s-50.5 -20.5 -80.5 -20.5c-30.667 0 -58.834 5.5 -84.501 16.5s-47.667 26 -66 45s-32.666 41.333 -42.999 67s-15.5 52.834 -15.5 81.501s5 55.834 15 81.501s24 48 42 67s39.333 34 64 45
s51.667 16.5 81 16.5c34 0 63 -7 87 -21s43.667 -30 59 -48c16.667 18 37.334 34 62.001 48s53.667 21 87 21c30 0 57.333 -5.83301 82 -17.5s45.834 -27 63.501 -46s31.5 -40.5 41.5 -64.5s15 -48.667 15 -74v-15.5c0 -5 -0.666992 -11.5 -2 -19.5h-296zM159.999 199.998
c0 -29.333 7.5 -52.333 22.5 -69s34.5 -25 58.5 -25c22.667 0 41.5 7.83301 56.5 23.5s23.167 39.167 24.5 70.5c-1.33301 30.667 -9.5 54 -24.5 70s-33.833 24 -56.5 24c-24 0 -43.5 -8.33301 -58.5 -25s-22.5 -39.667 -22.5 -69zM530.999 309.998
c-24.667 0 -44.5 -6.83301 -59.5 -20.5s-25.833 -29.167 -32.5 -46.5h173c-2.66699 16 -11.667 31.167 -27 45.5s-33.333 21.5 -54 21.5z" />
    <glyph glyph-name="Racute" unicode="&#x154;" horiz-adv-x="638" 
d="M208 271l94.001 -0.000976562l166 -271h154l-173 283c44.667 11.333 80.667 33 108 65s41 76.667 41 134c0 40.667 -6.5 74.834 -19.5 102.501s-30.833 50 -53.5 67s-49.334 29.333 -80.001 37s-64 11.5 -100 11.5h-281v-700h144v271zM206.001 400.999v169h139
c33.333 0 59.833 -6.33301 79.5 -19s29.5 -35 29.5 -67c0 -31.333 -9.83301 -53 -29.5 -65s-45.5 -18 -77.5 -18h-141zM452.001 864.999l-209 -119l-62 59l199 153z" />
    <glyph glyph-name="racute" unicode="&#x155;" horiz-adv-x="344" 
d="M52 0l130.002 -0.000976562v223c4 8.66699 10.833 17.5 20.5 26.5s21.167 17.167 34.5 24.5s28.166 12.833 44.499 16.5s33.833 4.16699 52.5 1.5v118c-24 2.66699 -44 2.33398 -60 -0.999023s-29.833 -8.33301 -41.5 -15s-21.334 -14 -29.001 -22l-21.5 -22l-10 50h-120
v-400zM327.002 610.999l-209 -132l-62 66l199 169z" />
    <glyph glyph-name="Rcommaaccent" unicode="&#x156;" horiz-adv-x="638" 
d="M208 0l-144.001 0.000976562v700h281c36 0 69.333 -3.83301 100 -11.5s57.334 -20 80.001 -37s40.5 -39.333 53.5 -67s19.5 -61.834 19.5 -102.501c0 -57.333 -13.667 -102 -41 -134s-63.333 -53.667 -108 -65l173 -283h-154l-166 271h-94v-271zM346.999 401.001
c32 0 57.833 6 77.5 18s29.5 33.667 29.5 65c0 32 -9.83301 54.333 -29.5 67s-46.167 19 -79.5 19h-139v-169h141zM415.999 -112.999l-118 -214l-82 29l77 222z" />
    <glyph glyph-name="rcommaaccent" unicode="&#x157;" horiz-adv-x="344" 
d="M52 400l119.998 0.000976562l10 -50l21.5 22c7.66699 8 17.334 15.333 29.001 22s25.5 11.667 41.5 15s36 3.66602 60 0.999023v-118c-18.667 2.66699 -36.167 2.16699 -52.5 -1.5s-31.166 -9.16699 -44.499 -16.5s-24.833 -15.5 -34.5 -24.5s-16.5 -17.833 -20.5 -26.5
v-223h-130v400zM181.998 -112.999l-118 -214l-82 29l77 222z" />
    <glyph glyph-name="Rcaron" unicode="&#x158;" horiz-adv-x="638" 
d="M208 0l-144.001 0.000976562v700h281c36 0 69.333 -3.83301 100 -11.5s57.334 -20 80.001 -37s40.5 -39.333 53.5 -67s19.5 -61.834 19.5 -102.501c0 -57.333 -13.667 -102 -41 -134s-63.333 -53.667 -108 -65l173 -283h-154l-166 271h-94v-271zM346.999 401.001
c32 0 57.833 6 77.5 18s29.5 33.667 29.5 65c0 32 -9.83301 54.333 -29.5 67s-46.167 19 -79.5 19h-139v-169h141zM315.999 744.001l-172 118l58 65l114 -71l115 70l57 -64z" />
    <glyph glyph-name="rcaron" unicode="&#x159;" horiz-adv-x="344" 
d="M52 400l119.998 0.000976562l10 -50l21.5 22c7.66699 8 17.334 15.333 29.001 22s25.5 11.667 41.5 15s36 3.66602 60 0.999023v-118c-18.667 2.66699 -36.167 2.16699 -52.5 -1.5s-31.166 -9.16699 -44.499 -16.5s-24.833 -15.5 -34.5 -24.5s-16.5 -17.833 -20.5 -26.5
v-223h-130v400zM201.998 475.001l-172 131l58 72l114 -79l115 78l57 -71z" />
    <glyph glyph-name="Sacute" unicode="&#x15a;" horiz-adv-x="564" 
d="M293 121c-37.333 0 -66.832 5.99805 -88.499 17.998s-35.834 32.333 -42.501 61h-144c12.667 -67.333 42.334 -119 89.001 -155s106.667 -54 180 -54c32.667 0 64.167 4.66699 94.5 14s57 22.833 80 40.5s41.5 39.5 55.5 65.5s21 56 21 90c0 32 -6.16699 59.333 -18.5 82
s-29.333 42.334 -51 59.001s-47.334 31.334 -77.001 44.001s-62.167 25 -97.5 37c-16 5.33301 -31.5 10.833 -46.5 16.5s-28 12 -39 19s-19.833 15 -26.5 24s-10 19.5 -10 31.5c0 18 8.33301 33.5 25 46.5s43.667 19.5 81 19.5c28 0 51.833 -6.66699 71.5 -20
s32.5 -32.666 38.5 -57.999h144c-6 33.333 -16.833 63 -32.5 89s-34.834 47.833 -57.501 65.5s-48 31 -76 40s-57.333 13.5 -88 13.5c-42 0 -78.5 -5.5 -109.5 -16.5s-56.667 -25.833 -77 -44.5s-35.666 -39.834 -45.999 -63.501s-15.5 -47.834 -15.5 -72.501
c0 -32.667 5.5 -60 16.5 -82s26 -40.833 45 -56.5s41.5 -29 67.5 -40s54 -21.833 84 -32.5l59 -21c18.667 -6.66699 35 -14.167 49 -22.5s25 -17.666 33 -27.999s12 -22.5 12 -36.5c0 -13.333 -3 -24.5 -9 -33.5s-13.833 -16.5 -23.5 -22.5s-20.667 -10.333 -33 -13
s-24.833 -4 -37.5 -4zM418.001 864.998l-209 -119l-62 59l199 153z" />
    <glyph glyph-name="sacute" unicode="&#x15b;" horiz-adv-x="374" 
d="M185 95c-30.667 0 -48.334 10.3311 -53.001 30.998h-116c8 -42 26.667 -75 56 -99s68.333 -36 117 -36c22 0 43 2.66699 63 8s37.5 13.333 52.5 24s27 23.667 36 39s13.5 33 13.5 53c0 21.333 -4.16699 39.5 -12.5 54.5s-19 27.833 -32 38.5s-27.333 19.167 -43 25.5
s-30.834 11.5 -45.501 15.5c-25.333 6.66699 -44 12 -56 16s-18 10.333 -18 19c0 6.66699 3.33301 12 10 16s15.667 6 27 6c24 0 39 -10 45 -30h118c-2 16.667 -7 33 -15 49s-18.833 30.333 -32.5 43s-30.5 22.834 -50.5 30.501s-43 11.5 -69 11.5
c-48 0 -85.667 -11.667 -113 -35s-41 -52.333 -41 -87c0 -20.667 3.66699 -38.167 11 -52.5s17.333 -26.5 30 -36.5s27.334 -18.333 44.001 -25s34.667 -12.667 54 -18c20 -5.33301 36.333 -10 49 -14s19 -11.667 19 -23c0 -9.33301 -4.66699 -15.666 -14 -18.999
s-20.666 -5 -33.999 -5zM322 610.998l-209 -132l-62 66l199 169z" />
    <glyph glyph-name="Scircumflex" unicode="&#x15c;" horiz-adv-x="564" 
d="M293 121c12.667 0 25.166 1.33496 37.499 4.00195s23.333 7 33 13s17.5 13.5 23.5 22.5s9 20.167 9 33.5c0 14 -4 26.167 -12 36.5s-19 19.666 -33 27.999s-30.333 15.833 -49 22.5l-59 21c-30 10.667 -58 21.5 -84 32.5s-48.5 24.333 -67.5 40s-34 34.5 -45 56.5
s-16.5 49.333 -16.5 82c0 24.667 5.16699 48.834 15.5 72.501s25.666 44.834 45.999 63.501s46 33.5 77 44.5s67.5 16.5 109.5 16.5c30.667 0 60 -4.5 88 -13.5s53.333 -22.333 76 -40s41.834 -39.5 57.501 -65.5s26.5 -55.667 32.5 -89h-144
c-6 25.333 -18.833 44.666 -38.5 57.999s-43.5 20 -71.5 20c-37.333 0 -64.333 -6.5 -81 -19.5s-25 -28.5 -25 -46.5c0 -12 3.33301 -22.5 10 -31.5s15.5 -17 26.5 -24s24 -13.333 39 -19s30.5 -11.167 46.5 -16.5c35.333 -12 67.833 -24.333 97.5 -37
s55.334 -27.334 77.001 -44.001s38.667 -36.334 51 -59.001s18.5 -50 18.5 -82c0 -34 -7 -64 -21 -90s-32.5 -47.833 -55.5 -65.5s-49.667 -31.167 -80 -40.5s-61.833 -14 -94.5 -14c-73.333 0 -133.333 18 -180 54s-76.334 87.667 -89.001 155h144
c6.66699 -28.667 20.834 -49 42.501 -61s51.167 -18 88.5 -18zM453.999 809.002l-57 -64l-115 70l-114 -71l-58 65l172 118z" />
    <glyph glyph-name="scircumflex" unicode="&#x15d;" horiz-adv-x="374" 
d="M185 95c13.333 0 24.666 1.66895 33.999 5.00195s14 9.66602 14 18.999c0 11.333 -6.33301 19 -19 23s-29 8.66699 -49 14c-19.333 5.33301 -37.333 11.333 -54 18s-31.334 15 -44.001 25s-22.667 22.167 -30 36.5s-11 31.833 -11 52.5c0 34.667 13.667 63.667 41 87
s65 35 113 35c26 0 49 -3.83301 69 -11.5s36.833 -17.834 50.5 -30.501s24.5 -27 32.5 -43s13 -32.333 15 -49h-118c-6 20 -21 30 -45 30c-11.333 0 -20.333 -2 -27 -6s-10 -9.33301 -10 -16c0 -8.66699 6 -15 18 -19s30.667 -9.33301 56 -16
c14.667 -4 29.834 -9.16699 45.501 -15.5s30 -14.833 43 -25.5s23.667 -23.5 32 -38.5s12.5 -33.167 12.5 -54.5c0 -20 -4.5 -37.667 -13.5 -53s-21 -28.333 -36 -39s-32.5 -18.667 -52.5 -24s-41 -8 -63 -8c-48.667 0 -87.667 12 -117 36s-48 57 -56 99h116
c4.66699 -20.667 22.334 -31 53.001 -31zM359 549.002l-57 -71l-115 78l-114 -79l-58 72l172 131z" />
    <glyph glyph-name="Scedilla" unicode="&#x15e;" horiz-adv-x="564" 
d="M293 121c12.667 0 25.166 1.33496 37.499 4.00195s23.333 7 33 13s17.5 13.5 23.5 22.5s9 20.167 9 33.5c0 14 -4 26.167 -12 36.5s-19 19.666 -33 27.999s-30.333 15.833 -49 22.5l-59 21c-30 10.667 -58 21.5 -84 32.5s-48.5 24.333 -67.5 40s-34 34.5 -45 56.5
s-16.5 49.333 -16.5 82c0 24.667 5.16699 48.834 15.5 72.501s25.666 44.834 45.999 63.501s46 33.5 77 44.5s67.5 16.5 109.5 16.5c30.667 0 60 -4.5 88 -13.5s53.333 -22.333 76 -40s41.834 -39.5 57.501 -65.5s26.5 -55.667 32.5 -89h-144
c-6 25.333 -18.833 44.666 -38.5 57.999s-43.5 20 -71.5 20c-37.333 0 -64.333 -6.5 -81 -19.5s-25 -28.5 -25 -46.5c0 -12 3.33301 -22.5 10 -31.5s15.5 -17 26.5 -24s24 -13.333 39 -19s30.5 -11.167 46.5 -16.5c35.333 -12 67.833 -24.333 97.5 -37
s55.334 -27.334 77.001 -44.001s38.667 -36.334 51 -59.001s18.5 -50 18.5 -82c0 -34 -7 -64 -21 -90s-32.5 -47.833 -55.5 -65.5s-49.667 -31.167 -80 -40.5s-61.833 -14 -94.5 -14c-73.333 0 -133.333 18 -180 54s-76.334 87.667 -89.001 155h144
c6.66699 -28.667 20.834 -49 42.501 -61s51.167 -18 88.5 -18zM228.999 -283.998l-87 51l95 201l126 -44z" />
    <glyph glyph-name="scedilla" unicode="&#x15f;" horiz-adv-x="374" 
d="M185 95c13.333 0 24.666 1.66895 33.999 5.00195s14 9.66602 14 18.999c0 11.333 -6.33301 19 -19 23s-29 8.66699 -49 14c-19.333 5.33301 -37.333 11.333 -54 18s-31.334 15 -44.001 25s-22.667 22.167 -30 36.5s-11 31.833 -11 52.5c0 34.667 13.667 63.667 41 87
s65 35 113 35c26 0 49 -3.83301 69 -11.5s36.833 -17.834 50.5 -30.501s24.5 -27 32.5 -43s13 -32.333 15 -49h-118c-6 20 -21 30 -45 30c-11.333 0 -20.333 -2 -27 -6s-10 -9.33301 -10 -16c0 -8.66699 6 -15 18 -19s30.667 -9.33301 56 -16
c14.667 -4 29.834 -9.16699 45.501 -15.5s30 -14.833 43 -25.5s23.667 -23.5 32 -38.5s12.5 -33.167 12.5 -54.5c0 -20 -4.5 -37.667 -13.5 -53s-21 -28.333 -36 -39s-32.5 -18.667 -52.5 -24s-41 -8 -63 -8c-48.667 0 -87.667 12 -117 36s-48 57 -56 99h116
c4.66699 -20.667 22.334 -31 53.001 -31zM133 -283.998l-87 51l95 201l126 -44z" />
    <glyph glyph-name="Scaron" unicode="&#x160;" horiz-adv-x="564" 
d="M293 121c12.667 0 25.166 1.33496 37.499 4.00195s23.333 7 33 13s17.5 13.5 23.5 22.5s9 20.167 9 33.5c0 14 -4 26.167 -12 36.5s-19 19.666 -33 27.999s-30.333 15.833 -49 22.5l-59 21c-30 10.667 -58 21.5 -84 32.5s-48.5 24.333 -67.5 40s-34 34.5 -45 56.5
s-16.5 49.333 -16.5 82c0 24.667 5.16699 48.834 15.5 72.501s25.666 44.834 45.999 63.501s46 33.5 77 44.5s67.5 16.5 109.5 16.5c30.667 0 60 -4.5 88 -13.5s53.333 -22.333 76 -40s41.834 -39.5 57.501 -65.5s26.5 -55.667 32.5 -89h-144
c-6 25.333 -18.833 44.666 -38.5 57.999s-43.5 20 -71.5 20c-37.333 0 -64.333 -6.5 -81 -19.5s-25 -28.5 -25 -46.5c0 -12 3.33301 -22.5 10 -31.5s15.5 -17 26.5 -24s24 -13.333 39 -19s30.5 -11.167 46.5 -16.5c35.333 -12 67.833 -24.333 97.5 -37
s55.334 -27.334 77.001 -44.001s38.667 -36.334 51 -59.001s18.5 -50 18.5 -82c0 -34 -7 -64 -21 -90s-32.5 -47.833 -55.5 -65.5s-49.667 -31.167 -80 -40.5s-61.833 -14 -94.5 -14c-73.333 0 -133.333 18 -180 54s-76.334 87.667 -89.001 155h144
c6.66699 -28.667 20.834 -49 42.501 -61s51.167 -18 88.5 -18zM281.999 744.002l-172 118l58 65l114 -71l115 70l57 -64z" />
    <glyph glyph-name="scaron" unicode="&#x161;" horiz-adv-x="374" 
d="M185 95c13.333 0 24.666 1.66895 33.999 5.00195s14 9.66602 14 18.999c0 11.333 -6.33301 19 -19 23s-29 8.66699 -49 14c-19.333 5.33301 -37.333 11.333 -54 18s-31.334 15 -44.001 25s-22.667 22.167 -30 36.5s-11 31.833 -11 52.5c0 34.667 13.667 63.667 41 87
s65 35 113 35c26 0 49 -3.83301 69 -11.5s36.833 -17.834 50.5 -30.501s24.5 -27 32.5 -43s13 -32.333 15 -49h-118c-6 20 -21 30 -45 30c-11.333 0 -20.333 -2 -27 -6s-10 -9.33301 -10 -16c0 -8.66699 6 -15 18 -19s30.667 -9.33301 56 -16
c14.667 -4 29.834 -9.16699 45.501 -15.5s30 -14.833 43 -25.5s23.667 -23.5 32 -38.5s12.5 -33.167 12.5 -54.5c0 -20 -4.5 -37.667 -13.5 -53s-21 -28.333 -36 -39s-32.5 -18.667 -52.5 -24s-41 -8 -63 -8c-48.667 0 -87.667 12 -117 36s-48 57 -56 99h116
c4.66699 -20.667 22.334 -31 53.001 -31zM187 475.002l-172 131l58 72l114 -79l115 78l57 -71z" />
    <glyph glyph-name="Tcommaaccent" unicode="&#x162;" horiz-adv-x="576" 
d="M566 568h-206v-568h-144v568h-206v132h556v-132zM347 -113l-118 -214l-82 29l77 222z" />
    <glyph glyph-name="tcommaaccent" unicode="&#x163;" horiz-adv-x="336" 
d="M2 400h75.002l20 142h107v-142h111v-118h-111v-128c0 -17.333 4.16699 -29.333 12.5 -36s22.166 -10 41.499 -10c16.667 0 36 2 58 6v-111c-16.667 -4.66699 -32.334 -7.83398 -47.001 -9.50098s-29.667 -2.5 -45 -2.5c-19.333 0 -38 2.33301 -56 7
s-34 12.334 -48 23.001s-25.167 25 -33.5 43s-12.5 40.667 -12.5 68v150h-72v118zM268.002 -113l-118 -214l-82 29l77 222z" />
    <glyph glyph-name="Tcaron" unicode="&#x164;" horiz-adv-x="576" 
d="M566 568h-206v-568h-144v568h-206v132h556v-132zM288 744l-172 118l58 65l114 -71l115 70l57 -64z" />
    <glyph glyph-name="tcaron" unicode="&#x165;" horiz-adv-x="514" 
d="M2 400h75.002l20 142h107v-142h111v-118h-111v-128c0 -17.333 4.16699 -29.333 12.5 -36s22.166 -10 41.499 -10c16.667 0 36 2 58 6v-111c-16.667 -4.66699 -32.334 -7.83398 -47.001 -9.50098s-29.667 -2.5 -45 -2.5c-19.333 0 -38 2.33301 -56 7
s-34 12.334 -48 23.001s-25.167 25 -33.5 43s-12.5 40.667 -12.5 68v150h-72v118zM534.002 679l-118 -214l-82 29l77 222z" />
    <glyph glyph-name="Tbar" unicode="&#x166;" horiz-adv-x="576" 
d="M108 357h108v211h-206v132h556v-132h-206v-211h108v-103h-108v-254h-144v254h-108v103z" />
    <glyph glyph-name="tbar" unicode="&#x167;" horiz-adv-x="336" 
d="M2 232h72.002v50h-72v118h75l20 142h107v-142h111v-118h-111v-50h111v-63h-111v-15c0 -17.333 4.16699 -29.333 12.5 -36s22.166 -10 41.499 -10c16.667 0 36 2 58 6v-111c-16.667 -4.66699 -32.334 -7.83398 -47.001 -9.50098s-29.667 -2.5 -45 -2.5
c-19.333 0 -38 2.33301 -56 7s-34 12.334 -48 23.001s-25.167 25 -33.5 43s-12.5 40.667 -12.5 68v37h-72v63z" />
    <glyph glyph-name="Utilde" unicode="&#x168;" horiz-adv-x="710" 
d="M355 124c51.333 0 89 16 113 48s36 73.667 36 125v403h144v-403c0 -44.667 -6.16699 -85.667 -18.5 -123s-30.666 -69.5 -54.999 -96.5s-54.833 -48 -91.5 -63s-79.334 -22.5 -128.001 -22.5s-91.334 7.5 -128.001 22.5s-67.167 36 -91.5 63s-42.666 59.167 -54.999 96.5
s-18.5 78.333 -18.5 123v403h144v-403c0 -51.333 12 -93 36 -125s61.667 -48 113 -48zM432 757c-14.667 0 -27.8301 2.5 -39.4971 7.5s-22.667 10.5 -33 16.5s-20.5 11.5 -30.5 16.5s-20.667 7.5 -32 7.5c-14.667 0 -26.667 -5.5 -36 -16.5s-16 -24.167 -20 -39.5l-76 49
c11.333 25.333 27.166 47 47.499 65s43.166 27 68.499 27c14 0 27.167 -2.5 39.5 -7.5s24 -10.5 35 -16.5s21.833 -11.5 32.5 -16.5s22 -7.5 34 -7.5c10.667 0 20.167 5.5 28.5 16.5s14.5 24.167 18.5 39.5l76 -49c-11.333 -25.333 -26.833 -47 -46.5 -65
s-41.834 -27 -66.501 -27z" />
    <glyph glyph-name="utilde" unicode="&#x169;" horiz-adv-x="510" 
d="M460 0l-120.001 0.000976562l-10 50c-12.667 -16 -29.167 -30 -49.5 -42s-48.166 -18 -83.499 -18c-44 0 -79.833 14 -107.5 42s-41.5 67.333 -41.5 118v250h130v-226c0 -22 4.83301 -38.5 14.5 -49.5s25.5 -16.5 47.5 -16.5s40.5 6.66699 55.5 20
s26.5 29.666 34.5 48.999v223h130v-400zM331.999 491.001c-14.667 0 -27.8301 2.83301 -39.4971 8.5s-22.667 11.667 -33 18l-30.5 18c-10 5.66699 -20.667 8.5 -32 8.5c-14.667 0 -26.667 -6 -36 -18s-16 -26.667 -20 -44l-76 55c11.333 28 27.166 52 47.499 72
s43.166 30 68.499 30c14 0 27.167 -2.83301 39.5 -8.5s24 -11.667 35 -18l32.5 -18c10.667 -5.66699 22 -8.5 34 -8.5c10.667 0 20.167 6 28.5 18s14.5 26.667 18.5 44l76 -55c-11.333 -28 -26.833 -52 -46.5 -72s-41.834 -30 -66.501 -30z" />
    <glyph glyph-name="Umacron" unicode="&#x16a;" horiz-adv-x="710" 
d="M355 124c51.333 0 89 16 113 48s36 73.667 36 125v403h144v-403c0 -44.667 -6.16699 -85.667 -18.5 -123s-30.666 -69.5 -54.999 -96.5s-54.833 -48 -91.5 -63s-79.334 -22.5 -128.001 -22.5s-91.334 7.5 -128.001 22.5s-67.167 36 -91.5 63s-42.666 59.167 -54.999 96.5
s-18.5 78.333 -18.5 123v403h144v-403c0 -51.333 12 -93 36 -125s61.667 -48 113 -48zM195 854h320v-93h-320v93z" />
    <glyph glyph-name="umacron" unicode="&#x16b;" horiz-adv-x="510" 
d="M460 0l-120.001 0.000976562l-10 50c-12.667 -16 -29.167 -30 -49.5 -42s-48.166 -18 -83.499 -18c-44 0 -79.833 14 -107.5 42s-41.5 67.333 -41.5 118v250h130v-226c0 -22 4.83301 -38.5 14.5 -49.5s25.5 -16.5 47.5 -16.5s40.5 6.66699 55.5 20
s26.5 29.666 34.5 48.999v223h130v-400zM94.999 600.001h320v-103h-320v103z" />
    <glyph glyph-name="Ubreve" unicode="&#x16c;" horiz-adv-x="710" 
d="M355 124c51.333 0 89 16 113 48s36 73.667 36 125v403h144v-403c0 -44.667 -6.16699 -85.667 -18.5 -123s-30.666 -69.5 -54.999 -96.5s-54.833 -48 -91.5 -63s-79.334 -22.5 -128.001 -22.5s-91.334 7.5 -128.001 22.5s-67.167 36 -91.5 63s-42.666 59.167 -54.999 96.5
s-18.5 78.333 -18.5 123v403h144v-403c0 -51.333 12 -93 36 -125s61.667 -48 113 -48zM355 851c13.333 0 26 3.83301 38 11.5s19.333 18.834 22 33.501h108c-0.666992 -21.333 -5.66699 -40.5 -15 -57.5s-21.833 -31.5 -37.5 -43.5s-33.5 -21.167 -53.5 -27.5
s-40.667 -9.5 -62 -9.5s-42 3.16699 -62 9.5s-37.833 15.5 -53.5 27.5s-28.167 26.5 -37.5 43.5s-14.333 36.167 -15 57.5h108c2.66699 -14.667 10 -25.834 22 -33.501s24.667 -11.5 38 -11.5z" />
    <glyph glyph-name="ubreve" unicode="&#x16d;" horiz-adv-x="510" 
d="M460 0l-120.001 0.000976562l-10 50c-12.667 -16 -29.167 -30 -49.5 -42s-48.166 -18 -83.499 -18c-44 0 -79.833 14 -107.5 42s-41.5 67.333 -41.5 118v250h130v-226c0 -22 4.83301 -38.5 14.5 -49.5s25.5 -16.5 47.5 -16.5s40.5 6.66699 55.5 20
s26.5 29.666 34.5 48.999v223h130v-400zM254.999 593.001c13.333 0 26 4.33301 38 13s19.333 21 22 37h108c-0.666992 -24 -5.66699 -45.333 -15 -64s-21.833 -34.667 -37.5 -48s-33.5 -23.5 -53.5 -30.5s-40.667 -10.5 -62 -10.5s-42 3.5 -62 10.5
s-37.833 17.167 -53.5 30.5s-28.167 29.333 -37.5 48s-14.333 40 -15 64h108c2.66699 -16 10 -28.333 22 -37s24.667 -13 38 -13z" />
    <glyph glyph-name="Uring" unicode="&#x16e;" horiz-adv-x="710" 
d="M355 124c51.333 0 89 16 113 48s36 73.667 36 125v403h144v-403c0 -44.667 -6.16699 -85.667 -18.5 -123s-30.666 -69.5 -54.999 -96.5s-54.833 -48 -91.5 -63s-79.334 -22.5 -128.001 -22.5s-91.334 7.5 -128.001 22.5s-67.167 36 -91.5 63s-42.666 59.167 -54.999 96.5
s-18.5 78.333 -18.5 123v403h144v-403c0 -51.333 12 -93 36 -125s61.667 -48 113 -48zM355 941c16 0 30.833 -2.66699 44.5 -8s25.834 -12.5 36.501 -21.5s19 -19.5 25 -31.5s9 -24.667 9 -38s-3 -26.166 -9 -38.499s-14.333 -23 -25 -32s-22.834 -16.167 -36.501 -21.5
s-28.5 -8 -44.5 -8s-30.833 2.66699 -44.5 8s-25.834 12.5 -36.501 21.5s-19 19.667 -25 32s-9 25.166 -9 38.499s3 26 9 38s14.333 22.5 25 31.5s22.834 16.167 36.501 21.5s28.5 8 44.5 8zM355 883c-12.667 0 -23.334 -4.16699 -32.001 -12.5s-13 -17.833 -13 -28.5
s4.33301 -20.334 13 -29.001s19.334 -13 32.001 -13s23.334 4.33301 32.001 13s13 18.334 13 29.001s-4.33301 20.167 -13 28.5s-19.334 12.5 -32.001 12.5z" />
    <glyph glyph-name="uring" unicode="&#x16f;" horiz-adv-x="510" 
d="M460 0l-120.001 0.000976562l-10 50c-12.667 -16 -29.167 -30 -49.5 -42s-48.166 -18 -83.499 -18c-44 0 -79.833 14 -107.5 42s-41.5 67.333 -41.5 118v250h130v-226c0 -22 4.83301 -38.5 14.5 -49.5s25.5 -16.5 47.5 -16.5s40.5 6.66699 55.5 20
s26.5 29.666 34.5 48.999v223h130v-400zM254.999 707.001c16 0 30.833 -3 44.5 -9s25.834 -14 36.501 -24s19 -21.667 25 -35s9 -27.333 9 -42c0 -15.333 -3 -29.666 -9 -42.999s-14.333 -25 -25 -35s-22.834 -18 -36.501 -24s-28.5 -9 -44.5 -9s-30.833 3 -44.5 9
s-25.834 14 -36.501 24s-19 21.667 -25 35s-9 27.666 -9 42.999c0 14.667 3 28.667 9 42s14.333 25 25 35s22.834 18 36.501 24s28.5 9 44.5 9zM254.999 642.001c-12.667 0 -23.334 -4.66699 -32.001 -14s-13 -19.666 -13 -30.999c0 -12 4.33301 -22.833 13 -32.5
s19.334 -14.5 32.001 -14.5s23.334 4.83301 32.001 14.5s13 20.5 13 32.5c0 11.333 -4.33301 21.666 -13 30.999s-19.334 14 -32.001 14z" />
    <glyph glyph-name="Uhungarumlaut" unicode="&#x170;" horiz-adv-x="710" 
d="M355 124c51.333 0 89 16 113 48s36 73.667 36 125v403h144v-403c0 -44.667 -6.16699 -85.667 -18.5 -123s-30.666 -69.5 -54.999 -96.5s-54.833 -48 -91.5 -63s-79.334 -22.5 -128.001 -22.5s-91.334 7.5 -128.001 22.5s-67.167 36 -91.5 63s-42.666 59.167 -54.999 96.5
s-18.5 78.333 -18.5 123v403h144v-403c0 -51.333 12 -93 36 -125s61.667 -48 113 -48zM263 749l-86 41l85 162l112 -37zM463 749l-86 41l85 162l112 -37z" />
    <glyph glyph-name="uhungarumlaut" unicode="&#x171;" horiz-adv-x="510" 
d="M460 0l-120.001 0.000976562l-10 50c-12.667 -16 -29.167 -30 -49.5 -42s-48.166 -18 -83.499 -18c-44 0 -79.833 14 -107.5 42s-41.5 67.333 -41.5 118v250h130v-226c0 -22 4.83301 -38.5 14.5 -49.5s25.5 -16.5 47.5 -16.5s40.5 6.66699 55.5 20
s26.5 29.666 34.5 48.999v223h130v-400zM161.999 486.001l-86 45l85 180l112 -41zM361.999 486.001l-86 45l85 180l112 -41z" />
    <glyph glyph-name="Uogonek" unicode="&#x172;" horiz-adv-x="710" 
d="M355 124c51.333 0 89.002 16.002 113.002 48.002s36 73.667 36 125v403h144v-403c0 -76 -17.333 -140.167 -52 -192.5s-86.334 -86.833 -155.001 -103.5c-28 -20 -48.167 -38 -60.5 -54s-18.5 -29 -18.5 -39c0 -9.33301 3 -15.5 9 -18.5s14.333 -4.5 25 -4.5
c8.66699 0 19.167 1.33301 31.5 4s25.833 6.66699 40.5 12v-102c-14.667 -6.66699 -29.334 -11.5 -44.001 -14.5s-31 -4.5 -49 -4.5c-42 0 -73.833 9 -95.5 27s-32.5 41 -32.5 69c0 25.333 7.5 48 22.5 68s32.167 36.667 51.5 50
c-43.333 3.33301 -81.166 13.166 -113.499 29.499s-59.333 37.666 -81 63.999s-37.834 57.333 -48.501 93s-16 74.5 -16 116.5v403h144v-403c0 -51.333 12 -93 36 -125s61.667 -48 113 -48z" />
    <glyph glyph-name="uogonek" unicode="&#x173;" horiz-adv-x="510" 
d="M460 0l-16.999 -0.000976562c-27.333 -19.333 -46.833 -37 -58.5 -53s-17.5 -29 -17.5 -39c0 -9.33301 3 -15.5 9 -18.5s14.333 -4.5 25 -4.5c8.66699 0 19.167 1.33301 31.5 4s25.833 6.66699 40.5 12v-102c-14.667 -6.66699 -29.334 -11.5 -44.001 -14.5
s-31 -4.5 -49 -4.5c-42 0 -73.833 9 -95.5 27s-32.5 41 -32.5 69c0 14 2.5 27.167 7.5 39.5s11.667 23.833 20 34.5s17.666 20.334 27.999 29.001s20.833 16.334 31.5 23.001l-9 48c-12.667 -16 -29.167 -30 -49.5 -42s-48.166 -18 -83.499 -18c-44 0 -79.833 14 -107.5 42
s-41.5 67.333 -41.5 118v250h130v-226c0 -22 4.83301 -38.5 14.5 -49.5s25.5 -16.5 47.5 -16.5s40.5 6.66699 55.5 20s26.5 29.666 34.5 48.999v223h130v-400z" />
    <glyph glyph-name="Wcircumflex" unicode="&#x174;" horiz-adv-x="1012" 
d="M555 700l163 -431l138 431h150l-233 -700h-100l-167 435l-167 -435h-100l-233 700h150l140 -431l161 431h98zM678 809l-57 -64l-115 70l-114 -71l-58 65l172 118z" />
    <glyph glyph-name="wcircumflex" unicode="&#x175;" horiz-adv-x="618" 
d="M417 192l66 208h129l-141 -400h-92l-70 213l-70 -213h-92l-141 400h129l66 -208l69 208h78zM481 549l-57 -71l-115 78l-114 -79l-58 72l172 131z" />
    <glyph glyph-name="Ycircumflex" unicode="&#x176;" horiz-adv-x="606" 
d="M463 700h153l-241 -405v-295h-144v295l-241 405h153l160 -276zM475 809l-57 -64l-115 70l-114 -71l-58 65l172 118z" />
    <glyph glyph-name="ycircumflex" unicode="&#x177;" horiz-adv-x="449" 
d="M164 44l-174 356h132l102 -229l103 229h132l-320 -651h-116zM396 549l-57 -71l-115 78l-114 -79l-58 72l172 131z" />
    <glyph glyph-name="Ydieresis" unicode="&#x178;" horiz-adv-x="606" 
d="M463 700h153l-241 -405v-295h-144v295l-241 405h153l160 -276zM108 823c0 18.667 7.33301 34.5 22 47.5s32.667 19.5 54 19.5s39.166 -6.5 53.499 -19.5s21.5 -28.833 21.5 -47.5c0 -19.333 -7.16699 -35.666 -21.5 -48.999s-32.166 -20 -53.499 -20
s-39.333 6.66699 -54 20s-22 29.666 -22 48.999zM347 823c0 18.667 7.16699 34.5 21.5 47.5s32.166 19.5 53.499 19.5s39.333 -6.5 54 -19.5s22 -28.833 22 -47.5c0 -19.333 -7.33301 -35.666 -22 -48.999s-32.667 -20 -54 -20s-39.166 6.66699 -53.499 20
s-21.5 29.666 -21.5 48.999z" />
    <glyph glyph-name="Zacute" unicode="&#x179;" horiz-adv-x="584" 
d="M558 0v126h-352l342 468v106h-509v-126h330l-343 -468v-106h532zM428 865l-209 -119l-62 59l199 153z" />
    <glyph glyph-name="zacute" unicode="&#x17a;" horiz-adv-x="388" 
d="M29 296h171l-178 -213v-83h340v104h-186l179 213v83h-326v-104zM329 611l-209 -132l-62 66l199 169z" />
    <glyph glyph-name="Zdotaccent" unicode="&#x17b;" horiz-adv-x="584" 
d="M26 0v106l343 468h-330v126h509v-106l-342 -468h352v-126h-532zM212 825c0 20.667 7.66699 37.834 23 51.501s34.333 20.5 57 20.5s41.667 -6.83301 57 -20.5s23 -30.834 23 -51.501c0 -20 -7.66699 -37 -23 -51s-34.333 -21 -57 -21s-41.667 7 -57 21s-23 31 -23 51z
" />
    <glyph glyph-name="zdotaccent" unicode="&#x17c;" horiz-adv-x="388" 
d="M29 400h326v-83l-179 -213h186v-104h-340v83l178 213h-171v104zM114 577c0 22.667 7.66699 41.667 23 57s34.333 23 57 23s41.667 -7.66699 57 -23s23 -34.333 23 -57s-7.66699 -41.667 -23 -57s-34.333 -23 -57 -23s-41.667 7.66699 -57 23s-23 34.333 -23 57z" />
    <glyph glyph-name="Zcaron" unicode="&#x17d;" horiz-adv-x="584" 
d="M26 0v106l343 468h-330v126h509v-106l-342 -468h352v-126h-532zM292 744l-172 118l58 65l114 -71l115 70l57 -64z" />
    <glyph glyph-name="zcaron" unicode="&#x17e;" horiz-adv-x="388" 
d="M29 400h326v-83l-179 -213h186v-104h-340v83l178 213h-171v104zM194 475l-172 131l58 72l114 -79l115 78l57 -71z" />
    <glyph glyph-name="longs" unicode="&#x17f;" horiz-adv-x="326" 
d="M75 490c0 57.333 16.5 99.5 49.5 126.5s79.5 40.5 139.5 40.5c13.333 0 26.333 -0.5 39 -1.5s23.667 -2.16699 33 -3.5v-117c-9.33301 1.33301 -19.5 2.33301 -30.5 3s-22.167 1 -33.5 1c-23.333 0 -40.333 -4.16699 -51 -12.5s-16 -23.5 -16 -45.5v-481h-130v490z" />
    <glyph glyph-name="florin" unicode="&#x192;" 
d="M154 400h79l13 77c10.667 61.333 36.5 106.666 77.5 135.999s91.5 44 151.5 44c13.333 0 26.333 -0.5 39 -1.5s23.667 -2.16699 33 -3.5l-20 -117c-9.33301 1.33301 -19.333 2.33301 -30 3s-21.667 1 -33 1c-23.333 0 -43 -5 -59 -15s-25.667 -26 -29 -48l-13 -76h117
l-20 -118h-117l-60 -361c-10.667 -61.333 -36.5 -106.666 -77.5 -135.999s-91.5 -44 -151.5 -44c-13.333 0 -26.333 0.5 -39 1.5s-23.667 2.16699 -33 3.5l20 117c9.33301 -1.33301 19.333 -2.33301 30 -3s21.667 -1 33 -1c23.333 0 43 5 59 15s25.667 26 29 48l60 360h-79z
" />
    <glyph glyph-name="Aringacute" unicode="&#x1fa;" horiz-adv-x="718" 
d="M359 707c-16 0 -30.8311 -3 -44.498 -9s-25.834 -14 -36.501 -24s-19 -21.667 -25 -35s-9 -27.333 -9 -42c0 -12.667 2 -24.334 6 -35.001l-250 -562h152l57 131h300l57 -131h152l-250 562c4 10.667 6 22.334 6 35.001c0 14.667 -3 28.667 -9 42s-14.333 25 -25 35
s-22.834 18 -36.501 24s-28.5 9 -44.5 9zM455.002 256h-192l96 223zM359.002 642c12.667 0 23.334 -4.66699 32.001 -14s13 -19.666 13 -30.999c0 -12 -4.33301 -22.833 -13 -32.5s-19.334 -14.5 -32.001 -14.5s-23.334 4.83301 -32.001 14.5s-13 20.5 -13 32.5
c0 11.333 4.33301 21.666 13 30.999s19.334 14 32.001 14zM495.002 865l-209 -119l-62 59l199 153z" />
    <glyph glyph-name="aringacute" unicode="&#x1fb;" horiz-adv-x="451" 
d="M219 315c23.333 0 39.8369 -5.83496 49.5039 -17.502s14.5 -24.167 14.5 -37.5v-16h-74c-56.667 0 -101.334 -9.66699 -134.001 -29s-49 -51.666 -49 -96.999c0 -18 3.5 -34.5 10.5 -49.5s17 -28 30 -39s28.167 -19.5 45.5 -25.5s36.666 -9 57.999 -9
c30 0 53.667 5.33301 71 16s31.333 23.667 42 39l10 -50h110v259c0 21.333 -3.83301 41.166 -11.5 59.499s-19 34.333 -34 48s-33.5 24.334 -55.5 32.001s-47.667 11.5 -77 11.5c-28.667 0 -53.834 -3.83301 -75.501 -11.5s-40.167 -18 -55.5 -31s-27.833 -27.667 -37.5 -44
s-16.834 -33.166 -21.501 -50.499h118c4 12 11.5 22 22.5 30s25.5 12 43.5 12zM193.004 89.998c-14.667 0 -26.1689 3.33301 -34.502 10s-12.5 15.667 -12.5 27c0 10 4.83301 19 14.5 27s25.834 12 48.501 12h74v-21c0 -17.333 -9.16699 -30.833 -27.5 -40.5
s-39.166 -14.5 -62.499 -14.5zM234.002 676.998c-16 0 -30.833 -3 -44.5 -9s-25.834 -14 -36.501 -24s-19 -21.667 -25 -35s-9 -27.333 -9 -42c0 -15.333 3 -29.666 9 -42.999s14.333 -25 25 -35s22.834 -18 36.501 -24s28.5 -9 44.5 -9s30.833 3 44.5 9
s25.834 14 36.501 24s19 21.667 25 35s9 27.666 9 42.999c0 14.667 -3 28.667 -9 42s-14.333 25 -25 35s-22.834 18 -36.501 24s-28.5 9 -44.5 9zM234.002 611.998c12.667 0 23.334 -4.66699 32.001 -14s13 -19.666 13 -30.999c0 -12 -4.33301 -22.833 -13 -32.5
s-19.334 -14.5 -32.001 -14.5s-23.334 4.83301 -32.001 14.5s-13 20.5 -13 32.5c0 11.333 4.33301 21.666 13 30.999s19.334 14 32.001 14zM386.002 830.998l-209 -132l-62 66l199 169z" />
    <glyph glyph-name="AEacute" unicode="&#x1fc;" horiz-adv-x="1002" 
d="M962 577v123h-466l-498 -700h161l96 136h220v-136h487v123h-344v175h320v123h-320v156h344zM343 259l132 185v-185h-132zM637 865l-209 -119l-62 59l199 153z" />
    <glyph glyph-name="aeacute" unicode="&#x1fd;" horiz-adv-x="731" 
d="M697 170c1.33301 8 2.00195 14.502 2.00195 19.502v15.5c0 25.333 -5 50.166 -15 74.499s-24 46.166 -42 65.499s-39.833 35 -65.5 47s-54.167 18 -85.5 18c-26 0 -51.333 -5.16699 -76 -15.5s-43.667 -23.5 -57 -39.5c-12 16 -29.667 29.167 -53 39.5s-50 15.5 -80 15.5
c-28.667 0 -53.834 -3.83301 -75.501 -11.5s-40.167 -18 -55.5 -31s-27.833 -27.667 -37.5 -44s-16.834 -33.166 -21.501 -50.499h118c4 12 11.5 22 22.5 30s25.5 12 43.5 12c23.333 0 39.833 -5.83301 49.5 -17.5s14.5 -24.167 14.5 -37.5v-20h-74
c-56.667 0 -101.334 -9.16699 -134.001 -27.5s-49 -49.833 -49 -94.5c0 -18 3.5 -34.5 10.5 -49.5s17 -28 30 -39s28.167 -19.5 45.5 -25.5s36.666 -9 57.999 -9c24.667 0 46.167 2.33301 64.5 7s34.333 10.5 48 17.5s24.834 14.5 33.501 22.5s16 15.667 22 23
c18.667 -22.667 40.334 -40.834 65.001 -54.501s55 -20.5 91 -20.5c56 0 100.167 13.833 132.5 41.5s53.833 63.5 64.5 107.5h-119c-4.66699 -13.333 -13.667 -24.833 -27 -34.5s-29.333 -14.5 -48 -14.5c-29.333 0 -51.5 8 -66.5 24s-24.833 34.667 -29.5 56h296z
M499.002 310.002c22.667 0 41.167 -7.66699 55.5 -23s22.833 -31 25.5 -47h-173c6.66699 17.333 17.5 33.333 32.5 48s34.833 22 59.5 22zM193.002 90.002c-14.667 0 -26.168 3.33203 -34.501 9.99902s-12.5 15.667 -12.5 27c0 10 4.83301 19.667 14.5 29
s25.834 14 48.501 14h74v-20c0 -8.66699 -2.5 -16.667 -7.5 -24s-11.667 -13.666 -20 -18.999s-17.833 -9.5 -28.5 -12.5s-22 -4.5 -34 -4.5zM501.001 611.001l-209 -132l-62 66l199 169z" />
    <glyph glyph-name="Oslashacute" unicode="&#x1fe;" horiz-adv-x="754" 
d="M513 865l-209 -119l-62 59l199 153zM377 710c-47.333 0 -91.833 -9.50293 -133.5 -28.5029s-78 -44.833 -109 -77.5s-55.5 -70.834 -73.5 -114.501s-27 -90.167 -27 -139.5c0 -56 10.833 -107.667 32.5 -155s51.5 -87.666 89.5 -120.999l-69 -120l89 -54l68 119
c42.667 -18.667 87 -28 133 -28c47.333 0 91.833 9.33301 133.5 28s78 44.334 109 77.001s55.5 70.834 73.5 114.501s27 90.167 27 139.5c0 56 -11.333 108 -34 156s-53 88.667 -91 122l72 125l-92 47l-68 -117c-20 8.66699 -40.833 15.334 -62.5 20.001s-44.167 7 -67.5 7z
M575 349.997c0 -32 -5.16699 -61.668 -15.5 -89.001s-24.333 -51.166 -42 -71.499s-38.5 -36.333 -62.5 -48s-50 -17.5 -78 -17.5c-23.333 0 -45 4 -65 12l211 368c16 -20 28.667 -43.167 38 -69.5s14 -54.5 14 -84.5zM377 576.996c22 0 43 -4.00098 63 -12.001l-212 -366
c-15.333 19.333 -27.333 41.833 -36 67.5s-13 53.5 -13 83.5c0 32 5.16699 61.667 15.5 89s24.333 51.333 42 72s38.5 36.834 62.5 48.501s50 17.5 78 17.5z" />
    <glyph glyph-name="oslashacute" unicode="&#x1ff;" horiz-adv-x="482" 
d="M48 -71l57.999 -28.999l60 103c24.667 -8.66699 49.667 -13 75 -13c30.667 0 58.834 5.5 84.501 16.5s47.667 26 66 45s32.666 41.333 42.999 67s15.5 52.834 15.5 81.501c0 32.667 -6.66699 63.167 -20 91.5s-31.666 52.166 -54.999 71.499l58 100l-57 29l-56 -97
c-24 10 -50.333 15 -79 15c-30.667 0 -58.834 -5.5 -84.501 -16.5s-47.667 -26 -66 -45s-32.666 -41.333 -42.999 -67s-15.5 -52.834 -15.5 -81.501c0 -34 6.83301 -65.333 20.5 -94s32.5 -52.667 56.5 -72zM159.999 200.001c0 29.333 7.5 52.333 22.5 69s34.5 25 58.5 25
c3.33301 0 6.33301 -0.166992 9 -0.5s5.66699 -0.833008 9 -1.5l-86 -148c-8.66699 16 -13 34.667 -13 56zM321.999 200.001c0 -29.333 -7.5 -52.334 -22.5 -69.001s-34.5 -25 -58.5 -25c-6.66699 0 -11.667 0.333008 -15 1l84 145c8 -15.333 12 -32.666 12 -51.999z
M376.999 611l-209 -132l-62 66l199 169z" />
    <glyph glyph-name="Scommaaccent" unicode="&#x218;" horiz-adv-x="564" 
d="M293 121c12.667 0 25.166 1.33496 37.499 4.00195s23.333 7 33 13s17.5 13.5 23.5 22.5s9 20.167 9 33.5c0 14 -4 26.167 -12 36.5s-19 19.666 -33 27.999s-30.333 15.833 -49 22.5l-59 21c-30 10.667 -58 21.5 -84 32.5s-48.5 24.333 -67.5 40s-34 34.5 -45 56.5
s-16.5 49.333 -16.5 82c0 24.667 5.16699 48.834 15.5 72.501s25.666 44.834 45.999 63.501s46 33.5 77 44.5s67.5 16.5 109.5 16.5c30.667 0 60 -4.5 88 -13.5s53.333 -22.333 76 -40s41.834 -39.5 57.501 -65.5s26.5 -55.667 32.5 -89h-144
c-6 25.333 -18.833 44.666 -38.5 57.999s-43.5 20 -71.5 20c-37.333 0 -64.333 -6.5 -81 -19.5s-25 -28.5 -25 -46.5c0 -12 3.33301 -22.5 10 -31.5s15.5 -17 26.5 -24s24 -13.333 39 -19s30.5 -11.167 46.5 -16.5c35.333 -12 67.833 -24.333 97.5 -37
s55.334 -27.334 77.001 -44.001s38.667 -36.334 51 -59.001s18.5 -50 18.5 -82c0 -34 -7 -64 -21 -90s-32.5 -47.833 -55.5 -65.5s-49.667 -31.167 -80 -40.5s-61.833 -14 -94.5 -14c-73.333 0 -133.333 18 -180 54s-76.334 87.667 -89.001 155h144
c6.66699 -28.667 20.834 -49 42.501 -61s51.167 -18 88.5 -18zM353.999 -112.998l-118 -214l-82 29l77 222z" />
    <glyph glyph-name="scommaaccent" unicode="&#x219;" horiz-adv-x="374" 
d="M185 95c13.333 0 24.666 1.66895 33.999 5.00195s14 9.66602 14 18.999c0 11.333 -6.33301 19 -19 23s-29 8.66699 -49 14c-19.333 5.33301 -37.333 11.333 -54 18s-31.334 15 -44.001 25s-22.667 22.167 -30 36.5s-11 31.833 -11 52.5c0 34.667 13.667 63.667 41 87
s65 35 113 35c26 0 49 -3.83301 69 -11.5s36.833 -17.834 50.5 -30.501s24.5 -27 32.5 -43s13 -32.333 15 -49h-118c-6 20 -21 30 -45 30c-11.333 0 -20.333 -2 -27 -6s-10 -9.33301 -10 -16c0 -8.66699 6 -15 18 -19s30.667 -9.33301 56 -16
c14.667 -4 29.834 -9.16699 45.501 -15.5s30 -14.833 43 -25.5s23.667 -23.5 32 -38.5s12.5 -33.167 12.5 -54.5c0 -20 -4.5 -37.667 -13.5 -53s-21 -28.333 -36 -39s-32.5 -18.667 -52.5 -24s-41 -8 -63 -8c-48.667 0 -87.667 12 -117 36s-48 57 -56 99h116
c4.66699 -20.667 22.334 -31 53.001 -31zM267 -112.998l-118 -214l-82 29l77 222z" />
    <glyph glyph-name="uni021A" unicode="&#x21a;" horiz-adv-x="576" 
d="M566 568h-206v-568h-144v568h-206v132h556v-132zM357 -113l-118 -214l-82 29l77 222z" />
    <glyph glyph-name="uni021B" unicode="&#x21b;" horiz-adv-x="336" 
d="M2 400h75.002l20 142h107v-142h111v-118h-111v-128c0 -17.333 4.16699 -29.333 12.5 -36s22.166 -10 41.499 -10c16.667 0 36 2 58 6v-111c-16.667 -4.66699 -32.334 -7.83398 -47.001 -9.50098s-29.667 -2.5 -45 -2.5c-19.333 0 -38 2.33301 -56 7
s-34 12.334 -48 23.001s-25.167 25 -33.5 43s-12.5 40.667 -12.5 68v150h-72v118zM268.002 -113l-118 -214l-82 29l77 222z" />
    <glyph glyph-name="dotlessj" unicode="&#x237;" horiz-adv-x="246" 
d="M188 -80c0 -120 -56.667 -180 -170 -180c-11.333 0 -22 0.333008 -32 1s-21 2 -33 4v116c10 -1.33301 20 -2.5 30 -3.5s18.667 -1.5 26 -1.5c32.667 0 49 20.667 49 62v482h130v-480z" />
    <glyph glyph-name="circumflex" unicode="&#x2c6;" horiz-adv-x="320" 
d="M332 549l-57 -71l-115 78l-114 -79l-58 72l172 131z" />
    <glyph glyph-name="caron" unicode="&#x2c7;" horiz-adv-x="320" 
d="M160 475l-172 131l58 72l114 -79l115 78l57 -71z" />
    <glyph glyph-name="uni02C9" unicode="&#x2c9;" horiz-adv-x="320" 
d="M0 600h320v-103h-320v103z" />
    <glyph glyph-name="breve" unicode="&#x2d8;" horiz-adv-x="320" 
d="M160 593c13.333 0 26 4.33301 38 13s19.333 21 22 37h108c-0.666992 -24 -5.66699 -45.333 -15 -64s-21.833 -34.667 -37.5 -48s-33.5 -23.5 -53.5 -30.5s-40.667 -10.5 -62 -10.5s-42 3.5 -62 10.5s-37.833 17.167 -53.5 30.5s-28.167 29.333 -37.5 48
s-14.333 40 -15 64h108c2.66699 -16 10 -28.333 22 -37s24.667 -13 38 -13z" />
    <glyph glyph-name="dotaccent" unicode="&#x2d9;" horiz-adv-x="320" 
d="M80 577c0 22.667 7.66699 41.667 23 57s34.333 23 57 23s41.667 -7.66699 57 -23s23 -34.333 23 -57s-7.66699 -41.667 -23 -57s-34.333 -23 -57 -23s-41.667 7.66699 -57 23s-23 34.333 -23 57z" />
    <glyph glyph-name="ring" unicode="&#x2da;" horiz-adv-x="320" 
d="M160 707c16 0 30.833 -3 44.5 -9s25.834 -14 36.501 -24s19 -21.667 25 -35s9 -27.333 9 -42c0 -15.333 -3 -29.666 -9 -42.999s-14.333 -25 -25 -35s-22.834 -18 -36.501 -24s-28.5 -9 -44.5 -9s-30.833 3 -44.5 9s-25.834 14 -36.501 24s-19 21.667 -25 35
s-9 27.666 -9 42.999c0 14.667 3 28.667 9 42s14.333 25 25 35s22.834 18 36.501 24s28.5 9 44.5 9zM160 642c-12.667 0 -23.334 -4.66699 -32.001 -14s-13 -19.666 -13 -30.999c0 -12 4.33301 -22.833 13 -32.5s19.334 -14.5 32.001 -14.5s23.334 4.83301 32.001 14.5
s13 20.5 13 32.5c0 11.333 -4.33301 21.666 -13 30.999s-19.334 14 -32.001 14z" />
    <glyph glyph-name="ogonek" unicode="&#x2db;" horiz-adv-x="320" 
d="M233 3c-28.667 -20.667 -49.3311 -39.1699 -61.998 -55.5029s-19 -29.5 -19 -39.5c0 -9.33301 3 -15.5 9 -18.5s14.333 -4.5 25 -4.5c8.66699 0 19.167 1.33301 31.5 4s25.833 6.66699 40.5 12v-102c-14.667 -6.66699 -29.334 -11.5 -44.001 -14.5s-31 -4.5 -49 -4.5
c-42 0 -73.833 9 -95.5 27s-32.5 41 -32.5 69c0 14 2.5 27.333 7.5 40s11.833 24.334 20.5 35.001s18.167 20.334 28.5 29.001s21.166 16.334 32.499 23.001h107z" />
    <glyph glyph-name="tilde" unicode="&#x2dc;" horiz-adv-x="320" 
d="M237 491c-14.667 0 -27.8301 2.83301 -39.4971 8.5s-22.667 11.667 -33 18l-30.5 18c-10 5.66699 -20.667 8.5 -32 8.5c-14.667 0 -26.667 -6 -36 -18s-16 -26.667 -20 -44l-76 55c11.333 28 27.166 52 47.499 72s43.166 30 68.499 30c14 0 27.167 -2.83301 39.5 -8.5
s24 -11.667 35 -18l32.5 -18c10.667 -5.66699 22 -8.5 34 -8.5c10.667 0 20.167 6 28.5 18s14.5 26.667 18.5 44l76 -55c-11.333 -28 -26.833 -52 -46.5 -72s-41.834 -30 -66.501 -30z" />
    <glyph glyph-name="hungarumlaut" unicode="&#x2dd;" horiz-adv-x="320" 
d="M85 486l-86 45l85 180l112 -41zM285 486l-86 45l85 180l112 -41z" />
    <glyph glyph-name="uni0394" unicode="&#x394;" horiz-adv-x="683" 
d="M342 517l-78.5 -191l-84.5 -203h325zM30 0v87l259 613h105l259 -613v-87h-623z" />
    <glyph glyph-name="uni03A9" unicode="&#x3a9;" horiz-adv-x="762" 
d="M380 710c46.667 0 90 -7.5 130 -22.5s74.667 -36.833 104 -65.5s52.5 -63.334 69.5 -104.001s25.5 -87 25.5 -139c0 -24 -3.33301 -49.167 -10 -75.5s-15.667 -51.833 -27 -76.5s-24.166 -47 -38.499 -67s-29.5 -35.333 -45.5 -46h134v-114h-299v103
c21.333 12 41.166 27.333 59.499 46s34.166 39.834 47.499 63.501s23.833 49.334 31.5 77.001s11.5 56.167 11.5 85.5c0 30.667 -4.83301 58.834 -14.5 84.501s-23 47.834 -40 66.501s-37.167 33.167 -60.5 43.5s-49 15.5 -77 15.5s-53.833 -5.16699 -77.5 -15.5
s-44 -24.833 -61 -43.5s-30.167 -40.834 -39.5 -66.501s-14 -53.834 -14 -84.501c0 -29.333 3.83301 -57.833 11.5 -85.5s18.167 -53.334 31.5 -77.001s29.166 -44.834 47.499 -63.501s38.166 -34 59.499 -46v-103h-299v114h134c-16 10.667 -31.167 26 -45.5 46
s-27.166 42.333 -38.499 67s-20.333 50.167 -27 76.5s-10 51.5 -10 75.5c0 52 8.33301 98.333 25 139s39.834 75.334 69.501 104.001s64.334 50.5 104.001 65.5s82.5 22.5 128.5 22.5z" />
    <glyph glyph-name="uni03BC" unicode="&#x3bc;" horiz-adv-x="512" 
d="M50 400h129.998v-233c0.666992 -19.333 5.83398 -34 15.501 -44s25.167 -15 46.5 -15c22 0 40.5 6.66699 55.5 20s26.5 29.666 34.5 48.999v223h130v-400h-120l-10 50c-10.667 -17.333 -23.167 -31.666 -37.5 -42.999s-32.166 -17 -53.499 -17c-26.667 0 -47 6 -61 18
v-258h-130v650z" />
    <glyph glyph-name="pi" unicode="&#x3c0;" horiz-adv-x="596" 
d="M203 0h-123l53 282c-15.333 -3.33301 -31.833 -7.5 -49.5 -12.5s-35.5 -11.167 -53.5 -18.5v120c26 9.33301 52 16.5 78 21.5s54 7.5 84 7.5h374v-111h-89v-289h-123v289h-97z" />
    <glyph glyph-name="Wgrave" unicode="&#x1e80;" horiz-adv-x="1012" 
d="M457 700l-161 -431l-140 431h-150l233 -700h100l167 435l167 -435h100l233 700h-150l-138 -431l-163 431h-98zM443 958l199 -153l-62 -59l-209 119z" />
    <glyph glyph-name="wgrave" unicode="&#x1e81;" horiz-adv-x="618" 
d="M348 400h-78l-69 -208l-66 208h-129l141 -400h92l70 213l70 -213h92l141 400h-129l-66 -208zM245 714l199 -169l-62 -66l-209 132z" />
    <glyph glyph-name="Wacute" unicode="&#x1e82;" horiz-adv-x="1012" 
d="M457 700l-161 -431l-140 431h-150l233 -700h100l167 435l167 -435h100l233 700h-150l-138 -431l-163 431h-98zM642 865l-209 -119l-62 59l199 153z" />
    <glyph glyph-name="wacute" unicode="&#x1e83;" horiz-adv-x="618" 
d="M348 400h-78l-69 -208l-66 208h-129l141 -400h92l70 213l70 -213h92l141 400h-129l-66 -208zM444 611l-209 -132l-62 66l199 169z" />
    <glyph glyph-name="Wdieresis" unicode="&#x1e84;" horiz-adv-x="1012" 
d="M555 700l163 -431l138 431h150l-233 -700h-100l-167 435l-167 -435h-100l-233 700h150l140 -431l161 431h98zM311 823c0 18.667 7.33301 34.5 22 47.5s32.667 19.5 54 19.5s39.166 -6.5 53.499 -19.5s21.5 -28.833 21.5 -47.5c0 -19.333 -7.16699 -35.666 -21.5 -48.999
s-32.166 -20 -53.499 -20s-39.333 6.66699 -54 20s-22 29.666 -22 48.999zM550 823c0 18.667 7.16699 34.5 21.5 47.5s32.166 19.5 53.499 19.5s39.333 -6.5 54 -19.5s22 -28.833 22 -47.5c0 -19.333 -7.33301 -35.666 -22 -48.999s-32.667 -20 -54 -20
s-39.166 6.66699 -53.499 20s-21.5 29.666 -21.5 48.999z" />
    <glyph glyph-name="wdieresis" unicode="&#x1e85;" horiz-adv-x="618" 
d="M417 192l66 208h129l-141 -400h-92l-70 213l-70 -213h-92l-141 400h129l66 -208l69 208h78zM114 573c0 21.333 7.33301 39.166 22 53.499s32.667 21.5 54 21.5s39.166 -7.16699 53.499 -21.5s21.5 -32.166 21.5 -53.499s-7.16699 -39.333 -21.5 -54
s-32.166 -22 -53.499 -22s-39.333 7.33301 -54 22s-22 32.667 -22 54zM353 573c0 21.333 7.16699 39.166 21.5 53.499s32.166 21.5 53.499 21.5s39.333 -7.16699 54 -21.5s22 -32.166 22 -53.499s-7.33301 -39.333 -22 -54s-32.667 -22 -54 -22s-39.166 7.33301 -53.499 22
s-21.5 32.667 -21.5 54z" />
    <glyph glyph-name="Ygrave" unicode="&#x1ef2;" horiz-adv-x="606" 
d="M303 424l-160 276h-153l241 -405v-295h144v295l241 405h-153zM240 958l199 -153l-62 -59l-209 119z" />
    <glyph glyph-name="ygrave" unicode="&#x1ef3;" horiz-adv-x="449" 
d="M23 -251h116l320 651h-132l-103 -229l-102 229h-132l174 -356zM161 714l199 -169l-62 -66l-209 132z" />
    <glyph glyph-name="endash" unicode="&#x2013;" horiz-adv-x="458" 
d="M0 375h458v-120h-458v120z" />
    <glyph glyph-name="emdash" unicode="&#x2014;" horiz-adv-x="772" 
d="M60 375h652v-120h-652v120z" />
    <glyph glyph-name="quoteleft" unicode="&#x2018;" horiz-adv-x="256" 
d="M33 502l118 214l82 -29l-77 -222z" />
    <glyph glyph-name="quoteright" unicode="&#x2019;" horiz-adv-x="256" 
d="M223 679l-118 -214l-82 29l77 222z" />
    <glyph glyph-name="quotesinglbase" unicode="&#x201a;" horiz-adv-x="256" 
d="M223 52l-118 -214l-82 29l77 222z" />
    <glyph glyph-name="quotedblleft" unicode="&#x201c;" horiz-adv-x="452" 
d="M229 502l118 214l82 -29l-77 -222zM33 502l118 214l82 -29l-77 -222z" />
    <glyph glyph-name="quotedblright" unicode="&#x201d;" horiz-adv-x="452" 
d="M223 679l-118 -214l-82 29l77 222zM419 679l-118 -214l-82 29l77 222z" />
    <glyph glyph-name="quotedblbase" unicode="&#x201e;" horiz-adv-x="452" 
d="M223 52l-118 -214l-82 29l77 222zM419 52l-118 -214l-82 29l77 222z" />
    </font>
</defs>
</svg>
