<?xml version="1.0" standalone="no"?>
<!DOCTYPE svg PUBLIC "-//W3C//DTD SVG 1.1//EN" "http://www.w3.org/Graphics/SVG/1.1/DTD/svg11.dtd" >
<svg>
<metadata>
Created by FontForge 20090914 at Tue Jul 14 13:21:24 2015
 By www-data
Copyright &#194;&#169; 2013 by Stawix Ruecha. All rights reserved.
</metadata>
<defs>
<font id="SoinSansPro-Light" horiz-adv-x="590" >
  <font-face 
    font-family="Soin Sans Pro Light"
    font-weight="300"
    font-stretch="normal"
    units-per-em="1000"
    panose-1="2 0 0 0 0 0 0 0 0 0"
    ascent="750"
    descent="-250"
    x-height="400"
    cap-height="700"
    bbox="-50 -308.003 1176 919"
    underline-thickness="36"
    underline-position="-64"
    unicode-range="U+000D-U+FB02"
  />
<missing-glyph horiz-adv-x="500" 
d="M0 700h500v-700h-500v700zM420 650h-340l170 -255zM450 95v510l-170 -255zM420 50l-170 255l-170 -255h340zM50 95l170 255l-170 255v-510z" />
    <glyph glyph-name="fi" unicode="fi" horiz-adv-x="491" 
d="M370 365h-230v-365h-41v365h-79v35h79v77c0 56 14.667 100.167 44 132.5s73.333 48.5 132 48.5c12 0 24.5 -0.5 37.5 -1.5s22.167 -2.16699 27.5 -3.5v-37c-5.33301 1.33301 -14.333 2.5 -27 3.5s-24.667 1.5 -36 1.5c-49.333 0 -84.5 -12.5 -105.5 -37.5
s-31.5 -60.5 -31.5 -106.5v-77h271v-400h-41v365z" />
    <glyph glyph-name="fl" unicode="fl" horiz-adv-x="487" 
d="M140 400l128.003 0.000976562v-35h-128v-365h-41v365h-79v35h79v77c0 55.333 15.333 99.333 46 132s78 49 142 49c23.333 0 45.666 -1.33301 66.999 -4s39.666 -6 54.999 -10v-644h-41v615c-10.667 1.33301 -23.334 2.66602 -38.001 3.99902s-29 2 -43 2
c-54 0 -92 -12.5 -114 -37.5s-33 -60.5 -33 -106.5v-77z" />
    <glyph glyph-name="f_f_j" unicode="ffj" horiz-adv-x="756" 
d="M414 400h271.001v-497c0 -53.333 -11.167 -93.833 -33.5 -121.5s-56.166 -41.5 -101.499 -41.5c-11.333 0 -23.333 1 -36 3v37c5.33301 -1.33301 10.5 -2 15.5 -2h14.5c36 0 61.667 11 77 33s23 52.667 23 92v462h-230v-365h-41v365h-233v-365h-41v365h-79v35h79v85
c0 56 13.167 98.667 39.5 128s66.5 44 120.5 44c7.33301 0 14.666 -0.333008 21.999 -1s13.666 -1.66699 18.999 -3v-37c-10 2.66699 -22 4 -36 4c-44 0 -75.667 -11 -95 -33s-29 -56 -29 -102v-85h233v77c0 56 14.667 100.167 44 132.5s73.333 48.5 132 48.5
c12 0 24.5 -0.5 37.5 -1.5s22.167 -2.16699 27.5 -3.5v-37c-5.33301 1.33301 -14.333 2.5 -27 3.5s-24.667 1.5 -36 1.5c-49.333 0 -84.5 -12.5 -105.5 -37.5s-31.5 -60.5 -31.5 -106.5v-77z" />
    <glyph glyph-name="f_f_i" unicode="ffi" horiz-adv-x="765" 
d="M373 477c0 56 14.6689 100.167 44.002 132.5s73.333 48.5 132 48.5c12 0 24.5 -0.5 37.5 -1.5s22.167 -2.16699 27.5 -3.5v-37c-5.33301 1.33301 -14.333 2.5 -27 3.5s-24.667 1.5 -36 1.5c-49.333 0 -84.5 -12.5 -105.5 -37.5s-31.5 -60.5 -31.5 -106.5v-77h271v-400
h-41v365h-230v-365h-41v365h-233v-365h-41v365h-79v35h79v85c0 56 13.167 98.667 39.5 128s66.5 44 120.5 44c7.33301 0 14.666 -0.333008 21.999 -1s13.666 -1.66699 18.999 -3v-37c-10 2.66699 -22 4 -36 4c-44 0 -75.667 -11 -95 -33s-29 -56 -29 -102v-85h233v77z" />
    <glyph glyph-name="f_f_l" unicode="ffl" horiz-adv-x="761" 
d="M414 400l128.005 0.000976562v-35h-128v-365h-41v365h-233v-365h-41v365h-79v35h79v85c0 56 13.167 98.667 39.5 128s66.5 44 120.5 44c7.33301 0 14.666 -0.333008 21.999 -1s13.666 -1.66699 18.999 -3v-37c-10 2.66699 -22 4 -36 4c-44 0 -75.667 -11 -95 -33
s-29 -56 -29 -102v-85h233v77c0 55.333 15.333 99.333 46 132s78 49 142 49c23.333 0 45.666 -1.33301 66.999 -4s39.666 -6 54.999 -10v-644h-41v615c-10.667 1.33301 -23.334 2.66602 -38.001 3.99902s-29 2 -43 2c-54 0 -92 -12.5 -114 -37.5s-33 -60.5 -33 -106.5v-77z
" />
    <glyph glyph-name="f_f_b" unicode="ffb" horiz-adv-x="1081" 
d="M414 400h128.005v-35h-128v-365h-41v365h-233v-365h-41v365h-79v35h79v85c0 56 13.167 98.667 39.5 128s66.5 44 120.5 44c7.33301 0 14.666 -0.333008 21.999 -1s13.666 -1.66699 18.999 -3v-37c-10 2.66699 -22 4 -36 4c-44 0 -75.667 -11 -95 -33s-29 -56 -29 -102
v-85h233v77c0 55.333 15 99.333 45 132s77 49 141 49c23.333 0 45.666 -1.33301 66.999 -4s39.666 -6 54.999 -10v-314c16.667 24 38.5 43.333 65.5 58s57.833 22 92.5 22c30 0 57 -5.33301 81 -16s44.5 -25.167 61.5 -43.5s30.167 -40.166 39.5 -65.499
s14 -52.666 14 -81.999c0 -30.667 -4.5 -58.834 -13.5 -84.501s-22 -48 -39 -67s-37.667 -33.833 -62 -44.5s-51.833 -16 -82.5 -16c-34 0 -65 7.16699 -93 21.5s-49.333 34.5 -64 60.5l-2 -73h-39v615c-10.667 1.33301 -23.334 2.66602 -38.001 3.99902s-29 2 -43 2
c-54 0 -91.667 -12.5 -113 -37.5s-32 -60.5 -32 -106.5v-77zM839.005 28c24 0 45.667 4.49805 65 13.498s35.666 21.5 48.999 37.5s23.5 34.667 30.5 56s10.5 44 10.5 68c0 22.667 -3.66699 44.334 -11 65.001s-17.833 38.834 -31.5 54.501s-30 28 -49 37
s-40.167 13.5 -63.5 13.5c-25.333 0 -48 -4.33301 -68 -13s-36.833 -20.667 -50.5 -36s-24 -33.333 -31 -54s-10.5 -43 -10.5 -67s3.66699 -46.667 11 -68s17.833 -40 31.5 -56s30.334 -28.5 50.001 -37.5s42.167 -13.5 67.5 -13.5z" />
    <glyph glyph-name="f_f_h" unicode="ffh" horiz-adv-x="1066" 
d="M414 400l128.005 -0.000976562v-35h-128v-365h-41v365h-233v-365h-41v365h-79v35h79v85c0 56 13.167 98.667 39.5 128s66.5 44 120.5 44c7.33301 0 14.666 -0.333008 21.999 -1s13.666 -1.66699 18.999 -3v-37c-10 2.66699 -22 4 -36 4c-44 0 -75.667 -11 -95 -33
s-29 -56 -29 -102v-85h233v77c0 55.333 15 99.333 45 132s77 49 141 49c23.333 0 45.666 -1.33301 66.999 -4s39.666 -6 54.999 -10v-299c6.66699 6.66699 15 13.834 25 21.501s21.333 14.834 34 21.501s27 12 43 16s33.667 6 53 6c50 0 89.167 -15.5 117.5 -46.5
s42.5 -73.167 42.5 -126.5v-237h-41v237c0 42 -10.5 75.167 -31.5 99.5s-51.5 36.5 -91.5 36.5c-18 0 -34.833 -2.33301 -50.5 -7s-29.667 -10.5 -42 -17.5s-23.5 -14.833 -33.5 -23.5s-18.333 -17 -25 -25v-300h-41v615c-10.667 1.33301 -23.334 2.66602 -38.001 3.99902
s-29 2 -43 2c-54 0 -91.667 -12.5 -113 -37.5s-32 -60.5 -32 -106.5v-77z" />
    <glyph glyph-name="f_f_k" unicode="ffk" horiz-adv-x="990" 
d="M373 477c0 55.333 15.0049 99.334 45.0049 132.001s77 49 141 49c23.333 0 45.666 -1.33301 66.999 -4s39.666 -6 54.999 -10v-420l217 176h62l-190 -154l210 -246h-54l-188 223l-57 -46v-177h-41v615c-10.667 1.33301 -23.334 2.66602 -38.001 3.99902s-29 2 -43 2
c-54 0 -91.667 -12.5 -113 -37.5s-32 -60.5 -32 -106.5v-77h128v-35h-128v-365h-41v365h-233v-365h-41v365h-79v35h79v85c0 56 13.167 98.667 39.5 128s66.5 44 120.5 44c7.33301 0 14.666 -0.333008 21.999 -1s13.666 -1.66699 18.999 -3v-37c-10 2.66699 -22 4 -36 4
c-44 0 -75.667 -11 -95 -33s-29 -56 -29 -102v-85h233v77z" />
    <glyph glyph-name="f_j" unicode="fj" horiz-adv-x="491" 
d="M140 400h270.999v-497c0 -53.333 -11.167 -93.833 -33.5 -121.5s-56.166 -41.5 -101.499 -41.5c-11.333 0 -23.333 1 -36 3v37c5.33301 -1.33301 10.5 -2 15.5 -2h14.5c36 0 61.667 11 77 33s23 52.667 23 92v462h-230v-365h-41v365h-79v35h79v77
c0 56 14.667 100.167 44 132.5s73.333 48.5 132 48.5c12 0 24.5 -0.5 37.5 -1.5s22.167 -2.16699 27.5 -3.5v-37c-5.33301 1.33301 -14.333 2.5 -27 3.5s-24.667 1.5 -36 1.5c-49.333 0 -84.5 -12.5 -105.5 -37.5s-31.5 -60.5 -31.5 -106.5v-77z" />
    <glyph glyph-name="f_t" unicode="ft" horiz-adv-x="580" 
d="M140 0l-40.9971 0.00195312v365h-79v35h79v85c0 56 12 98.667 36 128s62 44 114 44c7.33301 0 14.666 -0.333008 21.999 -1s13.666 -1.66699 18.999 -3v-37c-10 2.66699 -22 4 -36 4c-42 0 -71.5 -11 -88.5 -33s-25.5 -56 -25.5 -102v-85h231l10 142h31v-142h132v-35
h-132v-249c0 -18 1.83301 -32.833 5.5 -44.5s8.83398 -20.834 15.501 -27.501s15 -11.167 25 -13.5s21 -3.5 33 -3.5c14.667 0 26.667 0.666992 36 2s17.666 3 24.999 5v-34c-16 -6 -36.333 -9 -61 -9c-17.333 0 -33.333 2 -48 6s-27.334 10.667 -38.001 20
s-19 22.166 -25 38.499s-9 36.5 -9 60.5v249h-231v-365z" />
    <glyph glyph-name="t_t" unicode="tt" horiz-adv-x="596" 
d="M12 400l89.002 0.00390625l10 142h31v-142h245l10 142h31v-142h132v-35h-132v-249c0 -18 1.83301 -32.833 5.5 -44.5s8.83398 -20.834 15.501 -27.501s15 -11.167 25 -13.5s21 -3.5 33 -3.5c14.667 0 26.667 0.666992 36 2s17.666 3 24.999 5v-34
c-16 -6 -36.333 -9 -61 -9c-17.333 0 -33.333 2 -48 6s-27.334 10.667 -38.001 20s-19 22.166 -25 38.499s-9 36.5 -9 60.5v249h-245v-249c0 -18 1.83301 -32.833 5.5 -44.5s8.83398 -20.834 15.501 -27.501s15 -11.167 25 -13.5s21 -3.5 33 -3.5
c14.667 0 26.667 0.666992 36 2s17.666 3 24.999 5v-34c-16 -6 -36.333 -9 -61 -9c-17.333 0 -33.333 2 -48 6s-27.334 10.667 -38.001 20s-19 22.166 -25 38.499s-9 36.5 -9 60.5v249h-89v35z" />
    <glyph glyph-name="f_f" unicode="ff" horiz-adv-x="564" 
d="M140 0h-40.9961v365h-79v35h79v85c0 56 13.167 98.667 39.5 128s66.5 44 120.5 44c7.33301 0 14.666 -0.333008 21.999 -1s13.666 -1.66699 18.999 -3v-37c-10 2.66699 -22 4 -36 4c-44 0 -75.667 -11 -95 -33s-29 -56 -29 -102v-85h233v85c0 56 13.167 98.667 39.5 128
s66.5 44 120.5 44c7.33301 0 14.666 -0.333008 21.999 -1s13.666 -1.66699 18.999 -3v-37c-10 2.66699 -22 4 -36 4c-44 0 -75.667 -11 -95 -33s-29 -56 -29 -102v-85h128v-35h-128v-365h-41v365h-233v-365z" />
    <glyph glyph-name="f_b" unicode="fb" horiz-adv-x="807" 
d="M99 477c0 55.333 15.0029 99.333 45.0029 132s77 49 141 49c23.333 0 45.666 -1.33301 66.999 -4s39.666 -6 54.999 -10v-314c16.667 24 38.5 43.333 65.5 58s57.833 22 92.5 22c30 0 57 -5.33301 81 -16s44.5 -25.167 61.5 -43.5s30.167 -40.166 39.5 -65.499
s14 -52.666 14 -81.999c0 -30.667 -4.5 -58.834 -13.5 -84.501s-22 -48 -39 -67s-37.667 -33.833 -62 -44.5s-51.833 -16 -82.5 -16c-34 0 -65 7.16699 -93 21.5s-49.333 34.5 -64 60.5l-2 -73h-39v615c-10.667 1.33301 -23.334 2.66602 -38.001 3.99902s-29 2 -43 2
c-54 0 -91.667 -12.5 -113 -37.5s-32 -60.5 -32 -106.5v-77h128v-35h-128v-365h-41v365h-79v35h79v77zM565.003 28c24 0 45.667 4.49805 65 13.498s35.666 21.5 48.999 37.5s23.5 34.667 30.5 56s10.5 44 10.5 68c0 22.667 -3.66699 44.334 -11 65.001
s-17.833 38.834 -31.5 54.501s-30 28 -49 37s-40.167 13.5 -63.5 13.5c-25.333 0 -48 -4.33301 -68 -13s-36.833 -20.667 -50.5 -36s-24 -33.333 -31 -54s-10.5 -43 -10.5 -67s3.66699 -46.667 11 -68s17.833 -40 31.5 -56s30.334 -28.5 50.001 -37.5
s42.167 -13.5 67.5 -13.5z" />
    <glyph glyph-name="f_h" unicode="fh" horiz-adv-x="792" 
d="M407 345c6.66699 6.66699 15.0029 13.833 25.0029 21.5s21.333 14.834 34 21.501s27 12 43 16s33.667 6 53 6c50 0 89.167 -15.5 117.5 -46.5s42.5 -73.167 42.5 -126.5v-237h-41v237c0 42 -10.5 75.167 -31.5 99.5s-51.5 36.5 -91.5 36.5
c-18 0 -34.833 -2.33301 -50.5 -7s-29.667 -10.5 -42 -17.5s-23.5 -14.833 -33.5 -23.5s-18.333 -17 -25 -25v-300h-41v615c-10.667 1.33301 -23.334 2.66602 -38.001 3.99902s-29 2 -43 2c-54 0 -91.667 -12.5 -113 -37.5s-32 -60.5 -32 -106.5v-77h128v-35h-128v-365h-41
v365h-79v35h79v77c0 55.333 15 99.333 45 132s77 49 141 49c23.333 0 45.666 -1.33301 66.999 -4s39.666 -6 54.999 -10v-299z" />
    <glyph glyph-name="f_k" unicode="fk" horiz-adv-x="716" 
d="M407 224l217.003 176.001h62l-190 -154l210 -246h-54l-188 223l-57 -46v-177h-41v615c-10.667 1.33301 -23.334 2.66602 -38.001 3.99902s-29 2 -43 2c-54 0 -91.667 -12.5 -113 -37.5s-32 -60.5 -32 -106.5v-77h128v-35h-128v-365h-41v365h-79v35h79v77
c0 55.333 15 99.333 45 132s77 49 141 49c23.333 0 45.666 -1.33301 66.999 -4s39.666 -6 54.999 -10v-420z" />
    <glyph glyph-name=".notdef" horiz-adv-x="500" 
d="M0 700h500v-700h-500v700zM420 650h-340l170 -255zM450 95v510l-170 -255zM420 50l-170 255l-170 -255h340zM50 95l170 255l-170 255v-510z" />
    <glyph glyph-name="NULL" horiz-adv-x="0" 
 />
    <glyph glyph-name="NULL" horiz-adv-x="0" 
 />
    <glyph glyph-name="nonmarkingreturn" unicode="&#xd;" horiz-adv-x="229" 
 />
    <glyph glyph-name="space" unicode=" " horiz-adv-x="240" 
 />
    <glyph glyph-name="exclam" unicode="!" horiz-adv-x="270" 
d="M156 180h-41v520h41v-520zM96 29c0 10.667 3.83301 19.834 11.5 27.501s16.834 11.5 27.501 11.5s19.834 -3.83301 27.501 -11.5s11.5 -16.834 11.5 -27.501s-3.83301 -19.834 -11.5 -27.501s-16.834 -11.5 -27.501 -11.5s-19.834 3.83301 -27.501 11.5
s-11.5 16.834 -11.5 27.501z" />
    <glyph glyph-name="quotedbl" unicode="&#x22;" horiz-adv-x="264" 
d="M96 700l-10 -240h-30l-8 240h48zM216 700l-10 -240h-30l-8 240h48z" />
    <glyph glyph-name="numbersign" unicode="#" 
d="M82 477h99l29 223h43l-29 -223h174l29 223h43l-29 -223h87v-39h-92l-21 -165h92v-39h-97l-30 -234h-43l30 234h-174l-30 -234h-43l30 234h-89v39h94l21 165h-94v39zM198 273h174l21 165h-174z" />
    <glyph glyph-name="dollar" unicode="$" 
d="M315 709c24.667 -2 48.1699 -7.16699 70.5029 -15.5s42.166 -19.166 59.499 -32.499s31.666 -28.666 42.999 -45.999s19 -36.333 23 -57h-42c-6.66699 30 -24 55.167 -52 75.5s-62 32.166 -102 35.499v-295c30 -11.333 57.333 -22.833 82 -34.5s45.834 -25 63.501 -40
s31.167 -32.5 40.5 -52.5s14 -43.333 14 -70c0 -28 -5.5 -53 -16.5 -75s-25.833 -40.833 -44.5 -56.5s-40 -28 -64 -37s-49 -14.5 -75 -16.5v-92h-41v92c-29.333 1.33301 -56.5 6 -81.5 14s-47 18.5 -66 31.5s-34.5 28.5 -46.5 46.5s-20 37.667 -24 59h42
c6.66699 -32 25.167 -58 55.5 -78s70.5 -31.333 120.5 -34v312c-29.333 10 -56.333 20.5 -81 31.5s-45.834 23.667 -63.501 38s-31.5 31.666 -41.5 51.999s-15 45.166 -15 74.499c0 18.667 4 37.834 12 57.501s20.167 37.5 36.5 53.5s37.166 29.333 62.499 40
s55.333 17 90 19v91h41v-91zM472.003 175c0 20.667 -3.66699 38.5 -11 53.5s-17.833 28.5 -31.5 40.5s-30.167 22.667 -49.5 32s-41 18.333 -65 27v-296c20 2 39.5 6.66699 58.5 14s35.667 17 50 29s26 26.333 35 43s13.5 35.667 13.5 57zM115.003 540
c0 -22 3.83301 -40.833 11.5 -56.5s18.5 -29.334 32.5 -41.001s30.833 -21.667 50.5 -30s41.167 -16.5 64.5 -24.5v281c-26 -2 -49 -7.16699 -69 -15.5s-36.667 -18.666 -50 -30.999s-23.333 -25.833 -30 -40.5s-10 -28.667 -10 -42z" />
    <glyph glyph-name="percent" unicode="%" horiz-adv-x="720" 
d="M176 -12l-36 21l404 702l36 -20zM384 147c0 22.667 3.5 43.667 10.5 63s16.833 36 29.5 50s28.167 25 46.5 33s38.833 12 61.5 12s43.167 -4 61.5 -12s33.833 -19 46.5 -33s22.5 -30.667 29.5 -50s10.5 -40.333 10.5 -63s-3.5 -43.667 -10.5 -63s-16.833 -36 -29.5 -50
s-28.167 -25 -46.5 -33s-38.833 -12 -61.5 -12s-43.167 4 -61.5 12s-33.833 19 -46.5 33s-22.5 30.667 -29.5 50s-10.5 40.333 -10.5 63zM641 147c0 35.333 -9.33301 64.333 -28 87s-45.667 34 -81 34s-62.333 -11.333 -81 -34s-28 -51.667 -28 -87s9.33301 -64.333 28 -87
s45.667 -34 81 -34s62.333 11.333 81 34s28 51.667 28 87zM40 553c0 22.667 3.5 43.667 10.5 63s16.833 36 29.5 50s28.167 25 46.5 33s38.833 12 61.5 12s43.167 -4 61.5 -12s33.833 -19 46.5 -33s22.5 -30.667 29.5 -50s10.5 -40.333 10.5 -63s-3.5 -43.667 -10.5 -63
s-16.833 -36 -29.5 -50s-28.167 -25 -46.5 -33s-38.833 -12 -61.5 -12s-43.167 4 -61.5 12s-33.833 19 -46.5 33s-22.5 30.667 -29.5 50s-10.5 40.333 -10.5 63zM297 553c0 35.333 -9.33301 64.333 -28 87s-45.667 34 -81 34s-62.333 -11.333 -81 -34s-28 -51.667 -28 -87
s9.33301 -64.333 28 -87s45.667 -34 81 -34s62.333 11.333 81 34s28 51.667 28 87z" />
    <glyph glyph-name="ampersand" unicode="&#x26;" horiz-adv-x="638" 
d="M60 173c0 24.667 4.16992 46.9971 12.5029 66.9971s19.166 38.167 32.499 54.5s28.833 31.166 46.5 44.499s36.167 26 55.5 38l-14 15l-32.5 36.5c-11 12.333 -20.833 25.5 -29.5 39.5s-15.667 28.833 -21 44.5s-8 33.167 -8 52.5c0 14.667 3.16699 30.5 9.5 47.5
s16.166 32.667 29.499 47s30.5 26.333 51.5 36s46.5 14.5 76.5 14.5c26.667 0 50 -4.16699 70 -12.5s36.5 -19.5 49.5 -33.5s22.833 -30.167 29.5 -48.5s10 -37.166 10 -56.499c0 -23.333 -4.5 -44 -13.5 -62s-21 -34.333 -36 -49s-32 -28.167 -51 -40.5l-58.5 -36.5
l213 -230c14 24.667 24.333 51.834 31 81.501s10 61.167 10 94.5v83h42v-83c0 -39.333 -4.33301 -76.666 -13 -111.999s-22 -67.333 -40 -96l102 -109h-56l-71 76c-23.333 -26.667 -52 -47.5 -86 -62.5s-74 -22.5 -120 -22.5c-32.667 0 -62.5 4.83301 -89.5 14.5
s-50.333 22.834 -70 39.501s-34.834 36 -45.501 58s-16 45.333 -16 70zM281.003 28.9971c40 0 74.668 7 104.001 21s53.666 32.667 72.999 56l-225 243c-17.333 -10.667 -34 -22 -50 -34s-30 -25 -42 -39s-21.5 -29.5 -28.5 -46.5s-10.5 -35.833 -10.5 -56.5
c0 -20 4.83301 -38.833 14.5 -56.5s22.667 -33 39 -46s35.333 -23.167 57 -30.5s44.5 -11 68.5 -11zM243.004 398.997l53.499 33.4971c17 11 32.167 22.833 45.5 35.5s24 26.334 32 41.001s12 31 12 49c0 14 -2.33301 27.833 -7 41.5s-11.667 25.834 -21 36.501
s-21.5 19.334 -36.5 26.001s-32.5 10 -52.5 10c-21.333 0 -39.833 -3.5 -55.5 -10.5s-28.667 -15.667 -39 -26s-18 -21.833 -23 -34.5s-7.5 -24.667 -7.5 -36c0 -14.667 2.16699 -28.334 6.5 -41.001s10 -24.5 17 -35.5s14.833 -21.667 23.5 -32
s17.334 -20.166 26.001 -29.499z" />
    <glyph glyph-name="quotesingle" unicode="'" horiz-adv-x="144" 
d="M96 700l-10 -240h-30l-8 240h48z" />
    <glyph glyph-name="parenleft" unicode="(" horiz-adv-x="276" 
d="M90 220c0 101.333 11.167 194.168 33.5 278.501s51.5 159.833 87.5 226.5l35 -20c-16.667 -34 -32 -68.167 -46 -102.5s-26.167 -70.833 -36.5 -109.5s-18.333 -80.167 -24 -124.5s-8.5 -93.833 -8.5 -148.5s2.83301 -104.167 8.5 -148.5s13.667 -85.833 24 -124.5
s22.5 -75.167 36.5 -109.5s29.333 -68.5 46 -102.5l-35 -20c-36 66.667 -65.167 142.167 -87.5 226.5s-33.5 177.166 -33.5 278.499z" />
    <glyph glyph-name="parenright" unicode=")" horiz-adv-x="276" 
d="M186 220c0 -101.333 -11.167 -194.168 -33.5 -278.501s-51.5 -159.833 -87.5 -226.5l-35 20c16.667 34 32 68.167 46 102.5s26.167 70.833 36.5 109.5s18.333 80.167 24 124.5s8.5 93.833 8.5 148.5s-2.83301 104.167 -8.5 148.5s-13.667 85.833 -24 124.5
s-22.5 75.167 -36.5 109.5s-29.333 68.5 -46 102.5l35 20c36 -66.667 65.167 -142.167 87.5 -226.5s33.5 -177.166 33.5 -278.499z" />
    <glyph glyph-name="asterisk" unicode="*" horiz-adv-x="406" 
d="M184 700h38l-5 -141l133 48l12 -36l-135 -41l86 -111l-30 -22l-80 116l-80 -116l-30 22l86 111l-135 41l13 36l132 -48z" />
    <glyph glyph-name="plus" unicode="+" 
d="M314 510v-206h206v-37h-206v-207h-37v207h-207v37h207v206h37z" />
    <glyph glyph-name="comma" unicode="," horiz-adv-x="218" 
d="M151 58l-71 -222l-30 11l56 225z" />
    <glyph glyph-name="hyphen" unicode="-" horiz-adv-x="382" 
d="M50 329h282v-37h-282v37z" />
    <glyph glyph-name="period" unicode="." horiz-adv-x="218" 
d="M70 29c0 10.667 3.83301 19.834 11.5 27.501s16.834 11.5 27.501 11.5s19.834 -3.83301 27.501 -11.5s11.5 -16.834 11.5 -27.501s-3.83301 -19.834 -11.5 -27.501s-16.834 -11.5 -27.501 -11.5s-19.834 3.83301 -27.501 11.5s-11.5 16.834 -11.5 27.501z" />
    <glyph glyph-name="slash" unicode="/" horiz-adv-x="565" 
d="M36 -120l-36 21l529 918l36 -20z" />
    <glyph glyph-name="zero" unicode="0" horiz-adv-x="614" 
d="M307 -9c-36.667 0 -70.334 8.5 -101.001 25.5s-57.167 41 -79.5 72s-39.666 68.667 -51.999 113s-18.5 93.833 -18.5 148.5s6.16699 104.167 18.5 148.5s29.666 82 51.999 113s48.833 55 79.5 72s64.334 25.5 101.001 25.5s70.334 -8.5 101.001 -25.5
s57.167 -41 79.5 -72s39.666 -68.667 51.999 -113s18.5 -93.833 18.5 -148.5s-6.16699 -104.167 -18.5 -148.5s-29.666 -82 -51.999 -113s-48.833 -55 -79.5 -72s-64.334 -25.5 -101.001 -25.5zM307 32c29.333 0 56.666 7.33301 81.999 22s47.166 35.667 65.499 63
s32.666 60.666 42.999 99.999s15.5 83.666 15.5 132.999c0 48.667 -5.16699 92.667 -15.5 132s-24.666 72.666 -42.999 99.999s-40.166 48.5 -65.499 63.5s-52.666 22.5 -81.999 22.5c-30 0 -57.667 -7.5 -83 -22.5s-47.166 -36.167 -65.499 -63.5
s-32.833 -60.666 -43.5 -99.999s-16 -83.333 -16 -132c0 -49.333 5.33301 -93.666 16 -132.999s25.167 -72.666 43.5 -99.999s40.166 -48.333 65.499 -63s53 -22 83 -22z" />
    <glyph glyph-name="one" unicode="1" horiz-adv-x="346" 
d="M203 656l-168 -103l-19 34l230 141v-728h-43v656z" />
    <glyph glyph-name="two" unicode="2" horiz-adv-x="547" 
d="M497 41l-0.000976562 -40.999h-453l261 287l42.5 47.5c15 17 28.833 34.833 41.5 53.5s23.167 38 31.5 58s12.5 40.333 12.5 61c0 22.667 -3.83301 43.667 -11.5 63s-18.5 36.333 -32.5 51s-31 26.167 -51 34.5s-42.333 12.5 -67 12.5c-26 0 -49.5 -4 -70.5 -12
s-38.5 -19.333 -52.5 -34s-24.5 -32.167 -31.5 -52.5s-9.83301 -42.833 -8.5 -67.5h-43c-3.33301 29.333 0 56.666 10 81.999s24.5 47.166 43.5 65.499s41.667 32.833 68 43.5s54.5 16 84.5 16c31.333 0 59.666 -5.16699 84.999 -15.5s46.833 -24.666 64.5 -42.999
s31.334 -40 41.001 -65s14.5 -52.167 14.5 -81.5c0 -23.333 -3.83301 -45.833 -11.5 -67.5s-17.667 -42.167 -30 -61.5s-26.166 -38 -41.499 -56l-45 -51l-208 -227h357z" />
    <glyph glyph-name="three" unicode="3" horiz-adv-x="540" 
d="M256 385c24 0.666992 46.002 4.16699 66.002 10.5s37.167 15.666 51.5 27.999s25.666 27.5 33.999 45.5s12.5 39 12.5 63c0 18.667 -3.5 36.334 -10.5 53.001s-17.167 31.167 -30.5 43.5s-29.333 22 -48 29s-40 10.5 -64 10.5c-46 0 -83.333 -12 -112 -36
s-44.334 -56 -47.001 -96h-43c3.33301 53.333 22.833 95.5 58.5 126.5s83.834 46.5 144.501 46.5c30 0 57.167 -4.66699 81.5 -14s45 -22 62 -38s30.167 -35 39.5 -57s14 -45.667 14 -71c0 -24 -3.5 -45 -10.5 -63s-16.333 -33.5 -28 -46.5s-24.834 -23.833 -39.501 -32.5
s-29.334 -15.667 -44.001 -21c16 -4 32.167 -10.333 48.5 -19s31 -20.167 44 -34.5s23.667 -31.833 32 -52.5s12.5 -44.667 12.5 -72s-5 -52.833 -15 -76.5s-24.333 -44.5 -43 -62.5s-41.667 -32.167 -69 -42.5s-58 -15.5 -92 -15.5c-29.333 0 -57.333 4.33301 -84 13
s-50.334 20.834 -71.001 36.501s-37 34.667 -49 57s-18 47.166 -18 74.499h43c2 -20.667 7.83301 -39.5 17.5 -56.5s22.334 -31.667 38.001 -44s34 -22 55 -29s43.5 -10.5 67.5 -10.5c26.667 0 50.834 4.33301 72.501 13s40.167 20.167 55.5 34.5s27 30.833 35 49.5
s12 38.334 12 59.001c0 26.667 -4.66699 49.5 -14 68.5s-22.166 34.833 -38.499 47.5s-35.333 22.167 -57 28.5s-44.834 10.166 -69.501 11.499v41z" />
    <glyph glyph-name="four" unicode="4" horiz-adv-x="552" 
d="M526 180v-41h-93v-139h-43v139h-370l413 608v-567h93zM390 617l-291 -437h291v437z" />
    <glyph glyph-name="five" unicode="5" horiz-adv-x="547" 
d="M501 221c0 -33.333 -5.50098 -63.999 -16.501 -91.999s-26.5 -52.333 -46.5 -73s-44.333 -36.667 -73 -48s-60.334 -17 -95.001 -17c-29.333 0 -57.666 4.33301 -84.999 13s-51.5 20.834 -72.5 36.501s-37.833 34.667 -50.5 57s-19 47.166 -19 74.499h43
c2 -20.667 8 -39.5 18 -56.5s23.167 -31.667 39.5 -44s35.333 -22 57 -29s44.5 -10.5 68.5 -10.5c28.667 0 54.5 4.66699 77.5 14s42.667 22.166 59 38.499s28.833 36.166 37.5 59.499s13 49 13 77c0 24.667 -3.66699 48.334 -11 71.001s-18.666 42.5 -33.999 59.5
s-35 30.5 -59 40.5s-53 15 -87 15h-190l13 293h344v-41h-304l-10 -211h147c40 0 74.833 -5.66699 104.5 -17s54.167 -27.166 73.5 -47.499s33.833 -44.333 43.5 -72s14.5 -57.834 14.5 -90.501z" />
    <glyph glyph-name="six" unicode="6" horiz-adv-x="562" 
d="M452 572c-3.33301 15.333 -9.66504 29.001 -18.998 41.001s-20.166 22 -32.499 30s-26 14.167 -41 18.5s-30.167 6.5 -45.5 6.5c-43.333 0 -78.833 -10.833 -106.5 -32.5s-49.5 -49.334 -65.5 -83.001s-27 -70.667 -33 -111s-9 -79.166 -9 -116.499
c7.33301 20.667 17.666 39.834 30.999 57.501s28.833 33 46.5 46s37.5 23.333 59.5 31s45 11.5 69 11.5c32.667 0 62.167 -6.16699 88.5 -18.5s49 -29.333 68 -51s33.667 -47 44 -76s15.5 -60.167 15.5 -93.5s-5 -64.666 -15 -93.999s-24.333 -54.833 -43 -76.5
s-41.667 -38.834 -69 -51.501s-58 -19 -92 -19c-34.667 0 -67 6.5 -97 19.5s-56.167 33.833 -78.5 62.5s-39.833 66 -52.5 112s-19 102 -19 168c0 22.667 1.5 47.167 4.5 73.5s8.16699 52.666 15.5 78.999s17.166 51.666 29.499 75.999s28.166 46 47.499 65
s42 34.167 68 45.5s56.667 17 92 17c22.667 0 44.167 -3.33301 64.5 -10s38.5 -16 54.5 -28s29.5 -26.5 40.5 -43.5s18.5 -35.5 22.5 -55.5h-43zM303.001 32.001c27.333 0 51.8359 5 73.5029 15s40 24 55 42s26.333 39.333 34 64s11.5 51.667 11.5 81
c0 27.333 -4.16699 53 -12.5 77s-20 44.833 -35 62.5s-32.833 31.5 -53.5 41.5s-43.667 15 -69 15c-26.667 0 -51.334 -5 -74.001 -15s-42.334 -24 -59.001 -42s-29.667 -39.167 -39 -63.5s-14 -50.833 -14 -79.5s4.33301 -55 13 -79s21 -44.833 37 -62.5
s35.167 -31.5 57.5 -41.5s47.166 -15 74.499 -15z" />
    <glyph glyph-name="seven" unicode="7" horiz-adv-x="504" 
d="M26 659v41h448l-355 -700h-48l332 659h-377z" />
    <glyph glyph-name="eight" unicode="8" horiz-adv-x="558" 
d="M279 32c26.667 0 50.834 4 72.501 12s40.334 19 56.001 33s27.834 30.333 36.501 49s13 39 13 61s-4.33301 42.5 -13 61.5s-20.834 35.5 -36.501 49.5s-34.334 25 -56.001 33s-45.834 12 -72.501 12s-50.834 -4 -72.501 -12s-40.334 -19 -56.001 -33
s-27.834 -30.5 -36.501 -49.5s-13 -39.5 -13 -61.5s4.33301 -42.333 13 -61s20.834 -35 36.501 -49s34.334 -25 56.001 -33s45.834 -12 72.501 -12zM279 709c31.333 0 59.833 -4.66699 85.5 -14s47.5 -22.166 65.5 -38.499s32 -35.833 42 -58.5s15 -47.334 15 -74.001
c0 -38.667 -10.833 -71.5 -32.5 -98.5s-50.5 -47.167 -86.5 -60.5c42.667 -18 75.667 -42.333 99 -73s35 -67.334 35 -110.001c0 -28 -5.5 -53.667 -16.5 -77s-26.5 -43.5 -46.5 -60.5s-43.667 -30.167 -71 -39.5s-57 -14 -89 -14s-61.667 4.66699 -89 14s-51 22.5 -71 39.5
s-35.5 37.167 -46.5 60.5s-16.5 49 -16.5 77c0 42.667 11.667 79.334 35 110.001s56.333 55 99 73c-36 13.333 -64.833 33.5 -86.5 60.5s-32.5 59.833 -32.5 98.5c0 26.667 5 51.334 15 74.001s24 42.167 42 58.5s39.833 29.166 65.5 38.499s54.167 14 85.5 14zM279 384
c24.667 0 47 3.66699 67 11s37.167 17.333 51.5 30s25.333 27.667 33 45s11.5 35.666 11.5 54.999c0 20 -3.83301 38.667 -11.5 56s-18.667 32.5 -33 45.5s-31.5 23.167 -51.5 30.5s-42.333 11 -67 11s-47 -3.66699 -67 -11s-37.167 -17.5 -51.5 -30.5
s-25.333 -28.167 -33 -45.5s-11.5 -36 -11.5 -56c0 -19.333 3.83301 -37.666 11.5 -54.999s18.667 -32.333 33 -45s31.5 -22.667 51.5 -30s42.333 -11 67 -11z" />
    <glyph glyph-name="nine" unicode="9" horiz-adv-x="562" 
d="M110 128c3.33301 -15.333 10.1631 -28.9951 20.4961 -40.9951s22.333 -22 36 -30s28.5 -14.167 44.5 -18.5s31.667 -6.5 47 -6.5c42.667 0 77.5 10 104.5 30s48 46.167 63 78.5s25.167 69 30.5 110s8 82.5 8 124.5c-7.33301 -20.667 -17.666 -39.834 -30.999 -57.501
s-29.166 -33 -47.499 -46s-38.5 -23.333 -60.5 -31s-45 -11.5 -69 -11.5c-32.667 0 -62.167 6.16699 -88.5 18.5s-49 29.166 -68 50.499s-33.667 46.666 -44 75.999s-15.5 60.666 -15.5 93.999s5 64.666 15 93.999s24.333 54.833 43 76.5s41.667 38.834 69 51.501
s58 19 92 19c36.667 0 70.334 -6.5 101.001 -19.5s56.667 -33.833 78 -62.5s38 -66 50 -112s18 -102 18 -168c0 -38.667 -3 -79 -9 -121s-17.833 -80.333 -35.5 -115s-42.667 -63.334 -75 -86.001s-74.833 -34 -127.5 -34c-22.667 0 -44.667 3.33301 -66 10
s-40.666 16 -57.999 28s-32 26.5 -44 43.5s-20 35.5 -24 55.5h43zM258.997 668.005c-27.333 0 -51.835 -5 -73.502 -15s-40 -24 -55 -42s-26.333 -39.333 -34 -64s-11.5 -51.667 -11.5 -81c0 -27.333 4.16699 -53 12.5 -77s20 -44.833 35 -62.5s32.833 -31.5 53.5 -41.5
s43.667 -15 69 -15c26.667 0 51.334 5 74.001 15s42.334 24 59.001 42s29.667 39.167 39 63.5s14 50.833 14 79.5s-3.83301 55 -11.5 79s-19.167 44.833 -34.5 62.5s-34.333 31.5 -57 41.5s-49 15 -79 15z" />
    <glyph glyph-name="colon" unicode=":" horiz-adv-x="218" 
d="M70 29c0 10.667 3.83301 19.834 11.5 27.501s16.834 11.5 27.501 11.5s19.834 -3.83301 27.501 -11.5s11.5 -16.834 11.5 -27.501s-3.83301 -19.834 -11.5 -27.501s-16.834 -11.5 -27.501 -11.5s-19.834 3.83301 -27.501 11.5s-11.5 16.834 -11.5 27.501zM70 371
c0 10.667 3.83301 19.834 11.5 27.501s16.834 11.5 27.501 11.5s19.834 -3.83301 27.501 -11.5s11.5 -16.834 11.5 -27.501s-3.83301 -19.834 -11.5 -27.501s-16.834 -11.5 -27.501 -11.5s-19.834 3.83301 -27.501 11.5s-11.5 16.834 -11.5 27.501z" />
    <glyph glyph-name="semicolon" unicode=";" horiz-adv-x="218" 
d="M70 371c0 10.667 3.83301 19.834 11.5 27.501s16.834 11.5 27.501 11.5s19.834 -3.83301 27.501 -11.5s11.5 -16.834 11.5 -27.501s-3.83301 -19.834 -11.5 -27.501s-16.834 -11.5 -27.501 -11.5s-19.834 3.83301 -27.501 11.5s-11.5 16.834 -11.5 27.501zM151 58
l-71 -222l-30 11l56 225z" />
    <glyph glyph-name="less" unicode="&#x3c;" 
d="M520 516v-42l-404 -189l404 -189v-42l-450 213v36z" />
    <glyph glyph-name="equal" unicode="=" 
d="M520 389v-37h-450v37h450zM520 219v-37h-450v37h450z" />
    <glyph glyph-name="greater" unicode="&#x3e;" 
d="M520 303v-36l-450 -213v42l404 189l-404 189v42z" />
    <glyph glyph-name="question" unicode="?" horiz-adv-x="512" 
d="M239 140l-0.00195312 144.001c18 12 37.333 25.667 58 41s39.834 32.166 57.501 50.499s32.167 38.5 43.5 60.5s17 45.667 17 71c0 22.667 -3.83301 43.667 -11.5 63s-18.834 36.333 -33.501 51s-32.667 26.167 -54 34.5s-45.666 12.5 -72.999 12.5
c-58 0 -102.167 -15.333 -132.5 -46s-43.833 -70.667 -40.5 -120h-43c-3.33301 29.333 0.166992 56.666 10.5 81.999s25.333 47.166 45 65.499s43.334 32.833 71.001 43.5s57.5 16 89.5 16c34 0 64.333 -5.16699 91 -15.5s49.167 -24.666 67.5 -42.999s32.333 -40 42 -65
s14.5 -52.167 14.5 -81.5c0 -28.667 -5.5 -54.667 -16.5 -78s-25 -44.666 -42 -63.999s-35.833 -37 -56.5 -53s-41 -31 -61 -45v-124h-43zM220.998 29.001c0 10.667 3.83301 19.834 11.5 27.501s16.834 11.5 27.501 11.5s19.834 -3.83301 27.501 -11.5
s11.5 -16.834 11.5 -27.501s-3.83301 -19.834 -11.5 -27.501s-16.834 -11.5 -27.501 -11.5s-19.834 3.83301 -27.501 11.5s-11.5 16.834 -11.5 27.501z" />
    <glyph glyph-name="at" unicode="@" horiz-adv-x="1038" 
d="M968 289c0 -39.333 -4.1709 -75.3291 -12.5039 -107.996s-20.166 -60.834 -35.499 -84.501s-33.833 -42.167 -55.5 -55.5s-45.5 -20 -71.5 -20c-15.333 0 -29.666 2.66699 -42.999 8s-25.166 11.666 -35.499 18.999s-19.166 15.166 -26.499 23.499s-13 15.166 -17 20.499
c-14.667 -26 -36.667 -46.833 -66 -62.5s-61 -23.5 -95 -23.5c-30.667 0 -58.167 5.33301 -82.5 16s-45 25.5 -62 44.5s-30 41.333 -39 67s-13.5 53.834 -13.5 84.501c0 29.333 4.66699 56.666 14 81.999s22.5 47.166 39.5 65.499s37.5 32.833 61.5 43.5s51 16 81 16
c34.667 0 65.5 -7.33301 92.5 -22s48.833 -34 65.5 -58l3 70h38v-310c11.333 -11.333 24.333 -22.5 39 -33.5s32 -16.5 52 -16.5s38.167 5.83301 54.5 17.5s30.333 28 42 49s20.834 45.833 27.501 74.5s10 59.667 10 93c0 54.667 -9 105.667 -27 153s-44 88.333 -78 123
s-75.5 61.834 -124.5 81.501s-104.5 29.5 -166.5 29.5c-64 0 -122.333 -10.833 -175 -32.5s-97.667 -52.334 -135 -92.001s-66.333 -87.334 -87 -143.001s-31 -117.167 -31 -184.5c0 -65.333 10.5 -126 31.5 -182s50.167 -104.5 87.5 -145.5s81.666 -73.333 132.999 -97
s107.666 -35.5 168.999 -35.5c60.667 0 118.5 6.16699 173.5 18.5s108.167 33.5 159.5 63.5l14 -31c-54 -30 -109.167 -51.667 -165.5 -65s-117.166 -20 -182.499 -20c-66 0 -127 12.167 -183 36.5s-104.5 58.166 -145.5 101.499s-73 95.333 -96 156
s-34.5 127.334 -34.5 200.001c0 70.667 11.167 135.834 33.5 195.501s54 111 95 154s90.333 76.5 148 100.5s121.5 36 191.5 36c66.667 0 126.667 -10.667 180 -32s98.5 -50.666 135.5 -87.999s65.333 -81.833 85 -133.5s29.5 -107.5 29.5 -167.5zM508.996 43.0039
c25.333 0 47.833 4.50195 67.5 13.502s36.334 21.5 50.001 37.5s24.167 34.667 31.5 56s11 44 11 68s-3.5 46.333 -10.5 67s-17.333 38.667 -31 54s-30.5 27.333 -50.5 36s-42.667 13 -68 13c-23.333 0 -44.5 -4.5 -63.5 -13.5s-35.333 -21.333 -49 -37
s-24.167 -33.834 -31.5 -54.501s-11 -42.334 -11 -65.001c0 -24 3.5 -46.667 10.5 -68s17.167 -40 30.5 -56s29.666 -28.5 48.999 -37.5s41 -13.5 65 -13.5z" />
    <glyph glyph-name="A" unicode="A" horiz-adv-x="687" 
d="M522 219h-358l-95 -219h-45l319 730l320 -730h-45zM182 260h322l-161 371z" />
    <glyph glyph-name="B" unicode="B" horiz-adv-x="632" 
d="M133 39l201 -0.000976562c27.333 0 53.333 2.5 78 7.5s46.5 13.833 65.5 26.5s34 29.334 45 50.001s16.5 47 16.5 79c0 28 -5.33301 52 -16 72s-26 36.333 -46 49s-44 22 -72 28s-59 9 -93 9h-179v-321zM90 -0.000976562l-0.00390625 700.001h229
c30.667 0 59.334 -3 86.001 -9s49.834 -15.5 69.501 -28.5s35.167 -30.333 46.5 -52s17 -47.834 17 -78.501c0 -35.333 -10.667 -66.833 -32 -94.5s-50.666 -45.5 -87.999 -53.5c23.333 -3.33301 45 -9.83301 65 -19.5s37.333 -22.167 52 -37.5s26.167 -33.5 34.5 -54.5
s12.5 -44.5 12.5 -70.5c0 -34.667 -6.33301 -64.667 -19 -90s-30 -46.333 -52 -63s-48.167 -29 -78.5 -37s-63.166 -12 -98.499 -12h-244zM132.996 399l167.999 -0.00195312c22.667 0 45.667 1.83301 69 5.5s44.5 10.5 63.5 20.5s34.333 23.667 46 41s17.5 39.333 17.5 66
c0 26 -5.16699 47.333 -15.5 64s-24 29.834 -41 39.501s-36.167 16.334 -57.5 20.001s-42.666 5.5 -63.999 5.5h-186v-262z" />
    <glyph glyph-name="C" unicode="C" horiz-adv-x="800" 
d="M56 350c0 50 9.33301 96.8359 28 140.503s44.334 81.667 77.001 114s71 58 115 77s91.333 28.5 142 28.5c41.333 0 79.666 -5.66699 114.999 -17s67.333 -27 96 -47s53.5 -44 74.5 -72s37.833 -58.667 50.5 -92h-47c-10 24.667 -23.833 48.334 -41.5 71.001
s-38.667 42.5 -63 59.5s-52 30.5 -83 40.5s-64.5 15 -100.5 15c-45.333 0 -87.333 -8.16699 -126 -24.5s-72.334 -38.833 -101.001 -67.5s-51.167 -62.334 -67.5 -101.001s-24.5 -80.334 -24.5 -125.001s8.16699 -86.334 24.5 -125.001s38.833 -72.334 67.5 -101.001
s62.334 -51.167 101.001 -67.5s80.667 -24.5 126 -24.5c36 0 69.833 5.16699 101.5 15.5s60 24.333 85 42s46.333 38.167 64 61.5s30.834 48.333 39.501 75h47c-11.333 -35.333 -27.5 -67.333 -48.5 -96s-46.167 -53.5 -75.5 -74.5s-62 -37.167 -98 -48.5
s-74.667 -17 -116 -17c-50.667 0 -98 9.5 -142 28.5s-82.333 44.667 -115 77s-58.334 70.333 -77.001 114s-28 90.5 -28 140.5z" />
    <glyph glyph-name="D" unicode="D" horiz-adv-x="732" 
d="M90 700l234.001 -0.00195312c52 0 99.5 -8.83301 142.5 -26.5s79.667 -42.167 110 -73.5s53.833 -68.166 70.5 -110.499s25 -88.166 25 -137.499c0 -50.667 -7.83301 -97.5 -23.5 -140.5s-38.334 -80.167 -68.001 -111.5s-65.5 -55.833 -107.5 -73.5
s-89 -26.5 -141 -26.5h-242v700zM332.001 40.998c46 0 87.501 7.66895 124.501 23.002s68.167 36.666 93.5 63.999s44.833 60 58.5 98s20.5 80 20.5 126c0 44 -7.16699 84.833 -21.5 122.5s-34.833 70.167 -61.5 97.5s-58.834 48.666 -96.501 63.999s-79.5 23 -125.5 23
h-191v-618h199z" />
    <glyph glyph-name="E" unicode="E" horiz-adv-x="597" 
d="M133 659v-259h374v-41h-374v-318h402v-41h-445v700h445v-41h-402z" />
    <glyph glyph-name="F" unicode="F" horiz-adv-x="565" 
d="M133 659v-259h374v-41h-374v-359h-43v700h445v-41h-402z" />
    <glyph glyph-name="G" unicode="G" horiz-adv-x="827" 
d="M425 322l0.000976562 41h346v-13c0 -54.667 -8.83301 -104.167 -26.5 -148.5s-42.5 -82 -74.5 -113s-69.833 -55 -113.5 -72s-91.5 -25.5 -143.5 -25.5c-50 0 -96.667 9.33301 -140 28s-81 44.334 -113 77.001s-57.333 70.667 -76 114s-28 90 -28 140
s9.33301 96.833 28 140.5s44.167 81.667 76.5 114s70.5 58 114.5 77s91.333 28.5 142 28.5c41.333 0 79.666 -5.66699 114.999 -17s67.166 -27 95.499 -47s53 -44 74 -72s37.833 -58.667 50.5 -92h-47c-10 24.667 -23.833 48.334 -41.5 71.001s-38.667 42.5 -63 59.5
s-51.833 30.5 -82.5 40.5s-64 15 -100 15c-45.333 0 -87.333 -8.16699 -126 -24.5s-72.167 -38.833 -100.5 -67.5s-50.666 -62.334 -66.999 -101.001s-24.5 -80.334 -24.5 -125.001s8.16699 -86.334 24.5 -125.001s38.5 -72.167 66.5 -100.5s61 -50.666 99 -66.999
s79 -24.5 123 -24.5s84.833 7.5 122.5 22.5s70.5 35.5 98.5 61.5s50 56.667 66 92s24.667 73 26 113h-301z" />
    <glyph glyph-name="H" unicode="H" horiz-adv-x="723" 
d="M633 0h-43v359h-457v-359h-43v700h43v-300h457v300h43v-700z" />
    <glyph glyph-name="I" unicode="I" horiz-adv-x="251" 
d="M147 0h-43v700h43v-700z" />
    <glyph glyph-name="J" unicode="J" horiz-adv-x="503" 
d="M374 700l43 -0.00292969v-511c0 -28.667 -5.16699 -55.167 -15.5 -79.5s-24.833 -45.166 -43.5 -62.499s-41 -31 -67 -41s-54.667 -15 -86 -15c-26 0 -50.5 3.66699 -73.5 11s-43.5 17.833 -61.5 31.5s-33.167 29.834 -45.5 48.501s-20.5 39 -24.5 61h42
c7.33301 -33.333 25.5 -60.666 54.5 -81.999s65.167 -32 108.5 -32c26 0 49.5 3.83301 70.5 11.5s38.667 18.5 53 32.5s25.5 30.833 33.5 50.5s12 41.5 12 65.5v511z" />
    <glyph glyph-name="K" unicode="K" horiz-adv-x="598" 
d="M202 379l-69 -62v-317h-43v700h43v-328l376 328h62l-337 -295l344 -405h-55z" />
    <glyph glyph-name="L" unicode="L" horiz-adv-x="535" 
d="M133 700v-659h382v-41h-425v700h43z" />
    <glyph glyph-name="M" unicode="M" horiz-adv-x="856" 
d="M428 71l299 662l75 -733h-43l-57 578l-274 -601l-274 601l-57 -578h-43l75 733z" />
    <glyph glyph-name="N" unicode="N" horiz-adv-x="746" 
d="M656 -31l-523 635v-604h-43v716l523 -630v614h43v-731z" />
    <glyph glyph-name="O" unicode="O" horiz-adv-x="831" 
d="M56 350c0 50 9.33301 96.833 28 140.5s44.334 81.667 77.001 114s70.667 58 114 77s90 28.5 140 28.5s96.833 -9.5 140.5 -28.5s81.667 -44.667 114 -77s58 -70.333 77 -114s28.5 -90.5 28.5 -140.5s-9.5 -96.667 -28.5 -140s-44.667 -81.333 -77 -114
s-70.333 -58.334 -114 -77.001s-90.5 -28 -140.5 -28s-96.667 9.33301 -140 28s-81.333 44.334 -114 77.001s-58.334 70.667 -77.001 114s-28 90 -28 140zM100 350c0 -44.667 8.16699 -86.334 24.5 -125.001s38.833 -72.167 67.5 -100.5s62 -50.666 100 -66.999
s79 -24.5 123 -24.5s85.167 8.16699 123.5 24.5s71.666 38.666 99.999 66.999s50.833 61.833 67.5 100.5s25 80.334 25 125.001s-8.33301 86.334 -25 125.001s-39.167 72.334 -67.5 101.001s-61.666 51.167 -99.999 67.5s-79.5 24.5 -123.5 24.5s-85 -8.16699 -123 -24.5
s-71.333 -38.833 -100 -67.5s-51.167 -62.334 -67.5 -101.001s-24.5 -80.334 -24.5 -125.001z" />
    <glyph glyph-name="P" unicode="P" horiz-adv-x="621" 
d="M133 0l-42.999 0.00292969v700h248c31.333 0 61 -3.83301 89 -11.5s52.5 -19.834 73.5 -36.501s37.667 -37.834 50 -63.501s18.5 -56.834 18.5 -93.501c0 -34 -6 -63.5 -18 -88.5s-28.333 -45.5 -49 -61.5s-44.834 -27.833 -72.501 -35.5s-57.5 -11.5 -89.5 -11.5h-207
v-298zM340.001 339.003c24.667 0 48.333 2.83203 71 8.49902s42.5 14.834 59.5 27.501s30.5 29 40.5 49s15 44.333 15 73s-5 53.167 -15 73.5s-23.5 37 -40.5 50s-36.833 22.667 -59.5 29s-47 9.5 -73 9.5h-205v-320h207z" />
    <glyph glyph-name="Q" unicode="Q" horiz-adv-x="831" 
d="M795 0l-379.999 0.000976562c-50 0 -96.667 9.16699 -140 27.5s-81.333 43.5 -114 75.5s-58.334 69.5 -77.001 112.5s-28 89.167 -28 138.5c0 48.667 9.33301 94.667 28 138s44.334 81.166 77.001 113.499s70.667 57.833 114 76.5s90 28 140 28
s96.833 -9.33301 140.5 -28s81.667 -44.167 114 -76.5s58 -70.166 77 -113.499s28.5 -89.333 28.5 -138c0 -34.667 -5.5 -68.834 -16.5 -102.501s-26.333 -64.667 -46 -93s-42.834 -53.5 -69.501 -75.5s-56 -38.667 -88 -50l240 8v-41zM100.001 354.001
c0 -44 8.16699 -85 24.5 -123s38.833 -71 67.5 -99s62 -50 100 -66s79 -24 123 -24s85.167 8 123.5 24s71.666 38 99.999 66s50.833 61 67.5 99s25 79 25 123s-8.33301 85.167 -25 123.5s-39.167 71.5 -67.5 99.5s-61.666 50.167 -99.999 66.5s-79.5 24.5 -123.5 24.5
s-85 -8.16699 -123 -24.5s-71.333 -38.5 -100 -66.5s-51.167 -61.167 -67.5 -99.5s-24.5 -79.5 -24.5 -123.5z" />
    <glyph glyph-name="R" unicode="R" horiz-adv-x="628" 
d="M133 0h-43v700h246c31.333 0 61 -3.5 89 -10.5s52.5 -18.167 73.5 -33.5s37.667 -35.5 50 -60.5s18.5 -55.833 18.5 -92.5c0 -32 -6 -60 -18 -84s-27.5 -43.667 -46.5 -59s-40.333 -26.833 -64 -34.5s-47.167 -11.5 -70.5 -11.5l218 -314h-50l-218 314h-185v-314z
M338 355c24.667 0 48.333 2.5 71 7.5s42.5 13.167 59.5 24.5s30.5 26.666 40.5 45.999s15 43.333 15 72s-5 52.834 -15 72.501s-23.5 35.5 -40.5 47.5s-36.833 20.667 -59.5 26s-47 8 -73 8h-203v-304h205z" />
    <glyph glyph-name="S" unicode="S" horiz-adv-x="537" 
d="M271 31c22 0 43.667 3.16797 65 9.50098s40.333 15.5 57 27.5s30 27 40 45s15 38.667 15 62c0 24 -5 44.333 -15 61s-24 31.334 -42 44.001s-39.5 24.167 -64.5 34.5s-52.5 20.5 -82.5 30.5c-29.333 10 -55.833 20.333 -79.5 31s-44.167 23.334 -61.5 38.001
s-30.666 32 -39.999 52s-14 44.333 -14 73c0 20 4.16699 40.167 12.5 60.5s21.166 38.666 38.499 54.999s39.5 29.666 66.5 39.999s59.167 15.5 96.5 15.5c28 0 54.167 -3.66699 78.5 -11s46 -17.833 65 -31.5s34.667 -29.834 47 -48.501s20.5 -39 24.5 -61h-42
c-7.33301 33.333 -26.5 60.333 -57.5 81s-69.5 31 -115.5 31c-29.333 0 -54.833 -4.16699 -76.5 -12.5s-39.5 -18.833 -53.5 -31.5s-24.5 -26.667 -31.5 -42s-10.5 -30 -10.5 -44c0 -23.333 4.16699 -43 12.5 -59s20.166 -29.833 35.499 -41.5s33.5 -21.834 54.5 -30.501
s44.167 -17 69.5 -25c34 -12 65 -24 93 -36s52 -25.833 72 -41.5s35.5 -34 46.5 -55s16.5 -45.833 16.5 -74.5c0 -30 -6.16699 -56.5 -18.5 -79.5s-28.666 -42.5 -48.999 -58.5s-43.833 -28 -70.5 -36s-54 -12 -82 -12c-31.333 0 -60.166 3.66699 -86.499 11
s-49.5 17.833 -69.5 31.5s-36.5 29.834 -49.5 48.501s-21.5 39 -25.5 61h42c7.33301 -33.333 27.166 -60.333 59.499 -81s75.5 -31 129.5 -31z" />
    <glyph glyph-name="T" unicode="T" horiz-adv-x="551" 
d="M525 659h-228v-659h-43v659h-228v41h499v-41z" />
    <glyph glyph-name="U" unicode="U" horiz-adv-x="704" 
d="M352 32c41.333 0 76.168 6.5 104.501 19.5s51.333 31 69 54s30.334 50.167 38.001 81.5s11.5 65 11.5 101v412h43v-412c0 -42 -5.33301 -81.167 -16 -117.5s-26.834 -67.666 -48.501 -93.999s-49.167 -47.166 -82.5 -62.499s-73 -23 -119 -23s-85.667 7.66699 -119 23
s-60.833 36.166 -82.5 62.499s-37.834 57.666 -48.501 93.999s-16 75.5 -16 117.5v412h43v-412c0 -36 3.83301 -69.667 11.5 -101s20.334 -58.5 38.001 -81.5s40.667 -41 69 -54s63.166 -19.5 104.499 -19.5z" />
    <glyph glyph-name="V" unicode="V" horiz-adv-x="625" 
d="M319 75l263 625h43l-306 -727l-305 727h43z" />
    <glyph glyph-name="W" unicode="W" horiz-adv-x="1007" 
d="M929 700h44l-238 -725l-232 625l-231 -625l-238 725h44l197 -606l228 629l229 -629z" />
    <glyph glyph-name="X" unicode="X" horiz-adv-x="631" 
d="M315 402l221 298h48l-245 -331l274 -369h-48l-250 337l-249 -337h-48l273 369l-244 331h48z" />
    <glyph glyph-name="Y" unicode="Y" horiz-adv-x="568" 
d="M306 0h-43v302l-247 398h46l222 -358l222 358h46l-246 -398v-302z" />
    <glyph glyph-name="Z" unicode="Z" horiz-adv-x="606" 
d="M34 0l455 661h-415v39h492l-455 -661h441v-39h-518z" />
    <glyph glyph-name="bracketleft" unicode="[" horiz-adv-x="284" 
d="M264 700v-39h-123v-872h123v-39h-164v950h164z" />
    <glyph glyph-name="backslash" unicode="\" horiz-adv-x="565" 
d="M0 799l36 20l529 -918l-36 -21z" />
    <glyph glyph-name="bracketright" unicode="]" horiz-adv-x="284" 
d="M184 700v-950h-164v39h123v872h-123v39h164z" />
    <glyph glyph-name="asciicircum" unicode="^" horiz-adv-x="556" 
d="M516 317h-49l-189 338l-189 -338h-49l216 383h44z" />
    <glyph glyph-name="underscore" unicode="_" horiz-adv-x="426" 
d="M30 -60h366v-39h-366v39z" />
    <glyph glyph-name="grave" unicode="`" horiz-adv-x="300" 
d="M102 654l138 -118l-22 -21l-148 96z" />
    <glyph glyph-name="a" unicode="a" horiz-adv-x="456" 
d="M65 303c7.33301 33.333 25.668 59.499 55.001 78.499s64 28.5 104 28.5c50 0 89.5 -12.667 118.5 -38s43.5 -59.666 43.5 -102.999v-269h-37l-3 68c-12.667 -19.333 -30.334 -36.333 -53.001 -51s-53.667 -22 -93 -22c-46 0 -83.833 10.833 -113.5 32.5
s-44.5 53.167 -44.5 94.5c0 42 15.5 74 46.5 96s79.833 33 146.5 33h111v18c0 34 -10.333 60 -31 78s-51 27 -91 27c-32 0 -58.333 -6.33301 -79 -19s-34 -30 -40 -52h-40zM200.002 30.999c18.667 0 36.834 2.83398 54.501 8.50098s33.167 14 46.5 25
s24.166 24.5 32.499 40.5s12.5 34.333 12.5 55v55h-111c-54 0 -93 -7.33301 -117 -22s-36 -38.334 -36 -71.001c0 -30 11 -52.667 33 -68s50.333 -23 85 -23z" />
    <glyph glyph-name="b" unicode="b" horiz-adv-x="517" 
d="M275 28c24 0 45.667 4.49805 65 13.498s35.666 21.5 48.999 37.5s23.5 34.667 30.5 56s10.5 44 10.5 68c0 22.667 -3.66699 44.334 -11 65.001s-17.833 38.834 -31.5 54.501s-30 28 -49 37s-40.167 13.5 -63.5 13.5c-25.333 0 -48 -4.33301 -68 -13
s-36.833 -20.667 -50.5 -36s-24 -33.333 -31 -54s-10.5 -43 -10.5 -67s3.66699 -46.667 11 -68s17.833 -40 31.5 -56s30.334 -28.5 50.001 -37.5s42.167 -13.5 67.5 -13.5zM115 -0.00195312l-39 -0.000976562v653h41v-323c16.667 24 38.5 43.333 65.5 58s57.833 22 92.5 22
c30 0 57 -5.33301 81 -16s44.5 -25.167 61.5 -43.5s30.167 -40.166 39.5 -65.499s14 -52.666 14 -81.999c0 -30.667 -4.5 -58.834 -13.5 -84.501s-22 -48 -39 -67s-37.667 -33.833 -62 -44.5s-51.833 -16 -82.5 -16c-34 0 -65 7.16699 -93 21.5s-49.333 34.5 -64 60.5z" />
    <glyph glyph-name="c" unicode="c" horiz-adv-x="481" 
d="M251 373c-24 0 -46.0049 -4.33301 -66.0049 -13s-37.167 -20.667 -51.5 -36s-25.666 -33.666 -33.999 -54.999s-12.5 -44.333 -12.5 -69c0 -25.333 4.16699 -48.5 12.5 -69.5s19.833 -39 34.5 -54s32 -26.833 52 -35.5s42 -13 66 -13c38.667 0 70.334 8 95.001 24
s41.667 36.667 51 62h41c-11.333 -38 -34 -68 -68 -90s-73.667 -33 -119 -33c-29.333 0 -56.666 5.5 -81.999 16.5s-47.166 25.833 -65.499 44.5s-32.666 40.667 -42.999 66s-15.5 52.666 -15.5 81.999c0 28.667 5.16699 55.834 15.5 81.501s24.5 48 42.5 67
s39.5 34 64.5 45s52.5 16.5 82.5 16.5c46 0 85.5 -11.333 118.5 -34s55.167 -52.334 66.5 -89.001h-41c-9.33301 24 -26 44.333 -50 61s-55.333 25 -94 25z" />
    <glyph glyph-name="d" unicode="d" horiz-adv-x="517" 
d="M242 28c25.333 0 47.833 4.50195 67.5 13.502s36.334 21.5 50.001 37.5s24.167 34.667 31.5 56s11 44 11 68s-3.5 46.333 -10.5 67s-17.333 38.667 -31 54s-30.5 27.333 -50.5 36s-42.667 13 -68 13c-23.333 0 -44.5 -4.5 -63.5 -13.5s-35.333 -21.333 -49 -37
s-24.167 -33.834 -31.5 -54.501s-11 -42.334 -11 -65.001c0 -24 3.5 -46.667 10.5 -68s17.167 -40 30.5 -56s29.666 -28.5 48.999 -37.5s41 -13.5 65 -13.5zM400 73.002c-14.667 -26 -36 -46.166 -64 -60.499s-59 -21.5 -93 -21.5c-30.667 0 -58.167 5.33301 -82.5 16
s-45 25.5 -62 44.5s-30 41.333 -39 67s-13.5 53.834 -13.5 84.501c0 29.333 4.66699 56.666 14 81.999s22.5 47.166 39.5 65.499s37.5 32.833 61.5 43.5s51 16 81 16c34.667 0 65.5 -7.33301 92.5 -22s48.833 -34 65.5 -58v323h41v-653h-39z" />
    <glyph glyph-name="e" unicode="e" horiz-adv-x="485" 
d="M86 184c3.33301 -46.667 19.8311 -84.499 49.498 -113.499s68.834 -43.5 117.501 -43.5c38.667 0 69.5 8.66699 92.5 26s37.833 37.666 44.5 60.999h40c-4 -18 -11.167 -34.5 -21.5 -49.5s-23.166 -28 -38.499 -39s-33 -19.5 -53 -25.5s-41.333 -9 -64 -9
c-31.333 0 -59.833 5.5 -85.5 16.5s-47.5 25.833 -65.5 44.5s-31.833 40.667 -41.5 66s-14.5 52.666 -14.5 81.999c0 28.667 5 55.834 15 81.501s24 48 42 67s39.333 34 64 45s52 16.5 82 16.5c29.333 0 55.666 -5.5 78.999 -16.5s43.333 -25.5 60 -43.5
s29.334 -38.667 38.001 -62s13 -47.333 13 -72c0 -13.333 -1 -24 -3 -32h-350zM248.998 374.001c-22.667 0 -43.498 -3.83301 -62.498 -11.5s-35.5 -18.334 -49.5 -32.001s-25.333 -30 -34 -49s-14 -39.5 -16 -61.5h312c0 18.667 -3.33301 37.334 -10 56.001
s-16.334 35.167 -29.001 49.5s-28.334 26 -47.001 35s-40 13.5 -64 13.5z" />
    <glyph glyph-name="f" unicode="f" horiz-adv-x="290" 
d="M20 400h79.002v85c0 56 13.167 98.667 39.5 128s66.5 44 120.5 44c7.33301 0 14.666 -0.333008 21.999 -1s13.666 -1.66699 18.999 -3v-37c-10 2.66699 -22 4 -36 4c-44 0 -75.667 -11 -95 -33s-29 -56 -29 -102v-85h128v-35h-128v-365h-41v365h-79v35z" />
    <glyph glyph-name="g" unicode="g" horiz-adv-x="461" 
d="M64 241c0 22.667 4.50098 44.3271 13.501 64.9941s21.167 38.667 36.5 54s33.333 27.5 54 36.5s42.667 13.5 66 13.5h192v-30l-91 -4c22 -14.667 39.167 -34.334 51.5 -59.001s18.5 -50 18.5 -76c0 -23.333 -4.33301 -45.166 -13 -65.499s-20.834 -38 -36.501 -53
s-33.834 -27 -54.501 -36s-43 -13.5 -67 -13.5c-24.667 0 -45.667 3.83301 -63 11.5s-33.666 17.5 -48.999 29.5c-12.667 -3.33301 -24.167 -9.16602 -34.5 -17.499s-15.5 -21.166 -15.5 -38.499c0 -22 8.66699 -37.167 26 -45.5s37.666 -12.5 60.999 -12.5h93
c62 0 108.667 -13.167 140 -39.5s47 -62.833 47 -109.5c0 -22.667 -4.33301 -43.667 -13 -63s-21.334 -36.166 -38.001 -50.499s-37.334 -25.5 -62.001 -33.5s-53 -12 -85 -12c-34 0 -63.667 4.5 -89 13.5s-46.166 20.833 -62.499 35.5s-28.666 31.5 -36.999 50.5
s-12.5 38.5 -12.5 58.5c0 30 7 55.5 21 76.5s28.667 36.167 44 45.5c-22 6 -39.667 16 -53 30s-20 32.667 -20 56c0 12.667 2.16699 23.834 6.5 33.501s9.83301 17.834 16.5 24.501s13.834 12.167 21.501 16.5s15.167 7.83301 22.5 10.5
c-10.667 9.33301 -19.167 23.333 -25.5 42s-9.5 37.334 -9.5 56.001zM150.001 -35.0068c-19.333 -9.33301 -35.832 -23.833 -49.499 -43.5s-20.5 -43.167 -20.5 -70.5c0 -34 13.5 -63 40.5 -87s67.167 -36 120.5 -36c54 0 94 11.5 120 34.5s39 52.5 39 88.5
c0 17.333 -2.5 33 -7.5 47s-13.333 26 -25 36s-26.834 17.667 -45.501 23s-42 8 -70 8h-102zM104.002 240.993c0 -19.333 3.33301 -37 10 -53s16 -29.833 28 -41.5s25.833 -20.834 41.5 -27.501s32.5 -10 50.5 -10s35 3.33301 51 10s29.833 15.834 41.5 27.501
s21 25.5 28 41.5s10.5 33.667 10.5 53c0 18.667 -3.5 36.167 -10.5 52.5s-16.333 30.5 -28 42.5s-25.5 21.333 -41.5 28s-33 10 -51 10s-34.833 -3.33301 -50.5 -10s-29.5 -16 -41.5 -28s-21.333 -26.167 -28 -42.5s-10 -33.833 -10 -52.5z" />
    <glyph glyph-name="h" unicode="h" horiz-adv-x="502" 
d="M76 653l41 -0.00195312v-308c6.66699 6.66699 15 13.834 25 21.501s21.333 14.834 34 21.501s27 12 43 16s33.667 6 53 6c50 0 89.167 -15.5 117.5 -46.5s42.5 -73.167 42.5 -126.5v-237h-41v237c0 42 -10.5 75.167 -31.5 99.5s-51.5 36.5 -91.5 36.5
c-18 0 -34.833 -2.33301 -50.5 -7s-29.667 -10.5 -42 -17.5s-23.5 -14.833 -33.5 -23.5s-18.333 -17 -25 -25v-300h-41v653z" />
    <glyph glyph-name="i" unicode="i" horiz-adv-x="201" 
d="M80 400h41v-400h-41v400zM69 548c0 9.33301 2.83301 17 8.5 23s13.167 9 22.5 9s17 -3 23 -9s9 -13.667 9 -23s-3 -16.833 -9 -22.5s-13.667 -8.5 -23 -8.5s-16.833 2.83301 -22.5 8.5s-8.5 13.167 -8.5 22.5z" />
    <glyph glyph-name="j" unicode="j" horiz-adv-x="201" 
d="M121 -97c0 -60 -14.168 -103.668 -42.501 -131.001s-71.166 -37 -128.499 -29v37c47.333 -7.33301 80.833 0.333984 100.5 23.001s29.5 56 29.5 100v497h41v-497zM68.999 547.999c0 9.33301 2.83301 17 8.5 23s13.167 9 22.5 9s17 -3 23 -9s9 -13.667 9 -23
s-3 -16.833 -9 -22.5s-13.667 -8.5 -23 -8.5s-16.833 2.83301 -22.5 8.5s-8.5 13.167 -8.5 22.5z" />
    <glyph glyph-name="k" unicode="k" horiz-adv-x="426" 
d="M174 223l-57 -46v-177h-41v653h41v-429l217 176h62l-190 -154l210 -246h-54z" />
    <glyph glyph-name="l" unicode="l" horiz-adv-x="197" 
d="M119 0h-41v653h41v-653z" />
    <glyph glyph-name="m" unicode="m" horiz-adv-x="761" 
d="M398 297c4 -17.333 6.00391 -35.667 6.00391 -55v-242h-41v242c0 40 -9.5 71.833 -28.5 95.5s-45.5 35.5 -79.5 35.5c-16.667 0 -31.834 -2.16699 -45.501 -6.5s-26.334 -9.83301 -38.001 -16.5s-22.334 -14.167 -32.001 -22.5s-18.5 -16.833 -26.5 -25.5v-302h-41v400
h37l4 -55c6 6.66699 13.667 13.667 23 21s20 14.333 32 21s25.5 12.167 40.5 16.5s31.167 6.5 48.5 6.5c30 0 55.667 -6.66699 77 -20s38 -32 50 -56c22 23.333 46.167 41.833 72.5 55.5s55.5 20.5 87.5 20.5c45.333 0 81.166 -15.333 107.499 -46
s39.5 -71.334 39.5 -122.001v-242h-41v242c0 40 -9.5 71.833 -28.5 95.5s-45.5 35.5 -79.5 35.5c-16.667 0 -32 -2.16699 -46 -6.5s-27 -10.166 -39 -17.499s-22.833 -15.5 -32.5 -24.5s-18.5 -18.167 -26.5 -27.5z" />
    <glyph glyph-name="n" unicode="n" horiz-adv-x="498" 
d="M72 400h37l4 -57c6.66699 6.66699 15 14 25 22s21.333 15.333 34 22s27 12.167 43 16.5s33.667 6.5 53 6.5c50 0 89.167 -15.5 117.5 -46.5s42.5 -73.167 42.5 -126.5v-237h-41v237c0 42 -10.5 75.167 -31.5 99.5s-51.5 36.5 -91.5 36.5c-18 0 -34.833 -2.33301 -50.5 -7
s-29.667 -10.667 -42 -18s-23.5 -15.5 -33.5 -24.5s-18.333 -17.5 -25 -25.5v-298h-41v400z" />
    <glyph glyph-name="o" unicode="o" horiz-adv-x="499" 
d="M44 200c0 28.667 5.16699 55.834 15.5 81.501s24.833 48 43.5 67s40.334 34 65.001 45s51.667 16.5 81 16.5c28.667 0 55.667 -5.5 81 -16.5s47.166 -26 65.499 -45s32.833 -41.333 43.5 -67s16 -52.834 16 -81.501c0 -29.333 -5.33301 -56.666 -16 -81.999
s-25.167 -47.333 -43.5 -66s-40.166 -33.5 -65.499 -44.5s-52.333 -16.5 -81 -16.5c-29.333 0 -56.333 5.5 -81 16.5s-46.334 25.833 -65.001 44.5s-33.167 40.667 -43.5 66s-15.5 52.666 -15.5 81.999zM85 200c0 -25.333 4.16699 -48.5 12.5 -69.5s19.833 -39 34.5 -54
s32 -26.833 52 -35.5s41.667 -13 65 -13s45 4.33301 65 13s37.5 20.5 52.5 35.5s26.667 33 35 54s12.5 44.167 12.5 69.5c0 24.667 -4.16699 47.667 -12.5 69s-20 39.666 -35 54.999s-32.5 27.333 -52.5 36s-41.667 13 -65 13s-45 -4.33301 -65 -13s-37.333 -20.667 -52 -36
s-26.167 -33.666 -34.5 -54.999s-12.5 -44.333 -12.5 -69z" />
    <glyph glyph-name="p" unicode="p" horiz-adv-x="513" 
d="M271 28c24 0 45.667 4.49805 65 13.498s35.666 21.5 48.999 37.5s23.5 34.667 30.5 56s10.5 44 10.5 68c0 22.667 -3.66699 44.334 -11 65.001s-17.833 38.834 -31.5 54.501s-30 28 -49 37s-40.167 13.5 -63.5 13.5c-25.333 0 -48 -4.33301 -68 -13
s-36.833 -20.667 -50.5 -36s-24 -33.333 -31 -54s-10.5 -43 -10.5 -67s3.66699 -46.667 11 -68s17.833 -40 31.5 -56s30.334 -28.5 50.001 -37.5s42.167 -13.5 67.5 -13.5zM113 -250.002l-41 -0.000976562v650h38l3 -70c16.667 24 38.5 43.333 65.5 58s57.833 22 92.5 22
c30 0 57 -5.33301 81 -16s44.5 -25.167 61.5 -43.5s30.167 -40.166 39.5 -65.499s14 -52.666 14 -81.999c0 -30.667 -4.5 -58.834 -13.5 -84.501s-22 -48 -39 -67s-37.667 -33.833 -62 -44.5s-51.833 -16 -82.5 -16c-34 0 -65 7.16699 -93 21.5s-49.333 34.5 -64 60.5v-323z
" />
    <glyph glyph-name="q" unicode="q" horiz-adv-x="513" 
d="M242 28c25.333 0 47.833 4.50195 67.5 13.502s36.334 21.5 50.001 37.5s24.167 34.667 31.5 56s11 44 11 68s-3.5 46.333 -10.5 67s-17.333 38.667 -31 54s-30.5 27.333 -50.5 36s-42.667 13 -68 13c-23.333 0 -44.5 -4.5 -63.5 -13.5s-35.333 -21.333 -49 -37
s-24.167 -33.834 -31.5 -54.501s-11 -42.334 -11 -65.001c0 -24 3.5 -46.667 10.5 -68s17.167 -40 30.5 -56s29.666 -28.5 48.999 -37.5s41 -13.5 65 -13.5zM400 73.002c-14.667 -26 -36 -46.166 -64 -60.499s-59 -21.5 -93 -21.5c-30.667 0 -58.167 5.33301 -82.5 16
s-45 25.5 -62 44.5s-30 41.333 -39 67s-13.5 53.834 -13.5 84.501c0 29.333 4.66699 56.666 14 81.999s22.5 47.166 39.5 65.499s37.5 32.833 61.5 43.5s51 16 81 16c34.667 0 65.5 -7.33301 92.5 -22s48.833 -34 65.5 -58l3 70h38v-650h-41v323z" />
    <glyph glyph-name="r" unicode="r" horiz-adv-x="304" 
d="M72 400h36.998l4 -57c6.66699 6 15 13 25 21s22.167 15.333 36.5 22s31 11.5 50 14.5s40.833 2.83301 65.5 -0.5v-37c-23.333 3.33301 -44.166 3.5 -62.499 0.5s-34.666 -8 -48.999 -15s-26.833 -15 -37.5 -24s-20 -17.833 -28 -26.5v-298h-41v400z" />
    <glyph glyph-name="s" unicode="s" horiz-adv-x="379" 
d="M189 27c28 0 52.666 5.83105 73.999 17.498s32 30.5 32 56.5c0 26.667 -11.167 46.167 -33.5 58.5s-50.833 22.5 -85.5 30.5c-16 4 -31.5 8.83301 -46.5 14.5s-28.167 13 -39.5 22s-20.333 19.833 -27 32.5s-10 27.667 -10 45c0 13.333 2.83301 26.333 8.5 39
s14.167 24 25.5 34s25.5 18 42.5 24s36.833 9 59.5 9c20 0 38 -2.66699 54 -8s29.833 -12.5 41.5 -21.5s21 -19.167 28 -30.5s11.833 -23 14.5 -35h-42c-2 6.66699 -5.16699 13.5 -9.5 20.5s-10.333 13.333 -18 19s-17.167 10.334 -28.5 14.001s-25 5.5 -41 5.5
c-30.667 0 -54.167 -6.5 -70.5 -19.5s-24.5 -29.833 -24.5 -50.5c0 -24 9 -41.5 27 -52.5s42.667 -20.167 74 -27.5c19.333 -4.66699 37.5 -10.167 54.5 -16.5s32 -14.166 45 -23.499s23.167 -20.666 30.5 -33.999s11 -29.333 11 -48s-4 -34.834 -12 -48.501
s-18.833 -25.167 -32.5 -34.5s-29.334 -16.333 -47.001 -21s-36.167 -7 -55.5 -7c-42 0 -76.167 9.33301 -102.5 28s-42.166 40.667 -47.499 66h41c3.33301 -13.333 13.833 -26.333 31.5 -39s43.834 -19 78.501 -19z" />
    <glyph glyph-name="t" unicode="t" horiz-adv-x="310" 
d="M12 400l89.001 0.00195312l10 142h31v-142h132v-35h-132v-249c0 -18 1.83301 -32.833 5.5 -44.5s8.83398 -20.834 15.501 -27.501s15 -11.167 25 -13.5s21 -3.5 33 -3.5c14.667 0 26.667 0.666992 36 2s17.666 3 24.999 5v-34c-16 -6 -36.333 -9 -61 -9
c-17.333 0 -33.333 2 -48 6s-27.334 10.667 -38.001 20s-19 22.166 -25 38.499s-9 36.5 -9 60.5v249h-89v35z" />
    <glyph glyph-name="u" unicode="u" horiz-adv-x="488" 
d="M375 68c-6 -8.66699 -13.665 -17.6689 -22.998 -27.002s-20.5 -17.666 -33.5 -24.999s-27.833 -13.5 -44.5 -18.5s-35.334 -7.5 -56.001 -7.5c-44.667 0 -80.5 13.667 -107.5 41s-40.5 68 -40.5 122v247h41v-247c0 -43.333 9.5 -75.166 28.5 -95.499
s45.167 -30.5 78.5 -30.5c19.333 0 37.166 2.66699 53.499 8s31.166 12.333 44.499 21s24.833 18.167 34.5 28.5s17.834 20.5 24.501 30.5v285h41v-400h-39z" />
    <glyph glyph-name="v" unicode="v" horiz-adv-x="424" 
d="M12 400h42l158 -337l158 337h42l-200 -420z" />
    <glyph glyph-name="w" unicode="w" horiz-adv-x="586" 
d="M417 85l111 315h38l-146 -420l-127 330l-127 -330l-146 420h38l111 -315l124 329z" />
    <glyph glyph-name="x" unicode="x" horiz-adv-x="428" 
d="M69 0h-49l169 210l-152 190h49l128 -159l128 159h49l-153 -190l170 -210h-49l-145 180z" />
    <glyph glyph-name="y" unicode="y" horiz-adv-x="432" 
d="M111 -250h-40l128 272l-185 378h41l164 -338l159 338h42z" />
    <glyph glyph-name="z" unicode="z" horiz-adv-x="381" 
d="M47 400h314l-273 -366h264v-34h-334l272 366h-243v34z" />
    <glyph glyph-name="braceleft" unicode="{" horiz-adv-x="298" 
d="M50 243c12.667 6.66699 24.167 13.8281 34.5 21.4951s19.166 16.667 26.499 27s12.833 22.833 16.5 37.5s5.5 32 5.5 52v209c0 58 13 99.5 39 124.5s61.333 38.167 106 39.5v-39c-33.333 0 -59 -9.83301 -77 -29.5s-27 -54.167 -27 -103.5v-194
c0 -25.333 -2 -46.666 -6 -63.999s-9.83301 -32.166 -17.5 -44.499s-16.5 -22.833 -26.5 -31.5s-21 -17 -33 -25c12 -8 23 -16.333 33 -25s18.833 -19.167 26.5 -31.5s13.5 -27.166 17.5 -44.499s6 -38.666 6 -63.999v-194c0 -49.333 9 -83.833 27 -103.5
s43.667 -29.5 77 -29.5v-39c-44.667 1.33301 -80 14.5 -106 39.5s-39 66.5 -39 124.5v209c0 20 -1.83301 37.333 -5.5 52s-9.16699 27.167 -16.5 37.5s-16.166 19.333 -26.499 27s-21.833 14.834 -34.5 21.501v40z" />
    <glyph glyph-name="bar" unicode="|" horiz-adv-x="241" 
d="M141 -200h-41v1000h41v-1000z" />
    <glyph glyph-name="braceright" unicode="}" horiz-adv-x="298" 
d="M248 203c-13.333 -6.66699 -25 -13.8281 -35 -21.4951s-18.667 -16.667 -26 -27s-12.833 -22.833 -16.5 -37.5s-5.5 -32 -5.5 -52v-209c0 -58 -13 -99.5 -39 -124.5s-61.333 -38.167 -106 -39.5v39c33.333 0 59 9.83301 77 29.5s27 54.167 27 103.5v194
c0 25.333 2 46.666 6 63.999s9.83301 32.166 17.5 44.499s16.5 22.833 26.5 31.5s21 17 33 25c-12 8 -23 16.333 -33 25s-18.833 19.167 -26.5 31.5s-13.5 27.166 -17.5 44.499s-6 38.666 -6 63.999v194c0 49.333 -9 83.833 -27 103.5s-43.667 29.5 -77 29.5v39
c44.667 -1.33301 80 -14.5 106 -39.5s39 -66.5 39 -124.5v-209c0 -20 1.83301 -37.333 5.5 -52s9.16699 -27.167 16.5 -37.5s16 -19.333 26 -27s21.667 -14.834 35 -21.501v-40z" />
    <glyph glyph-name="asciitilde" unicode="~" 
d="M215 291c15.333 0 30.332 -2.83203 44.999 -8.49902s29 -11.834 43 -18.501l40.5 -18.5c13 -5.66699 25.5 -8.5 37.5 -8.5c36.667 0 63.667 20.667 81 62l43 -21c-13.333 -25.333 -30.333 -45.833 -51 -61.5s-44.667 -23.5 -72 -23.5c-16 0 -31 3 -45 9
s-27.833 12.5 -41.5 19.5s-27 13.5 -40 19.5s-26.5 9 -40.5 9c-38.667 0 -68 -19.333 -88 -58l-42 19c6.66699 10.667 14.334 20.834 23.001 30.501s18.167 18.167 28.5 25.5s22 13.166 35 17.499s27.5 6.5 43.5 6.5z" />
    <glyph glyph-name="uni00A0" unicode="&#xa0;" horiz-adv-x="310" 
 />
    <glyph glyph-name="exclamdown" unicode="&#xa1;" horiz-adv-x="270" 
d="M114 222h41v-520h-41v520zM174 373c0 -10.667 -3.83301 -19.834 -11.5 -27.501s-16.834 -11.5 -27.501 -11.5s-19.834 3.83301 -27.501 11.5s-11.5 16.834 -11.5 27.501s3.83301 19.834 11.5 27.501s16.834 11.5 27.501 11.5s19.834 -3.83301 27.501 -11.5
s11.5 -16.834 11.5 -27.501z" />
    <glyph glyph-name="cent" unicode="&#xa2;" 
d="M324 409c41.333 -3.33301 77.5 -16.0029 108.5 -38.0029s51.833 -50 62.5 -84h-41c-9.33301 22 -24.833 41 -46.5 57s-49.5 25.333 -83.5 28v-344c34 2.66699 62.5 11.834 85.5 27.501s38.833 35.167 47.5 58.5h41c-11.333 -36 -32.666 -64.5 -63.999 -85.5
s-68 -33.167 -110 -36.5v-92h-41v92c-26.667 2.66699 -51.5 9.83398 -74.5 21.501s-42.833 26.834 -59.5 45.501s-29.834 40 -39.501 64s-14.5 49.667 -14.5 77c0 26.667 4.66699 52.167 14 76.5s22.5 45.833 39.5 64.5s36.833 34 59.5 46s47.667 19.333 75 22v91h41v-91z
M136 199.997c0 -23.333 3.66699 -44.665 11 -63.998s17.666 -36.5 30.999 -51.5s28.833 -27.333 46.5 -37s37.167 -15.834 58.5 -18.501v343c-21.333 -2.66699 -40.833 -8.83398 -58.5 -18.501s-33.167 -22 -46.5 -37s-23.666 -32.5 -30.999 -52.5s-11 -41.333 -11 -64z" />
    <glyph glyph-name="sterling" unicode="&#xa3;" 
d="M252 304c-9.33301 18.667 -21.501 36.499 -36.501 53.499s-29.5 34.333 -43.5 52s-26 36.5 -36 56.5s-15 42.333 -15 67c0 22 4.16699 43.5 12.5 64.5s20.5 39.833 36.5 56.5s35.833 30 59.5 40s50.5 15 80.5 15s57.333 -5.33301 82 -16s45.5 -25.167 62.5 -43.5
s29.5 -40.166 37.5 -65.499s10.667 -52.666 8 -81.999h-43c3.33301 49.333 -7.83398 89.333 -33.501 120s-63.5 46 -113.5 46c-24 0 -45 -4 -63 -12s-33.167 -18.5 -45.5 -31.5s-21.666 -27.5 -27.999 -43.5s-9.5 -32 -9.5 -48c0 -22 5.16699 -42.333 15.5 -61
s22.833 -37 37.5 -55l44 -54c14.667 -18 26.667 -37.667 36 -59h147v-37h-136c0.666992 -4 1.16699 -8.16699 1.5 -12.5s0.5 -8.5 0.5 -12.5c0 -21.333 -3.83301 -41.833 -11.5 -61.5s-17.167 -38.334 -28.5 -56.001s-24 -33.5 -38 -47.5s-27.333 -26 -40 -36h335v-41h-453
v41h51c16 7.33301 32.5 18.333 49.5 33s32.333 31.334 46 50.001s24.834 38.167 33.501 58.5s13 40.166 13 59.499c0 8.66699 -1 17 -3 25h-131v37h119z" />
    <glyph glyph-name="currency" unicode="&#xa4;" horiz-adv-x="618" 
d="M119 138c-18.667 22 -33.1689 46.6689 -43.502 74.002s-15.5 56.666 -15.5 87.999c0 30 5.16699 58.667 15.5 86s24.5 51.666 42.5 72.999l-43 43l29 29l42 -43c22 19.333 46.833 34.333 74.5 45s57.167 16 88.5 16c30.667 0 59.834 -5.33301 87.501 -16
s52.167 -25.334 73.5 -44.001l42 42l29 -29l-42 -42c18.667 -21.333 33.167 -45.666 43.5 -72.999s15.5 -56.333 15.5 -87c0 -31.333 -5.33301 -60.833 -16 -88.5s-25.667 -52.5 -45 -74.5l44 -43l-29 -29l-44 44c-21.333 -18 -45.666 -32.167 -72.999 -42.5
s-56 -15.5 -86 -15.5c-30.667 0 -59.667 5.16699 -87 15.5s-52 24.5 -74 42.5l-44 -44l-29 29zM101.998 300.002c0 -28.667 5.5 -55.5 16.5 -80.5s25.833 -46.833 44.5 -65.5s40.5 -33.5 65.5 -44.5s51.833 -16.5 80.5 -16.5s55.5 5.5 80.5 16.5s46.833 25.833 65.5 44.5
s33.5 40.5 44.5 65.5s16.5 51.833 16.5 80.5s-5.5 55.5 -16.5 80.5s-25.833 46.833 -44.5 65.5s-40.5 33.5 -65.5 44.5s-51.833 16.5 -80.5 16.5s-55.5 -5.5 -80.5 -16.5s-46.833 -25.833 -65.5 -44.5s-33.5 -40.5 -44.5 -65.5s-16.5 -51.833 -16.5 -80.5z" />
    <glyph glyph-name="yen" unicode="&#xa5;" 
d="M196 430l-166 270h46l219 -358l219 358h46l-165 -270h125v-37h-148l-52 -86h200v-37h-203v-270h-43v270h-204v37h201l-53 86h-148v37h126z" />
    <glyph glyph-name="brokenbar" unicode="&#xa6;" horiz-adv-x="241" 
d="M141 -140h-41v347h41v-347zM141 393h-41v347h41v-347z" />
    <glyph glyph-name="section" unicode="&#xa7;" 
d="M119 260c0 36 9.66797 68.6611 29.001 97.9941s44.333 51 75 65c-30.667 14.667 -54.167 32.334 -70.5 53.001s-24.5 50.334 -24.5 89.001c0 17.333 3.16699 34.666 9.5 51.999s16.5 33 30.5 47s31.833 25.5 53.5 34.5s48.167 13.5 79.5 13.5
c22 0 42.833 -3.33301 62.5 -10s37.167 -16 52.5 -28s28.166 -26.167 38.499 -42.5s17.166 -34.166 20.499 -53.499h-42c-5.33301 28 -19.833 50.5 -43.5 67.5s-53.167 25.5 -88.5 25.5c-23.333 0 -43.166 -3.33301 -59.499 -10s-30 -15.167 -41 -25.5
s-19 -21.666 -24 -33.999s-7.5 -24.166 -7.5 -35.499c0 -18.667 3 -34.667 9 -48s14.5 -24.666 25.5 -33.999s24.5 -17.5 40.5 -24.5s34.333 -13.5 55 -19.5c24.667 0 47.834 -4.83301 69.501 -14.5s40.667 -22.667 57 -39s29.166 -35.333 38.499 -57s14 -44.834 14 -69.501
c0 -37.333 -10 -70.666 -30 -99.999s-46 -50.666 -78 -63.999c36 -16.667 63.5 -36.167 82.5 -58.5s28.5 -52.5 28.5 -90.5c0 -26 -5 -49 -15 -69s-23.333 -36.667 -40 -50s-35.667 -23.5 -57 -30.5s-43.333 -10.5 -66 -10.5c-50.667 0 -92.834 12.5 -126.501 37.5
s-54.167 57.167 -61.5 96.5h43c5.33301 -28 20.333 -50.5 45 -67.5s58 -25.5 100 -25.5c16.667 0 33.167 2.5 49.5 7.5s30.833 12.5 43.5 22.5s22.834 22.167 30.501 36.5s11.5 31.166 11.5 50.499c0 18.667 -3.33301 34.834 -10 48.501s-16.5 25.667 -29.5 36
s-28.833 19.5 -47.5 27.5s-39.667 16 -63 24c-23.333 1.33301 -45.333 6.83301 -66 16.5s-38.667 22.5 -54 38.5s-27.333 34.667 -36 56s-13 44 -13 68zM164.001 259.994c0 -18.667 3.5 -36.167 10.5 -52.5s16.5 -30.5 28.5 -42.5s26.167 -21.5 42.5 -28.5
s33.833 -10.5 52.5 -10.5s36.167 3.5 52.5 10.5s30.666 16.5 42.999 28.5s22 26.167 29 42.5s10.5 33.833 10.5 52.5s-3.5 36.167 -10.5 52.5s-16.667 30.666 -29 42.999s-26.666 22 -42.999 29s-33.833 10.5 -52.5 10.5s-36.167 -3.5 -52.5 -10.5s-30.5 -16.667 -42.5 -29
s-21.5 -26.666 -28.5 -42.999s-10.5 -33.833 -10.5 -52.5z" />
    <glyph glyph-name="dieresis" unicode="&#xa8;" horiz-adv-x="300" 
d="M20 548c0 9.33301 2.83301 17 8.5 23s13.167 9 22.5 9s17 -3 23 -9s9 -13.667 9 -23s-3 -16.833 -9 -22.5s-13.667 -8.5 -23 -8.5s-16.833 2.83301 -22.5 8.5s-8.5 13.167 -8.5 22.5zM217 548c0 9.33301 2.83301 17 8.5 23s13.167 9 22.5 9s17 -3 23 -9s9 -13.667 9 -23
s-3 -16.833 -9 -22.5s-13.667 -8.5 -23 -8.5s-16.833 2.83301 -22.5 8.5s-8.5 13.167 -8.5 22.5z" />
    <glyph glyph-name="copyright" unicode="&#xa9;" horiz-adv-x="879" 
d="M270 351c0 24.667 4.66406 47.8359 13.9971 69.5029s22 40.667 38 57s34.833 29.166 56.5 38.499s45.167 14 70.5 14c42 0 77.833 -11.833 107.5 -35.5s51.834 -54.5 66.501 -92.5h-45c-10 23.333 -26 43.666 -48 60.999s-49 26 -81 26c-19.333 0 -37.333 -3.5 -54 -10.5
s-31.167 -16.833 -43.5 -29.5s-22.166 -27.334 -29.499 -44.001s-11 -34.667 -11 -54s3.66699 -37.333 11 -54s17.166 -31.167 29.499 -43.5s26.833 -22 43.5 -29s34.667 -10.5 54 -10.5c32 0 59.333 8.66699 82 26s38.334 38.666 47.001 63.999h45
c-13.333 -39.333 -35.166 -71 -65.499 -95s-66.5 -36 -108.5 -36c-25.333 0 -48.833 4.66699 -70.5 14s-40.5 22 -56.5 38s-28.667 34.833 -38 56.5s-14 44.834 -14 69.501zM79.9971 350.002c0 50 9.33301 96.833 28 140.5s44.334 81.667 77.001 114s70.667 58 114 77
s90 28.5 140 28.5s96.833 -9.5 140.5 -28.5s81.667 -44.667 114 -77s58 -70.333 77 -114s28.5 -90.5 28.5 -140.5s-9.5 -96.667 -28.5 -140s-44.667 -81.333 -77 -114s-70.333 -58.334 -114 -77.001s-90.5 -28 -140.5 -28s-96.667 9.33301 -140 28
s-81.333 44.334 -114 77.001s-58.334 70.667 -77.001 114s-28 90 -28 140zM123.997 350.002c0 -44.667 8.16699 -86.334 24.5 -125.001s38.833 -72.167 67.5 -100.5s62 -50.5 100 -66.5s79 -24 123 -24s85.167 8 123.5 24s71.666 38.167 99.999 66.5
s50.833 61.833 67.5 100.5s25 80.334 25 125.001s-8.33301 86.334 -25 125.001s-39.167 72.167 -67.5 100.5s-61.666 50.666 -99.999 66.999s-79.5 24.5 -123.5 24.5s-85 -8.16699 -123 -24.5s-71.333 -38.666 -100 -66.999s-51.167 -61.833 -67.5 -100.5
s-24.5 -80.334 -24.5 -125.001z" />
    <glyph glyph-name="ordfeminine" unicode="&#xaa;" horiz-adv-x="340" 
d="M50 619c5.33301 26 19.001 46.333 41.001 61s47.667 22 77 22c37.333 0 66.666 -9.33301 87.999 -28s32 -44 32 -76v-198h-32l-2 44c-9.33301 -13.333 -21.833 -24.5 -37.5 -33.5s-37.5 -13.5 -65.5 -13.5c-34 0 -62 8 -84 24s-33 39.667 -33 71
c0 32 11.333 55.833 34 71.5s58.667 23.5 108 23.5h78v11c0 22.667 -7.33301 40.5 -22 53.5s-36 19.5 -64 19.5c-21.333 0 -39.333 -4.83301 -54 -14.5s-24 -22.167 -28 -37.5h-36zM151.001 428c13.333 0 26.166 2 38.499 6s23.333 9.83301 33 17.5
s17.334 17.167 23.001 28.5s8.5 24 8.5 38v38h-78c-37.333 0 -64.5 -5.16699 -81.5 -15.5s-25.5 -26.5 -25.5 -48.5c0 -21.333 7.66699 -37.333 23 -48s35 -16 59 -16z" />
    <glyph glyph-name="guillemotleft" unicode="&#xab;" horiz-adv-x="410" 
d="M210 144l-24 -28l-146 169l146 169l24 -28l-120 -141zM360 144l-24 -28l-146 169l146 169l24 -28l-120 -141z" />
    <glyph glyph-name="logicalnot" unicode="&#xac;" 
d="M514 304v-244h-37v207h-407v37h444z" />
    <glyph glyph-name="uni00AD" unicode="&#xad;" horiz-adv-x="200" 
d="M200 320v-40h-200v40h200z" />
    <glyph glyph-name="registered" unicode="&#xae;" horiz-adv-x="879" 
d="M375 176h-39v348h120c16 0 31.167 -1.83301 45.5 -5.5s27 -9.5 38 -17.5s19.667 -18.5 26 -31.5s9.5 -28.833 9.5 -47.5c0 -32 -9.16699 -55.5 -27.5 -70.5s-40.833 -24.167 -67.5 -27.5l119 -148h-50l-118 147h-56v-147zM457 361c20 0 37.667 4.5 53 13.5
s23 24.833 23 47.5s-7.5 38.667 -22.5 48s-33.167 14 -54.5 14h-81v-123h82zM80 350c0 50 9.33301 96.833 28 140.5s44.334 81.667 77.001 114s70.667 58 114 77s90 28.5 140 28.5s96.833 -9.5 140.5 -28.5s81.667 -44.667 114 -77s58 -70.333 77 -114
s28.5 -90.5 28.5 -140.5s-9.5 -96.667 -28.5 -140s-44.667 -81.333 -77 -114s-70.333 -58.334 -114 -77.001s-90.5 -28 -140.5 -28s-96.667 9.33301 -140 28s-81.333 44.334 -114 77.001s-58.334 70.667 -77.001 114s-28 90 -28 140zM124 350
c0 -44.667 8.16699 -86.334 24.5 -125.001s38.833 -72.167 67.5 -100.5s62 -50.5 100 -66.5s79 -24 123 -24s85.167 8 123.5 24s71.666 38.167 99.999 66.5s50.833 61.833 67.5 100.5s25 80.334 25 125.001s-8.33301 86.334 -25 125.001s-39.167 72.167 -67.5 100.5
s-61.666 50.666 -99.999 66.999s-79.5 24.5 -123.5 24.5s-85 -8.16699 -123 -24.5s-71.333 -38.666 -100 -66.999s-51.167 -61.833 -67.5 -100.5s-24.5 -80.334 -24.5 -125.001z" />
    <glyph glyph-name="macron" unicode="&#xaf;" horiz-adv-x="300" 
d="M20 566h260v-35h-260v35z" />
    <glyph glyph-name="degree" unicode="&#xb0;" horiz-adv-x="392" 
d="M61 576c0 18 3.16602 35.165 9.49902 51.498s15.5 30.833 27.5 43.5s26.333 22.667 43 30s34.667 11 54 11c20 0 38.333 -3.66699 55 -11s31 -17.166 43 -29.499s21.333 -26.666 28 -42.999s10 -33.833 10 -52.5s-3.33301 -36.334 -10 -53.001s-16 -31.167 -28 -43.5
s-26.167 -22 -42.5 -29s-34.166 -10.5 -53.499 -10.5c-20 0 -38.333 3.5 -55 10.5s-31 16.667 -43 29s-21.333 26.833 -28 43.5s-10 34.334 -10 53.001zM196.999 468.998c14 0 27.335 2.83301 40.002 8.5s23.834 13.334 33.501 23.001s17.167 21 22.5 34s8 26.833 8 41.5
s-2.83301 28.5 -8.5 41.5s-13.167 24.333 -22.5 34s-20.333 17.334 -33 23.001s-26.334 8.5 -41.001 8.5s-28.334 -2.83301 -41.001 -8.5s-23.834 -13.334 -33.501 -23.001s-17.167 -21 -22.5 -34s-8 -26.833 -8 -41.5s2.83301 -28.5 8.5 -41.5s13.167 -24.333 22.5 -34
s20.5 -17.334 33.5 -23.001s26.833 -8.5 41.5 -8.5z" />
    <glyph glyph-name="plusminus" unicode="&#xb1;" 
d="M314 510v-196h206v-37h-206v-207h-37v207h-207v37h207v196h37zM520 37v-37h-450v37h450z" />
    <glyph glyph-name="twosuperior" unicode="&#xb2;" horiz-adv-x="362" 
d="M316 561v-36.001h-274l153 155l20 20.5c7.33301 7.66699 14.333 16 21 25s12.167 18.167 16.5 27.5s6.5 18.666 6.5 27.999c0 19.333 -6.83301 35.333 -20.5 48s-32.167 19 -55.5 19s-42.5 -6.16699 -57.5 -18.5s-22.5 -29.166 -22.5 -50.499v-9h-39v9
c0 30 10.667 54.833 32 74.5s50 29.5 86 29.5s64.667 -9.66699 86 -29s32 -44.333 32 -75c0 -12 -2.33301 -23.667 -7 -35s-10.5 -22.166 -17.5 -32.499s-14.833 -20 -23.5 -29l-25 -25.5l-97 -96h186z" />
    <glyph glyph-name="threesuperior" unicode="&#xb3;" horiz-adv-x="343" 
d="M163 727c25.333 0.666992 44.835 6.32812 58.502 16.9951s20.5 26 20.5 46c0 16 -6.5 29.5 -19.5 40.5s-30.833 16.5 -53.5 16.5c-22 0 -40 -5.16699 -54 -15.5s-21.667 -25.166 -23 -44.499h-40c1.33301 30 12.666 53.667 33.999 71s49 26 83 26c36 0 64 -9 84 -27
s30 -40 30 -66c0 -22 -6 -39.5 -18 -52.5s-26 -22.167 -42 -27.5c17.333 -4.66699 33.166 -14.167 47.499 -28.5s21.5 -34.166 21.5 -59.499c0 -28 -11 -52 -33 -72s-52.667 -30 -92 -30c-16.667 0 -32.667 2.33301 -48 7s-28.833 11.334 -40.5 20.001
s-21 19.334 -28 32.001s-10.5 26.667 -10.5 42h39c1.33301 -20 10.333 -35.667 27 -47s36.667 -17 60 -17c26 0 46.5 6.83301 61.5 20.5s22.5 29.167 22.5 46.5c0 22.667 -8 39.334 -24 50.001s-37 16.667 -63 18v34z" />
    <glyph glyph-name="acute" unicode="&#xb4;" horiz-adv-x="300" 
d="M230 611l-148 -96l-22 21l138 118z" />
    <glyph glyph-name="mu" unicode="&#xb5;" horiz-adv-x="490" 
d="M72 400l40.998 -0.00195312v-247c0 -43.333 9.83301 -75.166 29.5 -95.499s48.167 -30.5 85.5 -30.5c17.333 0 33.666 2.66699 48.999 8s29.333 12.333 42 21s23.834 18.167 33.501 28.5s17.834 20.5 24.501 30.5v285h41v-400h-39l-2 68
c-6 -8.66699 -13.667 -17.667 -23 -27s-20.166 -17.666 -32.499 -24.999s-26.333 -13.5 -42 -18.5s-32.834 -7.5 -51.501 -7.5c-55.333 0 -93.666 16.667 -114.999 50v-290h-41v650z" />
    <glyph glyph-name="paragraph" unicode="&#xb6;" horiz-adv-x="550" 
d="M272 346c-25.333 0 -48.667 3.99902 -70 11.999s-39.5 19.333 -54.5 34s-26.667 32.5 -35 53.5s-12.5 44.5 -12.5 70.5c0 62.667 16.167 109 48.5 139s83.833 45 154.5 45h157v-39h-84c-22 0 -37.667 -6.16699 -47 -18.5s-14 -28.166 -14 -47.499v-795h-43v546z" />
    <glyph glyph-name="periodcentered" unicode="&#xb7;" horiz-adv-x="218" 
d="M70 311c0 10.667 3.83301 19.834 11.5 27.501s16.834 11.5 27.501 11.5s19.834 -3.83301 27.501 -11.5s11.5 -16.834 11.5 -27.501s-3.83301 -19.834 -11.5 -27.501s-16.834 -11.5 -27.501 -11.5s-19.834 3.83301 -27.501 11.5s-11.5 16.834 -11.5 27.501z" />
    <glyph glyph-name="cedilla" unicode="&#xb8;" horiz-adv-x="300" 
d="M109 -211l-31 17l73 154l50 -17z" />
    <glyph glyph-name="onesuperior" unicode="&#xb9;" horiz-adv-x="253" 
d="M129 829l-84 -47l-18 31l142 84v-372h-40v304z" />
    <glyph glyph-name="ordmasculine" unicode="&#xba;" horiz-adv-x="383" 
d="M40 547c0 21.333 3.83301 41.333 11.5 60s18.334 35 32.001 49s29.834 25.167 48.501 33.5s38.667 12.5 60 12.5s41.166 -4.16699 59.499 -12.5s34.333 -19.5 48 -33.5s24.334 -30.333 32.001 -49s11.5 -38.667 11.5 -60s-3.83301 -41.166 -11.5 -59.499
s-18.334 -34.5 -32.001 -48.5s-29.667 -25 -48 -33s-38.166 -12 -59.499 -12s-41.333 4 -60 12s-34.834 19 -48.501 33s-24.334 30.167 -32.001 48.5s-11.5 38.166 -11.5 59.499zM76 547c0 -35.333 11 -64.333 33 -87s49.667 -34 83 -34c16 0 31.167 3 45.5 9
s26.666 14.333 36.999 25s18.5 23.5 24.5 38.5s9 31.167 9 48.5c0 18 -3 34.5 -9 49.5s-14.167 28 -24.5 39s-22.666 19.5 -36.999 25.5s-29.5 9 -45.5 9c-16.667 0 -32 -3 -46 -9s-26.167 -14.5 -36.5 -25.5s-18.5 -24 -24.5 -39s-9 -31.5 -9 -49.5z" />
    <glyph glyph-name="guillemotright" unicode="&#xbb;" horiz-adv-x="410" 
d="M170 285l-120 141l24 28l146 -169l-146 -169l-24 28zM320 285l-120 141l24 28l146 -169l-146 -169l-24 28z" />
    <glyph glyph-name="onequarter" unicode="&#xbc;" horiz-adv-x="830" 
d="M758 101v-36h-50v-65h-40v65h-202l242 329v-293h50zM231 -12l-36 21l404 702l36 -20zM169 651l-84 -47l-18 31l142 84v-372h-40v304zM670 282l-134 -181h134v181z" />
    <glyph glyph-name="onehalf" unicode="&#xbd;" horiz-adv-x="830" 
d="M777 36v-36.001h-274l153 155l20 20.5c7.33301 7.66699 14.333 16 21 25s12.167 18.167 16.5 27.5s6.5 18.666 6.5 27.999c0 19.333 -6.83301 35.333 -20.5 48s-32.167 19 -55.5 19s-42.5 -6.16699 -57.5 -18.5s-22.5 -29.166 -22.5 -50.499v-9h-39v9
c0 30 10.667 54.833 32 74.5s50 29.5 86 29.5s64.667 -9.66699 86 -29s32 -44.333 32 -75c0 -12 -2.33301 -23.667 -7 -35s-10.5 -22.166 -17.5 -32.499s-14.833 -20 -23.5 -29l-25 -25.5l-97 -96h186zM231 -12.001l-36 21l404 702l36 -20zM169 650.999l-84 -47l-18 31
l142 84v-372h-40v304z" />
    <glyph glyph-name="threequarters" unicode="&#xbe;" horiz-adv-x="830" 
d="M758 101v-36h-50v-65h-40v65h-202l242 329v-293h50zM231 -12l-36 21l404 702l36 -20zM159 548c25.333 0.666992 44.835 6.32812 58.502 16.9951s20.5 26 20.5 46c0 16 -6.5 29.5 -19.5 40.5s-30.833 16.5 -53.5 16.5c-22 0 -40 -5.16699 -54 -15.5
s-21.667 -25.166 -23 -44.499h-40c1.33301 30 12.666 53.667 33.999 71s49 26 83 26c36 0 64 -9 84 -27s30 -40 30 -66c0 -22 -6 -39.5 -18 -52.5s-26 -22.167 -42 -27.5c17.333 -4.66699 33.166 -14.167 47.499 -28.5s21.5 -34.166 21.5 -59.499c0 -28 -11 -52 -33 -72
s-52.667 -30 -92 -30c-16.667 0 -32.667 2.33301 -48 7s-28.833 11.334 -40.5 20.001s-21 19.334 -28 32.001s-10.5 26.667 -10.5 42h39c1.33301 -20 10.333 -35.667 27 -47s36.667 -17 60 -17c26 0 46.5 6.83301 61.5 20.5s22.5 29.167 22.5 46.5
c0 22.667 -8 39.334 -24 50.001s-37 16.667 -63 18v34zM670.002 281.994l-134 -181h134v181z" />
    <glyph glyph-name="questiondown" unicode="&#xbf;" horiz-adv-x="512" 
d="M245 262l0.00195312 -144.001c-18 -12 -37.333 -25.667 -58 -41s-39.834 -32.166 -57.501 -50.499s-32.167 -38.5 -43.5 -60.5s-17 -45.667 -17 -71c0 -22.667 3.83301 -43.834 11.5 -63.501s18.834 -36.667 33.501 -51s32.667 -25.666 54 -33.999
s45.666 -12.5 72.999 -12.5c58 0 102.167 15.333 132.5 46s43.833 70.667 40.5 120h43c2.66699 -29.333 -1 -56.666 -11 -81.999s-24.833 -47.166 -44.5 -65.499s-43.334 -32.833 -71.001 -43.5s-57.5 -16 -89.5 -16c-34 0 -64.333 5.16699 -91 15.5
s-49.167 24.666 -67.5 42.999s-32.333 40 -42 65s-14.5 52.167 -14.5 81.5c0 28.667 5.5 54.667 16.5 78s25 44.666 42 63.999s35.833 37 56.5 53s41 31 61 45v124h43zM263.002 372.999c0 -10.667 -3.83301 -19.834 -11.5 -27.501s-16.834 -11.5 -27.501 -11.5
s-19.834 3.83301 -27.501 11.5s-11.5 16.834 -11.5 27.501s3.83301 19.834 11.5 27.501s16.834 11.5 27.501 11.5s19.834 -3.83301 27.501 -11.5s11.5 -16.834 11.5 -27.501z" />
    <glyph glyph-name="Agrave" unicode="&#xc0;" horiz-adv-x="687" 
d="M618 0h45l-320 730l-319 -730h45l95 219h358zM343 631l161 -371h-322zM290 886l138 -107l-22 -19l-148 87z" />
    <glyph glyph-name="Aacute" unicode="&#xc1;" horiz-adv-x="687" 
d="M618 0h45l-320 730l-319 -730h45l95 219h358zM343 631l161 -371h-322zM428 847l-148 -87l-22 19l138 107z" />
    <glyph glyph-name="Acircumflex" unicode="&#xc2;" horiz-adv-x="687" 
d="M522 219h-358l-95 -219h-45l319 730l320 -730h-45zM182 260h322l-161 371zM460 784l-21 -23l-96 60l-96 -60l-21 23l117 83z" />
    <glyph glyph-name="Atilde" unicode="&#xc3;" horiz-adv-x="687" 
d="M522 219h-358l-95 -219h-45l319 730l320 -730h-45zM182 260h322l-161 371zM213 788c6 13.333 15.001 25.001 27.001 35.001s26.333 15 43 15c10 0 20.333 -1.66699 31 -5s21 -7 31 -11s20 -7.66699 30 -11s19.667 -5 29 -5c10.667 0 19.834 3.5 27.501 10.5
s13.5 14.167 17.5 21.5l24 -15c-4 -15.333 -12.833 -27.833 -26.5 -37.5s-29.167 -14.5 -46.5 -14.5c-8.66699 0 -18.167 1.66699 -28.5 5s-20.833 7.16602 -31.5 11.499s-21.334 8.16602 -32.001 11.499s-20.334 5 -29.001 5c-11.333 0 -19.833 -3.16699 -25.5 -9.5
s-10.5 -14.166 -14.5 -23.499z" />
    <glyph glyph-name="Adieresis" unicode="&#xc4;" horiz-adv-x="687" 
d="M522 219h-358l-95 -219h-45l319 730l320 -730h-45zM182 260h322l-161 371zM213 795c0 8 2.83301 14.833 8.5 20.5s13.167 8.5 22.5 8.5s17 -2.83301 23 -8.5s9 -12.5 9 -20.5s-3 -14.667 -9 -20s-13.667 -8 -23 -8s-16.833 2.66699 -22.5 8s-8.5 12 -8.5 20zM410 795
c0 8 2.83301 14.833 8.5 20.5s13.167 8.5 22.5 8.5s17 -2.83301 23 -8.5s9 -12.5 9 -20.5s-3 -14.667 -9 -20s-13.667 -8 -23 -8s-16.833 2.66699 -22.5 8s-8.5 12 -8.5 20z" />
    <glyph glyph-name="Aring" unicode="&#xc5;" horiz-adv-x="687" 
d="M522 219h-358l-95 -219h-45l319 730l320 -730h-45zM182 260h322l-161 371zM343 905c22.667 0 42.167 -7.33301 58.5 -22s24.5 -32.334 24.5 -53.001c0 -20 -8.16699 -37.333 -24.5 -52s-35.833 -22 -58.5 -22s-42.167 7.33301 -58.5 22s-24.5 32 -24.5 52
c0 20.667 8.16699 38.334 24.5 53.001s35.833 22 58.5 22zM343 877c-14 0 -26 -4.5 -36 -13.5s-15 -20.167 -15 -33.5s5 -24.5 15 -33.5s22 -13.5 36 -13.5s26 4.5 36 13.5s15 20.167 15 33.5s-5 24.5 -15 33.5s-22 13.5 -36 13.5z" />
    <glyph glyph-name="AE" unicode="&#xc6;" horiz-adv-x="1010" 
d="M566 659v-259h354v-41h-354v-318h382v-41h-425v219h-292l-156 -219h-51l499 700h425v-41h-382zM523 260v370l-263 -370h263z" />
    <glyph glyph-name="Ccedilla" unicode="&#xc7;" horiz-adv-x="800" 
d="M56 350c0 50 9.33301 96.8359 28 140.503s44.334 81.667 77.001 114s71 58 115 77s91.333 28.5 142 28.5c41.333 0 79.666 -5.66699 114.999 -17s67.333 -27 96 -47s53.5 -44 74.5 -72s37.833 -58.667 50.5 -92h-47c-10 24.667 -23.833 48.334 -41.5 71.001
s-38.667 42.5 -63 59.5s-52 30.5 -83 40.5s-64.5 15 -100.5 15c-45.333 0 -87.333 -8.16699 -126 -24.5s-72.334 -38.833 -101.001 -67.5s-51.167 -62.334 -67.5 -101.001s-24.5 -80.334 -24.5 -125.001s8.16699 -86.334 24.5 -125.001s38.833 -72.334 67.5 -101.001
s62.334 -51.167 101.001 -67.5s80.667 -24.5 126 -24.5c36 0 69.833 5.16699 101.5 15.5s60 24.333 85 42s46.333 38.167 64 61.5s30.834 48.333 39.501 75h47c-11.333 -35.333 -27.5 -67.333 -48.5 -96s-46.167 -53.5 -75.5 -74.5s-62 -37.167 -98 -48.5
s-74.667 -17 -116 -17c-50.667 0 -98 9.5 -142 28.5s-82.333 44.667 -115 77s-58.334 70.333 -77.001 114s-28 90.5 -28 140.5zM370 -210.997l-31 17l73 154l50 -17z" />
    <glyph glyph-name="Egrave" unicode="&#xc8;" horiz-adv-x="597" 
d="M535 659v41h-445v-700h445v41h-402v318h374v41h-374v259h402zM275 886l138 -107l-22 -19l-148 87z" />
    <glyph glyph-name="Eacute" unicode="&#xc9;" horiz-adv-x="597" 
d="M535 659v41h-445v-700h445v41h-402v318h374v41h-374v259h402zM413 847l-148 -87l-22 19l138 107z" />
    <glyph glyph-name="Ecircumflex" unicode="&#xca;" horiz-adv-x="597" 
d="M133 659v-259h374v-41h-374v-318h402v-41h-445v700h445v-41h-402zM437 784l-21 -23l-96 60l-96 -60l-21 23l117 83z" />
    <glyph glyph-name="Edieresis" unicode="&#xcb;" horiz-adv-x="597" 
d="M133 659v-259h374v-41h-374v-318h402v-41h-445v700h445v-41h-402zM198 795c0 8 2.83301 14.833 8.5 20.5s13.167 8.5 22.5 8.5s17 -2.83301 23 -8.5s9 -12.5 9 -20.5s-3 -14.667 -9 -20s-13.667 -8 -23 -8s-16.833 2.66699 -22.5 8s-8.5 12 -8.5 20zM395 795
c0 8 2.83301 14.833 8.5 20.5s13.167 8.5 22.5 8.5s17 -2.83301 23 -8.5s9 -12.5 9 -20.5s-3 -14.667 -9 -20s-13.667 -8 -23 -8s-16.833 2.66699 -22.5 8s-8.5 12 -8.5 20z" />
    <glyph glyph-name="Igrave" unicode="&#xcc;" horiz-adv-x="251" 
d="M147 700h-43v-700h43v700zM72 886l138 -107l-22 -19l-148 87z" />
    <glyph glyph-name="Iacute" unicode="&#xcd;" horiz-adv-x="251" 
d="M147 700h-43v-700h43v700zM210 847l-148 -87l-22 19l138 107z" />
    <glyph glyph-name="Icircumflex" unicode="&#xce;" horiz-adv-x="251" 
d="M147 0h-43v700h43v-700zM242 784l-21 -23l-96 60l-96 -60l-21 23l117 83z" />
    <glyph glyph-name="Idieresis" unicode="&#xcf;" horiz-adv-x="251" 
d="M147 0h-43v700h43v-700zM-5 795c0 8 2.83301 14.833 8.5 20.5s13.167 8.5 22.5 8.5s17 -2.83301 23 -8.5s9 -12.5 9 -20.5s-3 -14.667 -9 -20s-13.667 -8 -23 -8s-16.833 2.66699 -22.5 8s-8.5 12 -8.5 20zM192 795c0 8 2.83301 14.833 8.5 20.5s13.167 8.5 22.5 8.5
s17 -2.83301 23 -8.5s9 -12.5 9 -20.5s-3 -14.667 -9 -20s-13.667 -8 -23 -8s-16.833 2.66699 -22.5 8s-8.5 12 -8.5 20z" />
    <glyph glyph-name="Eth" unicode="&#xd0;" horiz-adv-x="732" 
d="M90 292l-59.999 -0.00195312v37h60v371h234c52 0 99.5 -8.83301 142.5 -26.5s79.667 -42.167 110 -73.5s53.833 -68.166 70.5 -110.499s25 -88.166 25 -137.499c0 -50.667 -7.83301 -97.5 -23.5 -140.5s-38.334 -80.167 -68.001 -111.5s-65.5 -55.833 -107.5 -73.5
s-89 -26.5 -141 -26.5h-242v292zM332.001 40.998c46 0 87.501 7.66895 124.501 23.002s68.167 36.666 93.5 63.999s44.833 60 58.5 98s20.5 80 20.5 126c0 44 -7.16699 84.833 -21.5 122.5s-34.833 70.167 -61.5 97.5s-58.834 48.666 -96.501 63.999s-79.5 23 -125.5 23
h-191v-330h226v-37h-226v-251h199z" />
    <glyph glyph-name="Ntilde" unicode="&#xd1;" horiz-adv-x="746" 
d="M656 -31l-523 635v-604h-43v716l523 -630v614h43v-731zM243 788c6 13.333 15.001 25.001 27.001 35.001s26.333 15 43 15c10 0 20.333 -1.66699 31 -5s21 -7 31 -11s20 -7.66699 30 -11s19.667 -5 29 -5c10.667 0 19.834 3.5 27.501 10.5s13.5 14.167 17.5 21.5l24 -15
c-4 -15.333 -12.833 -27.833 -26.5 -37.5s-29.167 -14.5 -46.5 -14.5c-8.66699 0 -18.167 1.66699 -28.5 5s-20.833 7.16602 -31.5 11.499s-21.334 8.16602 -32.001 11.499s-20.334 5 -29.001 5c-11.333 0 -19.833 -3.16699 -25.5 -9.5s-10.5 -14.166 -14.5 -23.499z" />
    <glyph glyph-name="Ograve" unicode="&#xd2;" horiz-adv-x="831" 
d="M56 350c0 -50 9.33301 -96.667 28 -140s44.334 -81.333 77.001 -114s70.667 -58.334 114 -77.001s90 -28 140 -28s96.833 9.33301 140.5 28s81.667 44.334 114 77.001s58 70.667 77 114s28.5 90 28.5 140s-9.5 96.833 -28.5 140.5s-44.667 81.667 -77 114
s-70.333 58 -114 77s-90.5 28.5 -140.5 28.5s-96.667 -9.5 -140 -28.5s-81.333 -44.667 -114 -77s-58.334 -70.333 -77.001 -114s-28 -90.5 -28 -140.5zM100 350c0 44.667 8.16699 86.334 24.5 125.001s38.833 72.334 67.5 101.001s62 51.167 100 67.5s79 24.5 123 24.5
s85.167 -8.16699 123.5 -24.5s71.666 -38.833 99.999 -67.5s50.833 -62.334 67.5 -101.001s25 -80.334 25 -125.001s-8.33301 -86.334 -25 -125.001s-39.167 -72.167 -67.5 -100.5s-61.666 -50.666 -99.999 -66.999s-79.5 -24.5 -123.5 -24.5s-85 8.16699 -123 24.5
s-71.333 38.666 -100 66.999s-51.167 61.833 -67.5 100.5s-24.5 80.334 -24.5 125.001zM362 886l138 -107l-22 -19l-148 87z" />
    <glyph glyph-name="Oacute" unicode="&#xd3;" horiz-adv-x="831" 
d="M56 350c0 -50 9.33301 -96.667 28 -140s44.334 -81.333 77.001 -114s70.667 -58.334 114 -77.001s90 -28 140 -28s96.833 9.33301 140.5 28s81.667 44.334 114 77.001s58 70.667 77 114s28.5 90 28.5 140s-9.5 96.833 -28.5 140.5s-44.667 81.667 -77 114
s-70.333 58 -114 77s-90.5 28.5 -140.5 28.5s-96.667 -9.5 -140 -28.5s-81.333 -44.667 -114 -77s-58.334 -70.333 -77.001 -114s-28 -90.5 -28 -140.5zM100 350c0 44.667 8.16699 86.334 24.5 125.001s38.833 72.334 67.5 101.001s62 51.167 100 67.5s79 24.5 123 24.5
s85.167 -8.16699 123.5 -24.5s71.666 -38.833 99.999 -67.5s50.833 -62.334 67.5 -101.001s25 -80.334 25 -125.001s-8.33301 -86.334 -25 -125.001s-39.167 -72.167 -67.5 -100.5s-61.666 -50.666 -99.999 -66.999s-79.5 -24.5 -123.5 -24.5s-85 8.16699 -123 24.5
s-71.333 38.666 -100 66.999s-51.167 61.833 -67.5 100.5s-24.5 80.334 -24.5 125.001zM500 847l-148 -87l-22 19l138 107z" />
    <glyph glyph-name="Ocircumflex" unicode="&#xd4;" horiz-adv-x="831" 
d="M56 350c0 50 9.33301 96.833 28 140.5s44.334 81.667 77.001 114s70.667 58 114 77s90 28.5 140 28.5s96.833 -9.5 140.5 -28.5s81.667 -44.667 114 -77s58 -70.333 77 -114s28.5 -90.5 28.5 -140.5s-9.5 -96.667 -28.5 -140s-44.667 -81.333 -77 -114
s-70.333 -58.334 -114 -77.001s-90.5 -28 -140.5 -28s-96.667 9.33301 -140 28s-81.333 44.334 -114 77.001s-58.334 70.667 -77.001 114s-28 90 -28 140zM100 350c0 -44.667 8.16699 -86.334 24.5 -125.001s38.833 -72.167 67.5 -100.5s62 -50.666 100 -66.999
s79 -24.5 123 -24.5s85.167 8.16699 123.5 24.5s71.666 38.666 99.999 66.999s50.833 61.833 67.5 100.5s25 80.334 25 125.001s-8.33301 86.334 -25 125.001s-39.167 72.334 -67.5 101.001s-61.666 51.167 -99.999 67.5s-79.5 24.5 -123.5 24.5s-85 -8.16699 -123 -24.5
s-71.333 -38.833 -100 -67.5s-51.167 -62.334 -67.5 -101.001s-24.5 -80.334 -24.5 -125.001zM532 784l-21 -23l-96 60l-96 -60l-21 23l117 83z" />
    <glyph glyph-name="Otilde" unicode="&#xd5;" horiz-adv-x="831" 
d="M56 350c0 50 9.33301 96.833 28 140.5s44.334 81.667 77.001 114s70.667 58 114 77s90 28.5 140 28.5s96.833 -9.5 140.5 -28.5s81.667 -44.667 114 -77s58 -70.333 77 -114s28.5 -90.5 28.5 -140.5s-9.5 -96.667 -28.5 -140s-44.667 -81.333 -77 -114
s-70.333 -58.334 -114 -77.001s-90.5 -28 -140.5 -28s-96.667 9.33301 -140 28s-81.333 44.334 -114 77.001s-58.334 70.667 -77.001 114s-28 90 -28 140zM100 350c0 -44.667 8.16699 -86.334 24.5 -125.001s38.833 -72.167 67.5 -100.5s62 -50.666 100 -66.999
s79 -24.5 123 -24.5s85.167 8.16699 123.5 24.5s71.666 38.666 99.999 66.999s50.833 61.833 67.5 100.5s25 80.334 25 125.001s-8.33301 86.334 -25 125.001s-39.167 72.334 -67.5 101.001s-61.666 51.167 -99.999 67.5s-79.5 24.5 -123.5 24.5s-85 -8.16699 -123 -24.5
s-71.333 -38.833 -100 -67.5s-51.167 -62.334 -67.5 -101.001s-24.5 -80.334 -24.5 -125.001zM285 788c6 13.333 15.001 25.001 27.001 35.001s26.333 15 43 15c10 0 20.333 -1.66699 31 -5s21 -7 31 -11s20 -7.66699 30 -11s19.667 -5 29 -5
c10.667 0 19.834 3.5 27.501 10.5s13.5 14.167 17.5 21.5l24 -15c-4 -15.333 -12.833 -27.833 -26.5 -37.5s-29.167 -14.5 -46.5 -14.5c-8.66699 0 -18.167 1.66699 -28.5 5s-20.833 7.16602 -31.5 11.499s-21.334 8.16602 -32.001 11.499s-20.334 5 -29.001 5
c-11.333 0 -19.833 -3.16699 -25.5 -9.5s-10.5 -14.166 -14.5 -23.499z" />
    <glyph glyph-name="Odieresis" unicode="&#xd6;" horiz-adv-x="831" 
d="M56 350c0 50 9.33301 96.833 28 140.5s44.334 81.667 77.001 114s70.667 58 114 77s90 28.5 140 28.5s96.833 -9.5 140.5 -28.5s81.667 -44.667 114 -77s58 -70.333 77 -114s28.5 -90.5 28.5 -140.5s-9.5 -96.667 -28.5 -140s-44.667 -81.333 -77 -114
s-70.333 -58.334 -114 -77.001s-90.5 -28 -140.5 -28s-96.667 9.33301 -140 28s-81.333 44.334 -114 77.001s-58.334 70.667 -77.001 114s-28 90 -28 140zM100 350c0 -44.667 8.16699 -86.334 24.5 -125.001s38.833 -72.167 67.5 -100.5s62 -50.666 100 -66.999
s79 -24.5 123 -24.5s85.167 8.16699 123.5 24.5s71.666 38.666 99.999 66.999s50.833 61.833 67.5 100.5s25 80.334 25 125.001s-8.33301 86.334 -25 125.001s-39.167 72.334 -67.5 101.001s-61.666 51.167 -99.999 67.5s-79.5 24.5 -123.5 24.5s-85 -8.16699 -123 -24.5
s-71.333 -38.833 -100 -67.5s-51.167 -62.334 -67.5 -101.001s-24.5 -80.334 -24.5 -125.001zM285 795c0 8 2.83301 14.833 8.5 20.5s13.167 8.5 22.5 8.5s17 -2.83301 23 -8.5s9 -12.5 9 -20.5s-3 -14.667 -9 -20s-13.667 -8 -23 -8s-16.833 2.66699 -22.5 8
s-8.5 12 -8.5 20zM482 795c0 8 2.83301 14.833 8.5 20.5s13.167 8.5 22.5 8.5s17 -2.83301 23 -8.5s9 -12.5 9 -20.5s-3 -14.667 -9 -20s-13.667 -8 -23 -8s-16.833 2.66699 -22.5 8s-8.5 12 -8.5 20z" />
    <glyph glyph-name="multiply" unicode="&#xd7;" 
d="M489 452l-167 -167l167 -167l-26 -26l-167 167l-168 -168l-26 26l168 168l-168 168l26 26l168 -168l167 167z" />
    <glyph glyph-name="Oslash" unicode="&#xd8;" horiz-adv-x="831" 
d="M613 650c48.667 -32 87.8301 -74.166 117.497 -126.499s44.5 -110.166 44.5 -173.499c0 -50 -9.5 -96.667 -28.5 -140s-44.667 -81.333 -77 -114s-70.333 -58.334 -114 -77.001s-90.5 -28 -140.5 -28c-57.333 0 -110.666 12.333 -159.999 37l-74 -128l-36 21l73 128
c-49.333 32 -88.666 74.167 -117.999 126.5s-44 110.5 -44 174.5c0 50 9.33301 96.833 28 140.5s44.334 81.667 77.001 114s70.667 58 114 77s90 28.5 140 28.5c29.333 0 57.5 -3.33301 84.5 -10s52.833 -16.334 77.5 -29.001l75 130l36 -20zM99.9961 350.001
c0 -56.667 12.667 -107.999 38 -153.999s59 -83 101 -111l317 550c-21.333 10.667 -43.833 18.834 -67.5 24.501s-48.167 8.5 -73.5 8.5c-44 0 -85 -8.16699 -123 -24.5s-71.333 -38.833 -100 -67.5s-51.167 -62.334 -67.5 -101.001s-24.5 -80.334 -24.5 -125.001z
M730.996 350.002c0 56.667 -12.665 107.833 -37.998 153.5s-59 82.5 -101 110.5l-316 -550c43.333 -20.667 89.666 -31 138.999 -31c44 0 85.167 8.16699 123.5 24.5s71.666 38.666 99.999 66.999s50.833 61.833 67.5 100.5s25 80.334 25 125.001z" />
    <glyph glyph-name="Ugrave" unicode="&#xd9;" horiz-adv-x="704" 
d="M352 32c-41.333 0 -76.168 6.5 -104.501 19.5s-51.333 31 -69 54s-30.334 50.167 -38.001 81.5s-11.5 65 -11.5 101v412h-43v-412c0 -42 5.33301 -81.167 16 -117.5s26.834 -67.666 48.501 -93.999s49.167 -47.166 82.5 -62.499s73 -23 119 -23s85.667 7.66699 119 23
s60.833 36.166 82.5 62.499s37.834 57.666 48.501 93.999s16 75.5 16 117.5v412h-43v-412c0 -36 -3.83301 -69.667 -11.5 -101s-20.334 -58.5 -38.001 -81.5s-40.667 -41 -69 -54s-63.166 -19.5 -104.499 -19.5zM298.998 886l138 -107l-22 -19l-148 87z" />
    <glyph glyph-name="Uacute" unicode="&#xda;" horiz-adv-x="704" 
d="M352 32c-41.333 0 -76.168 6.5 -104.501 19.5s-51.333 31 -69 54s-30.334 50.167 -38.001 81.5s-11.5 65 -11.5 101v412h-43v-412c0 -42 5.33301 -81.167 16 -117.5s26.834 -67.666 48.501 -93.999s49.167 -47.166 82.5 -62.499s73 -23 119 -23s85.667 7.66699 119 23
s60.833 36.166 82.5 62.499s37.834 57.666 48.501 93.999s16 75.5 16 117.5v412h-43v-412c0 -36 -3.83301 -69.667 -11.5 -101s-20.334 -58.5 -38.001 -81.5s-40.667 -41 -69 -54s-63.166 -19.5 -104.499 -19.5zM436.998 847l-148 -87l-22 19l138 107z" />
    <glyph glyph-name="Ucircumflex" unicode="&#xdb;" horiz-adv-x="704" 
d="M352 32c41.333 0 76.168 6.5 104.501 19.5s51.333 31 69 54s30.334 50.167 38.001 81.5s11.5 65 11.5 101v412h43v-412c0 -42 -5.33301 -81.167 -16 -117.5s-26.834 -67.666 -48.501 -93.999s-49.167 -47.166 -82.5 -62.499s-73 -23 -119 -23s-85.667 7.66699 -119 23
s-60.833 36.166 -82.5 62.499s-37.834 57.666 -48.501 93.999s-16 75.5 -16 117.5v412h43v-412c0 -36 3.83301 -69.667 11.5 -101s20.334 -58.5 38.001 -81.5s40.667 -41 69 -54s63.166 -19.5 104.499 -19.5zM469.002 784l-21 -23l-96 60l-96 -60l-21 23l117 83z" />
    <glyph glyph-name="Udieresis" unicode="&#xdc;" horiz-adv-x="704" 
d="M352 32c41.333 0 76.168 6.5 104.501 19.5s51.333 31 69 54s30.334 50.167 38.001 81.5s11.5 65 11.5 101v412h43v-412c0 -42 -5.33301 -81.167 -16 -117.5s-26.834 -67.666 -48.501 -93.999s-49.167 -47.166 -82.5 -62.499s-73 -23 -119 -23s-85.667 7.66699 -119 23
s-60.833 36.166 -82.5 62.499s-37.834 57.666 -48.501 93.999s-16 75.5 -16 117.5v412h43v-412c0 -36 3.83301 -69.667 11.5 -101s20.334 -58.5 38.001 -81.5s40.667 -41 69 -54s63.166 -19.5 104.499 -19.5zM222.002 795c0 8 2.83301 14.833 8.5 20.5s13.167 8.5 22.5 8.5
s17 -2.83301 23 -8.5s9 -12.5 9 -20.5s-3 -14.667 -9 -20s-13.667 -8 -23 -8s-16.833 2.66699 -22.5 8s-8.5 12 -8.5 20zM419.002 795c0 8 2.83301 14.833 8.5 20.5s13.167 8.5 22.5 8.5s17 -2.83301 23 -8.5s9 -12.5 9 -20.5s-3 -14.667 -9 -20s-13.667 -8 -23 -8
s-16.833 2.66699 -22.5 8s-8.5 12 -8.5 20z" />
    <glyph glyph-name="Yacute" unicode="&#xdd;" horiz-adv-x="568" 
d="M306 302l246 398h-46l-222 -358l-222 358h-46l247 -398v-302h43v302zM369 847l-148 -87l-22 19l138 107z" />
    <glyph glyph-name="Thorn" unicode="&#xde;" horiz-adv-x="551" 
d="M133 0h-42.999v700h43v-140h135c31.333 0 61 -3.5 89 -10.5s52.5 -18.167 73.5 -33.5s37.667 -35.5 50 -60.5s18.5 -55.833 18.5 -92.5c0 -34 -6 -63 -18 -87s-28.333 -43.5 -49 -58.5s-44.834 -26 -72.501 -33s-57.5 -10.5 -89.5 -10.5h-137v-174zM270.001 215
c24.667 0 48.333 2.5 71 7.5s42.5 13.167 59.5 24.5s30.5 26.666 40.5 45.999s15 43.333 15 72s-5 52.834 -15 72.501s-23.5 35.5 -40.5 47.5s-36.833 20.667 -59.5 26s-47 8 -73 8h-135v-304h137z" />
    <glyph glyph-name="germandbls" unicode="&#xdf;" horiz-adv-x="499" 
d="M240 620c-42.667 0 -73.502 -11.668 -92.502 -35.001s-28.5 -56.666 -28.5 -99.999v-485h-41v485c0 53.333 13.167 95.333 39.5 126s67.166 46 122.499 46c18 0 35.5 -3 52.5 -9s31.833 -14.5 44.5 -25.5s22.834 -24.333 30.501 -40s11.5 -33.167 11.5 -52.5
c0 -23.333 -7 -45.5 -21 -66.5s-32 -36.167 -54 -45.5c46 -11.333 83 -35.166 111 -71.499s42 -81.5 42 -135.5c0 -33.333 -5.66699 -62.833 -17 -88.5s-26.666 -47.5 -45.999 -65.5s-42 -32.333 -68 -43s-53.333 -17.334 -82 -20.001v37c24 3.33301 46.5 9.33301 67.5 18
s39.333 20.167 55 34.5s27.834 32 36.501 53s13 45.833 13 74.5c0 56 -16 100 -48 132s-73.333 50.667 -124 56v37c30 0.666992 53.167 9.66699 69.5 27s24.5 41 24.5 71c0 27.333 -9.5 48.5 -28.5 63.5s-42.167 22.5 -69.5 22.5z" />
    <glyph glyph-name="agrave" unicode="&#xe0;" horiz-adv-x="456" 
d="M105 303c6 22 19.3311 39.334 39.998 52.001s47 19 79 19c40 0 70.333 -9 91 -27s31 -44 31 -78v-18h-111c-66.667 0 -115.5 -11 -146.5 -33s-46.5 -54 -46.5 -96c0 -41.333 14.833 -72.833 44.5 -94.5s67.5 -32.5 113.5 -32.5c39.333 0 70.333 7.33301 93 22
s40.334 31.667 53.001 51l3 -68h37v269c0 43.333 -14.5 77.666 -43.5 102.999s-68.5 38 -118.5 38c-40 0 -74.667 -9.5 -104 -28.5s-47.666 -45.167 -54.999 -78.5h40zM199.998 31.001c-34.667 0 -63 7.66602 -85 22.999s-33 38 -33 68c0 32.667 12 56.334 36 71.001
s63 22 117 22h111v-55c0 -20.667 -4.16699 -39 -12.5 -55s-19.166 -29.5 -32.499 -40.5s-28.833 -19.333 -46.5 -25s-35.834 -8.5 -54.501 -8.5zM174.998 654l138 -118l-22 -21l-148 96z" />
    <glyph glyph-name="aacute" unicode="&#xe1;" horiz-adv-x="456" 
d="M105 303c6 22 19.3311 39.334 39.998 52.001s47 19 79 19c40 0 70.333 -9 91 -27s31 -44 31 -78v-18h-111c-66.667 0 -115.5 -11 -146.5 -33s-46.5 -54 -46.5 -96c0 -41.333 14.833 -72.833 44.5 -94.5s67.5 -32.5 113.5 -32.5c39.333 0 70.333 7.33301 93 22
s40.334 31.667 53.001 51l3 -68h37v269c0 43.333 -14.5 77.666 -43.5 102.999s-68.5 38 -118.5 38c-40 0 -74.667 -9.5 -104 -28.5s-47.666 -45.167 -54.999 -78.5h40zM199.998 31.001c-34.667 0 -63 7.66602 -85 22.999s-33 38 -33 68c0 32.667 12 56.334 36 71.001
s63 22 117 22h111v-55c0 -20.667 -4.16699 -39 -12.5 -55s-19.166 -29.5 -32.499 -40.5s-28.833 -19.333 -46.5 -25s-35.834 -8.5 -54.501 -8.5zM312.998 611l-148 -96l-22 21l138 118z" />
    <glyph glyph-name="acircumflex" unicode="&#xe2;" horiz-adv-x="456" 
d="M65 303c7.33301 33.333 25.668 59.499 55.001 78.499s64 28.5 104 28.5c50 0 89.5 -12.667 118.5 -38s43.5 -59.666 43.5 -102.999v-269h-37l-3 68c-12.667 -19.333 -30.334 -36.333 -53.001 -51s-53.667 -22 -93 -22c-46 0 -83.833 10.833 -113.5 32.5
s-44.5 53.167 -44.5 94.5c0 42 15.5 74 46.5 96s79.833 33 146.5 33h111v18c0 34 -10.333 60 -31 78s-51 27 -91 27c-32 0 -58.333 -6.33301 -79 -19s-34 -30 -40 -52h-40zM200.002 30.999c18.667 0 36.834 2.83398 54.501 8.50098s33.167 14 46.5 25
s24.166 24.5 32.499 40.5s12.5 34.333 12.5 55v55h-111c-54 0 -93 -7.33301 -117 -22s-36 -38.334 -36 -71.001c0 -30 11 -52.667 33 -68s50.333 -23 85 -23zM345.002 541l-21 -25l-96 66l-96 -66l-21 25l117 92z" />
    <glyph glyph-name="atilde" unicode="&#xe3;" horiz-adv-x="456" 
d="M65 303c7.33301 33.333 25.668 59.499 55.001 78.499s64 28.5 104 28.5c50 0 89.5 -12.667 118.5 -38s43.5 -59.666 43.5 -102.999v-269h-37l-3 68c-12.667 -19.333 -30.334 -36.333 -53.001 -51s-53.667 -22 -93 -22c-46 0 -83.833 10.833 -113.5 32.5
s-44.5 53.167 -44.5 94.5c0 42 15.5 74 46.5 96s79.833 33 146.5 33h111v18c0 34 -10.333 60 -31 78s-51 27 -91 27c-32 0 -58.333 -6.33301 -79 -19s-34 -30 -40 -52h-40zM200.002 30.999c18.667 0 36.834 2.83398 54.501 8.50098s33.167 14 46.5 25
s24.166 24.5 32.499 40.5s12.5 34.333 12.5 55v55h-111c-54 0 -93 -7.33301 -117 -22s-36 -38.334 -36 -71.001c0 -30 11 -52.667 33 -68s50.333 -23 85 -23zM98.002 546c6 14.667 15.001 27.499 27.001 38.499s26.333 16.5 43 16.5c10 0 20.333 -1.83301 31 -5.5
s21 -7.66699 31 -12s20 -8.33301 30 -12s19.667 -5.5 29 -5.5c10.667 0 19.834 3.83301 27.501 11.5s13.5 15.5 17.5 23.5l24 -17c-4 -16.667 -12.833 -30.334 -26.5 -41.001s-29.167 -16 -46.5 -16c-8.66699 0 -18.167 1.83301 -28.5 5.5s-20.833 7.83398 -31.5 12.501
s-21.334 8.83398 -32.001 12.501s-20.334 5.5 -29.001 5.5c-11.333 0 -19.833 -3.5 -25.5 -10.5s-10.5 -15.5 -14.5 -25.5z" />
    <glyph glyph-name="adieresis" unicode="&#xe4;" horiz-adv-x="456" 
d="M65 303c7.33301 33.333 25.668 59.499 55.001 78.499s64 28.5 104 28.5c50 0 89.5 -12.667 118.5 -38s43.5 -59.666 43.5 -102.999v-269h-37l-3 68c-12.667 -19.333 -30.334 -36.333 -53.001 -51s-53.667 -22 -93 -22c-46 0 -83.833 10.833 -113.5 32.5
s-44.5 53.167 -44.5 94.5c0 42 15.5 74 46.5 96s79.833 33 146.5 33h111v18c0 34 -10.333 60 -31 78s-51 27 -91 27c-32 0 -58.333 -6.33301 -79 -19s-34 -30 -40 -52h-40zM200.002 30.999c18.667 0 36.834 2.83398 54.501 8.50098s33.167 14 46.5 25
s24.166 24.5 32.499 40.5s12.5 34.333 12.5 55v55h-111c-54 0 -93 -7.33301 -117 -22s-36 -38.334 -36 -71.001c0 -30 11 -52.667 33 -68s50.333 -23 85 -23zM98.002 548c0 9.33301 2.83301 17 8.5 23s13.167 9 22.5 9s17 -3 23 -9s9 -13.667 9 -23s-3 -16.833 -9 -22.5
s-13.667 -8.5 -23 -8.5s-16.833 2.83301 -22.5 8.5s-8.5 13.167 -8.5 22.5zM295.002 548c0 9.33301 2.83301 17 8.5 23s13.167 9 22.5 9s17 -3 23 -9s9 -13.667 9 -23s-3 -16.833 -9 -22.5s-13.667 -8.5 -23 -8.5s-16.833 2.83301 -22.5 8.5s-8.5 13.167 -8.5 22.5z" />
    <glyph glyph-name="aring" unicode="&#xe5;" horiz-adv-x="456" 
d="M65 303c7.33301 33.333 25.668 59.499 55.001 78.499s64 28.5 104 28.5c50 0 89.5 -12.667 118.5 -38s43.5 -59.666 43.5 -102.999v-269h-37l-3 68c-12.667 -19.333 -30.334 -36.333 -53.001 -51s-53.667 -22 -93 -22c-46 0 -83.833 10.833 -113.5 32.5
s-44.5 53.167 -44.5 94.5c0 42 15.5 74 46.5 96s79.833 33 146.5 33h111v18c0 34 -10.333 60 -31 78s-51 27 -91 27c-32 0 -58.333 -6.33301 -79 -19s-34 -30 -40 -52h-40zM200.002 30.999c18.667 0 36.834 2.83398 54.501 8.50098s33.167 14 46.5 25
s24.166 24.5 32.499 40.5s12.5 34.333 12.5 55v55h-111c-54 0 -93 -7.33301 -117 -22s-36 -38.334 -36 -71.001c0 -30 11 -52.667 33 -68s50.333 -23 85 -23zM228.002 670c22.667 0 42.167 -8.16699 58.5 -24.5s24.5 -35.833 24.5 -58.5s-8.16699 -42.167 -24.5 -58.5
s-35.833 -24.5 -58.5 -24.5s-42.167 8.16699 -58.5 24.5s-24.5 35.833 -24.5 58.5s8.16699 42.167 24.5 58.5s35.833 24.5 58.5 24.5zM228.002 639c-14 0 -26 -4.83301 -36 -14.5s-15 -22.167 -15 -37.5s5 -27.833 15 -37.5s22 -14.5 36 -14.5s26 4.83301 36 14.5
s15 22.167 15 37.5s-5 27.833 -15 37.5s-22 14.5 -36 14.5z" />
    <glyph glyph-name="ae" unicode="&#xe6;" horiz-adv-x="764" 
d="M385 195c1.33301 -23.333 5.66602 -45.165 12.999 -65.498s17.5 -38.166 30.5 -53.499s28.833 -27.333 47.5 -36s40 -13 64 -13c38.667 0 68.167 8.66699 88.5 26s33.833 37.666 40.5 60.999h40c-7.33301 -36 -25.833 -65.5 -55.5 -88.5s-67.5 -34.5 -113.5 -34.5
c-43.333 0 -79.166 9.66699 -107.499 29s-50.166 45 -65.499 77c-14.667 -36.667 -37 -62.834 -67 -78.501s-63.333 -23.5 -100 -23.5c-46 0 -83.833 10.167 -113.5 30.5s-44.5 49.166 -44.5 86.499c0 38 15.5 67.333 46.5 88s79.833 31 146.5 31h111v38
c0 34 -10.333 60 -31 78s-51 27 -91 27c-32 0 -58.333 -6.33301 -79 -19s-34 -30 -40 -52h-40c7.33301 33.333 25.666 59.5 54.999 78.5s64 28.5 104 28.5s73 -8.16699 99 -24.5s43.667 -39.166 53 -68.499c17.333 28 39.833 50.5 67.5 67.5s59.167 25.5 94.5 25.5
c26 0 50 -4.83301 72 -14.5s41 -22.834 57 -39.501s28.5 -36.167 37.5 -58.5s13.5 -45.833 13.5 -70.5c0 -13.333 -1 -24 -3 -32h-330zM200 31.001c18.667 0 36.834 2.83301 54.501 8.5s33.167 14.5 46.5 26.5s24.166 27 32.499 45s12.5 39 12.5 63
c-0.666992 3.33301 -1 6.83301 -1 10.5v10.5h-110c-54 0 -93 -6.66699 -117 -20s-36 -34.333 -36 -63c0 -26 11 -46 33 -60s50.333 -21 85 -21zM538 374.001c-42 0 -76.834 -12.666 -104.501 -37.999s-43.5 -60.333 -47.5 -105h292c0 18.667 -3.33301 36.667 -10 54
s-16.167 32.666 -28.5 45.999s-27.166 23.833 -44.499 31.5s-36.333 11.5 -57 11.5z" />
    <glyph glyph-name="ccedilla" unicode="&#xe7;" horiz-adv-x="481" 
d="M251 373c-24 0 -46.0049 -4.33301 -66.0049 -13s-37.167 -20.667 -51.5 -36s-25.666 -33.666 -33.999 -54.999s-12.5 -44.333 -12.5 -69c0 -25.333 4.16699 -48.5 12.5 -69.5s19.833 -39 34.5 -54s32 -26.833 52 -35.5s42 -13 66 -13c38.667 0 70.334 8 95.001 24
s41.667 36.667 51 62h41c-11.333 -38 -34 -68 -68 -90s-73.667 -33 -119 -33c-29.333 0 -56.666 5.5 -81.999 16.5s-47.166 25.833 -65.499 44.5s-32.666 40.667 -42.999 66s-15.5 52.666 -15.5 81.999c0 28.667 5.16699 55.834 15.5 81.501s24.5 48 42.5 67
s39.5 34 64.5 45s52.5 16.5 82.5 16.5c46 0 85.5 -11.333 118.5 -34s55.167 -52.334 66.5 -89.001h-41c-9.33301 24 -26 44.333 -50 61s-55.333 25 -94 25zM209.995 -211l-31 17l73 154l50 -17z" />
    <glyph glyph-name="egrave" unicode="&#xe8;" horiz-adv-x="485" 
d="M436 184c2 8 3.00195 18.666 3.00195 31.999c0 24.667 -4.33301 48.667 -13 72s-21.334 44 -38.001 62s-36.667 32.5 -60 43.5s-49.666 16.5 -78.999 16.5c-30 0 -57.333 -5.5 -82 -16.5s-46 -26 -64 -45s-32 -41.333 -42 -67s-15 -52.834 -15 -81.501
c0 -29.333 4.83301 -56.666 14.5 -81.999s23.5 -47.333 41.5 -66s39.833 -33.5 65.5 -44.5s54.167 -16.5 85.5 -16.5c22.667 0 44 3 64 9s37.667 14.5 53 25.5s28.166 24 38.499 39s17.5 31.5 21.5 49.5h-40c-6.66699 -23.333 -21.5 -43.666 -44.5 -60.999
s-53.833 -26 -92.5 -26c-48.667 0 -87.834 14.5 -117.501 43.5s-46.167 66.833 -49.5 113.5h350zM249.002 373.999c24 0 45.3311 -4.5 63.998 -13.5s34.334 -20.667 47.001 -35s22.334 -30.833 29.001 -49.5s10 -37.334 10 -56.001h-312c2 22 7.33301 42.5 16 61.5
s20 35.333 34 49s30.5 24.334 49.5 32.001s39.833 11.5 62.5 11.5zM189 653.999l138 -118l-22 -21l-148 96z" />
    <glyph glyph-name="eacute" unicode="&#xe9;" horiz-adv-x="485" 
d="M436 184c2 8 3.00195 18.666 3.00195 31.999c0 24.667 -4.33301 48.667 -13 72s-21.334 44 -38.001 62s-36.667 32.5 -60 43.5s-49.666 16.5 -78.999 16.5c-30 0 -57.333 -5.5 -82 -16.5s-46 -26 -64 -45s-32 -41.333 -42 -67s-15 -52.834 -15 -81.501
c0 -29.333 4.83301 -56.666 14.5 -81.999s23.5 -47.333 41.5 -66s39.833 -33.5 65.5 -44.5s54.167 -16.5 85.5 -16.5c22.667 0 44 3 64 9s37.667 14.5 53 25.5s28.166 24 38.499 39s17.5 31.5 21.5 49.5h-40c-6.66699 -23.333 -21.5 -43.666 -44.5 -60.999
s-53.833 -26 -92.5 -26c-48.667 0 -87.834 14.5 -117.501 43.5s-46.167 66.833 -49.5 113.5h350zM249.002 373.999c24 0 45.3311 -4.5 63.998 -13.5s34.334 -20.667 47.001 -35s22.334 -30.833 29.001 -49.5s10 -37.334 10 -56.001h-312c2 22 7.33301 42.5 16 61.5
s20 35.333 34 49s30.5 24.334 49.5 32.001s39.833 11.5 62.5 11.5zM327 610.999l-148 -96l-22 21l138 118z" />
    <glyph glyph-name="ecircumflex" unicode="&#xea;" horiz-adv-x="485" 
d="M86 184c3.33301 -46.667 19.8311 -84.499 49.498 -113.499s68.834 -43.5 117.501 -43.5c38.667 0 69.5 8.66699 92.5 26s37.833 37.666 44.5 60.999h40c-4 -18 -11.167 -34.5 -21.5 -49.5s-23.166 -28 -38.499 -39s-33 -19.5 -53 -25.5s-41.333 -9 -64 -9
c-31.333 0 -59.833 5.5 -85.5 16.5s-47.5 25.833 -65.5 44.5s-31.833 40.667 -41.5 66s-14.5 52.666 -14.5 81.999c0 28.667 5 55.834 15 81.501s24 48 42 67s39.333 34 64 45s52 16.5 82 16.5c29.333 0 55.666 -5.5 78.999 -16.5s43.333 -25.5 60 -43.5
s29.334 -38.667 38.001 -62s13 -47.333 13 -72c0 -13.333 -1 -24 -3 -32h-350zM248.998 374.001c-22.667 0 -43.498 -3.83301 -62.498 -11.5s-35.5 -18.334 -49.5 -32.001s-25.333 -30 -34 -49s-14 -39.5 -16 -61.5h312c0 18.667 -3.33301 37.334 -10 56.001
s-16.334 35.167 -29.001 49.5s-28.334 26 -47.001 35s-40 13.5 -64 13.5zM359 541.001l-21 -25l-96 66l-96 -66l-21 25l117 92z" />
    <glyph glyph-name="edieresis" unicode="&#xeb;" horiz-adv-x="485" 
d="M86 184c3.33301 -46.667 19.8311 -84.499 49.498 -113.499s68.834 -43.5 117.501 -43.5c38.667 0 69.5 8.66699 92.5 26s37.833 37.666 44.5 60.999h40c-4 -18 -11.167 -34.5 -21.5 -49.5s-23.166 -28 -38.499 -39s-33 -19.5 -53 -25.5s-41.333 -9 -64 -9
c-31.333 0 -59.833 5.5 -85.5 16.5s-47.5 25.833 -65.5 44.5s-31.833 40.667 -41.5 66s-14.5 52.666 -14.5 81.999c0 28.667 5 55.834 15 81.501s24 48 42 67s39.333 34 64 45s52 16.5 82 16.5c29.333 0 55.666 -5.5 78.999 -16.5s43.333 -25.5 60 -43.5
s29.334 -38.667 38.001 -62s13 -47.333 13 -72c0 -13.333 -1 -24 -3 -32h-350zM248.998 374.001c-22.667 0 -43.498 -3.83301 -62.498 -11.5s-35.5 -18.334 -49.5 -32.001s-25.333 -30 -34 -49s-14 -39.5 -16 -61.5h312c0 18.667 -3.33301 37.334 -10 56.001
s-16.334 35.167 -29.001 49.5s-28.334 26 -47.001 35s-40 13.5 -64 13.5zM112 548.001c0 9.33301 2.83301 17 8.5 23s13.167 9 22.5 9s17 -3 23 -9s9 -13.667 9 -23s-3 -16.833 -9 -22.5s-13.667 -8.5 -23 -8.5s-16.833 2.83301 -22.5 8.5s-8.5 13.167 -8.5 22.5z
M309 548.001c0 9.33301 2.83301 17 8.5 23s13.167 9 22.5 9s17 -3 23 -9s9 -13.667 9 -23s-3 -16.833 -9 -22.5s-13.667 -8.5 -23 -8.5s-16.833 2.83301 -22.5 8.5s-8.5 13.167 -8.5 22.5z" />
    <glyph glyph-name="igrave" unicode="&#xec;" horiz-adv-x="201" 
d="M80 0h41v400h-41v-400zM48 654l138 -118l-22 -21l-148 96z" />
    <glyph glyph-name="iacute" unicode="&#xed;" horiz-adv-x="201" 
d="M80 0h41v400h-41v-400zM186 611l-148 -96l-22 21l138 118z" />
    <glyph glyph-name="icircumflex" unicode="&#xee;" horiz-adv-x="201" 
d="M80 400h41v-400h-41v400zM218 541l-21 -25l-96 66l-96 -66l-21 25l117 92z" />
    <glyph glyph-name="idieresis" unicode="&#xef;" horiz-adv-x="201" 
d="M80 400h41v-400h-41v400zM-29 548c0 9.33301 2.83301 17 8.5 23s13.167 9 22.5 9s17 -3 23 -9s9 -13.667 9 -23s-3 -16.833 -9 -22.5s-13.667 -8.5 -23 -8.5s-16.833 2.83301 -22.5 8.5s-8.5 13.167 -8.5 22.5zM168 548c0 9.33301 2.83301 17 8.5 23s13.167 9 22.5 9
s17 -3 23 -9s9 -13.667 9 -23s-3 -16.833 -9 -22.5s-13.667 -8.5 -23 -8.5s-16.833 2.83301 -22.5 8.5s-8.5 13.167 -8.5 22.5z" />
    <glyph glyph-name="eth" unicode="&#xf0;" horiz-adv-x="522" 
d="M286 547c-24.667 18.667 -48.5039 33.333 -71.5039 44s-42.167 18.334 -57.5 23.001l19 34c19.333 -7.33301 42 -17.333 68 -30s52 -29.334 78 -50.001l81 47l18 -32l-69 -40c16.667 -15.333 32.167 -32.666 46.5 -51.999s27 -40.833 38 -64.5s19.667 -49.5 26 -77.5
s9.5 -58.667 9.5 -92c0 -37.333 -4.5 -72.166 -13.5 -104.499s-22.667 -60.5 -41 -84.5s-41.166 -43 -68.499 -57s-59.333 -21 -96 -21c-28.667 0 -55.667 5.66699 -81 17s-47.5 26.666 -66.5 45.999s-34 42 -45 68s-16.5 54 -16.5 84c0 31.333 5.66699 59.666 17 84.999
s26.5 46.833 45.5 64.5s40.833 31.334 65.5 41.001s50.334 14.5 77.001 14.5c24 0 46 -3 66 -9s37.5 -13.167 52.5 -21.5s27.5 -16.833 37.5 -25.5s17 -15.334 21 -20.001c-7.33301 40 -21.166 75.667 -41.499 107s-43.166 58.333 -68.499 81l-81 -47l-19 32z
M84.9961 202.999c0 -24 4.5 -46.668 13.5 -68.001s21 -40 36 -56s32.667 -28.667 53 -38s42.166 -14 65.499 -14c30 0 56.333 6.33301 79 19s41.667 29.334 57 50.001s26.833 44.334 34.5 71.001s11.5 54.334 11.5 83.001c0 5.33301 -0.166992 10.166 -0.5 14.499
s-0.833008 8.83301 -1.5 13.5c-0.666992 0.666992 -5.16699 6 -13.5 16s-20.166 20.833 -35.499 32.5s-34 22.167 -56 31.5s-47 14 -75 14c-22 0 -43.167 -4.16699 -63.5 -12.5s-38.333 -20 -54 -35s-28 -32.833 -37 -53.5s-13.5 -43.334 -13.5 -68.001z" />
    <glyph glyph-name="ntilde" unicode="&#xf1;" horiz-adv-x="498" 
d="M72 400h37l4 -57c6.66699 6.66699 15 14 25 22s21.333 15.333 34 22s27 12.167 43 16.5s33.667 6.5 53 6.5c50 0 89.167 -15.5 117.5 -46.5s42.5 -73.167 42.5 -126.5v-237h-41v237c0 42 -10.5 75.167 -31.5 99.5s-51.5 36.5 -91.5 36.5c-18 0 -34.833 -2.33301 -50.5 -7
s-29.667 -10.667 -42 -18s-23.5 -15.5 -33.5 -24.5s-18.333 -17.5 -25 -25.5v-298h-41v400zM119 546c6 14.667 15.001 27.499 27.001 38.499s26.333 16.5 43 16.5c10 0 20.333 -1.83301 31 -5.5s21 -7.66699 31 -12s20 -8.33301 30 -12s19.667 -5.5 29 -5.5
c10.667 0 19.834 3.83301 27.501 11.5s13.5 15.5 17.5 23.5l24 -17c-4 -16.667 -12.833 -30.334 -26.5 -41.001s-29.167 -16 -46.5 -16c-8.66699 0 -18.167 1.83301 -28.5 5.5s-20.833 7.83398 -31.5 12.501s-21.334 8.83398 -32.001 12.501s-20.334 5.5 -29.001 5.5
c-11.333 0 -19.833 -3.5 -25.5 -10.5s-10.5 -15.5 -14.5 -25.5z" />
    <glyph glyph-name="ograve" unicode="&#xf2;" horiz-adv-x="499" 
d="M44 200c0 -29.333 5.16699 -56.666 15.5 -81.999s24.833 -47.333 43.5 -66s40.334 -33.5 65.001 -44.5s51.667 -16.5 81 -16.5c28.667 0 55.667 5.5 81 16.5s47.166 25.833 65.499 44.5s32.833 40.667 43.5 66s16 52.666 16 81.999c0 28.667 -5.33301 55.834 -16 81.501
s-25.167 48 -43.5 67s-40.166 34 -65.499 45s-52.333 16.5 -81 16.5c-29.333 0 -56.333 -5.5 -81 -16.5s-46.334 -26 -65.001 -45s-33.167 -41.333 -43.5 -67s-15.5 -52.834 -15.5 -81.501zM85 200c0 24.667 4.16699 47.667 12.5 69s19.833 39.666 34.5 54.999
s32 27.333 52 36s41.667 13 65 13s45 -4.33301 65 -13s37.5 -20.667 52.5 -36s26.667 -33.666 35 -54.999s12.5 -44.333 12.5 -69c0 -25.333 -4.16699 -48.5 -12.5 -69.5s-20 -39 -35 -54s-32.5 -26.833 -52.5 -35.5s-41.667 -13 -65 -13s-45 4.33301 -65 13
s-37.333 20.5 -52 35.5s-26.167 33 -34.5 54s-12.5 44.167 -12.5 69.5zM196 654l138 -118l-22 -21l-148 96z" />
    <glyph glyph-name="oacute" unicode="&#xf3;" horiz-adv-x="499" 
d="M44 200c0 -29.333 5.16699 -56.666 15.5 -81.999s24.833 -47.333 43.5 -66s40.334 -33.5 65.001 -44.5s51.667 -16.5 81 -16.5c28.667 0 55.667 5.5 81 16.5s47.166 25.833 65.499 44.5s32.833 40.667 43.5 66s16 52.666 16 81.999c0 28.667 -5.33301 55.834 -16 81.501
s-25.167 48 -43.5 67s-40.166 34 -65.499 45s-52.333 16.5 -81 16.5c-29.333 0 -56.333 -5.5 -81 -16.5s-46.334 -26 -65.001 -45s-33.167 -41.333 -43.5 -67s-15.5 -52.834 -15.5 -81.501zM85 200c0 24.667 4.16699 47.667 12.5 69s19.833 39.666 34.5 54.999
s32 27.333 52 36s41.667 13 65 13s45 -4.33301 65 -13s37.5 -20.667 52.5 -36s26.667 -33.666 35 -54.999s12.5 -44.333 12.5 -69c0 -25.333 -4.16699 -48.5 -12.5 -69.5s-20 -39 -35 -54s-32.5 -26.833 -52.5 -35.5s-41.667 -13 -65 -13s-45 4.33301 -65 13
s-37.333 20.5 -52 35.5s-26.167 33 -34.5 54s-12.5 44.167 -12.5 69.5zM334 611l-148 -96l-22 21l138 118z" />
    <glyph glyph-name="ocircumflex" unicode="&#xf4;" horiz-adv-x="499" 
d="M44 200c0 28.667 5.16699 55.834 15.5 81.501s24.833 48 43.5 67s40.334 34 65.001 45s51.667 16.5 81 16.5c28.667 0 55.667 -5.5 81 -16.5s47.166 -26 65.499 -45s32.833 -41.333 43.5 -67s16 -52.834 16 -81.501c0 -29.333 -5.33301 -56.666 -16 -81.999
s-25.167 -47.333 -43.5 -66s-40.166 -33.5 -65.499 -44.5s-52.333 -16.5 -81 -16.5c-29.333 0 -56.333 5.5 -81 16.5s-46.334 25.833 -65.001 44.5s-33.167 40.667 -43.5 66s-15.5 52.666 -15.5 81.999zM85 200c0 -25.333 4.16699 -48.5 12.5 -69.5s19.833 -39 34.5 -54
s32 -26.833 52 -35.5s41.667 -13 65 -13s45 4.33301 65 13s37.5 20.5 52.5 35.5s26.667 33 35 54s12.5 44.167 12.5 69.5c0 24.667 -4.16699 47.667 -12.5 69s-20 39.666 -35 54.999s-32.5 27.333 -52.5 36s-41.667 13 -65 13s-45 -4.33301 -65 -13s-37.333 -20.667 -52 -36
s-26.167 -33.666 -34.5 -54.999s-12.5 -44.333 -12.5 -69zM366 541l-21 -25l-96 66l-96 -66l-21 25l117 92z" />
    <glyph glyph-name="otilde" unicode="&#xf5;" horiz-adv-x="499" 
d="M44 200c0 28.667 5.16699 55.834 15.5 81.501s24.833 48 43.5 67s40.334 34 65.001 45s51.667 16.5 81 16.5c28.667 0 55.667 -5.5 81 -16.5s47.166 -26 65.499 -45s32.833 -41.333 43.5 -67s16 -52.834 16 -81.501c0 -29.333 -5.33301 -56.666 -16 -81.999
s-25.167 -47.333 -43.5 -66s-40.166 -33.5 -65.499 -44.5s-52.333 -16.5 -81 -16.5c-29.333 0 -56.333 5.5 -81 16.5s-46.334 25.833 -65.001 44.5s-33.167 40.667 -43.5 66s-15.5 52.666 -15.5 81.999zM85 200c0 -25.333 4.16699 -48.5 12.5 -69.5s19.833 -39 34.5 -54
s32 -26.833 52 -35.5s41.667 -13 65 -13s45 4.33301 65 13s37.5 20.5 52.5 35.5s26.667 33 35 54s12.5 44.167 12.5 69.5c0 24.667 -4.16699 47.667 -12.5 69s-20 39.666 -35 54.999s-32.5 27.333 -52.5 36s-41.667 13 -65 13s-45 -4.33301 -65 -13s-37.333 -20.667 -52 -36
s-26.167 -33.666 -34.5 -54.999s-12.5 -44.333 -12.5 -69zM119 546c6 14.667 15.001 27.499 27.001 38.499s26.333 16.5 43 16.5c10 0 20.333 -1.83301 31 -5.5s21 -7.66699 31 -12s20 -8.33301 30 -12s19.667 -5.5 29 -5.5c10.667 0 19.834 3.83301 27.501 11.5
s13.5 15.5 17.5 23.5l24 -17c-4 -16.667 -12.833 -30.334 -26.5 -41.001s-29.167 -16 -46.5 -16c-8.66699 0 -18.167 1.83301 -28.5 5.5s-20.833 7.83398 -31.5 12.501s-21.334 8.83398 -32.001 12.501s-20.334 5.5 -29.001 5.5c-11.333 0 -19.833 -3.5 -25.5 -10.5
s-10.5 -15.5 -14.5 -25.5z" />
    <glyph glyph-name="odieresis" unicode="&#xf6;" horiz-adv-x="499" 
d="M44 200c0 28.667 5.16699 55.834 15.5 81.501s24.833 48 43.5 67s40.334 34 65.001 45s51.667 16.5 81 16.5c28.667 0 55.667 -5.5 81 -16.5s47.166 -26 65.499 -45s32.833 -41.333 43.5 -67s16 -52.834 16 -81.501c0 -29.333 -5.33301 -56.666 -16 -81.999
s-25.167 -47.333 -43.5 -66s-40.166 -33.5 -65.499 -44.5s-52.333 -16.5 -81 -16.5c-29.333 0 -56.333 5.5 -81 16.5s-46.334 25.833 -65.001 44.5s-33.167 40.667 -43.5 66s-15.5 52.666 -15.5 81.999zM85 200c0 -25.333 4.16699 -48.5 12.5 -69.5s19.833 -39 34.5 -54
s32 -26.833 52 -35.5s41.667 -13 65 -13s45 4.33301 65 13s37.5 20.5 52.5 35.5s26.667 33 35 54s12.5 44.167 12.5 69.5c0 24.667 -4.16699 47.667 -12.5 69s-20 39.666 -35 54.999s-32.5 27.333 -52.5 36s-41.667 13 -65 13s-45 -4.33301 -65 -13s-37.333 -20.667 -52 -36
s-26.167 -33.666 -34.5 -54.999s-12.5 -44.333 -12.5 -69zM119 548c0 9.33301 2.83301 17 8.5 23s13.167 9 22.5 9s17 -3 23 -9s9 -13.667 9 -23s-3 -16.833 -9 -22.5s-13.667 -8.5 -23 -8.5s-16.833 2.83301 -22.5 8.5s-8.5 13.167 -8.5 22.5zM316 548
c0 9.33301 2.83301 17 8.5 23s13.167 9 22.5 9s17 -3 23 -9s9 -13.667 9 -23s-3 -16.833 -9 -22.5s-13.667 -8.5 -23 -8.5s-16.833 2.83301 -22.5 8.5s-8.5 13.167 -8.5 22.5z" />
    <glyph glyph-name="divide" unicode="&#xf7;" 
d="M520 304v-37h-450v37h450zM256 128c0 10.667 3.83301 19.834 11.5 27.501s16.834 11.5 27.501 11.5s19.834 -3.83301 27.501 -11.5s11.5 -16.834 11.5 -27.501s-3.83301 -19.834 -11.5 -27.501s-16.834 -11.5 -27.501 -11.5s-19.834 3.83301 -27.501 11.5
s-11.5 16.834 -11.5 27.501zM256 443c0 10.667 3.83301 19.834 11.5 27.501s16.834 11.5 27.501 11.5s19.834 -3.83301 27.501 -11.5s11.5 -16.834 11.5 -27.501s-3.83301 -19.834 -11.5 -27.501s-16.834 -11.5 -27.501 -11.5s-19.834 3.83301 -27.501 11.5
s-11.5 16.834 -11.5 27.501z" />
    <glyph glyph-name="oslash" unicode="&#xf8;" horiz-adv-x="499" 
d="M366 373c27.333 -19.333 48.9971 -44.002 64.9971 -74.002s24 -63 24 -99c0 -29.333 -5.33301 -56.666 -16 -81.999s-25.167 -47.333 -43.5 -66s-40.166 -33.5 -65.499 -44.5s-52.333 -16.5 -81 -16.5c-16.667 0 -32.667 1.83301 -48 5.5s-29.666 8.5 -42.999 14.5
l-64 -111l-36 21l65 113c-24.667 19.333 -44 43.333 -58 72s-21 60 -21 94c0 28.667 5.16699 55.834 15.5 81.501s24.833 48 43.5 67s40.334 34 65.001 45s51.667 16.5 81 16.5c28 0 55 -5.66699 81 -17l63 108l36 -20zM413.997 199.998c0 30 -6 57 -18 81
s-28 43.667 -48 59l-171 -296c21.333 -10.667 45.333 -16 72 -16c23.333 0 45 4.33301 65 13s37.5 20.5 52.5 35.5s26.667 33 35 54s12.5 44.167 12.5 69.5zM84.9971 199.998c0 -28 5.16797 -53.334 15.501 -76.001s24.166 -41.667 41.499 -57l170 294c-20 8 -41 12 -63 12
c-23.333 0 -45 -4.33301 -65 -13s-37.333 -20.667 -52 -36s-26.167 -33.666 -34.5 -54.999s-12.5 -44.333 -12.5 -69z" />
    <glyph glyph-name="ugrave" unicode="&#xf9;" horiz-adv-x="488" 
d="M377 0l38.998 0.00195312v400h-41v-285c-6.66699 -10 -14.834 -20.167 -24.501 -30.5s-21.167 -19.833 -34.5 -28.5s-28.166 -15.667 -44.499 -21s-34.166 -8 -53.499 -8c-33.333 0 -59.5 10.167 -78.5 30.5s-28.5 52.166 -28.5 95.499v247h-41v-247
c0 -54 13.5 -94.667 40.5 -122s62.833 -41 107.5 -41c20.667 0 39.334 2.5 56.001 7.5s31.5 11.167 44.5 18.5s24.167 15.666 33.5 24.999s17 18.333 23 27zM190.998 654.002l138 -118l-22 -21l-148 96z" />
    <glyph glyph-name="uacute" unicode="&#xfa;" horiz-adv-x="488" 
d="M377 0l38.998 0.00195312v400h-41v-285c-6.66699 -10 -14.834 -20.167 -24.501 -30.5s-21.167 -19.833 -34.5 -28.5s-28.166 -15.667 -44.499 -21s-34.166 -8 -53.499 -8c-33.333 0 -59.5 10.167 -78.5 30.5s-28.5 52.166 -28.5 95.499v247h-41v-247
c0 -54 13.5 -94.667 40.5 -122s62.833 -41 107.5 -41c20.667 0 39.334 2.5 56.001 7.5s31.5 11.167 44.5 18.5s24.167 15.666 33.5 24.999s17 18.333 23 27zM328.998 611.002l-148 -96l-22 21l138 118z" />
    <glyph glyph-name="ucircumflex" unicode="&#xfb;" horiz-adv-x="488" 
d="M375 68c-6 -8.66699 -13.665 -17.6689 -22.998 -27.002s-20.5 -17.666 -33.5 -24.999s-27.833 -13.5 -44.5 -18.5s-35.334 -7.5 -56.001 -7.5c-44.667 0 -80.5 13.667 -107.5 41s-40.5 68 -40.5 122v247h41v-247c0 -43.333 9.5 -75.166 28.5 -95.499
s45.167 -30.5 78.5 -30.5c19.333 0 37.166 2.66699 53.499 8s31.166 12.333 44.499 21s24.833 18.167 34.5 28.5s17.834 20.5 24.501 30.5v285h41v-400h-39zM361.002 540.998l-21 -25l-96 66l-96 -66l-21 25l117 92z" />
    <glyph glyph-name="udieresis" unicode="&#xfc;" horiz-adv-x="488" 
d="M375 68c-6 -8.66699 -13.665 -17.6689 -22.998 -27.002s-20.5 -17.666 -33.5 -24.999s-27.833 -13.5 -44.5 -18.5s-35.334 -7.5 -56.001 -7.5c-44.667 0 -80.5 13.667 -107.5 41s-40.5 68 -40.5 122v247h41v-247c0 -43.333 9.5 -75.166 28.5 -95.499
s45.167 -30.5 78.5 -30.5c19.333 0 37.166 2.66699 53.499 8s31.166 12.333 44.499 21s24.833 18.167 34.5 28.5s17.834 20.5 24.501 30.5v285h41v-400h-39zM114.002 547.998c0 9.33301 2.83301 17 8.5 23s13.167 9 22.5 9s17 -3 23 -9s9 -13.667 9 -23s-3 -16.833 -9 -22.5
s-13.667 -8.5 -23 -8.5s-16.833 2.83301 -22.5 8.5s-8.5 13.167 -8.5 22.5zM311.002 547.998c0 9.33301 2.83301 17 8.5 23s13.167 9 22.5 9s17 -3 23 -9s9 -13.667 9 -23s-3 -16.833 -9 -22.5s-13.667 -8.5 -23 -8.5s-16.833 2.83301 -22.5 8.5s-8.5 13.167 -8.5 22.5z" />
    <glyph glyph-name="yacute" unicode="&#xfd;" horiz-adv-x="432" 
d="M420 400h-42l-159 -338l-164 338h-41l185 -378l-128 -272h40zM301 591l-148 -96l-22 21l138 118z" />
    <glyph glyph-name="thorn" unicode="&#xfe;" horiz-adv-x="513" 
d="M271 28c24 0 45.667 4.49805 65 13.498s35.666 21.5 48.999 37.5s23.5 34.667 30.5 56s10.5 44 10.5 68c0 22.667 -3.66699 44.334 -11 65.001s-17.833 38.834 -31.5 54.501s-30 28 -49 37s-40.167 13.5 -63.5 13.5c-25.333 0 -48 -4.33301 -68 -13
s-36.833 -20.667 -50.5 -36s-24 -33.333 -31 -54s-10.5 -43 -10.5 -67s3.66699 -46.667 11 -68s17.833 -40 31.5 -56s30.334 -28.5 50.001 -37.5s42.167 -13.5 67.5 -13.5zM113 -250.002l-41 -0.000976562v903h41v-323c16.667 24 38.5 43.333 65.5 58s57.833 22 92.5 22
c30 0 57 -5.33301 81 -16s44.5 -25.167 61.5 -43.5s30.167 -40.166 39.5 -65.499s14 -52.666 14 -81.999c0 -30.667 -4.5 -58.834 -13.5 -84.501s-22 -48 -39 -67s-37.667 -33.833 -62 -44.5s-51.833 -16 -82.5 -16c-34 0 -65 7.16699 -93 21.5s-49.333 34.5 -64 60.5v-323z
" />
    <glyph glyph-name="ydieresis" unicode="&#xff;" horiz-adv-x="432" 
d="M111 -250h-40l128 272l-185 378h41l164 -338l159 338h42zM86 548c0 9.33301 2.83301 17 8.5 23s13.167 9 22.5 9s17 -3 23 -9s9 -13.667 9 -23s-3 -16.833 -9 -22.5s-13.667 -8.5 -23 -8.5s-16.833 2.83301 -22.5 8.5s-8.5 13.167 -8.5 22.5zM283 548
c0 9.33301 2.83301 17 8.5 23s13.167 9 22.5 9s17 -3 23 -9s9 -13.667 9 -23s-3 -16.833 -9 -22.5s-13.667 -8.5 -23 -8.5s-16.833 2.83301 -22.5 8.5s-8.5 13.167 -8.5 22.5z" />
    <glyph glyph-name="Amacron" unicode="&#x100;" horiz-adv-x="687" 
d="M522 219h-358l-95 -219h-45l319 730l320 -730h-45zM182 260h322l-161 371zM213 806h260v-31h-260v31z" />
    <glyph glyph-name="amacron" unicode="&#x101;" horiz-adv-x="456" 
d="M65 303c7.33301 33.333 25.668 59.499 55.001 78.499s64 28.5 104 28.5c50 0 89.5 -12.667 118.5 -38s43.5 -59.666 43.5 -102.999v-269h-37l-3 68c-12.667 -19.333 -30.334 -36.333 -53.001 -51s-53.667 -22 -93 -22c-46 0 -83.833 10.833 -113.5 32.5
s-44.5 53.167 -44.5 94.5c0 42 15.5 74 46.5 96s79.833 33 146.5 33h111v18c0 34 -10.333 60 -31 78s-51 27 -91 27c-32 0 -58.333 -6.33301 -79 -19s-34 -30 -40 -52h-40zM200.002 30.999c18.667 0 36.834 2.83398 54.501 8.50098s33.167 14 46.5 25
s24.166 24.5 32.499 40.5s12.5 34.333 12.5 55v55h-111c-54 0 -93 -7.33301 -117 -22s-36 -38.334 -36 -71.001c0 -30 11 -52.667 33 -68s50.333 -23 85 -23zM98.002 566h260v-35h-260v35z" />
    <glyph glyph-name="Abreve" unicode="&#x102;" horiz-adv-x="687" 
d="M522 219h-358l-95 -219h-45l319 730l320 -730h-45zM182 260h322l-161 371zM343 772c-13.333 0 -27 2 -41 6s-26.833 9.5 -38.5 16.5s-21.5 15.667 -29.5 26s-13 22.166 -15 35.499h36c5.33301 -16.667 16.833 -29.334 34.5 -38.001s35.5 -13 53.5 -13
s35.833 4.33301 53.5 13s29.167 21.334 34.5 38.001h36c-2 -13.333 -7 -25.166 -15 -35.499s-17.833 -19 -29.5 -26s-24.5 -12.5 -38.5 -16.5s-27.667 -6 -41 -6z" />
    <glyph glyph-name="abreve" unicode="&#x103;" horiz-adv-x="456" 
d="M65 303c7.33301 33.333 25.668 59.499 55.001 78.499s64 28.5 104 28.5c50 0 89.5 -12.667 118.5 -38s43.5 -59.666 43.5 -102.999v-269h-37l-3 68c-12.667 -19.333 -30.334 -36.333 -53.001 -51s-53.667 -22 -93 -22c-46 0 -83.833 10.833 -113.5 32.5
s-44.5 53.167 -44.5 94.5c0 42 15.5 74 46.5 96s79.833 33 146.5 33h111v18c0 34 -10.333 60 -31 78s-51 27 -91 27c-32 0 -58.333 -6.33301 -79 -19s-34 -30 -40 -52h-40zM200.002 30.999c18.667 0 36.834 2.83398 54.501 8.50098s33.167 14 46.5 25
s24.166 24.5 32.499 40.5s12.5 34.333 12.5 55v55h-111c-54 0 -93 -7.33301 -117 -22s-36 -38.334 -36 -71.001c0 -30 11 -52.667 33 -68s50.333 -23 85 -23zM228.002 531c-13.333 0 -27 2.16699 -41 6.5s-26.833 10.5 -38.5 18.5s-21.5 17.833 -29.5 29.5
s-13 24.5 -15 38.5h36c5.33301 -18 16.833 -31.833 34.5 -41.5s35.5 -14.5 53.5 -14.5s35.833 4.83301 53.5 14.5s29.167 23.5 34.5 41.5h36c-2 -14 -7 -26.833 -15 -38.5s-17.833 -21.5 -29.5 -29.5s-24.5 -14.167 -38.5 -18.5s-27.667 -6.5 -41 -6.5z" />
    <glyph glyph-name="Aogonek" unicode="&#x104;" horiz-adv-x="687" 
d="M522 219l-358.002 0.000976562l-95 -219h-45l319 730l320 -730h-6c-7.33301 -5.33301 -15.333 -11.666 -24 -18.999s-16.5 -15.5 -23.5 -24.5s-12.833 -18.667 -17.5 -29s-7 -21.166 -7 -32.499c0 -20 7 -34.5 21 -43.5s30.333 -13.5 49 -13.5c10 0 18.5 0.666992 25.5 2
s14.5 3.66602 22.5 6.99902v-37c-8.66699 -2.66699 -17.167 -4.83398 -25.5 -6.50098s-17.166 -2.5 -26.499 -2.5c-14 0 -27.167 2 -39.5 6s-23.166 9.66699 -32.499 17s-16.833 16.666 -22.5 27.999s-8.5 24.333 -8.5 39c0 23.333 7.33301 44.5 22 63.5
s30.667 34.167 48 45.5zM181.998 260.001h322l-161 371z" />
    <glyph glyph-name="aogonek" unicode="&#x105;" horiz-adv-x="456" 
d="M65 303c7.33301 33.333 25.667 59.5 55 78.5s64 28.5 104 28.5c50 0 89.5 -12.667 118.5 -38s43.5 -59.666 43.5 -102.999v-269c-7.33301 -5.33301 -15.333 -11.666 -24 -18.999s-16.5 -15.5 -23.5 -24.5s-12.833 -18.667 -17.5 -29s-7 -21.166 -7 -32.499
c0 -20 7 -34.5 21 -43.5s30.333 -13.5 49 -13.5c10 0 18.5 0.666992 25.5 2s14.5 3.66602 22.5 6.99902v-37c-8.66699 -2.66699 -17.167 -4.83398 -25.5 -6.50098s-17.166 -2.5 -26.499 -2.5c-14 0 -27.167 2 -39.5 6s-23.166 9.66699 -32.499 17
s-16.833 16.666 -22.5 27.999s-8.5 24.333 -8.5 39c0 24 7.66699 45.5 23 64.5s31.666 34.167 48.999 45.5l-3 67c-12.667 -19.333 -30.334 -36.333 -53.001 -51s-53.667 -22 -93 -22c-46 0 -83.833 10.833 -113.5 32.5s-44.5 53.167 -44.5 94.5c0 42 15.5 74 46.5 96
s79.833 33 146.5 33h111v18c0 34 -10.333 60 -31 78s-51 27 -91 27c-32 0 -58.333 -6.33301 -79 -19s-34 -30 -40 -52h-40zM200.001 31c18.667 0 36.834 2.83398 54.501 8.50098s33.167 14 46.5 25s24.166 24.5 32.499 40.5s12.5 34.333 12.5 55v55h-111
c-54 0 -93 -7.33301 -117 -22s-36 -38.334 -36 -71.001c0 -30 11 -52.667 33 -68s50.333 -23 85 -23z" />
    <glyph glyph-name="Cacute" unicode="&#x106;" horiz-adv-x="800" 
d="M56 350c0 -50 9.33301 -96.8359 28 -140.503s44.334 -81.667 77.001 -114s71 -58 115 -77s91.333 -28.5 142 -28.5c41.333 0 80 5.66699 116 17s68.667 27.5 98 48.5s54.5 45.833 75.5 74.5s37.167 60.667 48.5 96h-47c-8.66699 -26.667 -21.834 -51.667 -39.501 -75
s-39 -43.833 -64 -61.5s-53.333 -31.667 -85 -42s-65.5 -15.5 -101.5 -15.5c-45.333 0 -87.333 8.16699 -126 24.5s-72.334 38.833 -101.001 67.5s-51.167 62.334 -67.5 101.001s-24.5 80.334 -24.5 125.001s8.16699 86.334 24.5 125.001s38.833 72.334 67.5 101.001
s62.334 51.167 101.001 67.5s80.667 24.5 126 24.5c36 0 69.5 -5 100.5 -15s58.667 -23.5 83 -40.5s45.333 -36.833 63 -59.5s31.5 -46.334 41.5 -71.001h47c-12.667 33.333 -29.5 64 -50.5 92s-45.833 52 -74.5 72s-60.667 35.667 -96 47s-73.666 17 -114.999 17
c-50.667 0 -98 -9.5 -142 -28.5s-82.333 -44.667 -115 -77s-58.334 -70.333 -77.001 -114s-28 -90.5 -28 -140.5zM515 846.997l-148 -87l-22 19l138 107z" />
    <glyph glyph-name="cacute" unicode="&#x107;" horiz-adv-x="481" 
d="M251 373c38.667 0 70.0049 -8.33301 94.0049 -25s40.667 -37 50 -61h41c-11.333 36.667 -33.5 66.334 -66.5 89.001s-72.5 34 -118.5 34c-30 0 -57.5 -5.5 -82.5 -16.5s-46.5 -26 -64.5 -45s-32.167 -41.333 -42.5 -67s-15.5 -52.834 -15.5 -81.501
c0 -29.333 5.16699 -56.666 15.5 -81.999s24.666 -47.333 42.999 -66s40.166 -33.5 65.499 -44.5s52.666 -16.5 81.999 -16.5c45.333 0 85 11 119 33s56.667 52 68 90h-41c-9.33301 -25.333 -26.333 -46 -51 -62s-56.334 -24 -95.001 -24c-24 0 -46 4.33301 -66 13
s-37.333 20.5 -52 35.5s-26.167 33 -34.5 54s-12.5 44.167 -12.5 69.5c0 24.667 4.16699 47.667 12.5 69s19.666 39.666 33.999 54.999s31.5 27.333 51.5 36s42 13 66 13zM345.005 611l-148 -96l-22 21l138 118z" />
    <glyph glyph-name="Ccircumflex" unicode="&#x108;" horiz-adv-x="800" 
d="M56 350c0 50 9.33301 96.8359 28 140.503s44.334 81.667 77.001 114s71 58 115 77s91.333 28.5 142 28.5c41.333 0 79.666 -5.66699 114.999 -17s67.333 -27 96 -47s53.5 -44 74.5 -72s37.833 -58.667 50.5 -92h-47c-10 24.667 -23.833 48.334 -41.5 71.001
s-38.667 42.5 -63 59.5s-52 30.5 -83 40.5s-64.5 15 -100.5 15c-45.333 0 -87.333 -8.16699 -126 -24.5s-72.334 -38.833 -101.001 -67.5s-51.167 -62.334 -67.5 -101.001s-24.5 -80.334 -24.5 -125.001s8.16699 -86.334 24.5 -125.001s38.833 -72.334 67.5 -101.001
s62.334 -51.167 101.001 -67.5s80.667 -24.5 126 -24.5c36 0 69.833 5.16699 101.5 15.5s60 24.333 85 42s46.333 38.167 64 61.5s30.834 48.333 39.501 75h47c-11.333 -35.333 -27.5 -67.333 -48.5 -96s-46.167 -53.5 -75.5 -74.5s-62 -37.167 -98 -48.5
s-74.667 -17 -116 -17c-50.667 0 -98 9.5 -142 28.5s-82.333 44.667 -115 77s-58.334 70.333 -77.001 114s-28 90.5 -28 140.5zM547 784.003l-21 -23l-96 60l-96 -60l-21 23l117 83z" />
    <glyph glyph-name="ccircumflex" unicode="&#x109;" horiz-adv-x="481" 
d="M251 373c-24 0 -46.0049 -4.33301 -66.0049 -13s-37.167 -20.667 -51.5 -36s-25.666 -33.666 -33.999 -54.999s-12.5 -44.333 -12.5 -69c0 -25.333 4.16699 -48.5 12.5 -69.5s19.833 -39 34.5 -54s32 -26.833 52 -35.5s42 -13 66 -13c38.667 0 70.334 8 95.001 24
s41.667 36.667 51 62h41c-11.333 -38 -34 -68 -68 -90s-73.667 -33 -119 -33c-29.333 0 -56.666 5.5 -81.999 16.5s-47.166 25.833 -65.499 44.5s-32.666 40.667 -42.999 66s-15.5 52.666 -15.5 81.999c0 28.667 5.16699 55.834 15.5 81.501s24.5 48 42.5 67
s39.5 34 64.5 45s52.5 16.5 82.5 16.5c46 0 85.5 -11.333 118.5 -34s55.167 -52.334 66.5 -89.001h-41c-9.33301 24 -26 44.333 -50 61s-55.333 25 -94 25zM376.995 541l-21 -25l-96 66l-96 -66l-21 25l117 92z" />
    <glyph glyph-name="Cdotaccent" unicode="&#x10a;" horiz-adv-x="800" 
d="M56 350c0 50 9.33301 96.8359 28 140.503s44.334 81.667 77.001 114s71 58 115 77s91.333 28.5 142 28.5c41.333 0 79.666 -5.66699 114.999 -17s67.333 -27 96 -47s53.5 -44 74.5 -72s37.833 -58.667 50.5 -92h-47c-10 24.667 -23.833 48.334 -41.5 71.001
s-38.667 42.5 -63 59.5s-52 30.5 -83 40.5s-64.5 15 -100.5 15c-45.333 0 -87.333 -8.16699 -126 -24.5s-72.334 -38.833 -101.001 -67.5s-51.167 -62.334 -67.5 -101.001s-24.5 -80.334 -24.5 -125.001s8.16699 -86.334 24.5 -125.001s38.833 -72.334 67.5 -101.001
s62.334 -51.167 101.001 -67.5s80.667 -24.5 126 -24.5c36 0 69.833 5.16699 101.5 15.5s60 24.333 85 42s46.333 38.167 64 61.5s30.834 48.333 39.501 75h47c-11.333 -35.333 -27.5 -67.333 -48.5 -96s-46.167 -53.5 -75.5 -74.5s-62 -37.167 -98 -48.5
s-74.667 -17 -116 -17c-50.667 0 -98 9.5 -142 28.5s-82.333 44.667 -115 77s-58.334 70.333 -77.001 114s-28 90.5 -28 140.5zM393 795.003c0 8 2.83301 14.833 8.5 20.5s13.167 8.5 22.5 8.5s17 -2.83301 23 -8.5s9 -12.5 9 -20.5s-3 -14.667 -9 -20s-13.667 -8 -23 -8
s-16.833 2.66699 -22.5 8s-8.5 12 -8.5 20z" />
    <glyph glyph-name="cdotaccent" unicode="&#x10b;" horiz-adv-x="481" 
d="M251 373c-24 0 -46.0049 -4.33301 -66.0049 -13s-37.167 -20.667 -51.5 -36s-25.666 -33.666 -33.999 -54.999s-12.5 -44.333 -12.5 -69c0 -25.333 4.16699 -48.5 12.5 -69.5s19.833 -39 34.5 -54s32 -26.833 52 -35.5s42 -13 66 -13c38.667 0 70.334 8 95.001 24
s41.667 36.667 51 62h41c-11.333 -38 -34 -68 -68 -90s-73.667 -33 -119 -33c-29.333 0 -56.666 5.5 -81.999 16.5s-47.166 25.833 -65.499 44.5s-32.666 40.667 -42.999 66s-15.5 52.666 -15.5 81.999c0 28.667 5.16699 55.834 15.5 81.501s24.5 48 42.5 67
s39.5 34 64.5 45s52.5 16.5 82.5 16.5c46 0 85.5 -11.333 118.5 -34s55.167 -52.334 66.5 -89.001h-41c-9.33301 24 -26 44.333 -50 61s-55.333 25 -94 25zM228.995 548c0 9.33301 2.83301 17 8.5 23s13.167 9 22.5 9s17 -3 23 -9s9 -13.667 9 -23s-3 -16.833 -9 -22.5
s-13.667 -8.5 -23 -8.5s-16.833 2.83301 -22.5 8.5s-8.5 13.167 -8.5 22.5z" />
    <glyph glyph-name="Ccaron" unicode="&#x10c;" horiz-adv-x="800" 
d="M56 350c0 50 9.33301 96.8359 28 140.503s44.334 81.667 77.001 114s71 58 115 77s91.333 28.5 142 28.5c41.333 0 79.666 -5.66699 114.999 -17s67.333 -27 96 -47s53.5 -44 74.5 -72s37.833 -58.667 50.5 -92h-47c-10 24.667 -23.833 48.334 -41.5 71.001
s-38.667 42.5 -63 59.5s-52 30.5 -83 40.5s-64.5 15 -100.5 15c-45.333 0 -87.333 -8.16699 -126 -24.5s-72.334 -38.833 -101.001 -67.5s-51.167 -62.334 -67.5 -101.001s-24.5 -80.334 -24.5 -125.001s8.16699 -86.334 24.5 -125.001s38.833 -72.334 67.5 -101.001
s62.334 -51.167 101.001 -67.5s80.667 -24.5 126 -24.5c36 0 69.833 5.16699 101.5 15.5s60 24.333 85 42s46.333 38.167 64 61.5s30.834 48.333 39.501 75h47c-11.333 -35.333 -27.5 -67.333 -48.5 -96s-46.167 -53.5 -75.5 -74.5s-62 -37.167 -98 -48.5
s-74.667 -17 -116 -17c-50.667 0 -98 9.5 -142 28.5s-82.333 44.667 -115 77s-58.334 70.333 -77.001 114s-28 90.5 -28 140.5zM424 758.003l-117 82l21 23l96 -60l96 60l21 -23z" />
    <glyph glyph-name="ccaron" unicode="&#x10d;" horiz-adv-x="481" 
d="M251 373c-24 0 -46.0049 -4.33301 -66.0049 -13s-37.167 -20.667 -51.5 -36s-25.666 -33.666 -33.999 -54.999s-12.5 -44.333 -12.5 -69c0 -25.333 4.16699 -48.5 12.5 -69.5s19.833 -39 34.5 -54s32 -26.833 52 -35.5s42 -13 66 -13c38.667 0 70.334 8 95.001 24
s41.667 36.667 51 62h41c-11.333 -38 -34 -68 -68 -90s-73.667 -33 -119 -33c-29.333 0 -56.666 5.5 -81.999 16.5s-47.166 25.833 -65.499 44.5s-32.666 40.667 -42.999 66s-15.5 52.666 -15.5 81.999c0 28.667 5.16699 55.834 15.5 81.501s24.5 48 42.5 67
s39.5 34 64.5 45s52.5 16.5 82.5 16.5c46 0 85.5 -11.333 118.5 -34s55.167 -52.334 66.5 -89.001h-41c-9.33301 24 -26 44.333 -50 61s-55.333 25 -94 25zM259.995 514l-117 92l21 25l96 -66l96 66l21 -25z" />
    <glyph glyph-name="Dcaron" unicode="&#x10e;" horiz-adv-x="732" 
d="M90 700l234.001 -0.00195312c52 0 99.5 -8.83301 142.5 -26.5s79.667 -42.167 110 -73.5s53.833 -68.166 70.5 -110.499s25 -88.166 25 -137.499c0 -50.667 -7.83301 -97.5 -23.5 -140.5s-38.334 -80.167 -68.001 -111.5s-65.5 -55.833 -107.5 -73.5
s-89 -26.5 -141 -26.5h-242v700zM332.001 40.998c46 0 87.501 7.66895 124.501 23.002s68.167 36.666 93.5 63.999s44.833 60 58.5 98s20.5 80 20.5 126c0 44 -7.16699 84.833 -21.5 122.5s-34.833 70.167 -61.5 97.5s-58.834 48.666 -96.501 63.999s-79.5 23 -125.5 23
h-191v-618h199zM356.002 758l-117 82l21 23l96 -60l96 60l21 -23z" />
    <glyph glyph-name="dcaron" unicode="&#x10f;" horiz-adv-x="629" 
d="M242 28c25.333 0 47.833 4.50195 67.5 13.502s36.334 21.5 50.001 37.5s24.167 34.667 31.5 56s11 44 11 68s-3.5 46.333 -10.5 67s-17.333 38.667 -31 54s-30.5 27.333 -50.5 36s-42.667 13 -68 13c-23.333 0 -44.5 -4.5 -63.5 -13.5s-35.333 -21.333 -49 -37
s-24.167 -33.834 -31.5 -54.501s-11 -42.334 -11 -65.001c0 -24 3.5 -46.667 10.5 -68s17.167 -40 30.5 -56s29.666 -28.5 48.999 -37.5s41 -13.5 65 -13.5zM400 73.002c-14.667 -26 -36 -46.166 -64 -60.499s-59 -21.5 -93 -21.5c-30.667 0 -58.167 5.33301 -82.5 16
s-45 25.5 -62 44.5s-30 41.333 -39 67s-13.5 53.834 -13.5 84.501c0 29.333 4.66699 56.666 14 81.999s22.5 47.166 39.5 65.499s37.5 32.833 61.5 43.5s51 16 81 16c34.667 0 65.5 -7.33301 92.5 -22s48.833 -34 65.5 -58v323h41v-653h-39zM633 693.003l-83 -187l-30 11
l66 189z" />
    <glyph glyph-name="Dcroat" unicode="&#x110;" horiz-adv-x="732" 
d="M90 292l-59.999 -0.00195312v37h60v371h234c52 0 99.5 -8.83301 142.5 -26.5s79.667 -42.167 110 -73.5s53.833 -68.166 70.5 -110.499s25 -88.166 25 -137.499c0 -50.667 -7.83301 -97.5 -23.5 -140.5s-38.334 -80.167 -68.001 -111.5s-65.5 -55.833 -107.5 -73.5
s-89 -26.5 -141 -26.5h-242v292zM332.001 40.998c46 0 87.501 7.66895 124.501 23.002s68.167 36.666 93.5 63.999s44.833 60 58.5 98s20.5 80 20.5 126c0 44 -7.16699 84.833 -21.5 122.5s-34.833 70.167 -61.5 97.5s-58.834 48.666 -96.501 63.999s-79.5 23 -125.5 23
h-191v-330h226v-37h-226v-251h199z" />
    <glyph glyph-name="dcroat" unicode="&#x111;" horiz-adv-x="517" 
d="M277 566l123 0.000976562v87h41v-87h76v-35h-76v-531h-39l-2 73c-14.667 -26 -36 -46.167 -64 -60.5s-59 -21.5 -93 -21.5c-30.667 0 -58.167 5.33301 -82.5 16s-45 25.5 -62 44.5s-30 41.333 -39 67s-13.5 53.834 -13.5 84.501c0 29.333 4.66699 56.666 14 81.999
s22.5 47.166 39.5 65.499s37.5 32.833 61.5 43.5s51 16 81 16c34.667 0 65.5 -7.33301 92.5 -22s48.833 -34 65.5 -58v201h-123v35zM242 28.001c25.333 0 47.833 4.50195 67.5 13.502s36.334 21.5 50.001 37.5s24.167 34.667 31.5 56s11 44 11 68s-3.5 46.333 -10.5 67
s-17.333 38.667 -31 54s-30.5 27.333 -50.5 36s-42.667 13 -68 13c-23.333 0 -44.5 -4.5 -63.5 -13.5s-35.333 -21.333 -49 -37s-24.167 -33.834 -31.5 -54.501s-11 -42.334 -11 -65.001c0 -24 3.5 -46.667 10.5 -68s17.167 -40 30.5 -56s29.666 -28.5 48.999 -37.5
s41 -13.5 65 -13.5z" />
    <glyph glyph-name="Emacron" unicode="&#x112;" horiz-adv-x="597" 
d="M133 659v-259h374v-41h-374v-318h402v-41h-445v700h445v-41h-402zM198 806h260v-31h-260v31z" />
    <glyph glyph-name="emacron" unicode="&#x113;" horiz-adv-x="485" 
d="M86 184c3.33301 -46.667 19.8311 -84.499 49.498 -113.499s68.834 -43.5 117.501 -43.5c38.667 0 69.5 8.66699 92.5 26s37.833 37.666 44.5 60.999h40c-4 -18 -11.167 -34.5 -21.5 -49.5s-23.166 -28 -38.499 -39s-33 -19.5 -53 -25.5s-41.333 -9 -64 -9
c-31.333 0 -59.833 5.5 -85.5 16.5s-47.5 25.833 -65.5 44.5s-31.833 40.667 -41.5 66s-14.5 52.666 -14.5 81.999c0 28.667 5 55.834 15 81.501s24 48 42 67s39.333 34 64 45s52 16.5 82 16.5c29.333 0 55.666 -5.5 78.999 -16.5s43.333 -25.5 60 -43.5
s29.334 -38.667 38.001 -62s13 -47.333 13 -72c0 -13.333 -1 -24 -3 -32h-350zM248.998 374.001c-22.667 0 -43.498 -3.83301 -62.498 -11.5s-35.5 -18.334 -49.5 -32.001s-25.333 -30 -34 -49s-14 -39.5 -16 -61.5h312c0 18.667 -3.33301 37.334 -10 56.001
s-16.334 35.167 -29.001 49.5s-28.334 26 -47.001 35s-40 13.5 -64 13.5zM112 566.001h260v-35h-260v35z" />
    <glyph glyph-name="Ebreve" unicode="&#x114;" horiz-adv-x="597" 
d="M133 659v-259h374v-41h-374v-318h402v-41h-445v700h445v-41h-402zM328 772c-13.333 0 -27 2 -41 6s-26.833 9.5 -38.5 16.5s-21.5 15.667 -29.5 26s-13 22.166 -15 35.499h36c5.33301 -16.667 16.833 -29.334 34.5 -38.001s35.5 -13 53.5 -13s35.833 4.33301 53.5 13
s29.167 21.334 34.5 38.001h36c-2 -13.333 -7 -25.166 -15 -35.499s-17.833 -19 -29.5 -26s-24.5 -12.5 -38.5 -16.5s-27.667 -6 -41 -6z" />
    <glyph glyph-name="ebreve" unicode="&#x115;" horiz-adv-x="485" 
d="M86 184c3.33301 -46.667 19.8311 -84.499 49.498 -113.499s68.834 -43.5 117.501 -43.5c38.667 0 69.5 8.66699 92.5 26s37.833 37.666 44.5 60.999h40c-4 -18 -11.167 -34.5 -21.5 -49.5s-23.166 -28 -38.499 -39s-33 -19.5 -53 -25.5s-41.333 -9 -64 -9
c-31.333 0 -59.833 5.5 -85.5 16.5s-47.5 25.833 -65.5 44.5s-31.833 40.667 -41.5 66s-14.5 52.666 -14.5 81.999c0 28.667 5 55.834 15 81.501s24 48 42 67s39.333 34 64 45s52 16.5 82 16.5c29.333 0 55.666 -5.5 78.999 -16.5s43.333 -25.5 60 -43.5
s29.334 -38.667 38.001 -62s13 -47.333 13 -72c0 -13.333 -1 -24 -3 -32h-350zM248.998 374.001c-22.667 0 -43.498 -3.83301 -62.498 -11.5s-35.5 -18.334 -49.5 -32.001s-25.333 -30 -34 -49s-14 -39.5 -16 -61.5h312c0 18.667 -3.33301 37.334 -10 56.001
s-16.334 35.167 -29.001 49.5s-28.334 26 -47.001 35s-40 13.5 -64 13.5zM242 531.001c-13.333 0 -27 2.16699 -41 6.5s-26.833 10.5 -38.5 18.5s-21.5 17.833 -29.5 29.5s-13 24.5 -15 38.5h36c5.33301 -18 16.833 -31.833 34.5 -41.5s35.5 -14.5 53.5 -14.5
s35.833 4.83301 53.5 14.5s29.167 23.5 34.5 41.5h36c-2 -14 -7 -26.833 -15 -38.5s-17.833 -21.5 -29.5 -29.5s-24.5 -14.167 -38.5 -18.5s-27.667 -6.5 -41 -6.5z" />
    <glyph glyph-name="Edotaccent" unicode="&#x116;" horiz-adv-x="597" 
d="M133 659v-259h374v-41h-374v-318h402v-41h-445v700h445v-41h-402zM297 795c0 8 2.83301 14.833 8.5 20.5s13.167 8.5 22.5 8.5s17 -2.83301 23 -8.5s9 -12.5 9 -20.5s-3 -14.667 -9 -20s-13.667 -8 -23 -8s-16.833 2.66699 -22.5 8s-8.5 12 -8.5 20z" />
    <glyph glyph-name="edotaccent" unicode="&#x117;" horiz-adv-x="485" 
d="M86 184c3.33301 -46.667 19.8311 -84.499 49.498 -113.499s68.834 -43.5 117.501 -43.5c38.667 0 69.5 8.66699 92.5 26s37.833 37.666 44.5 60.999h40c-4 -18 -11.167 -34.5 -21.5 -49.5s-23.166 -28 -38.499 -39s-33 -19.5 -53 -25.5s-41.333 -9 -64 -9
c-31.333 0 -59.833 5.5 -85.5 16.5s-47.5 25.833 -65.5 44.5s-31.833 40.667 -41.5 66s-14.5 52.666 -14.5 81.999c0 28.667 5 55.834 15 81.501s24 48 42 67s39.333 34 64 45s52 16.5 82 16.5c29.333 0 55.666 -5.5 78.999 -16.5s43.333 -25.5 60 -43.5
s29.334 -38.667 38.001 -62s13 -47.333 13 -72c0 -13.333 -1 -24 -3 -32h-350zM248.998 374.001c-22.667 0 -43.498 -3.83301 -62.498 -11.5s-35.5 -18.334 -49.5 -32.001s-25.333 -30 -34 -49s-14 -39.5 -16 -61.5h312c0 18.667 -3.33301 37.334 -10 56.001
s-16.334 35.167 -29.001 49.5s-28.334 26 -47.001 35s-40 13.5 -64 13.5zM211 548.001c0 9.33301 2.83301 17 8.5 23s13.167 9 22.5 9s17 -3 23 -9s9 -13.667 9 -23s-3 -16.833 -9 -22.5s-13.667 -8.5 -23 -8.5s-16.833 2.83301 -22.5 8.5s-8.5 13.167 -8.5 22.5z" />
    <glyph glyph-name="Eogonek" unicode="&#x118;" horiz-adv-x="597" 
d="M133 659l-0.00195312 -258.999h374v-41h-374v-318h402v-41h-26c-7.33301 -5.33301 -15.333 -11.666 -24 -18.999s-16.5 -15.5 -23.5 -24.5s-12.833 -18.667 -17.5 -29s-7 -21.166 -7 -32.499c0 -20 7 -34.5 21 -43.5s30.333 -13.5 49 -13.5c10 0 18.5 0.666992 25.5 2
s14.5 3.66602 22.5 6.99902v-37c-8.66699 -2.66699 -17.167 -4.83398 -25.5 -6.50098s-17.166 -2.5 -26.499 -2.5c-14 0 -27.167 2 -39.5 6s-23.166 9.66699 -32.499 17s-16.833 16.666 -22.5 27.999s-8.5 24.333 -8.5 39c0 23.333 7.33301 44.5 22 63.5
s30.667 34.167 48 45.5h-380v700h445v-41h-402z" />
    <glyph glyph-name="eogonek" unicode="&#x119;" horiz-adv-x="485" 
d="M86 184c3.33301 -46.667 19.8291 -84.4961 49.4961 -113.496s68.834 -43.5 117.501 -43.5c38.667 0 69.5 8.66699 92.5 26s37.833 37.666 44.5 60.999h40c-6 -28 -19.5 -52.167 -40.5 -72.5s-47.5 -34.5 -79.5 -42.5c-7.33301 -5.33301 -15.166 -11.666 -23.499 -18.999
s-15.833 -15.5 -22.5 -24.5s-12.167 -18.5 -16.5 -28.5s-6.5 -20.667 -6.5 -32c0 -20 7 -34.5 21 -43.5s30.333 -13.5 49 -13.5c10 0 18.5 0.666992 25.5 2s14.5 3.66602 22.5 6.99902v-37c-8.66699 -2.66699 -17.167 -4.83398 -25.5 -6.50098s-17.166 -2.5 -26.499 -2.5
c-14 0 -27.167 2 -39.5 6s-23.166 9.66699 -32.499 17s-16.833 16.666 -22.5 27.999s-8.5 24.333 -8.5 39c0 20.667 5.83301 39.667 17.5 57s25.167 31.666 40.5 42.999h-9c-31.333 0 -59.833 5.5 -85.5 16.5s-47.5 25.833 -65.5 44.5s-31.833 40.667 -41.5 66
s-14.5 52.666 -14.5 81.999c0 28.667 5 55.834 15 81.501s24 48 42 67s39.333 34 64 45s52 16.5 82 16.5c29.333 0 55.666 -5.5 78.999 -16.5s43.333 -25.5 60 -43.5s29.334 -38.667 38.001 -62s13 -47.333 13 -72c0 -13.333 -1 -24 -3 -32h-350zM248.996 374.004
c-22.667 0 -43.498 -3.83301 -62.498 -11.5s-35.5 -18.334 -49.5 -32.001s-25.333 -30 -34 -49s-14 -39.5 -16 -61.5h312c0 18.667 -3.33301 37.334 -10 56.001s-16.334 35.167 -29.001 49.5s-28.334 26 -47.001 35s-40 13.5 -64 13.5z" />
    <glyph glyph-name="Ecaron" unicode="&#x11a;" horiz-adv-x="597" 
d="M133 659v-259h374v-41h-374v-318h402v-41h-445v700h445v-41h-402zM328 758l-117 82l21 23l96 -60l96 60l21 -23z" />
    <glyph glyph-name="ecaron" unicode="&#x11b;" horiz-adv-x="485" 
d="M86 184c3.33301 -46.667 19.8311 -84.499 49.498 -113.499s68.834 -43.5 117.501 -43.5c38.667 0 69.5 8.66699 92.5 26s37.833 37.666 44.5 60.999h40c-4 -18 -11.167 -34.5 -21.5 -49.5s-23.166 -28 -38.499 -39s-33 -19.5 -53 -25.5s-41.333 -9 -64 -9
c-31.333 0 -59.833 5.5 -85.5 16.5s-47.5 25.833 -65.5 44.5s-31.833 40.667 -41.5 66s-14.5 52.666 -14.5 81.999c0 28.667 5 55.834 15 81.501s24 48 42 67s39.333 34 64 45s52 16.5 82 16.5c29.333 0 55.666 -5.5 78.999 -16.5s43.333 -25.5 60 -43.5
s29.334 -38.667 38.001 -62s13 -47.333 13 -72c0 -13.333 -1 -24 -3 -32h-350zM248.998 374.001c-22.667 0 -43.498 -3.83301 -62.498 -11.5s-35.5 -18.334 -49.5 -32.001s-25.333 -30 -34 -49s-14 -39.5 -16 -61.5h312c0 18.667 -3.33301 37.334 -10 56.001
s-16.334 35.167 -29.001 49.5s-28.334 26 -47.001 35s-40 13.5 -64 13.5zM242 514.001l-117 92l21 25l96 -66l96 66l21 -25z" />
    <glyph glyph-name="Gcircumflex" unicode="&#x11c;" horiz-adv-x="827" 
d="M425 322l0.000976562 41h346v-13c0 -54.667 -8.83301 -104.167 -26.5 -148.5s-42.5 -82 -74.5 -113s-69.833 -55 -113.5 -72s-91.5 -25.5 -143.5 -25.5c-50 0 -96.667 9.33301 -140 28s-81 44.334 -113 77.001s-57.333 70.667 -76 114s-28 90 -28 140
s9.33301 96.833 28 140.5s44.167 81.667 76.5 114s70.5 58 114.5 77s91.333 28.5 142 28.5c41.333 0 79.666 -5.66699 114.999 -17s67.166 -27 95.499 -47s53 -44 74 -72s37.833 -58.667 50.5 -92h-47c-10 24.667 -23.833 48.334 -41.5 71.001s-38.667 42.5 -63 59.5
s-51.833 30.5 -82.5 40.5s-64 15 -100 15c-45.333 0 -87.333 -8.16699 -126 -24.5s-72.167 -38.833 -100.5 -67.5s-50.666 -62.334 -66.999 -101.001s-24.5 -80.334 -24.5 -125.001s8.16699 -86.334 24.5 -125.001s38.5 -72.167 66.5 -100.5s61 -50.666 99 -66.999
s79 -24.5 123 -24.5s84.833 7.5 122.5 22.5s70.5 35.5 98.5 61.5s50 56.667 66 92s24.667 73 26 113h-301zM530.001 784l-21 -23l-96 60l-96 -60l-21 23l117 83z" />
    <glyph glyph-name="gcircumflex" unicode="&#x11d;" horiz-adv-x="461" 
d="M64 241c0 22.667 4.50098 44.3271 13.501 64.9941s21.167 38.667 36.5 54s33.333 27.5 54 36.5s42.667 13.5 66 13.5h192v-30l-91 -4c22 -14.667 39.167 -34.334 51.5 -59.001s18.5 -50 18.5 -76c0 -23.333 -4.33301 -45.166 -13 -65.499s-20.834 -38 -36.501 -53
s-33.834 -27 -54.501 -36s-43 -13.5 -67 -13.5c-24.667 0 -45.667 3.83301 -63 11.5s-33.666 17.5 -48.999 29.5c-12.667 -3.33301 -24.167 -9.16602 -34.5 -17.499s-15.5 -21.166 -15.5 -38.499c0 -22 8.66699 -37.167 26 -45.5s37.666 -12.5 60.999 -12.5h93
c62 0 108.667 -13.167 140 -39.5s47 -62.833 47 -109.5c0 -22.667 -4.33301 -43.667 -13 -63s-21.334 -36.166 -38.001 -50.499s-37.334 -25.5 -62.001 -33.5s-53 -12 -85 -12c-34 0 -63.667 4.5 -89 13.5s-46.166 20.833 -62.499 35.5s-28.666 31.5 -36.999 50.5
s-12.5 38.5 -12.5 58.5c0 30 7 55.5 21 76.5s28.667 36.167 44 45.5c-22 6 -39.667 16 -53 30s-20 32.667 -20 56c0 12.667 2.16699 23.834 6.5 33.501s9.83301 17.834 16.5 24.501s13.834 12.167 21.501 16.5s15.167 7.83301 22.5 10.5
c-10.667 9.33301 -19.167 23.333 -25.5 42s-9.5 37.334 -9.5 56.001zM150.001 -35.0068c-19.333 -9.33301 -35.832 -23.833 -49.499 -43.5s-20.5 -43.167 -20.5 -70.5c0 -34 13.5 -63 40.5 -87s67.167 -36 120.5 -36c54 0 94 11.5 120 34.5s39 52.5 39 88.5
c0 17.333 -2.5 33 -7.5 47s-13.333 26 -25 36s-26.834 17.667 -45.501 23s-42 8 -70 8h-102zM104.002 240.993c0 -19.333 3.33301 -37 10 -53s16 -29.833 28 -41.5s25.833 -20.834 41.5 -27.501s32.5 -10 50.5 -10s35 3.33301 51 10s29.833 15.834 41.5 27.501
s21 25.5 28 41.5s10.5 33.667 10.5 53c0 18.667 -3.5 36.167 -10.5 52.5s-16.333 30.5 -28 42.5s-25.5 21.333 -41.5 28s-33 10 -51 10s-34.833 -3.33301 -50.5 -10s-29.5 -16 -41.5 -28s-21.333 -26.167 -28 -42.5s-10 -33.833 -10 -52.5zM357.002 540.993l-21 -25l-96 66
l-96 -66l-21 25l117 92z" />
    <glyph glyph-name="Gbreve" unicode="&#x11e;" horiz-adv-x="827" 
d="M425 322l0.000976562 41h346v-13c0 -54.667 -8.83301 -104.167 -26.5 -148.5s-42.5 -82 -74.5 -113s-69.833 -55 -113.5 -72s-91.5 -25.5 -143.5 -25.5c-50 0 -96.667 9.33301 -140 28s-81 44.334 -113 77.001s-57.333 70.667 -76 114s-28 90 -28 140
s9.33301 96.833 28 140.5s44.167 81.667 76.5 114s70.5 58 114.5 77s91.333 28.5 142 28.5c41.333 0 79.666 -5.66699 114.999 -17s67.166 -27 95.499 -47s53 -44 74 -72s37.833 -58.667 50.5 -92h-47c-10 24.667 -23.833 48.334 -41.5 71.001s-38.667 42.5 -63 59.5
s-51.833 30.5 -82.5 40.5s-64 15 -100 15c-45.333 0 -87.333 -8.16699 -126 -24.5s-72.167 -38.833 -100.5 -67.5s-50.666 -62.334 -66.999 -101.001s-24.5 -80.334 -24.5 -125.001s8.16699 -86.334 24.5 -125.001s38.5 -72.167 66.5 -100.5s61 -50.666 99 -66.999
s79 -24.5 123 -24.5s84.833 7.5 122.5 22.5s70.5 35.5 98.5 61.5s50 56.667 66 92s24.667 73 26 113h-301zM413.001 772c-13.333 0 -27 2 -41 6s-26.833 9.5 -38.5 16.5s-21.5 15.667 -29.5 26s-13 22.166 -15 35.499h36c5.33301 -16.667 16.833 -29.334 34.5 -38.001
s35.5 -13 53.5 -13s35.833 4.33301 53.5 13s29.167 21.334 34.5 38.001h36c-2 -13.333 -7 -25.166 -15 -35.499s-17.833 -19 -29.5 -26s-24.5 -12.5 -38.5 -16.5s-27.667 -6 -41 -6z" />
    <glyph glyph-name="gbreve" unicode="&#x11f;" horiz-adv-x="461" 
d="M64 241c0 22.667 4.50098 44.3271 13.501 64.9941s21.167 38.667 36.5 54s33.333 27.5 54 36.5s42.667 13.5 66 13.5h192v-30l-91 -4c22 -14.667 39.167 -34.334 51.5 -59.001s18.5 -50 18.5 -76c0 -23.333 -4.33301 -45.166 -13 -65.499s-20.834 -38 -36.501 -53
s-33.834 -27 -54.501 -36s-43 -13.5 -67 -13.5c-24.667 0 -45.667 3.83301 -63 11.5s-33.666 17.5 -48.999 29.5c-12.667 -3.33301 -24.167 -9.16602 -34.5 -17.499s-15.5 -21.166 -15.5 -38.499c0 -22 8.66699 -37.167 26 -45.5s37.666 -12.5 60.999 -12.5h93
c62 0 108.667 -13.167 140 -39.5s47 -62.833 47 -109.5c0 -22.667 -4.33301 -43.667 -13 -63s-21.334 -36.166 -38.001 -50.499s-37.334 -25.5 -62.001 -33.5s-53 -12 -85 -12c-34 0 -63.667 4.5 -89 13.5s-46.166 20.833 -62.499 35.5s-28.666 31.5 -36.999 50.5
s-12.5 38.5 -12.5 58.5c0 30 7 55.5 21 76.5s28.667 36.167 44 45.5c-22 6 -39.667 16 -53 30s-20 32.667 -20 56c0 12.667 2.16699 23.834 6.5 33.501s9.83301 17.834 16.5 24.501s13.834 12.167 21.501 16.5s15.167 7.83301 22.5 10.5
c-10.667 9.33301 -19.167 23.333 -25.5 42s-9.5 37.334 -9.5 56.001zM150.001 -35.0068c-19.333 -9.33301 -35.832 -23.833 -49.499 -43.5s-20.5 -43.167 -20.5 -70.5c0 -34 13.5 -63 40.5 -87s67.167 -36 120.5 -36c54 0 94 11.5 120 34.5s39 52.5 39 88.5
c0 17.333 -2.5 33 -7.5 47s-13.333 26 -25 36s-26.834 17.667 -45.501 23s-42 8 -70 8h-102zM104.002 240.993c0 -19.333 3.33301 -37 10 -53s16 -29.833 28 -41.5s25.833 -20.834 41.5 -27.501s32.5 -10 50.5 -10s35 3.33301 51 10s29.833 15.834 41.5 27.501
s21 25.5 28 41.5s10.5 33.667 10.5 53c0 18.667 -3.5 36.167 -10.5 52.5s-16.333 30.5 -28 42.5s-25.5 21.333 -41.5 28s-33 10 -51 10s-34.833 -3.33301 -50.5 -10s-29.5 -16 -41.5 -28s-21.333 -26.167 -28 -42.5s-10 -33.833 -10 -52.5zM240.002 530.993
c-13.333 0 -27 2.16699 -41 6.5s-26.833 10.5 -38.5 18.5s-21.5 17.833 -29.5 29.5s-13 24.5 -15 38.5h36c5.33301 -18 16.833 -31.833 34.5 -41.5s35.5 -14.5 53.5 -14.5s35.833 4.83301 53.5 14.5s29.167 23.5 34.5 41.5h36c-2 -14 -7 -26.833 -15 -38.5
s-17.833 -21.5 -29.5 -29.5s-24.5 -14.167 -38.5 -18.5s-27.667 -6.5 -41 -6.5z" />
    <glyph glyph-name="Gdotaccent" unicode="&#x120;" horiz-adv-x="827" 
d="M425 322l0.000976562 41h346v-13c0 -54.667 -8.83301 -104.167 -26.5 -148.5s-42.5 -82 -74.5 -113s-69.833 -55 -113.5 -72s-91.5 -25.5 -143.5 -25.5c-50 0 -96.667 9.33301 -140 28s-81 44.334 -113 77.001s-57.333 70.667 -76 114s-28 90 -28 140
s9.33301 96.833 28 140.5s44.167 81.667 76.5 114s70.5 58 114.5 77s91.333 28.5 142 28.5c41.333 0 79.666 -5.66699 114.999 -17s67.166 -27 95.499 -47s53 -44 74 -72s37.833 -58.667 50.5 -92h-47c-10 24.667 -23.833 48.334 -41.5 71.001s-38.667 42.5 -63 59.5
s-51.833 30.5 -82.5 40.5s-64 15 -100 15c-45.333 0 -87.333 -8.16699 -126 -24.5s-72.167 -38.833 -100.5 -67.5s-50.666 -62.334 -66.999 -101.001s-24.5 -80.334 -24.5 -125.001s8.16699 -86.334 24.5 -125.001s38.5 -72.167 66.5 -100.5s61 -50.666 99 -66.999
s79 -24.5 123 -24.5s84.833 7.5 122.5 22.5s70.5 35.5 98.5 61.5s50 56.667 66 92s24.667 73 26 113h-301zM382.001 795c0 8 2.83301 14.833 8.5 20.5s13.167 8.5 22.5 8.5s17 -2.83301 23 -8.5s9 -12.5 9 -20.5s-3 -14.667 -9 -20s-13.667 -8 -23 -8
s-16.833 2.66699 -22.5 8s-8.5 12 -8.5 20z" />
    <glyph glyph-name="gdotaccent" unicode="&#x121;" horiz-adv-x="461" 
d="M64 241c0 22.667 4.50098 44.3271 13.501 64.9941s21.167 38.667 36.5 54s33.333 27.5 54 36.5s42.667 13.5 66 13.5h192v-30l-91 -4c22 -14.667 39.167 -34.334 51.5 -59.001s18.5 -50 18.5 -76c0 -23.333 -4.33301 -45.166 -13 -65.499s-20.834 -38 -36.501 -53
s-33.834 -27 -54.501 -36s-43 -13.5 -67 -13.5c-24.667 0 -45.667 3.83301 -63 11.5s-33.666 17.5 -48.999 29.5c-12.667 -3.33301 -24.167 -9.16602 -34.5 -17.499s-15.5 -21.166 -15.5 -38.499c0 -22 8.66699 -37.167 26 -45.5s37.666 -12.5 60.999 -12.5h93
c62 0 108.667 -13.167 140 -39.5s47 -62.833 47 -109.5c0 -22.667 -4.33301 -43.667 -13 -63s-21.334 -36.166 -38.001 -50.499s-37.334 -25.5 -62.001 -33.5s-53 -12 -85 -12c-34 0 -63.667 4.5 -89 13.5s-46.166 20.833 -62.499 35.5s-28.666 31.5 -36.999 50.5
s-12.5 38.5 -12.5 58.5c0 30 7 55.5 21 76.5s28.667 36.167 44 45.5c-22 6 -39.667 16 -53 30s-20 32.667 -20 56c0 12.667 2.16699 23.834 6.5 33.501s9.83301 17.834 16.5 24.501s13.834 12.167 21.501 16.5s15.167 7.83301 22.5 10.5
c-10.667 9.33301 -19.167 23.333 -25.5 42s-9.5 37.334 -9.5 56.001zM150.001 -35.0068c-19.333 -9.33301 -35.832 -23.833 -49.499 -43.5s-20.5 -43.167 -20.5 -70.5c0 -34 13.5 -63 40.5 -87s67.167 -36 120.5 -36c54 0 94 11.5 120 34.5s39 52.5 39 88.5
c0 17.333 -2.5 33 -7.5 47s-13.333 26 -25 36s-26.834 17.667 -45.501 23s-42 8 -70 8h-102zM104.002 240.993c0 -19.333 3.33301 -37 10 -53s16 -29.833 28 -41.5s25.833 -20.834 41.5 -27.501s32.5 -10 50.5 -10s35 3.33301 51 10s29.833 15.834 41.5 27.501
s21 25.5 28 41.5s10.5 33.667 10.5 53c0 18.667 -3.5 36.167 -10.5 52.5s-16.333 30.5 -28 42.5s-25.5 21.333 -41.5 28s-33 10 -51 10s-34.833 -3.33301 -50.5 -10s-29.5 -16 -41.5 -28s-21.333 -26.167 -28 -42.5s-10 -33.833 -10 -52.5zM209.002 547.993
c0 9.33301 2.83301 17 8.5 23s13.167 9 22.5 9s17 -3 23 -9s9 -13.667 9 -23s-3 -16.833 -9 -22.5s-13.667 -8.5 -23 -8.5s-16.833 2.83301 -22.5 8.5s-8.5 13.167 -8.5 22.5z" />
    <glyph glyph-name="Gcommaaccent" unicode="&#x122;" horiz-adv-x="827" 
d="M425 322l0.000976562 41h346v-13c0 -54.667 -8.83301 -104.167 -26.5 -148.5s-42.5 -82 -74.5 -113s-69.833 -55 -113.5 -72s-91.5 -25.5 -143.5 -25.5c-50 0 -96.667 9.33301 -140 28s-81 44.334 -113 77.001s-57.333 70.667 -76 114s-28 90 -28 140
s9.33301 96.833 28 140.5s44.167 81.667 76.5 114s70.5 58 114.5 77s91.333 28.5 142 28.5c41.333 0 79.666 -5.66699 114.999 -17s67.166 -27 95.499 -47s53 -44 74 -72s37.833 -58.667 50.5 -92h-47c-10 24.667 -23.833 48.334 -41.5 71.001s-38.667 42.5 -63 59.5
s-51.833 30.5 -82.5 40.5s-64 15 -100 15c-45.333 0 -87.333 -8.16699 -126 -24.5s-72.167 -38.833 -100.5 -67.5s-50.666 -62.334 -66.999 -101.001s-24.5 -80.334 -24.5 -125.001s8.16699 -86.334 24.5 -125.001s38.5 -72.167 66.5 -100.5s61 -50.666 99 -66.999
s79 -24.5 123 -24.5s84.833 7.5 122.5 22.5s70.5 35.5 98.5 61.5s50 56.667 66 92s24.667 73 26 113h-301zM448.001 -97l-83 -187l-30 11l66 189z" />
    <glyph glyph-name="gcommaaccent" unicode="&#x123;" horiz-adv-x="461" 
d="M64 241c0 22.667 4.50098 44.3271 13.501 64.9941s21.167 38.667 36.5 54s33.333 27.5 54 36.5s42.667 13.5 66 13.5h192v-30l-91 -4c22 -14.667 39.167 -34.334 51.5 -59.001s18.5 -50 18.5 -76c0 -23.333 -4.33301 -45.166 -13 -65.499s-20.834 -38 -36.501 -53
s-33.834 -27 -54.501 -36s-43 -13.5 -67 -13.5c-24.667 0 -45.667 3.83301 -63 11.5s-33.666 17.5 -48.999 29.5c-12.667 -3.33301 -24.167 -9.16602 -34.5 -17.499s-15.5 -21.166 -15.5 -38.499c0 -22 8.66699 -37.167 26 -45.5s37.666 -12.5 60.999 -12.5h93
c62 0 108.667 -13.167 140 -39.5s47 -62.833 47 -109.5c0 -22.667 -4.33301 -43.667 -13 -63s-21.334 -36.166 -38.001 -50.499s-37.334 -25.5 -62.001 -33.5s-53 -12 -85 -12c-34 0 -63.667 4.5 -89 13.5s-46.166 20.833 -62.499 35.5s-28.666 31.5 -36.999 50.5
s-12.5 38.5 -12.5 58.5c0 30 7 55.5 21 76.5s28.667 36.167 44 45.5c-22 6 -39.667 16 -53 30s-20 32.667 -20 56c0 12.667 2.16699 23.834 6.5 33.501s9.83301 17.834 16.5 24.501s13.834 12.167 21.501 16.5s15.167 7.83301 22.5 10.5
c-10.667 9.33301 -19.167 23.333 -25.5 42s-9.5 37.334 -9.5 56.001zM150.001 -35.0068c-19.333 -9.33301 -35.832 -23.833 -49.499 -43.5s-20.5 -43.167 -20.5 -70.5c0 -34 13.5 -63 40.5 -87s67.167 -36 120.5 -36c54 0 94 11.5 120 34.5s39 52.5 39 88.5
c0 17.333 -2.5 33 -7.5 47s-13.333 26 -25 36s-26.834 17.667 -45.501 23s-42 8 -70 8h-102zM104.002 240.993c0 -19.333 3.33301 -37 10 -53s16 -29.833 28 -41.5s25.833 -20.834 41.5 -27.501s32.5 -10 50.5 -10s35 3.33301 51 10s29.833 15.834 41.5 27.501
s21 25.5 28 41.5s10.5 33.667 10.5 53c0 18.667 -3.5 36.167 -10.5 52.5s-16.333 30.5 -28 42.5s-25.5 21.333 -41.5 28s-33 10 -51 10s-34.833 -3.33301 -50.5 -10s-29.5 -16 -41.5 -28s-21.333 -26.167 -28 -42.5s-10 -33.833 -10 -52.5zM204.002 518.993l83 187l30 -11
l-66 -189z" />
    <glyph glyph-name="Hcircumflex" unicode="&#x124;" horiz-adv-x="723" 
d="M633 0h-43v359h-457v-359h-43v700h43v-300h457v300h43v-700zM478 784l-21 -23l-96 60l-96 -60l-21 23l117 83z" />
    <glyph glyph-name="hcircumflex" unicode="&#x125;" horiz-adv-x="502" 
d="M76 653l41 -0.00195312v-308c6.66699 6.66699 15 13.834 25 21.501s21.333 14.834 34 21.501s27 12 43 16s33.667 6 53 6c50 0 89.167 -15.5 117.5 -46.5s42.5 -73.167 42.5 -126.5v-237h-41v237c0 42 -10.5 75.167 -31.5 99.5s-51.5 36.5 -91.5 36.5
c-18 0 -34.833 -2.33301 -50.5 -7s-29.667 -10.5 -42 -17.5s-23.5 -14.833 -33.5 -23.5s-18.333 -17 -25 -25v-300h-41v653zM213 783.998l-21 -23l-96 60l-96 -60l-21 23l117 83z" />
    <glyph glyph-name="Hbar" unicode="&#x126;" horiz-adv-x="723" 
d="M11 566h79v134h43v-134h457v134h43v-134h78v-35h-78v-531h-43v359h-457v-359h-43v531h-79v35zM590 400v131h-457v-131h457z" />
    <glyph glyph-name="hbar" unicode="&#x127;" horiz-adv-x="502" 
d="M0 566l76 -0.00195312v87h41v-87h123v-35h-123v-186c6.66699 6.66699 15 13.834 25 21.501s21.333 14.834 34 21.501s27 12 43 16s33.667 6 53 6c50 0 89.167 -15.5 117.5 -46.5s42.5 -73.167 42.5 -126.5v-237h-41v237c0 42 -10.5 75.167 -31.5 99.5
s-51.5 36.5 -91.5 36.5c-18 0 -34.833 -2.33301 -50.5 -7s-29.667 -10.5 -42 -17.5s-23.5 -14.833 -33.5 -23.5s-18.333 -17 -25 -25v-300h-41v531h-76v35z" />
    <glyph glyph-name="Itilde" unicode="&#x128;" horiz-adv-x="251" 
d="M147 0h-43v700h43v-700zM-5 788c6 13.333 15.001 25.001 27.001 35.001s26.333 15 43 15c10 0 20.333 -1.66699 31 -5s21 -7 31 -11s20 -7.66699 30 -11s19.667 -5 29 -5c10.667 0 19.834 3.5 27.501 10.5s13.5 14.167 17.5 21.5l24 -15
c-4 -15.333 -12.833 -27.833 -26.5 -37.5s-29.167 -14.5 -46.5 -14.5c-8.66699 0 -18.167 1.66699 -28.5 5s-20.833 7.16602 -31.5 11.499s-21.334 8.16602 -32.001 11.499s-20.334 5 -29.001 5c-11.333 0 -19.833 -3.16699 -25.5 -9.5s-10.5 -14.166 -14.5 -23.499z" />
    <glyph glyph-name="itilde" unicode="&#x129;" horiz-adv-x="201" 
d="M80 400h41v-400h-41v400zM-29 546c6 14.667 15.001 27.499 27.001 38.499s26.333 16.5 43 16.5c10 0 20.333 -1.83301 31 -5.5s21 -7.66699 31 -12s20 -8.33301 30 -12s19.667 -5.5 29 -5.5c10.667 0 19.834 3.83301 27.501 11.5s13.5 15.5 17.5 23.5l24 -17
c-4 -16.667 -12.833 -30.334 -26.5 -41.001s-29.167 -16 -46.5 -16c-8.66699 0 -18.167 1.83301 -28.5 5.5s-20.833 7.83398 -31.5 12.501s-21.334 8.83398 -32.001 12.501s-20.334 5.5 -29.001 5.5c-11.333 0 -19.833 -3.5 -25.5 -10.5s-10.5 -15.5 -14.5 -25.5z" />
    <glyph glyph-name="Imacron" unicode="&#x12a;" horiz-adv-x="251" 
d="M147 0h-43v700h43v-700zM-5 806h260v-31h-260v31z" />
    <glyph glyph-name="imacron" unicode="&#x12b;" horiz-adv-x="201" 
d="M80 400h41v-400h-41v400zM-29 566h260v-35h-260v35z" />
    <glyph glyph-name="Ibreve" unicode="&#x12c;" horiz-adv-x="251" 
d="M147 0h-43v700h43v-700zM125 772c-13.333 0 -27 2 -41 6s-26.833 9.5 -38.5 16.5s-21.5 15.667 -29.5 26s-13 22.166 -15 35.499h36c5.33301 -16.667 16.833 -29.334 34.5 -38.001s35.5 -13 53.5 -13s35.833 4.33301 53.5 13s29.167 21.334 34.5 38.001h36
c-2 -13.333 -7 -25.166 -15 -35.499s-17.833 -19 -29.5 -26s-24.5 -12.5 -38.5 -16.5s-27.667 -6 -41 -6z" />
    <glyph glyph-name="ibreve" unicode="&#x12d;" horiz-adv-x="201" 
d="M80 400h41v-400h-41v400zM101 531c-13.333 0 -27 2.16699 -41 6.5s-26.833 10.5 -38.5 18.5s-21.5 17.833 -29.5 29.5s-13 24.5 -15 38.5h36c5.33301 -18 16.833 -31.833 34.5 -41.5s35.5 -14.5 53.5 -14.5s35.833 4.83301 53.5 14.5s29.167 23.5 34.5 41.5h36
c-2 -14 -7 -26.833 -15 -38.5s-17.833 -21.5 -29.5 -29.5s-24.5 -14.167 -38.5 -18.5s-27.667 -6.5 -41 -6.5z" />
    <glyph glyph-name="Iogonek" unicode="&#x12e;" horiz-adv-x="251" 
d="M147 0l-4.00195 0.000976562c-7.33301 -5.33301 -15.333 -11.666 -24 -18.999s-16.5 -15.5 -23.5 -24.5s-12.833 -18.667 -17.5 -29s-7 -21.166 -7 -32.499c0 -20 7 -34.5 21 -43.5s30.333 -13.5 49 -13.5c10 0 18.5 0.666992 25.5 2s14.5 3.66602 22.5 6.99902v-37
c-8.66699 -2.66699 -17.167 -4.83398 -25.5 -6.50098s-17.166 -2.5 -26.499 -2.5c-14 0 -27.167 2 -39.5 6s-23.166 9.66699 -32.499 17s-16.833 16.666 -22.5 27.999s-8.5 24.333 -8.5 39c0 23.333 7.33301 44.5 22 63.5s30.667 34.167 48 45.5v700h43v-700z" />
    <glyph glyph-name="iogonek" unicode="&#x12f;" horiz-adv-x="201" 
d="M80 400l40.998 0.000976562v-400h-2c-7.33301 -5.33301 -15.333 -11.666 -24 -18.999s-16.5 -15.5 -23.5 -24.5s-12.833 -18.667 -17.5 -29s-7 -21.166 -7 -32.499c0 -20 7 -34.5 21 -43.5s30.333 -13.5 49 -13.5c10 0 18.5 0.666992 25.5 2s14.5 3.66602 22.5 6.99902
v-37c-8.66699 -2.66699 -17.167 -4.83398 -25.5 -6.50098s-17.166 -2.5 -26.499 -2.5c-14 0 -27.167 2 -39.5 6s-23.166 9.66699 -32.499 17s-16.833 16.666 -22.5 27.999s-8.5 24.333 -8.5 39c0 23.333 7.33301 44.5 22 63.5s30.667 34.167 48 45.5v400zM68.998 548.001
c0 9.33301 2.83301 17 8.5 23s13.167 9 22.5 9s17 -3 23 -9s9 -13.667 9 -23s-3 -16.833 -9 -22.5s-13.667 -8.5 -23 -8.5s-16.833 2.83301 -22.5 8.5s-8.5 13.167 -8.5 22.5z" />
    <glyph glyph-name="Idotaccent" unicode="&#x130;" horiz-adv-x="251" 
d="M147 0h-43v700h43v-700zM94 795c0 8 2.83301 14.833 8.5 20.5s13.167 8.5 22.5 8.5s17 -2.83301 23 -8.5s9 -12.5 9 -20.5s-3 -14.667 -9 -20s-13.667 -8 -23 -8s-16.833 2.66699 -22.5 8s-8.5 12 -8.5 20z" />
    <glyph glyph-name="dotlessi" unicode="&#x131;" horiz-adv-x="201" 
d="M80 400h41v-400h-41v400z" />
    <glyph glyph-name="IJ" unicode="&#x132;" horiz-adv-x="754" 
d="M147 0h-43v700h43v-700zM625 700l43 -0.00292969v-511c0 -28.667 -5.16699 -55.167 -15.5 -79.5s-24.833 -45.166 -43.5 -62.499s-41 -31 -67 -41s-54.667 -15 -86 -15c-26 0 -50.5 3.66699 -73.5 11s-43.5 17.833 -61.5 31.5s-33.167 29.834 -45.5 48.501
s-20.5 39 -24.5 61h42c7.33301 -33.333 25.5 -60.666 54.5 -81.999s65.167 -32 108.5 -32c26 0 49.5 3.83301 70.5 11.5s38.667 18.5 53 32.5s25.5 30.833 33.5 50.5s12 41.5 12 65.5v511z" />
    <glyph glyph-name="ij" unicode="&#x133;" horiz-adv-x="402" 
d="M80 400h41v-400h-41v400zM69 548c0 9.33301 2.83301 17 8.5 23s13.167 9 22.5 9s17 -3 23 -9s9 -13.667 9 -23s-3 -16.833 -9 -22.5s-13.667 -8.5 -23 -8.5s-16.833 2.83301 -22.5 8.5s-8.5 13.167 -8.5 22.5zM322 -97c0 -60 -14.168 -103.668 -42.501 -131.001
s-71.166 -37 -128.499 -29v37c47.333 -7.33301 80.833 0.333984 100.5 23.001s29.5 56 29.5 100v497h41v-497zM269.999 547.999c0 9.33301 2.83301 17 8.5 23s13.167 9 22.5 9s17 -3 23 -9s9 -13.667 9 -23s-3 -16.833 -9 -22.5s-13.667 -8.5 -23 -8.5
s-16.833 2.83301 -22.5 8.5s-8.5 13.167 -8.5 22.5z" />
    <glyph glyph-name="Jcircumflex" unicode="&#x134;" horiz-adv-x="503" 
d="M374 700l43 -0.00292969v-511c0 -28.667 -5.16699 -55.167 -15.5 -79.5s-24.833 -45.166 -43.5 -62.499s-41 -31 -67 -41s-54.667 -15 -86 -15c-26 0 -50.5 3.66699 -73.5 11s-43.5 17.833 -61.5 31.5s-33.167 29.834 -45.5 48.501s-20.5 39 -24.5 61h42
c7.33301 -33.333 25.5 -60.666 54.5 -81.999s65.167 -32 108.5 -32c26 0 49.5 3.83301 70.5 11.5s38.667 18.5 53 32.5s25.5 30.833 33.5 50.5s12 41.5 12 65.5v511zM512 783.997l-21 -23l-96 60l-96 -60l-21 23l117 83z" />
    <glyph glyph-name="jcircumflex" unicode="&#x135;" horiz-adv-x="201" 
d="M121 -97c0 -60 -14.168 -103.668 -42.501 -131.001s-71.166 -37 -128.499 -29v37c47.333 -7.33301 80.833 0.333984 100.5 23.001s29.5 56 29.5 100v497h41v-497zM217.999 540.999l-21 -25l-96 66l-96 -66l-21 25l117 92z" />
    <glyph glyph-name="Kcommaaccent" unicode="&#x136;" horiz-adv-x="598" 
d="M202 379l-69 -62v-317h-43v700h43v-328l376 328h62l-337 -295l344 -405h-55zM341 -97l-83 -187l-30 11l66 189z" />
    <glyph glyph-name="kcommaaccent" unicode="&#x137;" horiz-adv-x="426" 
d="M174 223l-57 -46v-177h-41v653h41v-429l217 176h62l-190 -154l210 -246h-54zM259 -97l-83 -187l-30 11l66 189z" />
    <glyph glyph-name="kgreenlandic" unicode="&#x138;" horiz-adv-x="426" 
d="M174 223l-57 -46v-177h-41v400h41v-176l217 176h62l-190 -154l210 -246h-54z" />
    <glyph glyph-name="Lacute" unicode="&#x139;" horiz-adv-x="535" 
d="M90 700v-700h425v41h-382v659h-43zM197 847l-148 -87l-22 19l138 107z" />
    <glyph glyph-name="lacute" unicode="&#x13a;" horiz-adv-x="197" 
d="M119 653h-41v-653h41v653zM183 847l-148 -87l-22 19l138 107z" />
    <glyph glyph-name="Lcommaaccent" unicode="&#x13b;" horiz-adv-x="535" 
d="M133 700v-659h382v-41h-425v700h43zM339 -97l-83 -187l-30 11l66 189z" />
    <glyph glyph-name="lcommaaccent" unicode="&#x13c;" horiz-adv-x="197" 
d="M119 0h-41v653h41v-653zM122 -97l-83 -187l-30 11l66 189z" />
    <glyph glyph-name="Lcaron" unicode="&#x13d;" horiz-adv-x="535" 
d="M133 700v-659h382v-41h-425v700h43zM379 693l-83 -187l-30 11l66 189z" />
    <glyph glyph-name="lcaron" unicode="&#x13e;" horiz-adv-x="307" 
d="M119 0h-41v653h41v-653zM311 693l-83 -187l-30 11l66 189z" />
    <glyph glyph-name="Ldot" unicode="&#x13f;" horiz-adv-x="535" 
d="M133 700v-659h382v-41h-425v700h43zM296 311c0 10.667 3.83301 19.834 11.5 27.501s16.834 11.5 27.501 11.5s19.834 -3.83301 27.501 -11.5s11.5 -16.834 11.5 -27.501s-3.83301 -19.834 -11.5 -27.501s-16.834 -11.5 -27.501 -11.5s-19.834 3.83301 -27.501 11.5
s-11.5 16.834 -11.5 27.501z" />
    <glyph glyph-name="ldot" unicode="&#x140;" horiz-adv-x="314" 
d="M119 0h-41v653h41v-653zM212 311c0 10.667 3.83301 19.834 11.5 27.501s16.834 11.5 27.501 11.5s19.834 -3.83301 27.501 -11.5s11.5 -16.834 11.5 -27.501s-3.83301 -19.834 -11.5 -27.501s-16.834 -11.5 -27.501 -11.5s-19.834 3.83301 -27.501 11.5
s-11.5 16.834 -11.5 27.501z" />
    <glyph glyph-name="Lslash" unicode="&#x141;" horiz-adv-x="535" 
d="M11 276l79 45v379h43v-354l225 130l18 -32l-243 -141v-262h382v-41h-425v278l-60 -34z" />
    <glyph glyph-name="lslash" unicode="&#x142;" horiz-adv-x="197" 
d="M119 341l55 32l18 -32l-73 -43v-298h-41v275l-54 -31l-19 32l73 42v335h41v-312z" />
    <glyph glyph-name="Nacute" unicode="&#x143;" horiz-adv-x="746" 
d="M656 700h-43v-614l-523 630v-716h43v604l523 -635v731zM458 847l-148 -87l-22 19l138 107z" />
    <glyph glyph-name="nacute" unicode="&#x144;" horiz-adv-x="498" 
d="M72 0h41v298c6.66699 8 15 16.5 25 25.5s21.167 17.167 33.5 24.5s26.333 13.333 42 18s32.5 7 50.5 7c40 0 70.5 -12.167 91.5 -36.5s31.5 -57.5 31.5 -99.5v-237h41v237c0 53.333 -14.167 95.5 -42.5 126.5s-67.5 46.5 -117.5 46.5c-19.333 0 -37 -2.16699 -53 -6.5
s-30.333 -9.83301 -43 -16.5s-24 -14 -34 -22s-18.333 -15.333 -25 -22l-4 57h-37v-400zM334 611l-148 -96l-22 21l138 118z" />
    <glyph glyph-name="Ncommaaccent" unicode="&#x145;" horiz-adv-x="746" 
d="M656 -31l-523 635v-604h-43v716l523 -630v614h43v-731zM430 -97l-83 -187l-30 11l66 189z" />
    <glyph glyph-name="ncommaaccent" unicode="&#x146;" horiz-adv-x="498" 
d="M72 400h37l4 -57c6.66699 6.66699 15 14 25 22s21.333 15.333 34 22s27 12.167 43 16.5s33.667 6.5 53 6.5c50 0 89.167 -15.5 117.5 -46.5s42.5 -73.167 42.5 -126.5v-237h-41v237c0 42 -10.5 75.167 -31.5 99.5s-51.5 36.5 -91.5 36.5c-18 0 -34.833 -2.33301 -50.5 -7
s-29.667 -10.667 -42 -18s-23.5 -15.5 -33.5 -24.5s-18.333 -17.5 -25 -25.5v-298h-41v400zM305 -97l-83 -187l-30 11l66 189z" />
    <glyph glyph-name="Ncaron" unicode="&#x147;" horiz-adv-x="746" 
d="M656 -31l-523 635v-604h-43v716l523 -630v614h43v-731zM373 758l-117 82l21 23l96 -60l96 60l21 -23z" />
    <glyph glyph-name="ncaron" unicode="&#x148;" horiz-adv-x="498" 
d="M72 400h37l4 -57c6.66699 6.66699 15 14 25 22s21.333 15.333 34 22s27 12.167 43 16.5s33.667 6.5 53 6.5c50 0 89.167 -15.5 117.5 -46.5s42.5 -73.167 42.5 -126.5v-237h-41v237c0 42 -10.5 75.167 -31.5 99.5s-51.5 36.5 -91.5 36.5c-18 0 -34.833 -2.33301 -50.5 -7
s-29.667 -10.667 -42 -18s-23.5 -15.5 -33.5 -24.5s-18.333 -17.5 -25 -25.5v-298h-41v400zM249 514l-117 92l21 25l96 -66l96 66l21 -25z" />
    <glyph glyph-name="napostrophe" unicode="&#x149;" horiz-adv-x="518" 
d="M92 400h37l4 -57c6.66699 6.66699 15 14 25 22s21.333 15.333 34 22s27 12.167 43 16.5s33.667 6.5 53 6.5c50 0 89.167 -15.5 117.5 -46.5s42.5 -73.167 42.5 -126.5v-237h-41v237c0 42 -10.5 75.167 -31.5 99.5s-51.5 36.5 -91.5 36.5c-18 0 -34.833 -2.33301 -50.5 -7
s-29.667 -10.667 -42 -18s-23.5 -15.5 -33.5 -24.5s-18.333 -17.5 -25 -25.5v-298h-41v400zM105 693l-83 -187l-30 11l66 189z" />
    <glyph glyph-name="Eng" unicode="&#x14a;" horiz-adv-x="746" 
d="M613 21l-480 582.997v-604h-43v716l523 -630v614h43v-761c0 -28.667 -5.16699 -55.167 -15.5 -79.5s-24.833 -45.166 -43.5 -62.499s-41 -31 -67 -41s-54.667 -15 -86 -15c-26 0 -50.5 3.66699 -73.5 11s-43.5 17.833 -61.5 31.5s-33.167 29.834 -45.5 48.501
s-20.5 39 -24.5 61h42c7.33301 -33.333 25.5 -60.666 54.5 -81.999s65.167 -32 108.5 -32c26 0 49.5 3.83301 70.5 11.5s38.667 18.5 53 32.5s25.5 30.833 33.5 50.5s12 41.5 12 65.5v82z" />
    <glyph glyph-name="eng" unicode="&#x14b;" horiz-adv-x="498" 
d="M72 400l36.999 -0.000976562l4 -57c6.66699 6.66699 15 14 25 22s21.333 15.333 34 22s27 12.167 43 16.5s33.667 6.5 53 6.5c50 0 89.167 -15.5 117.5 -46.5s42.5 -73.167 42.5 -126.5v-334c0 -60 -14.167 -103.667 -42.5 -131s-71.166 -37 -128.499 -29v37
c47.333 -7.33301 80.833 0.333984 100.5 23.001s29.5 56 29.5 100v334c0 42 -10.5 75.167 -31.5 99.5s-51.5 36.5 -91.5 36.5c-18 0 -34.833 -2.33301 -50.5 -7s-29.667 -10.667 -42 -18s-23.5 -15.5 -33.5 -24.5s-18.333 -17.5 -25 -25.5v-298h-41v400z" />
    <glyph glyph-name="Omacron" unicode="&#x14c;" horiz-adv-x="831" 
d="M56 350c0 50 9.33301 96.833 28 140.5s44.334 81.667 77.001 114s70.667 58 114 77s90 28.5 140 28.5s96.833 -9.5 140.5 -28.5s81.667 -44.667 114 -77s58 -70.333 77 -114s28.5 -90.5 28.5 -140.5s-9.5 -96.667 -28.5 -140s-44.667 -81.333 -77 -114
s-70.333 -58.334 -114 -77.001s-90.5 -28 -140.5 -28s-96.667 9.33301 -140 28s-81.333 44.334 -114 77.001s-58.334 70.667 -77.001 114s-28 90 -28 140zM100 350c0 -44.667 8.16699 -86.334 24.5 -125.001s38.833 -72.167 67.5 -100.5s62 -50.666 100 -66.999
s79 -24.5 123 -24.5s85.167 8.16699 123.5 24.5s71.666 38.666 99.999 66.999s50.833 61.833 67.5 100.5s25 80.334 25 125.001s-8.33301 86.334 -25 125.001s-39.167 72.334 -67.5 101.001s-61.666 51.167 -99.999 67.5s-79.5 24.5 -123.5 24.5s-85 -8.16699 -123 -24.5
s-71.333 -38.833 -100 -67.5s-51.167 -62.334 -67.5 -101.001s-24.5 -80.334 -24.5 -125.001zM285 806h260v-31h-260v31z" />
    <glyph glyph-name="omacron" unicode="&#x14d;" horiz-adv-x="499" 
d="M44 200c0 28.667 5.16699 55.834 15.5 81.501s24.833 48 43.5 67s40.334 34 65.001 45s51.667 16.5 81 16.5c28.667 0 55.667 -5.5 81 -16.5s47.166 -26 65.499 -45s32.833 -41.333 43.5 -67s16 -52.834 16 -81.501c0 -29.333 -5.33301 -56.666 -16 -81.999
s-25.167 -47.333 -43.5 -66s-40.166 -33.5 -65.499 -44.5s-52.333 -16.5 -81 -16.5c-29.333 0 -56.333 5.5 -81 16.5s-46.334 25.833 -65.001 44.5s-33.167 40.667 -43.5 66s-15.5 52.666 -15.5 81.999zM85 200c0 -25.333 4.16699 -48.5 12.5 -69.5s19.833 -39 34.5 -54
s32 -26.833 52 -35.5s41.667 -13 65 -13s45 4.33301 65 13s37.5 20.5 52.5 35.5s26.667 33 35 54s12.5 44.167 12.5 69.5c0 24.667 -4.16699 47.667 -12.5 69s-20 39.666 -35 54.999s-32.5 27.333 -52.5 36s-41.667 13 -65 13s-45 -4.33301 -65 -13s-37.333 -20.667 -52 -36
s-26.167 -33.666 -34.5 -54.999s-12.5 -44.333 -12.5 -69zM119 566h260v-35h-260v35z" />
    <glyph glyph-name="Obreve" unicode="&#x14e;" horiz-adv-x="831" 
d="M56 350c0 50 9.33301 96.833 28 140.5s44.334 81.667 77.001 114s70.667 58 114 77s90 28.5 140 28.5s96.833 -9.5 140.5 -28.5s81.667 -44.667 114 -77s58 -70.333 77 -114s28.5 -90.5 28.5 -140.5s-9.5 -96.667 -28.5 -140s-44.667 -81.333 -77 -114
s-70.333 -58.334 -114 -77.001s-90.5 -28 -140.5 -28s-96.667 9.33301 -140 28s-81.333 44.334 -114 77.001s-58.334 70.667 -77.001 114s-28 90 -28 140zM100 350c0 -44.667 8.16699 -86.334 24.5 -125.001s38.833 -72.167 67.5 -100.5s62 -50.666 100 -66.999
s79 -24.5 123 -24.5s85.167 8.16699 123.5 24.5s71.666 38.666 99.999 66.999s50.833 61.833 67.5 100.5s25 80.334 25 125.001s-8.33301 86.334 -25 125.001s-39.167 72.334 -67.5 101.001s-61.666 51.167 -99.999 67.5s-79.5 24.5 -123.5 24.5s-85 -8.16699 -123 -24.5
s-71.333 -38.833 -100 -67.5s-51.167 -62.334 -67.5 -101.001s-24.5 -80.334 -24.5 -125.001zM415 772c-13.333 0 -27 2 -41 6s-26.833 9.5 -38.5 16.5s-21.5 15.667 -29.5 26s-13 22.166 -15 35.499h36c5.33301 -16.667 16.833 -29.334 34.5 -38.001s35.5 -13 53.5 -13
s35.833 4.33301 53.5 13s29.167 21.334 34.5 38.001h36c-2 -13.333 -7 -25.166 -15 -35.499s-17.833 -19 -29.5 -26s-24.5 -12.5 -38.5 -16.5s-27.667 -6 -41 -6z" />
    <glyph glyph-name="obreve" unicode="&#x14f;" horiz-adv-x="499" 
d="M44 200c0 28.667 5.16699 55.834 15.5 81.501s24.833 48 43.5 67s40.334 34 65.001 45s51.667 16.5 81 16.5c28.667 0 55.667 -5.5 81 -16.5s47.166 -26 65.499 -45s32.833 -41.333 43.5 -67s16 -52.834 16 -81.501c0 -29.333 -5.33301 -56.666 -16 -81.999
s-25.167 -47.333 -43.5 -66s-40.166 -33.5 -65.499 -44.5s-52.333 -16.5 -81 -16.5c-29.333 0 -56.333 5.5 -81 16.5s-46.334 25.833 -65.001 44.5s-33.167 40.667 -43.5 66s-15.5 52.666 -15.5 81.999zM85 200c0 -25.333 4.16699 -48.5 12.5 -69.5s19.833 -39 34.5 -54
s32 -26.833 52 -35.5s41.667 -13 65 -13s45 4.33301 65 13s37.5 20.5 52.5 35.5s26.667 33 35 54s12.5 44.167 12.5 69.5c0 24.667 -4.16699 47.667 -12.5 69s-20 39.666 -35 54.999s-32.5 27.333 -52.5 36s-41.667 13 -65 13s-45 -4.33301 -65 -13s-37.333 -20.667 -52 -36
s-26.167 -33.666 -34.5 -54.999s-12.5 -44.333 -12.5 -69zM249 531c-13.333 0 -27 2.16699 -41 6.5s-26.833 10.5 -38.5 18.5s-21.5 17.833 -29.5 29.5s-13 24.5 -15 38.5h36c5.33301 -18 16.833 -31.833 34.5 -41.5s35.5 -14.5 53.5 -14.5s35.833 4.83301 53.5 14.5
s29.167 23.5 34.5 41.5h36c-2 -14 -7 -26.833 -15 -38.5s-17.833 -21.5 -29.5 -29.5s-24.5 -14.167 -38.5 -18.5s-27.667 -6.5 -41 -6.5z" />
    <glyph glyph-name="Ohungarumlaut" unicode="&#x150;" horiz-adv-x="831" 
d="M56 350c0 50 9.33301 96.833 28 140.5s44.334 81.667 77.001 114s70.667 58 114 77s90 28.5 140 28.5s96.833 -9.5 140.5 -28.5s81.667 -44.667 114 -77s58 -70.333 77 -114s28.5 -90.5 28.5 -140.5s-9.5 -96.667 -28.5 -140s-44.667 -81.333 -77 -114
s-70.333 -58.334 -114 -77.001s-90.5 -28 -140.5 -28s-96.667 9.33301 -140 28s-81.333 44.334 -114 77.001s-58.334 70.667 -77.001 114s-28 90 -28 140zM100 350c0 -44.667 8.16699 -86.334 24.5 -125.001s38.833 -72.167 67.5 -100.5s62 -50.666 100 -66.999
s79 -24.5 123 -24.5s85.167 8.16699 123.5 24.5s71.666 38.666 99.999 66.999s50.833 61.833 67.5 100.5s25 80.334 25 125.001s-8.33301 86.334 -25 125.001s-39.167 72.334 -67.5 101.001s-61.666 51.167 -99.999 67.5s-79.5 24.5 -123.5 24.5s-85 -8.16699 -123 -24.5
s-71.333 -38.833 -100 -67.5s-51.167 -62.334 -67.5 -101.001s-24.5 -80.334 -24.5 -125.001zM354 763l-31 16l73 138l48 -17zM518 763l-31 16l73 138l48 -17z" />
    <glyph glyph-name="ohungarumlaut" unicode="&#x151;" horiz-adv-x="499" 
d="M44 200c0 28.667 5.16699 55.834 15.5 81.501s24.833 48 43.5 67s40.334 34 65.001 45s51.667 16.5 81 16.5c28.667 0 55.667 -5.5 81 -16.5s47.166 -26 65.499 -45s32.833 -41.333 43.5 -67s16 -52.834 16 -81.501c0 -29.333 -5.33301 -56.666 -16 -81.999
s-25.167 -47.333 -43.5 -66s-40.166 -33.5 -65.499 -44.5s-52.333 -16.5 -81 -16.5c-29.333 0 -56.333 5.5 -81 16.5s-46.334 25.833 -65.001 44.5s-33.167 40.667 -43.5 66s-15.5 52.666 -15.5 81.999zM85 200c0 -25.333 4.16699 -48.5 12.5 -69.5s19.833 -39 34.5 -54
s32 -26.833 52 -35.5s41.667 -13 65 -13s45 4.33301 65 13s37.5 20.5 52.5 35.5s26.667 33 35 54s12.5 44.167 12.5 69.5c0 24.667 -4.16699 47.667 -12.5 69s-20 39.666 -35 54.999s-32.5 27.333 -52.5 36s-41.667 13 -65 13s-45 -4.33301 -65 -13s-37.333 -20.667 -52 -36
s-26.167 -33.666 -34.5 -54.999s-12.5 -44.333 -12.5 -69zM188 515l-31 17l73 154l48 -19zM352 515l-31 17l73 154l48 -19z" />
    <glyph glyph-name="OE" unicode="&#x152;" horiz-adv-x="1238" 
d="M774 659v-259.001h374v-41h-374v-318h402v-41h-445v180c-15.333 -28 -33.833 -53.667 -55.5 -77s-46.167 -43.333 -73.5 -60s-56.833 -29.5 -88.5 -38.5s-64.5 -13.5 -98.5 -13.5c-50 0 -96.667 9.33301 -140 28s-81.333 44.334 -114 77.001s-58.334 70.667 -77.001 114
s-28 90 -28 140s9.33301 96.833 28 140.5s44.334 81.667 77.001 114s70.667 58 114 77s90 28.5 140 28.5c34 0 66.833 -4.66699 98.5 -14s61.167 -22.333 88.5 -39s51.833 -36.667 73.5 -60s40.167 -49 55.5 -77v180h445v-41h-402zM100 349.999
c0 -44.667 8.16699 -86.334 24.5 -125.001s38.833 -72.167 67.5 -100.5s62 -50.666 100 -66.999s79 -24.5 123 -24.5s85.167 8.16699 123.5 24.5s71.666 38.666 99.999 66.999s50.833 61.833 67.5 100.5s25 80.334 25 125.001s-8.33301 86.334 -25 125.001
s-39.167 72.334 -67.5 101.001s-61.666 51.167 -99.999 67.5s-79.5 24.5 -123.5 24.5s-85 -8.16699 -123 -24.5s-71.333 -38.833 -100 -67.5s-51.167 -62.334 -67.5 -101.001s-24.5 -80.334 -24.5 -125.001z" />
    <glyph glyph-name="oe" unicode="&#x153;" horiz-adv-x="853" 
d="M454 184c3.33301 -48 19.9971 -86.166 49.9971 -114.499s69 -42.5 117 -42.5c38.667 0 69.5 8.66699 92.5 26s37.833 37.666 44.5 60.999h40c-4 -18 -11.167 -34.5 -21.5 -49.5s-23.166 -28 -38.499 -39s-33 -19.5 -53 -25.5s-41.333 -9 -64 -9
c-45.333 0 -84 10.5 -116 31.5s-56 48.833 -72 83.5c-16.667 -34.667 -41.167 -62.5 -73.5 -83.5s-69.166 -31.5 -110.499 -31.5c-29.333 0 -56.333 5.5 -81 16.5s-46.334 25.833 -65.001 44.5s-33.167 40.667 -43.5 66s-15.5 52.666 -15.5 81.999
c0 28.667 5.16699 55.834 15.5 81.501s24.833 48 43.5 67s40.334 34 65.001 45s51.667 16.5 81 16.5c41.333 0 78.333 -10.833 111 -32.5s57.334 -49.834 74.001 -84.501c15.333 34.667 39 62.834 71 84.501s69 32.5 111 32.5c29.333 0 55.833 -5.5 79.5 -16.5
s43.667 -25.5 60 -43.5s29 -38.667 38 -62s13.5 -47.333 13.5 -72c0 -13.333 -1 -24 -3 -32h-350zM84.9971 200.001c0 -25.333 4.16992 -48.502 12.5029 -69.502s19.833 -39 34.5 -54s32 -26.833 52 -35.5s41.667 -13 65 -13s45 4.33301 65 13s37.5 20.834 52.5 36.501
s26.667 34.5 35 56.5s12.5 46.333 12.5 73c-1.33301 24 -6.33301 46.167 -15 66.5s-20.334 37.833 -35.001 52.5s-31.834 26.167 -51.501 34.5s-40.834 12.5 -63.501 12.5c-23.333 0 -45 -4.33301 -65 -13s-37.333 -20.667 -52 -36s-26.167 -33.666 -34.5 -54.999
s-12.5 -44.333 -12.5 -69zM616 373.999c-22 0 -42.499 -3.83301 -61.499 -11.5s-35.5 -18.334 -49.5 -32.001s-25.333 -30 -34 -49s-14 -39.5 -16 -61.5h312c0 18.667 -3.33301 37.334 -10 56.001s-16.334 35.167 -29.001 49.5s-28.5 26 -47.5 35s-40.5 13.5 -64.5 13.5z
" />
    <glyph glyph-name="Racute" unicode="&#x154;" horiz-adv-x="622" 
d="M133 314h185l218 -314h50l-218 314c23.333 0 46.833 3.83301 70.5 11.5s45 19.167 64 34.5s34.5 35 46.5 59s18 52 18 84c0 36.667 -6.16699 67.5 -18.5 92.5s-29 45.167 -50 60.5s-45.5 26.5 -73.5 33.5s-57.667 10.5 -89 10.5h-246v-700h43v314zM133 355
l0.000976562 304h203c26 0 50.333 -2.66699 73 -8s42.5 -14 59.5 -26s30.5 -27.833 40.5 -47.5s15 -43.834 15 -72.501s-5 -52.667 -15 -72s-23.5 -34.666 -40.5 -45.999s-36.833 -19.5 -59.5 -24.5s-46.334 -7.5 -71.001 -7.5h-205zM396.001 847l-148 -87l-22 19l138 107z
" />
    <glyph glyph-name="racute" unicode="&#x155;" horiz-adv-x="304" 
d="M72 0h41.002v298c8 8.66699 17.333 17.5 28 26.5s23.167 17 37.5 24s30.666 12 48.999 15s39.166 2.83301 62.499 -0.5v37c-24.667 3.33301 -46.5 3.5 -65.5 0.5s-35.667 -7.83301 -50 -14.5s-26.5 -14 -36.5 -22s-18.333 -15 -25 -21l-4 57h-37v-400zM257.002 611
l-148 -96l-22 21l138 118z" />
    <glyph glyph-name="Rcommaaccent" unicode="&#x156;" horiz-adv-x="622" 
d="M133 0h-43v700h246c31.333 0 61 -3.5 89 -10.5s52.5 -18.167 73.5 -33.5s37.667 -35.5 50 -60.5s18.5 -55.833 18.5 -92.5c0 -32 -6 -60 -18 -84s-27.5 -43.667 -46.5 -59s-40.333 -26.833 -64 -34.5s-47.167 -11.5 -70.5 -11.5l218 -314h-50l-218 314h-185v-314z
M338 355c24.667 0 48.333 2.5 71 7.5s42.5 13.167 59.5 24.5s30.5 26.666 40.5 45.999s15 43.333 15 72s-5 52.834 -15 72.501s-23.5 35.5 -40.5 47.5s-36.833 20.667 -59.5 26s-47 8 -73 8h-203v-304h205zM349.999 -97l-83 -187l-30 11l66 189z" />
    <glyph glyph-name="rcommaaccent" unicode="&#x157;" horiz-adv-x="304" 
d="M72 400h36.998l4 -57c6.66699 6 15 13 25 21s22.167 15.333 36.5 22s31 11.5 50 14.5s40.833 2.83301 65.5 -0.5v-37c-23.333 3.33301 -44.166 3.5 -62.499 0.5s-34.666 -8 -48.999 -15s-26.833 -15 -37.5 -24s-20 -17.833 -28 -26.5v-298h-41v400zM115.998 -97l-83 -187
l-30 11l66 189z" />
    <glyph glyph-name="Rcaron" unicode="&#x158;" horiz-adv-x="622" 
d="M133 0h-43v700h246c31.333 0 61 -3.5 89 -10.5s52.5 -18.167 73.5 -33.5s37.667 -35.5 50 -60.5s18.5 -55.833 18.5 -92.5c0 -32 -6 -60 -18 -84s-27.5 -43.667 -46.5 -59s-40.333 -26.833 -64 -34.5s-47.167 -11.5 -70.5 -11.5l218 -314h-50l-218 314h-185v-314z
M338 355c24.667 0 48.333 2.5 71 7.5s42.5 13.167 59.5 24.5s30.5 26.666 40.5 45.999s15 43.333 15 72s-5 52.834 -15 72.501s-23.5 35.5 -40.5 47.5s-36.833 20.667 -59.5 26s-47 8 -73 8h-203v-304h205zM310.999 758l-117 82l21 23l96 -60l96 60l21 -23z" />
    <glyph glyph-name="rcaron" unicode="&#x159;" horiz-adv-x="304" 
d="M72 400h36.998l4 -57c6.66699 6 15 13 25 21s22.167 15.333 36.5 22s31 11.5 50 14.5s40.833 2.83301 65.5 -0.5v-37c-23.333 3.33301 -44.166 3.5 -62.499 0.5s-34.666 -8 -48.999 -15s-26.833 -15 -37.5 -24s-20 -17.833 -28 -26.5v-298h-41v400zM171.998 514l-117 92
l21 25l96 -66l96 66l21 -25z" />
    <glyph glyph-name="Sacute" unicode="&#x15a;" horiz-adv-x="537" 
d="M271 31c-54 0 -97.167 10.332 -129.5 30.999s-52.166 47.667 -59.499 81h-42c4 -22 12.5 -42.333 25.5 -61s29.5 -34.834 49.5 -48.501s43.167 -24.167 69.5 -31.5s55.166 -11 86.499 -11c28 0 55.333 4 82 12s50.167 20 70.5 36s36.666 35.5 48.999 58.5
s18.5 49.5 18.5 79.5c0 28.667 -5.5 53.5 -16.5 74.5s-26.5 39.333 -46.5 55s-44 29.5 -72 41.5s-59 24 -93 36c-25.333 8 -48.5 16.333 -69.5 25s-39.167 18.834 -54.5 30.501s-27.166 25.5 -35.499 41.5s-12.5 35.667 -12.5 59c0 14 3.5 28.667 10.5 44
s17.5 29.333 31.5 42s31.833 23.167 53.5 31.5s47.167 12.5 76.5 12.5c46 0 84.5 -10.333 115.5 -31s50.167 -47.667 57.5 -81h42c-4 22 -12.167 42.333 -24.5 61s-28 34.834 -47 48.501s-40.667 24.167 -65 31.5s-50.5 11 -78.5 11c-37.333 0 -69.5 -5.16699 -96.5 -15.5
s-49.167 -23.666 -66.5 -39.999s-30.166 -34.666 -38.499 -54.999s-12.5 -40.5 -12.5 -60.5c0 -28.667 4.66699 -53 14 -73s22.666 -37.333 39.999 -52s37.833 -27.334 61.5 -38.001s50.167 -21 79.5 -31c30 -10 57.5 -20.167 82.5 -30.5s46.5 -21.833 64.5 -34.5
s32 -27.334 42 -44.001s15 -37 15 -61c0 -23.333 -5 -44 -15 -62s-23.333 -33 -40 -45s-35.667 -21.167 -57 -27.5s-43 -9.5 -65 -9.5zM353 846.999l-148 -87l-22 19l138 107z" />
    <glyph glyph-name="sacute" unicode="&#x15b;" horiz-adv-x="379" 
d="M189 27c-34.667 0 -60.833 6.33496 -78.5 19.002s-28.167 25.667 -31.5 39h-41c5.33301 -25.333 21.166 -47.333 47.499 -66s60.5 -28 102.5 -28c19.333 0 37.833 2.33301 55.5 7s33.334 11.667 47.001 21s24.5 20.833 32.5 34.5s12 29.834 12 48.501
s-3.66699 34.667 -11 48s-17.5 24.666 -30.5 33.999s-28 17.166 -45 23.499s-35.167 11.833 -54.5 16.5c-31.333 7.33301 -56 16.5 -74 27.5s-27 28.5 -27 52.5c0 20.667 8.16699 37.5 24.5 50.5s39.833 19.5 70.5 19.5c16 0 29.667 -1.83301 41 -5.5
s20.833 -8.33398 28.5 -14.001s13.667 -12 18 -19s7.5 -13.833 9.5 -20.5h42c-2.66699 12 -7.5 23.667 -14.5 35s-16.333 21.5 -28 30.5s-25.5 16.167 -41.5 21.5s-34 8 -54 8c-22.667 0 -42.5 -3 -59.5 -9s-31.167 -14 -42.5 -24s-19.833 -21.333 -25.5 -34
s-8.5 -25.667 -8.5 -39c0 -17.333 3.33301 -32.333 10 -45s15.667 -23.5 27 -32.5s24.5 -16.333 39.5 -22s30.5 -10.5 46.5 -14.5c34.667 -8 63.167 -18.167 85.5 -30.5s33.5 -31.833 33.5 -58.5c0 -26 -10.667 -44.833 -32 -56.5s-46 -17.5 -74 -17.5zM274.001 611.002
l-148 -96l-22 21l138 118z" />
    <glyph glyph-name="Scircumflex" unicode="&#x15c;" horiz-adv-x="537" 
d="M271 31c22 0 43.667 3.16797 65 9.50098s40.333 15.5 57 27.5s30 27 40 45s15 38.667 15 62c0 24 -5 44.333 -15 61s-24 31.334 -42 44.001s-39.5 24.167 -64.5 34.5s-52.5 20.5 -82.5 30.5c-29.333 10 -55.833 20.333 -79.5 31s-44.167 23.334 -61.5 38.001
s-30.666 32 -39.999 52s-14 44.333 -14 73c0 20 4.16699 40.167 12.5 60.5s21.166 38.666 38.499 54.999s39.5 29.666 66.5 39.999s59.167 15.5 96.5 15.5c28 0 54.167 -3.66699 78.5 -11s46 -17.833 65 -31.5s34.667 -29.834 47 -48.501s20.5 -39 24.5 -61h-42
c-7.33301 33.333 -26.5 60.333 -57.5 81s-69.5 31 -115.5 31c-29.333 0 -54.833 -4.16699 -76.5 -12.5s-39.5 -18.833 -53.5 -31.5s-24.5 -26.667 -31.5 -42s-10.5 -30 -10.5 -44c0 -23.333 4.16699 -43 12.5 -59s20.166 -29.833 35.499 -41.5s33.5 -21.834 54.5 -30.501
s44.167 -17 69.5 -25c34 -12 65 -24 93 -36s52 -25.833 72 -41.5s35.5 -34 46.5 -55s16.5 -45.833 16.5 -74.5c0 -30 -6.16699 -56.5 -18.5 -79.5s-28.666 -42.5 -48.999 -58.5s-43.833 -28 -70.5 -36s-54 -12 -82 -12c-31.333 0 -60.166 3.66699 -86.499 11
s-49.5 17.833 -69.5 31.5s-36.5 29.834 -49.5 48.501s-21.5 39 -25.5 61h42c7.33301 -33.333 27.166 -60.333 59.499 -81s75.5 -31 129.5 -31zM385 784.001l-21 -23l-96 60l-96 -60l-21 23l117 83z" />
    <glyph glyph-name="scircumflex" unicode="&#x15d;" horiz-adv-x="379" 
d="M189 27c28 0 52.666 5.83105 73.999 17.498s32 30.5 32 56.5c0 26.667 -11.167 46.167 -33.5 58.5s-50.833 22.5 -85.5 30.5c-16 4 -31.5 8.83301 -46.5 14.5s-28.167 13 -39.5 22s-20.333 19.833 -27 32.5s-10 27.667 -10 45c0 13.333 2.83301 26.333 8.5 39
s14.167 24 25.5 34s25.5 18 42.5 24s36.833 9 59.5 9c20 0 38 -2.66699 54 -8s29.833 -12.5 41.5 -21.5s21 -19.167 28 -30.5s11.833 -23 14.5 -35h-42c-2 6.66699 -5.16699 13.5 -9.5 20.5s-10.333 13.333 -18 19s-17.167 10.334 -28.5 14.001s-25 5.5 -41 5.5
c-30.667 0 -54.167 -6.5 -70.5 -19.5s-24.5 -29.833 -24.5 -50.5c0 -24 9 -41.5 27 -52.5s42.667 -20.167 74 -27.5c19.333 -4.66699 37.5 -10.167 54.5 -16.5s32 -14.166 45 -23.499s23.167 -20.666 30.5 -33.999s11 -29.333 11 -48s-4 -34.834 -12 -48.501
s-18.833 -25.167 -32.5 -34.5s-29.334 -16.333 -47.001 -21s-36.167 -7 -55.5 -7c-42 0 -76.167 9.33301 -102.5 28s-42.166 40.667 -47.499 66h41c3.33301 -13.333 13.833 -26.333 31.5 -39s43.834 -19 78.501 -19zM305.999 540.998l-21 -25l-96 66l-96 -66l-21 25l117 92z
" />
    <glyph glyph-name="Scedilla" unicode="&#x15e;" horiz-adv-x="537" 
d="M271 31c22 0 43.667 3.16797 65 9.50098s40.333 15.5 57 27.5s30 27 40 45s15 38.667 15 62c0 24 -5 44.333 -15 61s-24 31.334 -42 44.001s-39.5 24.167 -64.5 34.5s-52.5 20.5 -82.5 30.5c-29.333 10 -55.833 20.333 -79.5 31s-44.167 23.334 -61.5 38.001
s-30.666 32 -39.999 52s-14 44.333 -14 73c0 20 4.16699 40.167 12.5 60.5s21.166 38.666 38.499 54.999s39.5 29.666 66.5 39.999s59.167 15.5 96.5 15.5c28 0 54.167 -3.66699 78.5 -11s46 -17.833 65 -31.5s34.667 -29.834 47 -48.501s20.5 -39 24.5 -61h-42
c-7.33301 33.333 -26.5 60.333 -57.5 81s-69.5 31 -115.5 31c-29.333 0 -54.833 -4.16699 -76.5 -12.5s-39.5 -18.833 -53.5 -31.5s-24.5 -26.667 -31.5 -42s-10.5 -30 -10.5 -44c0 -23.333 4.16699 -43 12.5 -59s20.166 -29.833 35.499 -41.5s33.5 -21.834 54.5 -30.501
s44.167 -17 69.5 -25c34 -12 65 -24 93 -36s52 -25.833 72 -41.5s35.5 -34 46.5 -55s16.5 -45.833 16.5 -74.5c0 -30 -6.16699 -56.5 -18.5 -79.5s-28.666 -42.5 -48.999 -58.5s-43.833 -28 -70.5 -36s-54 -12 -82 -12c-31.333 0 -60.166 3.66699 -86.499 11
s-49.5 17.833 -69.5 31.5s-36.5 29.834 -49.5 48.501s-21.5 39 -25.5 61h42c7.33301 -33.333 27.166 -60.333 59.499 -81s75.5 -31 129.5 -31zM211 -210.999l-31 17l73 154l50 -17z" />
    <glyph glyph-name="scedilla" unicode="&#x15f;" horiz-adv-x="379" 
d="M189 27c28 0 52.666 5.83105 73.999 17.498s32 30.5 32 56.5c0 26.667 -11.167 46.167 -33.5 58.5s-50.833 22.5 -85.5 30.5c-16 4 -31.5 8.83301 -46.5 14.5s-28.167 13 -39.5 22s-20.333 19.833 -27 32.5s-10 27.667 -10 45c0 13.333 2.83301 26.333 8.5 39
s14.167 24 25.5 34s25.5 18 42.5 24s36.833 9 59.5 9c20 0 38 -2.66699 54 -8s29.833 -12.5 41.5 -21.5s21 -19.167 28 -30.5s11.833 -23 14.5 -35h-42c-2 6.66699 -5.16699 13.5 -9.5 20.5s-10.333 13.333 -18 19s-17.167 10.334 -28.5 14.001s-25 5.5 -41 5.5
c-30.667 0 -54.167 -6.5 -70.5 -19.5s-24.5 -29.833 -24.5 -50.5c0 -24 9 -41.5 27 -52.5s42.667 -20.167 74 -27.5c19.333 -4.66699 37.5 -10.167 54.5 -16.5s32 -14.166 45 -23.499s23.167 -20.666 30.5 -33.999s11 -29.333 11 -48s-4 -34.834 -12 -48.501
s-18.833 -25.167 -32.5 -34.5s-29.334 -16.333 -47.001 -21s-36.167 -7 -55.5 -7c-42 0 -76.167 9.33301 -102.5 28s-42.166 40.667 -47.499 66h41c3.33301 -13.333 13.833 -26.333 31.5 -39s43.834 -19 78.501 -19zM128.999 -211.002l-31 17l73 154l50 -17z" />
    <glyph glyph-name="Scaron" unicode="&#x160;" horiz-adv-x="537" 
d="M271 31c22 0 43.667 3.16797 65 9.50098s40.333 15.5 57 27.5s30 27 40 45s15 38.667 15 62c0 24 -5 44.333 -15 61s-24 31.334 -42 44.001s-39.5 24.167 -64.5 34.5s-52.5 20.5 -82.5 30.5c-29.333 10 -55.833 20.333 -79.5 31s-44.167 23.334 -61.5 38.001
s-30.666 32 -39.999 52s-14 44.333 -14 73c0 20 4.16699 40.167 12.5 60.5s21.166 38.666 38.499 54.999s39.5 29.666 66.5 39.999s59.167 15.5 96.5 15.5c28 0 54.167 -3.66699 78.5 -11s46 -17.833 65 -31.5s34.667 -29.834 47 -48.501s20.5 -39 24.5 -61h-42
c-7.33301 33.333 -26.5 60.333 -57.5 81s-69.5 31 -115.5 31c-29.333 0 -54.833 -4.16699 -76.5 -12.5s-39.5 -18.833 -53.5 -31.5s-24.5 -26.667 -31.5 -42s-10.5 -30 -10.5 -44c0 -23.333 4.16699 -43 12.5 -59s20.166 -29.833 35.499 -41.5s33.5 -21.834 54.5 -30.501
s44.167 -17 69.5 -25c34 -12 65 -24 93 -36s52 -25.833 72 -41.5s35.5 -34 46.5 -55s16.5 -45.833 16.5 -74.5c0 -30 -6.16699 -56.5 -18.5 -79.5s-28.666 -42.5 -48.999 -58.5s-43.833 -28 -70.5 -36s-54 -12 -82 -12c-31.333 0 -60.166 3.66699 -86.499 11
s-49.5 17.833 -69.5 31.5s-36.5 29.834 -49.5 48.501s-21.5 39 -25.5 61h42c7.33301 -33.333 27.166 -60.333 59.499 -81s75.5 -31 129.5 -31zM268 758.001l-117 82l21 23l96 -60l96 60l21 -23z" />
    <glyph glyph-name="scaron" unicode="&#x161;" horiz-adv-x="379" 
d="M189 27c28 0 52.666 5.83105 73.999 17.498s32 30.5 32 56.5c0 26.667 -11.167 46.167 -33.5 58.5s-50.833 22.5 -85.5 30.5c-16 4 -31.5 8.83301 -46.5 14.5s-28.167 13 -39.5 22s-20.333 19.833 -27 32.5s-10 27.667 -10 45c0 13.333 2.83301 26.333 8.5 39
s14.167 24 25.5 34s25.5 18 42.5 24s36.833 9 59.5 9c20 0 38 -2.66699 54 -8s29.833 -12.5 41.5 -21.5s21 -19.167 28 -30.5s11.833 -23 14.5 -35h-42c-2 6.66699 -5.16699 13.5 -9.5 20.5s-10.333 13.333 -18 19s-17.167 10.334 -28.5 14.001s-25 5.5 -41 5.5
c-30.667 0 -54.167 -6.5 -70.5 -19.5s-24.5 -29.833 -24.5 -50.5c0 -24 9 -41.5 27 -52.5s42.667 -20.167 74 -27.5c19.333 -4.66699 37.5 -10.167 54.5 -16.5s32 -14.166 45 -23.499s23.167 -20.666 30.5 -33.999s11 -29.333 11 -48s-4 -34.834 -12 -48.501
s-18.833 -25.167 -32.5 -34.5s-29.334 -16.333 -47.001 -21s-36.167 -7 -55.5 -7c-42 0 -76.167 9.33301 -102.5 28s-42.166 40.667 -47.499 66h41c3.33301 -13.333 13.833 -26.333 31.5 -39s43.834 -19 78.501 -19zM188.999 513.998l-117 92l21 25l96 -66l96 66l21 -25z
" />
    <glyph glyph-name="Tcommaaccent" unicode="&#x162;" horiz-adv-x="551" 
d="M525 659h-228v-659h-43v659h-228v41h499v-41zM302 -97l-83 -187l-30 11l66 189z" />
    <glyph glyph-name="tcommaaccent" unicode="&#x163;" horiz-adv-x="310" 
d="M12 400l89.001 0.00195312l10 142h31v-142h132v-35h-132v-249c0 -18 1.83301 -32.833 5.5 -44.5s8.83398 -20.834 15.501 -27.501s15 -11.167 25 -13.5s21 -3.5 33 -3.5c14.667 0 26.667 0.666992 36 2s17.666 3 24.999 5v-34c-16 -6 -36.333 -9 -61 -9
c-17.333 0 -33.333 2 -48 6s-27.334 10.667 -38.001 20s-19 22.166 -25 38.499s-9 36.5 -9 60.5v249h-89v35zM201.001 -96.998l-83 -187l-30 11l66 189z" />
    <glyph glyph-name="Tcaron" unicode="&#x164;" horiz-adv-x="551" 
d="M525 659h-228v-659h-43v659h-228v41h499v-41zM275 758l-117 82l21 23l96 -60l96 60l21 -23z" />
    <glyph glyph-name="tcaron" unicode="&#x165;" horiz-adv-x="420" 
d="M12 400l89.001 0.00195312l10 142h31v-142h132v-35h-132v-249c0 -18 1.83301 -32.833 5.5 -44.5s8.83398 -20.834 15.501 -27.501s15 -11.167 25 -13.5s21 -3.5 33 -3.5c14.667 0 26.667 0.666992 36 2s17.666 3 24.999 5v-34c-16 -6 -36.333 -9 -61 -9
c-17.333 0 -33.333 2 -48 6s-27.334 10.667 -38.001 20s-19 22.166 -25 38.499s-9 36.5 -9 60.5v249h-89v35zM424.001 693.002l-83 -187l-30 11l66 189z" />
    <glyph glyph-name="Tbar" unicode="&#x166;" horiz-adv-x="551" 
d="M145 360h109v299h-228v41h499v-41h-228v-299h108v-35h-108v-325h-43v325h-109v35z" />
    <glyph glyph-name="tbar" unicode="&#x167;" horiz-adv-x="310" 
d="M12 231l89.001 0.00195312v134h-89v35h89l10 142h31v-142h132v-35h-132v-134h132v-35h-132v-80c0 -18 1.83301 -32.833 5.5 -44.5s8.83398 -20.834 15.501 -27.501s15 -11.167 25 -13.5s21 -3.5 33 -3.5c14.667 0 26.667 0.666992 36 2s17.666 3 24.999 5v-34
c-16 -6 -36.333 -9 -61 -9c-17.333 0 -33.333 2 -48 6s-27.334 10.667 -38.001 20s-19 22.166 -25 38.499s-9 36.5 -9 60.5v80h-89v35z" />
    <glyph glyph-name="Utilde" unicode="&#x168;" horiz-adv-x="704" 
d="M352 32c41.333 0 76.168 6.5 104.501 19.5s51.333 31 69 54s30.334 50.167 38.001 81.5s11.5 65 11.5 101v412h43v-412c0 -42 -5.33301 -81.167 -16 -117.5s-26.834 -67.666 -48.501 -93.999s-49.167 -47.166 -82.5 -62.499s-73 -23 -119 -23s-85.667 7.66699 -119 23
s-60.833 36.166 -82.5 62.499s-37.834 57.666 -48.501 93.999s-16 75.5 -16 117.5v412h43v-412c0 -36 3.83301 -69.667 11.5 -101s20.334 -58.5 38.001 -81.5s40.667 -41 69 -54s63.166 -19.5 104.499 -19.5zM222.002 788c6 13.333 15.001 25.001 27.001 35.001
s26.333 15 43 15c10 0 20.333 -1.66699 31 -5s21 -7 31 -11s20 -7.66699 30 -11s19.667 -5 29 -5c10.667 0 19.834 3.5 27.501 10.5s13.5 14.167 17.5 21.5l24 -15c-4 -15.333 -12.833 -27.833 -26.5 -37.5s-29.167 -14.5 -46.5 -14.5c-8.66699 0 -18.167 1.66699 -28.5 5
s-20.833 7.16602 -31.5 11.499s-21.334 8.16602 -32.001 11.499s-20.334 5 -29.001 5c-11.333 0 -19.833 -3.16699 -25.5 -9.5s-10.5 -14.166 -14.5 -23.499z" />
    <glyph glyph-name="utilde" unicode="&#x169;" horiz-adv-x="488" 
d="M375 68c-6 -8.66699 -13.665 -17.6689 -22.998 -27.002s-20.5 -17.666 -33.5 -24.999s-27.833 -13.5 -44.5 -18.5s-35.334 -7.5 -56.001 -7.5c-44.667 0 -80.5 13.667 -107.5 41s-40.5 68 -40.5 122v247h41v-247c0 -43.333 9.5 -75.166 28.5 -95.499
s45.167 -30.5 78.5 -30.5c19.333 0 37.166 2.66699 53.499 8s31.166 12.333 44.499 21s24.833 18.167 34.5 28.5s17.834 20.5 24.501 30.5v285h41v-400h-39zM114.002 545.998c6 14.667 15.001 27.499 27.001 38.499s26.333 16.5 43 16.5c10 0 20.333 -1.83301 31 -5.5
s21 -7.66699 31 -12s20 -8.33301 30 -12s19.667 -5.5 29 -5.5c10.667 0 19.834 3.83301 27.501 11.5s13.5 15.5 17.5 23.5l24 -17c-4 -16.667 -12.833 -30.334 -26.5 -41.001s-29.167 -16 -46.5 -16c-8.66699 0 -18.167 1.83301 -28.5 5.5s-20.833 7.83398 -31.5 12.501
s-21.334 8.83398 -32.001 12.501s-20.334 5.5 -29.001 5.5c-11.333 0 -19.833 -3.5 -25.5 -10.5s-10.5 -15.5 -14.5 -25.5z" />
    <glyph glyph-name="Umacron" unicode="&#x16a;" horiz-adv-x="704" 
d="M352 32c41.333 0 76.168 6.5 104.501 19.5s51.333 31 69 54s30.334 50.167 38.001 81.5s11.5 65 11.5 101v412h43v-412c0 -42 -5.33301 -81.167 -16 -117.5s-26.834 -67.666 -48.501 -93.999s-49.167 -47.166 -82.5 -62.499s-73 -23 -119 -23s-85.667 7.66699 -119 23
s-60.833 36.166 -82.5 62.499s-37.834 57.666 -48.501 93.999s-16 75.5 -16 117.5v412h43v-412c0 -36 3.83301 -69.667 11.5 -101s20.334 -58.5 38.001 -81.5s40.667 -41 69 -54s63.166 -19.5 104.499 -19.5zM222.002 806h260v-31h-260v31z" />
    <glyph glyph-name="umacron" unicode="&#x16b;" horiz-adv-x="488" 
d="M375 68c-6 -8.66699 -13.665 -17.6689 -22.998 -27.002s-20.5 -17.666 -33.5 -24.999s-27.833 -13.5 -44.5 -18.5s-35.334 -7.5 -56.001 -7.5c-44.667 0 -80.5 13.667 -107.5 41s-40.5 68 -40.5 122v247h41v-247c0 -43.333 9.5 -75.166 28.5 -95.499
s45.167 -30.5 78.5 -30.5c19.333 0 37.166 2.66699 53.499 8s31.166 12.333 44.499 21s24.833 18.167 34.5 28.5s17.834 20.5 24.501 30.5v285h41v-400h-39zM114.002 565.998h260v-35h-260v35z" />
    <glyph glyph-name="Ubreve" unicode="&#x16c;" horiz-adv-x="704" 
d="M352 32c41.333 0 76.168 6.5 104.501 19.5s51.333 31 69 54s30.334 50.167 38.001 81.5s11.5 65 11.5 101v412h43v-412c0 -42 -5.33301 -81.167 -16 -117.5s-26.834 -67.666 -48.501 -93.999s-49.167 -47.166 -82.5 -62.499s-73 -23 -119 -23s-85.667 7.66699 -119 23
s-60.833 36.166 -82.5 62.499s-37.834 57.666 -48.501 93.999s-16 75.5 -16 117.5v412h43v-412c0 -36 3.83301 -69.667 11.5 -101s20.334 -58.5 38.001 -81.5s40.667 -41 69 -54s63.166 -19.5 104.499 -19.5zM352.002 772c-13.333 0 -27 2 -41 6s-26.833 9.5 -38.5 16.5
s-21.5 15.667 -29.5 26s-13 22.166 -15 35.499h36c5.33301 -16.667 16.833 -29.334 34.5 -38.001s35.5 -13 53.5 -13s35.833 4.33301 53.5 13s29.167 21.334 34.5 38.001h36c-2 -13.333 -7 -25.166 -15 -35.499s-17.833 -19 -29.5 -26s-24.5 -12.5 -38.5 -16.5
s-27.667 -6 -41 -6z" />
    <glyph glyph-name="ubreve" unicode="&#x16d;" horiz-adv-x="488" 
d="M375 68c-6 -8.66699 -13.665 -17.6689 -22.998 -27.002s-20.5 -17.666 -33.5 -24.999s-27.833 -13.5 -44.5 -18.5s-35.334 -7.5 -56.001 -7.5c-44.667 0 -80.5 13.667 -107.5 41s-40.5 68 -40.5 122v247h41v-247c0 -43.333 9.5 -75.166 28.5 -95.499
s45.167 -30.5 78.5 -30.5c19.333 0 37.166 2.66699 53.499 8s31.166 12.333 44.499 21s24.833 18.167 34.5 28.5s17.834 20.5 24.501 30.5v285h41v-400h-39zM244.002 530.998c-13.333 0 -27 2.16699 -41 6.5s-26.833 10.5 -38.5 18.5s-21.5 17.833 -29.5 29.5
s-13 24.5 -15 38.5h36c5.33301 -18 16.833 -31.833 34.5 -41.5s35.5 -14.5 53.5 -14.5s35.833 4.83301 53.5 14.5s29.167 23.5 34.5 41.5h36c-2 -14 -7 -26.833 -15 -38.5s-17.833 -21.5 -29.5 -29.5s-24.5 -14.167 -38.5 -18.5s-27.667 -6.5 -41 -6.5z" />
    <glyph glyph-name="Uring" unicode="&#x16e;" horiz-adv-x="704" 
d="M352 32c41.333 0 76.168 6.5 104.501 19.5s51.333 31 69 54s30.334 50.167 38.001 81.5s11.5 65 11.5 101v412h43v-412c0 -42 -5.33301 -81.167 -16 -117.5s-26.834 -67.666 -48.501 -93.999s-49.167 -47.166 -82.5 -62.499s-73 -23 -119 -23s-85.667 7.66699 -119 23
s-60.833 36.166 -82.5 62.499s-37.834 57.666 -48.501 93.999s-16 75.5 -16 117.5v412h43v-412c0 -36 3.83301 -69.667 11.5 -101s20.334 -58.5 38.001 -81.5s40.667 -41 69 -54s63.166 -19.5 104.499 -19.5zM352.002 905c22.667 0 42.167 -7.33301 58.5 -22
s24.5 -32.334 24.5 -53.001c0 -20 -8.16699 -37.333 -24.5 -52s-35.833 -22 -58.5 -22s-42.167 7.33301 -58.5 22s-24.5 32 -24.5 52c0 20.667 8.16699 38.334 24.5 53.001s35.833 22 58.5 22zM352.002 877c-14 0 -26 -4.5 -36 -13.5s-15 -20.167 -15 -33.5
s5 -24.5 15 -33.5s22 -13.5 36 -13.5s26 4.5 36 13.5s15 20.167 15 33.5s-5 24.5 -15 33.5s-22 13.5 -36 13.5z" />
    <glyph glyph-name="uring" unicode="&#x16f;" horiz-adv-x="488" 
d="M375 68c-6 -8.66699 -13.665 -17.6689 -22.998 -27.002s-20.5 -17.666 -33.5 -24.999s-27.833 -13.5 -44.5 -18.5s-35.334 -7.5 -56.001 -7.5c-44.667 0 -80.5 13.667 -107.5 41s-40.5 68 -40.5 122v247h41v-247c0 -43.333 9.5 -75.166 28.5 -95.499
s45.167 -30.5 78.5 -30.5c19.333 0 37.166 2.66699 53.499 8s31.166 12.333 44.499 21s24.833 18.167 34.5 28.5s17.834 20.5 24.501 30.5v285h41v-400h-39zM244.002 669.998c22.667 0 42.167 -8.16699 58.5 -24.5s24.5 -35.833 24.5 -58.5s-8.16699 -42.167 -24.5 -58.5
s-35.833 -24.5 -58.5 -24.5s-42.167 8.16699 -58.5 24.5s-24.5 35.833 -24.5 58.5s8.16699 42.167 24.5 58.5s35.833 24.5 58.5 24.5zM244.002 638.998c-14 0 -26 -4.83301 -36 -14.5s-15 -22.167 -15 -37.5s5 -27.833 15 -37.5s22 -14.5 36 -14.5s26 4.83301 36 14.5
s15 22.167 15 37.5s-5 27.833 -15 37.5s-22 14.5 -36 14.5z" />
    <glyph glyph-name="Uhungarumlaut" unicode="&#x170;" horiz-adv-x="704" 
d="M352 32c41.333 0 76.168 6.5 104.501 19.5s51.333 31 69 54s30.334 50.167 38.001 81.5s11.5 65 11.5 101v412h43v-412c0 -42 -5.33301 -81.167 -16 -117.5s-26.834 -67.666 -48.501 -93.999s-49.167 -47.166 -82.5 -62.499s-73 -23 -119 -23s-85.667 7.66699 -119 23
s-60.833 36.166 -82.5 62.499s-37.834 57.666 -48.501 93.999s-16 75.5 -16 117.5v412h43v-412c0 -36 3.83301 -69.667 11.5 -101s20.334 -58.5 38.001 -81.5s40.667 -41 69 -54s63.166 -19.5 104.499 -19.5zM276.002 763l-31 16l73 138l48 -17zM440.002 763l-31 16l73 138
l48 -17z" />
    <glyph glyph-name="uhungarumlaut" unicode="&#x171;" horiz-adv-x="488" 
d="M375 68c-6 -8.66699 -13.665 -17.6689 -22.998 -27.002s-20.5 -17.666 -33.5 -24.999s-27.833 -13.5 -44.5 -18.5s-35.334 -7.5 -56.001 -7.5c-44.667 0 -80.5 13.667 -107.5 41s-40.5 68 -40.5 122v247h41v-247c0 -43.333 9.5 -75.166 28.5 -95.499
s45.167 -30.5 78.5 -30.5c19.333 0 37.166 2.66699 53.499 8s31.166 12.333 44.499 21s24.833 18.167 34.5 28.5s17.834 20.5 24.501 30.5v285h41v-400h-39zM162.002 514.998l-31 17l73 154l48 -19zM326.002 514.998l-31 17l73 154l48 -19z" />
    <glyph glyph-name="Uogonek" unicode="&#x172;" horiz-adv-x="704" 
d="M352 32c41.333 0 76.166 6.50781 104.499 19.5078s51.333 31 69 54s30.334 50.167 38.001 81.5s11.5 65 11.5 101v412h43v-412c0 -38 -4.33301 -73.5 -13 -106.5s-21.667 -62.5 -39 -88.5s-39.5 -47.5 -66.5 -64.5s-58.833 -28.167 -95.5 -33.5
c-7.33301 -5.33301 -14.833 -11.5 -22.5 -18.5s-14.667 -14.833 -21 -23.5s-11.5 -17.834 -15.5 -27.501s-6 -19.834 -6 -30.501c0 -20 7 -34.5 21 -43.5s30.333 -13.5 49 -13.5c10 0 18.5 0.666992 25.5 2s14.5 3.66602 22.5 6.99902v-37
c-8.66699 -2.66699 -17.167 -4.83398 -25.5 -6.50098s-17.166 -2.5 -26.499 -2.5c-14 0 -27.167 2 -39.5 6s-23.166 9.66699 -32.499 17s-16.833 16.666 -22.5 27.999s-8.5 24.333 -8.5 39c0 20.667 5.66699 39.667 17 57s24.666 31.666 39.999 42.999h-7
c-46 0 -85.667 7.66699 -119 23s-60.833 36.166 -82.5 62.499s-37.834 57.666 -48.501 93.999s-16 75.5 -16 117.5v412h43v-412c0 -36 3.83301 -69.667 11.5 -101s20.334 -58.5 38.001 -81.5s40.667 -41 69 -54s63.166 -19.5 104.499 -19.5z" />
    <glyph glyph-name="uogonek" unicode="&#x173;" horiz-adv-x="488" 
d="M375 68c-6 -8.66699 -13.667 -17.668 -23 -27.001s-20.5 -17.666 -33.5 -24.999s-27.833 -13.5 -44.5 -18.5s-35.334 -7.5 -56.001 -7.5c-44.667 0 -80.5 13.667 -107.5 41s-40.5 68 -40.5 122v247h41v-247c0 -43.333 9.5 -75.166 28.5 -95.499s45.167 -30.5 78.5 -30.5
c19.333 0 37.166 2.66699 53.499 8s31.166 12.333 44.499 21s24.833 18.167 34.5 28.5s17.834 20.5 24.501 30.5v285h41v-400c-7.33301 -5.33301 -15.333 -11.666 -24 -18.999s-16.5 -15.5 -23.5 -24.5s-12.833 -18.667 -17.5 -29s-7 -21.166 -7 -32.499
c0 -20 7 -34.5 21 -43.5s30.333 -13.5 49 -13.5c10 0 18.5 0.666992 25.5 2s14.5 3.66602 22.5 6.99902v-37c-8.66699 -2.66699 -17.167 -4.83398 -25.5 -6.50098s-17.166 -2.5 -26.499 -2.5c-14 0 -27.167 2 -39.5 6s-23.166 9.66699 -32.499 17
s-16.833 16.666 -22.5 27.999s-8.5 24.333 -8.5 39c0 23.333 7.33301 44.5 22 63.5s30.667 34.167 48 45.5z" />
    <glyph glyph-name="Wcircumflex" unicode="&#x174;" horiz-adv-x="1007" 
d="M929 700h44l-238 -725l-232 625l-231 -625l-238 725h44l197 -606l228 629l229 -629zM620 784l-21 -23l-96 60l-96 -60l-21 23l117 83z" />
    <glyph glyph-name="wcircumflex" unicode="&#x175;" horiz-adv-x="586" 
d="M417 85l111 315h38l-146 -420l-127 330l-127 -330l-146 420h38l111 -315l124 329zM410 541l-21 -25l-96 66l-96 -66l-21 25l117 92z" />
    <glyph glyph-name="Ycircumflex" unicode="&#x176;" horiz-adv-x="568" 
d="M306 0h-43v302l-247 398h46l222 -358l222 358h46l-246 -398v-302zM401 784l-21 -23l-96 60l-96 -60l-21 23l117 83z" />
    <glyph glyph-name="ycircumflex" unicode="&#x177;" horiz-adv-x="432" 
d="M111 -250h-40l128 272l-185 378h41l164 -338l159 338h42zM333 541l-21 -25l-96 66l-96 -66l-21 25l117 92z" />
    <glyph glyph-name="Ydieresis" unicode="&#x178;" horiz-adv-x="568" 
d="M306 0h-43v302l-247 398h46l222 -358l222 358h46l-246 -398v-302zM161 795c0 8 2.83301 14.833 8.5 20.5s13.167 8.5 22.5 8.5s17 -2.83301 23 -8.5s9 -12.5 9 -20.5s-3 -14.667 -9 -20s-13.667 -8 -23 -8s-16.833 2.66699 -22.5 8s-8.5 12 -8.5 20zM358 795
c0 8 2.83301 14.833 8.5 20.5s13.167 8.5 22.5 8.5s17 -2.83301 23 -8.5s9 -12.5 9 -20.5s-3 -14.667 -9 -20s-13.667 -8 -23 -8s-16.833 2.66699 -22.5 8s-8.5 12 -8.5 20z" />
    <glyph glyph-name="Zacute" unicode="&#x179;" horiz-adv-x="606" 
d="M552 0v39h-441l455 661h-492v-39h415l-455 -661h518zM388 847l-148 -87l-22 19l138 107z" />
    <glyph glyph-name="zacute" unicode="&#x17a;" horiz-adv-x="381" 
d="M47 366h243l-272 -366h334v34h-264l273 366h-314v-34zM275 611l-148 -96l-22 21l138 118z" />
    <glyph glyph-name="Zdotaccent" unicode="&#x17b;" horiz-adv-x="606" 
d="M34 0l455 661h-415v39h492l-455 -661h441v-39h-518zM272 795c0 8 2.83301 14.833 8.5 20.5s13.167 8.5 22.5 8.5s17 -2.83301 23 -8.5s9 -12.5 9 -20.5s-3 -14.667 -9 -20s-13.667 -8 -23 -8s-16.833 2.66699 -22.5 8s-8.5 12 -8.5 20z" />
    <glyph glyph-name="zdotaccent" unicode="&#x17c;" horiz-adv-x="381" 
d="M47 400h314l-273 -366h264v-34h-334l272 366h-243v34zM159 548c0 9.33301 2.83301 17 8.5 23s13.167 9 22.5 9s17 -3 23 -9s9 -13.667 9 -23s-3 -16.833 -9 -22.5s-13.667 -8.5 -23 -8.5s-16.833 2.83301 -22.5 8.5s-8.5 13.167 -8.5 22.5z" />
    <glyph glyph-name="Zcaron" unicode="&#x17d;" horiz-adv-x="606" 
d="M34 0l455 661h-415v39h492l-455 -661h441v-39h-518zM303 758l-117 82l21 23l96 -60l96 60l21 -23z" />
    <glyph glyph-name="zcaron" unicode="&#x17e;" horiz-adv-x="381" 
d="M47 400h314l-273 -366h264v-34h-334l272 366h-243v34zM190 514l-117 92l21 25l96 -66l96 66l21 -25z" />
    <glyph glyph-name="longs" unicode="&#x17f;" horiz-adv-x="290" 
d="M99 485c0 56 13.1689 98.667 39.502 128s66.5 44 120.5 44c7.33301 0 14.666 -0.333008 21.999 -1s13.666 -1.66699 18.999 -3v-37c-10 2.66699 -22 4 -36 4c-44 0 -75.667 -11 -95 -33s-29 -56 -29 -102v-485h-41v485z" />
    <glyph glyph-name="florin" unicode="&#x192;" 
d="M159 400h109l14 85c9.33301 56 29.833 98.667 61.5 128s74.5 44 128.5 44c7.33301 0 14.5 -0.333008 21.5 -1s13.167 -1.66699 18.5 -3l-7 -39c-8.66699 2.66699 -20.334 4 -35.001 4c-44 0 -77.167 -10.667 -99.5 -32s-37.5 -55 -45.5 -101l-14 -85h158l-6 -37h-158
l-77 -450c-9.33301 -56 -29.833 -98.667 -61.5 -128s-74.5 -44 -128.5 -44c-7.33301 0 -14.5 0.333008 -21.5 1s-13.167 1.66699 -18.5 3l7 39c8.66699 -2.66699 20.334 -4 35.001 -4c44 0 77.167 10.667 99.5 32s37.5 55 45.5 101l77 450h-109z" />
    <glyph glyph-name="Aringacute" unicode="&#x1fa;" horiz-adv-x="687" 
d="M343 670c-22.667 0 -42.167 -8.16699 -58.5 -24.5s-24.5 -35.833 -24.5 -58.5c0 -12 2 -23 6 -33l-242 -554h45l95 219h358l96 -219h45l-244 555c4.66699 9.33301 7 20 7 32c0 22.667 -8.16699 42.167 -24.5 58.5s-35.833 24.5 -58.5 24.5zM504 260h-322l112 260
c14.667 -10.667 31 -16 49 -16c17.333 0 33.333 5.33301 48 16zM343 639c14 0 26 -4.83301 36 -14.5s15 -22.167 15 -37.5s-5 -27.833 -15 -37.5s-22 -14.5 -36 -14.5s-26 4.83301 -36 14.5s-15 22.167 -15 37.5s5 27.833 15 37.5s22 14.5 36 14.5zM428 847l-148 -87l-22 19
l138 107z" />
    <glyph glyph-name="aringacute" unicode="&#x1fb;" horiz-adv-x="456" 
d="M105 303c6 22 19.3311 39.334 39.998 52.001s47 19 79 19c40 0 70.333 -9 91 -27s31 -44 31 -78v-18h-111c-66.667 0 -115.5 -11 -146.5 -33s-46.5 -54 -46.5 -96c0 -41.333 14.833 -72.833 44.5 -94.5s67.5 -32.5 113.5 -32.5c39.333 0 70.333 7.33301 93 22
s40.334 31.667 53.001 51l3 -68h37v269c0 43.333 -14.5 77.666 -43.5 102.999s-68.5 38 -118.5 38c-40 0 -74.667 -9.5 -104 -28.5s-47.666 -45.167 -54.999 -78.5h40zM199.998 31.001c-34.667 0 -63 7.66602 -85 22.999s-33 38 -33 68c0 32.667 12 56.334 36 71.001
s63 22 117 22h111v-55c0 -20.667 -4.16699 -39 -12.5 -55s-19.166 -29.5 -32.499 -40.5s-28.833 -19.333 -46.5 -25s-35.834 -8.5 -54.501 -8.5zM233.998 650c-22.667 0 -42.167 -8.16699 -58.5 -24.5s-24.5 -35.833 -24.5 -58.5s8.16699 -42.167 24.5 -58.5
s35.833 -24.5 58.5 -24.5s42.167 8.16699 58.5 24.5s24.5 35.833 24.5 58.5s-8.16699 42.167 -24.5 58.5s-35.833 24.5 -58.5 24.5zM233.998 619c14 0 26 -4.83301 36 -14.5s15 -22.167 15 -37.5s-5 -27.833 -15 -37.5s-22 -14.5 -36 -14.5s-26 4.83301 -36 14.5
s-15 22.167 -15 37.5s5 27.833 15 37.5s22 14.5 36 14.5zM329.998 796l-148 -96l-22 21l138 118z" />
    <glyph glyph-name="AEacute" unicode="&#x1fc;" horiz-adv-x="1010" 
d="M948 659v41h-425l-499 -700h51l156 219h292v-219h425v41h-382v318h354v41h-354v259h382zM260 260l263 370v-370h-263zM590 847l-148 -87l-22 19l138 107z" />
    <glyph glyph-name="aeacute" unicode="&#x1fd;" horiz-adv-x="764" 
d="M715 195c2 8 3 18.666 3 31.999c0 24.667 -4.5 48.167 -13.5 70.5s-21.5 41.833 -37.5 58.5s-35 29.834 -57 39.501s-46 14.5 -72 14.5c-35.333 0 -66.833 -8.5 -94.5 -25.5s-50.167 -39.5 -67.5 -67.5c-9.33301 29.333 -27 52.166 -53 68.499s-59 24.5 -99 24.5
s-74.667 -9.5 -104 -28.5s-47.666 -45.167 -54.999 -78.5h40c6 22 19.333 39.333 40 52s47 19 79 19c40 0 70.333 -9 91 -27s31 -44 31 -78v-38h-111c-66.667 0 -115.5 -10.333 -146.5 -31s-46.5 -50 -46.5 -88c0 -37.333 14.833 -66.166 44.5 -86.499
s67.5 -30.5 113.5 -30.5c36.667 0 70 7.83301 100 23.5s52.333 41.834 67 78.501c15.333 -32 37.166 -57.667 65.499 -77s64.166 -29 107.499 -29c46 0 83.833 11.5 113.5 34.5s48.167 52.5 55.5 88.5h-40c-6.66699 -23.333 -20.167 -43.666 -40.5 -60.999
s-49.833 -26 -88.5 -26c-24 0 -45.333 4.33301 -64 13s-34.5 20.667 -47.5 36s-23.167 33.166 -30.5 53.499s-11.666 42.166 -12.999 65.499h330zM200 30.999c-34.667 0 -63 7 -85 21s-33 34 -33 60c0 28.667 12 49.667 36 63s63 20 117 20h110v-10.5
c0 -3.66699 0.333008 -7.16699 1 -10.5c0 -24 -4.16699 -45 -12.5 -63s-19.166 -33 -32.499 -45s-28.833 -20.833 -46.5 -26.5s-35.834 -8.5 -54.501 -8.5zM538 373.999c20.667 0 39.668 -3.83398 57.001 -11.501s32.166 -18.167 44.499 -31.5s21.833 -28.666 28.5 -45.999
s10 -35.333 10 -54h-292c4 44.667 19.833 79.667 47.5 105s62.5 38 104.5 38zM467.001 610.998l-148 -96l-22 21l138 118z" />
    <glyph glyph-name="Oslashacute" unicode="&#x1fe;" horiz-adv-x="831" 
d="M500 847l-148 -87l-22 19l138 107zM688 781l-35.9961 19.999l-75 -130c-24.667 12.667 -50.5 22.334 -77.5 29.001s-55.167 10 -84.5 10c-50 0 -96.667 -9.5 -140 -28.5s-81.333 -44.667 -114 -77s-58.334 -70.333 -77.001 -114s-28 -90.5 -28 -140.5
c0 -64 14.667 -122.167 44 -174.5s68.666 -94.5 117.999 -126.5l-73 -128l36 -21l74 128c49.333 -24.667 102.666 -37 159.999 -37c50 0 96.833 9.33301 140.5 28s81.667 44.334 114 77.001s58 70.667 77 114s28.5 90 28.5 140c0 63.333 -14.833 121.166 -44.5 173.499
s-68.834 94.5 -117.501 126.5zM100.004 349.999c0 44.667 8.16699 86.333 24.5 125s38.833 72.334 67.5 101.001s62 51.167 100 67.5s79 24.5 123 24.5c25.333 0 49.833 -2.83301 73.5 -8.5s46.167 -13.834 67.5 -24.501l-317 -550c-42 28 -75.667 65 -101 111
s-38 97.333 -38 154zM731.004 349.998c0 -44.667 -8.33496 -86.333 -25.002 -125s-39.167 -72.167 -67.5 -100.5s-61.666 -50.666 -99.999 -66.999s-79.5 -24.5 -123.5 -24.5c-49.333 0 -95.666 10.333 -138.999 31l316 550c42 -28 75.667 -64.833 101 -110.5
s38 -96.834 38 -153.501z" />
    </font>
</defs>
</svg>
