<?xml version="1.0" standalone="no"?>
<!DOCTYPE svg PUBLIC "-//W3C//DTD SVG 1.1//EN" "http://www.w3.org/Graphics/SVG/1.1/DTD/svg11.dtd" >
<svg xmlns="http://www.w3.org/2000/svg" xmlns:xlink="http://www.w3.org/1999/xlink" version="1.1">
<metadata></metadata>
<defs>
<font id="soin_sans_prothin_oblique" horiz-adv-x="1187" >
<font-face units-per-em="2048" ascent="1536" descent="-512" />
<missing-glyph horiz-adv-x="524" />
<glyph unicode="&#xfb01;" horiz-adv-x="907" d="M156 784l6 35h170l24 178q23 170 119 259.5t250 89.5q23 0 55.5 -3.5t61.5 -7.5l-6 -35q-57 10 -115 11q-135 0 -221 -81t-107 -233l-24 -178h471l-117 -819h-37l111 784h-435l-110 -784h-37l111 784h-170z" />
<glyph unicode="&#xfb02;" horiz-adv-x="962" d="M156 784l6 35h170l20 150q23 168 122 268t294 100q53 0 104.5 -7t92.5 -17l-187 -1313h-37l183 1286q-66 16 -162 17q-174 0 -262 -86.5t-111 -247.5l-20 -150h274l-6 -35h-275l-110 -784h-37l111 784h-170z" />
<glyph horiz-adv-x="0" />
<glyph unicode="&#xd;" horiz-adv-x="468" />
<glyph horiz-adv-x="0" />
<glyph horiz-adv-x="0" />
<glyph unicode=" "  horiz-adv-x="524" />
<glyph unicode="&#x09;" horiz-adv-x="524" />
<glyph unicode="&#xa0;" horiz-adv-x="524" />
<glyph unicode="!" horiz-adv-x="532" d="M215 31q0 27 20.5 46t45.5 19q23 0 36 -14t13 -35q0 -29 -19.5 -48t-46.5 -19q-23 0 -36 14t-13 37zM301 356l152 1078h36l-151 -1078h-37z" />
<glyph unicode="&#x22;" horiz-adv-x="518" d="M254 973l59 461h43l-77 -461h-25zM508 973l59 461h43l-78 -461h-24z" />
<glyph unicode="#" d="M195 496l6 34h196l105 398h-203l4 35h207l129 471h37l-129 -471h428l127 471h37l-129 -471h186l-4 -35h-193l-106 -398h199l-7 -34h-202q-31 -121 -64 -249t-65 -247h-35l131 496h-430l-129 -496h-35l131 496h-192zM430 530h430l105 398h-428z" />
<glyph unicode="$" d="M168 270h37q23 -104 120 -177t259 -77l100 709q-68 27 -135.5 56.5t-122.5 69.5t-89 97.5t-34 138.5q0 63 28.5 129t87 118t147.5 86t210 34h10l27 184h37l-27 -186q145 -12 237.5 -93t108.5 -192h-36q-18 96 -100.5 167t-213.5 83l-94 -667q82 -31 150.5 -65t118.5 -77 t78 -98t28 -125q0 -94 -42 -167t-109.5 -124t-154.5 -79.5t-178 -32.5l-26 -187h-37l27 187q-172 4 -281 83.5t-131 204.5zM340 1094q0 -68 28.5 -119t77 -89t112 -68t132.5 -54l92 655h-10q-109 0 -189.5 -29.5t-135 -76.5t-81 -104.5t-26.5 -114.5zM621 16q80 2 158.5 28 t142 71t102.5 111.5t39 152.5q0 63 -25.5 112.5t-71.5 89.5t-109.5 71.5t-137.5 60.5z" />
<glyph unicode="%" horiz-adv-x="1433" d="M248 1094q0 74 23.5 139t66.5 113.5t104.5 77t135.5 28.5q117 0 180 -73.5t63 -190.5q0 -74 -23.5 -139.5t-66.5 -113.5t-104.5 -77t-134.5 -29q-117 0 -180.5 74t-63.5 191zM285 10l1034 1440l33 -23l-1035 -1439zM287 1098q0 -102 54 -168t155 -66q63 0 116.5 25.5 t91 68.5t58 101.5t20.5 124.5q0 102 -53 167.5t-154 65.5q-63 0 -116 -25.5t-91 -68.5t-59.5 -101t-21.5 -124zM815 289q10 68 38 124t70 98t98 65.5t122 23.5t115 -23.5t79.5 -65.5t42 -98.5t0.5 -123.5q-8 -68 -35.5 -124t-69.5 -98t-98.5 -66t-121.5 -24q-66 0 -115 24 t-80 66t-42 98t-3 124zM854 289q-16 -119 38 -198t169 -79t189.5 79t90.5 198q18 119 -35 197.5t-167 78.5q-115 0 -191 -78.5t-94 -197.5z" />
<glyph unicode="&#x26;" horiz-adv-x="1306" d="M195 315q0 92 30.5 159t82.5 118t120 92t141 84l-41 51q-51 63 -91 139t-40 170q0 51 22.5 109.5t69 106t116 79t163.5 31.5q70 0 122 -21.5t85 -56.5t49 -81t16 -97q0 -80 -33.5 -142.5t-91 -114.5t-132 -97t-154.5 -88l422 -523q66 84 109.5 190.5t60.5 223.5l22 152 h37l-23 -152q-18 -127 -64 -240.5t-118 -203.5l164 -203h-51l-137 170q-82 -88 -199 -138t-264 -50q-90 0 -163 25.5t-124 70.5t-78.5 105t-27.5 132zM231 322q0 -66 28 -122.5t77 -97.5t114.5 -63.5t141.5 -22.5q139 0 247.5 48.5t184.5 134.5l-430 538q-72 -39 -137.5 -81 t-115.5 -91t-80 -108.5t-30 -134.5zM434 1133q0 -82 34 -151t79 -124l59 -74q51 33 120 70t130.5 85t104.5 109.5t43 141.5q0 43 -14.5 85t-43 73.5t-74 51t-108.5 19.5q-80 0 -142.5 -26.5t-103.5 -68.5t-62.5 -93t-21.5 -98z" />
<glyph unicode="'" horiz-adv-x="264" d="M254 973l59 461h43l-77 -461h-25z" />
<glyph unicode="(" horiz-adv-x="518" d="M221 140q2 142 27 306q23 164 60.5 306.5t86.5 268.5t109.5 238.5t128.5 217.5q6 -4 14 -9.5t15 -9.5q-68 -109 -127.5 -220.5t-107.5 -234t-85 -261t-57 -296.5q-23 -158 -26 -296t10.5 -260.5t41 -235.5t64.5 -219l-33 -19q-39 104 -67.5 217t-42 239t-11.5 268z" />
<glyph unicode=")" horiz-adv-x="518" d="M-18 -565q92 145 166.5 290.5t128 300t82 325.5t28.5 368q0 209 -34 397.5t-87 341.5q8 4 17.5 9.5t17.5 9.5q55 -150 89 -342.5t34 -409.5q0 -203 -31 -380t-85 -337t-130 -305t-168 -287z" />
<glyph unicode="*" horiz-adv-x="823" d="M270 1194l21 37l270 -101l31 304h43l-53 -304l299 101l8 -37l-303 -88l153 -240l-37 -24l-137 250l-207 -250l-30 24l219 240z" />
<glyph unicode="+" d="M213 565l6 37h443l61 442h37l-62 -442h443l-6 -37h-443l-61 -442h-37l61 442h-442z" />
<glyph unicode="," horiz-adv-x="421" d="M51 -328l168 428l45 -14l-182 -420z" />
<glyph unicode="-" horiz-adv-x="757" d="M190 612l7 37h544l-6 -37h-545z" />
<glyph unicode="." horiz-adv-x="421" d="M160 33q0 25 20.5 44t44.5 19q23 0 36 -14t13 -37q0 -25 -20.5 -44t-44.5 -19q-23 0 -36 14t-13 37z" />
<glyph unicode="/" horiz-adv-x="1122" d="M-31 -217l1354 1884l31 -22l-1352 -1885z" />
<glyph unicode="0" horiz-adv-x="1249" d="M211 569q0 197 49 359t133 278.5t197.5 181t240.5 64.5q94 0 170 -41t129.5 -117.5t82 -185.5t28.5 -244q0 -195 -48 -357.5t-132 -279t-196.5 -181t-241.5 -64.5q-94 0 -170 40.5t-130.5 117.5t-83 185.5t-28.5 243.5zM248 575q0 -129 27.5 -232t76.5 -176t120 -112 t157 -39q117 0 221 61.5t183 172t125 265.5t46 343q0 127 -26.5 230.5t-76.5 176t-120 112.5t-156 40q-115 0 -219 -61.5t-184 -173t-127 -266t-47 -341.5z" />
<glyph unicode="1" horiz-adv-x="684" d="M211 1208l467 265l-207 -1473h-37l197 1407l-404 -229z" />
<glyph unicode="2" horiz-adv-x="1081" d="M98 0l594 565q55 51 116.5 112.5t114 131.5t86 144.5t33.5 152.5q0 68 -21.5 124t-63.5 98t-102 65.5t-136 23.5q-80 0 -152.5 -27.5t-131 -76.5t-96.5 -117t-48 -147h-37q8 84 50 157.5t105.5 128t144.5 86t167 31.5t152.5 -25.5t112.5 -71.5t69.5 -108.5t23.5 -136.5 q0 -84 -31.5 -160t-82 -144.5t-110.5 -130t-118 -116.5l-553 -520h793l-6 -39h-873z" />
<glyph unicode="3" horiz-adv-x="1095" d="M131 330h37q0 -66 26.5 -123t74.5 -99t114 -67t145 -25q100 0 184.5 32t145 87t94 129t33.5 158q0 74 -25.5 130t-71.5 93t-107.5 57.5t-133.5 24.5l4 39q86 8 160 34.5t127 74t84 113t31 151.5q0 119 -82 198.5t-232 79.5q-76 0 -141.5 -22.5t-117.5 -61.5t-88 -94 t-54 -119h-37q20 72 60 133.5t97.5 105.5t130.5 68.5t156 24.5q82 0 145.5 -23.5t108.5 -65.5t69 -98.5t24 -121.5q0 -92 -31 -161t-83 -117t-121 -76.5t-142 -43.5q61 -6 116.5 -27.5t98.5 -61.5t67.5 -97t24.5 -133q0 -92 -36 -173t-101.5 -141.5t-156.5 -95t-204 -34.5 q-86 0 -158.5 25.5t-125 71.5t-81 109.5t-28.5 141.5z" />
<glyph unicode="4" horiz-adv-x="1103" d="M92 309l963 1176l-160 -1141h197l-7 -35h-196l-43 -309h-37l43 309h-760zM168 344h690l141 1018z" />
<glyph unicode="5" horiz-adv-x="1118" d="M139 328h37q2 -68 31 -124.5t78 -97t115.5 -63.5t144.5 -23q109 0 201 36t158.5 99.5t104.5 152.5t38 198q0 76 -23 141.5t-71 113.5t-121.5 75.5t-176.5 27.5h-374q29 152 54 287t54 283h696l-6 -35h-665l-97 -500h342q106 0 186.5 -28.5t132.5 -81t78.5 -124 t26.5 -155.5q0 -119 -41 -215t-113.5 -165t-171 -106.5t-214.5 -37.5q-84 0 -157 23.5t-128 68.5t-87 108.5t-32 141.5z" />
<glyph unicode="6" horiz-adv-x="1144" d="M207 535q0 88 15.5 190t47 203.5t82.5 196t122 167t163 115.5t209 43q61 0 115.5 -19.5t96.5 -53.5t69.5 -81t37.5 -100h-37q-8 49 -34.5 89t-65.5 68.5t-87 45t-99 16.5q-137 0 -236.5 -63.5t-169 -164t-111.5 -224t-63 -242.5q-2 -8 -5 -30.5t-6 -53.5t-6 -68t-3 -75 q23 104 73 188t119.5 143.5t153.5 91t172 31.5q86 0 153.5 -31.5t115.5 -87t72.5 -131t24.5 -163.5q0 -111 -36.5 -211.5t-104 -175t-162 -119.5t-207.5 -45q-90 0 -164.5 30.5t-129 96t-85 171t-30.5 253.5zM260 399q0 -80 25.5 -149.5t73 -120.5t114 -81t150.5 -30 q106 0 192 40t147.5 110t94.5 163t33 201q0 82 -24 152t-67 121t-104 79.5t-139 28.5q-98 0 -188.5 -39.5t-159 -109.5t-108.5 -164t-40 -201z" />
<glyph unicode="7" horiz-adv-x="1009" d="M188 0l889 1399h-819l6 35h879l-912 -1434h-43z" />
<glyph unicode="8" horiz-adv-x="1134" d="M170 319q0 90 30.5 162t83 125t123 88t150.5 54q-111 20 -182.5 98t-71.5 198q0 86 35 161t97.5 129.5t148.5 86t188 31.5q86 0 153.5 -23.5t114.5 -66.5t73 -102.5t26 -129.5q0 -78 -29 -142t-77 -113.5t-110.5 -82t-131.5 -44.5q121 -29 198.5 -111t77.5 -223 q0 -94 -40 -174t-107.5 -137.5t-159.5 -89t-197 -31.5q-88 0 -159.5 24.5t-124 69.5t-81 107.5t-28.5 135.5zM209 332q0 -68 25.5 -125t71.5 -99t112.5 -67t150.5 -25q98 0 183.5 31t147 85t96 126t34.5 154q0 68 -25.5 125t-71.5 100t-113.5 67.5t-149.5 24.5 q-98 0 -182.5 -31.5t-146.5 -86t-97 -126t-35 -153.5zM340 1051q0 -61 22.5 -113.5t65.5 -90.5t105.5 -60.5t142.5 -22.5q92 0 170 28.5t134 78t89 115t33 138.5q0 61 -23.5 114.5t-66.5 93.5t-105.5 62.5t-140.5 22.5q-92 0 -170 -29.5t-134 -80t-89 -117t-33 -139.5z" />
<glyph unicode="9" horiz-adv-x="1144" d="M182 238h37q8 -49 35 -89t65.5 -69t87 -45.5t99.5 -16.5q137 0 236.5 63.5t169 164t110.5 223.5t63 244q2 8 5.5 30.5t6.5 53t6 67.5t3 76q-23 -104 -73 -188t-119.5 -143.5t-153.5 -91.5t-172 -32q-86 0 -154.5 32t-116 87t-73 131t-25.5 164q0 111 37 211t104.5 175 t161.5 120t209 45q88 0 164 -30.5t130 -96.5t85 -171t31 -253q0 -88 -15.5 -190.5t-47 -204t-83 -195.5t-122 -166.5t-163 -115.5t-208.5 -43q-61 0 -115.5 19.5t-96.5 53t-71 80.5t-37 101zM256 901q0 -82 23.5 -151.5t66.5 -120.5t105.5 -80t140.5 -29q100 0 190 40 t158 109.5t107.5 164t39.5 200.5q0 80 -25.5 149.5t-72.5 121t-113.5 81t-150.5 29.5q-106 0 -192.5 -40t-147.5 -109.5t-95 -163.5t-34 -201z" />
<glyph unicode=":" horiz-adv-x="421" d="M158 33q0 25 20.5 44t44.5 19q23 0 36 -14t13 -37q0 -25 -19.5 -44t-43.5 -19q-23 0 -37 14t-14 37zM262 770q0 25 20.5 44.5t45.5 19.5q23 0 36 -14.5t13 -37.5q0 -25 -20.5 -44t-45.5 -19q-23 0 -36 14t-13 37z" />
<glyph unicode=";" horiz-adv-x="421" d="M51 -328l168 428l45 -14l-182 -420zM264 770q0 25 19.5 44.5t46.5 19.5q23 0 37 -14.5t14 -37.5q0 -25 -21.5 -44t-46.5 -19q-23 0 -36 14t-13 37z" />
<glyph unicode="&#x3c;" d="M221 561l6 37l963 436l-6 -43l-916 -411l801 -412l-8 -43z" />
<glyph unicode="=" d="M205 381l6 37h881l-7 -37h-880zM258 750l4 36h881l-4 -36h-881z" />
<glyph unicode="&#x3e;" d="M162 125l4 43l915 412l-798 411l6 43l841 -436l-6 -37z" />
<glyph unicode="?" horiz-adv-x="1046" d="M211 1044q8 82 51 157t109.5 130t151.5 88t179 33q92 0 162 -28.5t118 -78t72.5 -114t24.5 -137.5q0 -98 -43 -179t-109.5 -149t-146.5 -123t-153 -102l-35 -244h-37l39 268q70 43 148.5 94.5t145 115t110.5 142t44 175.5q0 66 -22.5 125t-65.5 103t-107.5 70.5 t-148.5 26.5q-86 0 -162.5 -28.5t-137 -77.5t-100.5 -118t-50 -149h-37zM479 31q0 27 21.5 46t46.5 19q23 0 36 -14t13 -35q0 -29 -18.5 -48t-47.5 -19q-23 0 -37 14t-14 37z" />
<glyph unicode="@" horiz-adv-x="2177" d="M215 309q0 246 85 456t234.5 362.5t354.5 239.5t446 87q184 0 328.5 -56.5t243 -155.5t149.5 -237.5t51 -299.5q0 -133 -29.5 -255t-84 -217.5t-128 -151.5t-159.5 -56q-53 0 -92 22.5t-65.5 57t-40 74.5t-17.5 75q-33 -55 -77 -105.5t-99 -87t-120 -58t-136 -21.5 q-80 0 -145.5 28.5t-113.5 79.5t-74 120t-26 146q0 98 39 186.5t104.5 154t152.5 104.5t184 39q131 0 223 -71t127 -183l33 233h36l-77 -559q0 -31 12 -66.5t34.5 -67.5t58.5 -53.5t83 -21.5q80 0 148.5 55.5t117.5 146.5t77 208t28 239q0 156 -49.5 289t-144.5 230.5 t-234.5 152.5t-321.5 55q-231 0 -430 -85t-345 -233t-230 -352t-84 -442q0 -190 59 -347.5t165.5 -271.5t256 -177.5t330.5 -63.5q186 0 353 39t341 129l10 -26q-178 -86 -346 -127t-364 -41q-184 0 -337 64.5t-263.5 181t-171 278.5t-60.5 356zM737 360q0 -74 23.5 -136 t66.5 -108t103.5 -73t134.5 -27q80 0 154.5 31t135 84t100.5 127t52 160q8 82 -13 153.5t-65.5 122.5t-109 81t-143.5 30q-90 0 -169 -35t-139.5 -95.5t-95.5 -141t-35 -173.5z" />
<glyph unicode="A" horiz-adv-x="1404" d="M61 0l846 1454l436 -1454h-38l-140 463h-794l-271 -463h-39zM389 498h766l-260 872z" />
<glyph unicode="B" horiz-adv-x="1306" d="M205 0l203 1434h460q84 0 156 -15.5t125 -49.5t83 -88t30 -132q0 -141 -91.5 -237.5t-238.5 -133.5q147 -14 234 -102t87 -230q0 -111 -42 -194.5t-116.5 -139t-177 -84t-221.5 -28.5h-491zM248 35h454q100 0 193.5 25.5t165.5 76.5t114 129t42 185q0 82 -32 140 t-89.5 96t-138 55.5t-181.5 17.5h-426zM352 795h428q61 0 139 15t146 54t114 107.5t46 173.5q0 76 -32 126t-82 77.5t-115.5 39t-133.5 11.5h-424z" />
<glyph unicode="C" horiz-adv-x="1652" d="M221 631q0 168 69.5 317.5t187.5 262t272.5 178t324.5 65.5q119 0 219.5 -31.5t178 -89t131 -136.5t82.5 -171h-39q-25 80 -73 150.5t-120 125t-168 85t-215 30.5q-164 0 -310.5 -61.5t-258 -167t-177 -248.5t-65.5 -307q0 -131 45 -244t126 -195.5t193.5 -130 t247.5 -47.5q117 0 222.5 32t195.5 88.5t161 132t118 161.5h43q-51 -100 -129 -183t-174.5 -142.5t-209 -92t-233.5 -32.5q-143 0 -262 51t-204 139t-132 207t-47 254z" />
<glyph unicode="D" horiz-adv-x="1509" d="M205 0l203 1434h462q143 0 258 -47.5t195 -130t123 -196.5t43 -247q0 -170 -59.5 -318.5t-165 -258t-254 -173t-326.5 -63.5h-479zM248 35h442q170 0 310.5 62.5t240.5 168t155.5 245.5t55.5 300q0 125 -40 232.5t-114.5 186.5t-184 124t-249.5 45h-426z" />
<glyph unicode="E" horiz-adv-x="1224" d="M201 0l202 1434h889l-6 -35h-852l-86 -604h795l-2 -35h-795l-102 -725h852l-6 -35h-889z" />
<glyph unicode="F" horiz-adv-x="1159" d="M201 0l202 1434h877l-6 -35h-840l-86 -604h782l-2 -35h-782l-108 -760h-37z" />
<glyph unicode="G" horiz-adv-x="1718" d="M221 631q0 168 69.5 317.5t186.5 262t271.5 178t324.5 65.5q121 0 220.5 -31.5t176 -89t130 -136.5t81.5 -171h-41q-23 80 -70.5 150.5t-119.5 125t-167 85t-214 30.5q-164 0 -310.5 -62.5t-257 -169t-176 -249.5t-65.5 -303q0 -129 44 -241.5t124 -195.5t190.5 -131.5 t243.5 -48.5q145 0 279.5 49.5t240 138.5t176 212t91.5 270h-641l6 35h680q-25 -168 -98.5 -305t-184.5 -233.5t-253 -149.5t-302 -53q-139 0 -256 51t-201 139t-131 207t-47 254z" />
<glyph unicode="H" horiz-adv-x="1501" d="M201 0l202 1434h37l-92 -639h1026l92 639h37l-203 -1434h-36l108 760h-1026l-108 -760h-37z" />
<glyph unicode="I" horiz-adv-x="487" d="M225 0l203 1434h37l-203 -1434h-37z" />
<glyph unicode="J" horiz-adv-x="1056" d="M78 262h37q6 -49 32.5 -94t69.5 -79t100.5 -53.5t126.5 -19.5q86 0 161 27t133.5 76t95 117.5t49.5 150.5l147 1047h37l-147 -1047q-12 -88 -54.5 -162.5t-106 -128t-146.5 -84t-175 -30.5q-74 0 -136 21.5t-110.5 58t-78 88t-35.5 112.5z" />
<glyph unicode="K" horiz-adv-x="1210" d="M201 0l202 1434h37l-104 -729l938 729h53l-772 -600l594 -834h-45l-576 811l-196 -154l-94 -657h-37z" />
<glyph unicode="L" horiz-adv-x="1093" d="M201 0l202 1434h37l-196 -1399h811l-6 -35h-848z" />
<glyph unicode="M" horiz-adv-x="1802" d="M131 0l363 1491l411 -1462l821 1462l-55 -1491h-35l54 1362l-797 -1409l-399 1409l-328 -1362h-35z" />
<glyph unicode="N" horiz-adv-x="1517" d="M201 0l207 1464l882 -1398l193 1368h37l-207 -1477l-883 1401l-192 -1358h-37z" />
<glyph unicode="O" horiz-adv-x="1726" d="M221 631q0 168 69.5 317.5t187.5 262t270.5 178t318.5 65.5q139 0 257 -51t203 -139t133 -207t48 -254q0 -168 -70.5 -317.5t-187.5 -261t-270.5 -177t-319.5 -65.5q-139 0 -257 50t-203 138t-132 207t-47 254zM260 633q0 -131 45 -242.5t125 -194.5t190.5 -130.5 t243.5 -47.5q160 0 305.5 61.5t256 167t177 248t66.5 306.5q0 131 -45 243.5t-126 195.5t-192.5 130t-242.5 47q-160 0 -305.5 -61.5t-256 -167t-176 -248.5t-65.5 -307z" />
<glyph unicode="P" horiz-adv-x="1273" d="M201 0l202 1434h498q86 0 161 -20.5t131 -62.5t88 -107.5t32 -156.5q0 -117 -42 -202.5t-113 -142t-166 -83t-199 -26.5h-465l-90 -633h-37zM334 668h465q92 0 179 22.5t152.5 71.5t105.5 129t40 194q0 84 -28.5 143.5t-80 97.5t-121 55.5t-151.5 17.5h-461z" />
<glyph unicode="Q" horiz-adv-x="1726" d="M221 641q0 166 69.5 313.5t187.5 259t270.5 176t318.5 64.5q139 0 257 -50t204 -138t134 -205t48 -252q0 -137 -50 -262t-136 -227.5t-203 -177t-250 -111.5l535 4l-7 -35h-737q-139 0 -257 50t-203 136t-133 203t-48 252zM260 643q0 -131 45 -241.5t126 -191.5 t192.5 -127t244.5 -46q158 0 303.5 59.5t256 164t177 244.5t66.5 302q0 131 -45 242.5t-127 193.5t-193.5 128t-242.5 46q-158 0 -303.5 -60.5t-256 -166t-177 -246.5t-66.5 -301z" />
<glyph unicode="R" horiz-adv-x="1280" d="M201 0l202 1434h478q86 0 161.5 -17.5t132 -57.5t89 -102.5t32.5 -152.5q0 -119 -42 -203t-109.5 -136t-153.5 -75.5t-174 -23.5l357 -666h-41l-357 666h-444l-94 -666h-37zM336 700h444q94 0 180.5 19.5t153 65.5t105 123t38.5 192q0 82 -29.5 139t-80.5 93t-121 51.5 t-152 15.5h-440z" />
<glyph unicode="S" horiz-adv-x="1101" d="M137 270h37q23 -104 118 -179t263 -75q82 0 164 23.5t146.5 70t104.5 115t40 158.5q0 70 -30 122t-82 93t-124 74t-158 63q-70 25 -131 56.5t-108 73.5t-75 97.5t-28 127.5q0 61 28 126.5t85 117.5t145.5 86t210.5 34q82 0 147.5 -22.5t114 -61.5t76 -91t35.5 -112h-37 q-20 104 -105 178t-237 74q-109 0 -188.5 -29.5t-133 -76.5t-80 -104.5t-26.5 -114.5q0 -66 25.5 -115t70 -88t103.5 -68.5t129 -54.5q90 -33 166 -67.5t130 -80t85 -101.5t31 -132q0 -98 -43 -173t-113 -127t-160 -78.5t-182 -26.5q-176 0 -283.5 80.5t-130.5 207.5z" />
<glyph unicode="T" horiz-adv-x="1130" d="M258 1401l6 33h1008l-6 -33h-486l-196 -1401h-37l196 1401h-485z" />
<glyph unicode="U" horiz-adv-x="1470" d="M274 339q-9 54 -9 113q0 61 9 126l121 856h37l-121 -856q-8 -61 -8 -118q-1 -54 7 -106q16 -104 67 -179t140 -117t220 -42t232.5 42t174.5 117t118 178.5t61 224.5l121 856h37l-121 -856q-18 -129 -66.5 -239t-127.5 -189.5t-187.5 -124.5t-247.5 -45t-234.5 45 t-150 124.5t-72.5 189.5z" />
<glyph unicode="V" horiz-adv-x="1310" d="M244 1434h39l379 -1393l772 1393h39l-824 -1481z" />
<glyph unicode="W" horiz-adv-x="2076" d="M281 1434h36l242 -1375l686 1403l293 -1403l627 1375h37l-678 -1477l-293 1401l-686 -1401z" />
<glyph unicode="X" horiz-adv-x="1302" d="M45 0l692 754l-430 680h41l412 -654l600 654h41l-623 -680l479 -754h-40l-463 727l-668 -727h-41z" />
<glyph unicode="Y" horiz-adv-x="1146" d="M248 1434h41l377 -777h4l594 777h41l-625 -811l-88 -623h-37l88 623z" />
<glyph unicode="Z" horiz-adv-x="1226" d="M98 0l1157 1401h-899l6 33h965l-1155 -1401h954l-6 -33h-1022z" />
<glyph unicode="[" horiz-adv-x="503" d="M133 -512l273 1946h258l-5 -35h-221l-264 -1876h221l-4 -35h-258z" />
<glyph unicode="\" horiz-adv-x="1122" d="M231 1645l39 22l822 -1884l-41 -23z" />
<glyph unicode="]" horiz-adv-x="503" d="M-31 -512l4 35h222l264 1876h-221l4 35h258l-273 -1946h-258z" />
<glyph unicode="^" horiz-adv-x="1116" d="M197 670l538 764h47l326 -764h-51l-301 721q-125 -176 -255 -360.5t-253 -360.5h-51z" />
<glyph unicode="_" horiz-adv-x="870" d="M51 -158l6 35h723l-6 -35h-723z" />
<glyph unicode="`" horiz-adv-x="593" d="M334 1264l33 34l225 -211l-19 -18z" />
<glyph unicode="a" horiz-adv-x="937" d="M129 207q0 141 101.5 216t328.5 75h254l8 53q4 27 4 51q0 86 -51 138q-65 66 -199 67q-102 0 -177.5 -39t-118.5 -111h-37q41 88 133 136.5t207 48.5q146 0 218 -78q57 -62 58 -161q0 -25 -4 -52l-76 -551h-33l23 180q-51 -86 -146.5 -138t-230.5 -52q-119 0 -190.5 57 t-71.5 160zM166 211q0 -90 63.5 -138t167.5 -48q53 0 107.5 11t102.5 35.5t89 62.5t66 91q10 23 16 48.5t10 54.5l21 135h-254q-209 0 -299 -61.5t-90 -190.5z" />
<glyph unicode="b" horiz-adv-x="1105" d="M168 0l188 1337h37l-106 -751q66 113 178.5 183.5t243.5 70.5q80 0 146.5 -30t113.5 -81t72.5 -119.5t25.5 -146.5q0 -98 -39 -185.5t-104.5 -154t-151.5 -104t-182 -37.5q-131 0 -224.5 69.5t-127.5 181.5l-33 -233h-37zM262 418q-4 -32 -4 -62q0 -51 12 -98 q20 -74 64.5 -127t111 -84t146.5 -31q88 0 168 35t140.5 95.5t95 141.5t34.5 173q0 72 -23.5 135t-66.5 109.5t-102.5 73t-132.5 26.5q-80 0 -153 -30t-133.5 -81t-101.5 -122.5t-55 -153.5z" />
<glyph unicode="c" horiz-adv-x="985" d="M154 358q0 98 39.5 185.5t107.5 154t158 104.5t190 38q57 0 110.5 -16.5t98.5 -47.5t76 -74t41 -94h-39q-10 45 -39 81t-69 61.5t-87 40t-96 14.5q-94 0 -177 -35t-144.5 -95.5t-97.5 -141t-36 -173.5q0 -74 25 -137t69 -109t107.5 -72t140.5 -26q51 0 103.5 14.5 t100.5 41t86 63.5t61 82h41q-25 -53 -68 -96t-96 -74t-113.5 -48t-118.5 -17q-84 0 -153.5 29.5t-118.5 79.5t-75.5 119t-26.5 148z" />
<glyph unicode="d" horiz-adv-x="1105" d="M154 356q0 98 38.5 186.5t104 154t153 104.5t183.5 39q131 0 223 -71t127 -183l104 751h37l-186 -1337h-37l33 233q-66 -113 -178.5 -182t-243.5 -69q-80 0 -146.5 28.5t-113.5 79.5t-72.5 120t-25.5 146zM190 360q0 -74 24 -136t67 -108t102 -73t133 -27q80 0 156 31 t135 84t100 127t54 160q2 22 2 44q1 58 -15 110q-22 72 -66 122.5t-108.5 80.5t-144.5 30q-90 0 -169 -35t-139.5 -95.5t-95.5 -141t-35 -173.5z" />
<glyph unicode="e" horiz-adv-x="1026" d="M154 358q0 98 39.5 185.5t106.5 154t154 104.5t183 38q88 0 157.5 -34t114.5 -92q45 -60 63 -138q11 -48 11 -98q0 -33 -4 -68l-2 -17h-784q-2 -22 -2 -43q0 -56 15 -106q21 -68 66 -119t111 -80t149 -29q51 0 103.5 14.5t100.5 41t86 63.5t61 82h41q-25 -53 -68 -96 t-96 -74t-113.5 -48t-118.5 -17q-84 0 -153.5 29.5t-118.5 79.5t-75.5 119t-26.5 148zM199 430h747q1 20 1 38q1 58 -13 110q-18 68 -59 119t-102.5 79.5t-139.5 28.5t-150.5 -28.5t-131 -80t-98.5 -119t-54 -147.5z" />
<glyph unicode="f" horiz-adv-x="573" d="M156 784l6 35h170l24 178q23 170 109 259.5t240 89.5q45 0 75 -7l-6 -32q-12 2 -29.5 3t-44.5 1q-135 0 -210.5 -81t-96.5 -233l-24 -178h274l-6 -35h-275l-110 -784h-37l111 784h-170z" />
<glyph unicode="g" horiz-adv-x="944" d="M39 -356q0 59 19.5 108t51 87t70.5 64.5t78 43.5q-68 2 -121 34.5t-53 104.5q0 37 16.5 67.5t41 55t55 43t59.5 29.5q-47 70 -47 170q0 78 32.5 148.5t87 122.5t125 83t148.5 31h379l-4 -31h-252q78 -31 126 -106.5t48 -168.5q0 -76 -32.5 -144.5t-87 -120.5t-126 -82.5 t-147.5 -30.5q-72 0 -131.5 27.5t-98.5 74.5q-57 -23 -106 -63.5t-49 -100.5q0 -35 16.5 -57.5t43 -34.5t62.5 -17.5t72 -5.5h203q178 0 256 -64.5t78 -182.5q0 -162 -113.5 -260.5t-335.5 -98.5q-94 0 -162.5 21.5t-113.5 58.5t-66.5 87t-21.5 108zM76 -350q0 -49 19.5 -94 t59.5 -79t102 -53.5t151 -19.5q209 0 308 87t99 235q0 104 -68.5 159.5t-234.5 55.5h-203q-47 -16 -89 -43t-73.5 -64t-51 -83t-19.5 -101zM246 459q0 -57 19.5 -107.5t55 -87.5t84 -58.5t105.5 -21.5q68 0 131.5 28t112.5 75t78.5 109.5t29.5 131.5q0 57 -19.5 107.5 t-55 87.5t-85 58.5t-106.5 21.5q-68 0 -131.5 -27.5t-111.5 -76t-77.5 -110.5t-29.5 -130z" />
<glyph unicode="h" horiz-adv-x="1042" d="M168 0l188 1337h37l-92 -667q33 31 74 60.5t90 54t104.5 40t116.5 15.5q152 0 220 -96q51 -71 52 -180q0 -37 -6 -77l-69 -487h-37l69 487q5 38 5 71q0 98 -43 162q-58 86 -195 85q-117 0 -216 -55.5t-173 -126.5l-88 -623h-37z" />
<glyph unicode="i" horiz-adv-x="405" d="M184 0l115 819h37l-115 -819h-37zM317 1116q0 20 14.5 35.5t35.5 15.5q16 0 27.5 -11t11.5 -28q0 -23 -15.5 -36t-38.5 -13q-16 0 -25.5 10.5t-9.5 26.5z" />
<glyph unicode="j" horiz-adv-x="405" d="M-158 -514l6 33q10 -2 25.5 -3t32.5 -1h6q113 0 167 71q56 72 77 211l143 1022h37l-143 -1022q-23 -162 -92.5 -239.5t-198.5 -77.5q-33 0 -60 6zM315 1116q0 20 15.5 35.5t36.5 15.5q16 0 27.5 -11t11.5 -28q0 -20 -15.5 -34.5t-36.5 -14.5q-16 0 -27.5 10.5t-11.5 26.5 z" />
<glyph unicode="k" horiz-adv-x="851" d="M168 0l188 1337h37l-129 -929l565 411h56l-432 -313l362 -506h-43l-346 485l-170 -120l-51 -365h-37z" />
<glyph unicode="l" horiz-adv-x="405" d="M184 0l189 1337h37l-189 -1337h-37z" />
<glyph unicode="m" horiz-adv-x="1568" d="M164 0l115 819h36l-20 -149q33 31 70.5 61.5t83 54t94.5 39t102 15.5q203 0 232 -193q80 82 174 137.5t198 55.5q135 0 195 -87q43 -64 43 -167q0 -38 -6 -82l-72 -504h-37l72 504q7 46 7 85q-1 86 -35 139q-50 77 -173 77q-98 0 -188 -53.5t-174 -139.5q2 -25 1 -52.5 t-5 -55.5l-72 -504h-37l72 504q7 46 7 85q-1 86 -35 139q-50 77 -173 77q-102 0 -189.5 -55.5t-160.5 -126.5l-88 -623h-37z" />
<glyph unicode="n" horiz-adv-x="1038" d="M164 0l115 819h36l-20 -149q33 31 75 60.5t91 54t104.5 40t116.5 15.5q152 0 220 -96q51 -71 52 -180q0 -37 -6 -77l-69 -487h-37l69 487q5 37 5 70q0 99 -44 163q-59 86 -196 85q-117 0 -215.5 -55.5t-171.5 -126.5l-88 -623h-37z" />
<glyph unicode="o" horiz-adv-x="1040" d="M154 358q0 98 39.5 185.5t106.5 154t154 104.5t183 38q80 0 147.5 -30t114.5 -81t73.5 -119.5t26.5 -146.5q0 -98 -39.5 -186.5t-106.5 -154t-154 -103t-183 -37.5q-80 0 -147.5 29.5t-114.5 79.5t-73.5 119t-26.5 148zM190 360q0 -74 25 -137t68 -109t103 -72t134 -26 q88 0 168 35t140.5 95.5t96.5 140.5t36 172q0 74 -24 136t-67 109.5t-103 74t-134 26.5q-88 0 -168 -35t-141.5 -95.5t-97.5 -141t-36 -173.5z" />
<glyph unicode="p" horiz-adv-x="1101" d="M90 -512l189 1331h36l-32 -233q66 113 178.5 183.5t243.5 70.5q80 0 145 -30t113.5 -81t74 -119.5t25.5 -146.5q0 -98 -39 -185.5t-105.5 -154t-153.5 -104t-183 -37.5q-131 0 -223.5 69.5t-125.5 181.5l-106 -745h-37zM256 418q-4 -32 -4 -62q0 -51 12 -98 q21 -74 66 -127t111.5 -84t146.5 -31q88 0 167 35t139 95.5t95 140.5t35 172q0 74 -23.5 136t-66.5 109.5t-102.5 74t-133.5 26.5q-80 0 -152.5 -30t-132 -81t-101.5 -122.5t-56 -153.5z" />
<glyph unicode="q" horiz-adv-x="1101" d="M154 356q0 98 38.5 186.5t104 154t153 104.5t183.5 39q131 0 223 -71t127 -183l33 233h37l-189 -1331h-37l107 745q-66 -113 -178.5 -182t-243.5 -69q-80 0 -146.5 28.5t-113.5 79.5t-72.5 120t-25.5 146zM190 360q0 -74 24 -136t67 -108t102 -73t133 -27q80 0 156 31 t135 84t100 127t54 160q2 22 2 44q0 57 -15 110q-22 71 -66 122t-108.5 81t-144.5 30q-90 0 -169 -35t-139.5 -95.5t-95.5 -141t-35 -173.5z" />
<glyph unicode="r" horiz-adv-x="616" d="M164 0l115 819h36l-20 -149q33 31 74 60.5t88 52t103 34.5q42 9 88 9q16 0 32 -1l-6 -34q-15 1 -29 1q-45 0 -85 -10q-54 -12 -102 -35.5t-90 -56.5t-79 -67l-88 -623h-37z" />
<glyph unicode="s" horiz-adv-x="765" d="M109 158h36q16 -53 73.5 -96.5t170.5 -43.5q51 0 100.5 11.5t87 36t61.5 61.5t24 90q0 82 -69 124t-177 69q-43 10 -83 26.5t-71 39t-48 55t-17 77.5q0 96 75.5 164t208.5 68q111 0 175.5 -55.5t80.5 -122.5h-37q-10 25 -26.5 49t-43 45.5t-64.5 35t-91 13.5 q-117 0 -179.5 -56.5t-62.5 -138.5q0 -76 57.5 -110.5t155.5 -59.5q51 -12 97.5 -29.5t81 -43t54 -61.5t19.5 -85q0 -61 -26.5 -106t-70.5 -74t-100.5 -43t-115.5 -14q-123 0 -191.5 50t-84.5 124z" />
<glyph unicode="t" horiz-adv-x="624" d="M152 784l6 35h190l41 291h37l-41 -291h287l-6 -35h-287l-78 -548q-6 -38 -6 -67q0 -24 4 -42q8 -41 29.5 -64.5t53.5 -31.5t71 -8q37 0 65.5 4t50.5 8l-6 -35q-23 -4 -49.5 -8t-67.5 -4q-51 0 -89 11t-62.5 39t-31.5 76q-3 20 -3 44q0 35 6 78l76 548h-190z" />
<glyph unicode="u" horiz-adv-x="1021" d="M205 322l69 497h37l-69 -497q-6 -41 -7 -78q1 -92 43 -150q58 -80 193 -80q113 0 208 55.5t169 127.5l88 622h37l-115 -819h-37l21 150q-33 -31 -74 -61t-89 -54.5t-101.5 -39.5t-112.5 -15q-147 0 -215 90q-51 67 -51 175q0 36 6 77z" />
<glyph unicode="v" horiz-adv-x="876" d="M160 819h39l243 -786l465 786h39l-514 -858z" />
<glyph unicode="w" horiz-adv-x="1220" d="M168 819h35l141 -749l385 778l164 -778l354 749h35l-403 -850l-162 787l-387 -787z" />
<glyph unicode="x" horiz-adv-x="831" d="M53 0l400 422l-265 397h45l246 -370l348 370h45l-374 -397l280 -422h-45l-262 393l-373 -393h-45z" />
<glyph unicode="y" horiz-adv-x="876" d="M113 -512l307 512l-260 819h39l241 -784l467 784h39l-794 -1331h-39z" />
<glyph unicode="z" horiz-adv-x="759" d="M49 0l680 786h-532l4 33h600l-680 -786h579l-6 -33h-645z" />
<glyph unicode="{" horiz-adv-x="610" d="M164 438l6 37q43 20 81 47t68.5 63t52 84t31.5 113l64 443q23 158 102.5 232.5t198.5 86.5l-6 -35q-104 -8 -171 -73.5t-87 -212.5l-64 -441q-10 -70 -31.5 -121t-52 -87.5t-69.5 -64.5t-84 -52q39 -25 69.5 -52.5t51 -64.5t27.5 -88t-3 -121l-61 -440 q-20 -147 27.5 -213t150.5 -74l-6 -35q-113 12 -172.5 87t-36.5 233l61 442q8 66 1 114t-27.5 84t-52 61.5t-68.5 47.5z" />
<glyph unicode="|" horiz-adv-x="471" d="M158 -410l288 2048h37l-288 -2048h-37z" />
<glyph unicode="}" horiz-adv-x="610" d="M-27 -631l4 35q104 8 172 73.5t89 213.5l61 440q10 70 31.5 121t52.5 88t70 64.5t82 52.5q-37 25 -68 52.5t-51.5 64t-28.5 88t2 120.5l64 441q20 145 -29 211.5t-150 74.5l5 35q57 -6 101 -27.5t72.5 -59.5t40 -95t-0.5 -137l-66 -443q-10 -66 -1 -113.5t29.5 -83.5 t52.5 -62.5t68 -47.5l-6 -37q-43 -23 -81.5 -48t-69.5 -61t-52.5 -84t-29.5 -114l-62 -442q-23 -160 -103.5 -233.5t-197.5 -86.5z" />
<glyph unicode="~" d="M258 440q47 59 104.5 97t143.5 38q45 0 87 -19t83 -44t82 -44t84 -19q123 0 198 124l31 -20q-47 -68 -104.5 -103.5t-128.5 -35.5q-49 0 -89 19.5t-79 44t-80 44t-88 19.5q-68 0 -120 -31t-97 -90z" />
<glyph unicode="&#xa1;" horiz-adv-x="532" d="M197 -354l151 1077h37l-152 -1077h-36zM356 1032q0 29 19.5 48.5t44.5 19.5q23 0 37 -14t14 -37q0 -27 -20.5 -46.5t-47.5 -19.5q-23 0 -35 14.5t-12 34.5z" />
<glyph unicode="&#xa2;" d="M250 358q0 94 38 179.5t102.5 150t149.5 104t181 46.5l27 186h36l-26 -184q55 0 109.5 -17.5t98.5 -48.5t75.5 -73t41.5 -93h-39q-10 43 -38.5 79t-68.5 62.5t-87 41t-96 14.5l-113 -789q49 0 102.5 15.5t101.5 41t87 62.5t61 82h41q-25 -53 -68.5 -96t-97 -74t-113 -48 t-116.5 -17l-29 -187h-37l29 189q-80 4 -144.5 34.5t-110.5 82t-71.5 117t-25.5 140.5zM289 362q0 -72 22.5 -132t63.5 -106t99 -75t130 -33l113 787q-88 -6 -166 -43t-136.5 -96.5t-92 -137.5t-33.5 -164z" />
<glyph unicode="&#xa3;" d="M162 0l6 35h88q72 33 143.5 90t127 129t87 151.5t25.5 159.5h-272l4 35h266q-16 53 -53 106.5t-75 110.5t-66.5 119.5t-28.5 134.5q0 68 30.5 136.5t86 122.5t134 88t175.5 34q88 0 155.5 -29.5t110.5 -82t58.5 -124t-1.5 -155.5h-37q10 78 -3 143.5t-50 112.5t-96 73.5 t-141 26.5q-88 0 -160 -31.5t-122 -83t-76.5 -113t-26.5 -118.5q0 -70 27.5 -128t65.5 -113.5t74.5 -110.5t55.5 -119h303l-4 -35h-297q8 -78 -22.5 -158.5t-83 -152.5t-119 -129t-129.5 -90h753l-6 -35h-907z" />
<glyph unicode="&#xa4;" horiz-adv-x="1265" d="M199 176l102 90q-43 59 -65.5 134t-22.5 153q0 111 50 211t130 186l-76 88l31 27l78 -88q82 63 175 100t190 37q94 0 176 -37t147 -98l98 86l23 -27l-96 -86q41 -59 64.5 -133t23.5 -151q0 -117 -52.5 -216.5t-138.5 -187.5l80 -88l-33 -29l-77 93q-82 -63 -174.5 -97 t-184.5 -34t-173 34.5t-146 98.5l-109 -95zM252 557q0 -84 29.5 -158.5t83 -131t127 -89.5t161.5 -33q104 0 200.5 42t171.5 113t119 165t44 199q0 84 -31 158.5t-84 131t-127 89t-162 32.5q-104 0 -200.5 -42t-170 -112.5t-117.5 -165t-44 -198.5z" />
<glyph unicode="&#xa5;" d="M233 565l7 37h422l2 21l-101 208h-291l4 37h267l-275 566h41l377 -777h4l594 777h41l-436 -566h268l-4 -37h-291l-162 -208l-2 -21h422l-6 -37h-422l-80 -565h-37l80 565h-422z" />
<glyph unicode="&#xa6;" horiz-adv-x="446" d="M164 -287l100 711h37l-100 -711h-37zM317 805l101 711h37l-101 -711h-37z" />
<glyph unicode="&#xa7;" d="M223 -201h39q12 -88 88 -145t211 -57q61 0 125 20.5t115 59t82.5 95t31.5 128.5q0 90 -65.5 158.5t-181.5 119.5q-10 -2 -17.5 -2h-17.5q-68 0 -124 24.5t-97 66.5t-63.5 99t-22.5 123t23.5 126.5t63.5 109.5t94 87t118 56q-82 37 -134.5 105.5t-52.5 163.5 q0 55 21.5 111.5t67.5 103.5t119 76.5t173 29.5q123 0 206 -64.5t97 -170.5h-39q-14 88 -84.5 144t-183.5 56q-92 0 -156.5 -27.5t-105.5 -69.5t-59.5 -93t-18.5 -98q0 -53 16.5 -92t44 -69t62.5 -53.5t74 -41.5q31 6 61 6q68 0 124 -24.5t97 -67.5t63.5 -100.5t22.5 -123.5 q0 -68 -24.5 -128t-65.5 -110t-97 -86t-120 -55q45 -23 85 -52t71 -64t48 -78t17 -94q0 -80 -34.5 -143.5t-91 -107.5t-128 -66.5t-143.5 -22.5q-143 0 -230 66.5t-104 170.5zM365 492q0 -59 20.5 -109.5t56 -89.5t86 -60.5t111.5 -21.5q72 0 137.5 28.5t115.5 78t79.5 114 t29.5 137.5q0 57 -20 108.5t-56 90.5t-86.5 60.5t-111.5 21.5q-72 0 -137.5 -28.5t-115.5 -78t-79.5 -113.5t-29.5 -138z" />
<glyph unicode="&#xa8;" horiz-adv-x="593" d="M250 1116q0 20 14.5 35.5t34.5 15.5q16 0 27.5 -11t11.5 -28q0 -23 -15.5 -36t-37.5 -13q-16 0 -25.5 10.5t-9.5 26.5zM571 1116q0 20 14.5 35.5t35.5 15.5q16 0 27 -11t11 -28q0 -23 -15 -36t-38 -13q-16 0 -25.5 10.5t-9.5 26.5z" />
<glyph unicode="&#xa9;" horiz-adv-x="1796" d="M258 635q0 166 69.5 315.5t186.5 261t269.5 177t318.5 65.5q139 0 256 -51t202 -139t133 -207t48 -254q0 -166 -71 -314.5t-187.5 -260t-269 -177t-318.5 -65.5q-139 0 -256 50t-202 138t-132 207t-47 254zM295 637q0 -129 45 -241.5t125 -195.5t191.5 -131.5 t244.5 -48.5q158 0 303.5 62.5t256 169t177 248t66.5 301.5q0 129 -45 241.5t-125 197.5t-191.5 133t-244.5 48q-158 0 -303.5 -62.5t-256 -170t-177 -249.5t-66.5 -302zM662 678q0 80 33.5 151.5t89 126t129 86t153.5 31.5q117 0 192.5 -60.5t110.5 -162.5h-41 q-27 78 -92.5 133t-175.5 55q-72 0 -137.5 -28.5t-116.5 -77.5t-82 -113.5t-31 -136.5q0 -59 21.5 -110.5t58.5 -89.5t88 -59.5t111 -21.5q111 0 193.5 56.5t125.5 138.5h41q-59 -109 -153.5 -169t-212.5 -60q-68 0 -123.5 23.5t-96 65.5t-63 99t-22.5 123z" />
<glyph unicode="&#xaa;" horiz-adv-x="684" d="M215 977q0 102 72.5 156.5t232.5 54.5h182l9 49q12 78 -32 125t-132 47q-80 0 -137.5 -39t-79.5 -90h-31q29 66 93.5 112t156.5 46q100 0 152.5 -54.5t39.5 -146.5l-57 -418h-31l19 142q-37 -63 -101.5 -105.5t-152.5 -42.5q-92 0 -147.5 43t-55.5 121zM246 979 q0 -66 48 -101.5t126 -35.5q45 0 90 15t82 45t62.5 70t31.5 89l14 98h-184q-141 0 -205.5 -47t-64.5 -133z" />
<glyph unicode="&#xab;" horiz-adv-x="800" d="M164 580l323 323l19 -26l-297 -297l215 -299l-27 -23zM479 580l324 323l18 -26l-297 -297l215 -299l-26 -23z" />
<glyph unicode="&#xac;" d="M215 565l6 35h889l-68 -477h-36l61 442h-852z" />
<glyph unicode="&#xad;" horiz-adv-x="368" d="M84 594l6 39h369l-6 -39h-369z" />
<glyph unicode="&#xae;" horiz-adv-x="1796" d="M258 635q0 166 69.5 315.5t186.5 261t269.5 177t318.5 65.5q139 0 256 -51t202 -139t133 -207t48 -254q0 -166 -71 -314.5t-187.5 -260t-269 -177t-318.5 -65.5q-139 0 -256 50t-202 138t-132 207t-47 254zM295 637q0 -129 45 -241.5t125 -195.5t191.5 -131.5 t244.5 -48.5q158 0 303.5 62.5t256 169t177 248t66.5 301.5q0 129 -45 241.5t-125 197.5t-191.5 133t-244.5 48q-158 0 -303.5 -62.5t-256 -170t-177 -249.5t-66.5 -302zM758 360l100 713h229q86 0 142.5 -42t56.5 -128q0 -98 -65.5 -153.5t-161.5 -65.5l162 -324h-37 l-158 324h-190l-45 -324h-33zM840 715h198q39 0 78 11t70 33.5t49 57.5t18 84q0 74 -49 107.5t-121 33.5h-196z" />
<glyph unicode="&#xaf;" horiz-adv-x="593" d="M199 1102l4 31h504l-5 -31h-503z" />
<glyph unicode="&#xb0;" horiz-adv-x="768" d="M289 1165q0 59 24.5 112.5t66.5 93.5t96 63.5t114 23.5q49 0 91 -18.5t72.5 -49t47 -72.5t16.5 -91q0 -59 -25.5 -112.5t-67.5 -93.5t-96.5 -62.5t-113.5 -22.5q-100 0 -162.5 65.5t-62.5 163.5zM319 1169q0 -86 55.5 -145t145.5 -59q51 0 99.5 20.5t85 55t59 81.5 t22.5 101q0 86 -56 146.5t-144 60.5q-53 0 -101.5 -20.5t-85.5 -56.5t-58.5 -83.5t-21.5 -100.5z" />
<glyph unicode="&#xb1;" d="M133 0l6 37h922l-6 -37h-922zM213 565l6 37h443l61 442h37l-62 -442h443l-6 -37h-443l-61 -442h-37l61 442h-442z" />
<glyph unicode="&#xb2;" horiz-adv-x="712" d="M256 1077l330 293q27 25 59.5 53.5t59 61.5t45 68.5t18.5 72.5q0 63 -45 107.5t-127 44.5q-88 0 -149.5 -50.5t-69.5 -128.5h-35q4 45 26.5 83t58.5 67t81 45t94 16q96 0 148.5 -51t52.5 -129q0 -43 -17.5 -81t-44 -71.5t-59.5 -64.5t-64 -57l-280 -246h418l-6 -33h-494z " />
<glyph unicode="&#xb3;" horiz-adv-x="716" d="M276 1251h35q-2 -66 50.5 -108.5t138.5 -42.5q53 0 96 15t73.5 42t48 61.5t17.5 73.5q0 72 -54 107t-132 39l4 32q92 4 154.5 48.5t62.5 128.5q0 55 -44 93t-122 38q-80 0 -136 -39t-73 -103h-35q18 78 84 126t164 48q92 0 144.5 -47t52.5 -114q0 -43 -15.5 -76 t-41 -56.5t-59.5 -39t-68 -23.5q57 -8 103 -46t46 -114q0 -94 -73.5 -160.5t-198.5 -66.5q-49 0 -91 13.5t-72 38t-46.5 58t-12.5 74.5z" />
<glyph unicode="&#xb4;" horiz-adv-x="593" d="M309 1087l285 211l22 -34l-292 -195z" />
<glyph unicode="&#xb5;" horiz-adv-x="1026" d="M90 -512l189 1331h36l-69 -497q-23 -147 35.5 -227.5t193.5 -80.5q113 0 208 55.5t169 127.5l88 622h37l-115 -819h-37l21 150q-33 -31 -74 -61t-89 -54.5t-101.5 -39.5t-112.5 -15q-199 0 -250 157l-92 -649h-37z" />
<glyph unicode="&#xb6;" horiz-adv-x="1112" d="M352 1024q0 193 107.5 301.5t351.5 108.5h299l-6 -37h-146q-86 0 -125.5 -45t-50.5 -117l-231 -1645h-37l160 1141q-147 -2 -234.5 79t-87.5 214z" />
<glyph unicode="&#xb7;" horiz-adv-x="421" d="M244 629q0 25 21.5 44t45.5 19q23 0 35 -14t12 -37q0 -25 -20.5 -44t-44.5 -19q-23 0 -36 14t-13 37z" />
<glyph unicode="&#xb8;" horiz-adv-x="593" d="M111 -352l165 268l39 -16l-182 -265z" />
<glyph unicode="&#xb9;" horiz-adv-x="630" d="M358 1686l269 141l-107 -750h-35l97 690l-211 -108z" />
<glyph unicode="&#xba;" horiz-adv-x="774" d="M248 1122q8 63 39.5 120.5t78 100.5t103.5 69t121 26q61 0 112.5 -26t85 -69t48 -100.5t6.5 -120.5t-40 -120.5t-78 -100.5t-104.5 -68.5t-119.5 -25.5q-63 0 -113.5 25.5t-84.5 68.5t-48 100.5t-6 120.5zM281 1122q-8 -59 5 -111.5t42.5 -91t76 -61t101.5 -22.5 t106.5 22.5t92 61t68.5 91t36 111.5t-4 111.5t-43 91.5t-76 61.5t-100 22.5t-107.5 -22.5t-93.5 -61.5t-68.5 -91.5t-35.5 -111.5z" />
<glyph unicode="&#xbb;" horiz-adv-x="800" d="M143 281l299 299l-215 297l27 26l233 -323l-325 -322zM459 281l299 299l-215 297l26 26l234 -323l-326 -322z" />
<glyph unicode="&#xbc;" horiz-adv-x="1679" d="M348 1319l268 141l-106 -749h-35l96 690l-211 -109zM408 10l1036 1440l31 -23l-1035 -1439zM991 150l539 614l-82 -582h106l-4 -32h-106l-23 -150h-35l23 150h-418zM1059 182h354l68 475z" />
<glyph unicode="&#xbd;" horiz-adv-x="1679" d="M348 1319l268 141l-106 -749h-35l96 690l-211 -109zM408 10l1036 1440l31 -23l-1035 -1439zM1038 0l330 293q27 25 59.5 53.5t59 61t45 68.5t18.5 73q0 63 -45 107t-127 44q-88 0 -149.5 -50t-69.5 -128h-35q4 45 27 83t58.5 66.5t80.5 45t94 16.5q96 0 148.5 -51 t52.5 -129q0 -43 -17.5 -81t-44 -71.5t-59 -64.5t-63.5 -57l-281 -246h418l-6 -33h-494z" />
<glyph unicode="&#xbe;" horiz-adv-x="1679" d="M205 885h35q-2 -66 50 -109t138 -43q53 0 96 15.5t74 42t48.5 61.5t17.5 74q0 72 -54.5 106.5t-132.5 38.5l4 33q92 4 154.5 48t62.5 128q0 55 -44 93t-122 38q-80 0 -136 -39t-72 -102h-35q18 78 83.5 126t164.5 48q92 0 144 -47t52 -115q0 -43 -15.5 -75.5t-41 -56.5 t-59 -39t-68.5 -24q57 -8 103 -45.5t46 -113.5q0 -94 -73.5 -161t-198.5 -67q-49 0 -91 13.5t-72 38t-46 58.5t-12 75zM406 10l1036 1440l33 -23l-1035 -1439zM989 150l539 614l-82 -582h106l-4 -32h-106l-21 -150h-35l21 150h-418zM1057 182h354l68 475z" />
<glyph unicode="&#xbf;" horiz-adv-x="1046" d="M63 -14q0 98 43.5 179t110 148.5t146 123t153.5 102.5l35 243h37l-39 -268q-70 -43 -148.5 -94t-145.5 -114.5t-111 -142.5t-44 -175q0 -66 22.5 -125.5t65.5 -104.5t107.5 -70.5t148.5 -25.5q86 0 163 28.5t137.5 78t100.5 118t50 148.5h37q-8 -84 -51 -158t-108.5 -129 t-150.5 -88t-180 -33q-92 0 -162.5 29t-118.5 78t-73 113.5t-25 138.5zM547 1034q0 27 19.5 46.5t45.5 19.5q23 0 36.5 -14t13.5 -37q0 -27 -20.5 -46.5t-45.5 -19.5q-23 0 -36 14.5t-13 36.5z" />
<glyph unicode="&#xc0;" horiz-adv-x="1404" d="M61 0h39l271 463h794l140 -463h38l-436 1454zM389 498l506 872l260 -872h-766zM809 1753l31 33l227 -199l-18 -16z" />
<glyph unicode="&#xc1;" horiz-adv-x="1404" d="M61 0h39l271 463h794l140 -463h38l-436 1454zM389 498l506 872l260 -872h-766zM784 1585l285 199l21 -33l-291 -182z" />
<glyph unicode="&#xc2;" horiz-adv-x="1404" d="M61 0l846 1454l436 -1454h-38l-140 463h-794l-271 -463h-39zM389 498h766l-260 872zM690 1589l260 164l211 -164l-18 -18l-201 135l-237 -135z" />
<glyph unicode="&#xc3;" horiz-adv-x="1404" d="M61 0l846 1454l436 -1454h-38l-140 463h-794l-271 -463h-39zM389 498h766l-260 872zM668 1616q23 35 61.5 59.5t81.5 24.5q31 0 61.5 -11.5t62.5 -24.5t62.5 -24.5t61.5 -11.5q37 0 70.5 17.5t56.5 42.5l16 -11q-20 -35 -64 -60.5t-91 -25.5q-27 0 -58 11.5t-63.5 25.5 t-64.5 25.5t-60 11.5q-35 0 -67 -16.5t-50 -40.5z" />
<glyph unicode="&#xc4;" horiz-adv-x="1404" d="M61 0l846 1454l436 -1454h-38l-140 463h-794l-271 -463h-39zM389 498h766l-260 872zM725 1618q0 18 15.5 33.5t35.5 15.5q16 0 27.5 -11t11.5 -28q0 -18 -16.5 -31.5t-34.5 -13.5q-16 0 -27.5 10.5t-11.5 24.5zM1047 1620q0 16 15 31.5t36 15.5q16 0 27.5 -11t11.5 -28 q0 -18 -15.5 -31.5t-36.5 -13.5q-16 0 -27 10.5t-11 26.5z" />
<glyph unicode="&#xc5;" horiz-adv-x="1404" d="M61 0l846 1454l436 -1454h-38l-140 463h-794l-271 -463h-39zM389 498h766l-260 872zM791 1686q0 33 14 61.5t37.5 50t54.5 34.5t66 13q59 0 96 -36.5t37 -90.5q0 -33 -14.5 -61.5t-38 -50t-54.5 -33.5t-65 -12q-59 0 -96 36t-37 89zM821 1690q0 -43 29 -72t76 -29 q55 0 97 36t42 89q0 43 -29.5 73t-77.5 30q-55 0 -96 -38t-41 -89z" />
<glyph unicode="&#xc6;" horiz-adv-x="2031" d="M20 0l1233 1434h846l-6 -35h-807l-86 -604h748l-2 -35h-748l-102 -725h807l-7 -35h-843l65 463h-651l-399 -463h-48zM496 498h626l123 874z" />
<glyph unicode="&#xc7;" horiz-adv-x="1652" d="M221 631q0 168 69.5 317.5t187.5 262t272.5 178t324.5 65.5q119 0 219.5 -31.5t178 -89t131 -136.5t82.5 -171h-39q-25 80 -73 150.5t-120 125t-168 85t-215 30.5q-164 0 -310.5 -61.5t-258 -167t-177 -248.5t-65.5 -307q0 -131 45 -244t126 -195.5t193.5 -130 t247.5 -47.5q117 0 222.5 32t195.5 88.5t161 132t118 161.5h43q-51 -100 -129 -183t-174.5 -142.5t-209 -92t-233.5 -32.5q-143 0 -262 51t-204 139t-132 207t-47 254zM692 -352l166 268l39 -16l-182 -265z" />
<glyph unicode="&#xc8;" horiz-adv-x="1224" d="M201 0h889l6 35h-852l102 725h795l2 35h-795l86 604h852l6 35h-889zM780 1753l31 33l229 -199l-20 -16z" />
<glyph unicode="&#xc9;" horiz-adv-x="1224" d="M201 0h889l6 35h-852l102 725h795l2 35h-795l86 604h852l6 35h-889zM758 1585l282 199l21 -33l-291 -182z" />
<glyph unicode="&#xca;" horiz-adv-x="1224" d="M201 0l202 1434h889l-6 -35h-852l-86 -604h795l-2 -35h-795l-102 -725h852l-6 -35h-889zM664 1589l258 164l213 -164l-21 -18l-199 135l-239 -135z" />
<glyph unicode="&#xcb;" horiz-adv-x="1224" d="M201 0l202 1434h889l-6 -35h-852l-86 -604h795l-2 -35h-795l-102 -725h852l-6 -35h-889zM696 1620q0 16 15.5 31.5t36.5 15.5q16 0 27 -11t11 -28q0 -18 -15 -31.5t-36 -13.5q-16 0 -27.5 10.5t-11.5 26.5zM1018 1620q0 16 15.5 31.5t35.5 15.5q16 0 27.5 -11t11.5 -28 q0 -18 -15.5 -31.5t-35.5 -13.5q-16 0 -27.5 10.5t-11.5 26.5z" />
<glyph unicode="&#xcc;" horiz-adv-x="487" d="M225 0h37l203 1434h-37zM350 1753l31 33l227 -199l-18 -16z" />
<glyph unicode="&#xcd;" horiz-adv-x="487" d="M225 0h37l201 1434h-37zM326 1585l282 199l23 -33l-293 -182z" />
<glyph unicode="&#xce;" horiz-adv-x="487" d="M225 0l201 1434h37l-201 -1434h-37zM231 1589l261 164l210 -164l-20 -18l-199 135l-239 -135z" />
<glyph unicode="&#xcf;" horiz-adv-x="487" d="M225 0l203 1434h37l-203 -1434h-37zM266 1618q0 18 15.5 33.5t35.5 15.5q16 0 27.5 -11t11.5 -28q0 -18 -16 -31.5t-37 -13.5q-16 0 -26.5 10.5t-10.5 24.5zM588 1618q0 18 15 33.5t36 15.5q16 0 27.5 -11t11.5 -28q0 -18 -16.5 -31.5t-36.5 -13.5q-16 0 -26.5 10.5 t-10.5 24.5z" />
<glyph unicode="&#xd0;" horiz-adv-x="1509" d="M156 614l6 37h135l109 783h462q143 0 258 -47.5t195 -130t123 -196.5t43 -247q0 -170 -58.5 -317.5t-164 -258t-254 -174t-326.5 -63.5h-479l86 614h-135zM246 35h442q172 0 312.5 62.5t240.5 168t154.5 245.5t54.5 300q0 125 -40 232.5t-114.5 186.5t-183 124t-246.5 45 h-426l-106 -748h475l-6 -37h-475z" />
<glyph unicode="&#xd1;" horiz-adv-x="1517" d="M201 0l207 1464l882 -1398l193 1368h37l-207 -1477l-883 1401l-192 -1358h-37zM725 1616q23 35 60.5 59.5t80.5 24.5q31 0 63 -11.5t62.5 -24.5t62 -24.5t62.5 -11.5q37 0 70 17.5t55 42.5l16 -11q-18 -35 -62 -60.5t-91 -25.5q-27 0 -58.5 11.5t-63.5 25.5t-64.5 25.5 t-61.5 11.5q-35 0 -66.5 -16.5t-48.5 -40.5z" />
<glyph unicode="&#xd2;" horiz-adv-x="1726" d="M221 631q0 -135 47 -254t132 -207t203 -138t257 -50q166 0 319.5 65.5t270.5 177t187.5 261t70.5 317.5q0 135 -48 254t-133 207t-203 139t-257 51q-166 0 -318.5 -65.5t-270.5 -178t-187.5 -262t-69.5 -317.5zM260 633q0 164 65.5 307t176 248.5t256 167t305.5 61.5 q131 0 242.5 -47t192.5 -130t126 -195.5t45 -243.5q0 -164 -66.5 -306.5t-177 -248t-256 -167t-305.5 -61.5q-133 0 -243.5 47.5t-190.5 130.5t-125 194.5t-45 242.5zM969 1753l30 33l230 -199l-21 -16z" />
<glyph unicode="&#xd3;" horiz-adv-x="1726" d="M221 631q0 -135 47 -254t132 -207t203 -138t257 -50q166 0 319.5 65.5t270.5 177t187.5 261t70.5 317.5q0 135 -48 254t-133 207t-203 139t-257 51q-166 0 -318.5 -65.5t-270.5 -178t-187.5 -262t-69.5 -317.5zM260 633q0 164 65.5 307t176 248.5t256 167t305.5 61.5 q131 0 242.5 -47t192.5 -130t126 -195.5t45 -243.5q0 -164 -66.5 -306.5t-177 -248t-256 -167t-305.5 -61.5q-133 0 -243.5 47.5t-190.5 130.5t-125 194.5t-45 242.5zM946 1585l283 199l20 -33l-291 -182z" />
<glyph unicode="&#xd4;" horiz-adv-x="1726" d="M221 631q0 168 69.5 317.5t187.5 262t270.5 178t318.5 65.5q139 0 257 -51t203 -139t133 -207t48 -254q0 -168 -70.5 -317.5t-187.5 -261t-270.5 -177t-319.5 -65.5q-139 0 -257 50t-203 138t-132 207t-47 254zM260 633q0 -131 45 -242.5t125 -194.5t190.5 -130.5 t243.5 -47.5q160 0 305.5 61.5t256 167t177 248t66.5 306.5q0 131 -45 243.5t-126 195.5t-192.5 130t-242.5 47q-160 0 -305.5 -61.5t-256 -167t-176 -248.5t-65.5 -307zM852 1589l258 164l213 -164l-20 -18l-199 135l-240 -135z" />
<glyph unicode="&#xd5;" horiz-adv-x="1726" d="M221 631q0 168 69.5 317.5t187.5 262t270.5 178t318.5 65.5q139 0 257 -51t203 -139t133 -207t48 -254q0 -168 -70.5 -317.5t-187.5 -261t-270.5 -177t-319.5 -65.5q-139 0 -257 50t-203 138t-132 207t-47 254zM260 633q0 -131 45 -242.5t125 -194.5t190.5 -130.5 t243.5 -47.5q160 0 305.5 61.5t256 167t177 248t66.5 306.5q0 131 -45 243.5t-126 195.5t-192.5 130t-242.5 47q-160 0 -305.5 -61.5t-256 -167t-176 -248.5t-65.5 -307zM827 1616q23 35 62 59.5t82 24.5q31 0 61.5 -11.5t62 -24.5t62.5 -24.5t62 -11.5q37 0 70.5 17.5 t56.5 42.5l16 -11q-20 -35 -63.5 -60.5t-90.5 -25.5q-27 0 -58.5 11.5t-63 25.5t-64.5 25.5t-61 11.5q-35 0 -67 -16.5t-50 -40.5z" />
<glyph unicode="&#xd6;" horiz-adv-x="1726" d="M221 631q0 168 69.5 317.5t187.5 262t270.5 178t318.5 65.5q139 0 257 -51t203 -139t133 -207t48 -254q0 -168 -70.5 -317.5t-187.5 -261t-270.5 -177t-319.5 -65.5q-139 0 -257 50t-203 138t-132 207t-47 254zM260 633q0 -131 45 -242.5t125 -194.5t190.5 -130.5 t243.5 -47.5q160 0 305.5 61.5t256 167t177 248t66.5 306.5q0 131 -45 243.5t-126 195.5t-192.5 130t-242.5 47q-160 0 -305.5 -61.5t-256 -167t-176 -248.5t-65.5 -307zM885 1620q0 16 15 31.5t36 15.5q16 0 27.5 -11t11.5 -28q0 -18 -15.5 -31.5t-35.5 -13.5 q-16 0 -27.5 10.5t-11.5 26.5zM1206 1620q0 16 15.5 31.5t35.5 15.5q16 0 27.5 -11t11.5 -28q0 -18 -15 -31.5t-36 -13.5q-16 0 -27.5 10.5t-11.5 26.5z" />
<glyph unicode="&#xd7;" d="M244 227l407 357l-307 356l31 27l307 -357l405 357l23 -27l-405 -356l305 -357l-31 -26l-307 356l-406 -356z" />
<glyph unicode="&#xd8;" horiz-adv-x="1726" d="M221 631q0 168 69.5 317.5t187.5 262t270.5 178t318.5 65.5q98 0 184 -23.5t158 -68.5l219 303l27 -20l-215 -302q123 -86 195.5 -229t72.5 -313q0 -168 -70.5 -316.5t-187.5 -260t-270.5 -177t-319.5 -65.5q-190 0 -338 88l-221 -308l-31 21l219 305 q-125 86 -196.5 229.5t-71.5 313.5zM260 631q0 -162 66.5 -298t185.5 -214l874 1212q-70 41 -150.5 63.5t-172.5 22.5q-160 0 -305.5 -61.5t-256 -168t-176 -249.5t-65.5 -307zM543 100q141 -82 321 -82q160 0 305.5 61.5t256 167t177 248t66.5 306.5q0 162 -67.5 298 t-184.5 214z" />
<glyph unicode="&#xd9;" horiz-adv-x="1470" d="M273.5 339q17.5 -110 72.5 -189.5t150.5 -124.5t234.5 -45t247.5 45t187.5 124.5t127 189.5t67 239l121 856h-37l-121 -856q-16 -121 -61 -224.5t-118 -178.5t-174.5 -117t-232.5 -42t-220 42t-140 117t-66.5 178.5t0.5 224.5l121 856h-37l-121 -856q-18 -129 -0.5 -239z M842 1753l30 33l230 -199l-21 -16z" />
<glyph unicode="&#xda;" horiz-adv-x="1470" d="M273.5 339q17.5 -110 72.5 -189.5t150.5 -124.5t234.5 -45t247.5 45t187.5 124.5t127 189.5t67 239l121 856h-37l-121 -856q-16 -121 -61 -224.5t-118 -178.5t-174.5 -117t-232.5 -42t-220 42t-140 117t-66.5 178.5t0.5 224.5l121 856h-37l-121 -856q-18 -129 -0.5 -239z M819 1585l283 199l20 -33l-291 -182z" />
<glyph unicode="&#xdb;" horiz-adv-x="1470" d="M273.5 339q-17.5 110 0.5 239l121 856h37l-121 -856q-16 -121 -0.5 -224.5t66.5 -178.5t140 -117t220 -42t232.5 42t174.5 117t118 178.5t61 224.5l121 856h37l-121 -856q-18 -129 -66.5 -239t-127.5 -189.5t-187.5 -124.5t-247.5 -45t-234.5 45t-150.5 124.5 t-72.5 189.5zM725 1589l258 164l213 -164l-20 -18l-199 135l-240 -135z" />
<glyph unicode="&#xdc;" horiz-adv-x="1470" d="M273.5 339q-17.5 110 0.5 239l121 856h37l-121 -856q-16 -121 -0.5 -224.5t66.5 -178.5t140 -117t220 -42t232.5 42t174.5 117t118 178.5t61 224.5l121 856h37l-121 -856q-18 -129 -66.5 -239t-127.5 -189.5t-187.5 -124.5t-247.5 -45t-234.5 45t-150.5 124.5 t-72.5 189.5zM758 1620q0 16 15 31.5t36 15.5q16 0 27.5 -11t11.5 -28q0 -18 -15.5 -31.5t-35.5 -13.5q-16 0 -27.5 10.5t-11.5 26.5zM1079 1620q0 16 15.5 31.5t35.5 15.5q16 0 27.5 -11t11.5 -28q0 -18 -15 -31.5t-36 -13.5q-16 0 -27.5 10.5t-11.5 26.5z" />
<glyph unicode="&#xdd;" horiz-adv-x="1146" d="M248 1434l395 -811l-88 -623h37l88 623l625 811h-41l-594 -777h-4l-377 777h-41zM657 1585l283 199l23 -33l-293 -182z" />
<glyph unicode="&#xde;" horiz-adv-x="1134" d="M201 0l202 1434h37l-41 -287h318q86 0 161.5 -17.5t132 -57.5t89.5 -102.5t33 -152.5q0 -119 -41 -203t-112 -136t-166 -75.5t-202 -23.5h-321l-53 -379h-37zM297 414h321q94 0 180.5 19.5t152 65.5t105.5 122.5t40 191.5q0 82 -30 139.5t-81 93t-121.5 51t-150.5 15.5 h-318z" />
<glyph unicode="&#xdf;" horiz-adv-x="1019" d="M168 0l139 981q12 80 40 146.5t73 115.5t107.5 76t146.5 27q51 0 96 -16.5t79 -45.5t53.5 -72t19.5 -94q0 -53 -19.5 -100t-52.5 -84t-77 -59.5t-93 -28.5q72 -12 129 -46t98 -84t62.5 -112.5t21.5 -132.5q0 -106 -39 -188t-105.5 -142.5t-152.5 -97.5t-180 -51l6 33 q90 14 169 51t138.5 93t93 132t33.5 168q0 66 -20.5 126t-60 108.5t-97 81t-131.5 42.5l6 39q117 12 175.5 81t58.5 167q0 92 -61.5 145.5t-153.5 53.5q-152 0 -227.5 -90t-98.5 -242l-139 -981h-37z" />
<glyph unicode="&#xe0;" horiz-adv-x="937" d="M129 207q0 -102 71.5 -159.5t190.5 -57.5q135 0 230.5 52t146.5 138l-23 -180h33l76 551q18 135 -53.5 213t-218.5 78q-115 0 -207 -48.5t-133 -136.5h37q43 72 118.5 111t177.5 39q133 0 199 -66.5t47 -189.5l-8 -53h-254q-227 0 -328.5 -75t-101.5 -216zM166 211 q0 129 90 190.5t299 61.5h254l-21 -135q-4 -29 -10 -54.5t-16 -48.5q-25 -53 -66 -91t-89 -62.5t-102.5 -35.5t-107.5 -11q-104 0 -167.5 48t-63.5 138zM506 1264l31 34l227 -211l-19 -18z" />
<glyph unicode="&#xe1;" horiz-adv-x="937" d="M129 207q0 -102 71.5 -159.5t190.5 -57.5q135 0 230.5 52t146.5 138l-23 -180h33l76 551q18 135 -53.5 213t-218.5 78q-115 0 -207 -48.5t-133 -136.5h37q43 72 118.5 111t177.5 39q133 0 199 -66.5t47 -189.5l-8 -53h-254q-227 0 -328.5 -75t-101.5 -216zM166 211 q0 129 90 190.5t299 61.5h254l-21 -135q-4 -29 -10 -54.5t-16 -48.5q-25 -53 -66 -91t-89 -62.5t-102.5 -35.5t-107.5 -11q-104 0 -167.5 48t-63.5 138zM481 1087l285 211l22 -34l-292 -195z" />
<glyph unicode="&#xe2;" horiz-adv-x="937" d="M129 207q0 141 101.5 216t328.5 75h254l8 53q18 123 -47 189.5t-199 66.5q-102 0 -177.5 -39t-118.5 -111h-37q41 88 133 136.5t207 48.5q147 0 218.5 -78t53.5 -213l-76 -551h-33l23 180q-51 -86 -146.5 -138t-230.5 -52q-119 0 -190.5 57t-71.5 160zM166 211 q0 -90 63.5 -138t167.5 -48q53 0 107.5 11t102.5 35.5t89 62.5t66 91q10 23 16 48.5t10 54.5l21 135h-254q-209 0 -299 -61.5t-90 -190.5zM387 1092l260 174l211 -174l-18 -21l-199 146l-240 -146z" />
<glyph unicode="&#xe3;" horiz-adv-x="937" d="M129 207q0 141 101.5 216t328.5 75h254l8 53q18 123 -47 189.5t-199 66.5q-102 0 -177.5 -39t-118.5 -111h-37q41 88 133 136.5t207 48.5q147 0 218.5 -78t53.5 -213l-76 -551h-33l23 180q-51 -86 -146.5 -138t-230.5 -52q-119 0 -190.5 57t-71.5 160zM166 211 q0 -90 63.5 -138t167.5 -48q53 0 107.5 11t102.5 35.5t89 62.5t66 91q10 23 16 48.5t10 54.5l21 135h-254q-209 0 -299 -61.5t-90 -190.5zM365 1118q23 37 61.5 62.5t81.5 25.5q31 0 61.5 -12t61.5 -25.5t61.5 -26t61.5 -12.5q37 0 71.5 18.5t55.5 45.5l16 -10 q-18 -37 -62 -64.5t-92 -27.5q-27 0 -58.5 12t-63 26.5t-64.5 26.5t-61 12q-35 0 -66 -17t-47 -44z" />
<glyph unicode="&#xe4;" horiz-adv-x="937" d="M129 207q0 141 101.5 216t328.5 75h254l8 53q18 123 -47 189.5t-199 66.5q-102 0 -177.5 -39t-118.5 -111h-37q41 88 133 136.5t207 48.5q147 0 218.5 -78t53.5 -213l-76 -551h-33l23 180q-51 -86 -146.5 -138t-230.5 -52q-119 0 -190.5 57t-71.5 160zM166 211 q0 -90 63.5 -138t167.5 -48q53 0 107.5 11t102.5 35.5t89 62.5t66 91q10 23 16 48.5t10 54.5l21 135h-254q-209 0 -299 -61.5t-90 -190.5zM420 1116q0 20 15.5 35.5t35.5 15.5q16 0 27.5 -11t11.5 -28q0 -20 -15.5 -34.5t-35.5 -14.5q-16 0 -27.5 10.5t-11.5 26.5zM741 1116 q0 20 15.5 35.5t36.5 15.5q16 0 27 -11t11 -28q0 -20 -14 -34.5t-37 -14.5q-16 0 -27.5 10.5t-11.5 26.5z" />
<glyph unicode="&#xe5;" horiz-adv-x="937" d="M129 207q0 141 101.5 216t328.5 75h254l8 53q18 123 -47 189.5t-199 66.5q-102 0 -177.5 -39t-118.5 -111h-37q41 88 133 136.5t207 48.5q147 0 218.5 -78t53.5 -213l-76 -551h-33l23 180q-51 -86 -146.5 -138t-230.5 -52q-119 0 -190.5 57t-71.5 160zM166 211 q0 -90 63.5 -138t167.5 -48q53 0 107.5 11t102.5 35.5t89 62.5t66 91q10 23 16 48.5t10 54.5l21 135h-254q-209 0 -299 -61.5t-90 -190.5zM483 1176q0 72 52.5 121t121.5 49q57 0 94 -39t37 -97q0 -70 -52 -118t-122 -48q-57 0 -94 38.5t-37 93.5zM516 1180q0 -47 27.5 -77 t74.5 -30q55 0 97.5 40t42.5 95q0 47 -30 78t-75 31q-57 0 -97 -42t-40 -95z" />
<glyph unicode="&#xe6;" horiz-adv-x="1667" d="M127 195q0 139 99.5 200.5t326.5 61.5h256l12 94q16 123 -47 189.5t-196 66.5q-102 0 -180.5 -39t-118.5 -111h-37q41 88 133 136.5t207 48.5q139 0 212.5 -68.5t63.5 -191.5q66 115 177.5 186.5t244.5 71.5q88 0 157.5 -32t115.5 -87t65.5 -129t7.5 -156l-2 -16h-784 q-10 -90 10 -164t64 -127t111 -83t151 -30q51 0 103 14.5t100 41t86 63.5t61 82h41q-25 -53 -68 -96t-96 -74t-113.5 -48t-118.5 -17q-143 0 -237 75.5t-123 196.5q-27 -70 -72 -120t-100 -82t-118.5 -47t-129.5 -15q-119 0 -191.5 56t-72.5 149zM164 201q0 -82 63.5 -129 t169.5 -47q53 0 107.5 11t103.5 35.5t90 62.5t66 91q10 23 15 48.5t9 54.5l15 94h-254q-207 0 -296 -49t-89 -172zM844 457h747q6 74 -13 137t-61 110.5t-103.5 74t-139.5 26.5t-149.5 -28.5t-130 -77t-97.5 -111t-53 -131.5z" />
<glyph unicode="&#xe7;" horiz-adv-x="985" d="M154 358q0 98 39.5 185.5t107.5 154t158 104.5t190 38q57 0 110.5 -16.5t98.5 -47.5t76 -74t41 -94h-39q-10 45 -39 81t-69 61.5t-87 40t-96 14.5q-94 0 -177 -35t-144.5 -95.5t-97.5 -141t-36 -173.5q0 -74 25 -137t69 -109t107.5 -72t140.5 -26q51 0 103.5 14.5 t100.5 41t86 63.5t61 82h41q-25 -53 -68 -96t-96 -74t-113.5 -48t-118.5 -17q-84 0 -153.5 29.5t-118.5 79.5t-75.5 119t-26.5 148zM356 -352l164 268l41 -16l-182 -265z" />
<glyph unicode="&#xe8;" horiz-adv-x="1026" d="M154 358q0 -80 26.5 -148.5t75.5 -118.5t118.5 -79.5t153.5 -29.5q57 0 118 17t114 48t96 74t68 96h-41q-23 -45 -61 -82t-86 -63.5t-100 -41t-104 -14.5q-84 0 -149.5 29t-110.5 80t-66.5 119.5t-12.5 148.5h784l2 17q12 88 -6.5 166.5t-63.5 137t-114.5 92.5t-157.5 34 q-96 0 -183 -38t-154 -104.5t-106.5 -153.5t-39.5 -186zM199 430q14 80 54 147.5t98.5 119t131 80t150.5 28.5t139.5 -28.5t102 -80t59 -119t12.5 -147.5h-747zM547 1264l31 34l227 -211l-21 -18z" />
<glyph unicode="&#xe9;" horiz-adv-x="1026" d="M154 358q0 -80 26.5 -148.5t75.5 -118.5t118.5 -79.5t153.5 -29.5q57 0 118 17t114 48t96 74t68 96h-41q-23 -45 -61 -82t-86 -63.5t-100 -41t-104 -14.5q-84 0 -149.5 29t-110.5 80t-66.5 119.5t-12.5 148.5h784l2 17q12 88 -6.5 166.5t-63.5 137t-114.5 92.5t-157.5 34 q-96 0 -183 -38t-154 -104.5t-106.5 -153.5t-39.5 -186zM199 430q14 80 54 147.5t98.5 119t131 80t150.5 28.5t139.5 -28.5t102 -80t59 -119t12.5 -147.5h-747zM522 1087l285 211l22 -34l-294 -195z" />
<glyph unicode="&#xea;" horiz-adv-x="1026" d="M154 358q0 98 39.5 185.5t106.5 154t154 104.5t183 38q88 0 157.5 -34t114.5 -92.5t63.5 -137t6.5 -166.5l-2 -17h-784q-8 -80 13 -148.5t66 -119.5t111 -80t149 -29q51 0 103.5 14.5t100.5 41t86 63.5t61 82h41q-25 -53 -68 -96t-96 -74t-113.5 -48t-118.5 -17 q-84 0 -153.5 29.5t-118.5 79.5t-75.5 119t-26.5 148zM199 430h747q6 80 -12.5 147.5t-59 119t-102 80t-139.5 28.5t-150.5 -28.5t-131 -80t-98.5 -119t-54 -147.5zM428 1092l260 174l211 -174l-20 -21l-197 146l-242 -146z" />
<glyph unicode="&#xeb;" horiz-adv-x="1026" d="M154 358q0 98 39.5 185.5t106.5 154t154 104.5t183 38q88 0 157.5 -34t114.5 -92.5t63.5 -137t6.5 -166.5l-2 -17h-784q-8 -80 13 -148.5t66 -119.5t111 -80t149 -29q51 0 103.5 14.5t100.5 41t86 63.5t61 82h41q-25 -53 -68 -96t-96 -74t-113.5 -48t-118.5 -17 q-84 0 -153.5 29.5t-118.5 79.5t-75.5 119t-26.5 148zM199 430h747q6 80 -12.5 147.5t-59 119t-102 80t-139.5 28.5t-150.5 -28.5t-131 -80t-98.5 -119t-54 -147.5zM463 1116q0 20 15.5 35.5t35.5 15.5q16 0 27.5 -11t11.5 -28q0 -23 -16.5 -36t-36.5 -13q-16 0 -26.5 10.5 t-10.5 26.5zM784 1116q0 20 15.5 35.5t36.5 15.5q16 0 27 -11t11 -28q0 -23 -16 -36t-37 -13q-16 0 -26.5 10.5t-10.5 26.5z" />
<glyph unicode="&#xec;" horiz-adv-x="405" d="M184 0h37l115 819h-37zM240 1264l30 34l228 -211l-19 -18z" />
<glyph unicode="&#xed;" horiz-adv-x="405" d="M184 0h37l115 819h-37zM215 1087l285 211l22 -34l-293 -195z" />
<glyph unicode="&#xee;" horiz-adv-x="405" d="M121 1092l260 174l211 -174l-21 -21l-196 146l-242 -146zM184 0l115 819h37l-115 -819h-37z" />
<glyph unicode="&#xef;" horiz-adv-x="405" d="M156 1116q0 20 14 35.5t35 15.5q16 0 27.5 -11t11.5 -28q0 -23 -15.5 -36t-38.5 -13q-16 0 -25 10.5t-9 26.5zM184 0l115 819h37l-115 -819h-37zM477 1116q0 20 14.5 35.5t34.5 15.5q16 0 27.5 -11t11.5 -28q0 -23 -15 -36t-38 -13q-16 0 -25.5 10.5t-9.5 26.5z" />
<glyph unicode="&#xf0;" horiz-adv-x="1095" d="M156 369q0 106 42 193t110.5 149.5t156.5 96.5t180 34q78 0 141.5 -21.5t111.5 -55.5t82 -74t52 -75q2 152 -49 280t-143 226l-203 -108l-12 33l190 102q-59 53 -125.5 97t-146.5 77l20 27q158 -63 285 -185l178 99l12 -33l-166 -90q88 -94 138.5 -223.5t50.5 -278.5 q0 -131 -35 -250t-102.5 -210t-167 -144t-230.5 -53q-80 0 -147.5 29.5t-116.5 81.5t-77.5 123t-28.5 153zM193 369q0 -74 25.5 -138.5t69.5 -111.5t105.5 -75t134.5 -28q106 0 191.5 42t147 116t101.5 175.5t58 217.5q-20 39 -54 81t-82 78t-109.5 58.5t-139.5 22.5 q-84 0 -165 -32t-144.5 -89t-101 -138t-37.5 -179z" />
<glyph unicode="&#xf1;" horiz-adv-x="1038" d="M164 0l115 819h36l-20 -149q33 31 75 60.5t91 54t104.5 40t116.5 15.5q152 0 220.5 -95.5t45.5 -257.5l-69 -487h-37l69 487q20 147 -39 232.5t-196 85.5q-117 0 -215.5 -55.5t-171.5 -126.5l-88 -623h-37zM412 1118q23 37 62.5 62.5t82.5 25.5q31 0 61.5 -12t61.5 -25.5 t61.5 -26t61.5 -12.5q37 0 71.5 18.5t55.5 45.5l18 -10q-20 -37 -64 -64.5t-91 -27.5q-27 0 -59 12t-63.5 26.5t-64.5 26.5t-61 12q-35 0 -65.5 -17t-47.5 -44z" />
<glyph unicode="&#xf2;" horiz-adv-x="1040" d="M154 358q0 -80 26.5 -148.5t73.5 -118.5t114.5 -79.5t147.5 -29.5q96 0 183 37.5t154 103t106.5 154t39.5 186.5q0 78 -26.5 146.5t-73.5 119.5t-114.5 81t-147.5 30q-96 0 -183 -38t-154 -104.5t-106.5 -153.5t-39.5 -186zM190 360q0 92 36 173t97.5 141.5t141.5 95.5 t168 35q74 0 134 -26.5t103 -74t67 -110t24 -135.5q0 -92 -36 -172t-96.5 -140.5t-140.5 -95.5t-168 -35q-74 0 -134 26t-103 72t-68 109.5t-25 136.5zM555 1264l31 34l227 -211l-20 -18z" />
<glyph unicode="&#xf3;" horiz-adv-x="1040" d="M154 358q0 -80 26.5 -148.5t73.5 -118.5t114.5 -79.5t147.5 -29.5q96 0 183 37.5t154 103t106.5 154t39.5 186.5q0 78 -26.5 146.5t-73.5 119.5t-114.5 81t-147.5 30q-96 0 -183 -38t-154 -104.5t-106.5 -153.5t-39.5 -186zM190 360q0 92 36 173t97.5 141.5t141.5 95.5 t168 35q74 0 134 -26.5t103 -74t67 -110t24 -135.5q0 -92 -36 -172t-96.5 -140.5t-140.5 -95.5t-168 -35q-74 0 -134 26t-103 72t-68 109.5t-25 136.5zM530 1087l285 211l23 -34l-295 -195z" />
<glyph unicode="&#xf4;" horiz-adv-x="1040" d="M154 358q0 98 39.5 185.5t106.5 154t154 104.5t183 38q80 0 147.5 -30t114.5 -81t73.5 -119.5t26.5 -146.5q0 -98 -39.5 -186.5t-106.5 -154t-154 -103t-183 -37.5q-80 0 -147.5 29.5t-114.5 79.5t-73.5 119t-26.5 148zM190 360q0 -74 25 -137t68 -109t103 -72t134 -26 q88 0 168 35t140.5 95.5t96.5 140.5t36 172q0 74 -24 136t-67 109.5t-103 74t-134 26.5q-88 0 -168 -35t-141.5 -95.5t-97.5 -141t-36 -173.5zM436 1092l262 174l209 -174l-20 -21l-197 146l-241 -146z" />
<glyph unicode="&#xf5;" horiz-adv-x="1040" d="M154 358q0 98 39.5 185.5t106.5 154t154 104.5t183 38q80 0 147.5 -30t114.5 -81t73.5 -119.5t26.5 -146.5q0 -98 -39.5 -186.5t-106.5 -154t-154 -103t-183 -37.5q-80 0 -147.5 29.5t-114.5 79.5t-73.5 119t-26.5 148zM190 360q0 -74 25 -137t68 -109t103 -72t134 -26 q88 0 168 35t140.5 95.5t96.5 140.5t36 172q0 74 -24 136t-67 109.5t-103 74t-134 26.5q-88 0 -168 -35t-141.5 -95.5t-97.5 -141t-36 -173.5zM414 1118q23 37 61.5 62.5t81.5 25.5q31 0 61.5 -12t62.5 -25.5t62.5 -26t61.5 -12.5q37 0 70.5 18.5t54.5 45.5l16 -10 q-18 -37 -62 -64.5t-91 -27.5q-27 0 -57.5 12t-63.5 26.5t-65 26.5t-60 12q-35 0 -66.5 -17t-50.5 -44z" />
<glyph unicode="&#xf6;" horiz-adv-x="1040" d="M154 358q0 98 39.5 185.5t106.5 154t154 104.5t183 38q80 0 147.5 -30t114.5 -81t73.5 -119.5t26.5 -146.5q0 -98 -39.5 -186.5t-106.5 -154t-154 -103t-183 -37.5q-80 0 -147.5 29.5t-114.5 79.5t-73.5 119t-26.5 148zM190 360q0 -74 25 -137t68 -109t103 -72t134 -26 q88 0 168 35t140.5 95.5t96.5 140.5t36 172q0 74 -24 136t-67 109.5t-103 74t-134 26.5q-88 0 -168 -35t-141.5 -95.5t-97.5 -141t-36 -173.5zM471 1116q0 20 15.5 35.5t35.5 15.5q16 0 27.5 -11t11.5 -28q0 -23 -16.5 -36t-36.5 -13q-16 0 -26.5 10.5t-10.5 26.5zM793 1116 q0 20 15 35.5t36 15.5q16 0 27.5 -11t11.5 -28q0 -23 -16.5 -36t-37.5 -13q-16 0 -26 10.5t-10 26.5z" />
<glyph unicode="&#xf7;" d="M233 565l7 37h880l-6 -37h-881zM573 250q0 25 21.5 44t44.5 19t36 -14t13 -37q0 -25 -20.5 -44t-44.5 -19q-23 0 -36.5 14t-13.5 37zM664 905q0 25 21.5 44.5t45.5 19.5q23 0 36 -14.5t13 -36.5q0 -25 -20.5 -44.5t-44.5 -19.5q-23 0 -37 14t-14 37z" />
<glyph unicode="&#xf8;" horiz-adv-x="1040" d="M133 -184l166 231q-68 49 -106.5 131t-38.5 178q0 98 39.5 186.5t106.5 155t154 104.5t183 38q55 0 105.5 -14.5t91.5 -39.5l157 220l27 -21l-158 -219q66 -49 102.5 -130t36.5 -173q0 -98 -39.5 -186.5t-105.5 -154t-154 -103t-182 -37.5q-104 0 -190 45l-166 -232z M193 360q0 -88 33.5 -162.5t95.5 -119.5l487 678q-35 23 -80 36t-96 13q-88 0 -168 -35t-140.5 -95.5t-96 -141.5t-35.5 -173zM350 57q76 -41 170 -41q88 0 168 35t141.5 95.5t97.5 140.5t36 172q0 86 -32 158.5t-91 119.5z" />
<glyph unicode="&#xf9;" horiz-adv-x="1021" d="M205 322q-23 -162 44.5 -252t215.5 -90q59 0 112.5 15t101.5 39.5t89 54.5t74 61l-21 -150h37l115 819h-37l-88 -622q-74 -72 -169 -127.5t-208 -55.5q-135 0 -193.5 80t-35.5 228l69 497h-37zM545 1264l33 34l227 -211l-21 -18z" />
<glyph unicode="&#xfa;" horiz-adv-x="1021" d="M205 322q-23 -162 44.5 -252t215.5 -90q59 0 112.5 15t101.5 39.5t89 54.5t74 61l-21 -150h37l115 819h-37l-88 -622q-74 -72 -169 -127.5t-208 -55.5q-135 0 -193.5 80t-35.5 228l69 497h-37zM522 1087l285 211l20 -34l-292 -195z" />
<glyph unicode="&#xfb;" horiz-adv-x="1021" d="M205 322l69 497h37l-69 -497q-23 -147 35.5 -227.5t193.5 -80.5q113 0 208 55.5t169 127.5l88 622h37l-115 -819h-37l21 150q-33 -31 -74 -61t-89 -54.5t-101.5 -39.5t-112.5 -15q-147 0 -215 90t-45 252zM428 1092l260 174l211 -174l-18 -21l-199 146l-240 -146z" />
<glyph unicode="&#xfc;" horiz-adv-x="1021" d="M205 322l69 497h37l-69 -497q-23 -147 35.5 -227.5t193.5 -80.5q113 0 208 55.5t169 127.5l88 622h37l-115 -819h-37l21 150q-33 -31 -74 -61t-89 -54.5t-101.5 -39.5t-112.5 -15q-147 0 -215 90t-45 252zM461 1116q0 20 15.5 35.5t35.5 15.5q16 0 27.5 -11t11.5 -28 q0 -20 -15.5 -34.5t-35.5 -14.5q-16 0 -27.5 10.5t-11.5 26.5zM782 1116q0 20 15.5 35.5t36.5 15.5q16 0 27 -11t11 -28q0 -20 -14 -34.5t-37 -14.5q-16 0 -27.5 10.5t-11.5 26.5z" />
<glyph unicode="&#xfd;" horiz-adv-x="876" d="M113 -512h39l794 1331h-39l-467 -784l-241 784h-39l260 -819zM451 1087l284 211l21 -34l-293 -195z" />
<glyph unicode="&#xfe;" horiz-adv-x="1101" d="M90 -512l264 1880h37l-108 -782q63 113 177 183.5t245 70.5q80 0 145 -30t112.5 -81t73 -119.5t25.5 -146.5q0 -98 -39 -185.5t-104.5 -154t-152.5 -104t-183 -37.5q-131 0 -223.5 69.5t-125.5 181.5l-106 -745h-37zM256 418q-12 -86 8.5 -160t65.5 -127t111.5 -84 t146.5 -31q88 0 167 35t138 95.5t94 141.5t35 173q0 72 -23.5 135t-65.5 109.5t-101.5 73t-133.5 26.5q-80 0 -152.5 -30t-133 -81t-101.5 -122.5t-55 -153.5z" />
<glyph unicode="&#xff;" horiz-adv-x="876" d="M113 -512l307 512l-260 819h39l241 -784l467 784h39l-794 -1331h-39zM389 1116q0 20 15.5 35.5t35.5 15.5q16 0 27.5 -11t11.5 -28q0 -20 -15 -34.5t-36 -14.5q-16 0 -27.5 10.5t-11.5 26.5zM711 1116q0 20 15 35.5t36 15.5q16 0 27.5 -11t11.5 -28q0 -20 -15.5 -34.5 t-35.5 -14.5q-16 0 -27.5 10.5t-11.5 26.5z" />
<glyph unicode="&#x152;" horiz-adv-x="2586" d="M221 631q0 168 69.5 317.5t187.5 262t270.5 178t318.5 65.5q123 0 229.5 -38t188.5 -105.5t136 -160.5t75 -204l69 488h889l-6 -35h-852l-86 -604h795l-2 -35h-795l-102 -725h852l-7 -35h-888l69 485q-51 -111 -133 -203t-183.5 -158.5t-217 -104t-238.5 -37.5 q-139 0 -257 50t-203 138t-132 207t-47 254zM260 633q0 -131 45 -242.5t125 -194.5t190.5 -130.5t243.5 -47.5q160 0 305.5 61.5t256 167t177 248t66.5 306.5q0 131 -45 243.5t-126 195.5t-192.5 130t-242.5 47q-160 0 -305.5 -61.5t-256 -167t-176 -248.5t-65.5 -307z" />
<glyph unicode="&#x153;" horiz-adv-x="1824" d="M154 358q0 98 39.5 185.5t106.5 154t154 104.5t183 38q72 0 133 -22.5t107.5 -63.5t75 -97.5t38.5 -121.5q29 66 75 122t104.5 97t126 63.5t139.5 22.5q88 0 157.5 -34t114.5 -92.5t63.5 -137t6.5 -166.5l-2 -17h-785q-8 -80 13.5 -148.5t66.5 -119.5t110.5 -80 t149.5 -29q51 0 103.5 14.5t100.5 41t86 63.5t60 82h41q-25 -53 -67.5 -96t-96 -74t-114 -48t-117.5 -17q-154 0 -252 85t-119 218q-29 -66 -73.5 -122.5t-102 -96t-125 -62t-139.5 -22.5q-80 0 -147.5 29.5t-114.5 79.5t-73.5 119t-26.5 148zM190 360q0 -74 25 -137 t68 -109t103 -72t134 -26q88 0 168 35t140.5 95.5t96.5 140.5t36 172q0 74 -24 136t-67 109.5t-103 74t-134 26.5q-88 0 -168 -35t-141.5 -95.5t-97.5 -141t-36 -173.5zM997 430h748q6 80 -12.5 147.5t-59.5 119t-102 80t-139 28.5t-151 -28.5t-131 -80t-98 -119t-55 -147.5 z" />
<glyph unicode="&#x178;" horiz-adv-x="1146" d="M248 1434h41l377 -777h4l594 777h41l-625 -811l-88 -623h-37l88 623zM598 1620q0 16 14.5 31.5t34.5 15.5q16 0 27.5 -11t11.5 -28q0 -18 -14.5 -31.5t-34.5 -13.5q-16 0 -27.5 10.5t-11.5 26.5zM920 1620q0 16 14 31.5t35 15.5q16 0 27.5 -11t11.5 -28 q0 -18 -14.5 -31.5t-35.5 -13.5q-16 0 -27 10.5t-11 26.5z" />
<glyph unicode="&#x2c6;" horiz-adv-x="593" d="M215 1092l260 174l211 -174l-20 -21l-197 146l-242 -146z" />
<glyph unicode="&#x2dc;" horiz-adv-x="593" d="M190 1118q23 37 62 62.5t82 25.5q31 0 61.5 -12t62 -25.5t62.5 -26t62 -12.5q37 0 70.5 18.5t54.5 45.5l16 -10q-18 -37 -62.5 -64.5t-91.5 -27.5q-27 0 -57.5 12t-63 26.5t-64.5 26.5t-60 12q-35 0 -67 -17t-50 -44z" />
<glyph unicode="&#x2000;" horiz-adv-x="922" />
<glyph unicode="&#x2001;" horiz-adv-x="1845" />
<glyph unicode="&#x2002;" horiz-adv-x="922" />
<glyph unicode="&#x2003;" horiz-adv-x="1845" />
<glyph unicode="&#x2004;" horiz-adv-x="615" />
<glyph unicode="&#x2005;" horiz-adv-x="461" />
<glyph unicode="&#x2006;" horiz-adv-x="307" />
<glyph unicode="&#x2007;" horiz-adv-x="307" />
<glyph unicode="&#x2008;" horiz-adv-x="230" />
<glyph unicode="&#x2009;" horiz-adv-x="369" />
<glyph unicode="&#x200a;" horiz-adv-x="102" />
<glyph unicode="&#x2010;" horiz-adv-x="757" d="M190 612l7 37h544l-6 -37h-545z" />
<glyph unicode="&#x2011;" horiz-adv-x="757" d="M190 612l7 37h544l-6 -37h-545z" />
<glyph unicode="&#x2012;" horiz-adv-x="757" d="M190 612l7 37h544l-6 -37h-545z" />
<glyph unicode="&#x2013;" horiz-adv-x="798" d="M84 612l6 37h799l-6 -37h-799z" />
<glyph unicode="&#x2014;" horiz-adv-x="1576" d="M256 612l6 37h1233l-6 -37h-1233z" />
<glyph unicode="&#x2018;" horiz-adv-x="389" d="M272 1061l215 379l23 -8l-199 -388z" />
<glyph unicode="&#x2019;" horiz-adv-x="389" d="M229 1053l199 387l39 -17l-217 -379z" />
<glyph unicode="&#x201a;" horiz-adv-x="409" d="M41 -287l223 428l39 -16l-242 -420z" />
<glyph unicode="&#x201c;" horiz-adv-x="661" d="M272 1061l215 379l23 -8l-199 -388zM545 1061l215 379l22 -8l-198 -388z" />
<glyph unicode="&#x201d;" horiz-adv-x="661" d="M229 1053l199 387l39 -17l-217 -379zM502 1053l198 387l39 -17l-217 -379z" />
<glyph unicode="&#x201e;" horiz-adv-x="681" d="M41 -287l223 428l39 -16l-242 -420zM313 -287l224 428l38 -16l-241 -420z" />
<glyph unicode="&#x2022;" horiz-adv-x="792" d="M272 606q0 49 20.5 92t54.5 75t77 51.5t90 19.5q82 0 134 -55.5t52 -133.5q0 -49 -20.5 -91t-54 -74.5t-78.5 -51t-92 -18.5q-80 0 -131.5 54t-51.5 132z" />
<glyph unicode="&#x2026;" horiz-adv-x="1265" d="M160 33q0 25 20.5 44t44.5 19q23 0 36 -14t13 -37q0 -25 -20.5 -44t-44.5 -19q-23 0 -36 14t-13 37zM582 33q0 25 20.5 44t44.5 19q23 0 36 -14t13 -37q0 -25 -20.5 -44t-44.5 -19q-23 0 -36 14t-13 37zM1004 33q0 25 20 44t45 19q23 0 36 -14t13 -37q0 -25 -20.5 -44 t-44.5 -19q-23 0 -36 14t-13 37z" />
<glyph unicode="&#x202f;" horiz-adv-x="369" />
<glyph unicode="&#x2039;" horiz-adv-x="485" d="M164 580l323 323l19 -26l-297 -297l215 -299l-27 -23z" />
<glyph unicode="&#x203a;" horiz-adv-x="485" d="M143 281l299 299l-215 297l27 26l233 -323l-325 -322z" />
<glyph unicode="&#x205f;" horiz-adv-x="461" />
<glyph unicode="&#x20ac;" d="M178 565l15 37h120v27q0 76 12.5 123t20.5 79h-131l16 37h121q29 125 85.5 232.5t137 185.5t183 122t223.5 44q117 0 187.5 -39t109.5 -80l-4 -37q-53 47 -126 83t-171 36q-115 0 -211 -45t-172 -119.5t-127 -174t-78 -208.5h617l-19 -37h-606q-6 -25 -11 -55.5 t-10 -48.5q-4 -29 -8 -62.5t-4 -62.5h522l-16 -37h-506q-4 -135 24.5 -238.5t85 -172t137.5 -104.5t181 -36q102 0 186.5 39t147.5 82l-6 -39q-51 -41 -132 -77.5t-200 -36.5q-109 0 -196 34.5t-146 107.5t-91 182.5t-28 258.5h-133z" />
<glyph unicode="&#x2122;" horiz-adv-x="1548" d="M279 1403l4 31h495l-4 -31h-231l-97 -682h-32l96 682h-231zM834 721l100 713h33l202 -652l383 652h33l-100 -713h-33l92 637l-379 -637h-12l-195 637l-92 -637h-32z" />
<glyph unicode="&#x25fc;" horiz-adv-x="819" d="M0 0v819h819v-819h-819z" />
<glyph unicode="&#xfb03;" horiz-adv-x="1433" d="M156 784l6 35h170l26 199q23 154 95.5 241t210.5 87q45 0 75 -7l-6 -32q-12 2 -29.5 3t-44.5 1q-121 0 -183 -79t-81 -214l-26 -199h489l25 178q23 170 108.5 259.5t239.5 89.5q45 0 76 -7l-7 -32q-12 2 -29.5 3t-43.5 1q-135 0 -211 -81t-96 -233l-25 -178h471 l-117 -819h-37l111 784h-434l-111 -784h-37l111 784h-490l-110 -784h-37l111 784h-170z" />
<glyph unicode="&#xfb04;" horiz-adv-x="1558" d="M156 784l6 35h170l26 199q23 154 95.5 241t210.5 87q45 0 75 -7l-6 -32q-12 2 -29.5 3t-44.5 1q-121 0 -183 -79t-81 -214l-26 -199h489l21 150q23 168 122 268t293 100q53 0 104.5 -7t92.5 -17l-186 -1313h-37l182 1286q-66 16 -162 17q-174 0 -262 -86.5t-111 -247.5 l-20 -150h274l-6 -35h-274l-111 -784h-37l111 784h-490l-110 -784h-37l111 784h-170z" />
</font>
</defs>
</svg>
