<?xml version="1.0" standalone="no"?>
<!DOCTYPE svg PUBLIC "-//W3C//DTD SVG 1.1//EN" "http://www.w3.org/Graphics/SVG/1.1/DTD/svg11.dtd" >
<svg>
<metadata>
Created by FontForge 20090914 at Tue Jul 14 13:22:06 2015
 By www-data
Copyright &#194;&#169; 2013 by Stawix Ruecha. All rights reserved.
</metadata>
<defs>
<font id="SoinSansPro-Medium" horiz-adv-x="600" >
  <font-face 
    font-family="Soin Sans Pro Medium"
    font-weight="500"
    font-stretch="normal"
    units-per-em="1000"
    panose-1="2 0 0 0 0 0 0 0 0 0"
    ascent="750"
    descent="-250"
    x-height="400"
    cap-height="700"
    bbox="-55 -317.996 1137 940"
    underline-thickness="36"
    underline-position="-64"
    unicode-range="U+000D-U+FB02"
  />
<missing-glyph horiz-adv-x="500" 
d="M0 700h500v-700h-500v700zM420 650h-340l170 -255zM450 95v510l-170 -255zM420 50l-170 255l-170 -255h340zM50 95l170 255l-170 255v-510z" />
    <glyph glyph-name="fi" unicode="fi" horiz-adv-x="519" 
d="M352 310h-168.002v-310h-99v310h-72v90h72v66c0 28 4.33301 53.833 13 77.5s21.5 44 38.5 61s38 30.167 63 39.5s53.833 14 86.5 14c10.667 0 23.334 -0.5 38.001 -1.5s26 -2.16699 34 -3.5v-89c-8 1.33301 -17.667 2.33301 -29 3s-22.666 1 -33.999 1
c-38 0 -66 -8.5 -84 -25.5s-27 -42.167 -27 -75.5v-67h268v-400h-100v310z" />
    <glyph glyph-name="fl" unicode="fl" horiz-adv-x="547" 
d="M480 0l-100 0.000976562v561c-9.33301 1.33301 -21 2.66602 -35 3.99902s-28.667 2 -44 2c-40 0 -69.5 -8.66699 -88.5 -26s-28.5 -45 -28.5 -83v-58h114v-90h-114v-310h-99v310h-73v90h73v58c0 62.667 19 111.5 57 146.5s92.333 52.5 163 52.5
c33.333 0 65.5 -1.83301 96.5 -5.5s57.167 -8.16699 78.5 -13.5v-638z" />
    <glyph glyph-name="f_f_j" unicode="ffj" horiz-adv-x="819" 
d="M652 310l-173.004 -0.000976562v-310h-99v310h-196v-310h-99v310h-72v90h72v86c0 54 14 96 42 126s67.667 45 119 45c13.333 0 24.666 -0.333008 33.999 -1s18 -1.66699 26 -3v-90c-7.33301 1.33301 -15.166 2.33301 -23.499 3s-17.166 1 -26.499 1
c-27.333 0 -46.166 -7.33301 -56.499 -22s-15.5 -35.667 -15.5 -63v-82h196v66c0 28 4.33301 53.833 13 77.5s21.5 44 38.5 61s38 30.167 63 39.5s53.833 14 86.5 14c10.667 0 23.334 -0.5 38.001 -1.5s26 -2.16699 34 -3.5v-89c-8 1.33301 -17.667 2.33301 -29 3
s-22.666 1 -33.999 1c-38 0 -66 -8.5 -84 -25.5s-27 -42.167 -27 -75.5v-67h272v-486c0 -57.333 -12.833 -100.666 -38.5 -129.999s-65.167 -44 -118.5 -44c-18.667 0 -37 2 -55 6v88l23.5 -3.5c7 -1 14.5 -1.5 22.5 -1.5c23.333 0 40.333 7 51 21s16 35 16 63v397z" />
    <glyph glyph-name="f_f_i" unicode="ffi" horiz-adv-x="819" 
d="M380 466c0 28 4.3291 53.833 12.9961 77.5s21.5 44 38.5 61s38 30.167 63 39.5s53.833 14 86.5 14c10.667 0 23.334 -0.5 38.001 -1.5s26 -2.16699 34 -3.5v-89c-8 1.33301 -17.667 2.33301 -29 3s-22.666 1 -33.999 1c-38 0 -66 -8.5 -84 -25.5s-27 -42.167 -27 -75.5
v-67h272v-400h-99v310h-173v-310h-99v310h-196v-310h-99v310h-72v90h72v86c0 54 14 96 42 126s67.667 45 119 45c13.333 0 24.666 -0.333008 33.999 -1s18 -1.66699 26 -3v-90c-7.33301 1.33301 -15.166 2.33301 -23.499 3s-17.166 1 -26.499 1
c-27.333 0 -46.166 -7.33301 -56.499 -22s-15.5 -35.667 -15.5 -63v-82h196v66z" />
    <glyph glyph-name="f_f_l" unicode="ffl" horiz-adv-x="842" 
d="M380 459c0 62 18.998 110.501 56.998 145.501s92.333 52.5 163 52.5c33.333 0 65.5 -1.83301 96.5 -5.5s57.167 -7.83398 78.5 -12.501v-639h-99v561c-9.33301 1.33301 -21 2.66602 -35 3.99902s-28.667 2 -44 2c-40 0 -69.667 -8.66699 -89 -26s-29 -44.666 -29 -81.999
v-59h115v-90h-115v-310h-99v310h-196v-310h-99v310h-72v90h72v86c0 54 14 96 42 126s67.667 45 119 45c13.333 0 24.666 -0.333008 33.999 -1s18 -1.66699 26 -3v-90c-7.33301 1.33301 -15.166 2.33301 -23.499 3s-17.166 1 -26.499 1
c-27.333 0 -46.166 -7.33301 -56.499 -22s-15.5 -35.667 -15.5 -63v-82h196v59z" />
    <glyph glyph-name="f_f_b" unicode="ffb" horiz-adv-x="1130" 
d="M380 458c0 62.667 18.833 111.502 56.5 146.502s92.167 52.5 163.5 52.5c33.333 0 65.333 -1.83301 96 -5.5s56.667 -8.16699 78 -13.5v-292c11.333 16.667 28.333 31.5 51 44.5s50.334 19.5 83.001 19.5c26.667 0 51.167 -5.33301 73.5 -16s41.666 -25.5 57.999 -44.5
s29 -41.167 38 -66.5s13.5 -53 13.5 -83c0 -33.333 -5 -62.833 -15 -88.5s-23.5 -47.5 -40.5 -65.5s-37 -31.667 -60 -41s-47.5 -14 -73.5 -14c-28 0 -53.5 6.16699 -76.5 18.5s-40.167 28.166 -51.5 47.499l-7 -57h-92v561c-9.33301 1.33301 -21 2.66602 -35 3.99902
s-28.667 2 -44 2c-40 0 -69.5 -8.66699 -88.5 -26s-28.5 -45 -28.5 -83v-58h114v-90h-114v-310h-99v310h-196v-310h-99v310h-73v90h73v85c0 54 13.833 96.167 41.5 126.5s67.5 45.5 119.5 45.5c13.333 0 24.666 -0.5 33.999 -1.5s18 -2.16699 26 -3.5v-89
c-8 1.33301 -16 2.33301 -24 3s-16.667 1 -26 1c-27.333 0 -46.166 -7.33301 -56.499 -22s-15.5 -35.667 -15.5 -63v-82h196v58zM886 78.002c32.667 0 58.667 11.333 78 34s29 52 29 88c0 35.333 -9.83301 64.333 -29.5 87s-45.5 34 -77.5 34
c-33.333 0 -60.666 -11.167 -81.999 -33.5s-32 -51.5 -32 -87.5s10.667 -65.333 32 -88s48.666 -34 81.999 -34z" />
    <glyph glyph-name="f_f_h" unicode="ffh" horiz-adv-x="1131" 
d="M380 459c0 62 18.998 110.501 56.998 145.501s92.333 52.5 163 52.5c33.333 0 65.5 -1.83301 96.5 -5.5s57.167 -7.83398 78.5 -12.501v-287c13.333 14 31.333 27.167 54 39.5s51.334 18.5 86.001 18.5c22.667 0 43.667 -3.83301 63 -11.5s36 -18.5 50 -32.5
s25 -31.167 33 -51.5s12 -43.166 12 -68.499v-246h-99v225c0 30.667 -7.16699 54.167 -21.5 70.5s-35.5 24.5 -63.5 24.5s-51.333 -6.83301 -70 -20.5s-33.334 -28.834 -44.001 -45.501v-254h-99v561c-9.33301 1.33301 -21 2.66602 -35 3.99902s-28.667 2 -44 2
c-40 0 -69.667 -8.66699 -89 -26s-29 -44.666 -29 -81.999v-59h115v-90h-115v-310h-99v310h-196v-310h-99v310h-72v90h72v86c0 54 14 96 42 126s67.667 45 119 45c13.333 0 24.666 -0.333008 33.999 -1s18 -1.66699 26 -3v-90c-7.33301 1.33301 -15.166 2.33301 -23.499 3
s-17.166 1 -26.499 1c-27.333 0 -46.166 -7.33301 -56.499 -22s-15.5 -35.667 -15.5 -63v-82h196v59z" />
    <glyph glyph-name="f_f_k" unicode="ffk" horiz-adv-x="1061" 
d="M380 458c0 62.667 18.833 111.501 56.5 146.501s92.167 52.5 163.5 52.5c33.333 0 65.333 -1.83301 96 -5.5s56.667 -8.16699 78 -13.5v-374l152 136h124l-188 -168l195 -232h-113l-148 180l-22 -22v-158h-99v561c-9.33301 1.33301 -21 2.66602 -35 3.99902
s-28.667 2 -44 2c-40 0 -69.5 -8.66699 -88.5 -26s-28.5 -45 -28.5 -83v-58h114v-90h-114v-310h-99v310h-196v-310h-99v310h-73v90h73v85c0 54 13.833 96.167 41.5 126.5s67.5 45.5 119.5 45.5c13.333 0 24.666 -0.5 33.999 -1.5s18 -2.16699 26 -3.5v-89
c-8 1.33301 -16 2.33301 -24 3s-16.667 1 -26 1c-27.333 0 -46.166 -7.33301 -56.499 -22s-15.5 -35.667 -15.5 -63v-82h196v58z" />
    <glyph glyph-name="f_j" unicode="fj" horiz-adv-x="519" 
d="M352 310l-168.001 -0.000976562v-310h-99v310h-72v90h72v66c0 28 4.33301 53.833 13 77.5s21.5 44 38.5 61s38 30.167 63 39.5s53.833 14 86.5 14c10.667 0 23.334 -0.5 38.001 -1.5s26 -2.16699 34 -3.5v-89c-8 1.33301 -17.667 2.33301 -29 3s-22.666 1 -33.999 1
c-38 0 -66 -8.5 -84 -25.5s-27 -42.167 -27 -75.5v-67h268v-486c0 -57.333 -12.833 -100.666 -38.5 -129.999s-65.167 -44 -118.5 -44c-18.667 0 -37 2 -55 6v88c8 -1.33301 15.667 -2.5 23 -3.5s15 -1.5 23 -1.5c23.333 0 40.166 7 50.499 21s15.5 35 15.5 63v397z" />
    <glyph glyph-name="f_t" unicode="ft" horiz-adv-x="629" 
d="M184 400l199.999 0.000976562l17 142h80v-142h119v-90h-119v-169c0 -24 5.16699 -40 15.5 -48s26.166 -12 47.499 -12c19.333 0 39 2 59 6v-85c-13.333 -4 -26.666 -6.83301 -39.999 -8.5s-27 -2.5 -41 -2.5c-18.667 0 -36.5 2.16699 -53.5 6.5
s-31.833 11.833 -44.5 22.5s-22.834 24.667 -30.501 42s-11.5 38.666 -11.5 63.999v184h-198v-310h-99v310h-72v90h72v86c0 54 14 96 42 126s67.667 45 119 45c13.333 0 24.666 -0.333008 33.999 -1s18 -1.66699 26 -3v-90c-7.33301 1.33301 -15.166 2.33301 -23.499 3
s-17.166 1 -26.499 1c-27.333 0 -46.166 -7.33301 -56.499 -22s-15.5 -35.667 -15.5 -63v-82z" />
    <glyph glyph-name="t_t" unicode="tt" horiz-adv-x="643" 
d="M186 141c0 -24 5.17383 -39.998 15.5068 -47.998s25.833 -12 46.5 -12c20 0 40 2 60 6v-85c-14 -4 -27.5 -6.83301 -40.5 -8.5s-26.833 -2.5 -41.5 -2.5c-18.667 0 -36.334 2.16699 -53.001 6.5s-31.334 11.833 -44.001 22.5s-22.834 24.667 -30.501 42
s-11.5 38.666 -11.5 63.999v184h-78v90h80l16 142h81v-142h213l17 142h80v-142h119v-90h-119v-169c0 -24 5.16699 -40 15.5 -48s26.166 -12 47.499 -12c19.333 0 39 2 59 6v-85c-14 -4 -27.5 -6.83301 -40.5 -8.5s-26.833 -2.5 -41.5 -2.5
c-18.667 0 -36.334 2.16699 -53.001 6.5s-31.334 11.833 -44.001 22.5s-22.834 24.667 -30.501 42s-11.5 38.666 -11.5 63.999v184h-211v-169z" />
    <glyph glyph-name="f_f" unicode="ff" horiz-adv-x="614" 
d="M184 0h-98.998v310h-73v90h73v85c0 54 13.833 96.167 41.5 126.5s67.5 45.5 119.5 45.5c13.333 0 24.666 -0.5 33.999 -1.5s18 -2.16699 26 -3.5v-89c-8 1.33301 -16 2.33301 -24 3s-16.667 1 -26 1c-26.667 0 -45.334 -7.83301 -56.001 -23.5s-16 -36.167 -16 -61.5v-82
h196v88c0 56.667 15.167 99 45.5 127s74.5 42 132.5 42c11.333 0 22.5 -0.5 33.5 -1.5s20.5 -2.16699 28.5 -3.5v-89c-8 1.33301 -16.833 2.33301 -26.5 3s-19.167 1 -28.5 1c-30.667 0 -52.667 -6.66699 -66 -20s-20 -35 -20 -65v-82h114v-90h-114v-310h-99v310h-196v-310z
" />
    <glyph glyph-name="f_b" unicode="fb" horiz-adv-x="835" 
d="M591 78c33.333 0 59.5 11.333 78.5 34s28.5 52 28.5 88c0 35.333 -9.83301 64.333 -29.5 87s-45.5 34 -77.5 34c-33.333 0 -60.5 -11.167 -81.5 -33.5s-31.5 -51.5 -31.5 -87.5s10.5 -65.333 31.5 -88s48.167 -34 81.5 -34zM480 346
c11.333 16.667 28.168 31.502 50.501 44.502s49.833 19.5 82.5 19.5c26.667 0 51.167 -5.33301 73.5 -16s41.666 -25.5 57.999 -44.5s29 -41.167 38 -66.5s13.5 -53 13.5 -83c0 -33.333 -5 -62.833 -15 -88.5s-23.5 -47.5 -40.5 -65.5s-37 -31.667 -60 -41
s-47.5 -14 -73.5 -14c-28 0 -53.5 6.16699 -76.5 18.5s-39.833 28.166 -50.5 47.499l-8 -57h-92v561c-9.33301 1.33301 -21 2.66602 -35 3.99902s-28.667 2 -44 2c-40 0 -69.5 -8.66699 -88.5 -26s-28.5 -45 -28.5 -83v-58h114v-90h-114v-310h-99v310h-73v90h73v58
c0 62.667 19 111.5 57 146.5s92.333 52.5 163 52.5c33.333 0 65.5 -1.83301 96.5 -5.5s57.167 -8.16699 78.5 -13.5v-292z" />
    <glyph glyph-name="f_h" unicode="fh" horiz-adv-x="836" 
d="M480 352c13.333 14 31.332 27.168 53.999 39.501s51.334 18.5 86.001 18.5c22.667 0 43.667 -3.83301 63 -11.5s36 -18.5 50 -32.5s25 -31.167 33 -51.5s12 -43.166 12 -68.499v-246h-99v225c0 30.667 -7.16699 54.167 -21.5 70.5s-35.5 24.5 -63.5 24.5
c-27.333 0 -50.5 -6.83301 -69.5 -20.5s-33.833 -28.834 -44.5 -45.501v-254h-99v561c-9.33301 1.33301 -21 2.66602 -35 3.99902s-28.667 2 -44 2c-40 0 -69.667 -8.66699 -89 -26s-29 -44.666 -29 -81.999v-59h115v-90h-115v-310h-99v310h-72v90h72v59
c0 62 19 110.5 57 145.5s92.333 52.5 163 52.5c33.333 0 65.5 -1.83301 96.5 -5.5s57.167 -7.83398 78.5 -12.501v-287z" />
    <glyph glyph-name="f_k" unicode="fk" horiz-adv-x="766" 
d="M480 264l75.5 67.501l75.5 68.5h124l-188 -168l195 -232h-113l-148 180l-21 -22v-158h-100v561c-9.33301 1.33301 -21 2.66602 -35 3.99902s-28.667 2 -44 2c-40 0 -69.5 -8.66699 -88.5 -26s-28.5 -45 -28.5 -83v-58h114v-90h-114v-310h-99v310h-73v90h73v58
c0 62.667 19 111.5 57 146.5s92.333 52.5 163 52.5c33.333 0 65.5 -1.83301 96.5 -5.5s57.167 -8.16699 78.5 -13.5v-374z" />
    <glyph glyph-name=".notdef" horiz-adv-x="500" 
d="M0 700h500v-700h-500v700zM420 650h-340l170 -255zM450 95v510l-170 -255zM420 50l-170 255l-170 -255h340zM50 95l170 255l-170 255v-510z" />
    <glyph glyph-name="NULL" horiz-adv-x="0" 
 />
    <glyph glyph-name="NULL" horiz-adv-x="0" 
 />
    <glyph glyph-name="nonmarkingreturn" unicode="&#xd;" horiz-adv-x="229" 
 />
    <glyph glyph-name="space" unicode=" " horiz-adv-x="221" 
 />
    <glyph glyph-name="exclam" unicode="!" horiz-adv-x="292" 
d="M194 206h-94l-5 494h104zM78 58c0 18.667 6.66699 34.667 20 48s29.333 20 48 20c19.333 0 35.5 -6.66699 48.5 -20s19.5 -29.333 19.5 -48c0 -19.333 -6.5 -35.5 -19.5 -48.5s-29.167 -19.5 -48.5 -19.5c-18.667 0 -34.667 6.5 -48 19.5s-20 29.167 -20 48.5z" />
    <glyph glyph-name="quotedbl" unicode="&#x22;" horiz-adv-x="329" 
d="M134 700l-11 -240h-77l-9 240h97zM292 700l-12 -240h-76l-9 240h97z" />
    <glyph glyph-name="numbersign" unicode="#" 
d="M65 499h94.001l26 201h99l-26 -201h120l27 201h98l-27 -201h75v-80h-85l-16 -126h84v-80h-94l-27 -213h-98l27 213h-121l-27 -213h-99c5.33301 36 10.166 71.5 14.499 106.5l13.5 106.5h-76v80h86l16 126h-84v80zM229.001 293h126l16 126h-126z" />
    <glyph glyph-name="dollar" unicode="$" 
d="M343 706c24 -4 46.8311 -11.1631 68.498 -21.4961s41 -23.333 58 -39s31.5 -33.834 43.5 -54.501s20.333 -43.667 25 -69h-109c-4.66699 19.333 -14.667 36.166 -30 50.499s-34 24.166 -56 29.499v-206c30 -11.333 57.167 -23 81.5 -35s45.333 -25.667 63 -41
s31.334 -33.333 41.001 -54s14.5 -45 14.5 -73c0 -29.333 -5.33301 -55.5 -16 -78.5s-25.167 -42.833 -43.5 -59.5s-39.666 -30.167 -63.999 -40.5s-49.833 -17.166 -76.5 -20.499v-94h-82v94c-58.667 6 -107.167 25.167 -145.5 57.5s-62.166 75.166 -71.499 128.499h109
c5.33301 -24 17.166 -43.333 35.499 -58s42.5 -24.334 72.5 -29.001v225c-29.333 10 -56.5 20.5 -81.5 31.5s-46.5 24.167 -64.5 39.5s-32 33.5 -42 54.5s-15 47.167 -15 78.5c0 21.333 4.16699 42.5 12.5 63.5s20.833 40 37.5 57s37.667 31.333 63 43
s55.333 19.167 90 22.5v92h82v-94zM164.998 523.004c0 -26.667 8.83203 -46.833 26.499 -60.5s40.834 -26.167 69.501 -37.5v183c-32 -4 -56 -14.5 -72 -31.5s-24 -34.833 -24 -53.5zM434.997 187.005c0 24.667 -8.33301 44.5 -25 59.5s-39 28.5 -67 40.5v-193
c24.667 4.66699 46.167 14.667 64.5 30s27.5 36.333 27.5 63z" />
    <glyph glyph-name="percent" unicode="%" horiz-adv-x="750" 
d="M34 553c0 22.667 3.66699 43.667 11 63s17.666 36 30.999 50s29.333 25 48 33s39.667 12 63 12s44.333 -4 63 -12s34.5 -19 47.5 -33s23 -30.667 30 -50s10.5 -40.333 10.5 -63s-3.5 -43.667 -10.5 -63s-17 -36 -30 -50s-28.833 -25 -47.5 -33s-39.667 -12 -63 -12
s-44.333 4 -63 12s-34.667 19 -48 33s-23.666 30.667 -30.999 50s-11 40.333 -11 63zM253 553c0 22 -5.66699 40.667 -17 56s-27.666 23 -48.999 23s-37.833 -7.66699 -49.5 -23s-17.5 -34 -17.5 -56c0 -22.667 5.83301 -41.667 17.5 -57s28.167 -23 49.5 -23
s37.666 7.66699 48.999 23s17 34.333 17 57zM206 -31l-78 45l407 702l78 -44zM412 147c0 22.667 3.5 43.667 10.5 63s17.167 36 30.5 50s29.333 25 48 33s39.667 12 63 12s44.333 -4 63 -12s34.667 -19 48 -33s23.5 -30.667 30.5 -50s10.5 -40.333 10.5 -63
s-3.5 -43.667 -10.5 -63s-17.167 -36 -30.5 -50s-29.333 -25 -48 -33s-39.667 -12 -63 -12s-44.333 4 -63 12s-34.667 19 -48 33s-23.5 30.667 -30.5 50s-10.5 40.333 -10.5 63zM631 147c0 22 -5.83301 40.667 -17.5 56s-28.167 23 -49.5 23s-37.833 -7.66699 -49.5 -23
s-17.5 -34 -17.5 -56c0 -22.667 5.83301 -41.667 17.5 -57s28.167 -23 49.5 -23s37.833 7.66699 49.5 23s17.5 34.333 17.5 57z" />
    <glyph glyph-name="ampersand" unicode="&#x26;" horiz-adv-x="652" 
d="M43 187c0 22.667 3.33691 43.3301 10.0039 61.9971s15.5 35.834 26.5 51.501s24 29.834 39 42.501s30.5 24.667 46.5 36c-10 10 -19.667 21.167 -29 33.5s-17.833 25.5 -25.5 39.5s-13.834 28.833 -18.501 44.5s-7 32.5 -7 50.5c0 16.667 3.16699 34.5 9.5 53.5
s16.666 36.667 30.999 53s33.333 29.833 57 40.5s53.167 16 88.5 16c30 0 56.167 -4.66699 78.5 -14s40.833 -21.833 55.5 -37.5s25.667 -33.667 33 -54s11 -41.166 11 -62.499c0 -22 -4 -41.667 -12 -59s-18.5 -33.166 -31.5 -47.499s-27.833 -27.666 -44.5 -39.999
s-33.667 -23.833 -51 -34.5l148 -158c9.33301 15.333 16.833 32.666 22.5 51.999s8.5 40.666 8.5 63.999v81h102v-81c0 -36.667 -5.83301 -71.5 -17.5 -104.5s-26.834 -62.5 -45.501 -88.5l116 -126h-126l-51 54c-23.333 -20 -50.5 -35.5 -81.5 -46.5
s-66.5 -16.5 -106.5 -16.5c-34.667 0 -66.5 5.33301 -95.5 16s-53.833 25 -74.5 43s-36.834 38.833 -48.501 62.5s-17.5 48.5 -17.5 74.5zM279.004 81.9961c25.333 0 47.8311 4 67.498 12s36.834 19 51.501 33l-168 182c-23.333 -15.333 -43.166 -32.666 -59.499 -51.999
s-24.5 -42.666 -24.5 -69.999c0 -14.667 3.66699 -28.334 11 -41.001s17 -23.834 29 -33.501s26 -17.167 42 -22.5s33 -8 51 -8zM248.002 430.996l36.002 24c12 8 22.667 16.5 32 25.5s16.833 18.5 22.5 28.5s8.5 20.667 8.5 32c0 18.667 -6.16699 36 -18.5 52
s-31.5 24 -57.5 24c-14 0 -26.333 -2.16699 -37 -6.5s-19.334 -10 -26.001 -17s-11.667 -14.667 -15 -23s-5 -16.166 -5 -23.499c0 -20.667 5.16699 -40.334 15.5 -59.001s25.166 -37.667 44.499 -57z" />
    <glyph glyph-name="quotesingle" unicode="'" horiz-adv-x="171" 
d="M134 700l-11 -240h-77l-9 240h97z" />
    <glyph glyph-name="parenleft" unicode="(" horiz-adv-x="308" 
d="M71 224c0 96 12 187.334 36 274.001s55.333 165.667 94 237l83 -47c-16.667 -34 -32 -68.167 -46 -102.5s-26 -70.166 -36 -107.499s-17.833 -76.833 -23.5 -118.5s-8.5 -86.834 -8.5 -135.501s2.83301 -93.834 8.5 -135.501s13.5 -81 23.5 -118s22 -72.667 36 -107
s29.333 -68.5 46 -102.5l-83 -49c-38.667 72 -70 151.5 -94 238.5s-36 178.167 -36 273.5z" />
    <glyph glyph-name="parenright" unicode=")" horiz-adv-x="308" 
d="M237 224c0 -95.333 -12.167 -186.501 -36.5 -273.501s-55.5 -166.5 -93.5 -238.5l-83 49c16.667 34 31.834 68.167 45.501 102.5s25.5 70 35.5 107s17.833 76.333 23.5 118s8.5 86.834 8.5 135.501s-2.83301 93.834 -8.5 135.501s-13.5 81.167 -23.5 118.5
s-21.833 73.166 -35.5 107.499s-28.834 68.5 -45.501 102.5l83 47c38 -71.333 69.167 -150.333 93.5 -237s36.5 -178 36.5 -274z" />
    <glyph glyph-name="asterisk" unicode="*" horiz-adv-x="410" 
d="M166 700h79l-5 -124l116 43l25 -75l-118 -37l17 -22l22.5 -29l21.5 -28l14 -18l-63 -46l-70 103l-70 -102l-63 45l75 97l-118 37l26 75l115 -43z" />
    <glyph glyph-name="plus" unicode="+" 
d="M349 516v-186h183v-91h-183v-186h-98v186h-183v91h183v186h98z" />
    <glyph glyph-name="comma" unicode="," horiz-adv-x="238" 
d="M187 97l-82 -262l-74 24l52 264z" />
    <glyph glyph-name="hyphen" unicode="-" horiz-adv-x="397" 
d="M37 359h323v-91h-323v91z" />
    <glyph glyph-name="period" unicode="." horiz-adv-x="238" 
d="M51 58c0 18.667 6.5 34.667 19.5 48s29.167 20 48.5 20c18.667 0 34.667 -6.66699 48 -20s20 -29.333 20 -48c0 -19.333 -6.66699 -35.5 -20 -48.5s-29.333 -19.5 -48 -19.5c-19.333 0 -35.5 6.5 -48.5 19.5s-19.5 29.167 -19.5 48.5z" />
    <glyph glyph-name="slash" unicode="/" horiz-adv-x="578" 
d="M74 -123l-87 51l515 892l89 -47z" />
    <glyph glyph-name="zero" unicode="0" horiz-adv-x="636" 
d="M318 -8c-38 0 -73.5 8.33301 -106.5 25s-61.5 40.5 -85.5 71.5s-42.833 68.667 -56.5 113s-20.5 93.833 -20.5 148.5s6.83301 104 20.5 148s32.5 81.5 56.5 112.5s52.5 55 85.5 72s68.5 25.5 106.5 25.5s73.333 -8.5 106 -25.5s61 -41 85 -72s42.833 -68.5 56.5 -112.5
s20.5 -93.333 20.5 -148s-6.83301 -104.167 -20.5 -148.5s-32.5 -82 -56.5 -113s-52.333 -54.833 -85 -71.5s-68 -25 -106 -25zM318 91c22 0 42.667 6 62 18s36.166 29.167 50.499 51.5s25.666 49.5 33.999 81.5s12.5 68 12.5 108c0 39.333 -4.16699 74.833 -12.5 106.5
s-19.666 58.667 -33.999 81s-31.166 39.5 -50.499 51.5s-40 18 -62 18s-42.833 -6 -62.5 -18s-36.667 -29.167 -51 -51.5s-25.666 -49.333 -33.999 -81s-12.5 -67.167 -12.5 -106.5c0 -40 4.16699 -76 12.5 -108s19.666 -59.167 33.999 -81.5s31.333 -39.5 51 -51.5
s40.5 -18 62.5 -18z" />
    <glyph glyph-name="one" unicode="1" horiz-adv-x="397" 
d="M195 564l-137 -85l-49 88l233 144h62v-711h-109v564z" />
    <glyph glyph-name="two" unicode="2" horiz-adv-x="557" 
d="M514 100v-100.002h-477v45l252 279l30.5 34c11.667 13.333 22.834 27.5 33.501 42.5s19.667 30.833 27 47.5s11 33 11 49c0 30.667 -10 56.834 -30 78.501s-46.667 32.5 -80 32.5c-38 0 -68.167 -11.333 -90.5 -34s-33.5 -54 -33.5 -94v-10h-106
c-0.666992 2.66699 -1 5.33398 -1 8.00098v8c0 30.667 5.33301 59.5 16 86.5s25.667 50.667 45 71s43 36.333 71 48s59.333 17.5 94 17.5s65.834 -5.66699 93.501 -17s51.167 -26.666 70.5 -45.999s34.333 -42.5 45 -69.5s16 -55.833 16 -86.5
c0 -24 -4.33301 -46.833 -13 -68.5s-19.834 -42.334 -33.501 -62.001s-28.334 -38 -44.001 -55l-44.5 -48.5l-143 -156h291z" />
    <glyph glyph-name="three" unicode="3" horiz-adv-x="566" 
d="M260 409c43.333 1.33301 75 11.002 95 29.002s30 43.667 30 77c0 26 -10 48 -30 66s-46 27 -78 27c-33.333 0 -61 -8.83301 -83 -26.5s-33.333 -44.834 -34 -81.501h-109c0.666992 31.333 6.66699 59.833 18 85.5s27 47.667 47 66s43.667 32.5 71 42.5s57 15 89 15
c34.667 0 65.5 -5 92.5 -15s50 -23.5 69 -40.5s33.5 -36.833 43.5 -59.5s15 -46.667 15 -72c0 -40.667 -9.5 -73.834 -28.5 -99.501s-43.167 -44.5 -72.5 -56.5c32 -9.33301 59.5 -28.5 82.5 -57.5s34.5 -66.5 34.5 -112.5c0 -27.333 -5.5 -53.333 -16.5 -78
s-26.667 -46.5 -47 -65.5s-45.166 -34 -74.499 -45s-62.333 -16.5 -99 -16.5c-30.667 0 -60.667 4.83301 -90 14.5s-55.333 23.667 -78 42s-40.834 41 -54.501 68s-20.5 57.5 -20.5 91.5h107c0.666992 -19.333 4.83398 -36.166 12.501 -50.499s17.667 -26.333 30 -36
s26.5 -16.834 42.5 -21.501s32.667 -7 50 -7c19.333 0 36.833 3 52.5 9s29 14 40 24s19.5 21.667 25.5 35s9 27.333 9 42c0 38 -12.333 66.333 -37 85s-59.334 29 -104.001 31v91z" />
    <glyph glyph-name="four" unicode="4" horiz-adv-x="559" 
d="M540 219v-98h-89v-121h-108v121h-330v61l366 530h72v-493h89zM343 499l-188 -280h188v280z" />
    <glyph glyph-name="five" unicode="5" horiz-adv-x="562" 
d="M522 229c0 -34 -5.83008 -65.5 -17.4971 -94.5s-28.167 -54.167 -49.5 -75.5s-47 -38 -77 -50s-63.667 -18 -101 -18c-30.667 0 -60.5 4.83301 -89.5 14.5s-54.833 23.667 -77.5 42s-40.667 41 -54 68s-20 57.5 -20 91.5h107c3.33301 -38 17.666 -66.667 42.999 -86
s55.666 -29 90.999 -29c42 0 75 12.333 99 37s36 58.334 36 101.001c0 18 -2.5 34.833 -7.5 50.5s-13.167 29.5 -24.5 41.5s-25.833 21.5 -43.5 28.5s-38.834 10.5 -63.501 10.5h-209l15 339h392v-101h-289l-7 -138h98c42 0 78.667 -5.5 110 -16.5s57.333 -26.667 78 -47
s36 -44.833 46 -73.5s15 -60.334 15 -95.001z" />
    <glyph glyph-name="six" unicode="6" horiz-adv-x="575" 
d="M414 539c-5.33301 21.333 -17 38.5039 -35 51.5039s-39.333 19.5 -64 19.5c-30 0 -55.167 -7.66699 -75.5 -23s-36.833 -34.5 -49.5 -57.5s-22 -48.333 -28 -76s-9.33301 -53.834 -10 -78.501c15.333 30.667 37.666 55 66.999 73s64.333 27 105 27
c30.667 0 59.334 -6 86.001 -18s49.667 -28.667 69 -50s34.5 -46.833 45.5 -76.5s16.5 -61.834 16.5 -96.501s-5.33301 -66.834 -16 -96.501s-26.167 -55.334 -46.5 -77.001s-45 -38.667 -74 -51s-61.833 -18.5 -98.5 -18.5c-34.667 0 -67.5 6.5 -98.5 19.5
s-58.333 33.833 -82 62.5s-42.334 66 -56.001 112s-20.5 102 -20.5 168c0 22 1.66699 46.167 5 72.5s8.83301 52.666 16.5 78.999s18 51.833 31 76.5s29.333 46.5 49 65.5s42.834 34.167 69.501 45.5s57.667 17 93 17c26 0 50.833 -3.66699 74.5 -11s45 -18.166 64 -32.499
s34.667 -32 47 -53s20.5 -45.5 24.5 -73.5h-109zM308 86.0039c40 0 71.002 13.832 93.002 41.499s33 63.834 33 108.501c0 20.667 -3 39.667 -9 57s-14.5 32.5 -25.5 45.5s-24 23.167 -39 30.5s-31.167 11 -48.5 11c-19.333 0 -37.333 -3.66699 -54 -11
s-31.334 -17.5 -44.001 -30.5s-22.5 -28.5 -29.5 -46.5s-10.5 -37.667 -10.5 -59s3.33301 -41 10 -59s16 -33.5 28 -46.5s26.167 -23.167 42.5 -30.5s34.166 -11 53.499 -11z" />
    <glyph glyph-name="seven" unicode="7" horiz-adv-x="515" 
d="M19 599v101h472v-61l-324 -639h-120l305 599h-333z" />
    <glyph glyph-name="eight" unicode="8" horiz-adv-x="580" 
d="M289 87c40 0 72.167 10.833 96.5 32.5s36.5 48.834 36.5 81.501s-12 59.667 -36 81s-56.333 32 -97 32c-40 0 -72 -10.667 -96 -32s-36 -48.333 -36 -81s12 -59.834 36 -81.501s56 -32.5 96 -32.5zM289 708c34 0 64.9941 -5 92.9941 -15s51.833 -23.833 71.5 -41.5
s34.834 -38.667 45.501 -63s16 -50.833 16 -79.5c0 -37.333 -9.83301 -67.833 -29.5 -91.5s-43.5 -41.5 -71.5 -53.5c35.333 -14 63.5 -36.667 84.5 -68s31.5 -66 31.5 -104c0 -28.667 -5.83301 -55.167 -17.5 -79.5s-28.167 -45.5 -49.5 -63.5s-46.666 -32 -75.999 -42
s-62 -15 -98 -15c-35.333 0 -67.666 5 -96.999 15s-54.666 24 -75.999 42s-37.833 39.167 -49.5 63.5s-17.5 50.833 -17.5 79.5c0 38 10.5 72.667 31.5 104s49.167 54 84.5 68c-28 12 -51.833 29.833 -71.5 53.5s-29.5 54.167 -29.5 91.5c0 28.667 5.33301 55.167 16 79.5
s25.834 45.333 45.501 63s43.334 31.5 71.001 41.5s58.5 15 92.5 15zM288.994 410c35.333 0 63.835 9.33301 85.502 28s32.5 42 32.5 70c0 28.667 -10.333 53 -31 73s-49.667 30 -87 30c-36.667 0 -65.334 -10 -86.001 -30s-31 -44.333 -31 -73c0 -28 10.667 -51.333 32 -70
s49.666 -28 84.999 -28z" />
    <glyph glyph-name="nine" unicode="9" horiz-adv-x="575" 
d="M159 160c5.33301 -21.333 17.835 -38.501 37.502 -51.501s41.834 -19.5 66.501 -19.5c30 0 55.167 6.16699 75.5 18.5s36.833 29.333 49.5 51s22 47.334 28 77.001s9.66699 61.5 11 95.5c-15.333 -30.667 -38.333 -56.167 -69 -76.5s-66.334 -30.5 -107.001 -30.5
c-31.333 0 -60.333 6 -87 18s-49.667 28.667 -69 50s-34.5 46.666 -45.5 75.999s-16.5 61.666 -16.5 96.999c0 34.667 5.33301 66.834 16 96.501s26.167 55.5 46.5 77.5s45 39.167 74 51.5s61.5 18.5 97.5 18.5s69.667 -6.5 101 -19.5s58.666 -33.833 81.999 -62.5
s41.666 -66 54.999 -112s20 -102 20 -168c0 -40.667 -3.66699 -82.167 -11 -124.5s-20.5 -80.666 -39.5 -114.999s-45.5 -62.333 -79.5 -84s-77.333 -32.5 -130 -32.5c-26 0 -51 3.66699 -75 11s-45.667 18 -65 32s-35.333 31.5 -48 52.5s-21 45.5 -25 73.5h107z
M268.002 613.999c-40 0 -71.333 -13.999 -94 -41.999s-34 -64.333 -34 -109c0 -20.667 3 -39.667 9 -57s14.5 -32.333 25.5 -45s24.167 -22.667 39.5 -30s32 -11 50 -11c18.667 0 36.334 3.66699 53.001 11s31.167 17.5 43.5 30.5s22 28.5 29 46.5s10.5 37.667 10.5 59
c0 43.333 -11.833 78.666 -35.5 105.999s-55.834 41 -96.501 41z" />
    <glyph glyph-name="colon" unicode=":" horiz-adv-x="238" 
d="M51 58c0 18.667 6.5 34.667 19.5 48s29.167 20 48.5 20c18.667 0 34.667 -6.66699 48 -20s20 -29.333 20 -48c0 -19.333 -6.66699 -35.5 -20 -48.5s-29.333 -19.5 -48 -19.5c-19.333 0 -35.5 6.5 -48.5 19.5s-19.5 29.167 -19.5 48.5zM51 362
c0 19.333 6.5 35.666 19.5 48.999s29.167 20 48.5 20c18.667 0 34.667 -6.66699 48 -20s20 -29.666 20 -48.999c0 -18.667 -6.66699 -34.5 -20 -47.5s-29.333 -19.5 -48 -19.5c-19.333 0 -35.5 6.5 -48.5 19.5s-19.5 28.833 -19.5 47.5z" />
    <glyph glyph-name="semicolon" unicode=";" horiz-adv-x="238" 
d="M51 362c0 19.333 6.5 35.666 19.5 48.999s29.167 20 48.5 20c18.667 0 34.667 -6.66699 48 -20s20 -29.666 20 -48.999c0 -18.667 -6.66699 -34.5 -20 -47.5s-29.333 -19.5 -48 -19.5c-19.333 0 -35.5 6.5 -48.5 19.5s-19.5 28.833 -19.5 47.5zM187 97l-82 -262l-74 24
l52 264z" />
    <glyph glyph-name="less" unicode="&#x3c;" 
d="M531 557v-104l-333 -156l333 -157v-103l-462 226v67z" />
    <glyph glyph-name="equal" unicode="=" 
d="M531 430v-91h-462v91h462zM531 230v-91h-462v91h462z" />
    <glyph glyph-name="greater" unicode="&#x3e;" 
d="M531 330v-67l-462 -226v103l333 157l-333 156v104z" />
    <glyph glyph-name="question" unicode="?" horiz-adv-x="516" 
d="M212 192l0.000976562 124.998c18.667 9.33301 37.5 20.166 56.5 32.499s36.333 26 52 41s28.5 31.333 38.5 49s15 37.167 15 58.5c0 33.333 -10.667 60.833 -32 82.5s-51.666 32.5 -90.999 32.5c-44 0 -77 -11.833 -99 -35.5s-31.667 -58.167 -29 -103.5h-103
c-3.33301 34.667 0.166992 66.5 10.5 95.5s26 53.833 47 74.5s46.167 36.667 75.5 48s61 17 95 17c36 0 68.333 -5.5 97 -16.5s52.667 -26.167 72 -45.5s34.166 -42.166 44.499 -68.499s15.5 -54.833 15.5 -85.5c0 -27.333 -4.83301 -52.166 -14.5 -74.499
s-22.334 -42.666 -38.001 -60.999s-33 -34.5 -52 -48.5s-37.833 -26 -56.5 -36v-81h-104zM198.001 57.998c0 18.667 6.66699 34.667 20 48s29.333 20 48 20s34.667 -6.66699 48 -20s20 -29.333 20 -48c0 -19.333 -6.66699 -35.5 -20 -48.5s-29.333 -19.5 -48 -19.5
s-34.667 6.5 -48 19.5s-20 29.167 -20 48.5z" />
    <glyph glyph-name="at" unicode="@" horiz-adv-x="1033" 
d="M969 293c0 -40 -4.83301 -76.6611 -14.5 -109.994s-23.334 -62.333 -41.001 -87s-38.5 -43.834 -62.5 -57.501s-50.333 -20.5 -79 -20.5c-25.333 0 -49.333 5.66699 -72 17s-39.667 26.666 -51 45.999c-12.667 -21.333 -30.334 -39.166 -53.001 -53.499
s-51 -21.5 -85 -21.5c-30 0 -57.5 5 -82.5 15s-46.5 24.333 -64.5 43s-31.833 41 -41.5 67s-14.5 55 -14.5 87c0 30.667 4.83301 58.667 14.5 84s23 47.166 40 65.499s37 32.5 60 42.5s47.833 15 74.5 15c32.667 0 60.334 -6.83301 83.001 -20.5s39.667 -30.167 51 -49.5
l8 60h80v-293c7.33301 -8.66699 15.5 -15.167 24.5 -19.5s20.5 -6.5 34.5 -6.5c14.667 0 28.334 5 41.001 15s23.667 23.833 33 41.5s16.666 38.5 21.999 62.5s8 50 8 78c0 48 -8.16699 92.5 -24.5 133.5s-39.5 76.667 -69.5 107s-66.5 54.166 -109.5 71.499
s-91.167 26 -144.5 26c-56 0 -107.167 -10 -153.5 -30s-86.333 -48 -120 -84s-59.834 -78.833 -78.501 -128.5s-28 -104.5 -28 -164.5c0 -60.667 9.83301 -116.334 29.5 -167.001s46.5 -94.5 80.5 -131.5s74 -65.833 120 -86.5s95.667 -31 149 -31s107.833 6.66699 163.5 20
s107.5 36.666 155.5 69.999l31 -74c-56.667 -34 -113.5 -58.167 -170.5 -72.5s-117.167 -21.5 -180.5 -21.5c-65.333 0 -126.5 11.833 -183.5 35.5s-106.5 57 -148.5 100s-75.167 94.833 -99.5 155.5s-36.5 128.334 -36.5 203.001c0 70 11.5 134.667 34.5 194
s55.167 110.666 96.5 153.999s90.833 77.166 148.5 101.499s121.167 36.5 190.5 36.5c66.667 0 126.834 -10.5 180.501 -31.5s99.334 -50.167 137.001 -87.5s66.667 -81.5 87 -132.5s30.5 -106.167 30.5 -165.5zM512 87.0059c36 0 64.667 12.001 86 36.001s32 55.667 32 95
c0 38 -10.5 68.5 -31.5 91.5s-48.833 34.5 -83.5 34.5s-62.5 -11.833 -83.5 -35.5s-31.5 -53.834 -31.5 -90.501c0 -39.333 10.167 -71 30.5 -95s47.5 -36 81.5 -36z" />
    <glyph glyph-name="A" unicode="A" horiz-adv-x="708" 
d="M385 711l315 -711h-114l-70 160h-323l-70 -160h-115l317 711h60zM235 257h239l-119 275z" />
    <glyph glyph-name="B" unicode="B" horiz-adv-x="636" 
d="M181 98h160c20.667 0 40.167 1.83301 58.5 5.5s34.333 9.66699 48 18s24.5 19.5 32.5 33.5s12 31.333 12 52c0 39.333 -14.167 67 -42.5 83s-67.833 24 -118.5 24h-150v-216zM74 0l-0.000976562 699.998h253c32.667 0 63.334 -3.33301 92.001 -10s53.5 -17.5 74.5 -32.5
s37.5 -34.667 49.5 -59s18 -54.5 18 -90.5c0 -32 -9.16699 -60.167 -27.5 -84.5s-43.5 -41.166 -75.5 -50.499c40.667 -6.66699 74.5 -24.5 101.5 -53.5s40.5 -66.167 40.5 -111.5c0 -35.333 -6.5 -66 -19.5 -92s-31 -47.667 -54 -65s-50.333 -30.166 -82 -38.499
s-66.167 -12.5 -103.5 -12.5h-267zM180.999 412.998h133c42.667 0 76.667 7 102 21s38 38.667 38 74c0 18.667 -3.66699 34 -11 46s-16.833 21.5 -28.5 28.5s-25.167 12 -40.5 15s-31 4.5 -47 4.5h-146v-189z" />
    <glyph glyph-name="C" unicode="C" horiz-adv-x="760" 
d="M42 350c0 49.333 8.99902 95.8262 26.999 139.493s42.833 81.834 74.5 114.501s68.667 58.5 111 77.5s87.833 28.5 136.5 28.5c42.667 0 81.834 -6.16699 117.501 -18.5s67.5 -29.5 95.5 -51.5s52 -48 72 -78s35.333 -62.667 46 -98h-116
c-6.66699 18.667 -16.334 36.834 -29.001 54.501s-28 33 -46 46s-38.5 23.5 -61.5 31.5s-48.167 12 -75.5 12c-34 0 -65.833 -6.66699 -95.5 -20s-55.334 -31.666 -77.001 -54.999s-38.667 -50.666 -51 -81.999s-18.5 -65 -18.5 -101c0 -36.667 6.16699 -70.667 18.5 -102
s29.333 -58.666 51 -81.999s47.334 -41.666 77.001 -54.999s61.5 -20 95.5 -20c27.333 0 52.833 4 76.5 12s44.834 18.667 63.501 32s34.334 29 47.001 47s21.667 37 27 57h116c-9.33301 -36 -24 -69.167 -44 -99.5s-44.167 -56.5 -72.5 -78.5s-60.833 -39.167 -97.5 -51.5
s-76.334 -18.5 -119.001 -18.5c-48.667 0 -94.167 9.33301 -136.5 28s-79.333 44.334 -111 77.001s-56.5 70.667 -74.5 114s-27 90 -27 140z" />
    <glyph glyph-name="D" unicode="D" horiz-adv-x="721" 
d="M74 700l258 -0.00195312c54.667 0 103.334 -8.83301 146.001 -26.5s78.667 -42.167 108 -73.5s51.833 -68.166 67.5 -110.499s23.5 -88.166 23.5 -137.499c0 -50.667 -7.33301 -97.5 -22 -140.5s-36.334 -80.167 -65.001 -111.5s-64 -55.833 -106 -73.5
s-90 -26.5 -144 -26.5h-266v700zM340 100.998c38 0 71.167 6.16699 99.5 18.5s52 29.5 71 51.5s33.333 48.333 43 79s14.5 64.667 14.5 102c0 36 -5.16699 69 -15.5 99s-25.5 56 -45.5 78s-44.667 39.167 -74 51.5s-63 18.5 -101 18.5h-149v-498h157z" />
    <glyph glyph-name="E" unicode="E" horiz-adv-x="589" 
d="M183 599v-185h323v-101h-323v-212h356v-101h-465v700h465v-101h-356z" />
    <glyph glyph-name="F" unicode="F" horiz-adv-x="551" 
d="M183 599v-185h313v-101h-313v-313h-109v700h455v-101h-346z" />
    <glyph glyph-name="G" unicode="G" horiz-adv-x="780" 
d="M399 292l0.000976562 97.9922h338v-42c0 -58 -8.83301 -109.167 -26.5 -153.5s-41.834 -81.666 -72.501 -111.999s-66.834 -53.166 -108.501 -68.499s-86.5 -23 -134.5 -23c-49.333 0 -95.333 9.33301 -138 28s-80 44.334 -112 77.001s-57.167 70.667 -75.5 114
s-27.5 90 -27.5 140c0 49.333 9.16699 95.833 27.5 139.5s43.333 81.834 75 114.501s68.834 58.5 111.501 77.5s88.334 28.5 137.001 28.5c43.333 0 83.166 -6.5 119.499 -19.5s68.5 -30.667 96.5 -53s51.833 -48.5 71.5 -78.5s34.5 -61.667 44.5 -95h-116
c-6.66699 18.667 -16.334 36.834 -29.001 54.501s-28 33 -46 46s-38.5 23.5 -61.5 31.5s-48.167 12 -75.5 12c-34.667 0 -66.834 -6.66699 -96.501 -20s-55.5 -31.666 -77.5 -54.999s-39.333 -50.666 -52 -81.999s-19 -65 -19 -101c0 -36.667 6.33301 -70.667 19 -102
s29.834 -58.666 51.501 -81.999s47.334 -41.666 77.001 -54.999s61.5 -20 95.5 -20c32.667 0 62.667 5 90 15s51 24 71 42s36 39.167 48 63.5s19 51.166 21 80.499h-226z" />
    <glyph glyph-name="H" unicode="H" horiz-adv-x="731" 
d="M657 0h-109v313h-365v-313h-109v700h109v-286h365v286h109v-700z" />
    <glyph glyph-name="I" unicode="I" horiz-adv-x="271" 
d="M190 0h-109v700h109v-700z" />
    <glyph glyph-name="J" unicode="J" horiz-adv-x="524" 
d="M342 700l109.002 -0.000976562v-491c0 -32 -5.33301 -61.333 -16 -88s-26 -49.667 -46 -69s-44 -34.333 -72 -45s-59.333 -16 -94 -16c-28 0 -54.833 4 -80.5 12s-48.834 19.833 -69.501 35.5s-37.834 35.334 -51.501 59.001s-22.167 51.167 -25.5 82.5h108
c7.33301 -32 21.5 -54.667 42.5 -68s46.5 -20 76.5 -20c37.333 0 66.5 10 87.5 30s31.5 49 31.5 87v491z" />
    <glyph glyph-name="K" unicode="K" horiz-adv-x="608" 
d="M213 324l-36 -33v-291h-109v700h109v-285l291 285h137l-316 -311l322 -389h-130z" />
    <glyph glyph-name="L" unicode="L" horiz-adv-x="545" 
d="M183 700v-599h347v-101h-456v700h109z" />
    <glyph glyph-name="M" unicode="M" horiz-adv-x="876" 
d="M411 -7l-217 462l-22.5 -228l-22.5 -227h-109l36 354.5l37 355.5h69l256 -545l256 545h69l37 -355.5l36 -354.5h-108l-46 455l-217 -462h-54z" />
    <glyph glyph-name="N" unicode="N" horiz-adv-x="733" 
d="M659 -18h-68l-408 516v-498h-109v711h64l413 -520v509h108v-718z" />
    <glyph glyph-name="O" unicode="O" horiz-adv-x="784" 
d="M42 350c0 49.333 9.16699 95.833 27.5 139.5s43.166 81.834 74.499 114.501s68.333 58.5 111 77.5s88 28.5 136 28.5s93.333 -9.5 136 -28.5s79.667 -44.833 111 -77.5s56.166 -70.834 74.499 -114.501s27.5 -90.167 27.5 -139.5c0 -50 -9.16699 -96.667 -27.5 -140
s-43.166 -81.333 -74.499 -114s-68.333 -58.334 -111 -77.001s-88 -28 -136 -28s-93.333 9.33301 -136 28s-79.667 44.334 -111 77.001s-56.166 70.667 -74.499 114s-27.5 90 -27.5 140zM152 350c0 -36.667 6.16699 -70.667 18.5 -102s29.333 -58.5 51 -81.5
s47 -41.167 76 -54.5s60.167 -20 93.5 -20s64.5 6.66699 93.5 20s54.333 31.5 76 54.5s38.834 50.167 51.501 81.5s19 65.333 19 102c0 36 -6.33301 69.667 -19 101s-29.834 58.666 -51.501 81.999s-47 41.666 -76 54.999s-60.167 20 -93.5 20s-64.5 -6.66699 -93.5 -20
s-54.333 -31.666 -76 -54.999s-38.667 -50.666 -51 -81.999s-18.5 -65 -18.5 -101z" />
    <glyph glyph-name="P" unicode="P" horiz-adv-x="624" 
d="M183 0h-108.998v700h266c34 0 66 -4 96 -12s56 -20.667 78 -38s39.333 -39.833 52 -67.5s19 -61.167 19 -100.5c0 -37.333 -6.16699 -69.333 -18.5 -96s-29.333 -48.5 -51 -65.5s-47.334 -29.5 -77.001 -37.5s-61.834 -12 -96.501 -12h-159v-271zM342.002 370
c18.667 0 36.167 2.00098 52.5 6.00098s30.5 10.5 42.5 19.5s21.5 20.667 28.5 35s10.5 32.166 10.5 53.499c0 42 -12.667 72 -38 90s-58 27 -98 27h-158v-231h160z" />
    <glyph glyph-name="Q" unicode="Q" horiz-adv-x="786" 
d="M391 0c-48 0 -93.333 9.16797 -136 27.501s-79.667 43.333 -111 75s-56.166 69 -74.499 112s-27.5 89.5 -27.5 139.5c0 49.333 9.16699 95.666 27.5 138.999s43.166 81 74.499 113s68.333 57.333 111 76s88 28 136 28s93.333 -9.33301 136 -28s79.667 -44 111 -76
s56.166 -69.667 74.499 -113s27.5 -89.666 27.5 -138.999c0 -27.333 -3.5 -54 -10.5 -80s-16.667 -50.333 -29 -73s-27.166 -43.167 -44.499 -61.5s-36.333 -33.833 -57 -46.5c26.667 0.666992 53.167 1.16699 79.5 1.5s52.833 1.16602 79.5 2.49902v-97h-367zM152 354.001
c0 -36.667 6.16699 -70.5 18.5 -101.5s29.333 -57.667 51 -80s47 -39.833 76 -52.5s60.167 -19 93.5 -19s64.5 6.33301 93.5 19s54.333 30.167 76 52.5s38.834 49 51.501 80s19 64.833 19 101.5c0 36 -6.33301 69.5 -19 100.5s-29.834 57.833 -51.501 80.5
s-47 40.5 -76 53.5s-60.167 19.5 -93.5 19.5s-64.5 -6.5 -93.5 -19.5s-54.333 -30.833 -76 -53.5s-38.667 -49.5 -51 -80.5s-18.5 -64.5 -18.5 -100.5z" />
    <glyph glyph-name="R" unicode="R" horiz-adv-x="637" 
d="M183 0h-108.999v700h270c34 0 65.833 -3.66699 95.5 -11s55.667 -19.166 78 -35.499s39.833 -38 52.5 -65s19 -60.167 19 -99.5c0 -30.667 -4.33301 -57.334 -13 -80.001s-20.834 -42 -36.501 -58s-34.167 -28.5 -55.5 -37.5s-44.333 -15.5 -69 -19.5
c4 -6.66699 11 -17.667 21 -33l34 -52.5l40.5 -61.5l40.5 -61.5l34 -52.5c10 -15.333 17 -26.333 21 -33h-117l-188 286h-118v-286zM346.001 386c18.667 0 36.167 1.66797 52.5 5.00098s30.5 9.16602 42.5 17.499s21.5 19.166 28.5 32.499s10.5 30 10.5 50
s-3.33301 37 -10 51s-16 25.333 -28 34s-26.333 14.834 -43 18.501s-35 5.5 -55 5.5h-162v-214h164z" />
    <glyph glyph-name="S" unicode="S" horiz-adv-x="558" 
d="M287 90c16 0 31.667 2.00098 47 6.00098s29.166 10 41.499 18s22.166 18 29.499 30s11 26.333 11 43c0 17.333 -4.33301 32.333 -13 45s-20.5 23.834 -35.5 33.501s-33 18.667 -54 27s-43.5 16.5 -67.5 24.5c-30 10 -57.667 20.5 -83 31.5s-47.166 24.167 -65.499 39.5
s-32.666 33.666 -42.999 54.999s-15.5 47.666 -15.5 78.999c0 23.333 4.66699 46.166 14 68.499s23.833 42.333 43.5 60s44.334 32 74.001 43s64.5 16.5 104.5 16.5c29.333 0 57.333 -4.33301 84 -13s50.667 -21 72 -37s39.333 -35.667 54 -59s24.667 -49.666 30 -78.999
h-108c-6.66699 28 -21.834 49.833 -45.501 65.5s-52.5 23.5 -86.5 23.5c-22 0 -41.167 -2.5 -57.5 -7.5s-29.833 -11.667 -40.5 -20s-18.5 -17.833 -23.5 -28.5s-7.5 -21.334 -7.5 -32.001c0 -16 3.66699 -29.667 11 -41s17.333 -21.333 30 -30s27.5 -16.167 44.5 -22.5
l54.5 -19.5c34.667 -12 66.5 -24.167 95.5 -36.5s54 -26.666 75 -42.999s37.333 -35.666 49 -57.999s17.5 -48.833 17.5 -79.5c0 -32.667 -6.66699 -61.5 -20 -86.5s-31 -46 -53 -63s-47.5 -30 -76.5 -39s-58.833 -13.5 -89.5 -13.5c-70 0 -127.333 16.667 -172 50
s-72.667 79.666 -84 138.999h108c14 -60 64.333 -90 151 -90z" />
    <glyph glyph-name="T" unicode="T" horiz-adv-x="568" 
d="M552 599h-214v-599h-109v599h-213v101h536v-101z" />
    <glyph glyph-name="U" unicode="U" horiz-adv-x="711" 
d="M356 93c30.667 0 57 5 79 15s40 23.833 54 41.5s24.333 38.834 31 63.501s10 51.667 10 81v406h109v-406c0 -44 -5.83301 -84.5 -17.5 -121.5s-29.167 -69 -52.5 -96s-52.666 -48 -87.999 -63s-77 -22.5 -125 -22.5s-89.667 7.5 -125 22.5s-64.833 36 -88.5 63
s-41.334 59 -53.001 96s-17.5 77.5 -17.5 121.5v406h109v-406c0 -29.333 3.33301 -56.333 10 -81s17 -45.834 31 -63.501s32 -31.5 54 -41.5s48.667 -15 80 -15z" />
    <glyph glyph-name="V" unicode="V" horiz-adv-x="707" 
d="M581 701h118l-316 -712h-60l-315 712h117l229 -526z" />
    <glyph glyph-name="W" unicode="W" horiz-adv-x="1011" 
d="M724 204l158 496h113l-235 -710h-64l-190 502l-191 -502h-64l-235 710h113l159 -496l188 510h59z" />
    <glyph glyph-name="X" unicode="X" horiz-adv-x="652" 
d="M325 444l185 256h121l-246 -336l269 -364h-121l-208 285l-207 -285h-120l267 364l-245 336h120z" />
    <glyph glyph-name="Y" unicode="Y" horiz-adv-x="595" 
d="M479 700h116l-243 -403v-297h-109v297l-243 403h115l182 -308z" />
    <glyph glyph-name="Z" unicode="Z" horiz-adv-x="594" 
d="M25 0v63l387 540h-360v97h513v-60l-389 -543h382v-97h-533z" />
    <glyph glyph-name="bracketleft" unicode="[" horiz-adv-x="313" 
d="M299 700v-87h-113v-776h113v-87h-214v950h214z" />
    <glyph glyph-name="backslash" unicode="\" horiz-adv-x="578" 
d="M-13 773l90 47l514 -892l-87 -51z" />
    <glyph glyph-name="bracketright" unicode="]" horiz-adv-x="313" 
d="M228 700v-950h-214v87h113v776h-113v87h214z" />
    <glyph glyph-name="asciicircum" unicode="^" horiz-adv-x="597" 
d="M563 317h-118l-146 269l-147 -269h-118l227 383h75z" />
    <glyph glyph-name="underscore" unicode="_" horiz-adv-x="435" 
d="M24 -60h387v-72h-387v72z" />
    <glyph glyph-name="grave" unicode="`" horiz-adv-x="314" 
d="M99 693l178 -151l-48 -51l-188 120z" />
    <glyph glyph-name="a" unicode="a" horiz-adv-x="459" 
d="M47 283c2 16.667 7.66797 32.668 17.001 48.001s21.666 28.833 36.999 40.5s33.666 21 54.999 28s45 10.5 71 10.5c56 0 99 -13.833 129 -41.5s45 -63.167 45 -106.5v-262h-86l-7 56c-11.333 -17.333 -27 -31.833 -47 -43.5s-47 -17.5 -81 -17.5
c-21.333 0 -40.833 2.83301 -58.5 8.5s-33.167 14 -46.5 25s-23.666 24.167 -30.999 39.5s-11 32.666 -11 51.999c0 43.333 16 75.333 48 96s78.333 31 139 31h88v15c0 17.333 -7 33.5 -21 48.5s-35.333 22.5 -64 22.5c-22.667 0 -42 -4.83301 -58 -14.5
s-24.333 -21.5 -25 -35.5h-93zM198.001 70.001c31.333 0 57.501 7.5 78.501 22.5s31.5 37.167 31.5 66.5v22h-88c-34 0 -58.167 -5.16699 -72.5 -15.5s-21.5 -24.166 -21.5 -41.499c0 -16.667 6.66699 -29.834 20 -39.501s30.666 -14.5 51.999 -14.5z" />
    <glyph glyph-name="b" unicode="b" horiz-adv-x="516" 
d="M272 77c33.333 0 59.667 11.5 79 34.5s29 52.5 29 88.5c0 35.333 -10 64.5 -30 87.5s-46 34.5 -78 34.5c-33.333 0 -60.666 -11.333 -81.999 -34s-32 -52 -32 -88s10.667 -65.5 32 -88.5s48.666 -34.5 81.999 -34.5zM154.001 0l-91.998 0.000976562v653h99v-307
c11.333 16.667 28.166 31.5 50.499 44.5s49.833 19.5 82.5 19.5c26.667 0 51.167 -5.33301 73.5 -16s41.666 -25.5 57.999 -44.5s29 -41.167 38 -66.5s13.5 -53 13.5 -83c0 -33.333 -5 -62.833 -15 -88.5s-23.5 -47.5 -40.5 -65.5s-37 -31.667 -60 -41s-47.5 -14 -73.5 -14
c-28 0 -53.5 6.16699 -76.5 18.5s-39.833 28.166 -50.5 47.499z" />
    <glyph glyph-name="c" unicode="c" horiz-adv-x="477" 
d="M248 320c-32 0 -58.835 -11.001 -80.502 -33.001s-32.5 -51 -32.5 -87c0 -37.333 10.833 -67 32.5 -89s48.5 -33 80.5 -33c24.667 0 45.5 5.83301 62.5 17.5s28.167 26.167 33.5 43.5h98c-7.33301 -43.333 -28.166 -78.833 -62.499 -106.5s-78.166 -41.5 -131.499 -41.5
c-31.333 0 -60 5.5 -86 16.5s-48.167 25.833 -66.5 44.5s-32.666 40.667 -42.999 66s-15.5 52.666 -15.5 81.999c0 28.667 5.16699 55.834 15.5 81.501s24.666 48 42.999 67s40.333 34 66 45s54.167 16.5 85.5 16.5c26.667 0 51 -3.83301 73 -11.5s41.5 -18.167 58.5 -31.5
s30.833 -29.166 41.5 -47.499s18 -38.166 22 -59.499h-99c-6 17.333 -17.5 31.666 -34.5 42.999s-37.167 17 -60.5 17z" />
    <glyph glyph-name="d" unicode="d" horiz-adv-x="515" 
d="M243 77c33.333 0 60.667 11.5 82 34.5s32 52.5 32 88.5s-10.667 65.333 -32 88s-48.666 34 -81.999 34c-32 0 -58 -11.5 -78 -34.5s-30 -52.167 -30 -87.5c0 -36 9.66699 -65.5 29 -88.5s45.666 -34.5 78.999 -34.5zM354.001 57
c-10.667 -19.333 -27.334 -35.167 -50.001 -47.5s-48 -18.5 -76 -18.5c-26 0 -50.667 4.66699 -74 14s-43.5 23 -60.5 41s-30.5 39.833 -40.5 65.5s-15 55.167 -15 88.5c0 30 4.66699 57.667 14 83s22.166 47.5 38.499 66.5s35.833 33.833 58.5 44.5s47.334 16 74.001 16
c32.667 0 59.834 -6.5 81.501 -19.5s38.167 -27.833 49.5 -44.5v307h99v-653h-92z" />
    <glyph glyph-name="e" unicode="e" horiz-adv-x="484" 
d="M131 172c4 -30 15.8311 -54.499 35.498 -73.499s47.5 -28.5 83.5 -28.5c25.333 0 46.333 5.66699 63 17s27.667 25.666 33 42.999h93c-10 -41.333 -31.167 -74.833 -63.5 -100.5s-74.833 -38.5 -127.5 -38.5c-31.333 0 -60 5.5 -86 16.5s-48.167 25.833 -66.5 44.5
s-32.5 40.667 -42.5 66s-15 52.666 -15 81.999c0 28.667 5 55.834 15 81.501s24.167 48 42.5 67s40.166 34 65.499 45s53.333 16.5 84 16.5s58.334 -5.66699 83.001 -17s45.834 -26.333 63.501 -45s31.334 -40 41.001 -64s14.5 -48.333 14.5 -73v-18.5
c0 -7 -0.666992 -13.833 -2 -20.5h-314zM249.998 330.001c-32 0 -57.832 -8.66797 -77.499 -26.001s-32.167 -39.666 -37.5 -66.999h219c-0.666992 12 -3.66699 23.5 -9 34.5s-12.5 20.833 -21.5 29.5s-19.833 15.667 -32.5 21s-26.334 8 -41.001 8z" />
    <glyph glyph-name="f" unicode="f" horiz-adv-x="319" 
d="M13 400h72v88c0 56.667 15.333 99 46 127s75 42 133 42c11.333 0 22.333 -0.5 33 -1.5s20 -2.16699 28 -3.5v-89c-8 1.33301 -16.667 2.33301 -26 3s-18.666 1 -27.999 1c-30.667 0 -52.834 -6.5 -66.501 -19.5s-20.5 -34.833 -20.5 -65.5v-82h115v-90h-115v-310h-99v310
h-72v90z" />
    <glyph glyph-name="g" unicode="g" horiz-adv-x="467" 
d="M52 228c0 23.333 4.66797 45.502 14.001 66.502s22.166 39.333 38.499 55s35.333 28 57 37s44.834 13.5 69.501 13.5h205v-70l-72 -5c14.667 -12 26.167 -27.167 34.5 -45.5s12.5 -39.166 12.5 -62.499c0 -21.333 -4.66699 -41.666 -14 -60.999s-22 -36.5 -38 -51.5
s-34.5 -26.833 -55.5 -35.5s-42.833 -13 -65.5 -13c-24 0 -43.667 3.16699 -59 9.5s-29.333 14.833 -42 25.5c-6.66699 -2 -13 -6.33301 -19 -13s-9 -16 -9 -28c0 -13.333 5.33301 -25 16 -35s25.667 -15 45 -15h81c63.333 0 111 -13.5 143 -40.5s48 -64.833 48 -113.5
c0 -48 -17.167 -87.333 -51.5 -118s-84.166 -46 -149.499 -46c-34.667 0 -64.834 4.5 -90.501 13.5s-46.834 20.833 -63.501 35.5s-29.167 31.5 -37.5 50.5s-12.5 38.5 -12.5 58.5c0 25.333 6.33301 48.5 19 69.5s26.667 35.833 42 44.5
c-19.333 6.66699 -36.333 18.167 -51 34.5s-22 37.166 -22 62.499c0 23.333 5.83301 42.666 17.5 57.999s24.167 27.333 37.5 36c-8 9.33301 -14.667 21.666 -20 36.999s-8 30.666 -8 45.999zM171.001 -80.998c-11.333 -6 -21.167 -15 -29.5 -27s-12.5 -27.333 -12.5 -46
c0 -23.333 9.16699 -42.833 27.5 -58.5s46.5 -23.5 84.5 -23.5s65.833 7.33301 83.5 22s26.5 34.667 26.5 60c0 23.333 -7 41.333 -21 54s-40.333 19 -79 19h-80zM144 228.002c0 -27.333 8.16699 -49.167 24.5 -65.5s37.166 -24.5 62.499 -24.5s46.333 8 63 24s25 38 25 66
c0 26.667 -8.33301 48.334 -25 65.001s-37.667 25 -63 25s-46.166 -8.33301 -62.499 -25s-24.5 -38.334 -24.5 -65.001z" />
    <glyph glyph-name="h" unicode="h" horiz-adv-x="518" 
d="M62 653h99v-301c13.333 14 31.333 27.167 54 39.5s51.334 18.5 86.001 18.5c22.667 0 43.667 -3.83301 63 -11.5s36.166 -18.5 50.499 -32.5s25.5 -31.167 33.5 -51.5s12 -43.166 12 -68.499v-246h-100v225c0 30.667 -7.16699 54.167 -21.5 70.5s-35.5 24.5 -63.5 24.5
c-27.333 0 -50.5 -6.83301 -69.5 -20.5s-33.833 -28.834 -44.5 -45.501v-254h-99v653z" />
    <glyph glyph-name="i" unicode="i" horiz-adv-x="234" 
d="M68 400h99v-400h-99v400zM54 567c0 17.333 6 32.166 18 44.499s27 18.5 45 18.5c17.333 0 32.333 -6.16699 45 -18.5s19 -27.166 19 -44.499c0 -18 -6.33301 -33 -19 -45s-27.667 -18 -45 -18c-18 0 -33 6 -45 18s-18 27 -18 45z" />
    <glyph glyph-name="j" unicode="j" horiz-adv-x="234" 
d="M167 -86c0 -57.333 -12.833 -100.667 -38.5 -130s-65.167 -44 -118.5 -44c-18.667 0 -37 2 -55 6v88c8 -1.33301 15.667 -2.5 23 -3.5s15 -1.5 23 -1.5c23.333 0 40.333 7 51 21s16 35 16 63v487h99v-486zM54 566.999c0 17.333 6 32.166 18 44.499s27 18.5 45 18.5
s33 -6.16699 45 -18.5s18 -27.166 18 -44.499c0 -18 -6 -33 -18 -45s-27 -18 -45 -18s-33 6 -45 18s-18 27 -18 45z" />
    <glyph glyph-name="k" unicode="k" horiz-adv-x="447" 
d="M182 180l-21 -22v-158h-99v653h99v-389l152 136h123l-188 -168l195 -232h-113z" />
    <glyph glyph-name="l" unicode="l" horiz-adv-x="232" 
d="M166 0h-100v653h100v-653z" />
    <glyph glyph-name="m" unicode="m" horiz-adv-x="770" 
d="M434 250c1.33301 -8 2 -15.834 2 -23.501v-22.5v-204h-99v226c0 30 -6 53.167 -18 69.5s-30.667 24.5 -56 24.5c-24.667 0 -45.334 -6.83301 -62.001 -20.5s-30.667 -29.5 -42 -47.5v-252h-99v400h91l8 -53c12.667 14.667 29.5 28.834 50.5 42.501s47.167 20.5 78.5 20.5
c28.667 0 54 -6.66699 76 -20s39.333 -32 52 -56c19.333 22 41.5 40.167 66.5 54.5s52.5 21.5 82.5 21.5c42.667 0 77.834 -14.5 105.501 -43.5s41.5 -68.833 41.5 -119.5v-247h-99v226c0 30 -6 53.167 -18 69.5s-30.667 24.5 -56 24.5
c-24.667 0 -45.5 -6.83301 -62.5 -20.5s-31.167 -30.167 -42.5 -49.5z" />
    <glyph glyph-name="n" unicode="n" horiz-adv-x="516" 
d="M60 400l91.999 -0.000976562l8 -52c13.333 14.667 31.333 28.667 54 42s51 20 85 20c22.667 0 43.834 -3.83301 63.501 -11.5s36.5 -18.5 50.5 -32.5s25 -31.167 33 -51.5s12 -43.166 12 -68.499v-246h-99v225c0 30.667 -7.16699 54.167 -21.5 70.5
s-35.5 24.5 -63.5 24.5c-27.333 0 -50.5 -7.33301 -69.5 -22s-33.833 -31 -44.5 -49v-249h-100v400z" />
    <glyph glyph-name="o" unicode="o" horiz-adv-x="491" 
d="M135 200c0 -36.667 10.333 -66 31 -88s47 -33 79 -33s58.5 11 79.5 33s31.5 51.333 31.5 88s-10.5 66 -31.5 88s-47.5 33 -79.5 33s-58.333 -11 -79 -33s-31 -51.333 -31 -88zM38 200c0 28.667 5.16699 55.834 15.5 81.501s24.666 48 42.999 67s40.166 34 65.499 45
s53 16.5 83 16.5s57.833 -5.5 83.5 -16.5s47.667 -26 66 -45s32.666 -41.333 42.999 -67s15.5 -52.834 15.5 -81.501c0 -29.333 -5.16699 -56.666 -15.5 -81.999s-24.666 -47.333 -42.999 -66s-40.333 -33.5 -66 -44.5s-53.5 -16.5 -83.5 -16.5s-57.667 5.5 -83 16.5
s-47.166 25.833 -65.499 44.5s-32.666 40.667 -42.999 66s-15.5 52.666 -15.5 81.999z" />
    <glyph glyph-name="p" unicode="p" horiz-adv-x="514" 
d="M271 77c32.667 0 58.833 11.5 78.5 34.5s29.5 52.5 29.5 88.5c0 35.333 -10 64.5 -30 87.5s-46 34.5 -78 34.5c-34 0 -61.667 -11.333 -83 -34s-32 -52 -32 -88s10.667 -65.5 32 -88.5s49 -34.5 83 -34.5zM158.999 -250l-99.0029 -0.000976562v650h91l8 -54
c12.667 17.333 29.834 32.333 51.501 45s49.834 19 84.501 19c24.667 0 47.834 -5 69.501 -15s40.667 -24.167 57 -42.5s29.333 -40.333 39 -66s14.5 -54.5 14.5 -86.5c0 -31.333 -4.66699 -59.666 -14 -84.999s-22.166 -47.333 -38.499 -66s-35.833 -33 -58.5 -43
s-47.334 -15 -74.001 -15c-30 0 -56.5 6.16699 -79.5 18.5s-40.167 27.5 -51.5 45.5v-305z" />
    <glyph glyph-name="q" unicode="q" horiz-adv-x="513" 
d="M354 55c-11.333 -18 -28.334 -33.166 -51.001 -45.499s-49 -18.5 -79 -18.5c-26.667 0 -51.334 5 -74.001 15s-42.334 24.333 -59.001 43s-29.667 40.667 -39 66s-14 53.666 -14 84.999c0 32 4.83301 60.833 14.5 86.5s22.834 47.667 39.501 66s36.167 32.5 58.5 42.5
s45.833 15 70.5 15c34.667 0 62.334 -6.33301 83.001 -19s37.334 -27.667 50.001 -45l8 54h91v-650h-99v305zM242.999 77.001c33.333 0 60.667 11.5 82 34.5s32 52.5 32 88.5s-10.667 65.333 -32 88s-48.666 34 -81.999 34c-32 0 -58 -11.5 -78 -34.5s-30 -52.167 -30 -87.5
c0 -36 9.66699 -65.5 29 -88.5s45.666 -34.5 78.999 -34.5z" />
    <glyph glyph-name="r" unicode="r" horiz-adv-x="331" 
d="M60 400h91.0029l8 -53c4.66699 6.66699 10.667 13.5 18 20.5s16.166 13.5 26.499 19.5s22.333 11 36 15s29.167 6 46.5 6c4.66699 0 10.167 -0.166992 16.5 -0.5s12.166 -0.833008 17.499 -1.5v-90c-4 0.666992 -9 1.16699 -15 1.5s-11 0.5 -15 0.5
c-17.333 0 -33 -2.16699 -47 -6.5s-26.333 -10 -37 -17s-19.834 -14.5 -27.501 -22.5s-14.167 -16 -19.5 -24v-248h-99v400z" />
    <glyph glyph-name="s" unicode="s" horiz-adv-x="377" 
d="M187 71c18.667 0 34.6631 3.16211 47.9961 9.49512s20 17.166 20 32.499c0 16.667 -8 28.334 -24 35.001s-36.667 13.334 -62 20.001c-18 4.66699 -35 10.167 -51 16.5s-30.167 14.333 -42.5 24s-22 21.334 -29 35.001s-10.5 30.5 -10.5 50.5c0 32 12.667 59.333 38 82
s61.333 34 108 34c24 0 45.833 -3.5 65.5 -10.5s36.167 -16.167 49.5 -27.5s23.833 -24.166 31.5 -38.499s11.5 -29.166 11.5 -44.499h-91c-1.33301 11.333 -7.5 21 -18.5 29s-26.167 12 -45.5 12c-17.333 0 -31.166 -3.66699 -41.499 -11s-15.5 -16.666 -15.5 -27.999
c0 -14 7.16699 -24.333 21.5 -31s34.833 -13.667 61.5 -21c16 -4 32.167 -9.16699 48.5 -15.5s31 -14.5 44 -24.5s23.5 -22.167 31.5 -36.5s12 -31.5 12 -51.5c0 -19.333 -4.16699 -36.5 -12.5 -51.5s-19.666 -27.5 -33.999 -37.5s-31 -17.667 -50 -23s-39.167 -8 -60.5 -8
c-49.333 0 -88.166 11.167 -116.499 33.5s-44.166 51.5 -47.499 87.5h89c1.33301 -11.333 8.33301 -21 21 -29s29.667 -12 51 -12z" />
    <glyph glyph-name="t" unicode="t" horiz-adv-x="333" 
d="M9 400l80.0029 0.000976562l16 142h81v-142h118v-90h-118v-169c0 -24 5.16699 -40 15.5 -48s25.833 -12 46.5 -12c20 0 40 2 60 6v-85c-14 -4 -27.5 -6.83301 -40.5 -8.5s-26.833 -2.5 -41.5 -2.5c-18.667 0 -36.334 2.16699 -53.001 6.5s-31.334 11.833 -44.001 22.5
s-22.834 24.667 -30.501 42s-11.5 38.666 -11.5 63.999v184h-78v90z" />
    <glyph glyph-name="u" unicode="u" horiz-adv-x="505" 
d="M346 56c-12.667 -16.667 -29.832 -31.834 -51.499 -45.501s-51.167 -20.5 -88.5 -20.5c-44 0 -79.667 13.667 -107 41s-41 67 -41 119v250h99v-234c0 -25.333 5.66699 -45.166 17 -59.499s28.666 -21.5 51.999 -21.5c30 0 55 7 75 21s35 30.333 45 49v245h99v-400h-92z
" />
    <glyph glyph-name="v" unicode="v" horiz-adv-x="434" 
d="M334 400h101l-194 -408h-49l-193 408h100l117 -269z" />
    <glyph glyph-name="w" unicode="w" horiz-adv-x="601" 
d="M301 246l-91 -254h-57l-145 408h98l80 -247l90 254h49l90 -254l81 247h97l-145 -408h-56z" />
    <glyph glyph-name="x" unicode="x" horiz-adv-x="446" 
d="M223 145l-112 -145h-109l166 206l-155 194h109l101 -133l101 133h109l-156 -194l167 -206h-109z" />
    <glyph glyph-name="y" unicode="y" horiz-adv-x="434" 
d="M42 -250l129 283l-172 367h100l117 -269l118 269h101l-308 -650h-85z" />
    <glyph glyph-name="z" unicode="z" horiz-adv-x="390" 
d="M36 400h330v-45l-215 -276h210v-79h-341v46l213 275h-197v79z" />
    <glyph glyph-name="braceleft" unicode="{" horiz-adv-x="335" 
d="M41 259c23.333 11.333 41.833 24.835 55.5 40.502s20.5 38.5 20.5 68.5v206c0 62.667 17.667 108 53 136s83.333 42.667 144 44v-93c-30.667 0 -54.334 -6.83301 -71.001 -20.5s-25 -38.167 -25 -73.5v-193c0 -20.667 -2.16699 -38.667 -6.5 -54
s-10.166 -28.833 -17.499 -40.5s-15.833 -22 -25.5 -31s-19.834 -17.5 -30.501 -25.5c10.667 -8 20.834 -16.333 30.501 -25s18.167 -18.834 25.5 -30.501s13.166 -25.334 17.499 -41.001s6.5 -34.167 6.5 -55.5v-192c0 -36 8.33301 -60.667 25 -74s40.334 -20 71.001 -20
v-93c-30 0.666992 -57.167 4.5 -81.5 11.5s-45 17.667 -62 32s-30.167 32.833 -39.5 55.5s-14 49.667 -14 81v206c0 30 -6.83301 52.833 -20.5 68.5s-32.167 29.5 -55.5 41.5v71z" />
    <glyph glyph-name="bar" unicode="|" horiz-adv-x="264" 
d="M183 -200h-102v1000h102v-1000z" />
    <glyph glyph-name="braceright" unicode="}" horiz-adv-x="335" 
d="M293 188c-23.333 -12 -41.833 -25.835 -55.5 -41.502s-20.5 -38.5 -20.5 -68.5v-206c0 -63.333 -17.5 -108.833 -52.5 -136.5s-82.833 -42.167 -143.5 -43.5v93c30.667 0 54.167 6.66699 70.5 20s24.5 38 24.5 74v192c0 21.333 2.16699 39.833 6.5 55.5
s10.166 29.334 17.499 41.001s15.833 21.834 25.5 30.501s19.834 17 30.501 25c-10.667 8 -20.834 16.5 -30.501 25.5s-18.167 19.333 -25.5 31s-13.166 25.167 -17.499 40.5s-6.5 33.333 -6.5 54v193c0 35.333 -8.16699 59.833 -24.5 73.5s-39.833 20.5 -70.5 20.5v93
c60.667 -1.33301 108.5 -16 143.5 -44s52.5 -73.333 52.5 -136v-206c0 -30 6.83301 -52.833 20.5 -68.5s32.167 -29.167 55.5 -40.5v-71z" />
    <glyph glyph-name="asciitilde" unicode="~" 
d="M212 324c16.667 0 32.1611 -3 46.4941 -9s28.333 -12.667 42 -20s27.167 -14 40.5 -20s27 -9 41 -9c14.667 0 28.334 5 41.001 15s22.667 25.333 30 46l87 -39c-9.33301 -33.333 -26.666 -61.166 -51.999 -83.499s-58 -33.5 -98 -33.5c-17.333 0 -33.166 3 -47.499 9
s-28.166 12.833 -41.499 20.5s-26.666 14.5 -39.999 20.5s-27.333 9 -42 9c-15.333 0 -29.5 -5 -42.5 -15s-23.167 -25 -30.5 -45l-86 38c4.66699 16 11.167 31 19.5 45s18.833 26.167 31.5 36.5s27.334 18.666 44.001 24.999s35.667 9.5 57 9.5z" />
    <glyph glyph-name="uni00A0" unicode="&#xa0;" horiz-adv-x="310" 
 />
    <glyph glyph-name="exclamdown" unicode="&#xa1;" horiz-adv-x="293" 
d="M99 197h94l5 -494h-104zM214 346c0 -18.667 -6.5 -34.834 -19.5 -48.501s-29.167 -20.5 -48.5 -20.5c-18.667 0 -34.667 6.83301 -48 20.5s-20 29.834 -20 48.501s6.66699 34.5 20 47.5s29.333 19.5 48 19.5c19.333 0 35.5 -6.5 48.5 -19.5s19.5 -28.833 19.5 -47.5z" />
    <glyph glyph-name="cent" unicode="&#xa2;" 
d="M341 409c46.667 -6 85.1641 -22.4961 115.497 -49.4961s49.166 -59.833 56.499 -98.5h-99c-5.33301 13.333 -14.166 25.166 -26.499 35.499s-27.833 17.166 -46.5 20.499v-235c38.667 7.33301 63.334 26.666 74.001 57.999h99c-7.33301 -40 -26.166 -73.333 -56.499 -100
s-69.166 -42.667 -116.499 -48v-92h-69v94c-26.667 4 -51 12.167 -73 24.5s-41 27.5 -57 45.5s-28.333 38.667 -37 62s-13 48 -13 74s4.33301 50.5 13 73.5s21 43.667 37 62s35 33.666 57 45.999s46.333 20.5 73 24.5v94h69v-91zM189.997 200.004
c0 -28.667 7.66699 -53 23 -73s35 -33.667 59 -41v227c-24 -7.33301 -43.667 -21 -59 -41s-23 -44 -23 -72z" />
    <glyph glyph-name="sterling" unicode="&#xa3;" 
d="M202 321c-10 14.667 -21.002 29.167 -33.002 43.5s-23.167 29.333 -33.5 45s-19.166 32.334 -26.499 50.001s-11 37.5 -11 59.5c0 23.333 4.66699 46.333 14 69s23 43 41 61s40 32.5 66 43.5s55.333 16.5 88 16.5c30 0 58 -5 84 -15s48.5 -24.167 67.5 -42.5
s34 -40.333 45 -66s16.5 -54.167 16.5 -85.5v-13.5c0 -4.33301 -0.333008 -8.83301 -1 -13.5h-103v10c0 42 -9.66699 74.167 -29 96.5s-46 33.5 -80 33.5c-16.667 0 -31.667 -2.83301 -45 -8.5s-24.5 -13.167 -33.5 -22.5s-15.833 -19.666 -20.5 -30.999
s-7 -22.666 -7 -33.999c0 -21.333 4.16699 -40.333 12.5 -57s18.333 -32.5 30 -47.5s24 -29.833 37 -44.5s24.167 -30.334 33.5 -47.001h141v-72h-117v-13c0 -14 -2.5 -27.667 -7.5 -41s-11.333 -26.333 -19 -39s-16.167 -24.167 -25.5 -34.5s-18.666 -19.5 -27.999 -27.5
h285v-94h-487v94h85c11.333 6 22.833 13.667 34.5 23s22 20.166 31 32.499s16.333 25.5 22 39.5s8.5 28.667 8.5 44c0 7.33301 -0.333008 12.666 -1 15.999h-117v72h83z" />
    <glyph glyph-name="currency" unicode="&#xa4;" horiz-adv-x="634" 
d="M100 158c-30.667 42.667 -46 91.333 -46 146c0 26.667 3.83301 52 11.5 76s18.834 46.333 33.501 67l-49 49l70 70l49 -50c20 14 42.333 25 67 33s51 12 79 12c26 0 51.5 -4 76.5 -12s47.5 -18.667 67.5 -32l55 49l69 -70l-54 -48c14.667 -20.667 26 -43.167 34 -67.5
s12 -49.833 12 -76.5c0 -54.667 -16 -103.667 -48 -147l50 -49l-70 -69l-50 51c-20 -13.333 -42.333 -23.833 -67 -31.5s-49.667 -11.5 -75 -11.5c-28 0 -53.833 3.66699 -77.5 11s-45.834 18 -66.501 32l-51 -51l-70 69zM156 303.999c0 -22 4.16699 -42.833 12.5 -62.5
s19.833 -36.834 34.5 -51.501s31.5 -26.167 50.5 -34.5s39.5 -12.5 61.5 -12.5c21.333 0 41.666 4.16699 60.999 12.5s36.166 19.833 50.499 34.5s25.666 31.834 33.999 51.501s12.5 40.5 12.5 62.5s-4.16699 42.833 -12.5 62.5s-19.666 36.834 -33.999 51.501
s-31.166 26.334 -50.499 35.001s-39.666 13 -60.999 13c-22 0 -42.5 -4.33301 -61.5 -13s-35.833 -20.334 -50.5 -35.001s-26.167 -31.834 -34.5 -51.501s-12.5 -40.5 -12.5 -62.5z" />
    <glyph glyph-name="yen" unicode="&#xa5;" 
d="M154 454l-143 246h116l173 -305l174 305h115l-143 -246h86v-71h-127l-39 -68h166v-71h-177v-244h-109v244h-176v71h165l-40 68h-125v71h84z" />
    <glyph glyph-name="brokenbar" unicode="&#xa6;" horiz-adv-x="277" 
d="M189 393h-102v347h102v-347zM189 -140h-102v347h102v-347z" />
    <glyph glyph-name="section" unicode="&#xa7;" 
d="M104 258c0 30 7.99414 58.6689 23.9941 86.002s36 48.666 60 63.999c-20 14 -37.667 32.833 -53 56.5s-23 51.5 -23 83.5c0 18.667 3.5 37.834 10.5 57.501s18.333 37.167 34 52.5s35.5 28 59.5 38s53 15 87 15c24.667 0 47.834 -3.83301 69.501 -11.5
s41.334 -18.667 59.001 -33s32.5 -31.833 44.5 -52.5s20.333 -44 25 -70h-103c-5.33301 26 -16.5 44.5 -33.5 55.5s-37.5 16.5 -61.5 16.5c-15.333 0 -28.666 -2.16699 -39.999 -6.5s-20.666 -9.66602 -27.999 -15.999s-12.666 -13.5 -15.999 -21.5s-5 -15.667 -5 -23
c0 -52 31 -84.333 93 -97c26 -0.666992 50.5 -6.33398 73.5 -17.001s43.333 -24.667 61 -42s31.5 -37.666 41.5 -60.999s15 -48 15 -74c0 -30.667 -8 -59.667 -24 -87s-36 -48.333 -60 -63c26 -14.667 46.833 -34.334 62.5 -59.001s23.5 -54 23.5 -88
c0 -28.667 -5.5 -53.834 -16.5 -75.501s-25.667 -39.834 -44 -54.501s-39.166 -25.667 -62.499 -33s-47.333 -11 -72 -11c-54.667 0 -100.834 14.5 -138.501 43.5s-61.5 69.833 -71.5 122.5h104c5.33301 -26 16.833 -44.5 34.5 -55.5s41.5 -16.5 71.5 -16.5
c11.333 0 22.5 1.66699 33.5 5s20.833 8.33301 29.5 15s15.667 14.834 21 24.501s8 21.167 8 34.5c0 25.333 -9.66699 47.166 -29 65.499s-47 31.833 -83 40.5c-25.333 2 -49 8.33301 -71 19s-41.167 24.5 -57.5 41.5s-29.166 36.833 -38.499 59.5s-14 46.667 -14 72z
M208.994 258.002c0 -26.667 8.83301 -49 26.5 -67s39.167 -27 64.5 -27c26 0 47.833 9 65.5 27s26.5 40.333 26.5 67s-8.83301 49.334 -26.5 68.001s-39.5 28 -65.5 28c-25.333 0 -46.833 -9.33301 -64.5 -28s-26.5 -41.334 -26.5 -68.001z" />
    <glyph glyph-name="dieresis" unicode="&#xa8;" horiz-adv-x="314" 
d="M-15 564c0 17.333 5.66699 31.666 17 42.999s25.666 17 42.999 17s31.666 -5.66699 42.999 -17s17 -25.666 17 -42.999s-5.66699 -31.666 -17 -42.999s-25.666 -17 -42.999 -17s-31.666 5.66699 -42.999 17s-17 25.666 -17 42.999zM209 564
c0 17.333 5.66699 31.666 17 42.999s25.666 17 42.999 17s31.666 -5.66699 42.999 -17s17 -25.666 17 -42.999s-5.66699 -31.666 -17 -42.999s-25.666 -17 -42.999 -17s-31.666 5.66699 -42.999 17s-17 25.666 -17 42.999z" />
    <glyph glyph-name="copyright" unicode="&#xa9;" horiz-adv-x="861" 
d="M255 351c0 24.667 4.49609 47.999 13.4961 69.999s21.667 41.333 38 58s35.5 29.834 57.5 39.501s46 14.5 72 14.5c46 0 84.833 -12.667 116.5 -38s52.834 -59.666 63.501 -102.999h-73c-6 22 -18.5 40.167 -37.5 54.5s-41.833 21.5 -68.5 21.5c-16 0 -31 -3 -45 -9
s-26 -14.333 -36 -25s-18 -23 -24 -37s-9 -29.333 -9 -46c0 -16 3 -31 9 -45s14 -26.167 24 -36.5s21.833 -18.5 35.5 -24.5s28.5 -9 44.5 -9c26.667 0 49.834 7.16699 69.501 21.5s31.834 33.166 36.501 56.499h74c-4.66699 -22 -12.5 -41.833 -23.5 -59.5
s-24.333 -32.5 -40 -44.5s-33.5 -21.333 -53.5 -28s-41 -10 -63 -10c-25.333 0 -49 4.66699 -71 14s-41.167 22.166 -57.5 38.499s-29.166 35.333 -38.499 57s-14 44.834 -14 69.501zM67.9961 349.999c0 50 9.5 96.833 28.5 140.5s44.833 81.667 77.5 114
s71.167 58 115.5 77s91.5 28.5 141.5 28.5s97 -9.5 141 -28.5s82.333 -44.667 115 -77s58.5 -70.333 77.5 -114s28.5 -90.5 28.5 -140.5s-9.5 -96.667 -28.5 -140s-44.833 -81.333 -77.5 -114s-71 -58.334 -115 -77.001s-91 -28 -141 -28s-97.167 9.33301 -141.5 28
s-82.833 44.334 -115.5 77.001s-58.5 70.667 -77.5 114s-28.5 90 -28.5 140zM143.996 349.999c0 -40.667 7.5 -78.667 22.5 -114s35.5 -66 61.5 -92s56.5 -46.5 91.5 -61.5s72.167 -22.5 111.5 -22.5s76.333 7.5 111 22.5s65 35.5 91 61.5s46.5 56.667 61.5 92
s22.5 73.333 22.5 114s-7.5 78.667 -22.5 114s-35.5 66.166 -61.5 92.499s-56.333 47 -91 62s-71.667 22.5 -111 22.5s-76.5 -7.5 -111.5 -22.5s-65.5 -35.667 -91.5 -62s-46.5 -57.166 -61.5 -92.499s-22.5 -73.333 -22.5 -114z" />
    <glyph glyph-name="ordfeminine" unicode="&#xaa;" horiz-adv-x="344" 
d="M42 608c5.33301 30.667 20.5 54.001 45.5 70.001s53.167 24 84.5 24c40.667 0 71.667 -10.167 93 -30.5s32 -45.833 32 -76.5v-195h-57l-4 36c-8 -10.667 -19.5 -20.167 -34.5 -28.5s-36.167 -12.5 -63.5 -12.5c-14.667 0 -28.5 1.66699 -41.5 5
s-24.5 8.83301 -34.5 16.5s-18 17.5 -24 29.5s-9 26.667 -9 44c0 31.333 11.667 55.333 35 72s59 25 107 25h64v8c0 15.333 -5.16699 27.833 -15.5 37.5s-26.166 14.5 -47.499 14.5c-16.667 0 -30.834 -3.33301 -42.501 -10s-19.167 -16.334 -22.5 -29.001h-65zM154 448.001
c21.333 0 40.167 5.66797 56.5 17.001s24.5 26.666 24.5 45.999v26h-55c-58.667 0 -88 -15 -88 -45c0 -15.333 5.66699 -26.5 17 -33.5s26.333 -10.5 45 -10.5z" />
    <glyph glyph-name="guillemotleft" unicode="&#xab;" horiz-adv-x="534" 
d="M268 151l-64 -68l-171 202l171 202l64 -68l-112 -134zM489 151l-65 -68l-170 202l170 202l65 -68l-112 -134z" />
    <glyph glyph-name="logicalnot" unicode="&#xac;" 
d="M528 331v-281h-98v190h-375v91h473z" />
    <glyph glyph-name="uni00AD" unicode="&#xad;" horiz-adv-x="249" 
d="M248 351v-94h-247v94h247z" />
    <glyph glyph-name="registered" unicode="&#xae;" horiz-adv-x="861" 
d="M384 175l-67 0.000976562v352h127c17.333 0 33.666 -2 48.999 -6s28.833 -10.333 40.5 -19s20.834 -19.834 27.501 -33.501s10 -30.167 10 -49.5c0 -30 -7.5 -53 -22.5 -69s-33.833 -26.667 -56.5 -32l97 -143h-74l-93 138h-38v-138zM445 373.001
c15.333 0 28.667 3.33301 40 10s17 18.667 17 36c0 15.333 -5.5 26.5 -16.5 33.5s-24.833 10.5 -41.5 10.5h-60v-90h61zM68.001 350.001c0 50 9.5 96.833 28.5 140.5s44.833 81.667 77.5 114s71.167 58 115.5 77s91.5 28.5 141.5 28.5s97 -9.5 141 -28.5
s82.333 -44.667 115 -77s58.5 -70.333 77.5 -114s28.5 -90.5 28.5 -140.5s-9.5 -96.667 -28.5 -140s-44.833 -81.333 -77.5 -114s-71 -58.334 -115 -77.001s-91 -28 -141 -28s-97.167 9.33301 -141.5 28s-82.833 44.334 -115.5 77.001s-58.5 70.667 -77.5 114
s-28.5 90 -28.5 140zM144.001 350.001c0 -40.667 7.5 -78.667 22.5 -114s35.5 -66 61.5 -92s56.5 -46.5 91.5 -61.5s72.167 -22.5 111.5 -22.5s76.333 7.5 111 22.5s65 35.5 91 61.5s46.5 56.667 61.5 92s22.5 73.333 22.5 114s-7.5 78.667 -22.5 114
s-35.5 66.166 -61.5 92.499s-56.333 47 -91 62s-71.667 22.5 -111 22.5s-76.5 -7.5 -111.5 -22.5s-65.5 -35.667 -91.5 -62s-46.5 -57.166 -61.5 -92.499s-22.5 -73.333 -22.5 -114z" />
    <glyph glyph-name="macron" unicode="&#xaf;" horiz-adv-x="314" 
d="M7 588h300v-79h-300v79z" />
    <glyph glyph-name="degree" unicode="&#xb0;" horiz-adv-x="400" 
d="M200 712c20.667 0 40.166 -4.00195 58.499 -12.002s34 -18.667 47 -32s23.333 -28.666 31 -45.999s11.5 -35.666 11.5 -54.999c0 -20 -3.83301 -39 -11.5 -57s-18.167 -33.5 -31.5 -46.5s-29 -23.333 -47 -31s-37.333 -11.5 -58 -11.5
c-21.333 0 -41.166 3.83301 -59.499 11.5s-34 18 -47 31s-23.167 28.333 -30.5 46s-11 36.5 -11 56.5s3.5 38.833 10.5 56.5s17 33.167 30 46.5s28.667 23.833 47 31.5s38.5 11.5 60.5 11.5zM199.999 484.998c20.667 0 38.665 7.83301 53.998 23.5s23 35.167 23 58.5
s-7.66699 42.833 -23 58.5s-33.666 23.5 -54.999 23.5s-39.666 -7.83301 -54.999 -23.5s-23 -35.167 -23 -58.5s7.66699 -42.833 23 -58.5s34 -23.5 56 -23.5z" />
    <glyph glyph-name="plusminus" unicode="&#xb1;" 
d="M349 542v-169h183v-91h-183v-174h-98v174h-183v91h183v169h98zM532 71v-71h-464v71h464z" />
    <glyph glyph-name="twosuperior" unicode="&#xb2;" horiz-adv-x="347" 
d="M306 597l-0.000976562 -71.998h-268v49l129 121c4 4 9 8.66699 15 14s11.667 11.166 17 17.499s10 13 14 20s6 14.167 6 21.5c0 12 -4.5 22 -13.5 30s-20.167 12 -33.5 12c-19.333 0 -33.166 -6 -41.499 -18s-12.5 -24 -12.5 -36v-5h-77
c0 1.33301 -0.166992 2.83301 -0.5 4.5s-0.5 3.16699 -0.5 4.5c0 16.667 3 32.5 9 47.5s14.5 28.167 25.5 39.5s24.5 20.166 40.5 26.499s34.333 9.5 55 9.5c40.667 0 72.5 -10.833 95.5 -32.5s34.5 -48.834 34.5 -81.501c0 -12.667 -2.33301 -24.5 -7 -35.5
s-10.667 -21.167 -18 -30.5s-15.5 -18.166 -24.5 -26.499l-26.5 -24.5l-60 -55h142z" />
    <glyph glyph-name="threesuperior" unicode="&#xb3;" horiz-adv-x="343" 
d="M157 734c19.333 0.666992 33.332 4.33594 41.999 11.0029s13 16.667 13 30c0 11.333 -4.5 20.166 -13.5 26.499s-19.833 9.5 -32.5 9.5c-14 0 -26 -3.5 -36 -10.5s-14.667 -18.833 -14 -35.5h-78c0.666992 35.333 13.167 64 37.5 86s55.5 33 93.5 33
s68.167 -9.5 90.5 -28.5s33.5 -42.5 33.5 -70.5c0 -18 -4.16699 -33.667 -12.5 -47s-19.833 -23.333 -34.5 -30c16.667 -5.33301 30.167 -15 40.5 -29s15.5 -31 15.5 -51c0 -14 -3.16699 -27.5 -9.5 -40.5s-15.333 -24.333 -27 -34s-25.5 -17.334 -41.5 -23.001
s-34 -8.5 -54 -8.5c-18 0 -35.5 2.5 -52.5 7.5s-32 12.5 -45 22.5s-23.167 22.667 -30.5 38s-11 33.333 -11 54h76c0 -18.667 6 -31.667 18 -39s26 -11 42 -11c16.667 0 29.834 4.16699 39.501 12.5s14.5 18.166 14.5 29.499c0 13.333 -4.66699 23.833 -14 31.5
s-26 12.167 -50 13.5v53z" />
    <glyph glyph-name="acute" unicode="&#xb4;" horiz-adv-x="314" 
d="M274 611l-188 -120l-48 51l178 151z" />
    <glyph glyph-name="mu" unicode="&#xb5;" horiz-adv-x="505" 
d="M58 400l99.001 -0.000976562v-238c0 -54.667 27 -82 81 -82c26 0 48.5 7.83301 67.5 23.5s33.167 33.167 42.5 52.5v244h99v-400h-92l-7 56c-11.333 -17.333 -26 -32.666 -44 -45.999s-40.333 -20 -67 -20c-36.667 0 -63.334 9.66699 -80.001 29v-269h-99v650z" />
    <glyph glyph-name="paragraph" unicode="&#xb6;" horiz-adv-x="553" 
d="M238 320c-48.667 5.33301 -87.001 24.3311 -115.001 56.998s-42 74.334 -42 125.001c0 66.667 17.333 116.334 52 149.001s90.334 49 167.001 49h176v-93h-90c-14.667 0 -25.5 -4.33301 -32.5 -13s-10.5 -19.667 -10.5 -33v-761h-105v520z" />
    <glyph glyph-name="periodcentered" unicode="&#xb7;" horiz-adv-x="238" 
d="M51 311c0 19.333 6.5 35.666 19.5 48.999s29.167 20 48.5 20c18.667 0 34.667 -6.66699 48 -20s20 -29.666 20 -48.999c0 -18.667 -6.66699 -34.5 -20 -47.5s-29.333 -19.5 -48 -19.5c-19.333 0 -35.5 6.5 -48.5 19.5s-19.5 28.833 -19.5 47.5z" />
    <glyph glyph-name="cedilla" unicode="&#xb8;" horiz-adv-x="314" 
d="M105 -259l-68 39l88 185l99 -34z" />
    <glyph glyph-name="onesuperior" unicode="&#xb9;" horiz-adv-x="275" 
d="M122 787l-68 -39l-36 61l122 72h63v-356h-81v262z" />
    <glyph glyph-name="ordmasculine" unicode="&#xba;" horiz-adv-x="371" 
d="M34 547c0 21.333 3.83301 41.333 11.5 60s18.334 35 32.001 49s29.834 25.167 48.501 33.5s38.667 12.5 60 12.5s41.166 -4.16699 59.499 -12.5s34.333 -19.5 48 -33.5s24.334 -30.333 32.001 -49s11.5 -38.667 11.5 -60s-3.83301 -41.166 -11.5 -59.499
s-18.334 -34.5 -32.001 -48.5s-29.667 -25 -48 -33s-38.166 -12 -59.499 -12s-41.333 4 -60 12s-34.834 19 -48.501 33s-24.334 30.167 -32.001 48.5s-11.5 38.166 -11.5 59.499zM98 547c0 -26 8.5 -47.833 25.5 -65.5s37.833 -26.5 62.5 -26.5s45.5 8.83301 62.5 26.5
s25.5 39.5 25.5 65.5c0 27.333 -8.5 49.833 -25.5 67.5s-37.833 26.5 -62.5 26.5s-45.5 -8.83301 -62.5 -26.5s-25.5 -40.167 -25.5 -67.5z" />
    <glyph glyph-name="guillemotright" unicode="&#xbb;" horiz-adv-x="534" 
d="M157 285l-112 134l65 68l170 -202l-170 -202l-65 68zM379 285l-113 134l65 68l170 -202l-170 -202l-65 68z" />
    <glyph glyph-name="onequarter" unicode="&#xbc;" horiz-adv-x="844" 
d="M164 609l-68 -39l-36 61l122 72h63v-356h-81v262zM766 122v-68h-49v-54h-79v54h-171v57l186 245h64v-234h49zM638 230l-83 -108h83v108zM258 -31l-78 45l407 702l78 -44z" />
    <glyph glyph-name="onehalf" unicode="&#xbd;" horiz-adv-x="844" 
d="M258 -31l-78 45l407 702l78 -44zM777 72l-0.000976562 -71.998h-268v49l129 121c4 4 9 8.66699 15 14s11.667 11.166 17 17.499s10 13 14 20s6 14.167 6 21.5c0 12 -4.5 22 -13.5 30s-20.167 12 -33.5 12c-19.333 0 -33.166 -6 -41.499 -18s-12.5 -24 -12.5 -36v-5h-77
c0 1.33301 -0.166992 2.83301 -0.5 4.5s-0.5 3.16699 -0.5 4.5c0 16.667 3 32.5 9 47.5s14.5 28.167 25.5 39.5s24.5 20.166 40.5 26.499s34.333 9.5 55 9.5c40.667 0 72.5 -10.833 95.5 -32.5s34.5 -48.834 34.5 -81.501c0 -12.667 -2.33301 -24.5 -7 -35.5
s-10.667 -21.167 -18 -30.5s-15.5 -18.166 -24.5 -26.499l-26.5 -24.5l-60 -55h142zM163.999 609.002l-68 -39l-36 61l122 72h63v-356h-81v262z" />
    <glyph glyph-name="threequarters" unicode="&#xbe;" horiz-adv-x="844" 
d="M158 555c19.333 0.666992 33.332 4.33594 41.999 11.0029s13 16.667 13 30c0 11.333 -4.5 20.166 -13.5 26.499s-19.833 9.5 -32.5 9.5c-14 0 -26 -3.5 -36 -10.5s-14.667 -18.833 -14 -35.5h-78c0.666992 35.333 13.167 64 37.5 86s55.5 33 93.5 33
s68.167 -9.5 90.5 -28.5s33.5 -42.5 33.5 -70.5c0 -18 -4.16699 -33.667 -12.5 -47s-19.833 -23.333 -34.5 -30c16.667 -5.33301 30.167 -15 40.5 -29s15.5 -31 15.5 -51c0 -14 -3.16699 -27.5 -9.5 -40.5s-15.333 -24.333 -27 -34s-25.5 -17.334 -41.5 -23.001
s-34 -8.5 -54 -8.5c-18 0 -35.5 2.5 -52.5 7.5s-32 12.5 -45 22.5s-23.167 22.667 -30.5 38s-11 33.333 -11 54h76c0 -18.667 6 -31.667 18 -39s26 -11 42 -11c16.667 0 29.834 4.16699 39.501 12.5s14.5 18.166 14.5 29.499c0 13.333 -4.66699 23.833 -14 31.5
s-26 12.167 -50 13.5v53zM257.999 -30.998l-78 45l407 702l78 -44zM765.999 122.002v-68h-49v-54h-79v54h-171v57l186 245h64v-234h49zM637.999 230.002l-83 -108h83v108z" />
    <glyph glyph-name="questiondown" unicode="&#xbf;" horiz-adv-x="516" 
d="M284 211l0.00195312 -123.999c-18.667 -10 -37.5 -21.167 -56.5 -33.5s-36.333 -26 -52 -41s-28.334 -31.5 -38.001 -49.5s-14.5 -37.333 -14.5 -58c0 -33.333 10.667 -60.833 32 -82.5s51.333 -32.5 90 -32.5c44 0 77.167 11.833 99.5 35.5s31.833 58.167 28.5 103.5
h103c3.33301 -34.667 -0.166992 -66.334 -10.5 -95.001s-25.833 -53.334 -46.5 -74.001s-45.667 -36.667 -75 -48s-61.333 -17 -96 -17c-36 0 -68.167 5.5 -96.5 16.5s-52.5 26.167 -72.5 45.5s-35.167 42 -45.5 68s-15.5 54.333 -15.5 85c0 26.667 5 51.334 15 74.001
s22.667 43.167 38 61.5s32.666 34.5 51.999 48.5s38.333 26 57 36v81h104zM298.002 346.001c0 -18.667 -6.5 -34.834 -19.5 -48.501s-29.167 -20.5 -48.5 -20.5c-18.667 0 -34.667 6.83301 -48 20.5s-20 29.834 -20 48.501s6.66699 34.5 20 47.5s29.333 19.5 48 19.5
c19.333 0 35.5 -6.5 48.5 -19.5s19.5 -28.833 19.5 -47.5z" />
    <glyph glyph-name="Agrave" unicode="&#xc0;" horiz-adv-x="708" 
d="M385 711l315 -711h-114l-70 160h-323l-70 -160h-115l317 711h60zM235 257h239l-119 275zM294 933l178 -136l-48 -45l-188 107z" />
    <glyph glyph-name="Aacute" unicode="&#xc1;" horiz-adv-x="708" 
d="M385 711l315 -711h-114l-70 160h-323l-70 -160h-115l317 711h60zM235 257h239l-119 275zM472 859l-188 -107l-48 45l178 136z" />
    <glyph glyph-name="Acircumflex" unicode="&#xc2;" horiz-adv-x="708" 
d="M385 711l315 -711h-114l-70 160h-323l-70 -160h-115l317 711h60zM235 257h239l-119 275zM507 801l-45 -49l-108 66l-108 -67l-45 50l153 106z" />
    <glyph glyph-name="Atilde" unicode="&#xc3;" horiz-adv-x="708" 
d="M385 711l315 -711h-114l-70 160h-323l-70 -160h-115l317 711h60zM235 257h239l-119 275zM243 756l-28.501 19.499l-28.5 19.5c9.33301 21.333 22.5 39.5 39.5 54.5s36.833 22.5 59.5 22.5c12.667 0 24.834 -2.16699 36.501 -6.5s23 -9.16602 34 -14.499
s21.667 -10.166 32 -14.499s20.833 -6.5 31.5 -6.5s20 4.66699 28 14s14 20.333 18 33l29.5 -18.5l28.5 -18.5c-8.66699 -22 -21.834 -40.5 -39.501 -55.5s-37.5 -22.5 -59.5 -22.5c-12.667 0 -24.5 2.16699 -35.5 6.5s-21.667 9.16602 -32 14.499
s-20.666 10.166 -30.999 14.499s-20.833 6.5 -31.5 6.5c-13.333 0 -24 -4.66699 -32 -14s-14.333 -20.666 -19 -33.999z" />
    <glyph glyph-name="Adieresis" unicode="&#xc4;" horiz-adv-x="708" 
d="M385 711l315 -711h-114l-70 160h-323l-70 -160h-115l317 711h60zM235 257h239l-119 275zM182 813c0 15.333 5.66699 28.333 17 39s25.666 16 42.999 16s31.666 -5.33301 42.999 -16s17 -23.667 17 -39s-5.66699 -28.166 -17 -38.499s-25.666 -15.5 -42.999 -15.5
s-31.666 5.16699 -42.999 15.5s-17 23.166 -17 38.499zM406 813c0 15.333 5.66699 28.333 17 39s25.666 16 42.999 16s31.666 -5.33301 42.999 -16s17 -23.667 17 -39s-5.66699 -28.166 -17 -38.499s-25.666 -15.5 -42.999 -15.5s-31.666 5.16699 -42.999 15.5
s-17 23.166 -17 38.499z" />
    <glyph glyph-name="Aring" unicode="&#xc5;" horiz-adv-x="708" 
d="M385 711l315 -711h-114l-70 160h-323l-70 -160h-115l317 711h60zM235 257h239l-119 275zM354 930c14 0 27.333 -2.5 40 -7.5s23.834 -11.667 33.501 -20s17.167 -18 22.5 -29s8 -22.5 8 -34.5s-2.66699 -23.5 -8 -34.5s-12.833 -20.667 -22.5 -29
s-20.834 -15 -33.501 -20s-26 -7.5 -40 -7.5s-27.333 2.5 -40 7.5s-23.834 11.667 -33.501 20s-17.167 18 -22.5 29s-8 22.5 -8 34.5s2.66699 23.5 8 34.5s12.833 20.667 22.5 29s20.834 15 33.501 20s26 7.5 40 7.5zM354 882c-13.333 0 -24.5 -4.33301 -33.5 -13
s-13.5 -18.667 -13.5 -30s4.5 -21.333 13.5 -30s20.167 -13 33.5 -13s24.5 4.33301 33.5 13s13.5 18.667 13.5 30s-4.5 21.333 -13.5 30s-20.167 13 -33.5 13z" />
    <glyph glyph-name="AE" unicode="&#xc6;" horiz-adv-x="1009" 
d="M601 603v-189h330v-98h-330v-219h358v-97h-467v165h-245l-117 -165h-122l498 700h453v-97h-358zM492 260v248l-177 -248h177z" />
    <glyph glyph-name="Ccedilla" unicode="&#xc7;" horiz-adv-x="760" 
d="M42 350c0 49.333 8.99902 95.8262 26.999 139.493s42.833 81.834 74.5 114.501s68.667 58.5 111 77.5s87.833 28.5 136.5 28.5c42.667 0 81.834 -6.16699 117.501 -18.5s67.5 -29.5 95.5 -51.5s52 -48 72 -78s35.333 -62.667 46 -98h-116
c-6.66699 18.667 -16.334 36.834 -29.001 54.501s-28 33 -46 46s-38.5 23.5 -61.5 31.5s-48.167 12 -75.5 12c-34 0 -65.833 -6.66699 -95.5 -20s-55.334 -31.666 -77.001 -54.999s-38.667 -50.666 -51 -81.999s-18.5 -65 -18.5 -101c0 -36.667 6.16699 -70.667 18.5 -102
s29.333 -58.666 51 -81.999s47.334 -41.666 77.001 -54.999s61.5 -20 95.5 -20c27.333 0 52.833 4 76.5 12s44.834 18.667 63.501 32s34.334 29 47.001 47s21.667 37 27 57h116c-9.33301 -36 -24 -69.167 -44 -99.5s-44.167 -56.5 -72.5 -78.5s-60.833 -39.167 -97.5 -51.5
s-76.334 -18.5 -119.001 -18.5c-48.667 0 -94.167 9.33301 -136.5 28s-79.333 44.334 -111 77.001s-56.5 70.667 -74.5 114s-27 90 -27 140zM355.999 -259.007l-68 39l88 185l99 -34z" />
    <glyph glyph-name="Egrave" unicode="&#xc8;" horiz-adv-x="589" 
d="M183 599v-185h323v-101h-323v-212h356v-101h-465v700h465v-101h-356zM264 933l178 -136l-48 -45l-188 107z" />
    <glyph glyph-name="Eacute" unicode="&#xc9;" horiz-adv-x="589" 
d="M183 599v-185h323v-101h-323v-212h356v-101h-465v700h465v-101h-356zM442 859l-188 -107l-48 45l178 136z" />
    <glyph glyph-name="Ecircumflex" unicode="&#xca;" horiz-adv-x="589" 
d="M183 599v-185h323v-101h-323v-212h356v-101h-465v700h465v-101h-356zM477 801l-45 -49l-108 66l-108 -67l-45 50l153 106z" />
    <glyph glyph-name="Edieresis" unicode="&#xcb;" horiz-adv-x="589" 
d="M183 599v-185h323v-101h-323v-212h356v-101h-465v700h465v-101h-356zM152 813c0 15.333 5.66699 28.333 17 39s25.666 16 42.999 16s31.666 -5.33301 42.999 -16s17 -23.667 17 -39s-5.66699 -28.166 -17 -38.499s-25.666 -15.5 -42.999 -15.5
s-31.666 5.16699 -42.999 15.5s-17 23.166 -17 38.499zM376 813c0 15.333 5.66699 28.333 17 39s25.666 16 42.999 16s31.666 -5.33301 42.999 -16s17 -23.667 17 -39s-5.66699 -28.166 -17 -38.499s-25.666 -15.5 -42.999 -15.5s-31.666 5.16699 -42.999 15.5
s-17 23.166 -17 38.499z" />
    <glyph glyph-name="Igrave" unicode="&#xcc;" horiz-adv-x="271" 
d="M190 0h-109v700h109v-700zM75 933l178 -136l-48 -45l-188 107z" />
    <glyph glyph-name="Iacute" unicode="&#xcd;" horiz-adv-x="271" 
d="M190 0h-109v700h109v-700zM253 859l-188 -107l-48 45l178 136z" />
    <glyph glyph-name="Icircumflex" unicode="&#xce;" horiz-adv-x="271" 
d="M190 0h-109v700h109v-700zM288 801l-45 -49l-108 66l-108 -67l-45 50l153 106z" />
    <glyph glyph-name="Idieresis" unicode="&#xcf;" horiz-adv-x="271" 
d="M190 0h-109v700h109v-700zM-37 813c0 15.333 5.66699 28.333 17 39s25.666 16 42.999 16s31.666 -5.33301 42.999 -16s17 -23.667 17 -39s-5.66699 -28.166 -17 -38.499s-25.666 -15.5 -42.999 -15.5s-31.666 5.16699 -42.999 15.5s-17 23.166 -17 38.499zM187 813
c0 15.333 5.66699 28.333 17 39s25.666 16 42.999 16s31.666 -5.33301 42.999 -16s17 -23.667 17 -39s-5.66699 -28.166 -17 -38.499s-25.666 -15.5 -42.999 -15.5s-31.666 5.16699 -42.999 15.5s-17 23.166 -17 38.499z" />
    <glyph glyph-name="Eth" unicode="&#xd0;" horiz-adv-x="721" 
d="M74 275l-71 -0.00195312v90h71v335h258c54.667 0 103.334 -8.83301 146.001 -26.5s78.667 -42.167 108 -73.5s51.833 -68.166 67.5 -110.499s23.5 -88.166 23.5 -137.499c0 -50.667 -7.33301 -97.5 -22 -140.5s-36.334 -80.167 -65.001 -111.5s-64 -55.833 -106 -73.5
s-90 -26.5 -144 -26.5h-266v275zM340 100.998c38 0 71.167 6.16699 99.5 18.5s52 29.5 71 51.5s33.333 48.333 43 79s14.5 64.667 14.5 102c0 36 -5.16699 69 -15.5 99s-25.5 56 -45.5 78s-44.667 39.167 -74 51.5s-63 18.5 -101 18.5h-149v-234h160v-90h-160v-174h157z" />
    <glyph glyph-name="Ntilde" unicode="&#xd1;" horiz-adv-x="733" 
d="M659 -18h-68l-408 516v-498h-109v711h64l413 -520v509h108v-718zM255 756l-28.501 19.499l-28.5 19.5c9.33301 21.333 22.5 39.5 39.5 54.5s36.833 22.5 59.5 22.5c12.667 0 24.834 -2.16699 36.501 -6.5s23 -9.16602 34 -14.499s21.667 -10.166 32 -14.499
s20.833 -6.5 31.5 -6.5s20 4.66699 28 14s14 20.333 18 33l29.5 -18.5l28.5 -18.5c-8.66699 -22 -21.834 -40.5 -39.501 -55.5s-37.5 -22.5 -59.5 -22.5c-12.667 0 -24.5 2.16699 -35.5 6.5s-21.667 9.16602 -32 14.499s-20.666 10.166 -30.999 14.499
s-20.833 6.5 -31.5 6.5c-13.333 0 -24 -4.66699 -32 -14s-14.333 -20.666 -19 -33.999z" />
    <glyph glyph-name="Ograve" unicode="&#xd2;" horiz-adv-x="784" 
d="M42 350c0 49.333 9.16699 95.833 27.5 139.5s43.166 81.834 74.499 114.501s68.333 58.5 111 77.5s88 28.5 136 28.5s93.333 -9.5 136 -28.5s79.667 -44.833 111 -77.5s56.166 -70.834 74.499 -114.501s27.5 -90.167 27.5 -139.5c0 -50 -9.16699 -96.667 -27.5 -140
s-43.166 -81.333 -74.499 -114s-68.333 -58.334 -111 -77.001s-88 -28 -136 -28s-93.333 9.33301 -136 28s-79.667 44.334 -111 77.001s-56.166 70.667 -74.499 114s-27.5 90 -27.5 140zM152 350c0 -36.667 6.16699 -70.667 18.5 -102s29.333 -58.5 51 -81.5
s47 -41.167 76 -54.5s60.167 -20 93.5 -20s64.5 6.66699 93.5 20s54.333 31.5 76 54.5s38.834 50.167 51.501 81.5s19 65.333 19 102c0 36 -6.33301 69.667 -19 101s-29.834 58.666 -51.501 81.999s-47 41.666 -76 54.999s-60.167 20 -93.5 20s-64.5 -6.66699 -93.5 -20
s-54.333 -31.666 -76 -54.999s-38.667 -50.666 -51 -81.999s-18.5 -65 -18.5 -101zM332 933l178 -136l-48 -45l-188 107z" />
    <glyph glyph-name="Oacute" unicode="&#xd3;" horiz-adv-x="784" 
d="M42 350c0 49.333 9.16699 95.833 27.5 139.5s43.166 81.834 74.499 114.501s68.333 58.5 111 77.5s88 28.5 136 28.5s93.333 -9.5 136 -28.5s79.667 -44.833 111 -77.5s56.166 -70.834 74.499 -114.501s27.5 -90.167 27.5 -139.5c0 -50 -9.16699 -96.667 -27.5 -140
s-43.166 -81.333 -74.499 -114s-68.333 -58.334 -111 -77.001s-88 -28 -136 -28s-93.333 9.33301 -136 28s-79.667 44.334 -111 77.001s-56.166 70.667 -74.499 114s-27.5 90 -27.5 140zM152 350c0 -36.667 6.16699 -70.667 18.5 -102s29.333 -58.5 51 -81.5
s47 -41.167 76 -54.5s60.167 -20 93.5 -20s64.5 6.66699 93.5 20s54.333 31.5 76 54.5s38.834 50.167 51.501 81.5s19 65.333 19 102c0 36 -6.33301 69.667 -19 101s-29.834 58.666 -51.501 81.999s-47 41.666 -76 54.999s-60.167 20 -93.5 20s-64.5 -6.66699 -93.5 -20
s-54.333 -31.666 -76 -54.999s-38.667 -50.666 -51 -81.999s-18.5 -65 -18.5 -101zM510 859l-188 -107l-48 45l178 136z" />
    <glyph glyph-name="Ocircumflex" unicode="&#xd4;" horiz-adv-x="784" 
d="M42 350c0 49.333 9.16699 95.833 27.5 139.5s43.166 81.834 74.499 114.501s68.333 58.5 111 77.5s88 28.5 136 28.5s93.333 -9.5 136 -28.5s79.667 -44.833 111 -77.5s56.166 -70.834 74.499 -114.501s27.5 -90.167 27.5 -139.5c0 -50 -9.16699 -96.667 -27.5 -140
s-43.166 -81.333 -74.499 -114s-68.333 -58.334 -111 -77.001s-88 -28 -136 -28s-93.333 9.33301 -136 28s-79.667 44.334 -111 77.001s-56.166 70.667 -74.499 114s-27.5 90 -27.5 140zM152 350c0 -36.667 6.16699 -70.667 18.5 -102s29.333 -58.5 51 -81.5
s47 -41.167 76 -54.5s60.167 -20 93.5 -20s64.5 6.66699 93.5 20s54.333 31.5 76 54.5s38.834 50.167 51.501 81.5s19 65.333 19 102c0 36 -6.33301 69.667 -19 101s-29.834 58.666 -51.501 81.999s-47 41.666 -76 54.999s-60.167 20 -93.5 20s-64.5 -6.66699 -93.5 -20
s-54.333 -31.666 -76 -54.999s-38.667 -50.666 -51 -81.999s-18.5 -65 -18.5 -101zM545 801l-45 -49l-108 66l-108 -67l-45 50l153 106z" />
    <glyph glyph-name="Otilde" unicode="&#xd5;" horiz-adv-x="784" 
d="M42 350c0 49.333 9.16699 95.833 27.5 139.5s43.166 81.834 74.499 114.501s68.333 58.5 111 77.5s88 28.5 136 28.5s93.333 -9.5 136 -28.5s79.667 -44.833 111 -77.5s56.166 -70.834 74.499 -114.501s27.5 -90.167 27.5 -139.5c0 -50 -9.16699 -96.667 -27.5 -140
s-43.166 -81.333 -74.499 -114s-68.333 -58.334 -111 -77.001s-88 -28 -136 -28s-93.333 9.33301 -136 28s-79.667 44.334 -111 77.001s-56.166 70.667 -74.499 114s-27.5 90 -27.5 140zM152 350c0 -36.667 6.16699 -70.667 18.5 -102s29.333 -58.5 51 -81.5
s47 -41.167 76 -54.5s60.167 -20 93.5 -20s64.5 6.66699 93.5 20s54.333 31.5 76 54.5s38.834 50.167 51.501 81.5s19 65.333 19 102c0 36 -6.33301 69.667 -19 101s-29.834 58.666 -51.501 81.999s-47 41.666 -76 54.999s-60.167 20 -93.5 20s-64.5 -6.66699 -93.5 -20
s-54.333 -31.666 -76 -54.999s-38.667 -50.666 -51 -81.999s-18.5 -65 -18.5 -101zM281 756l-28.501 19.499l-28.5 19.5c9.33301 21.333 22.5 39.5 39.5 54.5s36.833 22.5 59.5 22.5c12.667 0 24.834 -2.16699 36.501 -6.5s23 -9.16602 34 -14.499
s21.667 -10.166 32 -14.499s20.833 -6.5 31.5 -6.5s20 4.66699 28 14s14 20.333 18 33l29.5 -18.5l28.5 -18.5c-8.66699 -22 -21.834 -40.5 -39.501 -55.5s-37.5 -22.5 -59.5 -22.5c-12.667 0 -24.5 2.16699 -35.5 6.5s-21.667 9.16602 -32 14.499
s-20.666 10.166 -30.999 14.499s-20.833 6.5 -31.5 6.5c-13.333 0 -24 -4.66699 -32 -14s-14.333 -20.666 -19 -33.999z" />
    <glyph glyph-name="Odieresis" unicode="&#xd6;" horiz-adv-x="784" 
d="M42 350c0 49.333 9.16699 95.833 27.5 139.5s43.166 81.834 74.499 114.501s68.333 58.5 111 77.5s88 28.5 136 28.5s93.333 -9.5 136 -28.5s79.667 -44.833 111 -77.5s56.166 -70.834 74.499 -114.501s27.5 -90.167 27.5 -139.5c0 -50 -9.16699 -96.667 -27.5 -140
s-43.166 -81.333 -74.499 -114s-68.333 -58.334 -111 -77.001s-88 -28 -136 -28s-93.333 9.33301 -136 28s-79.667 44.334 -111 77.001s-56.166 70.667 -74.499 114s-27.5 90 -27.5 140zM152 350c0 -36.667 6.16699 -70.667 18.5 -102s29.333 -58.5 51 -81.5
s47 -41.167 76 -54.5s60.167 -20 93.5 -20s64.5 6.66699 93.5 20s54.333 31.5 76 54.5s38.834 50.167 51.501 81.5s19 65.333 19 102c0 36 -6.33301 69.667 -19 101s-29.834 58.666 -51.501 81.999s-47 41.666 -76 54.999s-60.167 20 -93.5 20s-64.5 -6.66699 -93.5 -20
s-54.333 -31.666 -76 -54.999s-38.667 -50.666 -51 -81.999s-18.5 -65 -18.5 -101zM220 813c0 15.333 5.66699 28.333 17 39s25.666 16 42.999 16s31.666 -5.33301 42.999 -16s17 -23.667 17 -39s-5.66699 -28.166 -17 -38.499s-25.666 -15.5 -42.999 -15.5
s-31.666 5.16699 -42.999 15.5s-17 23.166 -17 38.499zM444 813c0 15.333 5.66699 28.333 17 39s25.666 16 42.999 16s31.666 -5.33301 42.999 -16s17 -23.667 17 -39s-5.66699 -28.166 -17 -38.499s-25.666 -15.5 -42.999 -15.5s-31.666 5.16699 -42.999 15.5
s-17 23.166 -17 38.499z" />
    <glyph glyph-name="multiply" unicode="&#xd7;" 
d="M520 434l-151 -149l151 -151l-69 -69l-151 150l-151 -150l-69 69l151 151l-151 149l69 70l151 -150l151 150z" />
    <glyph glyph-name="Oslash" unicode="&#xd8;" horiz-adv-x="784" 
d="M42 350c0 49.333 9.16699 95.832 27.5 139.499s43.166 81.834 74.499 114.501s68.333 58.5 111 77.5s88 28.5 136 28.5c25.333 0 49.833 -2.83301 73.5 -8.5s46.167 -13.167 67.5 -22.5l70 121l73 -38l-73 -126c42 -33.333 75.5 -74.666 100.5 -123.999
s37.5 -103.333 37.5 -162c0 -50 -9.16699 -96.667 -27.5 -140s-43.166 -81.333 -74.499 -114s-68.333 -58.334 -111 -77.001s-88 -28 -136 -28c-50 0 -97.333 10.333 -142 31l-71 -122l-71 43l71 122c-42 32.667 -75.167 73.667 -99.5 123s-36.5 103.333 -36.5 162z
M631 349.999c0 39.333 -7.50098 75.5 -22.501 108.5s-35.167 61.167 -60.5 84.5l-248 -433c28 -12 58.333 -18 91 -18c33.333 0 64.5 6.66699 93.5 20s54.333 31.5 76 54.5s38.834 50.167 51.501 81.5s19 65.333 19 102zM151.999 349.999c0 -40 7 -76.334 21 -109.001
s33.333 -60.334 58 -83.001l250 431c-29.333 12.667 -59.333 19 -90 19c-33.333 0 -64.5 -6.66699 -93.5 -20s-54.333 -31.666 -76 -54.999s-38.667 -50.666 -51 -81.999s-18.5 -65 -18.5 -101z" />
    <glyph glyph-name="Ugrave" unicode="&#xd9;" horiz-adv-x="711" 
d="M356 93c30.667 0 57 5 79 15s40 23.833 54 41.5s24.333 38.834 31 63.501s10 51.667 10 81v406h109v-406c0 -44 -5.83301 -84.5 -17.5 -121.5s-29.167 -69 -52.5 -96s-52.666 -48 -87.999 -63s-77 -22.5 -125 -22.5s-89.667 7.5 -125 22.5s-64.833 36 -88.5 63
s-41.334 59 -53.001 96s-17.5 77.5 -17.5 121.5v406h109v-406c0 -29.333 3.33301 -56.333 10 -81s17 -45.834 31 -63.501s32 -31.5 54 -41.5s48.667 -15 80 -15zM295 933l178 -136l-48 -45l-188 107z" />
    <glyph glyph-name="Uacute" unicode="&#xda;" horiz-adv-x="711" 
d="M356 93c30.667 0 57 5 79 15s40 23.833 54 41.5s24.333 38.834 31 63.501s10 51.667 10 81v406h109v-406c0 -44 -5.83301 -84.5 -17.5 -121.5s-29.167 -69 -52.5 -96s-52.666 -48 -87.999 -63s-77 -22.5 -125 -22.5s-89.667 7.5 -125 22.5s-64.833 36 -88.5 63
s-41.334 59 -53.001 96s-17.5 77.5 -17.5 121.5v406h109v-406c0 -29.333 3.33301 -56.333 10 -81s17 -45.834 31 -63.501s32 -31.5 54 -41.5s48.667 -15 80 -15zM473 859l-188 -107l-48 45l178 136z" />
    <glyph glyph-name="Ucircumflex" unicode="&#xdb;" horiz-adv-x="711" 
d="M356 93c30.667 0 57 5 79 15s40 23.833 54 41.5s24.333 38.834 31 63.501s10 51.667 10 81v406h109v-406c0 -44 -5.83301 -84.5 -17.5 -121.5s-29.167 -69 -52.5 -96s-52.666 -48 -87.999 -63s-77 -22.5 -125 -22.5s-89.667 7.5 -125 22.5s-64.833 36 -88.5 63
s-41.334 59 -53.001 96s-17.5 77.5 -17.5 121.5v406h109v-406c0 -29.333 3.33301 -56.333 10 -81s17 -45.834 31 -63.501s32 -31.5 54 -41.5s48.667 -15 80 -15zM508 801l-45 -49l-108 66l-108 -67l-45 50l153 106z" />
    <glyph glyph-name="Udieresis" unicode="&#xdc;" horiz-adv-x="711" 
d="M356 93c30.667 0 57 5 79 15s40 23.833 54 41.5s24.333 38.834 31 63.501s10 51.667 10 81v406h109v-406c0 -44 -5.83301 -84.5 -17.5 -121.5s-29.167 -69 -52.5 -96s-52.666 -48 -87.999 -63s-77 -22.5 -125 -22.5s-89.667 7.5 -125 22.5s-64.833 36 -88.5 63
s-41.334 59 -53.001 96s-17.5 77.5 -17.5 121.5v406h109v-406c0 -29.333 3.33301 -56.333 10 -81s17 -45.834 31 -63.501s32 -31.5 54 -41.5s48.667 -15 80 -15zM183 813c0 15.333 5.66699 28.333 17 39s25.666 16 42.999 16s31.666 -5.33301 42.999 -16s17 -23.667 17 -39
s-5.66699 -28.166 -17 -38.499s-25.666 -15.5 -42.999 -15.5s-31.666 5.16699 -42.999 15.5s-17 23.166 -17 38.499zM407 813c0 15.333 5.66699 28.333 17 39s25.666 16 42.999 16s31.666 -5.33301 42.999 -16s17 -23.667 17 -39s-5.66699 -28.166 -17 -38.499
s-25.666 -15.5 -42.999 -15.5s-31.666 5.16699 -42.999 15.5s-17 23.166 -17 38.499z" />
    <glyph glyph-name="Yacute" unicode="&#xdd;" horiz-adv-x="595" 
d="M479 700h116l-243 -403v-297h-109v297l-243 403h115l182 -308zM415 859l-188 -107l-48 45l178 136z" />
    <glyph glyph-name="Thorn" unicode="&#xde;" horiz-adv-x="568" 
d="M183 0l-108.998 -0.000976562v700h108v-140h102c34 0 66 -3.66699 96 -11s56 -19.166 78 -35.499s39.333 -38 52 -65s19 -60.167 19 -99.5c0 -37.333 -6.16699 -68.833 -18.5 -94.5s-29.333 -46.5 -51 -62.5s-47.334 -27.667 -77.001 -35s-61.834 -11 -96.501 -11h-103
v-146zM286.002 244.999c18.667 0 36.333 1.83301 53 5.5s31 9.5 43 17.5s21.5 18.833 28.5 32.5s10.5 30.5 10.5 50.5s-3.5 37 -10.5 51s-16.5 25.333 -28.5 34s-26.333 15 -43 19s-35 6 -55 6h-102v-216h104z" />
    <glyph glyph-name="germandbls" unicode="&#xdf;" horiz-adv-x="519" 
d="M246 572c-27.333 0 -48.3311 -8.50293 -62.998 -25.5029s-22 -39.833 -22 -68.5v-478h-99v478c0 54 16 97.333 48 130s77.333 49 136 49c30 0 56 -4.66699 78 -14s40.333 -21.5 55 -36.5s25.667 -32 33 -51s11 -37.833 11 -56.5c0 -26 -6.83301 -49.167 -20.5 -69.5
s-29.834 -34.833 -48.501 -43.5c18.667 -5.33301 36 -13.166 52 -23.499s30 -23.166 42 -38.499s21.333 -33 28 -53s10 -42.333 10 -67c0 -33.333 -6.16699 -62.666 -18.5 -87.999s-29.333 -46.666 -51 -63.999s-47.5 -30.833 -77.5 -40.5s-62.333 -15.5 -97 -17.5v89
c43.333 4 78.333 15.667 105 35s40 48.666 40 87.999c0 20 -3.83301 37.5 -11.5 52.5s-18 27.667 -31 38s-28.333 18.5 -46 24.5s-36.5 9.66699 -56.5 11v81c25.333 0.666992 45.166 8.5 59.499 23.5s21.5 33.833 21.5 56.5c0 23.333 -7 42.333 -21 57s-32.667 22 -56 22z
" />
    <glyph glyph-name="agrave" unicode="&#xe0;" horiz-adv-x="459" 
d="M47 283c2 16.667 7.66797 32.668 17.001 48.001s21.666 28.833 36.999 40.5s33.666 21 54.999 28s45 10.5 71 10.5c56 0 99 -13.833 129 -41.5s45 -63.167 45 -106.5v-262h-86l-7 56c-11.333 -17.333 -27 -31.833 -47 -43.5s-47 -17.5 -81 -17.5
c-21.333 0 -40.833 2.83301 -58.5 8.5s-33.167 14 -46.5 25s-23.666 24.167 -30.999 39.5s-11 32.666 -11 51.999c0 43.333 16 75.333 48 96s78.333 31 139 31h88v15c0 17.333 -7 33.5 -21 48.5s-35.333 22.5 -64 22.5c-22.667 0 -42 -4.83301 -58 -14.5
s-24.333 -21.5 -25 -35.5h-93zM198.001 70.001c31.333 0 57.501 7.5 78.501 22.5s31.5 37.167 31.5 66.5v22h-88c-34 0 -58.167 -5.16699 -72.5 -15.5s-21.5 -24.166 -21.5 -41.499c0 -16.667 6.66699 -29.834 20 -39.501s30.666 -14.5 51.999 -14.5zM169.002 693.001
l178 -151l-48 -51l-188 120z" />
    <glyph glyph-name="aacute" unicode="&#xe1;" horiz-adv-x="459" 
d="M47 283c2 16.667 7.66797 32.668 17.001 48.001s21.666 28.833 36.999 40.5s33.666 21 54.999 28s45 10.5 71 10.5c56 0 99 -13.833 129 -41.5s45 -63.167 45 -106.5v-262h-86l-7 56c-11.333 -17.333 -27 -31.833 -47 -43.5s-47 -17.5 -81 -17.5
c-21.333 0 -40.833 2.83301 -58.5 8.5s-33.167 14 -46.5 25s-23.666 24.167 -30.999 39.5s-11 32.666 -11 51.999c0 43.333 16 75.333 48 96s78.333 31 139 31h88v15c0 17.333 -7 33.5 -21 48.5s-35.333 22.5 -64 22.5c-22.667 0 -42 -4.83301 -58 -14.5
s-24.333 -21.5 -25 -35.5h-93zM198.001 70.001c31.333 0 57.501 7.5 78.501 22.5s31.5 37.167 31.5 66.5v22h-88c-34 0 -58.167 -5.16699 -72.5 -15.5s-21.5 -24.166 -21.5 -41.499c0 -16.667 6.66699 -29.834 20 -39.501s30.666 -14.5 51.999 -14.5zM347.002 611.001
l-188 -120l-48 51l178 151z" />
    <glyph glyph-name="acircumflex" unicode="&#xe2;" horiz-adv-x="459" 
d="M47 283c2 16.667 7.66797 32.668 17.001 48.001s21.666 28.833 36.999 40.5s33.666 21 54.999 28s45 10.5 71 10.5c56 0 99 -13.833 129 -41.5s45 -63.167 45 -106.5v-262h-86l-7 56c-11.333 -17.333 -27 -31.833 -47 -43.5s-47 -17.5 -81 -17.5
c-21.333 0 -40.833 2.83301 -58.5 8.5s-33.167 14 -46.5 25s-23.666 24.167 -30.999 39.5s-11 32.666 -11 51.999c0 43.333 16 75.333 48 96s78.333 31 139 31h88v15c0 17.333 -7 33.5 -21 48.5s-35.333 22.5 -64 22.5c-22.667 0 -42 -4.83301 -58 -14.5
s-24.333 -21.5 -25 -35.5h-93zM198.001 70.001c31.333 0 57.501 7.5 78.501 22.5s31.5 37.167 31.5 66.5v22h-88c-34 0 -58.167 -5.16699 -72.5 -15.5s-21.5 -24.166 -21.5 -41.499c0 -16.667 6.66699 -29.834 20 -39.501s30.666 -14.5 51.999 -14.5zM382.002 546.001
l-45 -55l-108 74l-108 -75l-45 56l153 118z" />
    <glyph glyph-name="atilde" unicode="&#xe3;" horiz-adv-x="459" 
d="M47 283c2 16.667 7.66797 32.668 17.001 48.001s21.666 28.833 36.999 40.5s33.666 21 54.999 28s45 10.5 71 10.5c56 0 99 -13.833 129 -41.5s45 -63.167 45 -106.5v-262h-86l-7 56c-11.333 -17.333 -27 -31.833 -47 -43.5s-47 -17.5 -81 -17.5
c-21.333 0 -40.833 2.83301 -58.5 8.5s-33.167 14 -46.5 25s-23.666 24.167 -30.999 39.5s-11 32.666 -11 51.999c0 43.333 16 75.333 48 96s78.333 31 139 31h88v15c0 17.333 -7 33.5 -21 48.5s-35.333 22.5 -64 22.5c-22.667 0 -42 -4.83301 -58 -14.5
s-24.333 -21.5 -25 -35.5h-93zM198.001 70.001c31.333 0 57.501 7.5 78.501 22.5s31.5 37.167 31.5 66.5v22h-88c-34 0 -58.167 -5.16699 -72.5 -15.5s-21.5 -24.166 -21.5 -41.499c0 -16.667 6.66699 -29.834 20 -39.501s30.666 -14.5 51.999 -14.5zM118.002 497.001
c-9.33301 7.33301 -18.834 14.333 -28.501 21s-19.167 13.667 -28.5 21c9.33301 23.333 22.5 43.5 39.5 60.5s36.833 25.5 59.5 25.5c12.667 0 24.834 -2.5 36.501 -7.5s23 -10.333 34 -16l32 -16c10.333 -5 20.833 -7.5 31.5 -7.5s20 5.33301 28 16s14 23 18 37l58 -42
c-8.66699 -24 -21.834 -44.333 -39.501 -61s-37.5 -25 -59.5 -25c-12.667 0 -24.5 2.5 -35.5 7.5s-21.667 10.333 -32 16s-20.666 11 -30.999 16s-20.833 7.5 -31.5 7.5c-13.333 0 -24 -5.16699 -32 -15.5s-14.333 -22.833 -19 -37.5z" />
    <glyph glyph-name="adieresis" unicode="&#xe4;" horiz-adv-x="459" 
d="M47 283c2 16.667 7.66797 32.668 17.001 48.001s21.666 28.833 36.999 40.5s33.666 21 54.999 28s45 10.5 71 10.5c56 0 99 -13.833 129 -41.5s45 -63.167 45 -106.5v-262h-86l-7 56c-11.333 -17.333 -27 -31.833 -47 -43.5s-47 -17.5 -81 -17.5
c-21.333 0 -40.833 2.83301 -58.5 8.5s-33.167 14 -46.5 25s-23.666 24.167 -30.999 39.5s-11 32.666 -11 51.999c0 43.333 16 75.333 48 96s78.333 31 139 31h88v15c0 17.333 -7 33.5 -21 48.5s-35.333 22.5 -64 22.5c-22.667 0 -42 -4.83301 -58 -14.5
s-24.333 -21.5 -25 -35.5h-93zM198.001 70.001c31.333 0 57.501 7.5 78.501 22.5s31.5 37.167 31.5 66.5v22h-88c-34 0 -58.167 -5.16699 -72.5 -15.5s-21.5 -24.166 -21.5 -41.499c0 -16.667 6.66699 -29.834 20 -39.501s30.666 -14.5 51.999 -14.5zM57.002 564.001
c0 17.333 5.66699 31.666 17 42.999s25.666 17 42.999 17s31.666 -5.66699 42.999 -17s17 -25.666 17 -42.999s-5.66699 -31.666 -17 -42.999s-25.666 -17 -42.999 -17s-31.666 5.66699 -42.999 17s-17 25.666 -17 42.999zM281.002 564.001
c0 17.333 5.66699 31.666 17 42.999s25.666 17 42.999 17s31.666 -5.66699 42.999 -17s17 -25.666 17 -42.999s-5.66699 -31.666 -17 -42.999s-25.666 -17 -42.999 -17s-31.666 5.66699 -42.999 17s-17 25.666 -17 42.999z" />
    <glyph glyph-name="aring" unicode="&#xe5;" horiz-adv-x="459" 
d="M47 283c2 16.667 7.66797 32.668 17.001 48.001s21.666 28.833 36.999 40.5s33.666 21 54.999 28s45 10.5 71 10.5c56 0 99 -13.833 129 -41.5s45 -63.167 45 -106.5v-262h-86l-7 56c-11.333 -17.333 -27 -31.833 -47 -43.5s-47 -17.5 -81 -17.5
c-21.333 0 -40.833 2.83301 -58.5 8.5s-33.167 14 -46.5 25s-23.666 24.167 -30.999 39.5s-11 32.666 -11 51.999c0 43.333 16 75.333 48 96s78.333 31 139 31h88v15c0 17.333 -7 33.5 -21 48.5s-35.333 22.5 -64 22.5c-22.667 0 -42 -4.83301 -58 -14.5
s-24.333 -21.5 -25 -35.5h-93zM198.001 70.001c31.333 0 57.501 7.5 78.501 22.5s31.5 37.167 31.5 66.5v22h-88c-34 0 -58.167 -5.16699 -72.5 -15.5s-21.5 -24.166 -21.5 -41.499c0 -16.667 6.66699 -29.834 20 -39.501s30.666 -14.5 51.999 -14.5zM229.002 694.001
c14 0 27.333 -2.66699 40 -8s23.834 -12.5 33.501 -21.5s17.167 -19.667 22.5 -32s8 -25.166 8 -38.499c0 -14 -2.66699 -27.167 -8 -39.5s-12.833 -23.166 -22.5 -32.499s-20.834 -16.666 -33.501 -21.999s-26 -8 -40 -8s-27.333 2.66699 -40 8
s-23.834 12.666 -33.501 21.999s-17.167 20.166 -22.5 32.499s-8 25.5 -8 39.5c0 13.333 2.66699 26.166 8 38.499s12.833 23 22.5 32s20.834 16.167 33.501 21.5s26 8 40 8zM229.002 641.001c-13.333 0 -24.5 -4.66699 -33.5 -14s-13.5 -20.333 -13.5 -33
c0 -13.333 4.5 -24.833 13.5 -34.5s20.167 -14.5 33.5 -14.5s24.5 4.83301 33.5 14.5s13.5 21.167 13.5 34.5c0 12.667 -4.5 23.667 -13.5 33s-20.167 14 -33.5 14z" />
    <glyph glyph-name="ae" unicode="&#xe6;" horiz-adv-x="743" 
d="M396 178c4 -30 15.5 -55.835 34.5 -77.502s46.5 -32.5 82.5 -32.5c25.333 0 45.833 6 61.5 18s26.167 26.667 31.5 44h92c-9.33301 -41.333 -29.833 -74.833 -61.5 -100.5s-73.5 -38.5 -125.5 -38.5c-38.667 0 -71 7.66699 -97 23s-47.667 36 -65 62
c-13.333 -22 -33.333 -41 -60 -57s-62.667 -24 -108 -24c-22 0 -42 2.83301 -60 8.5s-33.667 13.834 -47 24.501s-23.666 23.5 -30.999 38.5s-11 31.5 -11 49.5c0 42.667 16 73.5 48 92.5s78.333 28.5 139 28.5h86v26c0 20 -6.66699 37 -20 51s-34.666 21 -63.999 21
c-22.667 0 -41.167 -4.66699 -55.5 -14s-23.833 -21.666 -28.5 -36.999h-91c4 16.667 10.833 32.667 20.5 48s22 28.833 37 40.5s32.667 20.834 53 27.501s43.166 10 68.499 10c34 0 63 -6.16699 87 -18.5s41.667 -28.833 53 -49.5c14.667 20 34.834 36.333 60.501 49
s53.167 19 82.5 19s56.166 -5.5 80.499 -16.5s45.166 -25.833 62.499 -44.5s30.833 -39.834 40.5 -63.501s14.5 -47.834 14.5 -72.501v-16c0 -5.33301 -0.666992 -11.666 -2 -18.999h-308zM513 331.998c-30.667 0 -55.667 -9 -75 -27s-32 -40.667 -38 -68h215
c-1.33301 12 -4.5 23.667 -9.5 35s-12 21.5 -21 30.5s-19.5 16.167 -31.5 21.5s-25.333 8 -40 8zM196 69.998c14 0 27.668 2 41.001 6s25 9.66699 35 17s18 16.5 24 27.5s9 23.5 9 37.5v20h-86c-34 0 -58.333 -5.16699 -73 -15.5s-22 -23.833 -22 -40.5
s6.66699 -29.5 20 -38.5s30.666 -13.5 51.999 -13.5z" />
    <glyph glyph-name="ccedilla" unicode="&#xe7;" horiz-adv-x="477" 
d="M248 320c-32 0 -58.835 -11.001 -80.502 -33.001s-32.5 -51 -32.5 -87c0 -37.333 10.833 -67 32.5 -89s48.5 -33 80.5 -33c24.667 0 45.5 5.83301 62.5 17.5s28.167 26.167 33.5 43.5h98c-7.33301 -43.333 -28.166 -78.833 -62.499 -106.5s-78.166 -41.5 -131.499 -41.5
c-31.333 0 -60 5.5 -86 16.5s-48.167 25.833 -66.5 44.5s-32.666 40.667 -42.999 66s-15.5 52.666 -15.5 81.999c0 28.667 5.16699 55.834 15.5 81.501s24.666 48 42.999 67s40.333 34 66 45s54.167 16.5 85.5 16.5c26.667 0 51 -3.83301 73 -11.5s41.5 -18.167 58.5 -31.5
s30.833 -29.166 41.5 -47.499s18 -38.166 22 -59.499h-99c-6 17.333 -17.5 31.666 -34.5 42.999s-37.167 17 -60.5 17zM192.998 -259.001l-68 39l88 185l99 -34z" />
    <glyph glyph-name="egrave" unicode="&#xe8;" horiz-adv-x="484" 
d="M131 172c4 -30 15.8311 -54.499 35.498 -73.499s47.5 -28.5 83.5 -28.5c25.333 0 46.333 5.66699 63 17s27.667 25.666 33 42.999h93c-10 -41.333 -31.167 -74.833 -63.5 -100.5s-74.833 -38.5 -127.5 -38.5c-31.333 0 -60 5.5 -86 16.5s-48.167 25.833 -66.5 44.5
s-32.5 40.667 -42.5 66s-15 52.666 -15 81.999c0 28.667 5 55.834 15 81.501s24.167 48 42.5 67s40.166 34 65.499 45s53.333 16.5 84 16.5s58.334 -5.66699 83.001 -17s45.834 -26.333 63.501 -45s31.334 -40 41.001 -64s14.5 -48.333 14.5 -73v-18.5
c0 -7 -0.666992 -13.833 -2 -20.5h-314zM249.998 330.001c-32 0 -57.832 -8.66797 -77.499 -26.001s-32.167 -39.666 -37.5 -66.999h219c-0.666992 12 -3.66699 23.5 -9 34.5s-12.5 20.833 -21.5 29.5s-19.833 15.667 -32.5 21s-26.334 8 -41.001 8zM181.999 693l178 -151
l-48 -51l-188 120z" />
    <glyph glyph-name="eacute" unicode="&#xe9;" horiz-adv-x="485" 
d="M131 172c4 -30 15.8311 -54.499 35.498 -73.499s47.5 -28.5 83.5 -28.5c25.333 0 46.333 5.66699 63 17s27.667 25.666 33 42.999h93c-10 -41.333 -31.167 -74.833 -63.5 -100.5s-74.833 -38.5 -127.5 -38.5c-31.333 0 -60 5.5 -86 16.5s-48.167 25.833 -66.5 44.5
s-32.5 40.667 -42.5 66s-15 52.666 -15 81.999c0 28.667 5 55.834 15 81.501s24.167 48 42.5 67s40.166 34 65.499 45s53.333 16.5 84 16.5s58.334 -5.66699 83.001 -17s45.834 -26.333 63.501 -45s31.334 -40 41.001 -64s14.5 -48.333 14.5 -73v-18.5
c0 -7 -0.666992 -13.833 -2 -20.5h-314zM249.998 330.001c-32 0 -57.832 -8.66797 -77.499 -26.001s-32.167 -39.666 -37.5 -66.999h219c-0.666992 12 -3.66699 23.5 -9 34.5s-12.5 20.833 -21.5 29.5s-19.833 15.667 -32.5 21s-26.334 8 -41.001 8zM359.999 611l-188 -120
l-48 51l178 151z" />
    <glyph glyph-name="ecircumflex" unicode="&#xea;" horiz-adv-x="484" 
d="M131 172c4 -30 15.8311 -54.499 35.498 -73.499s47.5 -28.5 83.5 -28.5c25.333 0 46.333 5.66699 63 17s27.667 25.666 33 42.999h93c-10 -41.333 -31.167 -74.833 -63.5 -100.5s-74.833 -38.5 -127.5 -38.5c-31.333 0 -60 5.5 -86 16.5s-48.167 25.833 -66.5 44.5
s-32.5 40.667 -42.5 66s-15 52.666 -15 81.999c0 28.667 5 55.834 15 81.501s24.167 48 42.5 67s40.166 34 65.499 45s53.333 16.5 84 16.5s58.334 -5.66699 83.001 -17s45.834 -26.333 63.501 -45s31.334 -40 41.001 -64s14.5 -48.333 14.5 -73v-18.5
c0 -7 -0.666992 -13.833 -2 -20.5h-314zM249.998 330.001c-32 0 -57.832 -8.66797 -77.499 -26.001s-32.167 -39.666 -37.5 -66.999h219c-0.666992 12 -3.66699 23.5 -9 34.5s-12.5 20.833 -21.5 29.5s-19.833 15.667 -32.5 21s-26.334 8 -41.001 8zM394.999 546l-45 -55
l-108 74l-108 -75l-45 56l153 118z" />
    <glyph glyph-name="edieresis" unicode="&#xeb;" horiz-adv-x="484" 
d="M131 172c4 -30 15.8311 -54.499 35.498 -73.499s47.5 -28.5 83.5 -28.5c25.333 0 46.333 5.66699 63 17s27.667 25.666 33 42.999h93c-10 -41.333 -31.167 -74.833 -63.5 -100.5s-74.833 -38.5 -127.5 -38.5c-31.333 0 -60 5.5 -86 16.5s-48.167 25.833 -66.5 44.5
s-32.5 40.667 -42.5 66s-15 52.666 -15 81.999c0 28.667 5 55.834 15 81.501s24.167 48 42.5 67s40.166 34 65.499 45s53.333 16.5 84 16.5s58.334 -5.66699 83.001 -17s45.834 -26.333 63.501 -45s31.334 -40 41.001 -64s14.5 -48.333 14.5 -73v-18.5
c0 -7 -0.666992 -13.833 -2 -20.5h-314zM249.998 330.001c-32 0 -57.832 -8.66797 -77.499 -26.001s-32.167 -39.666 -37.5 -66.999h219c-0.666992 12 -3.66699 23.5 -9 34.5s-12.5 20.833 -21.5 29.5s-19.833 15.667 -32.5 21s-26.334 8 -41.001 8zM69.999 564
c0 17.333 5.66699 31.666 17 42.999s25.666 17 42.999 17s31.666 -5.66699 42.999 -17s17 -25.666 17 -42.999s-5.66699 -31.666 -17 -42.999s-25.666 -17 -42.999 -17s-31.666 5.66699 -42.999 17s-17 25.666 -17 42.999zM293.999 564c0 17.333 5.66699 31.666 17 42.999
s25.666 17 42.999 17s31.666 -5.66699 42.999 -17s17 -25.666 17 -42.999s-5.66699 -31.666 -17 -42.999s-25.666 -17 -42.999 -17s-31.666 5.66699 -42.999 17s-17 25.666 -17 42.999z" />
    <glyph glyph-name="igrave" unicode="&#xec;" horiz-adv-x="234" 
d="M68 400h99v-400h-99v400zM57 693l178 -151l-48 -51l-188 120z" />
    <glyph glyph-name="iacute" unicode="&#xed;" horiz-adv-x="234" 
d="M68 400h99v-400h-99v400zM235 611l-188 -120l-48 51l178 151z" />
    <glyph glyph-name="icircumflex" unicode="&#xee;" horiz-adv-x="234" 
d="M68 400h99v-400h-99v400zM270 546l-45 -55l-108 74l-108 -75l-45 56l153 118z" />
    <glyph glyph-name="idieresis" unicode="&#xef;" horiz-adv-x="234" 
d="M68 400h99v-400h-99v400zM-55 564c0 17.333 5.66699 31.666 17 42.999s25.666 17 42.999 17s31.666 -5.66699 42.999 -17s17 -25.666 17 -42.999s-5.66699 -31.666 -17 -42.999s-25.666 -17 -42.999 -17s-31.666 5.66699 -42.999 17s-17 25.666 -17 42.999zM169 564
c0 17.333 5.66699 31.666 17 42.999s25.666 17 42.999 17s31.666 -5.66699 42.999 -17s17 -25.666 17 -42.999s-5.66699 -31.666 -17 -42.999s-25.666 -17 -42.999 -17s-31.666 5.66699 -42.999 17s-17 25.666 -17 42.999z" />
    <glyph glyph-name="eth" unicode="&#xf0;" horiz-adv-x="523" 
d="M238 529c-16.667 10 -33.6709 18.3311 -51.0039 24.998s-33.666 11.667 -48.999 15l44 79c19.333 -6.66699 41.333 -15.667 66 -27s49.334 -25.666 74.001 -42.999l80 46l33 -58l-60 -34c30 -30 54.833 -66.833 74.5 -110.5s29.5 -96.167 29.5 -157.5
c0 -38 -4.66699 -73.667 -14 -107s-23.5 -62.333 -42.5 -87s-42.667 -44.167 -71 -58.5s-61.5 -21.5 -99.5 -21.5c-30 0 -58.167 5.16699 -84.5 15.5s-49.166 24.666 -68.499 42.999s-34.5 40.5 -45.5 66.5s-16.5 54.667 -16.5 86c0 33.333 5.83301 63 17.5 89
s27.334 47.833 47.001 65.5s42.167 31.167 67.5 40.5s52 14 80 14c16 0 31 -1.83301 45 -5.5s26.5 -8.16699 37.5 -13.5s20.333 -10.666 28 -15.999s13.5 -10 17.5 -14c-7.33301 25.333 -18 48.333 -32 69s-29.667 39.334 -47 56.001l-76 -42l-33 57zM136.996 198.998
c0 -18 3.16602 -34.333 9.49902 -49s14.666 -27.334 24.999 -38.001s22.5 -18.834 36.5 -24.501s28.667 -8.5 44 -8.5c24.667 0 45.167 5.16699 61.5 15.5s29.5 24 39.5 41s17 36.167 21 57.5s6 43.333 6 66c-2 2.66699 -6.33301 7.33398 -13 14.001
s-15.167 13.334 -25.5 20.001s-22.666 12.667 -36.999 18s-30.5 8 -48.5 8c-17.333 0 -33.166 -3 -47.499 -9s-26.833 -14.167 -37.5 -24.5s-19 -22.833 -25 -37.5s-9 -31 -9 -49z" />
    <glyph glyph-name="ntilde" unicode="&#xf1;" horiz-adv-x="516" 
d="M60 400l91.999 -0.000976562l8 -52c13.333 14.667 31.333 28.667 54 42s51 20 85 20c22.667 0 43.834 -3.83301 63.501 -11.5s36.5 -18.5 50.5 -32.5s25 -31.167 33 -51.5s12 -43.166 12 -68.499v-246h-99v225c0 30.667 -7.16699 54.167 -21.5 70.5
s-35.5 24.5 -63.5 24.5c-27.333 0 -50.5 -7.33301 -69.5 -22s-33.833 -31 -44.5 -49v-249h-100v400zM146.999 496.999c-9.33301 7.33301 -18.834 14.333 -28.501 21s-19.167 13.667 -28.5 21c9.33301 23.333 22.5 43.5 39.5 60.5s36.833 25.5 59.5 25.5
c12.667 0 24.834 -2.5 36.501 -7.5s23 -10.333 34 -16l32 -16c10.333 -5 20.833 -7.5 31.5 -7.5s20 5.33301 28 16s14 23 18 37l58 -42c-8.66699 -24 -21.834 -44.333 -39.501 -61s-37.5 -25 -59.5 -25c-12.667 0 -24.5 2.5 -35.5 7.5s-21.667 10.333 -32 16
s-20.666 11 -30.999 16s-20.833 7.5 -31.5 7.5c-13.333 0 -24 -5.16699 -32 -15.5s-14.333 -22.833 -19 -37.5z" />
    <glyph glyph-name="ograve" unicode="&#xf2;" horiz-adv-x="491" 
d="M135 200c0 -36.667 10.333 -66 31 -88s47 -33 79 -33s58.5 11 79.5 33s31.5 51.333 31.5 88s-10.5 66 -31.5 88s-47.5 33 -79.5 33s-58.333 -11 -79 -33s-31 -51.333 -31 -88zM38 200c0 28.667 5.16699 55.834 15.5 81.501s24.666 48 42.999 67s40.166 34 65.499 45
s53 16.5 83 16.5s57.833 -5.5 83.5 -16.5s47.667 -26 66 -45s32.666 -41.333 42.999 -67s15.5 -52.834 15.5 -81.501c0 -29.333 -5.16699 -56.666 -15.5 -81.999s-24.666 -47.333 -42.999 -66s-40.333 -33.5 -66 -44.5s-53.5 -16.5 -83.5 -16.5s-57.667 5.5 -83 16.5
s-47.166 25.833 -65.499 44.5s-32.666 40.667 -42.999 66s-15.5 52.666 -15.5 81.999zM185 693l178 -151l-48 -51l-188 120z" />
    <glyph glyph-name="oacute" unicode="&#xf3;" horiz-adv-x="491" 
d="M135 200c0 -36.667 10.333 -66 31 -88s47 -33 79 -33s58.5 11 79.5 33s31.5 51.333 31.5 88s-10.5 66 -31.5 88s-47.5 33 -79.5 33s-58.333 -11 -79 -33s-31 -51.333 -31 -88zM38 200c0 28.667 5.16699 55.834 15.5 81.501s24.666 48 42.999 67s40.166 34 65.499 45
s53 16.5 83 16.5s57.833 -5.5 83.5 -16.5s47.667 -26 66 -45s32.666 -41.333 42.999 -67s15.5 -52.834 15.5 -81.501c0 -29.333 -5.16699 -56.666 -15.5 -81.999s-24.666 -47.333 -42.999 -66s-40.333 -33.5 -66 -44.5s-53.5 -16.5 -83.5 -16.5s-57.667 5.5 -83 16.5
s-47.166 25.833 -65.499 44.5s-32.666 40.667 -42.999 66s-15.5 52.666 -15.5 81.999zM363 611l-188 -120l-48 51l178 151z" />
    <glyph glyph-name="ocircumflex" unicode="&#xf4;" horiz-adv-x="491" 
d="M135 200c0 -36.667 10.333 -66 31 -88s47 -33 79 -33s58.5 11 79.5 33s31.5 51.333 31.5 88s-10.5 66 -31.5 88s-47.5 33 -79.5 33s-58.333 -11 -79 -33s-31 -51.333 -31 -88zM38 200c0 28.667 5.16699 55.834 15.5 81.501s24.666 48 42.999 67s40.166 34 65.499 45
s53 16.5 83 16.5s57.833 -5.5 83.5 -16.5s47.667 -26 66 -45s32.666 -41.333 42.999 -67s15.5 -52.834 15.5 -81.501c0 -29.333 -5.16699 -56.666 -15.5 -81.999s-24.666 -47.333 -42.999 -66s-40.333 -33.5 -66 -44.5s-53.5 -16.5 -83.5 -16.5s-57.667 5.5 -83 16.5
s-47.166 25.833 -65.499 44.5s-32.666 40.667 -42.999 66s-15.5 52.666 -15.5 81.999zM398 546l-45 -55l-108 74l-108 -75l-45 56l153 118z" />
    <glyph glyph-name="otilde" unicode="&#xf5;" horiz-adv-x="491" 
d="M135 200c0 -36.667 10.333 -66 31 -88s47 -33 79 -33s58.5 11 79.5 33s31.5 51.333 31.5 88s-10.5 66 -31.5 88s-47.5 33 -79.5 33s-58.333 -11 -79 -33s-31 -51.333 -31 -88zM38 200c0 28.667 5.16699 55.834 15.5 81.501s24.666 48 42.999 67s40.166 34 65.499 45
s53 16.5 83 16.5s57.833 -5.5 83.5 -16.5s47.667 -26 66 -45s32.666 -41.333 42.999 -67s15.5 -52.834 15.5 -81.501c0 -29.333 -5.16699 -56.666 -15.5 -81.999s-24.666 -47.333 -42.999 -66s-40.333 -33.5 -66 -44.5s-53.5 -16.5 -83.5 -16.5s-57.667 5.5 -83 16.5
s-47.166 25.833 -65.499 44.5s-32.666 40.667 -42.999 66s-15.5 52.666 -15.5 81.999zM134 497c-9.33301 7.33301 -18.834 14.333 -28.501 21s-19.167 13.667 -28.5 21c9.33301 23.333 22.5 43.5 39.5 60.5s36.833 25.5 59.5 25.5c12.667 0 24.834 -2.5 36.501 -7.5
s23 -10.333 34 -16l32 -16c10.333 -5 20.833 -7.5 31.5 -7.5s20 5.33301 28 16s14 23 18 37l58 -42c-8.66699 -24 -21.834 -44.333 -39.501 -61s-37.5 -25 -59.5 -25c-12.667 0 -24.5 2.5 -35.5 7.5s-21.667 10.333 -32 16s-20.666 11 -30.999 16s-20.833 7.5 -31.5 7.5
c-13.333 0 -24 -5.16699 -32 -15.5s-14.333 -22.833 -19 -37.5z" />
    <glyph glyph-name="odieresis" unicode="&#xf6;" horiz-adv-x="491" 
d="M135 200c0 -36.667 10.333 -66 31 -88s47 -33 79 -33s58.5 11 79.5 33s31.5 51.333 31.5 88s-10.5 66 -31.5 88s-47.5 33 -79.5 33s-58.333 -11 -79 -33s-31 -51.333 -31 -88zM38 200c0 28.667 5.16699 55.834 15.5 81.501s24.666 48 42.999 67s40.166 34 65.499 45
s53 16.5 83 16.5s57.833 -5.5 83.5 -16.5s47.667 -26 66 -45s32.666 -41.333 42.999 -67s15.5 -52.834 15.5 -81.501c0 -29.333 -5.16699 -56.666 -15.5 -81.999s-24.666 -47.333 -42.999 -66s-40.333 -33.5 -66 -44.5s-53.5 -16.5 -83.5 -16.5s-57.667 5.5 -83 16.5
s-47.166 25.833 -65.499 44.5s-32.666 40.667 -42.999 66s-15.5 52.666 -15.5 81.999zM73 564c0 17.333 5.66699 31.666 17 42.999s25.666 17 42.999 17s31.666 -5.66699 42.999 -17s17 -25.666 17 -42.999s-5.66699 -31.666 -17 -42.999s-25.666 -17 -42.999 -17
s-31.666 5.66699 -42.999 17s-17 25.666 -17 42.999zM297 564c0 17.333 5.66699 31.666 17 42.999s25.666 17 42.999 17s31.666 -5.66699 42.999 -17s17 -25.666 17 -42.999s-5.66699 -31.666 -17 -42.999s-25.666 -17 -42.999 -17s-31.666 5.66699 -42.999 17
s-17 25.666 -17 42.999z" />
    <glyph glyph-name="divide" unicode="&#xf7;" 
d="M532 330v-91h-464v91h464zM238 110c0 17.333 6 32.166 18 44.499s26.333 18.5 43 18.5c17.333 0 32.166 -6.16699 44.499 -18.5s18.5 -27.166 18.5 -44.499s-6.16699 -32 -18.5 -44s-27.166 -18 -44.499 -18c-16.667 0 -31 6 -43 18s-18 26.667 -18 44zM238 458
c0 17.333 6 32 18 44s26.333 18 43 18c17.333 0 32.166 -6 44.499 -18s18.5 -26.667 18.5 -44s-6.16699 -32 -18.5 -44s-27.166 -18 -44.499 -18c-16.667 0 -31 6 -43 18s-18 26.667 -18 44z" />
    <glyph glyph-name="oslash" unicode="&#xf8;" horiz-adv-x="490" 
d="M37 200c0 28.667 5.16699 55.834 15.5 81.501s24.666 48 42.999 67s40.333 34 66 45s53.5 16.5 83.5 16.5c14 0 27.667 -1.33301 41 -4s26 -6.33398 38 -11.001l29 49.5l29 49.5c8 -4.66699 16.167 -8.83398 24.5 -12.501s16.5 -7.83398 24.5 -12.501
c-9.33301 -17.333 -19 -34.333 -29 -51l-30 -51c25.333 -19.333 45.166 -43.5 59.499 -72.5s21.5 -60.5 21.5 -94.5c0 -29.333 -5.16699 -56.666 -15.5 -81.999s-24.666 -47.333 -42.999 -66s-40.333 -33.5 -66 -44.5s-53.5 -16.5 -83.5 -16.5
c-15.333 0 -29.666 1.33301 -42.999 4s-26.333 6.33398 -39 11.001l-30.5 -52.5l-30.5 -53.5c-8.66699 5.33301 -17.167 10 -25.5 14s-16.833 8.33301 -25.5 13l32 54l31 53c-24 19.333 -42.833 43.333 -56.5 72s-20.5 60 -20.5 94zM355 200c0 17.333 -2.83301 33 -8.5 47
s-13.167 26.333 -22.5 37l-57.5 -99.5l-57.5 -99.5c10 -4 21 -6 33 -6c32 0 58.833 10.667 80.5 32s32.5 51 32.5 89zM135 200c0 -33.333 9 -61 27 -83l58 100l58 99c-12 3.33301 -23 5 -33 5c-32 0 -58.333 -11.167 -79 -33.5s-31 -51.5 -31 -87.5z" />
    <glyph glyph-name="ugrave" unicode="&#xf9;" horiz-adv-x="505" 
d="M345 56c-12.667 -16.667 -29.832 -31.834 -51.499 -45.501s-51.167 -20.5 -88.5 -20.5c-44 0 -79.667 13.667 -107 41s-41 67 -41 119v250h99v-234c0 -25.333 5.66699 -45.166 17 -59.499s28.666 -21.5 51.999 -21.5c30 0 55 7 75 21s35 30.333 45 49v245h99v-400h-92z
M192.002 693l178 -151l-48 -51l-188 120z" />
    <glyph glyph-name="uacute" unicode="&#xfa;" horiz-adv-x="505" 
d="M345 56c-12.667 -16.667 -29.832 -31.834 -51.499 -45.501s-51.167 -20.5 -88.5 -20.5c-44 0 -79.667 13.667 -107 41s-41 67 -41 119v250h99v-234c0 -25.333 5.66699 -45.166 17 -59.499s28.666 -21.5 51.999 -21.5c30 0 55 7 75 21s35 30.333 45 49v245h99v-400h-92z
M370.002 611l-188 -120l-48 51l178 151z" />
    <glyph glyph-name="ucircumflex" unicode="&#xfb;" horiz-adv-x="505" 
d="M345 56c-12.667 -16.667 -29.832 -31.834 -51.499 -45.501s-51.167 -20.5 -88.5 -20.5c-44 0 -79.667 13.667 -107 41s-41 67 -41 119v250h99v-234c0 -25.333 5.66699 -45.166 17 -59.499s28.666 -21.5 51.999 -21.5c30 0 55 7 75 21s35 30.333 45 49v245h99v-400h-92z
M405.002 546l-45 -55l-108 74l-108 -75l-45 56l153 118z" />
    <glyph glyph-name="udieresis" unicode="&#xfc;" horiz-adv-x="505" 
d="M345 56c-12.667 -16.667 -29.832 -31.834 -51.499 -45.501s-51.167 -20.5 -88.5 -20.5c-44 0 -79.667 13.667 -107 41s-41 67 -41 119v250h99v-234c0 -25.333 5.66699 -45.166 17 -59.499s28.666 -21.5 51.999 -21.5c30 0 55 7 75 21s35 30.333 45 49v245h99v-400h-92z
M80.002 564c0 17.333 5.66699 31.666 17 42.999s25.666 17 42.999 17s31.666 -5.66699 42.999 -17s17 -25.666 17 -42.999s-5.66699 -31.666 -17 -42.999s-25.666 -17 -42.999 -17s-31.666 5.66699 -42.999 17s-17 25.666 -17 42.999zM304.002 564
c0 17.333 5.66699 31.666 17 42.999s25.666 17 42.999 17s31.666 -5.66699 42.999 -17s17 -25.666 17 -42.999s-5.66699 -31.666 -17 -42.999s-25.666 -17 -42.999 -17s-31.666 5.66699 -42.999 17s-17 25.666 -17 42.999z" />
    <glyph glyph-name="yacute" unicode="&#xfd;" horiz-adv-x="434" 
d="M42 -250l129 283l-172 367h100l117 -269l118 269h101l-308 -650h-85zM335 591l-188 -120l-48 51l178 151z" />
    <glyph glyph-name="thorn" unicode="&#xfe;" horiz-adv-x="514" 
d="M271 78c32.667 0 58.667 11.333 78 34s29 52 29 88c0 35.333 -9.83301 64.333 -29.5 87s-45.5 34 -77.5 34c-34 0 -61.5 -11.167 -82.5 -33.5s-31.5 -51.5 -31.5 -87.5s10.5 -65.333 31.5 -88s48.5 -34 82.5 -34zM159 -250l-99.0029 -0.000976562v903h99v-307
c12.667 17.333 29.834 32.333 51.501 45s49.834 19 84.501 19c24.667 0 47.834 -5 69.501 -15s40.667 -24.167 57 -42.5s29.333 -40.333 39 -66s14.5 -54.5 14.5 -86.5c0 -31.333 -4.66699 -59.666 -14 -84.999s-22.166 -47.333 -38.499 -66s-35.833 -33 -58.5 -43
s-47.334 -15 -74.001 -15c-30 0 -56.5 6.16699 -79.5 18.5s-40.167 27.5 -51.5 45.5v-305z" />
    <glyph glyph-name="ydieresis" unicode="&#xff;" horiz-adv-x="434" 
d="M42 -250l129 283l-172 367h100l117 -269l118 269h101l-308 -650h-85zM45 564c0 17.333 5.66699 31.666 17 42.999s25.666 17 42.999 17s31.666 -5.66699 42.999 -17s17 -25.666 17 -42.999s-5.66699 -31.666 -17 -42.999s-25.666 -17 -42.999 -17
s-31.666 5.66699 -42.999 17s-17 25.666 -17 42.999zM269 564c0 17.333 5.66699 31.666 17 42.999s25.666 17 42.999 17s31.666 -5.66699 42.999 -17s17 -25.666 17 -42.999s-5.66699 -31.666 -17 -42.999s-25.666 -17 -42.999 -17s-31.666 5.66699 -42.999 17
s-17 25.666 -17 42.999z" />
    <glyph glyph-name="Amacron" unicode="&#x100;" horiz-adv-x="708" 
d="M385 711l315 -711h-114l-70 160h-323l-70 -160h-115l317 711h60zM235 257h239l-119 275zM204 838h300v-71h-300v71z" />
    <glyph glyph-name="amacron" unicode="&#x101;" horiz-adv-x="459" 
d="M47 283c2 16.667 7.66797 32.668 17.001 48.001s21.666 28.833 36.999 40.5s33.666 21 54.999 28s45 10.5 71 10.5c56 0 99 -13.833 129 -41.5s45 -63.167 45 -106.5v-262h-86l-7 56c-11.333 -17.333 -27 -31.833 -47 -43.5s-47 -17.5 -81 -17.5
c-21.333 0 -40.833 2.83301 -58.5 8.5s-33.167 14 -46.5 25s-23.666 24.167 -30.999 39.5s-11 32.666 -11 51.999c0 43.333 16 75.333 48 96s78.333 31 139 31h88v15c0 17.333 -7 33.5 -21 48.5s-35.333 22.5 -64 22.5c-22.667 0 -42 -4.83301 -58 -14.5
s-24.333 -21.5 -25 -35.5h-93zM198.001 70.001c31.333 0 57.501 7.5 78.501 22.5s31.5 37.167 31.5 66.5v22h-88c-34 0 -58.167 -5.16699 -72.5 -15.5s-21.5 -24.166 -21.5 -41.499c0 -16.667 6.66699 -29.834 20 -39.501s30.666 -14.5 51.999 -14.5zM79.002 588.001h300
v-79h-300v79z" />
    <glyph glyph-name="Abreve" unicode="&#x102;" horiz-adv-x="708" 
d="M385 711l315 -711h-114l-70 160h-323l-70 -160h-115l317 711h60zM235 257h239l-119 275zM354 763c-18.667 0 -36.999 2.66602 -54.999 7.99902s-34 13.166 -48 23.499s-25.5 23 -34.5 38s-13.833 31.833 -14.5 50.5h83c3.33301 -15.333 12 -27.166 26 -35.499
s28.333 -12.5 43 -12.5c12.667 0 26.667 4 42 12s24.666 20 27.999 36h83c-1.33301 -18.667 -6.5 -35.5 -15.5 -50.5s-20.5 -27.667 -34.5 -38s-30 -18.166 -48 -23.499s-36.333 -8 -55 -8z" />
    <glyph glyph-name="abreve" unicode="&#x103;" horiz-adv-x="459" 
d="M47 283c2 16.667 7.66797 32.668 17.001 48.001s21.666 28.833 36.999 40.5s33.666 21 54.999 28s45 10.5 71 10.5c56 0 99 -13.833 129 -41.5s45 -63.167 45 -106.5v-262h-86l-7 56c-11.333 -17.333 -27 -31.833 -47 -43.5s-47 -17.5 -81 -17.5
c-21.333 0 -40.833 2.83301 -58.5 8.5s-33.167 14 -46.5 25s-23.666 24.167 -30.999 39.5s-11 32.666 -11 51.999c0 43.333 16 75.333 48 96s78.333 31 139 31h88v15c0 17.333 -7 33.5 -21 48.5s-35.333 22.5 -64 22.5c-22.667 0 -42 -4.83301 -58 -14.5
s-24.333 -21.5 -25 -35.5h-93zM198.001 70.001c31.333 0 57.501 7.5 78.501 22.5s31.5 37.167 31.5 66.5v22h-88c-34 0 -58.167 -5.16699 -72.5 -15.5s-21.5 -24.166 -21.5 -41.499c0 -16.667 6.66699 -29.834 20 -39.501s30.666 -14.5 51.999 -14.5zM228.002 504.001
c-18.667 0 -36.998 3 -54.998 9s-34 14.667 -48 26s-25.5 25.166 -34.5 41.499s-13.833 34.833 -14.5 55.5h83c3.33301 -17.333 12 -30.333 26 -39s28.333 -13 43 -13c15.333 0 30.166 4.33301 44.499 13s23.166 21.667 26.499 39h83
c-1.33301 -20.667 -6.5 -39.167 -15.5 -55.5s-20.667 -30.166 -35 -41.499s-30.5 -20 -48.5 -26s-36.333 -9 -55 -9z" />
    <glyph glyph-name="Aogonek" unicode="&#x104;" horiz-adv-x="708" 
d="M385 711l315 -711h-31c-23.333 -15.333 -41.666 -31.5 -54.999 -48.5s-20 -33.167 -20 -48.5c0 -12 4 -20.5 12 -25.5s19 -7.5 33 -7.5c9.33301 0 19.666 0.833008 30.999 2.5s22.666 4.5 33.999 8.5v-79c-12.667 -4.66699 -25.167 -8.16699 -37.5 -10.5
s-26.166 -3.5 -41.499 -3.5c-36.667 0 -65.667 8.5 -87 25.5s-32 39.833 -32 68.5c0 26 8.33301 49.333 25 70s35 36.667 55 48l-70 160h-323l-70 -160h-115l317 711h60zM235 257h239l-119 275z" />
    <glyph glyph-name="aogonek" unicode="&#x105;" horiz-adv-x="459" 
d="M47 283c4 16.667 10.8301 32.668 20.4971 48.001s22 28.833 37 40.5s32.667 21 53 28s43.5 10.5 69.5 10.5c56 0 99 -13.833 129 -41.5s45 -63.167 45 -106.5v-262h-7c-21.333 -15.333 -38.666 -31.333 -51.999 -48s-20 -33.667 -20 -51c0 -12.667 4.5 -21 13.5 -25
s20.5 -6 34.5 -6c16.667 0 36.667 3.66699 60 11v-79c-12.667 -4.66699 -25.167 -8.16699 -37.5 -10.5s-26.166 -3.5 -41.499 -3.5c-36.667 0 -65.667 8.5 -87 25.5s-32 39.833 -32 68.5c0 13.333 2.33301 26 7 38s11 23.167 19 33.5s16.833 19.5 26.5 27.5s19.5 15 29.5 21
l-6 54c-11.333 -17.333 -27 -31.833 -47 -43.5s-47 -17.5 -81 -17.5c-21.333 0 -40.833 2.83301 -58.5 8.5s-33.167 14 -46.5 25s-23.666 24.167 -30.999 39.5s-11 32.666 -11 51.999c0 43.333 16 75.333 48 96s78.333 31 139 31h88v15c0 19.333 -6.83301 36 -20.5 50
s-35.167 21 -64.5 21c-22.667 0 -41 -4.83301 -55 -14.5s-23.333 -21.5 -28 -35.5h-93zM197.997 70.001c31.333 0 57.501 7.5 78.501 22.5s31.5 37.167 31.5 66.5v22h-88c-34 0 -58.167 -5.16699 -72.5 -15.5s-21.5 -24.166 -21.5 -41.499
c0 -16.667 6.66699 -29.834 20 -39.501s30.666 -14.5 51.999 -14.5z" />
    <glyph glyph-name="Cacute" unicode="&#x106;" horiz-adv-x="760" 
d="M42 350c0 49.333 8.99902 95.8262 26.999 139.493s42.833 81.834 74.5 114.501s68.667 58.5 111 77.5s87.833 28.5 136.5 28.5c42.667 0 81.834 -6.16699 117.501 -18.5s67.5 -29.5 95.5 -51.5s52 -48 72 -78s35.333 -62.667 46 -98h-116
c-6.66699 18.667 -16.334 36.834 -29.001 54.501s-28 33 -46 46s-38.5 23.5 -61.5 31.5s-48.167 12 -75.5 12c-34 0 -65.833 -6.66699 -95.5 -20s-55.334 -31.666 -77.001 -54.999s-38.667 -50.666 -51 -81.999s-18.5 -65 -18.5 -101c0 -36.667 6.16699 -70.667 18.5 -102
s29.333 -58.666 51 -81.999s47.334 -41.666 77.001 -54.999s61.5 -20 95.5 -20c27.333 0 52.833 4 76.5 12s44.834 18.667 63.501 32s34.334 29 47.001 47s21.667 37 27 57h116c-9.33301 -36 -24 -69.167 -44 -99.5s-44.167 -56.5 -72.5 -78.5s-60.833 -39.167 -97.5 -51.5
s-76.334 -18.5 -119.001 -18.5c-48.667 0 -94.167 9.33301 -136.5 28s-79.333 44.334 -111 77.001s-56.5 70.667 -74.5 114s-27 90 -27 140zM507.999 858.993l-188 -107l-48 45l178 136z" />
    <glyph glyph-name="cacute" unicode="&#x107;" horiz-adv-x="477" 
d="M248 320c-32 0 -58.835 -11.001 -80.502 -33.001s-32.5 -51 -32.5 -87c0 -37.333 10.833 -67 32.5 -89s48.5 -33 80.5 -33c24.667 0 45.5 5.83301 62.5 17.5s28.167 26.167 33.5 43.5h98c-7.33301 -43.333 -28.166 -78.833 -62.499 -106.5s-78.166 -41.5 -131.499 -41.5
c-31.333 0 -60 5.5 -86 16.5s-48.167 25.833 -66.5 44.5s-32.666 40.667 -42.999 66s-15.5 52.666 -15.5 81.999c0 28.667 5.16699 55.834 15.5 81.501s24.666 48 42.999 67s40.333 34 66 45s54.167 16.5 85.5 16.5c26.667 0 51 -3.83301 73 -11.5s41.5 -18.167 58.5 -31.5
s30.833 -29.166 41.5 -47.499s18 -38.166 22 -59.499h-99c-6 17.333 -17.5 31.666 -34.5 42.999s-37.167 17 -60.5 17zM365.998 610.999l-188 -120l-48 51l178 151z" />
    <glyph glyph-name="Ccircumflex" unicode="&#x108;" horiz-adv-x="760" 
d="M42 350c0 49.333 8.99902 95.8262 26.999 139.493s42.833 81.834 74.5 114.501s68.667 58.5 111 77.5s87.833 28.5 136.5 28.5c42.667 0 81.834 -6.16699 117.501 -18.5s67.5 -29.5 95.5 -51.5s52 -48 72 -78s35.333 -62.667 46 -98h-116
c-6.66699 18.667 -16.334 36.834 -29.001 54.501s-28 33 -46 46s-38.5 23.5 -61.5 31.5s-48.167 12 -75.5 12c-34 0 -65.833 -6.66699 -95.5 -20s-55.334 -31.666 -77.001 -54.999s-38.667 -50.666 -51 -81.999s-18.5 -65 -18.5 -101c0 -36.667 6.16699 -70.667 18.5 -102
s29.333 -58.666 51 -81.999s47.334 -41.666 77.001 -54.999s61.5 -20 95.5 -20c27.333 0 52.833 4 76.5 12s44.834 18.667 63.501 32s34.334 29 47.001 47s21.667 37 27 57h116c-9.33301 -36 -24 -69.167 -44 -99.5s-44.167 -56.5 -72.5 -78.5s-60.833 -39.167 -97.5 -51.5
s-76.334 -18.5 -119.001 -18.5c-48.667 0 -94.167 9.33301 -136.5 28s-79.333 44.334 -111 77.001s-56.5 70.667 -74.5 114s-27 90 -27 140zM542.999 800.993l-45 -49l-108 66l-108 -67l-45 50l153 106z" />
    <glyph glyph-name="ccircumflex" unicode="&#x109;" horiz-adv-x="477" 
d="M248 320c-32 0 -58.835 -11.001 -80.502 -33.001s-32.5 -51 -32.5 -87c0 -37.333 10.833 -67 32.5 -89s48.5 -33 80.5 -33c24.667 0 45.5 5.83301 62.5 17.5s28.167 26.167 33.5 43.5h98c-7.33301 -43.333 -28.166 -78.833 -62.499 -106.5s-78.166 -41.5 -131.499 -41.5
c-31.333 0 -60 5.5 -86 16.5s-48.167 25.833 -66.5 44.5s-32.666 40.667 -42.999 66s-15.5 52.666 -15.5 81.999c0 28.667 5.16699 55.834 15.5 81.501s24.666 48 42.999 67s40.333 34 66 45s54.167 16.5 85.5 16.5c26.667 0 51 -3.83301 73 -11.5s41.5 -18.167 58.5 -31.5
s30.833 -29.166 41.5 -47.499s18 -38.166 22 -59.499h-99c-6 17.333 -17.5 31.666 -34.5 42.999s-37.167 17 -60.5 17zM400.998 545.999l-45 -55l-108 74l-108 -75l-45 56l153 118z" />
    <glyph glyph-name="Cdotaccent" unicode="&#x10a;" horiz-adv-x="760" 
d="M42 350c0 49.333 8.99902 95.8262 26.999 139.493s42.833 81.834 74.5 114.501s68.667 58.5 111 77.5s87.833 28.5 136.5 28.5c42.667 0 81.834 -6.16699 117.501 -18.5s67.5 -29.5 95.5 -51.5s52 -48 72 -78s35.333 -62.667 46 -98h-116
c-6.66699 18.667 -16.334 36.834 -29.001 54.501s-28 33 -46 46s-38.5 23.5 -61.5 31.5s-48.167 12 -75.5 12c-34 0 -65.833 -6.66699 -95.5 -20s-55.334 -31.666 -77.001 -54.999s-38.667 -50.666 -51 -81.999s-18.5 -65 -18.5 -101c0 -36.667 6.16699 -70.667 18.5 -102
s29.333 -58.666 51 -81.999s47.334 -41.666 77.001 -54.999s61.5 -20 95.5 -20c27.333 0 52.833 4 76.5 12s44.834 18.667 63.501 32s34.334 29 47.001 47s21.667 37 27 57h116c-9.33301 -36 -24 -69.167 -44 -99.5s-44.167 -56.5 -72.5 -78.5s-60.833 -39.167 -97.5 -51.5
s-76.334 -18.5 -119.001 -18.5c-48.667 0 -94.167 9.33301 -136.5 28s-79.333 44.334 -111 77.001s-56.5 70.667 -74.5 114s-27 90 -27 140zM326.999 814.993c0 16.667 6 30.334 18 41.001s27 16 45 16c17.333 0 32.166 -5.33301 44.499 -16s18.5 -24.334 18.5 -41.001
c0 -15.333 -6.16699 -28.5 -18.5 -39.5s-27.166 -16.5 -44.499 -16.5c-18 0 -33 5.5 -45 16.5s-18 24.167 -18 39.5z" />
    <glyph glyph-name="cdotaccent" unicode="&#x10b;" horiz-adv-x="477" 
d="M248 320c-32 0 -58.835 -11.001 -80.502 -33.001s-32.5 -51 -32.5 -87c0 -37.333 10.833 -67 32.5 -89s48.5 -33 80.5 -33c24.667 0 45.5 5.83301 62.5 17.5s28.167 26.167 33.5 43.5h98c-7.33301 -43.333 -28.166 -78.833 -62.499 -106.5s-78.166 -41.5 -131.499 -41.5
c-31.333 0 -60 5.5 -86 16.5s-48.167 25.833 -66.5 44.5s-32.666 40.667 -42.999 66s-15.5 52.666 -15.5 81.999c0 28.667 5.16699 55.834 15.5 81.501s24.666 48 42.999 67s40.333 34 66 45s54.167 16.5 85.5 16.5c26.667 0 51 -3.83301 73 -11.5s41.5 -18.167 58.5 -31.5
s30.833 -29.166 41.5 -47.499s18 -38.166 22 -59.499h-99c-6 17.333 -17.5 31.666 -34.5 42.999s-37.167 17 -60.5 17zM184.998 566.999c0 17.333 6 32.166 18 44.499s27 18.5 45 18.5c17.333 0 32.166 -6.16699 44.499 -18.5s18.5 -27.166 18.5 -44.499
c0 -18 -6.16699 -33 -18.5 -45s-27.166 -18 -44.499 -18c-18 0 -33 6 -45 18s-18 27 -18 45z" />
    <glyph glyph-name="Ccaron" unicode="&#x10c;" horiz-adv-x="760" 
d="M42 350c0 49.333 8.99902 95.8262 26.999 139.493s42.833 81.834 74.5 114.501s68.667 58.5 111 77.5s87.833 28.5 136.5 28.5c42.667 0 81.834 -6.16699 117.501 -18.5s67.5 -29.5 95.5 -51.5s52 -48 72 -78s35.333 -62.667 46 -98h-116
c-6.66699 18.667 -16.334 36.834 -29.001 54.501s-28 33 -46 46s-38.5 23.5 -61.5 31.5s-48.167 12 -75.5 12c-34 0 -65.833 -6.66699 -95.5 -20s-55.334 -31.666 -77.001 -54.999s-38.667 -50.666 -51 -81.999s-18.5 -65 -18.5 -101c0 -36.667 6.16699 -70.667 18.5 -102
s29.333 -58.666 51 -81.999s47.334 -41.666 77.001 -54.999s61.5 -20 95.5 -20c27.333 0 52.833 4 76.5 12s44.834 18.667 63.501 32s34.334 29 47.001 47s21.667 37 27 57h116c-9.33301 -36 -24 -69.167 -44 -99.5s-44.167 -56.5 -72.5 -78.5s-60.833 -39.167 -97.5 -51.5
s-76.334 -18.5 -119.001 -18.5c-48.667 0 -94.167 9.33301 -136.5 28s-79.333 44.334 -111 77.001s-56.5 70.667 -74.5 114s-27 90 -27 140zM389.999 749.993l-153 105l45 51l108 -67l108 66l45 -50z" />
    <glyph glyph-name="ccaron" unicode="&#x10d;" horiz-adv-x="477" 
d="M248 320c-32 0 -58.835 -11.001 -80.502 -33.001s-32.5 -51 -32.5 -87c0 -37.333 10.833 -67 32.5 -89s48.5 -33 80.5 -33c24.667 0 45.5 5.83301 62.5 17.5s28.167 26.167 33.5 43.5h98c-7.33301 -43.333 -28.166 -78.833 -62.499 -106.5s-78.166 -41.5 -131.499 -41.5
c-31.333 0 -60 5.5 -86 16.5s-48.167 25.833 -66.5 44.5s-32.666 40.667 -42.999 66s-15.5 52.666 -15.5 81.999c0 28.667 5.16699 55.834 15.5 81.501s24.666 48 42.999 67s40.333 34 66 45s54.167 16.5 85.5 16.5c26.667 0 51 -3.83301 73 -11.5s41.5 -18.167 58.5 -31.5
s30.833 -29.166 41.5 -47.499s18 -38.166 22 -59.499h-99c-6 17.333 -17.5 31.666 -34.5 42.999s-37.167 17 -60.5 17zM247.998 487.999l-153 118l45 56l108 -75l108 74l45 -55z" />
    <glyph glyph-name="Dcaron" unicode="&#x10e;" horiz-adv-x="721" 
d="M74 700l258 -0.00195312c54.667 0 103.334 -8.83301 146.001 -26.5s78.667 -42.167 108 -73.5s51.833 -68.166 67.5 -110.499s23.5 -88.166 23.5 -137.499c0 -50.667 -7.33301 -97.5 -22 -140.5s-36.334 -80.167 -65.001 -111.5s-64 -55.833 -106 -73.5
s-90 -26.5 -144 -26.5h-266v700zM340 100.998c38 0 71.167 6.16699 99.5 18.5s52 29.5 71 51.5s33.333 48.333 43 79s14.5 64.667 14.5 102c0 36 -5.16699 69 -15.5 99s-25.5 56 -45.5 78s-44.667 39.167 -74 51.5s-63 18.5 -101 18.5h-149v-498h157zM360 749.998l-153 105
l45 51l108 -67l108 66l45 -50z" />
    <glyph glyph-name="dcaron" unicode="&#x10f;" horiz-adv-x="653" 
d="M243 77c33.333 0 60.667 11.5 82 34.5s32 52.5 32 88.5s-10.667 65.333 -32 88s-48.666 34 -81.999 34c-32 0 -58 -11.5 -78 -34.5s-30 -52.167 -30 -87.5c0 -36 9.66699 -65.5 29 -88.5s45.666 -34.5 78.999 -34.5zM354.001 57
c-10.667 -19.333 -27.334 -35.167 -50.001 -47.5s-48 -18.5 -76 -18.5c-26 0 -50.667 4.66699 -74 14s-43.5 23 -60.5 41s-30.5 39.833 -40.5 65.5s-15 55.167 -15 88.5c0 30 4.66699 57.667 14 83s22.166 47.5 38.499 66.5s35.833 33.833 58.5 44.5s47.334 16 74.001 16
c32.667 0 59.834 -6.5 81.501 -19.5s38.167 -27.833 49.5 -44.5v307h99v-653h-92zM683.001 683.999l-104 -195l-64 23l71 201z" />
    <glyph glyph-name="Dcroat" unicode="&#x110;" horiz-adv-x="721" 
d="M74 275l-71 -0.00195312v90h71v335h258c54.667 0 103.334 -8.83301 146.001 -26.5s78.667 -42.167 108 -73.5s51.833 -68.166 67.5 -110.499s23.5 -88.166 23.5 -137.499c0 -50.667 -7.33301 -97.5 -22 -140.5s-36.334 -80.167 -65.001 -111.5s-64 -55.833 -106 -73.5
s-90 -26.5 -144 -26.5h-266v275zM340 100.998c38 0 71.167 6.16699 99.5 18.5s52 29.5 71 51.5s33.333 48.333 43 79s14.5 64.667 14.5 102c0 36 -5.16699 69 -15.5 99s-25.5 56 -45.5 78s-44.667 39.167 -74 51.5s-63 18.5 -101 18.5h-149v-234h160v-90h-160v-174h157z" />
    <glyph glyph-name="dcroat" unicode="&#x111;" horiz-adv-x="516" 
d="M234 588l120 -0.000976562v65h99v-65h62v-80h-62v-508h-92c-1.33301 9.33301 -2.5 18.833 -3.5 28.5s-2.16699 19.167 -3.5 28.5c-10.667 -19.333 -27.334 -35.166 -50.001 -47.499s-48 -18.5 -76 -18.5c-26 0 -50.667 4.66699 -74 14s-43.5 23 -60.5 41
s-30.5 39.833 -40.5 65.5s-15 55.167 -15 88.5c0 30 4.66699 57.667 14 83s22.166 47.5 38.499 66.5s35.833 33.833 58.5 44.5s47.334 16 74.001 16c32.667 0 59.834 -6.5 81.501 -19.5s38.167 -27.833 49.5 -44.5v162h-120v80zM243 76.999c33.333 0 60.667 11.5 82 34.5
s32 52.5 32 88.5s-10.667 65.333 -32 88s-48.666 34 -81.999 34c-32 0 -58 -11.5 -78 -34.5s-30 -52.167 -30 -87.5c0 -36 9.66699 -65.5 29 -88.5s45.666 -34.5 78.999 -34.5z" />
    <glyph glyph-name="Emacron" unicode="&#x112;" horiz-adv-x="589" 
d="M183 599v-185h323v-101h-323v-212h356v-101h-465v700h465v-101h-356zM164 838h300v-71h-300v71z" />
    <glyph glyph-name="emacron" unicode="&#x113;" horiz-adv-x="484" 
d="M131 172c4 -30 15.8311 -54.499 35.498 -73.499s47.5 -28.5 83.5 -28.5c25.333 0 46.333 5.66699 63 17s27.667 25.666 33 42.999h93c-10 -41.333 -31.167 -74.833 -63.5 -100.5s-74.833 -38.5 -127.5 -38.5c-31.333 0 -60 5.5 -86 16.5s-48.167 25.833 -66.5 44.5
s-32.5 40.667 -42.5 66s-15 52.666 -15 81.999c0 28.667 5 55.834 15 81.501s24.167 48 42.5 67s40.166 34 65.499 45s53.333 16.5 84 16.5s58.334 -5.66699 83.001 -17s45.834 -26.333 63.501 -45s31.334 -40 41.001 -64s14.5 -48.333 14.5 -73v-18.5
c0 -7 -0.666992 -13.833 -2 -20.5h-314zM249.998 330.001c-32 0 -57.832 -8.66797 -77.499 -26.001s-32.167 -39.666 -37.5 -66.999h219c-0.666992 12 -3.66699 23.5 -9 34.5s-12.5 20.833 -21.5 29.5s-19.833 15.667 -32.5 21s-26.334 8 -41.001 8zM91.999 588h300v-79
h-300v79z" />
    <glyph glyph-name="Ebreve" unicode="&#x114;" horiz-adv-x="589" 
d="M183 599v-185h323v-101h-323v-212h356v-101h-465v700h465v-101h-356zM314 763c-18.667 0 -36.999 2.66602 -54.999 7.99902s-34 13.166 -48 23.499s-25.5 23 -34.5 38s-13.833 31.833 -14.5 50.5h83c3.33301 -15.333 12 -27.166 26 -35.499s28.333 -12.5 43 -12.5
c12.667 0 26.667 4 42 12s24.666 20 27.999 36h83c-1.33301 -18.667 -6.5 -35.5 -15.5 -50.5s-20.5 -27.667 -34.5 -38s-30 -18.166 -48 -23.499s-36.333 -8 -55 -8z" />
    <glyph glyph-name="ebreve" unicode="&#x115;" horiz-adv-x="484" 
d="M131 172c4 -30 15.8311 -54.499 35.498 -73.499s47.5 -28.5 83.5 -28.5c25.333 0 46.333 5.66699 63 17s27.667 25.666 33 42.999h93c-10 -41.333 -31.167 -74.833 -63.5 -100.5s-74.833 -38.5 -127.5 -38.5c-31.333 0 -60 5.5 -86 16.5s-48.167 25.833 -66.5 44.5
s-32.5 40.667 -42.5 66s-15 52.666 -15 81.999c0 28.667 5 55.834 15 81.501s24.167 48 42.5 67s40.166 34 65.499 45s53.333 16.5 84 16.5s58.334 -5.66699 83.001 -17s45.834 -26.333 63.501 -45s31.334 -40 41.001 -64s14.5 -48.333 14.5 -73v-18.5
c0 -7 -0.666992 -13.833 -2 -20.5h-314zM249.998 330.001c-32 0 -57.832 -8.66797 -77.499 -26.001s-32.167 -39.666 -37.5 -66.999h219c-0.666992 12 -3.66699 23.5 -9 34.5s-12.5 20.833 -21.5 29.5s-19.833 15.667 -32.5 21s-26.334 8 -41.001 8zM240.999 504
c-18.667 0 -36.998 3 -54.998 9s-34 14.667 -48 26s-25.5 25.166 -34.5 41.499s-13.833 34.833 -14.5 55.5h83c3.33301 -17.333 12 -30.333 26 -39s28.333 -13 43 -13c15.333 0 30.166 4.33301 44.499 13s23.166 21.667 26.499 39h83
c-1.33301 -20.667 -6.5 -39.167 -15.5 -55.5s-20.667 -30.166 -35 -41.499s-30.5 -20 -48.5 -26s-36.333 -9 -55 -9z" />
    <glyph glyph-name="Edotaccent" unicode="&#x116;" horiz-adv-x="589" 
d="M183 599v-185h323v-101h-323v-212h356v-101h-465v700h465v-101h-356zM251 815c0 16.667 6 30.334 18 41.001s27 16 45 16c17.333 0 32.166 -5.33301 44.499 -16s18.5 -24.334 18.5 -41.001c0 -15.333 -6.16699 -28.5 -18.5 -39.5s-27.166 -16.5 -44.499 -16.5
c-18 0 -33 5.5 -45 16.5s-18 24.167 -18 39.5z" />
    <glyph glyph-name="edotaccent" unicode="&#x117;" horiz-adv-x="484" 
d="M131 172c4 -30 15.8311 -54.499 35.498 -73.499s47.5 -28.5 83.5 -28.5c25.333 0 46.333 5.66699 63 17s27.667 25.666 33 42.999h93c-10 -41.333 -31.167 -74.833 -63.5 -100.5s-74.833 -38.5 -127.5 -38.5c-31.333 0 -60 5.5 -86 16.5s-48.167 25.833 -66.5 44.5
s-32.5 40.667 -42.5 66s-15 52.666 -15 81.999c0 28.667 5 55.834 15 81.501s24.167 48 42.5 67s40.166 34 65.499 45s53.333 16.5 84 16.5s58.334 -5.66699 83.001 -17s45.834 -26.333 63.501 -45s31.334 -40 41.001 -64s14.5 -48.333 14.5 -73v-18.5
c0 -7 -0.666992 -13.833 -2 -20.5h-314zM249.998 330.001c-32 0 -57.832 -8.66797 -77.499 -26.001s-32.167 -39.666 -37.5 -66.999h219c-0.666992 12 -3.66699 23.5 -9 34.5s-12.5 20.833 -21.5 29.5s-19.833 15.667 -32.5 21s-26.334 8 -41.001 8zM178.999 567
c0 17.333 6 32.166 18 44.499s27 18.5 45 18.5c17.333 0 32.166 -6.16699 44.499 -18.5s18.5 -27.166 18.5 -44.499c0 -18 -6.16699 -33 -18.5 -45s-27.166 -18 -44.499 -18c-18 0 -33 6 -45 18s-18 27 -18 45z" />
    <glyph glyph-name="Eogonek" unicode="&#x118;" horiz-adv-x="589" 
d="M183 599v-185h323v-101h-323v-212h356v-101h-15c-23.333 -15.333 -41.666 -31.5 -54.999 -48.5s-20 -33.167 -20 -48.5c0 -12 4 -20.5 12 -25.5s19 -7.5 33 -7.5c9.33301 0 19.666 0.833008 30.999 2.5s22.666 4.5 33.999 8.5v-79
c-12.667 -4.66699 -25.167 -8.16699 -37.5 -10.5s-26.166 -3.5 -41.499 -3.5c-36.667 0 -65.667 8.5 -87 25.5s-32 39.833 -32 68.5c0 26 8.16699 49.333 24.5 70s34.5 36.667 54.5 48h-366v700h465v-101h-356z" />
    <glyph glyph-name="eogonek" unicode="&#x119;" horiz-adv-x="484" 
d="M131 172c4 -30 15.832 -54.499 35.499 -73.499s47.5 -28.5 83.5 -28.5c25.333 0 46.333 5.66699 63 17s27.667 25.666 33 42.999h93c-8.66699 -34 -24.834 -63 -48.501 -87s-54.5 -39.667 -92.5 -47c-21.333 -15.333 -38.166 -31 -50.499 -47s-18.5 -31.333 -18.5 -46
c0 -12 4 -20.5 12 -25.5s19 -7.5 33 -7.5c9.33301 0 19.666 0.833008 30.999 2.5s22.666 4.5 33.999 8.5v-79c-12.667 -4.66699 -25.167 -8.16699 -37.5 -10.5s-26.166 -3.5 -41.499 -3.5c-36.667 0 -65.667 8.5 -87 25.5s-32 39.833 -32 68.5c0 23.333 7 44.666 21 63.999
s30 35.333 48 48c-26 4 -49.667 12.167 -71 24.5s-39.5 27.5 -54.5 45.5s-26.5 38.667 -34.5 62s-12 48 -12 74c0 28.667 5 55.834 15 81.501s24.167 48 42.5 67s40.166 34 65.499 45s53.333 16.5 84 16.5s58.334 -5.66699 83.001 -17s45.834 -26.333 63.501 -45
s31.334 -40 41.001 -64s14.5 -48.333 14.5 -73v-18.5c0 -7 -0.666992 -13.833 -2 -20.5h-314zM249.999 330.001c-32 0 -57.832 -8.66797 -77.499 -26.001s-32.167 -39.666 -37.5 -66.999h219c-0.666992 12 -3.66699 23.5 -9 34.5s-12.5 20.833 -21.5 29.5
s-19.833 15.667 -32.5 21s-26.334 8 -41.001 8z" />
    <glyph glyph-name="Ecaron" unicode="&#x11a;" horiz-adv-x="589" 
d="M183 599v-185h323v-101h-323v-212h356v-101h-465v700h465v-101h-356zM314 750l-153 105l45 51l108 -67l108 66l45 -50z" />
    <glyph glyph-name="ecaron" unicode="&#x11b;" horiz-adv-x="484" 
d="M131 172c4 -30 15.8311 -54.499 35.498 -73.499s47.5 -28.5 83.5 -28.5c25.333 0 46.333 5.66699 63 17s27.667 25.666 33 42.999h93c-10 -41.333 -31.167 -74.833 -63.5 -100.5s-74.833 -38.5 -127.5 -38.5c-31.333 0 -60 5.5 -86 16.5s-48.167 25.833 -66.5 44.5
s-32.5 40.667 -42.5 66s-15 52.666 -15 81.999c0 28.667 5 55.834 15 81.501s24.167 48 42.5 67s40.166 34 65.499 45s53.333 16.5 84 16.5s58.334 -5.66699 83.001 -17s45.834 -26.333 63.501 -45s31.334 -40 41.001 -64s14.5 -48.333 14.5 -73v-18.5
c0 -7 -0.666992 -13.833 -2 -20.5h-314zM249.998 330.001c-32 0 -57.832 -8.66797 -77.499 -26.001s-32.167 -39.666 -37.5 -66.999h219c-0.666992 12 -3.66699 23.5 -9 34.5s-12.5 20.833 -21.5 29.5s-19.833 15.667 -32.5 21s-26.334 8 -41.001 8zM241.999 488l-153 118
l45 56l108 -75l108 74l45 -55z" />
    <glyph glyph-name="Gcircumflex" unicode="&#x11c;" horiz-adv-x="780" 
d="M399 292l0.000976562 97.9922h338v-42c0 -58 -8.83301 -109.167 -26.5 -153.5s-41.834 -81.666 -72.501 -111.999s-66.834 -53.166 -108.501 -68.499s-86.5 -23 -134.5 -23c-49.333 0 -95.333 9.33301 -138 28s-80 44.334 -112 77.001s-57.167 70.667 -75.5 114
s-27.5 90 -27.5 140c0 49.333 9.16699 95.833 27.5 139.5s43.333 81.834 75 114.501s68.834 58.5 111.501 77.5s88.334 28.5 137.001 28.5c43.333 0 83.166 -6.5 119.499 -19.5s68.5 -30.667 96.5 -53s51.833 -48.5 71.5 -78.5s34.5 -61.667 44.5 -95h-116
c-6.66699 18.667 -16.334 36.834 -29.001 54.501s-28 33 -46 46s-38.5 23.5 -61.5 31.5s-48.167 12 -75.5 12c-34.667 0 -66.834 -6.66699 -96.501 -20s-55.5 -31.666 -77.5 -54.999s-39.333 -50.666 -52 -81.999s-19 -65 -19 -101c0 -36.667 6.33301 -70.667 19 -102
s29.834 -58.666 51.501 -81.999s47.334 -41.666 77.001 -54.999s61.5 -20 95.5 -20c32.667 0 62.667 5 90 15s51 24 71 42s36 39.167 48 63.5s19 51.166 21 80.499h-226zM543.001 800.992l-45 -49l-108 66l-108 -67l-45 50l153 106z" />
    <glyph glyph-name="gcircumflex" unicode="&#x11d;" horiz-adv-x="467" 
d="M52 228c0 23.333 4.66797 45.502 14.001 66.502s22.166 39.333 38.499 55s35.333 28 57 37s44.834 13.5 69.501 13.5h205v-70l-72 -5c14.667 -12 26.167 -27.167 34.5 -45.5s12.5 -39.166 12.5 -62.499c0 -21.333 -4.66699 -41.666 -14 -60.999s-22 -36.5 -38 -51.5
s-34.5 -26.833 -55.5 -35.5s-42.833 -13 -65.5 -13c-24 0 -43.667 3.16699 -59 9.5s-29.333 14.833 -42 25.5c-6.66699 -2 -13 -6.33301 -19 -13s-9 -16 -9 -28c0 -13.333 5.33301 -25 16 -35s25.667 -15 45 -15h81c63.333 0 111 -13.5 143 -40.5s48 -64.833 48 -113.5
c0 -48 -17.167 -87.333 -51.5 -118s-84.166 -46 -149.499 -46c-34.667 0 -64.834 4.5 -90.501 13.5s-46.834 20.833 -63.501 35.5s-29.167 31.5 -37.5 50.5s-12.5 38.5 -12.5 58.5c0 25.333 6.33301 48.5 19 69.5s26.667 35.833 42 44.5
c-19.333 6.66699 -36.333 18.167 -51 34.5s-22 37.166 -22 62.499c0 23.333 5.83301 42.666 17.5 57.999s24.167 27.333 37.5 36c-8 9.33301 -14.667 21.666 -20 36.999s-8 30.666 -8 45.999zM171.001 -80.998c-11.333 -6 -21.167 -15 -29.5 -27s-12.5 -27.333 -12.5 -46
c0 -23.333 9.16699 -42.833 27.5 -58.5s46.5 -23.5 84.5 -23.5s65.833 7.33301 83.5 22s26.5 34.667 26.5 60c0 23.333 -7 41.333 -21 54s-40.333 19 -79 19h-80zM144 228.002c0 -27.333 8.16699 -49.167 24.5 -65.5s37.166 -24.5 62.499 -24.5s46.333 8 63 24s25 38 25 66
c0 26.667 -8.33301 48.334 -25 65.001s-37.667 25 -63 25s-46.166 -8.33301 -62.499 -25s-24.5 -38.334 -24.5 -65.001zM386 546.001l-45 -55l-108 74l-108 -75l-45 56l153 118z" />
    <glyph glyph-name="Gbreve" unicode="&#x11e;" horiz-adv-x="780" 
d="M399 292l0.000976562 97.9922h338v-42c0 -58 -8.83301 -109.167 -26.5 -153.5s-41.834 -81.666 -72.501 -111.999s-66.834 -53.166 -108.501 -68.499s-86.5 -23 -134.5 -23c-49.333 0 -95.333 9.33301 -138 28s-80 44.334 -112 77.001s-57.167 70.667 -75.5 114
s-27.5 90 -27.5 140c0 49.333 9.16699 95.833 27.5 139.5s43.333 81.834 75 114.501s68.834 58.5 111.501 77.5s88.334 28.5 137.001 28.5c43.333 0 83.166 -6.5 119.499 -19.5s68.5 -30.667 96.5 -53s51.833 -48.5 71.5 -78.5s34.5 -61.667 44.5 -95h-116
c-6.66699 18.667 -16.334 36.834 -29.001 54.501s-28 33 -46 46s-38.5 23.5 -61.5 31.5s-48.167 12 -75.5 12c-34.667 0 -66.834 -6.66699 -96.501 -20s-55.5 -31.666 -77.5 -54.999s-39.333 -50.666 -52 -81.999s-19 -65 -19 -101c0 -36.667 6.33301 -70.667 19 -102
s29.834 -58.666 51.501 -81.999s47.334 -41.666 77.001 -54.999s61.5 -20 95.5 -20c32.667 0 62.667 5 90 15s51 24 71 42s36 39.167 48 63.5s19 51.166 21 80.499h-226zM390.001 762.992c-18.667 0 -36.999 2.66602 -54.999 7.99902s-34 13.166 -48 23.499
s-25.5 23 -34.5 38s-13.833 31.833 -14.5 50.5h83c3.33301 -15.333 12 -27.166 26 -35.499s28.333 -12.5 43 -12.5c12.667 0 26.667 4 42 12s24.666 20 27.999 36h83c-1.33301 -18.667 -6.5 -35.5 -15.5 -50.5s-20.5 -27.667 -34.5 -38s-30 -18.166 -48 -23.499
s-36.333 -8 -55 -8z" />
    <glyph glyph-name="gbreve" unicode="&#x11f;" horiz-adv-x="467" 
d="M52 228c0 23.333 4.66797 45.502 14.001 66.502s22.166 39.333 38.499 55s35.333 28 57 37s44.834 13.5 69.501 13.5h205v-70l-72 -5c14.667 -12 26.167 -27.167 34.5 -45.5s12.5 -39.166 12.5 -62.499c0 -21.333 -4.66699 -41.666 -14 -60.999s-22 -36.5 -38 -51.5
s-34.5 -26.833 -55.5 -35.5s-42.833 -13 -65.5 -13c-24 0 -43.667 3.16699 -59 9.5s-29.333 14.833 -42 25.5c-6.66699 -2 -13 -6.33301 -19 -13s-9 -16 -9 -28c0 -13.333 5.33301 -25 16 -35s25.667 -15 45 -15h81c63.333 0 111 -13.5 143 -40.5s48 -64.833 48 -113.5
c0 -48 -17.167 -87.333 -51.5 -118s-84.166 -46 -149.499 -46c-34.667 0 -64.834 4.5 -90.501 13.5s-46.834 20.833 -63.501 35.5s-29.167 31.5 -37.5 50.5s-12.5 38.5 -12.5 58.5c0 25.333 6.33301 48.5 19 69.5s26.667 35.833 42 44.5
c-19.333 6.66699 -36.333 18.167 -51 34.5s-22 37.166 -22 62.499c0 23.333 5.83301 42.666 17.5 57.999s24.167 27.333 37.5 36c-8 9.33301 -14.667 21.666 -20 36.999s-8 30.666 -8 45.999zM171.001 -80.998c-11.333 -6 -21.167 -15 -29.5 -27s-12.5 -27.333 -12.5 -46
c0 -23.333 9.16699 -42.833 27.5 -58.5s46.5 -23.5 84.5 -23.5s65.833 7.33301 83.5 22s26.5 34.667 26.5 60c0 23.333 -7 41.333 -21 54s-40.333 19 -79 19h-80zM144 228.002c0 -27.333 8.16699 -49.167 24.5 -65.5s37.166 -24.5 62.499 -24.5s46.333 8 63 24s25 38 25 66
c0 26.667 -8.33301 48.334 -25 65.001s-37.667 25 -63 25s-46.166 -8.33301 -62.499 -25s-24.5 -38.334 -24.5 -65.001zM232 504.001c-18.667 0 -36.998 3 -54.998 9s-34 14.667 -48 26s-25.5 25.166 -34.5 41.499s-13.833 34.833 -14.5 55.5h83
c3.33301 -17.333 12 -30.333 26 -39s28.333 -13 43 -13c15.333 0 30.166 4.33301 44.499 13s23.166 21.667 26.499 39h83c-1.33301 -20.667 -6.5 -39.167 -15.5 -55.5s-20.667 -30.166 -35 -41.499s-30.5 -20 -48.5 -26s-36.333 -9 -55 -9z" />
    <glyph glyph-name="Gdotaccent" unicode="&#x120;" horiz-adv-x="780" 
d="M399 292l0.000976562 97.9922h338v-42c0 -58 -8.83301 -109.167 -26.5 -153.5s-41.834 -81.666 -72.501 -111.999s-66.834 -53.166 -108.501 -68.499s-86.5 -23 -134.5 -23c-49.333 0 -95.333 9.33301 -138 28s-80 44.334 -112 77.001s-57.167 70.667 -75.5 114
s-27.5 90 -27.5 140c0 49.333 9.16699 95.833 27.5 139.5s43.333 81.834 75 114.501s68.834 58.5 111.501 77.5s88.334 28.5 137.001 28.5c43.333 0 83.166 -6.5 119.499 -19.5s68.5 -30.667 96.5 -53s51.833 -48.5 71.5 -78.5s34.5 -61.667 44.5 -95h-116
c-6.66699 18.667 -16.334 36.834 -29.001 54.501s-28 33 -46 46s-38.5 23.5 -61.5 31.5s-48.167 12 -75.5 12c-34.667 0 -66.834 -6.66699 -96.501 -20s-55.5 -31.666 -77.5 -54.999s-39.333 -50.666 -52 -81.999s-19 -65 -19 -101c0 -36.667 6.33301 -70.667 19 -102
s29.834 -58.666 51.501 -81.999s47.334 -41.666 77.001 -54.999s61.5 -20 95.5 -20c32.667 0 62.667 5 90 15s51 24 71 42s36 39.167 48 63.5s19 51.166 21 80.499h-226zM327.001 814.992c0 16.667 6 30.334 18 41.001s27 16 45 16c17.333 0 32.166 -5.33301 44.499 -16
s18.5 -24.334 18.5 -41.001c0 -15.333 -6.16699 -28.5 -18.5 -39.5s-27.166 -16.5 -44.499 -16.5c-18 0 -33 5.5 -45 16.5s-18 24.167 -18 39.5z" />
    <glyph glyph-name="gdotaccent" unicode="&#x121;" horiz-adv-x="467" 
d="M52 228c0 23.333 4.66797 45.502 14.001 66.502s22.166 39.333 38.499 55s35.333 28 57 37s44.834 13.5 69.501 13.5h205v-70l-72 -5c14.667 -12 26.167 -27.167 34.5 -45.5s12.5 -39.166 12.5 -62.499c0 -21.333 -4.66699 -41.666 -14 -60.999s-22 -36.5 -38 -51.5
s-34.5 -26.833 -55.5 -35.5s-42.833 -13 -65.5 -13c-24 0 -43.667 3.16699 -59 9.5s-29.333 14.833 -42 25.5c-6.66699 -2 -13 -6.33301 -19 -13s-9 -16 -9 -28c0 -13.333 5.33301 -25 16 -35s25.667 -15 45 -15h81c63.333 0 111 -13.5 143 -40.5s48 -64.833 48 -113.5
c0 -48 -17.167 -87.333 -51.5 -118s-84.166 -46 -149.499 -46c-34.667 0 -64.834 4.5 -90.501 13.5s-46.834 20.833 -63.501 35.5s-29.167 31.5 -37.5 50.5s-12.5 38.5 -12.5 58.5c0 25.333 6.33301 48.5 19 69.5s26.667 35.833 42 44.5
c-19.333 6.66699 -36.333 18.167 -51 34.5s-22 37.166 -22 62.499c0 23.333 5.83301 42.666 17.5 57.999s24.167 27.333 37.5 36c-8 9.33301 -14.667 21.666 -20 36.999s-8 30.666 -8 45.999zM171.001 -80.998c-11.333 -6 -21.167 -15 -29.5 -27s-12.5 -27.333 -12.5 -46
c0 -23.333 9.16699 -42.833 27.5 -58.5s46.5 -23.5 84.5 -23.5s65.833 7.33301 83.5 22s26.5 34.667 26.5 60c0 23.333 -7 41.333 -21 54s-40.333 19 -79 19h-80zM144 228.002c0 -27.333 8.16699 -49.167 24.5 -65.5s37.166 -24.5 62.499 -24.5s46.333 8 63 24s25 38 25 66
c0 26.667 -8.33301 48.334 -25 65.001s-37.667 25 -63 25s-46.166 -8.33301 -62.499 -25s-24.5 -38.334 -24.5 -65.001zM170 567.001c0 17.333 6 32.166 18 44.499s27 18.5 45 18.5c17.333 0 32.166 -6.16699 44.499 -18.5s18.5 -27.166 18.5 -44.499
c0 -18 -6.16699 -33 -18.5 -45s-27.166 -18 -44.499 -18c-18 0 -33 6 -45 18s-18 27 -18 45z" />
    <glyph glyph-name="Gcommaaccent" unicode="&#x122;" horiz-adv-x="780" 
d="M399 292l0.000976562 97.9922h338v-42c0 -58 -8.83301 -109.167 -26.5 -153.5s-41.834 -81.666 -72.501 -111.999s-66.834 -53.166 -108.501 -68.499s-86.5 -23 -134.5 -23c-49.333 0 -95.333 9.33301 -138 28s-80 44.334 -112 77.001s-57.167 70.667 -75.5 114
s-27.5 90 -27.5 140c0 49.333 9.16699 95.833 27.5 139.5s43.333 81.834 75 114.501s68.834 58.5 111.501 77.5s88.334 28.5 137.001 28.5c43.333 0 83.166 -6.5 119.499 -19.5s68.5 -30.667 96.5 -53s51.833 -48.5 71.5 -78.5s34.5 -61.667 44.5 -95h-116
c-6.66699 18.667 -16.334 36.834 -29.001 54.501s-28 33 -46 46s-38.5 23.5 -61.5 31.5s-48.167 12 -75.5 12c-34.667 0 -66.834 -6.66699 -96.501 -20s-55.5 -31.666 -77.5 -54.999s-39.333 -50.666 -52 -81.999s-19 -65 -19 -101c0 -36.667 6.33301 -70.667 19 -102
s29.834 -58.666 51.501 -81.999s47.334 -41.666 77.001 -54.999s61.5 -20 95.5 -20c32.667 0 62.667 5 90 15s51 24 71 42s36 39.167 48 63.5s19 51.166 21 80.499h-226zM478.001 -108.008l-104 -195l-64 23l71 201z" />
    <glyph glyph-name="gcommaaccent" unicode="&#x123;" horiz-adv-x="467" 
d="M52 228c0 23.333 4.66797 45.502 14.001 66.502s22.166 39.333 38.499 55s35.333 28 57 37s44.834 13.5 69.501 13.5h205v-70l-72 -5c14.667 -12 26.167 -27.167 34.5 -45.5s12.5 -39.166 12.5 -62.499c0 -21.333 -4.66699 -41.666 -14 -60.999s-22 -36.5 -38 -51.5
s-34.5 -26.833 -55.5 -35.5s-42.833 -13 -65.5 -13c-24 0 -43.667 3.16699 -59 9.5s-29.333 14.833 -42 25.5c-6.66699 -2 -13 -6.33301 -19 -13s-9 -16 -9 -28c0 -13.333 5.33301 -25 16 -35s25.667 -15 45 -15h81c63.333 0 111 -13.5 143 -40.5s48 -64.833 48 -113.5
c0 -48 -17.167 -87.333 -51.5 -118s-84.166 -46 -149.499 -46c-34.667 0 -64.834 4.5 -90.501 13.5s-46.834 20.833 -63.501 35.5s-29.167 31.5 -37.5 50.5s-12.5 38.5 -12.5 58.5c0 25.333 6.33301 48.5 19 69.5s26.667 35.833 42 44.5
c-19.333 6.66699 -36.333 18.167 -51 34.5s-22 37.166 -22 62.499c0 23.333 5.83301 42.666 17.5 57.999s24.167 27.333 37.5 36c-8 9.33301 -14.667 21.666 -20 36.999s-8 30.666 -8 45.999zM171.001 -80.998c-11.333 -6 -21.167 -15 -29.5 -27s-12.5 -27.333 -12.5 -46
c0 -23.333 9.16699 -42.833 27.5 -58.5s46.5 -23.5 84.5 -23.5s65.833 7.33301 83.5 22s26.5 34.667 26.5 60c0 23.333 -7 41.333 -21 54s-40.333 19 -79 19h-80zM144 228.002c0 -27.333 8.16699 -49.167 24.5 -65.5s37.166 -24.5 62.499 -24.5s46.333 8 63 24s25 38 25 66
c0 26.667 -8.33301 48.334 -25 65.001s-37.667 25 -63 25s-46.166 -8.33301 -62.499 -25s-24.5 -38.334 -24.5 -65.001zM169 518.001l104 195l64 -23l-71 -201z" />
    <glyph glyph-name="Hcircumflex" unicode="&#x124;" horiz-adv-x="731" 
d="M657 0h-109v313h-365v-313h-109v700h109v-286h365v286h109v-700zM518 801l-45 -49l-108 66l-108 -67l-45 50l153 106z" />
    <glyph glyph-name="hcircumflex" unicode="&#x125;" horiz-adv-x="518" 
d="M62 653h99v-301c13.333 14 31.333 27.167 54 39.5s51.334 18.5 86.001 18.5c22.667 0 43.667 -3.83301 63 -11.5s36.166 -18.5 50.499 -32.5s25.5 -31.167 33.5 -51.5s12 -43.166 12 -68.499v-246h-100v225c0 30.667 -7.16699 54.167 -21.5 70.5s-35.5 24.5 -63.5 24.5
c-27.333 0 -50.5 -6.83301 -69.5 -20.5s-33.833 -28.834 -44.5 -45.501v-254h-99v653zM264 801l-45 -49l-108 66l-108 -67l-45 50l153 106z" />
    <glyph glyph-name="Hbar" unicode="&#x126;" horiz-adv-x="731" 
d="M4 588h70v112h109v-112h365v112h109v-112h69v-79h-69v-509h-109v313h-365v-313h-109v509h-70v79zM548 414v95h-365v-95h365z" />
    <glyph glyph-name="hbar" unicode="&#x127;" horiz-adv-x="518" 
d="M0 588h62v65h99v-65h138v-79h-138v-157c13.333 14 31.333 27.167 54 39.5s51.334 18.5 86.001 18.5c22.667 0 43.667 -3.83301 63 -11.5s36.166 -18.5 50.499 -32.5s25.5 -31.167 33.5 -51.5s12 -43.166 12 -68.499v-246h-100v225c0 30.667 -7.16699 54.167 -21.5 70.5
s-35.5 24.5 -63.5 24.5c-27.333 0 -50.5 -6.83301 -69.5 -20.5s-33.833 -28.834 -44.5 -45.501v-254h-99v509h-62v79z" />
    <glyph glyph-name="Itilde" unicode="&#x128;" horiz-adv-x="271" 
d="M190 0h-109v700h109v-700zM24 756l-28.501 19.499l-28.5 19.5c9.33301 21.333 22.5 39.5 39.5 54.5s36.833 22.5 59.5 22.5c12.667 0 24.834 -2.16699 36.501 -6.5s23 -9.16602 34 -14.499s21.667 -10.166 32 -14.499s20.833 -6.5 31.5 -6.5s20 4.66699 28 14
s14 20.333 18 33l29.5 -18.5l28.5 -18.5c-8.66699 -22 -21.834 -40.5 -39.501 -55.5s-37.5 -22.5 -59.5 -22.5c-12.667 0 -24.5 2.16699 -35.5 6.5s-21.667 9.16602 -32 14.499s-20.666 10.166 -30.999 14.499s-20.833 6.5 -31.5 6.5c-13.333 0 -24 -4.66699 -32 -14
s-14.333 -20.666 -19 -33.999z" />
    <glyph glyph-name="itilde" unicode="&#x129;" horiz-adv-x="234" 
d="M68 400h99v-400h-99v400zM6 497c-9.33301 7.33301 -18.834 14.333 -28.501 21s-19.167 13.667 -28.5 21c9.33301 23.333 22.5 43.5 39.5 60.5s36.833 25.5 59.5 25.5c12.667 0 24.834 -2.5 36.501 -7.5s23 -10.333 34 -16l32 -16c10.333 -5 20.833 -7.5 31.5 -7.5
s20 5.33301 28 16s14 23 18 37l58 -42c-8.66699 -24 -21.834 -44.333 -39.501 -61s-37.5 -25 -59.5 -25c-12.667 0 -24.5 2.5 -35.5 7.5s-21.667 10.333 -32 16s-20.666 11 -30.999 16s-20.833 7.5 -31.5 7.5c-13.333 0 -24 -5.16699 -32 -15.5s-14.333 -22.833 -19 -37.5z
" />
    <glyph glyph-name="Imacron" unicode="&#x12a;" horiz-adv-x="271" 
d="M190 0h-109v700h109v-700zM-15 838h300v-71h-300v71z" />
    <glyph glyph-name="imacron" unicode="&#x12b;" horiz-adv-x="234" 
d="M68 400h99v-400h-99v400zM-33 588h300v-79h-300v79z" />
    <glyph glyph-name="Ibreve" unicode="&#x12c;" horiz-adv-x="271" 
d="M190 0h-109v700h109v-700zM135 763c-18.667 0 -36.999 2.66602 -54.999 7.99902s-34 13.166 -48 23.499s-25.5 23 -34.5 38s-13.833 31.833 -14.5 50.5h83c3.33301 -15.333 12 -27.166 26 -35.499s28.333 -12.5 43 -12.5c12.667 0 26.667 4 42 12s24.666 20 27.999 36h83
c-1.33301 -18.667 -6.5 -35.5 -15.5 -50.5s-20.5 -27.667 -34.5 -38s-30 -18.166 -48 -23.499s-36.333 -8 -55 -8z" />
    <glyph glyph-name="ibreve" unicode="&#x12d;" horiz-adv-x="234" 
d="M68 400h99v-400h-99v400zM116 504c-18.667 0 -36.998 3 -54.998 9s-34 14.667 -48 26s-25.5 25.166 -34.5 41.499s-13.833 34.833 -14.5 55.5h83c3.33301 -17.333 12 -30.333 26 -39s28.333 -13 43 -13c15.333 0 30.166 4.33301 44.499 13s23.166 21.667 26.499 39h83
c-1.33301 -20.667 -6.5 -39.167 -15.5 -55.5s-20.667 -30.166 -35 -41.499s-30.5 -20 -48.5 -26s-36.333 -9 -55 -9z" />
    <glyph glyph-name="Iogonek" unicode="&#x12e;" horiz-adv-x="271" 
d="M190 0h-25c-23.333 -15.333 -41.666 -31.5 -54.999 -48.5s-20 -33.167 -20 -48.5c0 -12 4 -20.5 12 -25.5s19 -7.5 33 -7.5c9.33301 0 19.666 0.833008 30.999 2.5s22.666 4.5 33.999 8.5v-79c-12.667 -4.66699 -25.167 -8.16699 -37.5 -10.5s-26.166 -3.5 -41.499 -3.5
c-36.667 0 -65.667 8.5 -87 25.5s-32 39.833 -32 68.5c0 26 8.16699 49.333 24.5 70s34.5 36.667 54.5 48v700h109v-700z" />
    <glyph glyph-name="iogonek" unicode="&#x12f;" horiz-adv-x="234" 
d="M151 0c-23.333 -15.333 -41.666 -31.5 -54.999 -48.5s-20 -33.167 -20 -48.5c0 -12 4 -20.5 12 -25.5s19 -7.5 33 -7.5c9.33301 0 19.666 0.833008 30.999 2.5s22.666 4.5 33.999 8.5v-79c-12.667 -4.66699 -25.167 -8.16699 -37.5 -10.5s-26.166 -3.5 -41.499 -3.5
c-36.667 0 -65.667 8.5 -87 25.5s-32 39.833 -32 68.5c0 26 8.33301 49.333 25 70s35 36.667 55 48v400h99v-400h-16zM54 567c0 17.333 6 32.166 18 44.499s27 18.5 45 18.5c17.333 0 32.333 -6.16699 45 -18.5s19 -27.166 19 -44.499c0 -18 -6.33301 -33 -19 -45
s-27.667 -18 -45 -18c-18 0 -33 6 -45 18s-18 27 -18 45z" />
    <glyph glyph-name="Idotaccent" unicode="&#x130;" horiz-adv-x="271" 
d="M190 0h-109v700h109v-700zM72 815c0 16.667 6 30.334 18 41.001s27 16 45 16c17.333 0 32.166 -5.33301 44.499 -16s18.5 -24.334 18.5 -41.001c0 -15.333 -6.16699 -28.5 -18.5 -39.5s-27.166 -16.5 -44.499 -16.5c-18 0 -33 5.5 -45 16.5s-18 24.167 -18 39.5z" />
    <glyph glyph-name="dotlessi" unicode="&#x131;" horiz-adv-x="234" 
d="M68 400h99v-400h-99v400z" />
    <glyph glyph-name="IJ" unicode="&#x132;" horiz-adv-x="795" 
d="M190 0h-109v700h109v-700zM613 700l109.002 -0.000976562v-491c0 -32 -5.33301 -61.333 -16 -88s-26 -49.667 -46 -69s-44 -34.333 -72 -45s-59.333 -16 -94 -16c-28 0 -54.833 4 -80.5 12s-48.834 19.833 -69.501 35.5s-37.834 35.334 -51.501 59.001
s-22.167 51.167 -25.5 82.5h108c7.33301 -32 21.5 -54.667 42.5 -68s46.5 -20 76.5 -20c37.333 0 66.5 10 87.5 30s31.5 49 31.5 87v491z" />
    <glyph glyph-name="ij" unicode="&#x133;" horiz-adv-x="468" 
d="M68 400h99v-400h-99v400zM54 567c0 17.333 6 32.166 18 44.499s27 18.5 45 18.5c17.333 0 32.333 -6.16699 45 -18.5s19 -27.166 19 -44.499c0 -18 -6.33301 -33 -19 -45s-27.667 -18 -45 -18c-18 0 -33 6 -45 18s-18 27 -18 45zM401 -86
c0 -57.333 -12.833 -100.667 -38.5 -130s-65.167 -44 -118.5 -44c-18.667 0 -37 2 -55 6v88c8 -1.33301 15.667 -2.5 23 -3.5s15 -1.5 23 -1.5c23.333 0 40.333 7 51 21s16 35 16 63v487h99v-486zM288 566.999c0 17.333 6 32.166 18 44.499s27 18.5 45 18.5
s33 -6.16699 45 -18.5s18 -27.166 18 -44.499c0 -18 -6 -33 -18 -45s-27 -18 -45 -18s-33 6 -45 18s-18 27 -18 45z" />
    <glyph glyph-name="Jcircumflex" unicode="&#x134;" horiz-adv-x="524" 
d="M342 700l109.002 -0.000976562v-491c0 -32 -5.33301 -61.333 -16 -88s-26 -49.667 -46 -69s-44 -34.333 -72 -45s-59.333 -16 -94 -16c-28 0 -54.833 4 -80.5 12s-48.834 19.833 -69.501 35.5s-37.834 35.334 -51.501 59.001s-22.167 51.167 -25.5 82.5h108
c7.33301 -32 21.5 -54.667 42.5 -68s46.5 -20 76.5 -20c37.333 0 66.5 10 87.5 30s31.5 49 31.5 87v491zM550.002 800.999l-45 -49l-108 66l-108 -67l-45 50l153 106z" />
    <glyph glyph-name="jcircumflex" unicode="&#x135;" horiz-adv-x="234" 
d="M167 -86c0 -57.333 -12.833 -100.667 -38.5 -130s-65.167 -44 -118.5 -44c-18.667 0 -37 2 -55 6v88c8 -1.33301 15.667 -2.5 23 -3.5s15 -1.5 23 -1.5c23.333 0 40.333 7 51 21s16 35 16 63v487h99v-486zM270 545.999l-45 -55l-108 74l-108 -75l-45 56l153 118z" />
    <glyph glyph-name="Kcommaaccent" unicode="&#x136;" horiz-adv-x="608" 
d="M213 324l-36 -33v-291h-109v700h109v-285l291 285h137l-316 -311l322 -389h-130zM391 -108l-104 -195l-64 23l71 201z" />
    <glyph glyph-name="kcommaaccent" unicode="&#x137;" horiz-adv-x="447" 
d="M182 180l-21 -22v-158h-99v653h99v-389l152 136h123l-188 -168l195 -232h-113zM299 -108l-104 -195l-64 23l71 201z" />
    <glyph glyph-name="kgreenlandic" unicode="&#x138;" horiz-adv-x="447" 
d="M182 180l-21 -22v-158h-99v400h99v-136l152 136h123l-188 -168l195 -232h-113z" />
    <glyph glyph-name="Lacute" unicode="&#x139;" horiz-adv-x="545" 
d="M183 700v-599h347v-101h-456v700h109zM247 859l-188 -107l-48 45l178 136z" />
    <glyph glyph-name="lacute" unicode="&#x13a;" horiz-adv-x="232" 
d="M166 0h-100v653h100v-653zM234 859l-188 -107l-48 45l178 136z" />
    <glyph glyph-name="Lcommaaccent" unicode="&#x13b;" horiz-adv-x="545" 
d="M183 700v-599h347v-101h-456v700h109zM379 -108l-104 -195l-64 23l71 201z" />
    <glyph glyph-name="lcommaaccent" unicode="&#x13c;" horiz-adv-x="232" 
d="M166 0h-100v653h100v-653zM166 -108l-104 -195l-64 23l71 201z" />
    <glyph glyph-name="Lcaron" unicode="&#x13d;" horiz-adv-x="545" 
d="M183 700v-599h347v-101h-456v700h109zM439 684l-104 -195l-64 23l71 201z" />
    <glyph glyph-name="lcaron" unicode="&#x13e;" horiz-adv-x="341" 
d="M166 0h-100v653h100v-653zM371 684l-104 -195l-64 23l71 201z" />
    <glyph glyph-name="Ldot" unicode="&#x13f;" horiz-adv-x="545" 
d="M183 700v-599h347v-101h-456v700h109zM287 311c0 19.333 6.5 35.666 19.5 48.999s29.167 20 48.5 20c18.667 0 34.667 -6.66699 48 -20s20 -29.666 20 -48.999c0 -18.667 -6.66699 -34.5 -20 -47.5s-29.333 -19.5 -48 -19.5c-19.333 0 -35.5 6.5 -48.5 19.5
s-19.5 28.833 -19.5 47.5z" />
    <glyph glyph-name="ldot" unicode="&#x140;" horiz-adv-x="331" 
d="M166 0h-100v653h100v-653zM205 311c0 19.333 6.5 35.666 19.5 48.999s29.167 20 48.5 20c18.667 0 34.667 -6.66699 48 -20s20 -29.666 20 -48.999c0 -18.667 -6.66699 -34.5 -20 -47.5s-29.333 -19.5 -48 -19.5c-19.333 0 -35.5 6.5 -48.5 19.5s-19.5 28.833 -19.5 47.5
z" />
    <glyph glyph-name="Lslash" unicode="&#x141;" horiz-adv-x="545" 
d="M-9 284l98 55v361h108v-298l174 100l43 -74l-217 -125v-202h347v-101h-455v240l-55 -31z" />
    <glyph glyph-name="lslash" unicode="&#x142;" horiz-adv-x="232" 
d="M178 388l53 31l43 -75l-96 -56v-288h-100v231l-54 -32l-42 75l96 56v323h100v-265z" />
    <glyph glyph-name="Nacute" unicode="&#x143;" horiz-adv-x="733" 
d="M659 -18h-68l-408 516v-498h-109v711h64l413 -520v509h108v-718zM484 859l-188 -107l-48 45l178 136z" />
    <glyph glyph-name="nacute" unicode="&#x144;" horiz-adv-x="516" 
d="M60 400l91.999 -0.000976562l8 -52c13.333 14.667 31.333 28.667 54 42s51 20 85 20c22.667 0 43.834 -3.83301 63.501 -11.5s36.5 -18.5 50.5 -32.5s25 -31.167 33 -51.5s12 -43.166 12 -68.499v-246h-99v225c0 30.667 -7.16699 54.167 -21.5 70.5
s-35.5 24.5 -63.5 24.5c-27.333 0 -50.5 -7.33301 -69.5 -22s-33.833 -31 -44.5 -49v-249h-100v400zM375.999 610.999l-188 -120l-48 51l178 151z" />
    <glyph glyph-name="Ncommaaccent" unicode="&#x145;" horiz-adv-x="733" 
d="M659 -18h-68l-408 516v-498h-109v711h64l413 -520v509h108v-718zM450 -108l-104 -195l-64 23l71 201z" />
    <glyph glyph-name="ncommaaccent" unicode="&#x146;" horiz-adv-x="516" 
d="M60 400l91.999 -0.000976562l8 -52c13.333 14.667 31.333 28.667 54 42s51 20 85 20c22.667 0 43.834 -3.83301 63.501 -11.5s36.5 -18.5 50.5 -32.5s25 -31.167 33 -51.5s12 -43.166 12 -68.499v-246h-99v225c0 30.667 -7.16699 54.167 -21.5 70.5
s-35.5 24.5 -63.5 24.5c-27.333 0 -50.5 -7.33301 -69.5 -22s-33.833 -31 -44.5 -49v-249h-100v400zM324.999 -108.001l-104 -195l-64 23l71 201z" />
    <glyph glyph-name="Ncaron" unicode="&#x147;" horiz-adv-x="733" 
d="M659 -18h-68l-408 516v-498h-109v711h64l413 -520v509h108v-718zM366 750l-153 105l45 51l108 -67l108 66l45 -50z" />
    <glyph glyph-name="ncaron" unicode="&#x148;" horiz-adv-x="516" 
d="M60 400l91.999 -0.000976562l8 -52c13.333 14.667 31.333 28.667 54 42s51 20 85 20c22.667 0 43.834 -3.83301 63.501 -11.5s36.5 -18.5 50.5 -32.5s25 -31.167 33 -51.5s12 -43.166 12 -68.499v-246h-99v225c0 30.667 -7.16699 54.167 -21.5 70.5
s-35.5 24.5 -63.5 24.5c-27.333 0 -50.5 -7.33301 -69.5 -22s-33.833 -31 -44.5 -49v-249h-100v400zM257.999 487.999l-153 118l45 56l108 -75l108 74l45 -55z" />
    <glyph glyph-name="napostrophe" unicode="&#x149;" horiz-adv-x="536" 
d="M80 400l91.999 -0.000976562l8 -52c13.333 14.667 31.333 28.667 54 42s51 20 85 20c22.667 0 43.834 -3.83301 63.501 -11.5s36.5 -18.5 50.5 -32.5s25 -31.167 33 -51.5s12 -43.166 12 -68.499v-246h-99v225c0 30.667 -7.16699 54.167 -21.5 70.5
s-35.5 24.5 -63.5 24.5c-27.333 0 -50.5 -7.33301 -69.5 -22s-33.833 -31 -44.5 -49v-249h-100v400zM154.999 683.999l-104 -195l-64 23l71 201z" />
    <glyph glyph-name="Eng" unicode="&#x14a;" horiz-adv-x="733" 
d="M551 32l-367.997 465.999v-498h-109v711h64l413 -520v509h108v-742c0 -32 -5.33301 -61.333 -16 -88s-25.834 -49.667 -45.501 -69s-43.5 -34.333 -71.5 -45s-59.333 -16 -94 -16c-28 0 -54.833 4 -80.5 12s-48.834 19.833 -69.501 35.5s-37.834 35.334 -51.501 59.001
s-22.5 51.167 -26.5 82.5h109c6.66699 -32 20.5 -54.667 41.5 -68s46.833 -20 77.5 -20c37.333 0 66.5 10 87.5 30s31.5 49 31.5 87v74z" />
    <glyph glyph-name="eng" unicode="&#x14b;" horiz-adv-x="516" 
d="M60 400l91.999 -0.00195312l8 -52c13.333 14.667 31.333 28.667 54 42s51 20 85 20c22.667 0 43.834 -3.83301 63.501 -11.5s36.5 -18.5 50.5 -32.5s25 -31.167 33 -51.5s12 -43.166 12 -68.499v-332c0 -57.333 -12.833 -100.666 -38.5 -129.999s-65.167 -44 -118.5 -44
c-18.667 0 -37 2 -55 6v88l23.5 -3.5c7 -1 14.5 -1.5 22.5 -1.5c23.333 0 40.333 7 51 21s16 35 16 63v312c0 30.667 -7.16699 54.167 -21.5 70.5s-35.5 24.5 -63.5 24.5c-27.333 0 -50.5 -7.33301 -69.5 -22s-33.833 -31 -44.5 -49v-249h-100v400z" />
    <glyph glyph-name="Omacron" unicode="&#x14c;" horiz-adv-x="784" 
d="M42 350c0 49.333 9.16699 95.833 27.5 139.5s43.166 81.834 74.499 114.501s68.333 58.5 111 77.5s88 28.5 136 28.5s93.333 -9.5 136 -28.5s79.667 -44.833 111 -77.5s56.166 -70.834 74.499 -114.501s27.5 -90.167 27.5 -139.5c0 -50 -9.16699 -96.667 -27.5 -140
s-43.166 -81.333 -74.499 -114s-68.333 -58.334 -111 -77.001s-88 -28 -136 -28s-93.333 9.33301 -136 28s-79.667 44.334 -111 77.001s-56.166 70.667 -74.499 114s-27.5 90 -27.5 140zM152 350c0 -36.667 6.16699 -70.667 18.5 -102s29.333 -58.5 51 -81.5
s47 -41.167 76 -54.5s60.167 -20 93.5 -20s64.5 6.66699 93.5 20s54.333 31.5 76 54.5s38.834 50.167 51.501 81.5s19 65.333 19 102c0 36 -6.33301 69.667 -19 101s-29.834 58.666 -51.501 81.999s-47 41.666 -76 54.999s-60.167 20 -93.5 20s-64.5 -6.66699 -93.5 -20
s-54.333 -31.666 -76 -54.999s-38.667 -50.666 -51 -81.999s-18.5 -65 -18.5 -101zM242 838h300v-71h-300v71z" />
    <glyph glyph-name="omacron" unicode="&#x14d;" horiz-adv-x="491" 
d="M135 200c0 -36.667 10.333 -66 31 -88s47 -33 79 -33s58.5 11 79.5 33s31.5 51.333 31.5 88s-10.5 66 -31.5 88s-47.5 33 -79.5 33s-58.333 -11 -79 -33s-31 -51.333 -31 -88zM38 200c0 28.667 5.16699 55.834 15.5 81.501s24.666 48 42.999 67s40.166 34 65.499 45
s53 16.5 83 16.5s57.833 -5.5 83.5 -16.5s47.667 -26 66 -45s32.666 -41.333 42.999 -67s15.5 -52.834 15.5 -81.501c0 -29.333 -5.16699 -56.666 -15.5 -81.999s-24.666 -47.333 -42.999 -66s-40.333 -33.5 -66 -44.5s-53.5 -16.5 -83.5 -16.5s-57.667 5.5 -83 16.5
s-47.166 25.833 -65.499 44.5s-32.666 40.667 -42.999 66s-15.5 52.666 -15.5 81.999zM95 588h300v-79h-300v79z" />
    <glyph glyph-name="Obreve" unicode="&#x14e;" horiz-adv-x="784" 
d="M42 350c0 49.333 9.16699 95.833 27.5 139.5s43.166 81.834 74.499 114.501s68.333 58.5 111 77.5s88 28.5 136 28.5s93.333 -9.5 136 -28.5s79.667 -44.833 111 -77.5s56.166 -70.834 74.499 -114.501s27.5 -90.167 27.5 -139.5c0 -50 -9.16699 -96.667 -27.5 -140
s-43.166 -81.333 -74.499 -114s-68.333 -58.334 -111 -77.001s-88 -28 -136 -28s-93.333 9.33301 -136 28s-79.667 44.334 -111 77.001s-56.166 70.667 -74.499 114s-27.5 90 -27.5 140zM152 350c0 -36.667 6.16699 -70.667 18.5 -102s29.333 -58.5 51 -81.5
s47 -41.167 76 -54.5s60.167 -20 93.5 -20s64.5 6.66699 93.5 20s54.333 31.5 76 54.5s38.834 50.167 51.501 81.5s19 65.333 19 102c0 36 -6.33301 69.667 -19 101s-29.834 58.666 -51.501 81.999s-47 41.666 -76 54.999s-60.167 20 -93.5 20s-64.5 -6.66699 -93.5 -20
s-54.333 -31.666 -76 -54.999s-38.667 -50.666 -51 -81.999s-18.5 -65 -18.5 -101zM392 763c-18.667 0 -36.999 2.66602 -54.999 7.99902s-34 13.166 -48 23.499s-25.5 23 -34.5 38s-13.833 31.833 -14.5 50.5h83c3.33301 -15.333 12 -27.166 26 -35.499
s28.333 -12.5 43 -12.5c12.667 0 26.667 4 42 12s24.666 20 27.999 36h83c-1.33301 -18.667 -6.5 -35.5 -15.5 -50.5s-20.5 -27.667 -34.5 -38s-30 -18.166 -48 -23.499s-36.333 -8 -55 -8z" />
    <glyph glyph-name="obreve" unicode="&#x14f;" horiz-adv-x="491" 
d="M135 200c0 -36.667 10.333 -66 31 -88s47 -33 79 -33s58.5 11 79.5 33s31.5 51.333 31.5 88s-10.5 66 -31.5 88s-47.5 33 -79.5 33s-58.333 -11 -79 -33s-31 -51.333 -31 -88zM38 200c0 28.667 5.16699 55.834 15.5 81.501s24.666 48 42.999 67s40.166 34 65.499 45
s53 16.5 83 16.5s57.833 -5.5 83.5 -16.5s47.667 -26 66 -45s32.666 -41.333 42.999 -67s15.5 -52.834 15.5 -81.501c0 -29.333 -5.16699 -56.666 -15.5 -81.999s-24.666 -47.333 -42.999 -66s-40.333 -33.5 -66 -44.5s-53.5 -16.5 -83.5 -16.5s-57.667 5.5 -83 16.5
s-47.166 25.833 -65.499 44.5s-32.666 40.667 -42.999 66s-15.5 52.666 -15.5 81.999zM244 504c-18.667 0 -36.998 3 -54.998 9s-34 14.667 -48 26s-25.5 25.166 -34.5 41.499s-13.833 34.833 -14.5 55.5h83c3.33301 -17.333 12 -30.333 26 -39s28.333 -13 43 -13
c15.333 0 30.166 4.33301 44.499 13s23.166 21.667 26.499 39h83c-1.33301 -20.667 -6.5 -39.167 -15.5 -55.5s-20.667 -30.166 -35 -41.499s-30.5 -20 -48.5 -26s-36.333 -9 -55 -9z" />
    <glyph glyph-name="Ohungarumlaut" unicode="&#x150;" horiz-adv-x="784" 
d="M42 350c0 49.333 9.16699 95.833 27.5 139.5s43.166 81.834 74.499 114.501s68.333 58.5 111 77.5s88 28.5 136 28.5s93.333 -9.5 136 -28.5s79.667 -44.833 111 -77.5s56.166 -70.834 74.499 -114.501s27.5 -90.167 27.5 -139.5c0 -50 -9.16699 -96.667 -27.5 -140
s-43.166 -81.333 -74.499 -114s-68.333 -58.334 -111 -77.001s-88 -28 -136 -28s-93.333 9.33301 -136 28s-79.667 44.334 -111 77.001s-56.166 70.667 -74.499 114s-27.5 90 -27.5 140zM152 350c0 -36.667 6.16699 -70.667 18.5 -102s29.333 -58.5 51 -81.5
s47 -41.167 76 -54.5s60.167 -20 93.5 -20s64.5 6.66699 93.5 20s54.333 31.5 76 54.5s38.834 50.167 51.501 81.5s19 65.333 19 102c0 36 -6.33301 69.667 -19 101s-29.834 58.666 -51.501 81.999s-47 41.666 -76 54.999s-60.167 20 -93.5 20s-64.5 -6.66699 -93.5 -20
s-54.333 -31.666 -76 -54.999s-38.667 -50.666 -51 -81.999s-18.5 -65 -18.5 -101zM340 755l-67 32l81 153l89 -30zM527 755l-67 32l81 153l90 -30z" />
    <glyph glyph-name="ohungarumlaut" unicode="&#x151;" horiz-adv-x="491" 
d="M135 200c0 -36.667 10.333 -66 31 -88s47 -33 79 -33s58.5 11 79.5 33s31.5 51.333 31.5 88s-10.5 66 -31.5 88s-47.5 33 -79.5 33s-58.333 -11 -79 -33s-31 -51.333 -31 -88zM38 200c0 28.667 5.16699 55.834 15.5 81.501s24.666 48 42.999 67s40.166 34 65.499 45
s53 16.5 83 16.5s57.833 -5.5 83.5 -16.5s47.667 -26 66 -45s32.666 -41.333 42.999 -67s15.5 -52.834 15.5 -81.501c0 -29.333 -5.16699 -56.666 -15.5 -81.999s-24.666 -47.333 -42.999 -66s-40.333 -33.5 -66 -44.5s-53.5 -16.5 -83.5 -16.5s-57.667 5.5 -83 16.5
s-47.166 25.833 -65.499 44.5s-32.666 40.667 -42.999 66s-15.5 52.666 -15.5 81.999zM173 496l-67 36l81 170l89 -33zM360 496l-67 36l81 170l90 -33z" />
    <glyph glyph-name="OE" unicode="&#x152;" horiz-adv-x="1146" 
d="M740 598v-185.002h323v-101h-323v-211h356v-101h-465v103c-28.667 -34 -64 -61.167 -106 -81.5s-86.667 -30.5 -134 -30.5c-48 0 -93.333 9.33301 -136 28s-79.667 44.334 -111 77.001s-56.166 70.667 -74.499 114s-27.5 90 -27.5 140
c0 49.333 9.16699 95.833 27.5 139.5s43.166 81.834 74.499 114.501s68.333 58.5 111 77.5s88 28.5 136 28.5c47.333 0 92 -10.333 134 -31s77.333 -48 106 -82v103h465v-102h-356zM152 349.998c0 -36.667 6.16797 -70.666 18.501 -101.999s29.333 -58.5 51 -81.5
s47 -41.167 76 -54.5s60.167 -20 93.5 -20c32.667 0 63.5 6.5 92.5 19.5s54.5 31 76.5 54s39.333 50.167 52 81.5s19 65.666 19 102.999c0 36 -6.33301 69.667 -19 101s-29.834 58.666 -51.501 81.999s-47 41.666 -76 54.999s-60.167 20 -93.5 20s-64.5 -6.66699 -93.5 -20
s-54.333 -31.666 -76 -54.999s-38.667 -50.666 -51 -81.999s-18.5 -65 -18.5 -101z" />
    <glyph glyph-name="oe" unicode="&#x153;" horiz-adv-x="798" 
d="M445 173c4 -30 15.9961 -54.665 35.9961 -73.998s48 -29 84 -29c25.333 0 46.333 5.66699 63 17s27.667 25.666 33 42.999h92c-9.33301 -41.333 -30.333 -74.833 -63 -100.5s-75 -38.5 -127 -38.5c-35.333 0 -66.666 7.66699 -93.999 23s-49.666 34.666 -66.999 57.999
c-17.333 -23.333 -39.333 -42.666 -66 -57.999s-57 -23 -91 -23c-30 0 -57.667 5.5 -83 16.5s-47.166 25.833 -65.499 44.5s-32.666 40.667 -42.999 66s-15.5 52.666 -15.5 81.999c0 28.667 5.16699 55.834 15.5 81.501s24.5 48 42.5 67s39.5 34 64.5 45
s52.167 16.5 81.5 16.5c35.333 0 66.5 -7.83301 93.5 -23.5s49.167 -35.167 66.5 -58.5c17.333 23.333 39.5 42.833 66.5 58.5s58.167 23.5 93.5 23.5c30 0 57.167 -5.66699 81.5 -17s45.333 -26.333 63 -45s31.167 -40 40.5 -64s14 -48.333 14 -73v-18
c0 -6.66699 -0.666992 -13.334 -2 -20.001h-314zM134.996 200.002c0 -36.667 10.333 -66 31 -88s47 -33 79 -33s58.167 10.833 78.5 32.5s31.166 51.167 32.499 88.5c-1.33301 37.333 -12.166 66.833 -32.499 88.5s-46.5 32.5 -78.5 32.5s-58.333 -11 -79 -33
s-31 -51.333 -31 -88zM564.996 330.002c-32 0 -57.834 -8.83301 -77.501 -26.5s-32.167 -40.167 -37.5 -67.5h219c-1.33301 12 -4.66602 23.5 -9.99902 34.5s-12.5 21 -21.5 30s-19.667 16.167 -32 21.5s-25.833 8 -40.5 8z" />
    <glyph glyph-name="Racute" unicode="&#x154;" horiz-adv-x="637" 
d="M183 0h-108.999v700h270c34 0 65.833 -3.66699 95.5 -11s55.667 -19.166 78 -35.499s39.833 -38 52.5 -65s19 -60.167 19 -99.5c0 -30.667 -4.33301 -57.334 -13 -80.001s-20.834 -42 -36.501 -58s-34.167 -28.5 -55.5 -37.5s-44.333 -15.5 -69 -19.5
c4 -6.66699 11 -17.667 21 -33l34 -52.5l40.5 -61.5l40.5 -61.5l34 -52.5c10 -15.333 17 -26.333 21 -33h-117l-188 286h-118v-286zM346.001 386c18.667 0 36.167 1.66797 52.5 5.00098s30.5 9.16602 42.5 17.499s21.5 19.166 28.5 32.499s10.5 30 10.5 50
s-3.33301 37 -10 51s-16 25.333 -28 34s-26.333 14.834 -43 18.501s-35 5.5 -55 5.5h-162v-214h164zM436.001 859.001l-188 -107l-48 45l178 136z" />
    <glyph glyph-name="racute" unicode="&#x155;" horiz-adv-x="331" 
d="M60 400h91.0029l8 -53c4.66699 6.66699 10.667 13.5 18 20.5s16.166 13.5 26.499 19.5s22.333 11 36 15s29.167 6 46.5 6c4.66699 0 10.167 -0.166992 16.5 -0.5s12.166 -0.833008 17.499 -1.5v-90c-4 0.666992 -9 1.16699 -15 1.5s-11 0.5 -15 0.5
c-17.333 0 -33 -2.16699 -47 -6.5s-26.333 -10 -37 -17s-19.834 -14.5 -27.501 -22.5s-14.167 -16 -19.5 -24v-248h-99v400zM293.003 611l-188 -120l-48 51l178 151z" />
    <glyph glyph-name="Rcommaaccent" unicode="&#x156;" horiz-adv-x="637" 
d="M183 0h-108.999v700h270c34 0 65.833 -3.66699 95.5 -11s55.667 -19.166 78 -35.499s39.833 -38 52.5 -65s19 -60.167 19 -99.5c0 -30.667 -4.33301 -57.334 -13 -80.001s-20.834 -42 -36.501 -58s-34.167 -28.5 -55.5 -37.5s-44.333 -15.5 -69 -19.5
c4 -6.66699 11 -17.667 21 -33l34 -52.5l40.5 -61.5l40.5 -61.5l34 -52.5c10 -15.333 17 -26.333 21 -33h-117l-188 286h-118v-286zM346.001 386c18.667 0 36.167 1.66797 52.5 5.00098s30.5 9.16602 42.5 17.499s21.5 19.166 28.5 32.499s10.5 30 10.5 50
s-3.33301 37 -10 51s-16 25.333 -28 34s-26.333 14.834 -43 18.501s-35 5.5 -55 5.5h-162v-214h164zM390.001 -107.999l-104 -195l-64 23l71 201z" />
    <glyph glyph-name="rcommaaccent" unicode="&#x157;" horiz-adv-x="331" 
d="M60 400h91.0029l8 -53c4.66699 6.66699 10.667 13.5 18 20.5s16.166 13.5 26.499 19.5s22.333 11 36 15s29.167 6 46.5 6c4.66699 0 10.167 -0.166992 16.5 -0.5s12.166 -0.833008 17.499 -1.5v-90c-4 0.666992 -9 1.16699 -15 1.5s-11 0.5 -15 0.5
c-17.333 0 -33 -2.16699 -47 -6.5s-26.333 -10 -37 -17s-19.834 -14.5 -27.501 -22.5s-14.167 -16 -19.5 -24v-248h-99v400zM161.003 -108l-104 -195l-64 23l71 201z" />
    <glyph glyph-name="Rcaron" unicode="&#x158;" horiz-adv-x="637" 
d="M183 0h-108.999v700h270c34 0 65.833 -3.66699 95.5 -11s55.667 -19.166 78 -35.499s39.833 -38 52.5 -65s19 -60.167 19 -99.5c0 -30.667 -4.33301 -57.334 -13 -80.001s-20.834 -42 -36.501 -58s-34.167 -28.5 -55.5 -37.5s-44.333 -15.5 -69 -19.5
c4 -6.66699 11 -17.667 21 -33l34 -52.5l40.5 -61.5l40.5 -61.5l34 -52.5c10 -15.333 17 -26.333 21 -33h-117l-188 286h-118v-286zM346.001 386c18.667 0 36.167 1.66797 52.5 5.00098s30.5 9.16602 42.5 17.499s21.5 19.166 28.5 32.499s10.5 30 10.5 50
s-3.33301 37 -10 51s-16 25.333 -28 34s-26.333 14.834 -43 18.501s-35 5.5 -55 5.5h-162v-214h164zM318.001 750.001l-153 105l45 51l108 -67l108 66l45 -50z" />
    <glyph glyph-name="rcaron" unicode="&#x159;" horiz-adv-x="331" 
d="M60 400h91.0029l8 -53c4.66699 6.66699 10.667 13.5 18 20.5s16.166 13.5 26.499 19.5s22.333 11 36 15s29.167 6 46.5 6c4.66699 0 10.167 -0.166992 16.5 -0.5s12.166 -0.833008 17.499 -1.5v-90c-4 0.666992 -9 1.16699 -15 1.5s-11 0.5 -15 0.5
c-17.333 0 -33 -2.16699 -47 -6.5s-26.333 -10 -37 -17s-19.834 -14.5 -27.501 -22.5s-14.167 -16 -19.5 -24v-248h-99v400zM175.003 488l-153 118l45 56l108 -75l108 74l45 -55z" />
    <glyph glyph-name="Sacute" unicode="&#x15a;" horiz-adv-x="558" 
d="M287 90c16 0 31.667 2.00098 47 6.00098s29.166 10 41.499 18s22.166 18 29.499 30s11 26.333 11 43c0 17.333 -4.33301 32.333 -13 45s-20.5 23.834 -35.5 33.501s-33 18.667 -54 27s-43.5 16.5 -67.5 24.5c-30 10 -57.667 20.5 -83 31.5s-47.166 24.167 -65.499 39.5
s-32.666 33.666 -42.999 54.999s-15.5 47.666 -15.5 78.999c0 23.333 4.66699 46.166 14 68.499s23.833 42.333 43.5 60s44.334 32 74.001 43s64.5 16.5 104.5 16.5c29.333 0 57.333 -4.33301 84 -13s50.667 -21 72 -37s39.333 -35.667 54 -59s24.667 -49.666 30 -78.999
h-108c-6.66699 28 -21.834 49.833 -45.501 65.5s-52.5 23.5 -86.5 23.5c-22 0 -41.167 -2.5 -57.5 -7.5s-29.833 -11.667 -40.5 -20s-18.5 -17.833 -23.5 -28.5s-7.5 -21.334 -7.5 -32.001c0 -16 3.66699 -29.667 11 -41s17.333 -21.333 30 -30s27.5 -16.167 44.5 -22.5
l54.5 -19.5c34.667 -12 66.5 -24.167 95.5 -36.5s54 -26.666 75 -42.999s37.333 -35.666 49 -57.999s17.5 -48.833 17.5 -79.5c0 -32.667 -6.66699 -61.5 -20 -86.5s-31 -46 -53 -63s-47.5 -30 -76.5 -39s-58.833 -13.5 -89.5 -13.5c-70 0 -127.333 16.667 -172 50
s-72.667 79.666 -84 138.999h108c14 -60 64.333 -90 151 -90zM397 859.001l-188 -107l-48 45l178 136z" />
    <glyph glyph-name="sacute" unicode="&#x15b;" horiz-adv-x="377" 
d="M187 71c18.667 0 34.6631 3.16211 47.9961 9.49512s20 17.166 20 32.499c0 16.667 -8 28.334 -24 35.001s-36.667 13.334 -62 20.001c-18 4.66699 -35 10.167 -51 16.5s-30.167 14.333 -42.5 24s-22 21.334 -29 35.001s-10.5 30.5 -10.5 50.5c0 32 12.667 59.333 38 82
s61.333 34 108 34c24 0 45.833 -3.5 65.5 -10.5s36.167 -16.167 49.5 -27.5s23.833 -24.166 31.5 -38.499s11.5 -29.166 11.5 -44.499h-91c-1.33301 11.333 -7.5 21 -18.5 29s-26.167 12 -45.5 12c-17.333 0 -31.166 -3.66699 -41.499 -11s-15.5 -16.666 -15.5 -27.999
c0 -14 7.16699 -24.333 21.5 -31s34.833 -13.667 61.5 -21c16 -4 32.167 -9.16699 48.5 -15.5s31 -14.5 44 -24.5s23.5 -22.167 31.5 -36.5s12 -31.5 12 -51.5c0 -19.333 -4.16699 -36.5 -12.5 -51.5s-19.666 -27.5 -33.999 -37.5s-31 -17.667 -50 -23s-39.167 -8 -60.5 -8
c-49.333 0 -88.166 11.167 -116.499 33.5s-44.166 51.5 -47.499 87.5h89c1.33301 -11.333 8.33301 -21 21 -29s29.667 -12 51 -12zM305.996 610.995l-188 -120l-48 51l178 151z" />
    <glyph glyph-name="Scircumflex" unicode="&#x15c;" horiz-adv-x="558" 
d="M287 90c16 0 31.667 2.00098 47 6.00098s29.166 10 41.499 18s22.166 18 29.499 30s11 26.333 11 43c0 17.333 -4.33301 32.333 -13 45s-20.5 23.834 -35.5 33.501s-33 18.667 -54 27s-43.5 16.5 -67.5 24.5c-30 10 -57.667 20.5 -83 31.5s-47.166 24.167 -65.499 39.5
s-32.666 33.666 -42.999 54.999s-15.5 47.666 -15.5 78.999c0 23.333 4.66699 46.166 14 68.499s23.833 42.333 43.5 60s44.334 32 74.001 43s64.5 16.5 104.5 16.5c29.333 0 57.333 -4.33301 84 -13s50.667 -21 72 -37s39.333 -35.667 54 -59s24.667 -49.666 30 -78.999
h-108c-6.66699 28 -21.834 49.833 -45.501 65.5s-52.5 23.5 -86.5 23.5c-22 0 -41.167 -2.5 -57.5 -7.5s-29.833 -11.667 -40.5 -20s-18.5 -17.833 -23.5 -28.5s-7.5 -21.334 -7.5 -32.001c0 -16 3.66699 -29.667 11 -41s17.333 -21.333 30 -30s27.5 -16.167 44.5 -22.5
l54.5 -19.5c34.667 -12 66.5 -24.167 95.5 -36.5s54 -26.666 75 -42.999s37.333 -35.666 49 -57.999s17.5 -48.833 17.5 -79.5c0 -32.667 -6.66699 -61.5 -20 -86.5s-31 -46 -53 -63s-47.5 -30 -76.5 -39s-58.833 -13.5 -89.5 -13.5c-70 0 -127.333 16.667 -172 50
s-72.667 79.666 -84 138.999h108c14 -60 64.333 -90 151 -90zM432 801.001l-45 -49l-108 66l-108 -67l-45 50l153 106z" />
    <glyph glyph-name="scircumflex" unicode="&#x15d;" horiz-adv-x="377" 
d="M187 71c18.667 0 34.6631 3.16211 47.9961 9.49512s20 17.166 20 32.499c0 16.667 -8 28.334 -24 35.001s-36.667 13.334 -62 20.001c-18 4.66699 -35 10.167 -51 16.5s-30.167 14.333 -42.5 24s-22 21.334 -29 35.001s-10.5 30.5 -10.5 50.5c0 32 12.667 59.333 38 82
s61.333 34 108 34c24 0 45.833 -3.5 65.5 -10.5s36.167 -16.167 49.5 -27.5s23.833 -24.166 31.5 -38.499s11.5 -29.166 11.5 -44.499h-91c-1.33301 11.333 -7.5 21 -18.5 29s-26.167 12 -45.5 12c-17.333 0 -31.166 -3.66699 -41.499 -11s-15.5 -16.666 -15.5 -27.999
c0 -14 7.16699 -24.333 21.5 -31s34.833 -13.667 61.5 -21c16 -4 32.167 -9.16699 48.5 -15.5s31 -14.5 44 -24.5s23.5 -22.167 31.5 -36.5s12 -31.5 12 -51.5c0 -19.333 -4.16699 -36.5 -12.5 -51.5s-19.666 -27.5 -33.999 -37.5s-31 -17.667 -50 -23s-39.167 -8 -60.5 -8
c-49.333 0 -88.166 11.167 -116.499 33.5s-44.166 51.5 -47.499 87.5h89c1.33301 -11.333 8.33301 -21 21 -29s29.667 -12 51 -12zM340.996 545.995l-45 -55l-108 74l-108 -75l-45 56l153 118z" />
    <glyph glyph-name="Scedilla" unicode="&#x15e;" horiz-adv-x="558" 
d="M287 90c16 0 31.667 2.00098 47 6.00098s29.166 10 41.499 18s22.166 18 29.499 30s11 26.333 11 43c0 17.333 -4.33301 32.333 -13 45s-20.5 23.834 -35.5 33.501s-33 18.667 -54 27s-43.5 16.5 -67.5 24.5c-30 10 -57.667 20.5 -83 31.5s-47.166 24.167 -65.499 39.5
s-32.666 33.666 -42.999 54.999s-15.5 47.666 -15.5 78.999c0 23.333 4.66699 46.166 14 68.499s23.833 42.333 43.5 60s44.334 32 74.001 43s64.5 16.5 104.5 16.5c29.333 0 57.333 -4.33301 84 -13s50.667 -21 72 -37s39.333 -35.667 54 -59s24.667 -49.666 30 -78.999
h-108c-6.66699 28 -21.834 49.833 -45.501 65.5s-52.5 23.5 -86.5 23.5c-22 0 -41.167 -2.5 -57.5 -7.5s-29.833 -11.667 -40.5 -20s-18.5 -17.833 -23.5 -28.5s-7.5 -21.334 -7.5 -32.001c0 -16 3.66699 -29.667 11 -41s17.333 -21.333 30 -30s27.5 -16.167 44.5 -22.5
l54.5 -19.5c34.667 -12 66.5 -24.167 95.5 -36.5s54 -26.666 75 -42.999s37.333 -35.666 49 -57.999s17.5 -48.833 17.5 -79.5c0 -32.667 -6.66699 -61.5 -20 -86.5s-31 -46 -53 -63s-47.5 -30 -76.5 -39s-58.833 -13.5 -89.5 -13.5c-70 0 -127.333 16.667 -172 50
s-72.667 79.666 -84 138.999h108c14 -60 64.333 -90 151 -90zM203 -258.999l-68 39l88 185l99 -34z" />
    <glyph glyph-name="scedilla" unicode="&#x15f;" horiz-adv-x="377" 
d="M187 71c18.667 0 34.6631 3.16211 47.9961 9.49512s20 17.166 20 32.499c0 16.667 -8 28.334 -24 35.001s-36.667 13.334 -62 20.001c-18 4.66699 -35 10.167 -51 16.5s-30.167 14.333 -42.5 24s-22 21.334 -29 35.001s-10.5 30.5 -10.5 50.5c0 32 12.667 59.333 38 82
s61.333 34 108 34c24 0 45.833 -3.5 65.5 -10.5s36.167 -16.167 49.5 -27.5s23.833 -24.166 31.5 -38.499s11.5 -29.166 11.5 -44.499h-91c-1.33301 11.333 -7.5 21 -18.5 29s-26.167 12 -45.5 12c-17.333 0 -31.166 -3.66699 -41.499 -11s-15.5 -16.666 -15.5 -27.999
c0 -14 7.16699 -24.333 21.5 -31s34.833 -13.667 61.5 -21c16 -4 32.167 -9.16699 48.5 -15.5s31 -14.5 44 -24.5s23.5 -22.167 31.5 -36.5s12 -31.5 12 -51.5c0 -19.333 -4.16699 -36.5 -12.5 -51.5s-19.666 -27.5 -33.999 -37.5s-31 -17.667 -50 -23s-39.167 -8 -60.5 -8
c-49.333 0 -88.166 11.167 -116.499 33.5s-44.166 51.5 -47.499 87.5h89c1.33301 -11.333 8.33301 -21 21 -29s29.667 -12 51 -12zM120.996 -259.005l-68 39l88 185l99 -34z" />
    <glyph glyph-name="Scaron" unicode="&#x160;" horiz-adv-x="558" 
d="M287 90c16 0 31.667 2.00098 47 6.00098s29.166 10 41.499 18s22.166 18 29.499 30s11 26.333 11 43c0 17.333 -4.33301 32.333 -13 45s-20.5 23.834 -35.5 33.501s-33 18.667 -54 27s-43.5 16.5 -67.5 24.5c-30 10 -57.667 20.5 -83 31.5s-47.166 24.167 -65.499 39.5
s-32.666 33.666 -42.999 54.999s-15.5 47.666 -15.5 78.999c0 23.333 4.66699 46.166 14 68.499s23.833 42.333 43.5 60s44.334 32 74.001 43s64.5 16.5 104.5 16.5c29.333 0 57.333 -4.33301 84 -13s50.667 -21 72 -37s39.333 -35.667 54 -59s24.667 -49.666 30 -78.999
h-108c-6.66699 28 -21.834 49.833 -45.501 65.5s-52.5 23.5 -86.5 23.5c-22 0 -41.167 -2.5 -57.5 -7.5s-29.833 -11.667 -40.5 -20s-18.5 -17.833 -23.5 -28.5s-7.5 -21.334 -7.5 -32.001c0 -16 3.66699 -29.667 11 -41s17.333 -21.333 30 -30s27.5 -16.167 44.5 -22.5
l54.5 -19.5c34.667 -12 66.5 -24.167 95.5 -36.5s54 -26.666 75 -42.999s37.333 -35.666 49 -57.999s17.5 -48.833 17.5 -79.5c0 -32.667 -6.66699 -61.5 -20 -86.5s-31 -46 -53 -63s-47.5 -30 -76.5 -39s-58.833 -13.5 -89.5 -13.5c-70 0 -127.333 16.667 -172 50
s-72.667 79.666 -84 138.999h108c14 -60 64.333 -90 151 -90zM279 750.001l-153 105l45 51l108 -67l108 66l45 -50z" />
    <glyph glyph-name="scaron" unicode="&#x161;" horiz-adv-x="377" 
d="M187 71c18.667 0 34.6631 3.16211 47.9961 9.49512s20 17.166 20 32.499c0 16.667 -8 28.334 -24 35.001s-36.667 13.334 -62 20.001c-18 4.66699 -35 10.167 -51 16.5s-30.167 14.333 -42.5 24s-22 21.334 -29 35.001s-10.5 30.5 -10.5 50.5c0 32 12.667 59.333 38 82
s61.333 34 108 34c24 0 45.833 -3.5 65.5 -10.5s36.167 -16.167 49.5 -27.5s23.833 -24.166 31.5 -38.499s11.5 -29.166 11.5 -44.499h-91c-1.33301 11.333 -7.5 21 -18.5 29s-26.167 12 -45.5 12c-17.333 0 -31.166 -3.66699 -41.499 -11s-15.5 -16.666 -15.5 -27.999
c0 -14 7.16699 -24.333 21.5 -31s34.833 -13.667 61.5 -21c16 -4 32.167 -9.16699 48.5 -15.5s31 -14.5 44 -24.5s23.5 -22.167 31.5 -36.5s12 -31.5 12 -51.5c0 -19.333 -4.16699 -36.5 -12.5 -51.5s-19.666 -27.5 -33.999 -37.5s-31 -17.667 -50 -23s-39.167 -8 -60.5 -8
c-49.333 0 -88.166 11.167 -116.499 33.5s-44.166 51.5 -47.499 87.5h89c1.33301 -11.333 8.33301 -21 21 -29s29.667 -12 51 -12zM187.996 487.995l-153 118l45 56l108 -75l108 74l45 -55z" />
    <glyph glyph-name="Tcommaaccent" unicode="&#x162;" horiz-adv-x="568" 
d="M552 599h-214v-599h-109v599h-213v101h536v-101zM335 -108l-104 -195l-64 23l71 201z" />
    <glyph glyph-name="tcommaaccent" unicode="&#x163;" horiz-adv-x="333" 
d="M9 400l80.0029 0.000976562l16 142h81v-142h118v-90h-118v-169c0 -24 5.16699 -40 15.5 -48s25.833 -12 46.5 -12c20 0 40 2 60 6v-85c-14 -4 -27.5 -6.83301 -40.5 -8.5s-26.833 -2.5 -41.5 -2.5c-18.667 0 -36.334 2.16699 -53.001 6.5s-31.334 11.833 -44.001 22.5
s-22.834 24.667 -30.501 42s-11.5 38.666 -11.5 63.999v184h-78v90zM241.003 -107.999l-104 -195l-64 23l71 201z" />
    <glyph glyph-name="Tcaron" unicode="&#x164;" horiz-adv-x="568" 
d="M552 599h-214v-599h-109v599h-213v101h536v-101zM284 750l-153 105l45 51l108 -67l108 66l45 -50z" />
    <glyph glyph-name="tcaron" unicode="&#x165;" horiz-adv-x="454" 
d="M9 400l80.0029 0.000976562l16 142h81v-142h118v-90h-118v-169c0 -24 5.16699 -40 15.5 -48s25.833 -12 46.5 -12c20 0 40 2 60 6v-85c-14 -4 -27.5 -6.83301 -40.5 -8.5s-26.833 -2.5 -41.5 -2.5c-18.667 0 -36.334 2.16699 -53.001 6.5s-31.334 11.833 -44.001 22.5
s-22.834 24.667 -30.501 42s-11.5 38.666 -11.5 63.999v184h-78v90zM474.003 684.001l-104 -195l-64 23l71 201z" />
    <glyph glyph-name="Tbar" unicode="&#x166;" horiz-adv-x="568" 
d="M120 356h109v243h-213v101h536v-101h-214v-243h110v-80h-110v-276h-109v276h-109v80z" />
    <glyph glyph-name="tbar" unicode="&#x167;" horiz-adv-x="333" 
d="M9 243l78.0029 0.000976562v67h-78v90h80l16 142h81v-142h118v-90h-118v-67h118v-80h-118v-22c0 -24 5.16699 -40 15.5 -48s25.833 -12 46.5 -12c20 0 40 2 60 6v-85c-14 -4 -27.5 -6.83301 -40.5 -8.5s-26.833 -2.5 -41.5 -2.5c-18.667 0 -36.334 2.16699 -53.001 6.5
s-31.334 11.833 -44.001 22.5s-22.834 24.667 -30.501 42s-11.5 38.666 -11.5 63.999v37h-78v80z" />
    <glyph glyph-name="Utilde" unicode="&#x168;" horiz-adv-x="711" 
d="M356 93c30.667 0 57 5 79 15s40 23.833 54 41.5s24.333 38.834 31 63.501s10 51.667 10 81v406h109v-406c0 -44 -5.83301 -84.5 -17.5 -121.5s-29.167 -69 -52.5 -96s-52.666 -48 -87.999 -63s-77 -22.5 -125 -22.5s-89.667 7.5 -125 22.5s-64.833 36 -88.5 63
s-41.334 59 -53.001 96s-17.5 77.5 -17.5 121.5v406h109v-406c0 -29.333 3.33301 -56.333 10 -81s17 -45.834 31 -63.501s32 -31.5 54 -41.5s48.667 -15 80 -15zM244 756l-28.501 19.499l-28.5 19.5c9.33301 21.333 22.5 39.5 39.5 54.5s36.833 22.5 59.5 22.5
c12.667 0 24.834 -2.16699 36.501 -6.5s23 -9.16602 34 -14.499s21.667 -10.166 32 -14.499s20.833 -6.5 31.5 -6.5s20 4.66699 28 14s14 20.333 18 33l29.5 -18.5l28.5 -18.5c-8.66699 -22 -21.834 -40.5 -39.501 -55.5s-37.5 -22.5 -59.5 -22.5
c-12.667 0 -24.5 2.16699 -35.5 6.5s-21.667 9.16602 -32 14.499s-20.666 10.166 -30.999 14.499s-20.833 6.5 -31.5 6.5c-13.333 0 -24 -4.66699 -32 -14s-14.333 -20.666 -19 -33.999z" />
    <glyph glyph-name="utilde" unicode="&#x169;" horiz-adv-x="505" 
d="M345 56c-12.667 -16.667 -29.832 -31.834 -51.499 -45.501s-51.167 -20.5 -88.5 -20.5c-44 0 -79.667 13.667 -107 41s-41 67 -41 119v250h99v-234c0 -25.333 5.66699 -45.166 17 -59.499s28.666 -21.5 51.999 -21.5c30 0 55 7 75 21s35 30.333 45 49v245h99v-400h-92z
M141.002 497c-9.33301 7.33301 -18.834 14.333 -28.501 21s-19.167 13.667 -28.5 21c9.33301 23.333 22.5 43.5 39.5 60.5s36.833 25.5 59.5 25.5c12.667 0 24.834 -2.5 36.501 -7.5s23 -10.333 34 -16l32 -16c10.333 -5 20.833 -7.5 31.5 -7.5s20 5.33301 28 16
s14 23 18 37l58 -42c-8.66699 -24 -21.834 -44.333 -39.501 -61s-37.5 -25 -59.5 -25c-12.667 0 -24.5 2.5 -35.5 7.5s-21.667 10.333 -32 16s-20.666 11 -30.999 16s-20.833 7.5 -31.5 7.5c-13.333 0 -24 -5.16699 -32 -15.5s-14.333 -22.833 -19 -37.5z" />
    <glyph glyph-name="Umacron" unicode="&#x16a;" horiz-adv-x="711" 
d="M356 93c30.667 0 57 5 79 15s40 23.833 54 41.5s24.333 38.834 31 63.501s10 51.667 10 81v406h109v-406c0 -44 -5.83301 -84.5 -17.5 -121.5s-29.167 -69 -52.5 -96s-52.666 -48 -87.999 -63s-77 -22.5 -125 -22.5s-89.667 7.5 -125 22.5s-64.833 36 -88.5 63
s-41.334 59 -53.001 96s-17.5 77.5 -17.5 121.5v406h109v-406c0 -29.333 3.33301 -56.333 10 -81s17 -45.834 31 -63.501s32 -31.5 54 -41.5s48.667 -15 80 -15zM205 838h300v-71h-300v71z" />
    <glyph glyph-name="umacron" unicode="&#x16b;" horiz-adv-x="505" 
d="M345 56c-12.667 -16.667 -29.832 -31.834 -51.499 -45.501s-51.167 -20.5 -88.5 -20.5c-44 0 -79.667 13.667 -107 41s-41 67 -41 119v250h99v-234c0 -25.333 5.66699 -45.166 17 -59.499s28.666 -21.5 51.999 -21.5c30 0 55 7 75 21s35 30.333 45 49v245h99v-400h-92z
M102.002 588h300v-79h-300v79z" />
    <glyph glyph-name="Ubreve" unicode="&#x16c;" horiz-adv-x="711" 
d="M356 93c30.667 0 57 5 79 15s40 23.833 54 41.5s24.333 38.834 31 63.501s10 51.667 10 81v406h109v-406c0 -44 -5.83301 -84.5 -17.5 -121.5s-29.167 -69 -52.5 -96s-52.666 -48 -87.999 -63s-77 -22.5 -125 -22.5s-89.667 7.5 -125 22.5s-64.833 36 -88.5 63
s-41.334 59 -53.001 96s-17.5 77.5 -17.5 121.5v406h109v-406c0 -29.333 3.33301 -56.333 10 -81s17 -45.834 31 -63.501s32 -31.5 54 -41.5s48.667 -15 80 -15zM355 763c-18.667 0 -36.999 2.66602 -54.999 7.99902s-34 13.166 -48 23.499s-25.5 23 -34.5 38
s-13.833 31.833 -14.5 50.5h83c3.33301 -15.333 12 -27.166 26 -35.499s28.333 -12.5 43 -12.5c12.667 0 26.667 4 42 12s24.666 20 27.999 36h83c-1.33301 -18.667 -6.5 -35.5 -15.5 -50.5s-20.5 -27.667 -34.5 -38s-30 -18.166 -48 -23.499s-36.333 -8 -55 -8z" />
    <glyph glyph-name="ubreve" unicode="&#x16d;" horiz-adv-x="505" 
d="M345 56c-12.667 -16.667 -29.832 -31.834 -51.499 -45.501s-51.167 -20.5 -88.5 -20.5c-44 0 -79.667 13.667 -107 41s-41 67 -41 119v250h99v-234c0 -25.333 5.66699 -45.166 17 -59.499s28.666 -21.5 51.999 -21.5c30 0 55 7 75 21s35 30.333 45 49v245h99v-400h-92z
M251.002 504c-18.667 0 -36.998 3 -54.998 9s-34 14.667 -48 26s-25.5 25.166 -34.5 41.499s-13.833 34.833 -14.5 55.5h83c3.33301 -17.333 12 -30.333 26 -39s28.333 -13 43 -13c15.333 0 30.166 4.33301 44.499 13s23.166 21.667 26.499 39h83
c-1.33301 -20.667 -6.5 -39.167 -15.5 -55.5s-20.667 -30.166 -35 -41.499s-30.5 -20 -48.5 -26s-36.333 -9 -55 -9z" />
    <glyph glyph-name="Uring" unicode="&#x16e;" horiz-adv-x="711" 
d="M356 93c30.667 0 57 5 79 15s40 23.833 54 41.5s24.333 38.834 31 63.501s10 51.667 10 81v406h109v-406c0 -44 -5.83301 -84.5 -17.5 -121.5s-29.167 -69 -52.5 -96s-52.666 -48 -87.999 -63s-77 -22.5 -125 -22.5s-89.667 7.5 -125 22.5s-64.833 36 -88.5 63
s-41.334 59 -53.001 96s-17.5 77.5 -17.5 121.5v406h109v-406c0 -29.333 3.33301 -56.333 10 -81s17 -45.834 31 -63.501s32 -31.5 54 -41.5s48.667 -15 80 -15zM355 930c14 0 27.333 -2.5 40 -7.5s23.834 -11.667 33.501 -20s17.167 -18 22.5 -29s8 -22.5 8 -34.5
s-2.66699 -23.5 -8 -34.5s-12.833 -20.667 -22.5 -29s-20.834 -15 -33.501 -20s-26 -7.5 -40 -7.5s-27.333 2.5 -40 7.5s-23.834 11.667 -33.501 20s-17.167 18 -22.5 29s-8 22.5 -8 34.5s2.66699 23.5 8 34.5s12.833 20.667 22.5 29s20.834 15 33.501 20s26 7.5 40 7.5z
M355 882c-13.333 0 -24.5 -4.33301 -33.5 -13s-13.5 -18.667 -13.5 -30s4.5 -21.333 13.5 -30s20.167 -13 33.5 -13s24.5 4.33301 33.5 13s13.5 18.667 13.5 30s-4.5 21.333 -13.5 30s-20.167 13 -33.5 13z" />
    <glyph glyph-name="uring" unicode="&#x16f;" horiz-adv-x="505" 
d="M345 56c-12.667 -16.667 -29.832 -31.834 -51.499 -45.501s-51.167 -20.5 -88.5 -20.5c-44 0 -79.667 13.667 -107 41s-41 67 -41 119v250h99v-234c0 -25.333 5.66699 -45.166 17 -59.499s28.666 -21.5 51.999 -21.5c30 0 55 7 75 21s35 30.333 45 49v245h99v-400h-92z
M252.002 694c14 0 27.333 -2.66699 40 -8s23.834 -12.5 33.501 -21.5s17.167 -19.667 22.5 -32s8 -25.166 8 -38.499c0 -14 -2.66699 -27.167 -8 -39.5s-12.833 -23.166 -22.5 -32.499s-20.834 -16.666 -33.501 -21.999s-26 -8 -40 -8s-27.333 2.66699 -40 8
s-23.834 12.666 -33.501 21.999s-17.167 20.166 -22.5 32.499s-8 25.5 -8 39.5c0 13.333 2.66699 26.166 8 38.499s12.833 23 22.5 32s20.834 16.167 33.501 21.5s26 8 40 8zM252.002 641c-13.333 0 -24.5 -4.66699 -33.5 -14s-13.5 -20.333 -13.5 -33
c0 -13.333 4.5 -24.833 13.5 -34.5s20.167 -14.5 33.5 -14.5s24.5 4.83301 33.5 14.5s13.5 21.167 13.5 34.5c0 12.667 -4.5 23.667 -13.5 33s-20.167 14 -33.5 14z" />
    <glyph glyph-name="Uhungarumlaut" unicode="&#x170;" horiz-adv-x="711" 
d="M356 93c30.667 0 57 5 79 15s40 23.833 54 41.5s24.333 38.834 31 63.501s10 51.667 10 81v406h109v-406c0 -44 -5.83301 -84.5 -17.5 -121.5s-29.167 -69 -52.5 -96s-52.666 -48 -87.999 -63s-77 -22.5 -125 -22.5s-89.667 7.5 -125 22.5s-64.833 36 -88.5 63
s-41.334 59 -53.001 96s-17.5 77.5 -17.5 121.5v406h109v-406c0 -29.333 3.33301 -56.333 10 -81s17 -45.834 31 -63.501s32 -31.5 54 -41.5s48.667 -15 80 -15zM287 755l-67 32l81 153l89 -30zM474 755l-67 32l81 153l90 -30z" />
    <glyph glyph-name="uhungarumlaut" unicode="&#x171;" horiz-adv-x="505" 
d="M345 56c-12.667 -16.667 -29.832 -31.834 -51.499 -45.501s-51.167 -20.5 -88.5 -20.5c-44 0 -79.667 13.667 -107 41s-41 67 -41 119v250h99v-234c0 -25.333 5.66699 -45.166 17 -59.499s28.666 -21.5 51.999 -21.5c30 0 55 7 75 21s35 30.333 45 49v245h99v-400h-92z
M173.002 496l-67 36l81 170l89 -33zM360.002 496l-67 36l81 170l90 -33z" />
    <glyph glyph-name="Uogonek" unicode="&#x172;" horiz-adv-x="711" 
d="M356 93c30.667 0 56.999 4.99902 78.999 14.999s40 23.833 54 41.5s24.333 38.834 31 63.501s10 51.667 10 81v406h109v-406c0 -38.667 -4.5 -74.667 -13.5 -108s-22.5 -62.833 -40.5 -88.5s-40.667 -47.167 -68 -64.5s-59.333 -29 -96 -35
c-22 -16.667 -39.333 -33 -52 -49s-19 -31.667 -19 -47c0 -13.333 4.5 -22.166 13.5 -26.499s21.167 -6.5 36.5 -6.5c17.333 0 37 3.66699 59 11v-78c-22.667 -9.33301 -48.667 -14 -78 -14c-37.333 0 -66.666 8.5 -87.999 25.5s-32 39.833 -32 68.5
c0 23.333 6.83301 44.5 20.5 63.5s29.5 34.833 47.5 47.5c-43.333 2.66699 -81 12 -113 28s-58.667 37.167 -80 63.5s-37.333 57.333 -48 93s-16 74.5 -16 116.5v406h109v-406c0 -29.333 3.33301 -56.333 10 -81s17 -45.834 31 -63.501s32 -31.5 54 -41.5s48.667 -15 80 -15
z" />
    <glyph glyph-name="uogonek" unicode="&#x173;" horiz-adv-x="505" 
d="M345 56c-12.667 -16.667 -29.834 -31.834 -51.501 -45.501s-51.167 -20.5 -88.5 -20.5c-44 0 -79.667 13.667 -107 41s-41 67 -41 119v250h99v-234c0 -26.667 6 -47.5 18 -62.5s30.333 -22.5 55 -22.5c30 0 54.333 7.5 73 22.5s33 32.167 43 51.5v245h99v-400h-13
c-22.667 -16 -40.5 -32.333 -53.5 -49s-19.5 -32.667 -19.5 -48c0 -13.333 4.5 -22.166 13.5 -26.499s21.167 -6.5 36.5 -6.5c17.333 0 37 3.66699 59 11v-79c-12.667 -4.66699 -25.167 -8.16699 -37.5 -10.5s-26.166 -3.5 -41.499 -3.5c-36.667 0 -65.667 8.5 -87 25.5
s-32 39.833 -32 68.5c0 13.333 2.33301 26 7 38s11 23 19 33s16.833 19.167 26.5 27.5s19.5 15.5 29.5 21.5z" />
    <glyph glyph-name="Wcircumflex" unicode="&#x174;" horiz-adv-x="1011" 
d="M724 204l158 496h113l-235 -710h-64l-190 502l-191 -502h-64l-235 710h113l159 -496l188 510h59zM658 801l-45 -49l-108 66l-108 -67l-45 50l153 106z" />
    <glyph glyph-name="wcircumflex" unicode="&#x175;" horiz-adv-x="601" 
d="M302 246l-91 -254h-57l-145 408h98l80 -247l90 254h49l90 -254l81 247h97l-145 -408h-56zM453 546l-45 -55l-108 74l-108 -75l-45 56l153 118z" />
    <glyph glyph-name="Ycircumflex" unicode="&#x176;" horiz-adv-x="595" 
d="M479 700h116l-243 -403v-297h-109v297l-243 403h115l182 -308zM450 801l-45 -49l-108 66l-108 -67l-45 50l153 106z" />
    <glyph glyph-name="ycircumflex" unicode="&#x177;" horiz-adv-x="434" 
d="M42 -250l129 283l-172 367h100l117 -269l118 269h101l-308 -650h-85zM370 546l-45 -55l-108 74l-108 -75l-45 56l153 118z" />
    <glyph glyph-name="Ydieresis" unicode="&#x178;" horiz-adv-x="595" 
d="M480 700h116l-243 -403v-297h-109v297l-243 403h115l182 -308zM125 813c0 15.333 5.66699 28.333 17 39s25.666 16 42.999 16s31.666 -5.33301 42.999 -16s17 -23.667 17 -39s-5.66699 -28.166 -17 -38.499s-25.666 -15.5 -42.999 -15.5s-31.666 5.16699 -42.999 15.5
s-17 23.166 -17 38.499zM349 813c0 15.333 5.66699 28.333 17 39s25.666 16 42.999 16s31.666 -5.33301 42.999 -16s17 -23.667 17 -39s-5.66699 -28.166 -17 -38.499s-25.666 -15.5 -42.999 -15.5s-31.666 5.16699 -42.999 15.5s-17 23.166 -17 38.499z" />
    <glyph glyph-name="Zacute" unicode="&#x179;" horiz-adv-x="594" 
d="M25 0v63l387 540h-360v97h513v-60l-389 -543h382v-97h-533zM415 859l-188 -107l-48 45l178 136z" />
    <glyph glyph-name="zacute" unicode="&#x17a;" horiz-adv-x="390" 
d="M36 400h330v-45l-215 -276h210v-79h-341v46l213 275h-197v79zM313 611l-188 -120l-48 51l178 151z" />
    <glyph glyph-name="Zdotaccent" unicode="&#x17b;" horiz-adv-x="594" 
d="M25 0v63l387 540h-360v97h513v-60l-389 -543h382v-97h-533zM234 815c0 16.667 6 30.334 18 41.001s27 16 45 16c17.333 0 32.166 -5.33301 44.499 -16s18.5 -24.334 18.5 -41.001c0 -15.333 -6.16699 -28.5 -18.5 -39.5s-27.166 -16.5 -44.499 -16.5
c-18 0 -33 5.5 -45 16.5s-18 24.167 -18 39.5z" />
    <glyph glyph-name="zdotaccent" unicode="&#x17c;" horiz-adv-x="390" 
d="M36 400h330v-45l-215 -276h210v-79h-341v46l213 275h-197v79zM132 567c0 17.333 6 32.166 18 44.499s27 18.5 45 18.5c17.333 0 32.166 -6.16699 44.499 -18.5s18.5 -27.166 18.5 -44.499c0 -18 -6.16699 -33 -18.5 -45s-27.166 -18 -44.499 -18c-18 0 -33 6 -45 18
s-18 27 -18 45z" />
    <glyph glyph-name="Zcaron" unicode="&#x17d;" horiz-adv-x="594" 
d="M25 0v63l387 540h-360v97h513v-60l-389 -543h382v-97h-533zM297 750l-153 105l45 51l108 -67l108 66l45 -50z" />
    <glyph glyph-name="zcaron" unicode="&#x17e;" horiz-adv-x="390" 
d="M36 400h330v-45l-215 -276h210v-79h-341v46l213 275h-197v79zM195 488l-153 118l45 56l108 -75l108 74l45 -55z" />
    <glyph glyph-name="longs" unicode="&#x17f;" horiz-adv-x="319" 
d="M85 488c0 56.667 15.333 99 46 127s75 42 133 42c11.333 0 22.333 -0.333008 33 -1s20 -1.66699 28 -3v-90c-8 1.33301 -16.667 2.33301 -26 3s-18.666 1 -27.999 1c-30.667 0 -52.834 -6.5 -66.501 -19.5s-20.5 -34.833 -20.5 -65.5v-482h-99v488z" />
    <glyph glyph-name="florin" unicode="&#x192;" 
d="M156 400h90.002l13 80c10 59.333 33.833 103.666 71.5 132.999s85.5 44 143.5 44c11.333 0 22.5 -0.333008 33.5 -1s20.167 -1.66699 27.5 -3l-15 -91c-8 1.33301 -16.5 2.33301 -25.5 3s-18.167 1 -27.5 1c-31.333 0 -55.833 -6.83301 -73.5 -20.5
s-29.167 -35.834 -34.5 -66.501l-13 -79h131l-15 -90h-132l-65 -392c-10 -59.333 -34 -103.666 -72 -132.999s-86 -44 -144 -44c-11.333 0 -22.333 0.333008 -33 1s-20 1.66699 -28 3l16 91c7.33301 -1.33301 15.666 -2.33301 24.999 -3s18.666 -1 27.999 -1
c30.667 0 55 6.83301 73 20.5s29.667 35.834 35 66.501l65 391h-89z" />
    <glyph glyph-name="Aringacute" unicode="&#x1fa;" horiz-adv-x="708" 
d="M353 694c14 0 27.332 -2.66699 39.999 -8s23.834 -12.666 33.501 -21.999s17.167 -20 22.5 -32s8 -25 8 -39c0 -12.667 -2 -24.334 -6 -35.001l124 -279l124 -279h-114l-70 160h-322l-70 -160h-115l124.5 279l123.5 279c-4 10.667 -6 22.334 -6 35.001
c0 14 2.66699 27 8 39s12.833 22.667 22.5 32s20.667 16.666 33 21.999s25.5 8 39.5 8zM370.999 491c-2.66699 -2 -5.49902 -3.33301 -8.49902 -4s-6.16699 -1 -9.5 -1c-6.66699 0 -12.334 1.66699 -17.001 5l-101 -234h238zM353 640c-13.333 0 -24.5 -4.66699 -33.5 -14
s-13.5 -20.333 -13.5 -33c0 -13.333 4.5 -24.833 13.5 -34.5s20.167 -14.5 33.5 -14.5s24.666 4.83301 33.999 14.5s14 21.167 14 34.5c0 12.667 -4.66699 23.667 -14 33s-20.666 14 -33.999 14zM472 859l-188 -108l-48 45l178 137z" />
    <glyph glyph-name="aringacute" unicode="&#x1fb;" horiz-adv-x="459" 
d="M47 283c2 16.667 7.66797 32.668 17.001 48.001s21.666 28.833 36.999 40.5s33.666 21 54.999 28s45 10.5 71 10.5c56 0 99 -13.833 129 -41.5s45 -63.167 45 -106.5v-262h-86l-7 56c-11.333 -17.333 -27 -31.833 -47 -43.5s-47 -17.5 -81 -17.5
c-21.333 0 -40.833 2.83301 -58.5 8.5s-33.167 14 -46.5 25s-23.666 24.167 -30.999 39.5s-11 32.666 -11 51.999c0 43.333 16 75.333 48 96s78.333 31 139 31h88v15c0 17.333 -7 33.5 -21 48.5s-35.333 22.5 -64 22.5c-22.667 0 -42 -4.83301 -58 -14.5
s-24.333 -21.5 -25 -35.5h-93zM198.001 70.001c31.333 0 57.501 7.5 78.501 22.5s31.5 37.167 31.5 66.5v22h-88c-34 0 -58.167 -5.16699 -72.5 -15.5s-21.5 -24.166 -21.5 -41.499c0 -16.667 6.66699 -29.834 20 -39.501s30.666 -14.5 51.999 -14.5zM229.002 656.001
c14 0 27.333 -2.66699 40 -8s23.834 -12.5 33.501 -21.5s17.167 -19.667 22.5 -32s8 -25.166 8 -38.499c0 -14 -2.66699 -27.167 -8 -39.5s-12.833 -23.166 -22.5 -32.499s-20.834 -16.666 -33.501 -21.999s-26 -8 -40 -8s-27.333 2.66699 -40 8
s-23.834 12.666 -33.501 21.999s-17.167 20.166 -22.5 32.499s-8 25.5 -8 39.5c0 13.333 2.66699 26.166 8 38.499s12.833 23 22.5 32s20.834 16.167 33.501 21.5s26 8 40 8zM229.002 603.001c-13.333 0 -24.5 -4.66699 -33.5 -14s-13.5 -20.333 -13.5 -33
c0 -13.333 4.5 -24.833 13.5 -34.5s20.167 -14.5 33.5 -14.5s24.5 4.83301 33.5 14.5s13.5 21.167 13.5 34.5c0 12.667 -4.5 23.667 -13.5 33s-20.167 14 -33.5 14zM347.002 796.001l-188 -120l-48 51l178 151z" />
    <glyph glyph-name="AEacute" unicode="&#x1fc;" horiz-adv-x="1009" 
d="M601 603v-189h330v-98h-330v-219h358v-97h-467v165h-245l-117 -165h-122l498 700h453v-97h-358zM492 260v248l-177 -248h177zM622 859l-188 -107l-48 45l178 136z" />
    <glyph glyph-name="aeacute" unicode="&#x1fd;" horiz-adv-x="743" 
d="M396 178c4 -30 15.5 -55.835 34.5 -77.502s46.5 -32.5 82.5 -32.5c25.333 0 45.833 6 61.5 18s26.167 26.667 31.5 44h92c-9.33301 -41.333 -29.833 -74.833 -61.5 -100.5s-73.5 -38.5 -125.5 -38.5c-38.667 0 -71 7.66699 -97 23s-47.667 36 -65 62
c-13.333 -22 -33.333 -41 -60 -57s-62.667 -24 -108 -24c-22 0 -42 2.83301 -60 8.5s-33.667 13.834 -47 24.501s-23.666 23.5 -30.999 38.5s-11 31.5 -11 49.5c0 42.667 16 73.5 48 92.5s78.333 28.5 139 28.5h86v26c0 20 -6.66699 37 -20 51s-34.666 21 -63.999 21
c-22.667 0 -41.167 -4.66699 -55.5 -14s-23.833 -21.666 -28.5 -36.999h-91c4 16.667 10.833 32.667 20.5 48s22 28.833 37 40.5s32.667 20.834 53 27.501s43.166 10 68.499 10c34 0 63 -6.16699 87 -18.5s41.667 -28.833 53 -49.5c14.667 20 34.834 36.333 60.501 49
s53.167 19 82.5 19s56.166 -5.5 80.499 -16.5s45.166 -25.833 62.499 -44.5s30.833 -39.834 40.5 -63.501s14.5 -47.834 14.5 -72.501v-16c0 -5.33301 -0.666992 -11.666 -2 -18.999h-308zM513 331.998c-30.667 0 -55.667 -9 -75 -27s-32 -40.667 -38 -68h215
c-1.33301 12 -4.5 23.667 -9.5 35s-12 21.5 -21 30.5s-19.5 16.167 -31.5 21.5s-25.333 8 -40 8zM196 69.998c14 0 27.668 2 41.001 6s25 9.66699 35 17s18 16.5 24 27.5s9 23.5 9 37.5v20h-86c-34 0 -58.333 -5.16699 -73 -15.5s-22 -23.833 -22 -40.5
s6.66699 -29.5 20 -38.5s30.666 -13.5 51.999 -13.5zM489.001 610.998l-188 -120l-48 51l178 151z" />
    <glyph glyph-name="Oslashacute" unicode="&#x1fe;" horiz-adv-x="784" 
d="M510 859l-188 -107l-48 45l178 136zM42 350c0 49.333 9.16699 95.832 27.5 139.499s43.166 81.834 74.499 114.501s68.333 58.5 111 77.5s88 28.5 136 28.5c25.333 0 49.833 -2.83301 73.5 -8.5s46.167 -13.167 67.5 -22.5l70 121l73 -38l-73 -126
c42 -33.333 75.5 -74.666 100.5 -123.999s37.5 -103.333 37.5 -162c0 -50 -9.16699 -96.667 -27.5 -140s-43.166 -81.333 -74.499 -114s-68.333 -58.334 -111 -77.001s-88 -28 -136 -28c-50 0 -97.333 10.333 -142 31l-71 -122l-71 43l71 122
c-42 32.667 -75.167 73.667 -99.5 123s-36.5 103.333 -36.5 162zM631 349.999c0 39.333 -7.50098 75.5 -22.501 108.5s-35.167 61.167 -60.5 84.5l-248 -433c28 -12 58.333 -18 91 -18c33.333 0 64.5 6.66699 93.5 20s54.333 31.5 76 54.5s38.834 50.167 51.501 81.5
s19 65.333 19 102zM151.999 349.999c0 -40 7 -76.334 21 -109.001s33.333 -60.334 58 -83.001l250 431c-29.333 12.667 -59.333 19 -90 19c-33.333 0 -64.5 -6.66699 -93.5 -20s-54.333 -31.666 -76 -54.999s-38.667 -50.666 -51 -81.999s-18.5 -65 -18.5 -101z" />
    <glyph glyph-name="oslashacute" unicode="&#x1ff;" horiz-adv-x="491" 
d="M37 200c0 28.667 5.16699 55.834 15.5 81.501s24.666 48 42.999 67s40.333 34 66 45s53.5 16.5 83.5 16.5c14 0 27.667 -1.33301 41 -4s26 -6.33398 38 -11.001l29 49.5l29 49.5c8 -4.66699 16.167 -8.83398 24.5 -12.501s16.5 -7.83398 24.5 -12.501
c-9.33301 -17.333 -19 -34.333 -29 -51l-30 -51c25.333 -19.333 45.166 -43.5 59.499 -72.5s21.5 -60.5 21.5 -94.5c0 -29.333 -5.16699 -56.666 -15.5 -81.999s-24.666 -47.333 -42.999 -66s-40.333 -33.5 -66 -44.5s-53.5 -16.5 -83.5 -16.5
c-15.333 0 -29.666 1.33301 -42.999 4s-26.333 6.33398 -39 11.001l-30.5 -52.5l-30.5 -53.5c-8.66699 5.33301 -17.167 10 -25.5 14s-16.833 8.33301 -25.5 13l32 54l31 53c-24 19.333 -42.833 43.333 -56.5 72s-20.5 60 -20.5 94zM355 200c0 17.333 -2.83301 33 -8.5 47
s-13.167 26.333 -22.5 37l-57.5 -99.5l-57.5 -99.5c10 -4 21 -6 33 -6c32 0 58.833 10.667 80.5 32s32.5 51 32.5 89zM135 200c0 -33.333 9 -61 27 -83l58 100l58 99c-12 3.33301 -23 5 -33 5c-32 0 -58.333 -11.167 -79 -33.5s-31 -51.5 -31 -87.5zM363 611l-188 -120
l-48 51l178 151z" />
    <glyph glyph-name="Scommaaccent" unicode="&#x218;" horiz-adv-x="558" 
d="M287 90c16 0 31.667 2.00098 47 6.00098s29.166 10 41.499 18s22.166 18 29.499 30s11 26.333 11 43c0 17.333 -4.33301 32.333 -13 45s-20.5 23.834 -35.5 33.501s-33 18.667 -54 27s-43.5 16.5 -67.5 24.5c-30 10 -57.667 20.5 -83 31.5s-47.166 24.167 -65.499 39.5
s-32.666 33.666 -42.999 54.999s-15.5 47.666 -15.5 78.999c0 23.333 4.66699 46.166 14 68.499s23.833 42.333 43.5 60s44.334 32 74.001 43s64.5 16.5 104.5 16.5c29.333 0 57.333 -4.33301 84 -13s50.667 -21 72 -37s39.333 -35.667 54 -59s24.667 -49.666 30 -78.999
h-108c-6.66699 28 -21.834 49.833 -45.501 65.5s-52.5 23.5 -86.5 23.5c-22 0 -41.167 -2.5 -57.5 -7.5s-29.833 -11.667 -40.5 -20s-18.5 -17.833 -23.5 -28.5s-7.5 -21.334 -7.5 -32.001c0 -16 3.66699 -29.667 11 -41s17.333 -21.333 30 -30s27.5 -16.167 44.5 -22.5
l54.5 -19.5c34.667 -12 66.5 -24.167 95.5 -36.5s54 -26.666 75 -42.999s37.333 -35.666 49 -57.999s17.5 -48.833 17.5 -79.5c0 -32.667 -6.66699 -61.5 -20 -86.5s-31 -46 -53 -63s-47.5 -30 -76.5 -39s-58.833 -13.5 -89.5 -13.5c-70 0 -127.333 16.667 -172 50
s-72.667 79.666 -84 138.999h108c14 -60 64.333 -90 151 -90zM344 -107.999l-104 -195l-64 23l71 201z" />
    <glyph glyph-name="scommaaccent" unicode="&#x219;" horiz-adv-x="377" 
d="M187 71c18.667 0 34.6631 3.16211 47.9961 9.49512s20 17.166 20 32.499c0 16.667 -8 28.334 -24 35.001s-36.667 13.334 -62 20.001c-18 4.66699 -35 10.167 -51 16.5s-30.167 14.333 -42.5 24s-22 21.334 -29 35.001s-10.5 30.5 -10.5 50.5c0 32 12.667 59.333 38 82
s61.333 34 108 34c24 0 45.833 -3.5 65.5 -10.5s36.167 -16.167 49.5 -27.5s23.833 -24.166 31.5 -38.499s11.5 -29.166 11.5 -44.499h-91c-1.33301 11.333 -7.5 21 -18.5 29s-26.167 12 -45.5 12c-17.333 0 -31.166 -3.66699 -41.499 -11s-15.5 -16.666 -15.5 -27.999
c0 -14 7.16699 -24.333 21.5 -31s34.833 -13.667 61.5 -21c16 -4 32.167 -9.16699 48.5 -15.5s31 -14.5 44 -24.5s23.5 -22.167 31.5 -36.5s12 -31.5 12 -51.5c0 -19.333 -4.16699 -36.5 -12.5 -51.5s-19.666 -27.5 -33.999 -37.5s-31 -17.667 -50 -23s-39.167 -8 -60.5 -8
c-49.333 0 -88.166 11.167 -116.499 33.5s-44.166 51.5 -47.499 87.5h89c1.33301 -11.333 8.33301 -21 21 -29s29.667 -12 51 -12zM255.996 -108.005l-104 -195l-64 23l71 201z" />
    <glyph glyph-name="uni021A" unicode="&#x21a;" horiz-adv-x="568" 
d="M552 599h-214v-599h-109v599h-213v101h536v-101zM335 -108l-104 -195l-64 23l71 201z" />
    <glyph glyph-name="uni021B" unicode="&#x21b;" horiz-adv-x="333" 
d="M9 400l80.0029 0.000976562l16 142h81v-142h118v-90h-118v-169c0 -24 5.16699 -40 15.5 -48s25.833 -12 46.5 -12c20 0 40 2 60 6v-85c-14 -4 -27.5 -6.83301 -40.5 -8.5s-26.833 -2.5 -41.5 -2.5c-18.667 0 -36.334 2.16699 -53.001 6.5s-31.334 11.833 -44.001 22.5
s-22.834 24.667 -30.501 42s-11.5 38.666 -11.5 63.999v184h-78v90zM241.003 -107.999l-104 -195l-64 23l71 201z" />
    <glyph glyph-name="dotlessj" unicode="&#x237;" horiz-adv-x="234" 
d="M167 -86c0 -57.333 -12.833 -100.667 -38.5 -130s-65.167 -44 -118.5 -44c-18.667 0 -37 2 -55 6v88c8 -1.33301 15.667 -2.5 23 -3.5s15 -1.5 23 -1.5c23.333 0 40.333 7 51 21s16 35 16 63v487h99v-486z" />
    <glyph glyph-name="circumflex" unicode="&#x2c6;" horiz-adv-x="314" 
d="M310 546l-45 -55l-108 74l-108 -75l-45 56l153 118z" />
    <glyph glyph-name="caron" unicode="&#x2c7;" horiz-adv-x="314" 
d="M157 488l-153 118l45 56l108 -75l108 74l45 -55z" />
    <glyph glyph-name="uni02C9" unicode="&#x2c9;" horiz-adv-x="314" 
d="M7 588h300v-79h-300v79z" />
    <glyph glyph-name="breve" unicode="&#x2d8;" horiz-adv-x="314" 
d="M156 504c-18.667 0 -36.998 3 -54.998 9s-34 14.667 -48 26s-25.5 25.166 -34.5 41.499s-13.833 34.833 -14.5 55.5h83c3.33301 -17.333 12 -30.333 26 -39s28.333 -13 43 -13c15.333 0 30.166 4.33301 44.499 13s23.166 21.667 26.499 39h83
c-1.33301 -20.667 -6.5 -39.167 -15.5 -55.5s-20.667 -30.166 -35 -41.499s-30.5 -20 -48.5 -26s-36.333 -9 -55 -9z" />
    <glyph glyph-name="dotaccent" unicode="&#x2d9;" horiz-adv-x="314" 
d="M94 567c0 17.333 6 32.166 18 44.499s27 18.5 45 18.5c17.333 0 32.166 -6.16699 44.499 -18.5s18.5 -27.166 18.5 -44.499c0 -18 -6.16699 -33 -18.5 -45s-27.166 -18 -44.499 -18c-18 0 -33 6 -45 18s-18 27 -18 45z" />
    <glyph glyph-name="ring" unicode="&#x2da;" horiz-adv-x="314" 
d="M157 694c14 0 27.333 -2.66699 40 -8s23.834 -12.5 33.501 -21.5s17.167 -19.667 22.5 -32s8 -25.166 8 -38.499c0 -14 -2.66699 -27.167 -8 -39.5s-12.833 -23.166 -22.5 -32.499s-20.834 -16.666 -33.501 -21.999s-26 -8 -40 -8s-27.333 2.66699 -40 8
s-23.834 12.666 -33.501 21.999s-17.167 20.166 -22.5 32.499s-8 25.5 -8 39.5c0 13.333 2.66699 26.166 8 38.499s12.833 23 22.5 32s20.834 16.167 33.501 21.5s26 8 40 8zM157 641c-13.333 0 -24.5 -4.66699 -33.5 -14s-13.5 -20.333 -13.5 -33
c0 -13.333 4.5 -24.833 13.5 -34.5s20.167 -14.5 33.5 -14.5s24.5 4.83301 33.5 14.5s13.5 21.167 13.5 34.5c0 12.667 -4.5 23.667 -13.5 33s-20.167 14 -33.5 14z" />
    <glyph glyph-name="ogonek" unicode="&#x2db;" horiz-adv-x="314" 
d="M216 2l0.000976562 -1c-23.333 -16 -42 -32.5 -56 -49.5s-21 -33.167 -21 -48.5c0 -12 4 -20.5 12 -25.5s19 -7.5 33 -7.5c9.33301 0 19.666 0.833008 30.999 2.5s22.666 4.5 33.999 8.5v-79c-12.667 -4.66699 -25.167 -8.16699 -37.5 -10.5s-26.166 -3.5 -41.499 -3.5
c-36.667 0 -65.667 8.5 -87 25.5s-32 39.833 -32 68.5c0 26.667 8.66699 50.5 26 71.5s36.333 37.167 57 48.5h82z" />
    </font>
</defs>
</svg>
