<?xml version="1.0" encoding="utf-8"?>
<!-- Generator: Adobe Illustrator 16.0.0, SVG Export Plug-In . SVG Version: 6.00 Build 0)  -->
<!DOCTYPE svg PUBLIC "-//W3C//DTD SVG 1.1//EN" "http://www.w3.org/Graphics/SVG/1.1/DTD/svg11.dtd">
<svg version="1.1" id="Layer_1" xmlns="http://www.w3.org/2000/svg" xmlns:xlink="http://www.w3.org/1999/xlink" x="0px" y="0px"
	 width="40px" height="40px" viewBox="0 0 40 40" enable-background="new 0 0 40 40" xml:space="preserve">
<path fill="#232323" d="M33.694,20.292C31.21,19.241,27.73,18.1,27.73,18.1s-2.778-2.822-5.013-4.99
	C21.632,12.056,21.071,12,19.632,12c-1.439,0-11.75,0-11.75,0s-2.403,6.226-2.738,8.435c-0.385,2.539,0.237,4.139,1.626,4.807
	c0.222,1.73,1.687,3.047,3.477,3.047c1.672,0,3.069-1.19,3.427-2.755c3.267,0.002,7.507-0.002,11.149,0.002
	c0.362,1.559,1.756,2.853,3.424,2.853c1.587,0,2.916-1.388,3.353-2.388c0.247,0,0.556,0,0.675,0
	C35.713,26,35.477,21.045,33.694,20.292z M10.247,26.756c-1.114,0-2.021-0.908-2.021-2.021c0-1.115,0.907-2.021,2.021-2.021
	s2.021,0.906,2.021,2.021C12.268,25.848,11.361,26.756,10.247,26.756z M13,18H7.82l1.25-4H13V18z M15,18v-4h6.007l3.688,4H15z
	 M28.246,26.756c-1.114,0-2.021-0.908-2.021-2.021c0-1.115,0.907-2.021,2.021-2.021s2.021,0.906,2.021,2.021
	C30.268,25.848,29.36,26.756,28.246,26.756z"/>
<g>
	<path fill="#232323" d="M140.537,23.948c-0.504-1.195-3.31-2.32-7.89-0.393c0,0-13.931,6.26-15.156,6.791s-2.133-0.268-4.6-1.766
		c-1.729-1.051-2.475-0.024-1.502,1.511c0.698,1.102,1.444,2.253,2.479,3.607c1.005,1.314,2.006,2.175,4.416,1.065l7.128-3.182
		c-0.32,2.794-0.848,7.517-0.904,8.795c-0.058,1.259,0.97,1.349,1.524,0.403c0.464-0.79,4.171-9.215,5.329-11.854l6.93-3.094
		C139.656,25.261,140.95,24.927,140.537,23.948z"/>
	<path fill="#232323" d="M116.475,24.054c0.702,0.556,2.212,1.752,3.694,2.929c1.971-0.856,3.935-1.721,5.894-2.595
		c-3.546-0.794-8.079-1.805-8.793-1.933C116.064,22.241,115.378,23.184,116.475,24.054z"/>
</g>
</svg>
