<?xml version="1.0" encoding="utf-8"?>
<!-- Generator: Adobe Illustrator 16.0.0, SVG Export Plug-In . SVG Version: 6.00 Build 0)  -->
<!DOCTYPE svg PUBLIC "-//W3C//DTD SVG 1.1//EN" "http://www.w3.org/Graphics/SVG/1.1/DTD/svg11.dtd">
<svg version="1.1" id="Layer_1" xmlns="http://www.w3.org/2000/svg" xmlns:xlink="http://www.w3.org/1999/xlink" x="0px" y="0px"
	 width="150px" height="54.096px" viewBox="0 0 150 54.096" enable-background="new 0 0 150 54.096" xml:space="preserve">
<g>
	<g>
		<path fill="#AD926E" d="M43.286,39.554v4.526c0,0.677,0.098,1.159,0.294,1.44c0.195,0.283,0.542,0.441,1.04,0.475
			c0.144,0.008,0.217,0.081,0.217,0.211c0,0.092-0.062,0.14-0.187,0.14c-0.027,0-0.079-0.001-0.149-0.007l-0.453-0.016l-0.753-0.053
			c-0.059-0.002-0.139-0.005-0.238-0.005c-0.236,0-0.442,0.005-0.627,0.017l-1.328,0.076c-0.141,0.017-0.238,0.025-0.292,0.025
			c-0.124,0-0.184-0.053-0.179-0.16c0.003-0.088,0.025-0.145,0.06-0.172c0.035-0.025,0.115-0.045,0.235-0.053
			c0.313-0.02,0.556-0.132,0.727-0.338c0.171-0.207,0.258-0.488,0.258-0.844l-0.005-0.283V39.2c0-0.316-0.173-0.475-0.513-0.475
			c-0.803,0-1.354,0.059-1.645,0.177c-0.216,0.087-0.358,0.187-0.426,0.297c-0.069,0.11-0.167,0.384-0.289,0.821l-0.046,0.172
			c-0.044,0.161-0.114,0.244-0.205,0.244c-0.133,0-0.196-0.062-0.187-0.188c0.006-0.111,0.023-0.27,0.06-0.469l0.062-0.523
			l0.071-0.533l0.044-0.365c0.015-0.158,0.099-0.238,0.25-0.238c0.042,0,0.111,0.006,0.207,0.014c0.157,0.014,0.38,0.02,0.667,0.02
			l1.228,0.013l1.462,0.02c0.945,0,1.946-0.028,3-0.078c0.208-0.009,0.344-0.015,0.403-0.015c0.219,0,0.337,0.093,0.349,0.275
			l0.03,0.434c0.003,0.068,0.022,0.23,0.06,0.491c0.027,0.21,0.039,0.382,0.039,0.509c0,0.133-0.054,0.199-0.161,0.199
			c-0.091,0-0.155-0.077-0.192-0.23c-0.084-0.377-0.245-0.645-0.485-0.811c-0.238-0.164-0.585-0.247-1.038-0.247
			c-0.613,0-0.995,0.049-1.144,0.143C43.36,38.948,43.286,39.183,43.286,39.554"/>
		<path fill="#AD926E" d="M53.083,43.983c0,0.762,0.072,1.277,0.213,1.547c0.14,0.27,0.418,0.424,0.831,0.465
			c0.17,0.018,0.256,0.081,0.256,0.194s-0.069,0.171-0.206,0.171c-0.045,0-0.128-0.006-0.248-0.02c-0.344-0.027-0.679-0.039-1-0.039
			c-0.268,0-0.509,0.007-0.718,0.021l-0.506,0.047l-0.402,0.035c-0.114,0.012-0.192,0.018-0.235,0.018
			c-0.144,0-0.218-0.055-0.218-0.166c0-0.092,0.041-0.145,0.12-0.172c0.274-0.085,0.465-0.197,0.568-0.34
			c0.106-0.141,0.158-0.357,0.158-0.65v-0.573l0.005-0.233v-4.346c0-0.48-0.06-0.803-0.18-0.968c-0.2-0.267-0.52-0.429-0.968-0.485
			c-0.166-0.023-0.247-0.096-0.247-0.207c0-0.113,0.054-0.17,0.169-0.17c0.045,0,0.116,0.006,0.215,0.02
			c0.312,0.032,0.651,0.052,1.02,0.052c0.407,0,0.899-0.022,1.477-0.066c0.682-0.053,1.149-0.079,1.406-0.079
			c0.765,0,1.398,0.207,1.901,0.621c0.501,0.418,0.752,0.938,0.752,1.57c0,0.398-0.112,0.76-0.333,1.082
			c-0.226,0.326-0.534,0.574-0.921,0.742c-0.082,0.033-0.119,0.072-0.116,0.121c0.006,0.041,0.025,0.088,0.061,0.145
			c0.036,0.055,0.09,0.148,0.163,0.283l0.538,0.945l0.618,1.1c0.216,0.373,0.401,0.629,0.571,0.773
			c0.166,0.145,0.36,0.217,0.586,0.217c0.092,0,0.176-0.01,0.258-0.023c0.051-0.014,0.092-0.018,0.133-0.018
			c0.073,0,0.109,0.044,0.109,0.139c0,0.115-0.166,0.246-0.493,0.395c-0.328,0.148-0.62,0.223-0.872,0.223
			c-0.416,0-0.795-0.203-1.145-0.606c-0.348-0.407-0.8-1.171-1.358-2.297c-0.216-0.442-0.396-0.728-0.536-0.845
			c-0.141-0.119-0.37-0.179-0.688-0.179h-0.375l-0.267,0.052c-0.061,0.029-0.093,0.129-0.093,0.287V43.983 M53.083,39.293v2.079
			c0,0.258,0.033,0.419,0.101,0.488c0.065,0.069,0.224,0.104,0.474,0.104c0.716,0,1.161-0.016,1.33-0.041
			c0.172-0.026,0.333-0.107,0.48-0.244c0.295-0.264,0.44-0.631,0.44-1.093c0-0.608-0.199-1.108-0.594-1.501
			c-0.398-0.398-0.901-0.594-1.513-0.594c-0.273,0-0.462,0.057-0.566,0.17C53.134,38.775,53.083,38.985,53.083,39.293"/>
		<path fill="#AD926E" d="M66.795,38.777l2.743,6.28c0.136,0.316,0.297,0.551,0.481,0.707c0.184,0.156,0.421,0.262,0.715,0.312
			c0.073,0.013,0.108,0.071,0.108,0.173c0,0.109-0.046,0.162-0.139,0.158c-0.052-0.004-0.128-0.018-0.227-0.037
			c-0.31-0.067-0.809-0.102-1.494-0.102c-0.69,0-1.161,0.033-1.408,0.098c-0.06,0.019-0.113,0.027-0.157,0.027
			c-0.112,0-0.167-0.059-0.167-0.172c0-0.059,0.043-0.1,0.13-0.129c0.192-0.055,0.352-0.154,0.477-0.301
			c0.128-0.143,0.191-0.297,0.191-0.457c0-0.225-0.175-0.719-0.524-1.48c-0.108-0.232-0.228-0.368-0.362-0.403
			c-0.128-0.032-0.591-0.05-1.388-0.05h-0.819l-0.543,0.098c-0.148,0.065-0.318,0.332-0.506,0.791l-0.187,0.461
			c-0.057,0.133-0.083,0.266-0.083,0.404c0,0.504,0.352,0.794,1.057,0.876c0.153,0.021,0.227,0.079,0.225,0.177
			c-0.01,0.107-0.083,0.162-0.218,0.162c-0.071,0-0.176-0.015-0.307-0.039c-0.266-0.051-0.502-0.078-0.711-0.078
			c-0.188,0-0.493,0.02-0.913,0.061c-0.314,0.03-0.51,0.047-0.586,0.047c-0.111,0-0.167-0.05-0.167-0.145
			c0-0.084,0.056-0.145,0.167-0.184c0.217-0.066,0.391-0.193,0.521-0.377c0.129-0.182,0.322-0.566,0.58-1.15l1.649-3.785
			c0.131-0.297,0.223-0.506,0.277-0.616l0.56-1.147l0.29-0.568v0.021c0.129-0.302,0.217-0.455,0.26-0.455
			c0.065,0,0.174,0.166,0.332,0.507L66.795,38.777 M67.023,42.541l-0.788-1.839c-0.189-0.439-0.324-0.661-0.404-0.661
			c-0.05,0-0.139,0.146-0.266,0.427l-0.114,0.252l-0.705,1.607l-0.067,0.148c-0.027,0.06-0.041,0.111-0.041,0.154
			c0,0.139,0.143,0.205,0.434,0.205h1.785c0.153,0,0.229-0.041,0.229-0.127c0-0.018-0.01-0.053-0.03-0.102L67.023,42.541z"/>
		<path fill="#AD926E" d="M75.994,41.06l1.338,3.283c0.059,0.145,0.113,0.221,0.164,0.225c0.045,0.002,0.09-0.055,0.144-0.17
			l1.354-2.999c0.447-0.985,0.669-1.692,0.669-2.13c0-0.248-0.089-0.451-0.261-0.609c-0.175-0.158-0.425-0.262-0.75-0.309
			c-0.139-0.018-0.209-0.071-0.209-0.165c0-0.095,0.053-0.142,0.151-0.142c0.052,0,0.163,0.004,0.335,0.012l0.635,0.035
			c0.281,0.017,0.485,0.021,0.603,0.021c0.366,0,0.684-0.022,0.951-0.076c0.106-0.015,0.187-0.021,0.24-0.021
			c0.077,0,0.11,0.05,0.11,0.151c0,0.096-0.061,0.152-0.181,0.178c-0.235,0.044-0.423,0.163-0.567,0.358
			c-0.146,0.196-0.356,0.598-0.629,1.211l-0.9,2.075l-1.027,2.265c-0.334,0.74-0.513,1.138-0.544,1.189
			c-0.217,0.445-0.339,0.701-0.368,0.771c-0.074,0.178-0.171,0.27-0.284,0.27c-0.077,0-0.136-0.049-0.183-0.146l-0.139-0.306
			l-0.15-0.364l-1.424-3.233c-0.35-0.795-0.641-1.504-0.873-2.133c-0.277-0.736-0.498-1.221-0.66-1.459
			c-0.162-0.236-0.384-0.384-0.667-0.445c-0.157-0.033-0.24-0.099-0.24-0.201c0-0.111,0.057-0.167,0.168-0.167
			c0.032,0,0.093,0.003,0.18,0.013c0.205,0.022,0.445,0.037,0.716,0.037l1.01,0.028l0.636-0.028
			c0.266-0.021,0.441-0.025,0.521-0.025c0.111,0,0.17,0.054,0.17,0.163c0,0.095-0.086,0.157-0.254,0.19
			c-0.297,0.051-0.446,0.221-0.446,0.516C75.334,39.282,75.555,39.995,75.994,41.06"/>
		<path fill="#AD926E" d="M87.571,39.485v1.304c0,0.374,0.03,0.61,0.083,0.714c0.053,0.098,0.186,0.148,0.395,0.148l0.181-0.006
			l0.265-0.006h0.511c0.399,0,0.704-0.219,0.923-0.656l0.139-0.295c0.035-0.074,0.098-0.107,0.182-0.115
			c0.086-0.004,0.135,0.055,0.135,0.166c0,0.029-0.01,0.117-0.02,0.264c-0.011,0.1-0.015,0.191-0.015,0.262
			c0,0.132,0.021,0.432,0.056,0.906c0.024,0.309,0.039,0.574,0.039,0.805l0.008,0.308c0,0.058-0.008,0.095-0.021,0.114
			c-0.018,0.025-0.046,0.037-0.1,0.044c-0.099,0.007-0.161-0.069-0.186-0.229c-0.053-0.344-0.174-0.602-0.362-0.775
			c-0.104-0.098-0.229-0.16-0.382-0.189c-0.151-0.026-0.435-0.041-0.847-0.041h-0.41c-0.193,0-0.324,0.029-0.395,0.088
			c-0.07,0.057-0.118,0.174-0.139,0.352c-0.026,0.201-0.04,0.518-0.04,0.949v0.539c0,0.564,0.045,0.973,0.132,1.219
			c0.071,0.18,0.149,0.303,0.24,0.367c0.096,0.062,0.237,0.098,0.43,0.098c1.63,0,2.697-0.498,3.201-1.484
			c0.026-0.052,0.05-0.076,0.071-0.08c0.038-0.008,0.076,0.006,0.111,0.039c0.034,0.034,0.054,0.076,0.054,0.131
			c0,0.393-0.106,0.775-0.321,1.146c-0.175,0.312-0.394,0.537-0.662,0.672c-0.265,0.139-0.615,0.203-1.054,0.203
			c-0.257,0-0.539-0.016-0.852-0.049l-0.701-0.068c-0.256-0.024-0.604-0.035-1.042-0.035c-0.292,0-0.739,0.017-1.336,0.052
			c-0.164,0.011-0.283,0.017-0.354,0.017c-0.098,0-0.148-0.045-0.156-0.135c-0.004-0.071,0.039-0.127,0.133-0.165
			c0.227-0.087,0.383-0.181,0.466-0.281c0.079-0.097,0.145-0.271,0.192-0.522c0.047-0.215,0.068-0.502,0.068-0.865v-4.768
			c0-0.447-0.075-0.752-0.221-0.913c-0.145-0.159-0.451-0.272-0.914-0.338c-0.109-0.015-0.162-0.074-0.162-0.174
			c0-0.094,0.066-0.141,0.196-0.141c0.029,0,0.089,0.006,0.183,0.013c0.072,0.008,0.168,0.011,0.295,0.011l0.609,0.025l2.283,0.022
			c1.312,0,2.124-0.021,2.43-0.057c0.031-0.004,0.062-0.006,0.084-0.006c0.117,0,0.174,0.069,0.174,0.197
			c0,0.096,0.013,0.26,0.04,0.497c0.031,0.348,0.046,0.599,0.046,0.75c0,0.306-0.078,0.464-0.236,0.473
			c-0.076,0.001-0.113-0.089-0.113-0.267c0-0.402-0.146-0.689-0.438-0.867c-0.295-0.18-0.764-0.27-1.414-0.27h-0.736l-0.412,0.047
			c-0.203,0.065-0.307,0.271-0.307,0.611L87.571,39.485"/>
		<path fill="#AD926E" d="M98.268,44.444c0,0.749,0.09,1.172,0.271,1.262c0.1,0.053,0.296,0.077,0.588,0.077
			c1.367,0,2.33-0.396,2.902-1.196c0.173-0.244,0.282-0.367,0.327-0.367c0.075,0,0.11,0.086,0.11,0.25
			c0,0.508-0.168,0.961-0.497,1.361c-0.296,0.353-0.696,0.529-1.199,0.529c-0.108,0-0.298-0.012-0.577-0.029
			c-0.072-0.006-0.311-0.02-0.724-0.045l-0.653-0.029c-0.222-0.012-0.475-0.018-0.754-0.018c-0.465,0-0.971,0.029-1.51,0.092
			c-0.164,0.02-0.273,0.029-0.332,0.029c-0.113,0-0.174-0.053-0.174-0.158c0-0.076,0.054-0.129,0.156-0.154
			c0.259-0.074,0.435-0.213,0.533-0.418c0.1-0.205,0.148-0.545,0.148-1.012v-5.02c0-0.641-0.265-1.002-0.801-1.088l-0.361-0.06
			c-0.152-0.024-0.229-0.087-0.229-0.185c0-0.121,0.059-0.182,0.18-0.182c0.041,0,0.1,0.006,0.176,0.019
			c0.057,0.005,0.137,0.014,0.237,0.024l0.258,0.02c0.247,0.023,0.428,0.038,0.549,0.038c0.192,0,0.497-0.024,0.919-0.075
			c0.316-0.029,0.633-0.05,0.959-0.05c0.242,0,0.363,0.06,0.363,0.171c0,0.1-0.086,0.151-0.259,0.158
			c-0.405,0.03-0.608,0.308-0.608,0.838V44.444"/>
		<path fill="#AD926E" d="M108.536,37.954c0.377,0,0.745,0.071,1.107,0.215l0.404,0.169c0.181,0.077,0.311,0.111,0.386,0.111
			c0.057,0,0.112-0.015,0.172-0.042l0.231-0.115c0.034-0.018,0.063-0.025,0.099-0.025c0.082,0,0.127,0.066,0.127,0.199l-0.014,0.487
			c0,0.075,0.004,0.147,0.014,0.219l0.08,0.585l0.06,0.547c0.009,0.049,0.011,0.09,0.011,0.119c0,0.174-0.051,0.259-0.148,0.259
			c-0.07,0-0.125-0.075-0.158-0.228c-0.115-0.559-0.408-1.042-0.879-1.449c-0.473-0.409-0.972-0.615-1.498-0.615
			c-0.363,0-0.678,0.125-0.948,0.368c-0.27,0.245-0.403,0.533-0.403,0.862c0,0.308,0.117,0.574,0.355,0.797
			c0.154,0.145,0.629,0.377,1.43,0.702c0.951,0.39,1.584,0.771,1.896,1.144c0.361,0.449,0.547,0.988,0.547,1.624
			c0,0.694-0.253,1.304-0.758,1.82c-0.506,0.517-1.098,0.776-1.777,0.776c-0.277,0-0.717-0.094-1.317-0.281
			c-0.281-0.095-0.487-0.152-0.622-0.184c-0.184-0.036-0.291-0.068-0.322-0.104c-0.029-0.033-0.054-0.137-0.074-0.311
			c-0.02-0.184-0.082-0.457-0.181-0.814c-0.151-0.545-0.229-0.895-0.229-1.043c0-0.193,0.061-0.291,0.186-0.291
			c0.059,0,0.1,0.051,0.123,0.143c0.196,0.688,0.537,1.264,1.023,1.732c0.487,0.467,0.99,0.701,1.512,0.701
			c0.41,0,0.773-0.154,1.091-0.465c0.32-0.311,0.477-0.662,0.477-1.064c0-0.314-0.08-0.575-0.249-0.778
			c-0.165-0.202-0.453-0.396-0.864-0.575l-0.915-0.408c-0.865-0.385-1.454-0.75-1.766-1.094c-0.307-0.339-0.461-0.797-0.461-1.366
			c0-0.663,0.214-1.216,0.645-1.66C107.357,38.177,107.896,37.954,108.536,37.954"/>
	</g>
	<g>
		<path fill="#36312A" d="M17.843,23.501H7.038c0.078,1.467,0.572,2.632,1.48,3.5c0.905,0.865,2.077,1.303,3.515,1.303
			c2.003,0,3.852-0.625,5.542-1.869V29.4c-0.933,0.624-1.86,1.067-2.78,1.335c-0.919,0.266-1.996,0.398-3.232,0.398
			c-1.692,0-3.063-0.348-4.107-1.051C6.41,29.386,5.57,28.444,4.943,27.26C4.313,26.077,4,24.704,4,23.15
			c0-2.333,0.662-4.23,1.985-5.693c1.326-1.461,3.045-2.193,5.161-2.193c2.038,0,3.662,0.711,4.874,2.135
			c1.215,1.423,1.822,3.329,1.822,5.718V23.501 M7.104,21.685h7.732c-0.078-1.213-0.44-2.147-1.086-2.801
			c-0.645-0.656-1.514-0.984-2.604-0.984c-1.09,0-1.983,0.328-2.681,0.984C7.771,19.538,7.315,20.472,7.104,21.685"/>
		<path fill="#36312A" d="M23.387,15.564v1.953c1.356-1.501,2.898-2.251,4.626-2.251c0.958,0,1.848,0.248,2.673,0.742
			c0.823,0.496,1.45,1.172,1.878,2.034c0.427,0.862,0.643,2.227,0.643,4.092v8.771h-3.039v-8.737c0-1.566-0.239-2.686-0.718-3.357
			c-0.479-0.674-1.279-1.008-2.403-1.008c-1.437,0-2.655,0.716-3.658,2.148v10.954h-3.107V15.564H23.387"/>
		<path fill="#36312A" d="M48.08,27.319v3c-1.528,0.565-3.017,0.851-4.478,0.851c-2.403,0-4.321-0.711-5.751-2.134
			c-1.431-1.422-2.146-3.329-2.146-5.718c0-2.414,0.696-4.356,2.088-5.835c1.391-1.479,3.223-2.218,5.495-2.218
			c0.789,0,1.499,0.075,2.127,0.226c0.629,0.147,1.406,0.429,2.331,0.841v3.235c-1.538-0.978-2.961-1.469-4.277-1.469
			c-1.368,0-2.492,0.484-3.373,1.443c-0.881,0.962-1.319,2.186-1.319,3.676c0,1.567,0.477,2.813,1.426,3.734
			c0.952,0.922,2.237,1.385,3.85,1.385C45.224,28.337,46.564,27.998,48.08,27.319"/>
		<path fill="#36312A" d="M50.676,7.612h3.039v9.97c1.268-1.545,2.846-2.318,4.726-2.318c1.023,0,1.942,0.257,2.756,0.768
			c0.813,0.513,1.414,1.217,1.81,2.117c0.397,0.899,0.595,2.24,0.595,4.017v8.737h-3.04v-9.487c0-1.122-0.278-2.025-0.829-2.709
			c-0.55-0.685-1.277-1.023-2.178-1.023c-0.668,0-1.296,0.172-1.887,0.515c-0.589,0.344-1.242,0.917-1.954,1.718v10.987h-3.039
			V7.612"/>
		<path fill="#36312A" d="M77.195,21.685v6.517c0,0.523,0.18,0.784,0.535,0.784c0.365,0,0.939-0.272,1.721-0.819v1.853
			c-0.691,0.444-1.246,0.747-1.663,0.908c-0.417,0.16-0.854,0.242-1.31,0.242c-1.303,0-2.068-0.513-2.306-1.536
			c-1.291,1.004-2.666,1.501-4.122,1.501c-1.071,0-1.961-0.351-2.674-1.059c-0.713-0.704-1.069-1.591-1.069-2.658
			c0-0.966,0.348-1.832,1.047-2.593c0.694-0.761,1.681-1.363,2.963-1.807l3.888-1.332v-0.819c0-1.844-0.923-2.767-2.771-2.767
			c-1.659,0-3.274,0.857-4.841,2.569V17.35c1.178-1.387,2.879-2.083,5.092-2.083c1.658,0,2.991,0.431,3.99,1.3
			c0.335,0.278,0.635,0.648,0.9,1.109c0.269,0.459,0.438,0.92,0.51,1.384C77.159,19.52,77.195,20.396,77.195,21.685 M74.205,27.866
			v-4.548l-2.036,0.783c-1.037,0.41-1.768,0.823-2.196,1.242c-0.428,0.416-0.643,0.935-0.643,1.559c0,0.634,0.203,1.149,0.609,1.55
			c0.407,0.4,0.932,0.602,1.579,0.602C72.485,29.054,73.383,28.657,74.205,27.866"/>
		<path fill="#36312A" d="M84.822,15.564v1.953c1.359-1.501,2.9-2.251,4.627-2.251c0.957,0,1.848,0.248,2.672,0.742
			c0.822,0.496,1.447,1.172,1.878,2.034c0.429,0.862,0.642,2.227,0.642,4.092v8.771h-3.037v-8.737c0-1.566-0.239-2.686-0.717-3.357
			c-0.479-0.674-1.283-1.008-2.404-1.008c-1.436,0-2.656,0.716-3.658,2.148v10.954h-3.105V15.564H84.822"/>
		<path fill="#36312A" d="M96.257,18l5.709-5.603v3.167h4.86v2.735h-4.86v7.508c0,1.751,0.731,2.629,2.188,2.629
			c1.091,0,2.243-0.361,3.459-1.084v2.833c-1.172,0.658-2.446,0.983-3.825,0.983c-1.392,0-2.552-0.403-3.474-1.218
			c-0.291-0.242-0.531-0.517-0.721-0.822c-0.186-0.307-0.344-0.707-0.475-1.201c-0.128-0.495-0.191-1.436-0.191-2.827v-6.801h-2.671
			V18"/>
		<path fill="#36312A" d="M111.792,9.116c0.501,0,0.929,0.171,1.288,0.515c0.357,0.346,0.531,0.766,0.531,1.268
			c0,0.488-0.174,0.911-0.531,1.266c-0.359,0.357-0.787,0.533-1.288,0.533c-0.468,0-0.88-0.18-1.237-0.539
			c-0.355-0.362-0.534-0.78-0.534-1.259c0-0.466,0.179-0.88,0.534-1.244C110.914,9.296,111.324,9.116,111.792,9.116 M110.289,30.903
			V15.564h3.039v15.339H110.289z"/>
		<path fill="#36312A" d="M120.188,15.564v1.953c1.36-1.501,2.9-2.251,4.626-2.251c0.956,0,1.848,0.248,2.674,0.742
			c0.825,0.495,1.447,1.172,1.877,2.034c0.43,0.862,0.644,2.227,0.644,4.092v8.771h-3.038v-8.737c0-1.566-0.242-2.686-0.72-3.357
			c-0.479-0.674-1.278-1.008-2.403-1.008c-1.436,0-2.656,0.716-3.657,2.148v10.954h-3.106V15.564H120.188"/>
		<path fill="#36312A" d="M132.973,20.866c0-1.635,0.602-2.924,1.794-3.875c1.2-0.949,2.833-1.425,4.905-1.425H146v2.369h-3.108
			c0.603,0.61,1.021,1.167,1.255,1.667c0.231,0.499,0.35,1.073,0.35,1.717c0,0.8-0.229,1.587-0.684,2.358
			c-0.457,0.774-1.046,1.365-1.762,1.776c-0.721,0.412-1.896,0.739-3.535,0.983c-1.143,0.169-1.717,0.56-1.717,1.182
			c0,0.355,0.213,0.648,0.643,0.875c0.426,0.229,1.203,0.463,2.328,0.709c1.881,0.412,3.09,0.733,3.633,0.969
			c0.54,0.232,1.027,0.566,1.459,1c0.736,0.734,1.104,1.654,1.104,2.767c0,1.456-0.649,2.616-1.945,3.486
			c-1.297,0.864-3.032,1.296-5.201,1.296c-2.195,0-3.945-0.434-5.254-1.307c-1.307-0.873-1.962-2.043-1.962-3.512
			c0-2.077,1.286-3.414,3.858-4.018c-1.025-0.654-1.537-1.303-1.537-1.949c0-0.489,0.217-0.934,0.658-1.331
			c0.443-0.403,1.033-0.698,1.779-0.887C134.104,24.718,132.973,23.1,132.973,20.866 M137.967,31.618
			c-1.023,0-1.863,0.218-2.514,0.652c-0.652,0.436-0.977,0.99-0.977,1.667c0,1.577,1.426,2.366,4.277,2.366
			c1.344,0,2.389-0.197,3.129-0.592c0.738-0.391,1.111-0.951,1.111-1.676c0-0.713-0.469-1.291-1.404-1.74
			C140.656,31.845,139.447,31.618,137.967,31.618 M138.686,18.199c-0.823,0-1.525,0.281-2.105,0.834
			c-0.578,0.555-0.867,1.223-0.867,2c0,0.791,0.284,1.443,0.852,1.96c0.568,0.516,1.285,0.774,2.156,0.774
			c0.857,0,1.568-0.261,2.144-0.793c0.575-0.528,0.86-1.185,0.86-1.973c0-0.801-0.291-1.466-0.869-2.002
			C140.277,18.466,139.555,18.199,138.686,18.199"/>
	</g>
</g>
</svg>
