<?xml version="1.0" encoding="utf-8"?>
<!-- Generator: Adobe Illustrator 16.0.0, SVG Export Plug-In . SVG Version: 6.00 Build 0)  -->
<!DOCTYPE svg PUBLIC "-//W3C//DTD SVG 1.1//EN" "http://www.w3.org/Graphics/SVG/1.1/DTD/svg11.dtd">
<svg version="1.1" id="Layer_1" xmlns="http://www.w3.org/2000/svg" xmlns:xlink="http://www.w3.org/1999/xlink" x="0px" y="0px"
	 width="105px" height="42px" viewBox="0 0 105 42" enable-background="new 0 0 105 42" xml:space="preserve">
<polygon id="star_15_" fill="#B8A183" points="16.281,32.164 10.905,31.343 8.501,26.22 6.095,31.343 0.719,32.164 4.611,36.153 
	3.693,41.78 8.501,39.122 13.312,41.78 12.392,36.153 "/>
<polygon id="star_1_" fill="#B8A183" points="38.281,32.164 32.905,31.343 30.501,26.22 28.095,31.343 22.719,32.164 26.611,36.153 
	25.693,41.78 30.501,39.122 35.312,41.78 34.392,36.153 "/>
<polygon id="star_2_" fill="#B8A183" points="60.281,32.164 54.905,31.343 52.501,26.22 50.095,31.343 44.719,32.164 48.611,36.153 
	47.693,41.78 52.501,39.122 57.312,41.78 56.392,36.153 "/>
<polygon id="star_3_" fill="#B8A183" points="82.281,32.164 76.905,31.343 74.501,26.22 72.095,31.343 66.719,32.164 70.611,36.153 
	69.693,41.78 74.501,39.122 79.312,41.78 78.392,36.153 "/>
<polygon id="star_4_" fill="#B8A183" points="104.281,32.164 98.905,31.343 96.501,26.22 94.095,31.343 88.719,32.164 
	92.611,36.153 91.693,41.78 96.501,39.122 101.312,41.78 100.392,36.153 "/>
<polygon id="star_9_" fill="#EBE3DB" points="16.281,5.944 10.905,5.123 8.501,0 6.095,5.123 0.719,5.944 4.611,9.934 3.693,15.561 
	8.501,12.902 13.312,15.561 12.392,9.934 "/>
<polygon id="star_8_" fill="#EBE3DB" points="38.281,5.944 32.905,5.123 30.501,0 28.095,5.123 22.719,5.944 26.611,9.934 
	25.693,15.561 30.501,12.902 35.312,15.561 34.392,9.934 "/>
<polygon id="star_7_" fill="#EBE3DB" points="60.281,5.944 54.905,5.123 52.501,0 50.095,5.123 44.719,5.944 48.611,9.934 
	47.693,15.561 52.501,12.902 57.312,15.561 56.392,9.934 "/>
<polygon id="star_6_" fill="#EBE3DB" points="82.281,5.944 76.905,5.123 74.501,0 72.095,5.123 66.719,5.944 70.611,9.934 
	69.693,15.561 74.501,12.902 79.312,15.561 78.392,9.934 "/>
<polygon id="star_5_" fill="#EBE3DB" points="104.281,5.944 98.905,5.123 96.501,0 94.095,5.123 88.719,5.944 92.611,9.934 
	91.693,15.561 96.501,12.902 101.312,15.561 100.392,9.934 "/>
</svg>
