<?xml version="1.0" encoding="utf-8"?>
<!-- Generator: Adobe Illustrator 16.0.0, SVG Export Plug-In . SVG Version: 6.00 Build 0)  -->
<!DOCTYPE svg PUBLIC "-//W3C//DTD SVG 1.1//EN" "http://www.w3.org/Graphics/SVG/1.1/DTD/svg11.dtd">
<svg version="1.1" id="Layer_1" xmlns="http://www.w3.org/2000/svg" xmlns:xlink="http://www.w3.org/1999/xlink" x="0px" y="0px"
	 width="34px" height="34px" viewBox="0 0 34 34" enable-background="new 0 0 34 34" xml:space="preserve">
<g>
	<path fill="#BEA98D" d="M17,0C7.609,0,0,7.609,0,17s7.609,17,17,17s17-7.609,17-17S26.391,0,17,0z M17,30.355
		C9.633,30.355,3.642,24.367,3.642,17C3.642,9.635,9.633,3.642,17,3.642c7.365,0,13.355,5.993,13.355,13.358
		C30.355,24.367,24.365,30.355,17,30.355z"/>
	<path fill="#BEA98D" d="M13.811,13.812L8.498,25.5l11.688-5.312h0.002L25.498,8.5l-11.686,5.312H13.811z M16.998,15.178
		c1.006,0,1.822,0.818,1.822,1.822s-0.816,1.822-1.822,1.822c-1.004,0-1.822-0.818-1.822-1.822S15.994,15.178,16.998,15.178z"/>
</g>
</svg>
