<?xml version="1.0" encoding="utf-8"?>
<!-- Generator: Adobe Illustrator 16.0.0, SVG Export Plug-In . SVG Version: 6.00 Build 0)  -->
<!DOCTYPE svg PUBLIC "-//W3C//DTD SVG 1.1//EN" "http://www.w3.org/Graphics/SVG/1.1/DTD/svg11.dtd">
<svg version="1.1" id="Layer_1" xmlns="http://www.w3.org/2000/svg" xmlns:xlink="http://www.w3.org/1999/xlink" x="0px" y="0px"
	 width="34px" height="34px" viewBox="0 0 34 34" enable-background="new 0 0 34 34" xml:space="preserve">
<path fill="#BEA98D" d="M31,4c0-1.657-1.343-3-3-3H6C4.343,1,3,2.343,3,4v25c0,1.657,1.343,3,3,3h22c1.657,0,3-1.343,3-3V4z M16,27
	H6v-1h10V27z M16,24H6v-1h10V24z M16,21H6v-1h10V21z M16,18H6v-1h10V18z M13.333,9.333l1.414-1.414l2.704,2.704l5.283-5.282
	l1.414,1.414l-6.697,6.696L13.333,9.333z M28,27H18v-1h10V27z M28,24H18v-1h10V24z M28,21H18v-1h10V21z M28,18H18v-1h10V18z"/>
</svg>
