<?xml version="1.0" encoding="utf-8"?>
<!-- Generator: Adobe Illustrator 16.0.0, SVG Export Plug-In . SVG Version: 6.00 Build 0)  -->
<!DOCTYPE svg PUBLIC "-//W3C//DTD SVG 1.1//EN" "http://www.w3.org/Graphics/SVG/1.1/DTD/svg11.dtd">
<svg version="1.1" id="Layer_1" xmlns="http://www.w3.org/2000/svg" xmlns:xlink="http://www.w3.org/1999/xlink" x="0px" y="0px"
	 width="34px" height="34px" viewBox="0 0 34 34" enable-background="new 0 0 34 34" xml:space="preserve">
<g>
	<path fill="#BEA98D" d="M18.213,14.219V6.875c0-0.669-0.543-1.217-1.213-1.217s-1.213,0.548-1.213,1.217v7.344
		c-0.701,0.305-1.262,0.865-1.57,1.564H7.286c-0.673,0-1.214,0.547-1.214,1.217s0.541,1.217,1.214,1.217h6.931
		c0.471,1.07,1.535,1.816,2.781,1.816c1.678,0,3.037-1.36,3.037-3.033C20.035,15.76,19.285,14.688,18.213,14.219z"/>
	<path fill="#BEA98D" d="M17,0C7.609,0,0,7.609,0,17s7.609,17,17,17s17-7.609,17-17S26.391,0,17,0z M17,30.355
		C9.633,30.355,3.642,24.367,3.642,17C3.642,9.635,9.633,3.645,17,3.645c7.365,0,13.357,5.99,13.357,13.355
		C30.357,24.367,24.365,30.355,17,30.355z"/>
</g>
</svg>
