<?xml version="1.0" encoding="utf-8"?>
<!-- Generator: Adobe Illustrator 16.0.0, SVG Export Plug-In . SVG Version: 6.00 Build 0)  -->
<!DOCTYPE svg PUBLIC "-//W3C//DTD SVG 1.1//EN" "http://www.w3.org/Graphics/SVG/1.1/DTD/svg11.dtd">
<svg version="1.1" id="Layer_1" xmlns="http://www.w3.org/2000/svg" xmlns:xlink="http://www.w3.org/1999/xlink" x="0px" y="0px"
	 width="34px" height="34px" viewBox="0 0 34 34" enable-background="new 0 0 34 34" xml:space="preserve">
<path id="hiker" fill="#BEA98D" d="M9.224,10.074L5.2,9.092L2.5,20.16l4.025,0.982L9.224,10.074z M15.281,8.639
	c1.673,0.377,3.337-0.678,3.714-2.35c0.376-1.674-0.678-3.334-2.353-3.713c-1.671-0.376-3.334,0.674-3.71,2.348
	C12.558,6.594,13.61,8.262,15.281,8.639z M21.144,20.107h4.143l1.035-4.143h-4.143C20.107,14.929,17,9.75,14.929,9.75
	c0,0-4.144-1.035-5.179,4.143L5.606,31.5h5.349l1.902-7.25l3.107,2.072V31.5h4.143v-8.285l-4.988-3.723l0.846-3.527L21.144,20.107z
	 M30.546,9.689c-0.081-0.017-0.162-0.022-0.243-0.022c-0.555,0-1.052,0.351-1.169,0.857l-4.503,19.685
	c-0.134,0.581,0.283,1.149,0.931,1.27c0.08,0.014,0.161,0.021,0.24,0.021c0.557,0,1.056-0.35,1.171-0.857l4.503-19.686
	C31.607,10.377,31.192,9.808,30.546,9.689z"/>
</svg>
