<?xml version="1.0" encoding="utf-8"?>
<!-- Generator: Adobe Illustrator 16.0.0, SVG Export Plug-In . SVG Version: 6.00 Build 0)  -->
<!DOCTYPE svg PUBLIC "-//W3C//DTD SVG 1.1//EN" "http://www.w3.org/Graphics/SVG/1.1/DTD/svg11.dtd">
<svg version="1.1" id="Layer_1" xmlns="http://www.w3.org/2000/svg" xmlns:xlink="http://www.w3.org/1999/xlink" x="0px" y="0px"
	 width="34px" height="34px" viewBox="0 0 34 34" enable-background="new 0 0 34 34" xml:space="preserve">
<path id="lock_3_" fill="#BEA98D" d="M25,12.5V8.557C25,4.107,21.465,0.5,17.002,0.5S9,4.107,9,8.557V12.5H3v21h28v-21H25z
	 M19.121,27.5h-4.908l1.037-4.873c-0.842-0.49-1.416-1.514-1.416-2.555c0-1.562,1.27-2.887,2.834-2.887s2.834,1.232,2.834,2.795
	c0,1.041-0.572,2.172-1.416,2.662L19.121,27.5z M22,12.5H12V8.557c0-2.732,2.262-4.955,5.002-4.955C19.74,3.602,22,5.824,22,8.557
	V12.5z"/>
</svg>
