<?xml version="1.0" encoding="utf-8"?>
<!-- Generator: Adobe Illustrator 16.0.0, SVG Export Plug-In . SVG Version: 6.00 Build 0)  -->
<!DOCTYPE svg PUBLIC "-//W3C//DTD SVG 1.1//EN" "http://www.w3.org/Graphics/SVG/1.1/DTD/svg11.dtd">
<svg version="1.1" id="Layer_1" xmlns="http://www.w3.org/2000/svg" xmlns:xlink="http://www.w3.org/1999/xlink" x="0px" y="0px"
	 width="34px" height="34px" viewBox="0 0 34 34" enable-background="new 0 0 34 34" xml:space="preserve">
<path fill="#BDA98D" d="M32.246,12h-3.037c-1.1-3-1.395-5.502-2.848-7.32c-1.848-2.31-6.41-2.359-9.364-2.331
	c-2.954-0.028-7.517,0.1-9.362,2.409C6.181,6.577,5.887,9,4.788,12H1.749c-0.61,0-1.104-0.205-1.104,0.555
	c0,0.764,1.333,0.917,1.333,0.917l1.748,0.561c-1.07,3.492-1.303,7.243-1.322,10.97c0,0.012-0.043,3.178-0.043,3.178
	c0,1.771,0.803,3.547,3.353,3.547C8.262,31.727,9,29.94,9,28.341V27h16v1.341c0,1.6,0.736,3.376,3.285,3.376
	c2.551,0,3.38-1.785,3.38-3.558c0,0-0.058-3.186-0.058-3.197c-0.02-3.726-0.258-7.517-1.328-11.008l1.743-0.641
	c0,0,1.331,0.005,1.331-0.758C33.354,11.795,32.857,12,32.246,12z M10.696,5.438C11.528,4.99,13.081,5,13.772,5h6.451
	c0.693,0,2.246-0.01,3.078,0.438C25.592,6.672,26.33,10,27.586,15H6.41C7.665,10,8.405,6.672,10.696,5.438z M11.042,22.004
	c-0.24,0-1.329,0.014-2.658,0.014c-1.537,0-2.367-0.954-2.367-2.304c0-1.351,0.012-2.351,0.012-2.586
	c0-0.234,0.361-0.637,0.826-0.185c0.734,0.713,1.474,1.421,2.209,2.133v0.001c0.723,0.708,1.443,1.418,2.17,2.123
	C11.696,21.654,11.285,22.004,11.042,22.004z M18.621,23h-3.247c-1.286,0-1.986-0.706-3.276-2.008
	C10.696,19.575,10.834,19,11.621,19h10.754c0.785,0,0.924,0.575-0.479,1.992C20.607,22.294,19.906,23,18.621,23z M25.613,22.018
	c-1.33,0-2.418-0.014-2.66-0.014s-0.654-0.389-0.189-0.842C23.488,20.457,24.209,20,24.934,19c0,0,0,0-0.002,0
	c0.736,0,1.477-1.381,2.209-2.094c0.465-0.453,0.826-0.032,0.826,0.203c0,0.235,0.014,1.245,0.014,2.596
	C27.98,21.054,27.15,22.018,25.613,22.018z"/>
</svg>
