<?xml version="1.0" encoding="utf-8"?>
<!-- Generator: Adobe Illustrator 16.0.0, SVG Export Plug-In . SVG Version: 6.00 Build 0)  -->
<!DOCTYPE svg PUBLIC "-//W3C//DTD SVG 1.1//EN" "http://www.w3.org/Graphics/SVG/1.1/DTD/svg11.dtd">
<svg version="1.1" id="Layer_1" xmlns="http://www.w3.org/2000/svg" xmlns:xlink="http://www.w3.org/1999/xlink" x="0px" y="0px"
	 width="53px" height="53px" viewBox="0 0 53 53" enable-background="new 0 0 53 53" xml:space="preserve">
<g>
	<path fill-rule="evenodd" clip-rule="evenodd" fill="#CDCCCB" d="M34.479,36.306c-0.643-1.455-1.288-2.908-1.974-4.342
		c-0.372-0.778-0.981-0.956-1.794-0.598c-0.605,0.266-1.195,0.568-1.805,0.827c-0.871,0.371-1.569,0.121-1.971-0.747
		c-0.587-1.269-1.169-2.54-1.747-3.813c0.001,0,0.003-0.001,0.004-0.002c-0.579-1.281-1.153-2.565-1.723-3.85
		c-0.388-0.874-0.114-1.563,0.739-1.975c0.596-0.286,1.213-0.53,1.813-0.81c0.803-0.375,1.073-0.95,0.733-1.743
		c-0.626-1.461-1.292-2.905-1.961-4.347c-0.268-0.576-0.789-0.847-1.377-0.657c-1.734,0.56-3.24,1.448-4.116,3.151
		c-1.119,2.176-1.076,4.657-0.538,6.968C19.203,26.26,19.858,28,20.667,30c-0.001,0-0.002,0-0.003,0c0.777,2,1.721,3.33,2.893,4.965
		c1.38,1.928,3.051,3.341,5.425,3.935c1.857,0.465,3.52-0.136,5.084-1.07C34.595,37.511,34.735,36.887,34.479,36.306z"/>
	<path fill="#EBEBEB" d="M26.322,2.251c13.233,0,24,10.767,24,24s-10.767,24-24,24s-24-10.767-24-24S13.089,2.251,26.322,2.251
		 M26.322,0.251c-14.36,0-26,11.641-26,26s11.64,26,26,26c14.359,0,26-11.641,26-26S40.682,0.251,26.322,0.251L26.322,0.251z"/>
</g>
</svg>
