<?xml version="1.0" encoding="utf-8"?>
<!-- Generator: Adobe Illustrator 16.0.0, SVG Export Plug-In . SVG Version: 6.00 Build 0)  -->
<!DOCTYPE svg PUBLIC "-//W3C//DTD SVG 1.1//EN" "http://www.w3.org/Graphics/SVG/1.1/DTD/svg11.dtd">
<svg version="1.1" id="Layer_1" xmlns="http://www.w3.org/2000/svg" xmlns:xlink="http://www.w3.org/1999/xlink" x="0px" y="0px"
	 width="142px" height="40px" viewBox="0 0 142 40" enable-background="new 0 0 142 40" xml:space="preserve">
<g>
	<g>
		<path fill="#AD926E" d="M39.551,32.4v4.488c0,0.673,0.098,1.15,0.293,1.43c0.193,0.281,0.537,0.438,1.03,0.471
			c0.143,0.008,0.216,0.08,0.216,0.208c0,0.091-0.063,0.14-0.187,0.14c-0.027,0-0.077-0.002-0.146-0.008l-0.449-0.016l-0.747-0.052
			c-0.059-0.002-0.138-0.005-0.237-0.005c-0.233,0-0.438,0.005-0.62,0.016l-1.318,0.076c-0.141,0.016-0.235,0.025-0.289,0.025
			c-0.122,0-0.182-0.053-0.178-0.159c0.005-0.087,0.024-0.142,0.061-0.171c0.033-0.025,0.113-0.044,0.234-0.051
			c0.309-0.021,0.55-0.132,0.719-0.336c0.17-0.205,0.256-0.484,0.256-0.836l-0.005-0.281v-5.289c0-0.313-0.172-0.471-0.509-0.471
			c-0.796,0-1.342,0.059-1.631,0.175c-0.214,0.087-0.355,0.186-0.422,0.294c-0.068,0.109-0.166,0.381-0.287,0.814l-0.046,0.17
			c-0.042,0.162-0.111,0.242-0.202,0.242c-0.133,0-0.194-0.061-0.185-0.184c0.005-0.111,0.021-0.269,0.058-0.467l0.063-0.518
			l0.07-0.529l0.045-0.363c0.014-0.156,0.097-0.235,0.247-0.235c0.041,0,0.108,0.006,0.204,0.013
			c0.156,0.015,0.377,0.021,0.662,0.021l1.219,0.011l1.45,0.02c0.937,0,1.929-0.028,2.975-0.077
			c0.206-0.009,0.341-0.016,0.399-0.016c0.218,0,0.335,0.093,0.347,0.275l0.029,0.43c0.004,0.066,0.022,0.229,0.06,0.486
			c0.025,0.209,0.038,0.378,0.038,0.504c0,0.133-0.054,0.197-0.158,0.197c-0.092,0-0.155-0.076-0.191-0.227
			c-0.084-0.374-0.242-0.641-0.481-0.805c-0.236-0.163-0.58-0.246-1.029-0.246c-0.606,0-0.986,0.049-1.133,0.143
			C39.624,31.801,39.551,32.033,39.551,32.4"/>
		<path fill="#AD926E" d="M49.268,36.793c0,0.755,0.071,1.268,0.21,1.535c0.14,0.268,0.415,0.42,0.824,0.461
			c0.169,0.017,0.254,0.08,0.254,0.191c0,0.113-0.069,0.17-0.204,0.17c-0.046,0-0.128-0.006-0.247-0.02
			c-0.339-0.025-0.672-0.039-0.991-0.039c-0.266,0-0.504,0.008-0.71,0.021L47.9,39.16l-0.399,0.035
			c-0.113,0.012-0.19,0.018-0.232,0.018c-0.144,0-0.217-0.055-0.217-0.166c0-0.09,0.04-0.143,0.119-0.17
			c0.272-0.084,0.462-0.195,0.563-0.336c0.105-0.14,0.156-0.355,0.156-0.646v-0.567l0.006-0.231v-4.309
			c0-0.477-0.059-0.797-0.178-0.961c-0.199-0.264-0.517-0.424-0.961-0.48c-0.164-0.023-0.246-0.096-0.246-0.205
			c0-0.113,0.056-0.168,0.168-0.168c0.047,0,0.116,0.005,0.213,0.018c0.31,0.033,0.646,0.053,1.012,0.053
			c0.404,0,0.892-0.023,1.464-0.066c0.677-0.053,1.141-0.078,1.395-0.078c0.76,0,1.387,0.205,1.886,0.616
			c0.497,0.413,0.745,0.93,0.745,1.556c0,0.396-0.11,0.754-0.329,1.074c-0.226,0.324-0.529,0.568-0.915,0.734
			c-0.082,0.033-0.116,0.072-0.113,0.121c0.005,0.04,0.024,0.088,0.061,0.143c0.035,0.055,0.089,0.148,0.16,0.281l0.533,0.938
			l0.611,1.09c0.215,0.371,0.398,0.624,0.566,0.768c0.164,0.145,0.356,0.215,0.581,0.215c0.091,0,0.176-0.01,0.256-0.022
			c0.051-0.015,0.092-0.019,0.132-0.019c0.072,0,0.109,0.045,0.109,0.138c0,0.114-0.164,0.245-0.49,0.392
			c-0.324,0.147-0.614,0.221-0.864,0.221c-0.412,0-0.788-0.201-1.136-0.602c-0.345-0.403-0.792-1.16-1.346-2.277
			c-0.217-0.439-0.394-0.723-0.532-0.837c-0.141-0.118-0.368-0.178-0.683-0.178h-0.373l-0.264,0.052
			c-0.06,0.029-0.091,0.127-0.091,0.285V36.793 M49.268,32.143v2.062c0,0.254,0.031,0.414,0.099,0.482
			c0.063,0.069,0.222,0.104,0.469,0.104c0.71,0,1.151-0.015,1.319-0.041c0.171-0.025,0.331-0.105,0.477-0.242
			c0.293-0.262,0.437-0.625,0.437-1.084c0-0.602-0.196-1.098-0.588-1.488c-0.395-0.394-0.894-0.588-1.501-0.588
			c-0.27,0-0.458,0.056-0.561,0.169C49.316,31.629,49.268,31.838,49.268,32.143"/>
		<path fill="#AD926E" d="M62.863,31.631l2.72,6.227c0.137,0.314,0.295,0.548,0.477,0.703c0.185,0.154,0.418,0.258,0.71,0.309
			c0.073,0.012,0.107,0.069,0.107,0.171c0,0.108-0.046,0.16-0.137,0.157c-0.053-0.005-0.128-0.017-0.226-0.037
			c-0.309-0.066-0.803-0.1-1.481-0.1c-0.687,0-1.151,0.031-1.395,0.096c-0.062,0.019-0.114,0.027-0.158,0.027
			c-0.11,0-0.164-0.059-0.164-0.17c0-0.059,0.041-0.1,0.129-0.129c0.189-0.053,0.349-0.153,0.473-0.299
			c0.126-0.141,0.188-0.294,0.188-0.452c0-0.222-0.174-0.712-0.52-1.468c-0.107-0.23-0.227-0.365-0.358-0.4
			c-0.128-0.031-0.586-0.05-1.375-0.05h-0.813L60.5,36.312c-0.146,0.066-0.314,0.33-0.501,0.785l-0.186,0.457
			c-0.056,0.133-0.082,0.264-0.082,0.4c0,0.5,0.349,0.787,1.048,0.869c0.151,0.02,0.225,0.079,0.223,0.175
			c-0.01,0.107-0.081,0.161-0.217,0.161c-0.07,0-0.173-0.014-0.305-0.039c-0.263-0.05-0.497-0.078-0.705-0.078
			c-0.186,0-0.486,0.021-0.904,0.061c-0.312,0.031-0.506,0.047-0.581,0.047c-0.111,0-0.164-0.05-0.164-0.145
			c0-0.082,0.053-0.141,0.164-0.181c0.215-0.065,0.389-0.192,0.517-0.374c0.129-0.18,0.32-0.562,0.577-1.141l1.634-3.752
			c0.129-0.296,0.221-0.502,0.275-0.613l0.556-1.137l0.286-0.563v0.021c0.127-0.299,0.215-0.45,0.258-0.45
			c0.065,0,0.172,0.164,0.329,0.501L62.863,31.631 M63.089,35.363l-0.78-1.822c-0.188-0.438-0.32-0.656-0.4-0.656
			c-0.05,0-0.139,0.144-0.264,0.424l-0.114,0.25l-0.698,1.592l-0.066,0.148c-0.026,0.059-0.041,0.11-0.041,0.152
			c0,0.138,0.141,0.203,0.43,0.203h1.771c0.151,0,0.227-0.04,0.227-0.125c0-0.018-0.011-0.053-0.031-0.102L63.089,35.363z"/>
		<path fill="#AD926E" d="M71.987,33.895l1.324,3.256c0.059,0.143,0.113,0.218,0.164,0.223c0.045,0.002,0.088-0.055,0.141-0.17
			l1.346-2.973c0.443-0.977,0.662-1.678,0.662-2.112c0-0.245-0.088-0.446-0.258-0.604c-0.174-0.157-0.422-0.261-0.744-0.307
			c-0.137-0.019-0.207-0.071-0.207-0.164s0.051-0.14,0.15-0.14c0.051,0,0.162,0.004,0.332,0.012l0.629,0.033
			c0.279,0.018,0.48,0.023,0.598,0.023c0.363,0,0.678-0.023,0.943-0.076c0.105-0.014,0.186-0.021,0.238-0.021
			c0.076,0,0.109,0.049,0.109,0.149c0,0.095-0.059,0.151-0.18,0.177c-0.232,0.044-0.418,0.162-0.562,0.355s-0.354,0.594-0.623,1.201
			l-0.893,2.058l-1.02,2.245c-0.332,0.734-0.508,1.128-0.541,1.18c-0.213,0.441-0.332,0.695-0.363,0.764
			c-0.076,0.178-0.17,0.269-0.281,0.269c-0.076,0-0.137-0.048-0.182-0.145l-0.137-0.302l-0.148-0.362l-1.414-3.206
			c-0.345-0.788-0.635-1.492-0.864-2.115c-0.274-0.73-0.494-1.211-0.654-1.447c-0.16-0.234-0.38-0.379-0.661-0.441
			c-0.156-0.032-0.238-0.098-0.238-0.199c0-0.11,0.056-0.166,0.166-0.166c0.033,0,0.094,0.004,0.18,0.014
			c0.203,0.021,0.44,0.037,0.71,0.037l1.003,0.027l0.629-0.027c0.266-0.021,0.439-0.027,0.518-0.027
			c0.111,0,0.167,0.055,0.167,0.164c0,0.094-0.083,0.155-0.25,0.188c-0.295,0.05-0.443,0.22-0.443,0.512
			C71.331,32.131,71.551,32.839,71.987,33.895"/>
		<path fill="#AD926E" d="M83.467,32.333v1.294c0,0.371,0.027,0.604,0.082,0.707c0.051,0.098,0.184,0.147,0.389,0.147l0.18-0.006
			l0.262-0.006h0.508c0.396,0,0.699-0.218,0.914-0.65l0.137-0.293c0.037-0.073,0.098-0.106,0.182-0.114
			c0.086-0.004,0.133,0.054,0.133,0.164c0,0.029-0.008,0.117-0.02,0.262c-0.01,0.1-0.014,0.189-0.014,0.26
			c0,0.13,0.02,0.428,0.053,0.898c0.027,0.307,0.041,0.57,0.041,0.799l0.006,0.305c0,0.057-0.006,0.093-0.018,0.113
			c-0.018,0.025-0.047,0.036-0.1,0.043c-0.1,0.007-0.16-0.068-0.184-0.228c-0.053-0.341-0.172-0.597-0.359-0.769
			c-0.102-0.097-0.227-0.159-0.377-0.188c-0.15-0.027-0.432-0.041-0.842-0.041h-0.406c-0.191,0-0.322,0.029-0.393,0.087
			c-0.068,0.057-0.115,0.173-0.135,0.348c-0.027,0.2-0.039,0.514-0.039,0.942v0.535c0,0.559,0.045,0.964,0.131,1.207
			c0.07,0.18,0.146,0.301,0.236,0.365c0.094,0.062,0.234,0.096,0.426,0.096c1.617,0,2.676-0.492,3.176-1.471
			c0.023-0.052,0.049-0.076,0.068-0.08c0.039-0.008,0.076,0.006,0.111,0.039c0.033,0.033,0.055,0.075,0.055,0.129
			c0,0.39-0.105,0.77-0.322,1.138c-0.174,0.31-0.389,0.532-0.654,0.666c-0.262,0.137-0.611,0.201-1.045,0.201
			c-0.254,0-0.535-0.015-0.844-0.049l-0.695-0.067c-0.254-0.023-0.598-0.035-1.033-0.035c-0.289,0-0.732,0.018-1.324,0.053
			c-0.164,0.01-0.281,0.016-0.352,0.016c-0.098,0-0.146-0.044-0.154-0.133c-0.004-0.07,0.037-0.127,0.131-0.164
			c0.225-0.087,0.379-0.179,0.461-0.279c0.08-0.097,0.145-0.27,0.191-0.518c0.045-0.214,0.066-0.498,0.066-0.859v-4.727
			c0-0.443-0.072-0.746-0.219-0.906c-0.141-0.156-0.445-0.27-0.904-0.334c-0.109-0.016-0.16-0.074-0.16-0.173
			c0-0.093,0.062-0.139,0.193-0.139c0.029,0,0.088,0.005,0.182,0.013c0.07,0.008,0.168,0.01,0.291,0.01l0.604,0.025l2.268,0.021
			c1.299,0,2.105-0.02,2.408-0.055c0.031-0.004,0.059-0.006,0.082-0.006c0.117,0,0.174,0.068,0.174,0.195
			c0,0.094,0.01,0.258,0.039,0.492c0.031,0.346,0.045,0.595,0.045,0.744c0,0.304-0.078,0.461-0.236,0.469
			c-0.074,0.002-0.111-0.088-0.111-0.266c0-0.397-0.145-0.682-0.434-0.859c-0.293-0.178-0.758-0.266-1.4-0.266h-0.73l-0.41,0.046
			c-0.201,0.065-0.305,0.267-0.305,0.604L83.467,32.333"/>
		<path fill="#AD926E" d="M94.072,37.252c0,0.741,0.09,1.16,0.268,1.25c0.1,0.053,0.295,0.076,0.586,0.076
			c1.354,0,2.311-0.393,2.875-1.188c0.174-0.24,0.283-0.363,0.326-0.363c0.074,0,0.109,0.086,0.109,0.248
			c0,0.504-0.166,0.953-0.494,1.352c-0.293,0.348-0.689,0.523-1.189,0.523c-0.105,0-0.293-0.011-0.57-0.029
			c-0.072-0.006-0.309-0.02-0.719-0.044l-0.646-0.03c-0.221-0.011-0.473-0.016-0.748-0.016c-0.463,0-0.963,0.028-1.498,0.09
			c-0.162,0.021-0.27,0.029-0.328,0.029c-0.113,0-0.172-0.052-0.172-0.156c0-0.076,0.053-0.127,0.154-0.154
			c0.256-0.073,0.43-0.21,0.529-0.414c0.098-0.203,0.145-0.541,0.145-1.003v-4.978c0-0.635-0.262-0.993-0.793-1.078l-0.359-0.059
			c-0.15-0.024-0.227-0.087-0.227-0.184c0-0.119,0.061-0.18,0.18-0.18c0.041,0,0.098,0.006,0.172,0.018
			c0.061,0.006,0.137,0.014,0.236,0.024l0.258,0.02c0.244,0.022,0.424,0.037,0.543,0.037c0.189,0,0.492-0.024,0.912-0.074
			c0.314-0.029,0.629-0.05,0.949-0.05c0.242,0,0.361,0.06,0.361,0.17c0,0.098-0.084,0.15-0.256,0.157
			c-0.402,0.03-0.604,0.304-0.604,0.831V37.252"/>
		<path fill="#AD926E" d="M104.254,30.815c0.373,0,0.738,0.069,1.1,0.213l0.4,0.167c0.178,0.076,0.309,0.111,0.381,0.111
			c0.059,0,0.111-0.016,0.172-0.043l0.229-0.115c0.035-0.016,0.062-0.023,0.098-0.023c0.082,0,0.127,0.064,0.127,0.197l-0.012,0.482
			c0,0.076,0.002,0.146,0.012,0.217l0.078,0.582l0.061,0.541c0.008,0.049,0.01,0.09,0.01,0.119c0,0.172-0.049,0.256-0.146,0.256
			c-0.07,0-0.125-0.074-0.158-0.227c-0.115-0.553-0.402-1.033-0.869-1.436c-0.469-0.406-0.965-0.61-1.486-0.61
			c-0.359,0-0.672,0.124-0.939,0.364c-0.268,0.242-0.402,0.529-0.402,0.855c0,0.305,0.117,0.57,0.354,0.79
			c0.154,0.144,0.623,0.374,1.418,0.696c0.943,0.387,1.57,0.764,1.881,1.135c0.357,0.445,0.541,0.979,0.541,1.609
			c0,0.688-0.25,1.293-0.75,1.806c-0.504,0.513-1.088,0.77-1.764,0.77c-0.273,0-0.709-0.092-1.305-0.278
			c-0.279-0.095-0.484-0.152-0.617-0.184c-0.186-0.035-0.289-0.067-0.32-0.102c-0.029-0.033-0.053-0.137-0.074-0.308
			c-0.02-0.183-0.08-0.453-0.18-0.809c-0.15-0.539-0.229-0.886-0.229-1.034c0-0.191,0.062-0.289,0.186-0.289
			c0.057,0,0.098,0.053,0.121,0.143c0.197,0.682,0.533,1.252,1.018,1.717c0.482,0.463,0.98,0.697,1.498,0.697
			c0.404,0,0.766-0.154,1.08-0.461c0.318-0.309,0.473-0.658,0.473-1.057c0-0.312-0.078-0.57-0.244-0.771s-0.451-0.393-0.859-0.57
			l-0.908-0.406c-0.857-0.38-1.441-0.742-1.75-1.083c-0.305-0.337-0.457-0.79-0.457-1.354c0-0.658,0.213-1.206,0.639-1.647
			C103.086,31.035,103.619,30.815,104.254,30.815"/>
	</g>
	<g>
		<path fill="#FFFFFF" d="M14.321,16.482H3.607c0.078,1.455,0.566,2.61,1.468,3.471c0.898,0.858,2.062,1.292,3.485,1.292
			c1.987,0,3.82-0.619,5.496-1.854v2.941c-0.926,0.618-1.845,1.059-2.758,1.323c-0.91,0.264-1.979,0.396-3.205,0.396
			c-1.678,0-3.035-0.345-4.073-1.042c-1.035-0.691-1.867-1.626-2.49-2.8c-0.625-1.173-0.935-2.535-0.935-4.075
			c0-2.313,0.657-4.194,1.97-5.645c1.313-1.449,3.019-2.175,5.115-2.175c2.021,0,3.632,0.705,4.834,2.117
			c1.205,1.411,1.807,3.301,1.807,5.67V16.482 M3.675,14.682h7.666c-0.077-1.202-0.436-2.13-1.077-2.777
			c-0.639-0.65-1.5-0.975-2.583-0.975c-1.079,0-1.966,0.324-2.657,0.975C4.335,12.552,3.883,13.479,3.675,14.682"/>
		<path fill="#FFFFFF" d="M19.818,8.612v1.937c1.346-1.488,2.874-2.232,4.59-2.232c0.949,0,1.831,0.245,2.647,0.735
			c0.818,0.491,1.439,1.162,1.864,2.017c0.424,0.854,0.637,2.207,0.637,4.058v8.696h-3.013v-8.663c0-1.554-0.237-2.664-0.714-3.329
			c-0.473-0.669-1.268-1-2.382-1c-1.426,0-2.633,0.709-3.626,2.131v10.861H16.74V8.612H19.818"/>
		<path fill="#FFFFFF" d="M44.307,20.268v2.977c-1.516,0.561-2.993,0.844-4.441,0.844c-2.382,0-4.286-0.705-5.703-2.115
			c-1.418-1.41-2.129-3.304-2.129-5.671c0-2.394,0.688-4.319,2.069-5.786s3.198-2.199,5.45-2.199c0.781,0,1.486,0.074,2.108,0.224
			c0.625,0.146,1.396,0.426,2.312,0.833v3.209c-1.525-0.97-2.938-1.456-4.241-1.456c-1.354,0-2.472,0.479-3.344,1.431
			c-0.875,0.954-1.309,2.168-1.309,3.645c0,1.555,0.473,2.79,1.414,3.703c0.944,0.915,2.218,1.374,3.818,1.374
			C41.474,21.278,42.803,20.942,44.307,20.268"/>
		<path fill="#FFFFFF" d="M46.88,0.728h3.013v9.886c1.256-1.531,2.821-2.298,4.687-2.298c1.015,0,1.927,0.254,2.733,0.761
			c0.806,0.509,1.402,1.207,1.795,2.099c0.394,0.893,0.589,2.223,0.589,3.984v8.663h-3.014v-9.407c0-1.112-0.274-2.008-0.822-2.687
			c-0.546-0.679-1.265-1.014-2.158-1.014c-0.662,0-1.285,0.17-1.872,0.51c-0.585,0.342-1.231,0.91-1.938,1.703v10.895H46.88V0.728"
			/>
		<path fill="#FFFFFF" d="M73.176,14.682v6.463c0,0.52,0.178,0.777,0.531,0.777c0.361,0,0.934-0.27,1.705-0.812v1.838
			c-0.684,0.439-1.234,0.739-1.648,0.9c-0.412,0.158-0.846,0.24-1.299,0.24c-1.291,0-2.051-0.51-2.286-1.523
			c-1.279,0.996-2.643,1.488-4.086,1.488c-1.063,0-1.945-0.348-2.652-1.05c-0.708-0.698-1.061-1.577-1.061-2.636
			c0-0.958,0.346-1.816,1.039-2.572c0.688-0.754,1.668-1.352,2.937-1.791l3.856-1.32V13.87c0-1.828-0.916-2.743-2.748-2.743
			c-1.646,0-3.247,0.85-4.801,2.547v-3.291c1.169-1.375,2.854-2.065,5.05-2.065c1.645,0,2.966,0.428,3.958,1.289
			c0.332,0.275,0.628,0.643,0.892,1.101c0.266,0.454,0.434,0.912,0.506,1.372C73.141,12.535,73.176,13.403,73.176,14.682
			 M70.212,20.812v-4.51l-2.02,0.776c-1.027,0.406-1.753,0.816-2.178,1.232c-0.424,0.412-0.638,0.927-0.638,1.545
			c0,0.629,0.201,1.141,0.604,1.537c0.404,0.396,0.924,0.596,1.565,0.596C68.505,21.988,69.396,21.596,70.212,20.812"/>
		<path fill="#FFFFFF" d="M80.74,8.612v1.937c1.346-1.488,2.875-2.232,4.586-2.232c0.949,0,1.832,0.245,2.652,0.735
			c0.814,0.491,1.434,1.162,1.861,2.017c0.424,0.854,0.637,2.207,0.637,4.058v8.696h-3.014v-8.663c0-1.554-0.236-2.664-0.709-3.329
			c-0.479-0.669-1.273-1-2.385-1c-1.424,0-2.633,0.709-3.627,2.131v10.861h-3.08V8.612H80.74"/>
		<path fill="#FFFFFF" d="M92.078,11.027l5.662-5.556v3.141h4.818v2.712H97.74v7.445c0,1.734,0.723,2.606,2.168,2.606
			c1.084,0,2.225-0.358,3.432-1.075v2.81c-1.162,0.651-2.428,0.976-3.795,0.976c-1.379,0-2.529-0.4-3.443-1.207
			c-0.287-0.242-0.527-0.514-0.713-0.816c-0.186-0.305-0.344-0.701-0.473-1.19c-0.127-0.491-0.189-1.424-0.189-2.805v-6.743h-2.648
			V11.027"/>
		<path fill="#FFFFFF" d="M107.482,2.219c0.496,0,0.922,0.169,1.277,0.51c0.354,0.344,0.527,0.76,0.527,1.257
			c0,0.484-0.174,0.904-0.527,1.255c-0.355,0.354-0.781,0.529-1.277,0.529c-0.463,0-0.873-0.179-1.227-0.535
			c-0.354-0.359-0.529-0.772-0.529-1.248c0-0.462,0.176-0.873,0.529-1.233C106.611,2.397,107.02,2.219,107.482,2.219
			 M105.994,23.822V8.612h3.012v15.21H105.994z"/>
		<path fill="#FFFFFF" d="M115.811,8.612v1.937c1.348-1.488,2.875-2.232,4.586-2.232c0.949,0,1.83,0.245,2.65,0.735
			s1.436,1.162,1.861,2.017c0.428,0.854,0.639,2.207,0.639,4.058v8.696h-3.016v-8.663c0-1.554-0.238-2.664-0.711-3.329
			c-0.473-0.669-1.266-1-2.383-1c-1.424,0-2.635,0.709-3.627,2.131v10.861h-3.08V8.612H115.811"/>
		<path fill="#FFFFFF" d="M128.486,13.869c0-1.621,0.596-2.899,1.779-3.843c1.188-0.94,2.809-1.413,4.863-1.413h6.275v2.349h-3.082
			c0.598,0.605,1.01,1.157,1.244,1.654c0.229,0.494,0.346,1.064,0.346,1.701c0,0.794-0.225,1.574-0.676,2.34
			c-0.453,0.768-1.039,1.354-1.75,1.761c-0.713,0.408-1.881,0.733-3.504,0.975c-1.135,0.168-1.703,0.556-1.703,1.173
			c0,0.353,0.213,0.644,0.639,0.868c0.418,0.227,1.191,0.459,2.309,0.703c1.865,0.408,3.062,0.727,3.6,0.959
			c0.537,0.23,1.02,0.562,1.447,0.992c0.732,0.729,1.096,1.641,1.096,2.744c0,1.443-0.645,2.594-1.93,3.457
			c-1.285,0.856-3.004,1.285-5.156,1.285c-2.178,0-3.914-0.431-5.209-1.296c-1.299-0.866-1.947-2.024-1.947-3.481
			c0-2.061,1.273-3.387,3.828-3.985c-1.02-0.647-1.527-1.292-1.527-1.933c0-0.484,0.217-0.926,0.654-1.319
			c0.439-0.399,1.023-0.692,1.766-0.88C129.607,17.689,128.486,16.086,128.486,13.869 M133.439,24.531
			c-1.016,0-1.85,0.217-2.494,0.646c-0.646,0.433-0.967,0.982-0.967,1.654c0,1.564,1.412,2.346,4.24,2.346
			c1.332,0,2.369-0.195,3.102-0.587c0.734-0.388,1.102-0.943,1.102-1.661c0-0.707-0.465-1.281-1.391-1.726
			C136.105,24.758,134.906,24.531,133.439,24.531 M134.15,11.225c-0.818,0-1.512,0.279-2.088,0.828s-0.859,1.212-0.859,1.982
			c0,0.784,0.281,1.432,0.844,1.943c0.566,0.513,1.273,0.769,2.139,0.769c0.85,0,1.555-0.259,2.127-0.786
			c0.566-0.524,0.852-1.175,0.852-1.957c0-0.793-0.289-1.454-0.861-1.984C135.729,11.489,135.012,11.225,134.15,11.225"/>
	</g>
</g>
</svg>
