<?xml version="1.0" encoding="utf-8"?>
<!-- Generator: Adobe Illustrator 16.0.0, SVG Export Plug-In . SVG Version: 6.00 Build 0)  -->
<!DOCTYPE svg PUBLIC "-//W3C//DTD SVG 1.1//EN" "http://www.w3.org/Graphics/SVG/1.1/DTD/svg11.dtd">
<svg version="1.1" id="Layer_1" xmlns="http://www.w3.org/2000/svg" xmlns:xlink="http://www.w3.org/1999/xlink" x="0px" y="0px"
	 width="40px" height="40px" viewBox="0 0 40 40" enable-background="new 0 0 40 40" xml:space="preserve">
<g>
	<path fill="#232323" d="M34.75,12.028c-0.504-1.195-3.31-2.32-7.89-0.393c0,0-13.93,6.26-15.156,6.791s-2.133-0.268-4.6-1.766
		c-1.729-1.051-2.475-0.024-1.502,1.511c0.698,1.102,1.444,2.253,2.479,3.608c1.005,1.314,2.006,2.175,4.416,1.065l7.128-3.182
		c-0.32,2.794-0.848,7.517-0.904,8.795c-0.058,1.259,0.97,1.349,1.524,0.403c0.464-0.79,4.17-9.215,5.329-11.854l6.93-3.094
		C33.869,13.34,35.163,13.006,34.75,12.028z"/>
	<path fill="#232323" d="M10.688,12.133c0.702,0.556,2.212,1.752,3.694,2.929c1.971-0.856,3.935-1.721,5.894-2.595
		c-3.546-0.794-8.079-1.805-8.793-1.933C10.278,10.321,9.591,11.263,10.688,12.133z"/>
</g>
</svg>
