<?xml version="1.0" encoding="utf-8"?>
<!-- Generator: Adobe Illustrator 16.0.0, SVG Export Plug-In . SVG Version: 6.00 Build 0)  -->
<!DOCTYPE svg PUBLIC "-//W3C//DTD SVG 1.1//EN" "http://www.w3.org/Graphics/SVG/1.1/DTD/svg11.dtd">
<svg version="1.1" id="Layer_1" xmlns="http://www.w3.org/2000/svg" xmlns:xlink="http://www.w3.org/1999/xlink" x="0px" y="0px"
	 width="40px" height="40px" viewBox="0 0 40 40" enable-background="new 0 0 40 40" xml:space="preserve">
<path fill="#232323" d="M36.373,16.275c-1.503,0.062-4.254,0.354-7.559,0.721L24.254,12H10.178c-0.553,0-1,0.447-1,1s0.447,1,1,1
	h2.258l-1.209,5.143c-1.451,0.23-2.697,0.446-3.746,0.631c-1.825,0.321-0.955,2.065-2.576,3.61C3.09,25.113,1.922,26,3.443,26
	c1.987,0,27.016,0,27.016,0s5.438-7.046,6.169-7.771C37.65,17.215,37.33,16.236,36.373,16.275z M14.49,14H19v4.128
	c-2,0.231-3.894,0.465-5.434,0.69L14.49,14z M21,17.902V14h2.371l2.986,3.27c-1.654,0.185-3.184,0.378-4.94,0.563
	C21.2,17.855,21,17.88,21,17.902z"/>
</svg>
