<?xml version="1.0" standalone="no"?>
<!DOCTYPE svg PUBLIC "-//W3C//DTD SVG 1.1//EN" "http://www.w3.org/Graphics/SVG/1.1/DTD/svg11.dtd" >
<svg xmlns="http://www.w3.org/2000/svg" xmlns:xlink="http://www.w3.org/1999/xlink" version="1.1">
<metadata></metadata>
<defs>
<font id="soin_sans_prolight_oblique" horiz-adv-x="590" >
<font-face units-per-em="1000" ascent="750" descent="-250" />
<missing-glyph horiz-adv-x="240" />
<glyph unicode="fi" horiz-adv-x="491" d="M370 0l52 365h-230l-52 -365h-41l52 365h-79l5 35h79l11 77q12 85 63.5 133t136.5 48q48 0 66 -5l-6 -37q-18 5 -62 5q-137 0 -157 -144l-11 -77h271l-57 -400h-41z" />
<glyph unicode="fl" horiz-adv-x="487" d="M208 477l-11 -77h128l-5 -35h-128l-52 -365h-41l52 365h-79l5 35h79l11 77q12 86 65.5 133.5t146.5 47.5q70 0 121 -14l-91 -644h-41l87 615q-42 6 -80 6q-78 0 -117.5 -36t-49.5 -108z" />
<glyph unicode="ffj" horiz-adv-x="756" d="M482 477l-11 -77h271l-70 -497q-23 -163 -158 -163q-16 0 -37 3l6 37q11 -2 30 -2q100 0 118 125l65 462h-230l-52 -365h-41l52 365h-233l-52 -365h-41l52 365h-79l5 35h78l13 85q26 172 184 172q26 0 41 -4l-6 -37q-15 4 -36 4q-65 0 -98 -32.5t-44 -102.5l-13 -85h234 l11 77q12 85 63.5 133t136.5 48q48 0 66 -5l-6 -37q-18 5 -62 5q-137 0 -157 -144z" />
<glyph unicode="ffb" horiz-adv-x="1081" d="M482 477l-11 -77h128l-5 -35h-128l-52 -365h-41l52 365h-233l-52 -365h-41l52 365h-79l5 35h78l13 85q26 172 184 172q26 0 41 -4l-6 -37q-15 4 -36 4q-65 0 -98 -32.5t-44 -102.5l-13 -85h234l11 77q12 86 64.5 133.5t145.5 47.5q70 0 121 -14l-45 -314q67 80 170 80 q78 0 123.5 -50t45.5 -128q0 -102 -64.5 -171.5t-164.5 -69.5q-51 0 -90 21.5t-55 60.5l-13 -73h-39l87 615q-42 6 -80 6q-78 0 -116.5 -36t-48.5 -108zM843 28q80 0 130.5 58.5t50.5 139.5q0 62 -36 104.5t-97 42.5q-84 0 -135 -56.5t-51 -139.5q0 -65 36.5 -107t101.5 -42 z" />
<glyph unicode="ffh" horiz-adv-x="1066" d="M482 477l-11 -77h128l-5 -35h-128l-52 -365h-41l52 365h-233l-52 -365h-41l52 365h-79l5 35h78l13 85q26 172 184 172q26 0 41 -4l-6 -37q-15 4 -36 4q-65 0 -98 -32.5t-44 -102.5l-13 -85h234l11 77q12 86 64.5 133.5t145.5 47.5q70 0 121 -14l-42 -299q72 65 164 65 q74 0 110.5 -46.5t25.5 -126.5l-33 -237h-42l34 237q9 64 -18.5 100t-86.5 36q-89 0 -160 -73l-43 -300h-41l87 615q-42 6 -80 6q-78 0 -116.5 -36t-48.5 -108z" />
<glyph unicode="ffk" horiz-adv-x="990" d="M430 400l11 77q12 86 64.5 133.5t145.5 47.5q70 0 121 -14l-59 -420l242 176h62l-212 -154l175 -246h-54l-156 223l-64 -46l-25 -177h-41l87 615q-42 6 -80 6q-78 0 -116.5 -36t-48.5 -108l-11 -77h128l-5 -35h-128l-52 -365h-41l52 365h-233l-52 -365h-41l52 365h-79 l5 35h78l13 85q26 172 184 172q26 0 41 -4l-6 -37q-15 4 -36 4q-65 0 -98 -32.5t-44 -102.5l-13 -85h234z" />
<glyph unicode="fj" horiz-adv-x="491" d="M208 477l-11 -77h271l-70 -497q-23 -163 -158 -163q-16 0 -37 3l6 37q11 -2 30 -2q100 0 118 125l65 462h-230l-52 -365h-41l52 365h-79l5 35h79l11 77q12 85 63.5 133t136.5 48q48 0 66 -5l-6 -37q-18 5 -62 5q-137 0 -157 -144z" />
<glyph unicode="ft" horiz-adv-x="580" d="M192 365l-52 -365h-41l52 365h-79l5 35h78l13 85q26 172 174 172q26 0 41 -4l-6 -37q-15 4 -36 4q-61 0 -91 -32t-41 -103l-13 -85h232l30 142h31l-20 -142h132l-5 -35h-132l-35 -249q-7 -52 9.5 -70.5t56.5 -18.5q34 0 62 7l-5 -34q-26 -9 -62 -9q-57 0 -84.5 28.5 t-17.5 96.5l35 249h-231z" />
<glyph unicode="tt" horiz-adv-x="596" d="M64 365l5 35h89l30 142h31l-20 -142h245l30 142h31l-20 -142h132l-5 -35h-132l-35 -249q-7 -52 9.5 -70.5t56.5 -18.5q34 0 62 7l-5 -34q-26 -9 -62 -9q-57 0 -84.5 28.5t-17.5 96.5l35 249h-245l-35 -249q-7 -52 9.5 -70.5t56.5 -18.5q34 0 62 7l-5 -34q-26 -9 -62 -9 q-57 0 -84.5 28.5t-17.5 96.5l35 249h-89z" />
<glyph unicode="fb" horiz-adv-x="807" d="M156 400l11 77q12 86 64.5 133.5t145.5 47.5q70 0 121 -14l-45 -314q67 80 170 80q78 0 123.5 -50t45.5 -128q0 -102 -64.5 -171.5t-164.5 -69.5q-51 0 -90 21.5t-55 60.5l-13 -73h-39l87 615q-42 6 -80 6q-78 0 -116.5 -36t-48.5 -108l-11 -77h128l-5 -35h-128l-52 -365 h-41l52 365h-79l5 35h79zM569 28q80 0 130.5 58.5t50.5 139.5q0 62 -36 104.5t-97 42.5q-83 0 -134.5 -56.5t-51.5 -139.5q0 -65 36.5 -107t101.5 -42z" />
<glyph unicode="fh" horiz-adv-x="792" d="M498 644l-42 -299q72 65 164 65q74 0 110.5 -46.5t25.5 -126.5l-33 -237h-42l34 237q9 64 -18.5 100t-86.5 36q-89 0 -160 -73l-43 -300h-41l87 615q-42 6 -80 6q-78 0 -116.5 -36t-48.5 -108l-11 -77h128l-5 -35h-128l-52 -365h-41l52 365h-79l5 35h79l11 77 q12 86 64.5 133.5t145.5 47.5q70 0 121 -14z" />
<glyph unicode="fk" horiz-adv-x="716" d="M498 644l-59 -420l242 176h62l-212 -154l175 -246h-54l-156 223l-64 -46l-25 -177h-41l87 615q-42 6 -80 6q-78 0 -116.5 -36t-48.5 -108l-11 -77h128l-5 -35h-128l-52 -365h-41l52 365h-79l5 35h79l11 77q12 86 64.5 133.5t145.5 47.5q70 0 121 -14z" />
<glyph unicode="&#xd;" horiz-adv-x="229" />
<glyph unicode=" "  horiz-adv-x="240" />
<glyph unicode="&#x09;" horiz-adv-x="240" />
<glyph unicode="&#xa0;" horiz-adv-x="240" />
<glyph unicode="!" horiz-adv-x="270" d="M254 700l-73 -520h-41l73 520h41zM99 25q0 17 14 30t31 13q15 0 24.5 -10t9.5 -25q0 -17 -14 -30t-31 -13q-14 0 -24 10t-10 25z" />
<glyph unicode="&#x22;" horiz-adv-x="264" d="M147 700h48l-44 -240h-30zM267 700h48l-44 -240h-30z" />
<glyph unicode="#" d="M143 438l5 39h99l62 223h43l-62 -223h174l62 223h43l-62 -223h87l-5 -39h-92l-44 -165h92l-5 -39h-97l-63 -234h-43l63 234h-174l-63 -234h-43l63 234h-89l5 39h94l44 165h-94zM280 438l-44 -165h174l44 165h-174z" />
<glyph unicode="$" d="M429 800l-13 -91q74 -6 123 -48t52 -103h-42q-4 45 -42 75.5t-97 35.5l-41 -295q88 -35 130.5 -73t42.5 -102q0 -89 -67.5 -144.5t-159.5 -62.5l-13 -92h-41l13 92q-87 4 -141 45.5t-56 105.5h42q3 -48 45 -78t115 -34l45 312q-45 16 -72.5 29.5t-54 33.5t-38.5 46.5 t-12 61.5q0 73 61 131t167 64l13 91h41zM499 192q0 48 -34.5 78.5t-102.5 57.5l-42 -296q73 8 126 50.5t53 109.5zM190 521q0 -51 34.5 -79.5t105.5 -53.5l39 281q-81 -6 -130 -50.5t-49 -97.5z" />
<glyph unicode="%" horiz-adv-x="720" d="M677 691l-503 -703l-33 21l503 702zM404 147q11 69 57 113.5t113 44.5t102 -45t24 -113q-9 -69 -56 -113.5t-114 -44.5t-101 44.5t-25 113.5zM661 147q8 54 -16.5 87.5t-75.5 33.5t-84.5 -33.5t-41.5 -87.5t16.5 -87.5t75.5 -33.5t84.5 33.5t41.5 87.5zM115 530 q0 76 49.5 128.5t123.5 52.5q60 0 94 -37.5t34 -97.5q0 -76 -48.5 -128.5t-123.5 -52.5q-60 0 -94.5 37.5t-34.5 97.5zM376 573q0 46 -24 73.5t-69 27.5q-58 0 -93 -40t-35 -101q0 -46 24 -73.5t69 -27.5q58 0 93 40t35 101z" />
<glyph unicode="&#x26;" horiz-adv-x="638" d="M83 155q0 39 14 72.5t41.5 60.5t54.5 46.5t67 42.5l-12 15q-68 84 -68 153q0 59 50.5 112t138.5 53q68 0 103.5 -37.5t35.5 -93.5q0 -26 -6 -48t-22.5 -42.5t-28 -33t-41 -31.5t-41 -25.5t-47.5 -27.5l180 -230q50 70 66 176l12 83h42l-12 -83q-17 -123 -83 -208l87 -109 h-56l-60 76q-87 -85 -218 -85q-89 0 -143 47.5t-54 116.5zM286 29q112 0 187 77l-191 243q-75 -42 -116 -85t-41 -104q0 -55 47 -93t114 -38zM278 427l21 -28q94 53 122 79q45 42 45 95q0 41 -26 70t-77 29q-64 0 -102.5 -38.5t-38.5 -83.5q0 -23 10 -47.5t18.5 -37.5 t27.5 -38z" />
<glyph unicode="'" horiz-adv-x="144" d="M147 700h48l-44 -240h-30z" />
<glyph unicode="(" horiz-adv-x="276" d="M122 220q39 278 192 505l32 -20q-74 -117 -118 -225.5t-65 -259.5q-12 -79 -13.5 -147t7 -127.5t20.5 -106t32 -104.5l-38 -20q-89 227 -49 505z" />
<glyph unicode=")" horiz-adv-x="276" d="M217 220q-39 -278 -192 -505l-32 20q74 116 117.5 225t65.5 260q11 79 12.5 147t-6.5 127.5t-20 106t-32 104.5l38 20q89 -227 49 -505z" />
<glyph unicode="*" horiz-adv-x="406" d="M267 559l15 141h38l-25 -141l140 48l7 -36l-140 -41l70 -111l-34 -22l-63 116l-97 -116l-26 22l102 111l-130 41l18 36z" />
<glyph unicode="+" d="M348 510h37l-28 -206h206l-5 -37h-206l-30 -207h-37l30 207h-207l5 37h207z" />
<glyph unicode="," horiz-adv-x="218" d="M117 72l42 -14l-102 -222l-28 11z" />
<glyph unicode="-" horiz-adv-x="382" d="M91 292l5 37h282l-5 -37h-282z" />
<glyph unicode="." horiz-adv-x="218" d="M73 25q0 17 14 30t31 13q15 0 24.5 -10t9.5 -25q0 -17 -14 -30t-31 -13q-14 0 -24 10t-10 25z" />
<glyph unicode="/" horiz-adv-x="565" d="M677 799l-658 -919l-33 21l658 918z" />
<glyph unicode="0" horiz-adv-x="614" d="M306 -9q-95 0 -151 78.5t-56 211.5q0 186 89 307t219 121q95 0 151 -78.5t56 -210.5q0 -187 -89 -308t-219 -121zM312 32q106 0 181.5 107.5t75.5 275.5q0 116 -45.5 184.5t-121.5 68.5q-107 0 -183.5 -108.5t-76.5 -275.5q0 -116 46.5 -184t123.5 -68z" />
<glyph unicode="1" horiz-adv-x="346" d="M203 0l93 656l-182 -103l-15 34l250 141l-103 -728h-43z" />
<glyph unicode="2" horiz-adv-x="547" d="M145 41h357l-5 -41h-453l302 287q84 80 112 119q48 66 48 123q0 60 -37.5 99.5t-103.5 39.5q-78 0 -129.5 -46t-56.5 -120h-43q3 86 73 146.5t161 60.5q83 0 131 -49.5t48 -127.5q0 -39 -13 -75t-43.5 -74t-48.5 -57t-59 -58z" />
<glyph unicode="3" horiz-adv-x="540" d="M305 344l5 41q82 2 134.5 45t52.5 118q0 52 -36.5 86t-99.5 34q-69 0 -117 -36t-60 -96h-43q17 80 77.5 126.5t149.5 46.5q80 0 127 -44t47 -114q0 -134 -147 -185q47 -12 80.5 -50t33.5 -102q0 -93 -69 -158t-180 -65q-90 0 -149.5 51t-47.5 130h43q-4 -61 40.5 -100.5 t117.5 -39.5q86 0 143 53t57 125q0 64 -44 97t-115 37z" />
<glyph unicode="4" horiz-adv-x="552" d="M458 180h93l-5 -41h-93l-20 -139h-43l20 139h-370l498 608zM415 180l63 437l-354 -437h291z" />
<glyph unicode="5" horiz-adv-x="547" d="M535 256q0 -114 -75.5 -189.5t-190.5 -75.5q-91 0 -152.5 51t-49.5 130h43q-4 -61 43 -100.5t120 -39.5q96 0 156.5 61t60.5 156q0 70 -41.5 114t-126.5 44h-190l55 293h344l-7 -41h-304l-39 -211h147q103 0 155 -52.5t52 -139.5z" />
<glyph unicode="6" horiz-adv-x="562" d="M576 572h-43q-4 44 -40 70t-84 26q-50 0 -91.5 -21.5t-69.5 -56t-49.5 -81t-33.5 -91.5t-18 -93q31 63 93 104.5t133 41.5q85 0 135 -58t50 -147q0 -113 -72.5 -194t-183.5 -81q-94 0 -149.5 66.5t-55.5 206.5q0 52 8.5 107.5t31.5 117t57 109.5t91 79.5t128 31.5 q68 0 113.5 -38t49.5 -99zM308 32q92 0 148.5 66t56.5 164q0 73 -39.5 120.5t-105.5 47.5q-89 0 -153 -66.5t-64 -162.5q0 -74 42.5 -121.5t114.5 -47.5z" />
<glyph unicode="7" horiz-adv-x="504" d="M496 659h-377l6 41h448l-454 -700h-48z" />
<glyph unicode="8" horiz-adv-x="558" d="M284 32q86 0 143.5 50.5t57.5 122.5q0 59 -43 98.5t-115 39.5q-85 0 -143 -51t-58 -123q0 -59 43.5 -98t114.5 -39zM379 709q85 0 134.5 -45t49.5 -117q0 -65 -38.5 -111.5t-104.5 -70.5q110 -50 110 -159q0 -92 -73 -153.5t-179 -61.5q-89 0 -143.5 47t-54.5 122 q0 69 42.5 121.5t119.5 83.5q-46 18 -72.5 54.5t-26.5 84.5q0 87 66.5 146t169.5 59zM334 384q78 0 131 46t53 111q0 55 -39 91t-105 36q-79 0 -132 -46.5t-53 -112.5q0 -54 39 -89.5t106 -35.5z" />
<glyph unicode="9" horiz-adv-x="562" d="M85 128h43q4 -43 45 -69.5t90 -26.5q50 0 90 20t66.5 51.5t47 78t31.5 92.5t19 101q-32 -63 -95 -104.5t-134 -41.5q-85 0 -135 58t-50 147q0 113 72 194t184 81q205 0 205 -269q0 -201 -79.5 -325t-227.5 -124q-69 0 -119 38.5t-53 98.5zM354 668q-92 0 -149 -66 t-57 -164q0 -73 39.5 -120.5t105.5 -47.5q90 0 153.5 67t63.5 165q0 75 -40 120.5t-116 45.5z" />
<glyph unicode=":" horiz-adv-x="218" d="M74 25q0 17 14 30t31 13q15 0 24.5 -10t9.5 -25q0 -17 -14 -30t-31 -13q-14 0 -24 10t-10 25zM122 367q0 17 14 30t31 13q15 0 24.5 -10t9.5 -25q0 -17 -14 -30t-30 -13q-15 0 -25 10t-10 25z" />
<glyph unicode=";" horiz-adv-x="218" d="M123 367q0 17 13.5 30t30.5 13q14 0 24 -10.5t10 -24.5q0 -17 -13.5 -30t-30.5 -13q-15 0 -24.5 10t-9.5 25zM117 72l42 -14l-102 -222l-28 11z" />
<glyph unicode="&#x3c;" d="M113 303l479 213l-5 -42l-431 -189l378 -189l-7 -42l-419 213z" />
<glyph unicode="=" d="M125 389h450l-5 -37h-450zM101 219h450l-5 -37h-450z" />
<glyph unicode="&#x3e;" d="M143 516l420 -213l-5 -36l-480 -213l6 42l431 189l-377 189z" />
<glyph unicode="?" horiz-adv-x="512" d="M302 140h-43l20 144q37 23 55.5 35.5t53.5 39.5t53 49.5t33 55t15 65.5q0 61 -40 100t-112 39q-85 0 -137.5 -45.5t-58.5 -120.5h-43q4 87 75.5 147t169.5 60q90 0 139.5 -49.5t49.5 -127.5q0 -38 -14 -73.5t-32.5 -60.5t-52 -53t-55 -42.5t-59.5 -38.5zM225 25 q0 17 14 30t31 13q14 0 23.5 -10t9.5 -25q0 -17 -13.5 -30t-30.5 -13q-14 0 -24 10.5t-10 24.5z" />
<glyph unicode="@" horiz-adv-x="1038" d="M1014 347q0 -137 -63 -231.5t-155 -94.5q-40 0 -69.5 23.5t-42.5 47.5q-28 -39 -75.5 -62.5t-97.5 -23.5q-80 0 -125 50t-45 130q0 101 65 170t163 69q102 0 147 -80l13 70h38l-44 -310q43 -50 84 -50q69 0 120.5 84.5t51.5 201.5q0 148 -92 241.5t-255 93.5 q-215 0 -356 -145.5t-141 -369.5q0 -172 99.5 -284.5t262.5 -112.5q193 0 345 82l9 -31q-167 -85 -360 -85q-178 0 -287 117.5t-109 306.5q0 157 70.5 284.5t195 199.5t277.5 72q176 0 276 -101.5t100 -261.5zM515 43q83 0 135 58.5t52 141.5q0 64 -36.5 104.5t-102.5 40.5 q-76 0 -128.5 -58t-52.5 -138q0 -65 35.5 -107t97.5 -42z" />
<glyph unicode="A" horiz-adv-x="687" d="M618 0l-65 219h-358l-126 -219h-45l422 730l217 -730h-45zM432 631l-214 -371h322z" />
<glyph unicode="B" horiz-adv-x="632" d="M184 360l-45 -321h201q102 0 166 42.5t64 141.5q0 137 -207 137h-179zM334 0h-244l99 700h229q90 0 144 -34.5t54 -108.5q0 -63 -40 -111t-103 -62q63 -9 101.5 -50.5t38.5 -107.5q0 -110 -77.5 -168t-201.5 -58zM227 661l-38 -262h168q41 0 76.5 7t68.5 23t52.5 47 t19.5 74q0 111 -161 111h-186z" />
<glyph unicode="C" horiz-adv-x="800" d="M104 350q22 150 141.5 255t271.5 105q120 0 200 -62.5t104 -165.5h-47q-21 80 -89.5 133t-171.5 53q-135 0 -240 -92t-125 -226q-18 -134 61 -226t214 -92q105 0 191.5 55.5t126.5 138.5h47q-49 -107 -149.5 -171.5t-222.5 -64.5q-152 0 -242 105t-70 255z" />
<glyph unicode="D" horiz-adv-x="732" d="M90 0l99 700h234q139 0 221 -85t82 -218q0 -168 -111 -282.5t-283 -114.5h-242zM338 41q154 1 249.5 101t95.5 252q0 117 -72 191t-194 74h-191l-87 -618h199z" />
<glyph unicode="E" horiz-adv-x="597" d="M628 659h-402l-37 -259h374l-5 -41h-374l-45 -318h402l-6 -41h-445l99 700h445z" />
<glyph unicode="F" horiz-adv-x="565" d="M628 659h-402l-37 -259h374l-5 -41h-374l-51 -359h-43l99 700h445z" />
<glyph unicode="G" horiz-adv-x="827" d="M772 322h-301l6 41h346l-2 -13q-25 -163 -138.5 -261t-270.5 -98q-134 0 -222 91.5t-88 225.5q0 107 57.5 200t153.5 147.5t205 54.5q120 0 199 -62.5t104 -165.5h-47q-22 80 -90 133t-171 53q-148 0 -257.5 -105t-109.5 -252q0 -119 77 -198.5t196 -79.5q131 0 232 83.5 t121 205.5z" />
<glyph unicode="H" horiz-adv-x="723" d="M732 700l-99 -700h-43l51 359h-457l-51 -359h-43l99 700h43l-43 -300h457l43 300h43z" />
<glyph unicode="I" horiz-adv-x="251" d="M246 700l-99 -700h-43l99 700h43z" />
<glyph unicode="J" horiz-adv-x="503" d="M401 189l72 511h43l-72 -511q-12 -87 -79 -142.5t-160 -55.5q-77 0 -129 42.5t-55 109.5h42q4 -50 44 -82t103 -32q77 0 129 44t62 116z" />
<glyph unicode="K" horiz-adv-x="598" d="M523 0l-267 379l-78 -62l-45 -317h-43l99 700h43l-46 -328l422 328h62l-379 -295l287 -405h-55z" />
<glyph unicode="L" horiz-adv-x="535" d="M189 700h43l-93 -659h382l-6 -41h-425z" />
<glyph unicode="M" horiz-adv-x="856" d="M232 733l206 -662l392 662l-28 -733h-43l25 578l-360 -601l-188 601l-139 -578h-43z" />
<glyph unicode="N" horiz-adv-x="746" d="M755 700l-103 -731l-433 635l-86 -604h-43l101 716l435 -630l86 614h43z" />
<glyph unicode="O" horiz-adv-x="831" d="M102 308q0 107 58 200.5t153 147.5t202 54q135 0 224 -92t89 -226q0 -107 -58 -200t-153.5 -147t-202.5 -54q-135 0 -223.5 91.5t-88.5 225.5zM146 312q0 -120 77.5 -199.5t196.5 -79.5q145 0 254.5 104.5t109.5 250.5q0 120 -77.5 200t-196.5 80q-145 0 -254.5 -105 t-109.5 -251z" />
<glyph unicode="P" horiz-adv-x="621" d="M175 298l-42 -298h-43l99 700h248q91 0 148 -43t57 -131q0 -113 -73.5 -170.5t-186.5 -57.5h-207zM181 339h207q90 0 150.5 44.5t60.5 137.5q0 69 -46.5 103.5t-121.5 34.5h-205z" />
<glyph unicode="Q" horiz-adv-x="831" d="M801 41l-6 -41h-380q-135 0 -224 90.5t-89 223.5q0 159 125 277.5t288 118.5q135 0 224.5 -91.5t89.5 -223.5q0 -117 -78.5 -220.5t-190.5 -141.5zM147 317q0 -118 78 -196.5t197 -78.5q144 0 253 102.5t109 246.5q0 118 -77.5 197.5t-196.5 79.5q-145 0 -254 -103.5 t-109 -247.5z" />
<glyph unicode="R" horiz-adv-x="628" d="M178 314l-45 -314h-43l99 700h246q93 0 149.5 -40t56.5 -126q0 -54 -21 -97.5t-55 -69.5t-73.5 -39.5t-78.5 -13.5l173 -314h-50l-173 314h-185zM183 355h205q59 0 103.5 14.5t75 55t30.5 103.5q0 68 -45.5 99.5t-122.5 31.5h-203z" />
<glyph unicode="S" horiz-adv-x="537" d="M276 31q78 0 138.5 43.5t60.5 117.5q0 56 -44 88t-138 65q-88 33 -129 68.5t-41 100.5q0 77 63.5 136.5t177.5 59.5q83 0 137 -42.5t57 -109.5h-42q-4 50 -47 81t-111 31q-88 0 -140 -46.5t-52 -102.5q0 -53 37 -82t115 -55q103 -38 151.5 -77.5t48.5 -107.5 q0 -95 -74.5 -151.5t-172.5 -56.5q-93 0 -150 42t-60 110h42q4 -51 49 -81.5t124 -30.5z" />
<glyph unicode="T" horiz-adv-x="551" d="M623 700l-5 -41h-228l-93 -659h-43l93 659h-228l5 41h499z" />
<glyph unicode="U" horiz-adv-x="704" d="M357 32q117 0 180 69.5t79 186.5l58 412h43l-58 -412q-19 -133 -97.5 -215t-210.5 -82t-187.5 82t-36.5 215l58 412h43l-58 -412q-16 -118 27 -187t160 -69z" />
<glyph unicode="V" horiz-adv-x="625" d="M156 700l174 -625l351 625h43l-408 -727l-203 727h43z" />
<glyph unicode="W" horiz-adv-x="1007" d="M746 94l282 606h44l-340 -725l-144 625l-319 -625l-136 725h44l112 -606l317 629z" />
<glyph unicode="X" horiz-adv-x="631" d="M194 700l178 -298l263 298h48l-292 -331l222 -369h-48l-203 337l-296 -337h-48l325 369l-197 331h48z" />
<glyph unicode="Y" horiz-adv-x="568" d="M349 302l-43 -302h-43l43 302l-191 398h46l171 -358l273 358h46z" />
<glyph unicode="Z" horiz-adv-x="606" d="M552 0h-518l548 661h-415l6 39h492l-549 -661h441z" />
<glyph unicode="[" horiz-adv-x="284" d="M198 700h164l-5 -39h-123l-123 -872h123l-5 -39h-164z" />
<glyph unicode="\" horiz-adv-x="565" d="M512 -120l-399 919l39 20l400 -918z" />
<glyph unicode="]" horiz-adv-x="284" d="M118 700h164l-133 -950h-164l5 39h123l123 872h-123z" />
<glyph unicode="^" horiz-adv-x="556" d="M398 700l162 -383h-49l-141 338l-237 -338h-49l270 383h44z" />
<glyph unicode="_" horiz-adv-x="426" d="M16 -99l5 39h366l-5 -39h-366z" />
<glyph unicode="`" horiz-adv-x="300" d="M156 611l38 43l121 -118l-24 -21z" />
<glyph unicode="a" horiz-adv-x="456" d="M148 303h-40q18 49 66 78t108 29q75 0 113 -38t29 -103l-38 -269h-37l7 68q-56 -73 -157 -73q-64 0 -102.5 29.5t-38.5 81.5q0 145 213 145h110l3 18q8 50 -20 77.5t-87 27.5q-47 0 -81 -19t-48 -52zM205 31q60 0 107 34.5t56 94.5l8 55h-111q-88 0 -127 -25t-39 -79 q0 -38 28.5 -59t77.5 -21z" />
<glyph unicode="b" horiz-adv-x="517" d="M279 28q79 0 130.5 58.5t51.5 139.5q0 62 -36.5 104.5t-96.5 42.5q-84 0 -135 -56.5t-51 -139.5q0 -65 36 -107t101 -42zM128 73l-13 -73h-39l92 653h41l-45 -323q67 80 169 80q78 0 124 -50t46 -128q0 -102 -64.5 -171.5t-164.5 -69.5q-51 0 -90.5 22t-55.5 60z" />
<glyph unicode="c" horiz-adv-x="481" d="M303 373q-79 0 -135 -57t-56 -139q0 -66 39.5 -107.5t103.5 -41.5q56 0 97.5 23.5t61.5 62.5h41q-25 -57 -80.5 -90t-124.5 -33q-79 0 -129 53t-50 131q0 96 70 165.5t167 69.5q68 0 113.5 -34t54.5 -89h-41q-10 38 -43.5 62t-88.5 24z" />
<glyph unicode="d" horiz-adv-x="517" d="M245 28q83 0 135 58.5t52 141.5q0 64 -36.5 104.5t-101.5 40.5q-76 0 -128.5 -58t-52.5 -138q0 -65 35 -107t97 -42zM402 0l7 73q-27 -39 -72 -60.5t-96 -21.5q-80 0 -125 50t-45 130q0 101 65 170t163 69q51 0 89 -21.5t58 -58.5l45 323h41l-91 -653h-39z" />
<glyph unicode="e" horiz-adv-x="485" d="M461 184h-350q-5 -70 34 -113.5t111 -43.5q55 0 94 24.5t56 62.5h40q-19 -54 -73 -88.5t-122 -34.5q-83 0 -131.5 51.5t-48.5 129.5q0 98 69 168t166 70q76 0 120.5 -50t44.5 -121q0 -32 -10 -55zM301 374q-67 0 -117.5 -43t-65.5 -111h312q8 61 -26.5 107.5t-102.5 46.5 z" />
<glyph unicode="f" horiz-adv-x="290" d="M72 365l5 35h78l13 85q26 172 184 172q26 0 41 -4l-6 -37q-15 4 -36 4q-65 0 -98 -32.5t-44 -102.5l-13 -85h129l-5 -35h-128l-52 -365h-41l52 365h-79z" />
<glyph unicode="g" horiz-adv-x="461" d="M97 222q0 75 59 131.5t136 56.5h192l-4 -30l-92 -4q53 -38 53 -116q0 -75 -59 -131t-137 -56q-61 0 -107 41q-58 -16 -58 -63q0 -51 79 -51h93q83 0 126 -33.5t43 -94.5q0 -79 -60 -129.5t-163 -50.5q-88 0 -134 40.5t-46 100.5q0 46 25.5 83.5t58.5 55.5q-63 18 -63 74 q0 70 81 97q-23 23 -23 79zM248 -35h-102q-36 -16 -61.5 -50.5t-25.5 -77.5q0 -48 37 -78.5t107 -30.5q87 0 133 39t46 103q0 95 -134 95zM137 224q0 -50 32 -82.5t81 -32.5q60 0 105.5 43t45.5 105q0 50 -32.5 83.5t-81.5 33.5q-60 0 -105 -44t-45 -106z" />
<glyph unicode="h" horiz-adv-x="502" d="M76 0l92 653h41l-43 -308q74 65 164 65q74 0 110 -46.5t25 -126.5l-33 -237h-41l34 237q9 64 -18 100t-86 36q-88 0 -161 -73l-43 -300h-41z" />
<glyph unicode="i" horiz-adv-x="201" d="M80 0l56 400h41l-56 -400h-41zM145 544q0 14 10.5 25t25.5 11q12 0 20 -8t8 -20q0 -15 -10.5 -25t-25.5 -10q-13 0 -20.5 7.5t-7.5 19.5z" />
<glyph unicode="j" horiz-adv-x="201" d="M177 400l-70 -497q-13 -90 -61.5 -131t-131.5 -29l5 37q128 -19 147 123l70 497h41zM146 544q0 14 10.5 25t25.5 11q12 0 20 -8t8 -20q0 -15 -11 -25t-26 -10q-12 0 -19.5 7.5t-7.5 19.5z" />
<glyph unicode="k" horiz-adv-x="426" d="M362 0l-156 223l-64 -46l-25 -177h-41l92 653h41l-61 -429l242 176h62l-211 -154l175 -246h-54z" />
<glyph unicode="l" horiz-adv-x="197" d="M211 653l-92 -653h-41l92 653h41z" />
<glyph unicode="m" horiz-adv-x="761" d="M440 297q2 -31 -2 -55l-34 -242h-41l34 242q8 60 -15.5 95.5t-74.5 35.5q-76 0 -151 -71l-43 -302h-41l56 400h37l-3 -55q72 65 153 65q89 0 116 -76q81 76 171 76q67 0 100.5 -46t22.5 -122l-34 -242h-41l34 242q8 60 -15.5 95.5t-74.5 35.5q-80 0 -154 -76z" />
<glyph unicode="n" horiz-adv-x="498" d="M72 0l56 400h37l-4 -57q79 67 165 67q74 0 110 -46.5t25 -126.5l-33 -237h-41l34 237q9 64 -18.5 100t-86.5 36q-88 0 -161 -75l-42 -298h-41z" />
<glyph unicode="o" horiz-adv-x="499" d="M69 175q0 95 71 165t166 70q78 0 128.5 -53.5t50.5 -131.5q0 -95 -71 -164.5t-166 -69.5q-78 0 -128.5 53t-50.5 131zM111 177q0 -66 39 -107.5t102 -41.5q78 0 135 56.5t57 138.5q0 65 -40 107.5t-103 42.5q-78 0 -134 -57t-56 -139z" />
<glyph unicode="p" horiz-adv-x="513" d="M274 28q80 0 131 58.5t51 139.5q0 62 -36 104.5t-97 42.5q-84 0 -135.5 -56.5t-51.5 -139.5q0 -65 36.5 -107t101.5 -42zM123 73l-46 -323h-41l92 650h38l-7 -70q65 80 170 80q78 0 123 -50t45 -128q0 -102 -64.5 -171.5t-164.5 -69.5q-51 0 -90 21.5t-55 60.5z" />
<glyph unicode="q" horiz-adv-x="513" d="M245 28q83 0 135 58.5t52 141.5q0 64 -36.5 104.5t-101.5 40.5q-76 0 -128.5 -58t-52.5 -138q0 -65 35 -107t97 -42zM364 -250l45 323q-27 -39 -72 -60.5t-96 -21.5q-80 0 -125 50t-45 130q0 101 65 170t163 69q51 0 89 -21.5t58 -58.5l13 70h38l-92 -650h-41z" />
<glyph unicode="r" horiz-adv-x="304" d="M72 0l56 400h37l-4 -57q86 72 185 57l-5 -37q-43 6 -81.5 -4.5t-59 -24.5t-45.5 -36l-42 -298h-41z" />
<glyph unicode="s" horiz-adv-x="379" d="M193 27q50 0 83.5 21t33.5 62q0 32 -27 49.5t-80 30.5q-109 26 -109 100q0 49 41.5 84.5t110.5 35.5q56 0 89.5 -28.5t35.5 -66.5h-42q-2 23 -23 41t-65 18q-49 0 -77.5 -22t-28.5 -57q0 -29 22.5 -44t68.5 -27q60 -15 92.5 -39t32.5 -69q0 -60 -48 -92.5t-116 -32.5 q-60 0 -97.5 27t-39.5 67h41q3 -23 28.5 -40.5t73.5 -17.5z" />
<glyph unicode="t" horiz-adv-x="310" d="M64 365l5 35h89l30 142h31l-20 -142h132l-5 -35h-132l-35 -249q-7 -52 9.5 -70.5t56.5 -18.5q34 0 62 7l-5 -34q-26 -9 -62 -9q-57 0 -84.5 28.5t-17.5 96.5l35 249h-89z" />
<glyph unicode="u" horiz-adv-x="488" d="M377 0l8 68q-69 -78 -169 -78q-68 0 -102 42t-23 121l35 247h41l-35 -247q-9 -63 15 -94.5t75 -31.5q53 0 97 26t72 62l40 285h41l-56 -400h-39z" />
<glyph unicode="v" horiz-adv-x="424" d="M208 -20l-140 420h42l111 -337l205 337h42z" />
<glyph unicode="w" horiz-adv-x="586" d="M351 414l77 -329l156 315h38l-206 -420l-79 330l-175 -330l-86 420h38l66 -315z" />
<glyph unicode="x" horiz-adv-x="428" d="M240 180l-171 -180h-49l198 210l-125 190h49l106 -159l150 159h49l-180 -190l141 -210h-49z" />
<glyph unicode="y" horiz-adv-x="432" d="M476 400l-401 -650h-40l167 272l-132 378h41l116 -338l207 338h42z" />
<glyph unicode="z" horiz-adv-x="381" d="M99 366l4 34h314l-325 -366h264l-4 -34h-334l324 366h-243z" />
<glyph unicode="{" horiz-adv-x="298" d="M79 203l5 40q46 21 70.5 51t32.5 87l29 209q22 161 168 164l-5 -39q-52 0 -82.5 -30.5t-40.5 -102.5l-28 -194q-10 -69 -34.5 -103t-71.5 -62q39 -28 54.5 -62t5.5 -103l-27 -194q-10 -72 11.5 -102.5t73.5 -30.5l-5 -39q-144 3 -122 164l29 209q8 57 -8 87t-55 51z" />
<glyph unicode="|" horiz-adv-x="241" d="M253 800l-141 -1000h-41l141 1000h41z" />
<glyph unicode="}" horiz-adv-x="298" d="M282 243l-5 -40q-46 -21 -70.5 -51t-32.5 -87l-29 -209q-22 -161 -168 -164l5 39q52 0 82.5 30.5t40.5 102.5l27 194q7 48 23.5 81t34 49t48.5 35q-19 14 -29.5 25t-22 31.5t-11.5 44.5t3 64l28 194q10 72 -11.5 102.5t-73.5 30.5l5 39q144 -3 122 -164l-29 -209 q-8 -57 7.5 -87t55.5 -51z" />
<glyph unicode="~" d="M256 291q32 0 84 -27t74 -27q54 0 89 62l41 -21q-55 -85 -136 -85q-32 0 -82 28.5t-77 28.5q-57 0 -96 -58l-39 19q63 80 142 80z" />
<glyph unicode="&#xa1;" horiz-adv-x="270" d="M72 -298l73 520h41l-73 -520h-41zM227 377q0 -16 -14 -29.5t-31 -13.5q-14 0 -24 10.5t-10 24.5q0 16 13.5 29.5t30.5 13.5q15 0 25 -10.5t10 -24.5z" />
<glyph unicode="&#xa2;" d="M394 500l-14 -91q62 -5 104 -38t51 -84h-41q-9 35 -40 58t-79 27l-48 -344q104 8 146 86h41q-24 -53 -76 -85t-116 -37l-13 -92h-41l13 92q-71 7 -116 58.5t-45 124.5q0 89 64.5 157t154.5 77l14 91h41zM161 178q0 -60 34.5 -100.5t90.5 -48.5l48 343q-72 -9 -122.5 -64 t-50.5 -130z" />
<glyph unicode="&#xa3;" d="M175 304h119q-7 22 -53.5 91.5t-46.5 120.5q0 74 60.5 133.5t154.5 59.5q91 0 137 -59.5t25 -147.5h-43q15 75 -17.5 120.5t-106.5 45.5q-73 0 -120 -46.5t-47 -101.5q0 -45 46.5 -114t55.5 -102h147l-5 -37h-136q0 -18 -1 -27q-9 -57 -52.5 -110.5t-94.5 -88.5h335 l-5 -41h-453l5 41h51q59 26 115.5 91t56.5 118q0 12 -1 17h-131z" />
<glyph unicode="&#xa4;" horiz-adv-x="618" d="M89 94l50 44q-39 55 -39 133q0 103 83 188l-36 43l32 29l36 -43q79 61 172 61q90 0 153 -60l47 42l26 -29l-49 -42q39 -55 39 -132q0 -105 -86 -191l38 -43l-34 -29l-38 44q-76 -58 -167 -58q-89 0 -153 58l-50 -44zM143 277q0 -77 51.5 -130.5t128.5 -53.5 q94 0 166 68.5t72 161.5q0 77 -51.5 130.5t-129.5 53.5q-94 0 -165.5 -68.5t-71.5 -161.5z" />
<glyph unicode="&#xa5;" d="M131 430h126l-128 270h46l168 -358l270 358h46l-203 -270h125l-6 -37h-148l-63 -86h200l-5 -37h-203l-39 -270h-43l39 270h-204l5 37h201l-42 86h-148z" />
<glyph unicode="&#xa6;" horiz-adv-x="241" d="M170 207l-49 -347h-41l49 347h41zM245 740l-49 -347h-41l49 347h41z" />
<glyph unicode="&#xa7;" d="M153 239q0 59 36.5 109t92.5 75q-78 39 -78 117q0 68 51 120t145 52q66 0 109.5 -37.5t45.5 -96.5h-42q-2 42 -34 67.5t-84 25.5q-69 0 -109 -38t-40 -85q0 -42 28 -66t86 -42q67 -1 111 -47t44 -113q0 -60 -37 -110t-95 -74q92 -46 92 -128q0 -83 -61.5 -132t-141.5 -49 q-75 0 -120.5 37.5t-48.5 96.5h43q2 -43 36 -68t96 -25q59 0 106 35.5t47 96.5q0 44 -32 70.5t-101 50.5q-63 3 -104 48.5t-41 109.5zM198 244q0 -51 32.5 -84.5t83.5 -33.5q62 0 109 44t47 106q0 51 -33 85t-84 34q-61 0 -108 -45t-47 -106z" />
<glyph unicode="&#xa8;" horiz-adv-x="300" d="M96 544q0 14 10.5 25t25.5 11q12 0 20 -8t8 -20q0 -15 -10.5 -25t-25.5 -10q-13 0 -20.5 7.5t-7.5 19.5zM293 544q0 15 11 25.5t25 10.5q13 0 20.5 -8t7.5 -20q0 -15 -10.5 -25t-25.5 -10q-13 0 -20.5 7.5t-7.5 19.5z" />
<glyph unicode="&#xa9;" horiz-adv-x="879" d="M318 330q0 81 62 140.5t144 59.5q61 0 101.5 -35t54.5 -93h-45q-11 37 -41.5 62t-75.5 25q-64 0 -111.5 -46t-47.5 -109q0 -51 34 -85.5t86 -34.5q46 0 84.5 25.5t57.5 64.5h45q-29 -60 -80 -95.5t-113 -35.5q-68 0 -111.5 45t-43.5 112zM126 308q0 107 58 200.5 t153 147.5t202 54q135 0 224 -92t89 -226q0 -107 -58 -200t-153.5 -147t-202.5 -54q-135 0 -223.5 91.5t-88.5 225.5zM170 312q0 -120 77.5 -199t196.5 -79q145 0 254.5 104t109.5 250q0 120 -78 199.5t-196 79.5q-146 0 -255 -104.5t-109 -250.5z" />
<glyph unicode="&#xaa;" horiz-adv-x="340" d="M173 619h-36q13 38 49 60.5t80 22.5q55 0 84 -28.5t22 -75.5l-28 -198h-31l3 44q-40 -47 -109 -47q-48 0 -76.5 21.5t-28.5 61.5q0 107 156 107h78l2 11q6 34 -14.5 53.5t-61.5 19.5q-32 0 -56 -14t-33 -38zM211 428q43 0 76.5 24.5t39.5 65.5l5 38h-78q-117 0 -117 -72 q0 -27 20 -41.5t54 -14.5z" />
<glyph unicode="&#xab;" horiz-adv-x="410" d="M130 285l100 -141l-28 -28l-122 169l170 169l20 -28zM280 285l100 -141l-28 -28l-122 169l170 169l20 -28z" />
<glyph unicode="&#xac;" d="M113 304h444l-35 -244h-37l30 207h-407z" />
<glyph unicode="&#xad;" horiz-adv-x="200" d="M44 320h200l-5 -40h-200z" />
<glyph unicode="&#xae;" horiz-adv-x="879" d="M421 323l-21 -147h-39l49 348h120q106 0 106 -86q0 -100 -110 -114l98 -148h-50l-97 147h-56zM426 361h82q36 0 61 17t25 53q0 53 -69 53h-81zM126 308q0 107 58 200.5t153 147.5t202 54q135 0 224 -92t89 -226q0 -107 -58 -200t-153.5 -147t-202.5 -54 q-135 0 -223.5 91.5t-88.5 225.5zM170 312q0 -120 77.5 -199t196.5 -79q145 0 254.5 104t109.5 250q0 120 -78 199.5t-196 79.5q-146 0 -255 -104.5t-109 -250.5z" />
<glyph unicode="&#xaf;" horiz-adv-x="300" d="M95 531l5 35h260l-5 -35h-260z" />
<glyph unicode="&#xb0;" horiz-adv-x="392" d="M142 576q8 55 52 95t102 41q59 0 92 -40t24 -96q-8 -57 -51.5 -96.5t-100.5 -39.5q-59 0 -92.5 39.5t-25.5 96.5zM263 469q47 0 83.5 35.5t36.5 83.5q0 40 -26 67.5t-65 27.5q-47 0 -84 -36t-37 -83q0 -40 26 -67.5t66 -27.5z" />
<glyph unicode="&#xb1;" d="M350 510h37l-28 -196h206l-5 -37h-206l-30 -207h-37l30 207h-207l5 37h207zM76 37h450l-6 -37h-450z" />
<glyph unicode="&#xb2;" horiz-adv-x="362" d="M209 561h186l-5 -36h-274l175 155q25 22 35.5 32.5t27 34t16.5 42.5q0 26 -18 42.5t-50 16.5q-35 0 -60 -19t-29 -50l-1 -9h-39l1 9q5 45 42 74.5t91 29.5q48 0 76 -25.5t28 -65.5q0 -26 -17 -54t-31.5 -42t-42.5 -39z" />
<glyph unicode="&#xb3;" horiz-adv-x="343" d="M261 693l4 34q42 1 65.5 19t23.5 50q0 22 -17.5 36.5t-48.5 14.5q-34 0 -57 -15.5t-28 -44.5h-40q8 44 43.5 70.5t86.5 26.5q48 0 75.5 -23.5t27.5 -59.5q0 -65 -73 -90q25 -6 41.5 -26t16.5 -50q0 -47 -39.5 -80.5t-100.5 -33.5q-52 0 -86 28t-27 73h39q-2 -29 20 -46.5 t58 -17.5q41 0 67.5 22.5t26.5 53.5q0 56 -78 59z" />
<glyph unicode="&#xb4;" horiz-adv-x="300" d="M291 654l26 -43l-162 -96l-19 21z" />
<glyph unicode="&#xb5;" horiz-adv-x="490" d="M36 -250l92 650h41l-35 -247q-18 -126 98 -126q48 0 90 26t71 62l40 285h41l-56 -400h-39l7 68q-67 -78 -160 -78q-82 0 -108 50l-41 -290h-41z" />
<glyph unicode="&#xb6;" horiz-adv-x="550" d="M245 -200l76 546q-69 -1 -109.5 39t-40.5 108q0 207 231 207h157l-5 -39h-84q-63 0 -71 -66l-112 -795h-42z" />
<glyph unicode="&#xb7;" horiz-adv-x="218" d="M114 307q0 16 13.5 29.5t30.5 13.5q15 0 25 -10.5t10 -24.5q0 -16 -14 -29.5t-31 -13.5q-14 0 -24 10.5t-10 24.5z" />
<glyph unicode="&#xb8;" horiz-adv-x="300" d="M193 -57l-115 -154l-28 17l94 154z" />
<glyph unicode="&#xb9;" horiz-adv-x="253" d="M203 525l44 304l-91 -47l-14 31l154 84l-53 -372h-40z" />
<glyph unicode="&#xba;" horiz-adv-x="383" d="M115 529q0 70 52 121.5t123 51.5q57 0 94 -39.5t37 -96.5q0 -70 -52 -121t-122 -51q-58 0 -95 39t-37 96zM151 531q0 -46 28 -75.5t72 -29.5q55 0 95 40t40 98q0 47 -28 76.5t-72 29.5q-56 0 -95.5 -40t-39.5 -99z" />
<glyph unicode="&#xbb;" horiz-adv-x="410" d="M71 144l139 141l-99 141l28 28l121 -169l-169 -169zM221 144l139 141l-99 141l28 28l121 -169l-169 -169z" />
<glyph unicode="&#xbc;" horiz-adv-x="830" d="M722 101h50l-4 -36h-50l-10 -65h-40l10 65h-202l288 329zM733 691l-503 -703l-33 21l503 702zM218 347l44 304l-91 -47l-14 31l154 84l-53 -372h-40zM684 101l26 181l-160 -181h134z" />
<glyph unicode="&#xbd;" horiz-adv-x="830" d="M596 36h186l-5 -36h-273l174 155q80 69 80 109q0 26 -18 42.5t-50 16.5q-35 0 -60 -19t-29 -50l-1 -9h-39l1 9q5 45 42 74.5t90 29.5q49 0 77 -25t28 -66q0 -26 -17.5 -54.5t-31.5 -41.5t-43 -39zM733 691l-503 -703l-33 21l503 702zM218 347l44 304l-91 -47l-14 31 l154 84l-53 -372h-40z" />
<glyph unicode="&#xbe;" horiz-adv-x="830" d="M722 101h50l-5 -36h-50l-9 -65h-40l9 65h-202l288 329zM732 691l-503 -703l-33 21l502 702zM231 514l4 34q42 1 65.5 19t23.5 50q0 22 -17.5 36.5t-48.5 14.5q-34 0 -57 -15.5t-28 -44.5h-40q8 44 43.5 70.5t86.5 26.5q48 0 75.5 -23.5t27.5 -59.5q0 -65 -73 -90 q25 -6 41.5 -26t16.5 -50q0 -47 -39.5 -80.5t-100.5 -33.5q-52 0 -86 28t-27 73h39q-2 -29 20 -46.5t58 -17.5q41 0 67.5 22.5t26.5 53.5q0 56 -78 59zM684 101l25 181l-159 -181h134z" />
<glyph unicode="&#xbf;" horiz-adv-x="512" d="M239 262h43l-21 -144q-37 -23 -56 -35.5t-53 -39.5t-52 -49.5t-33 -55t-15 -65.5q0 -61 40 -100t112 -39q85 0 137.5 45.5t58.5 120.5h43q-4 -87 -75.5 -147t-169.5 -60q-90 0 -139.5 49.5t-49.5 127.5q0 38 14 73.5t32.5 60.5t52 53t55 42.5t59.5 38.5zM316 377 q0 -17 -14 -30t-31 -13q-14 0 -23.5 10t-9.5 25q0 17 13.5 30t30.5 13q14 0 24 -10.5t10 -24.5z" />
<glyph unicode="&#xc0;" horiz-adv-x="687" d="M618 0l-65 219h-358l-126 -219h-45l422 730l217 -730h-45zM432 631l-214 -371h322zM377 847l38 39l122 -107l-24 -19z" />
<glyph unicode="&#xc1;" horiz-adv-x="687" d="M618 0l-65 219h-358l-126 -219h-45l422 730l217 -730h-45zM432 631l-214 -371h322zM521 886l26 -39l-160 -87l-20 19z" />
<glyph unicode="&#xc2;" horiz-adv-x="687" d="M618 0l-65 219h-358l-126 -219h-45l422 730l217 -730h-45zM432 631l-214 -371h322zM465 867l105 -83l-23 -23l-88 60l-104 -60l-19 23z" />
<glyph unicode="&#xc3;" horiz-adv-x="687" d="M618 0l-65 219h-358l-126 -219h-45l422 730l217 -730h-45zM432 631l-214 -371h322zM348 771l-24 17q31 50 77 50q21 0 60 -16t57 -16q28 0 49 32l22 -15q-9 -22 -31.5 -37t-48.5 -15q-17 0 -58 16.5t-59 16.5q-26 0 -44 -33z" />
<glyph unicode="&#xc4;" horiz-adv-x="687" d="M618 0l-65 219h-358l-126 -219h-45l422 730l217 -730h-45zM432 631l-214 -371h322zM325 791q0 14 10.5 23.5t25.5 9.5q12 0 19.5 -7.5t7.5 -18.5q0 -13 -11 -22t-25 -9q-27 0 -27 24zM522 791q0 14 10.5 23.5t25.5 9.5q12 0 19.5 -7.5t7.5 -18.5q0 -13 -11 -22t-25 -9 q-27 0 -27 24z" />
<glyph unicode="&#xc5;" horiz-adv-x="687" d="M618 0l-65 219h-358l-126 -219h-45l422 730l217 -730h-45zM432 631l-214 -371h322zM470 905q31 0 52.5 -20t21.5 -48q0 -32 -29 -56.5t-65 -24.5q-31 0 -52 19.5t-21 47.5q0 32 28 57t65 25zM467 877q-23 0 -40.5 -15t-17.5 -37q0 -19 12.5 -30.5t31.5 -11.5 q24 0 41.5 15.5t17.5 36.5q0 18 -13 30t-32 12z" />
<glyph unicode="&#xc6;" horiz-adv-x="1010" d="M1040 659h-382l-36 -259h354l-5 -41h-354l-46 -318h382l-5 -41h-425l31 219h-292l-187 -219h-51l598 700h425zM296 260h263l53 370z" />
<glyph unicode="&#xc7;" horiz-adv-x="800" d="M104 350q22 150 141.5 255t271.5 105q120 0 200 -62.5t104 -165.5h-47q-21 80 -89.5 133t-171.5 53q-135 0 -240 -92t-125 -226q-18 -134 61 -226t214 -92q105 0 191.5 55.5t126.5 138.5h47q-49 -107 -149.5 -171.5t-222.5 -64.5q-152 0 -242 105t-70 255zM454 -57 l-114 -154l-29 17l95 154z" />
<glyph unicode="&#xc8;" horiz-adv-x="597" d="M628 659h-402l-37 -259h374l-5 -41h-374l-45 -318h402l-6 -41h-445l99 700h445zM362 847l38 39l123 -107l-25 -19z" />
<glyph unicode="&#xc9;" horiz-adv-x="597" d="M628 659h-402l-37 -259h374l-5 -41h-374l-45 -318h402l-6 -41h-445l99 700h445zM506 886l26 -39l-160 -87l-19 19z" />
<glyph unicode="&#xca;" horiz-adv-x="597" d="M628 659h-402l-37 -259h374l-5 -41h-374l-45 -318h402l-6 -41h-445l99 700h445zM442 867l106 -83l-24 -23l-88 60l-104 -60l-18 23z" />
<glyph unicode="&#xcb;" horiz-adv-x="597" d="M628 659h-402l-37 -259h374l-5 -41h-374l-45 -318h402l-6 -41h-445l99 700h445zM310 792q0 13 10.5 22.5t25.5 9.5q12 0 19.5 -7.5t7.5 -18.5q0 -13 -10.5 -22t-25.5 -9q-12 0 -19.5 7t-7.5 18zM507 792q0 13 10.5 22.5t25.5 9.5q12 0 19.5 -7.5t7.5 -18.5 q0 -13 -10.5 -22t-25.5 -9q-12 0 -19.5 7t-7.5 18z" />
<glyph unicode="&#xcc;" horiz-adv-x="251" d="M246 700l-99 -700h-43l99 700h43zM159 847l37 39l123 -107l-24 -19z" />
<glyph unicode="&#xcd;" horiz-adv-x="251" d="M245 700l-98 -700h-43l98 700h43zM302 886l27 -39l-161 -87l-19 19z" />
<glyph unicode="&#xce;" horiz-adv-x="251" d="M245 700l-98 -700h-43l98 700h43zM247 867l105 -83l-24 -23l-88 60l-104 -60l-18 23z" />
<glyph unicode="&#xcf;" horiz-adv-x="251" d="M246 700l-99 -700h-43l99 700h43zM107 791q0 14 10 23.5t25 9.5q12 0 20 -7.5t8 -18.5q0 -13 -11 -22t-26 -9q-26 0 -26 24zM304 791q0 14 10 23.5t25 9.5q12 0 20 -7.5t8 -18.5q0 -13 -11 -22t-26 -9q-26 0 -26 24z" />
<glyph unicode="&#xd0;" horiz-adv-x="732" d="M90 0l41 292h-60l5 37h60l53 371h234q139 0 221 -85t82 -218q0 -168 -111 -282.5t-283 -114.5h-242zM337 41q154 1 249.5 101t95.5 252q0 117 -71.5 191t-194.5 74h-191l-46 -330h226l-5 -37h-226l-36 -251h199z" />
<glyph unicode="&#xd1;" horiz-adv-x="746" d="M755 700l-103 -731l-433 635l-86 -604h-43l101 716l435 -630l86 614h43zM378 771l-23 17q29 50 77 50q21 0 59.5 -16t56.5 -16q27 0 50 32l21 -15q-8 -22 -31 -37t-49 -15q-17 0 -58 16.5t-59 16.5q-24 0 -44 -33z" />
<glyph unicode="&#xd2;" horiz-adv-x="831" d="M102 308q0 107 58 200.5t153 147.5t202 54q135 0 224 -92t89 -226q0 -107 -58 -200t-153.5 -147t-202.5 -54q-135 0 -223.5 91.5t-88.5 225.5zM146 312q0 -120 77.5 -199.5t196.5 -79.5q145 0 254.5 104.5t109.5 250.5q0 120 -77.5 200t-196.5 80q-145 0 -254.5 -105 t-109.5 -251zM449 847l38 39l123 -107l-25 -19z" />
<glyph unicode="&#xd3;" horiz-adv-x="831" d="M102 308q0 107 58 200.5t153 147.5t202 54q135 0 224 -92t89 -226q0 -107 -58 -200t-153.5 -147t-202.5 -54q-135 0 -223.5 91.5t-88.5 225.5zM146 312q0 -120 77.5 -199.5t196.5 -79.5q145 0 254.5 104.5t109.5 250.5q0 120 -77.5 200t-196.5 80q-145 0 -254.5 -105 t-109.5 -251zM593 886l26 -39l-160 -87l-19 19z" />
<glyph unicode="&#xd4;" horiz-adv-x="831" d="M102 308q0 107 58 200.5t153 147.5t202 54q135 0 224 -92t89 -226q0 -107 -58 -200t-153.5 -147t-202.5 -54q-135 0 -223.5 91.5t-88.5 225.5zM146 312q0 -120 77.5 -199.5t196.5 -79.5q145 0 254.5 104.5t109.5 250.5q0 120 -77.5 200t-196.5 80q-145 0 -254.5 -105 t-109.5 -251zM537 867l105 -83l-23 -23l-88 60l-104 -60l-19 23z" />
<glyph unicode="&#xd5;" horiz-adv-x="831" d="M102 308q0 107 58 200.5t153 147.5t202 54q135 0 224 -92t89 -226q0 -107 -58 -200t-153.5 -147t-202.5 -54q-135 0 -223.5 91.5t-88.5 225.5zM146 312q0 -120 77.5 -199.5t196.5 -79.5q145 0 254.5 104.5t109.5 250.5q0 120 -77.5 200t-196.5 80q-145 0 -254.5 -105 t-109.5 -251zM420 771l-24 17q31 50 78 50q21 0 59.5 -16t56.5 -16q27 0 50 32l21 -15q-9 -22 -31.5 -37t-48.5 -15q-17 0 -58 16.5t-59 16.5q-26 0 -44 -33z" />
<glyph unicode="&#xd6;" horiz-adv-x="831" d="M102 308q0 107 58 200.5t153 147.5t202 54q135 0 224 -92t89 -226q0 -107 -58 -200t-153.5 -147t-202.5 -54q-135 0 -223.5 91.5t-88.5 225.5zM146 312q0 -120 77.5 -199.5t196.5 -79.5q145 0 254.5 104.5t109.5 250.5q0 120 -77.5 200t-196.5 80q-145 0 -254.5 -105 t-109.5 -251zM397 792q0 13 10.5 22.5t25.5 9.5q12 0 19.5 -7.5t7.5 -18.5q0 -13 -10.5 -22t-25.5 -9q-12 0 -19.5 7t-7.5 18zM594 792q0 13 10.5 22.5t25.5 9.5q12 0 19.5 -7.5t7.5 -18.5q0 -13 -10.5 -22t-25.5 -9q-12 0 -19.5 7t-7.5 18z" />
<glyph unicode="&#xd7;" d="M531 478l22 -26l-190 -167l143 -167l-30 -26l-144 167l-191 -168l-22 26l192 168l-145 168l30 26l144 -168z" />
<glyph unicode="&#xd8;" horiz-adv-x="831" d="M799 781l-94 -131q57 -41 90 -110t33 -149q0 -106 -58 -199t-153.5 -147t-202.5 -54q-86 0 -155 37l-92 -128l-33 21l91 128q-58 41 -90.5 109.5t-32.5 148.5q0 163 124.5 283t288.5 120q86 0 156 -39l94 130zM146 312q0 -71 28 -131t77 -96l395 550q-61 33 -136 33 q-146 0 -255 -105t-109 -251zM784 388q0 70 -28 130t-78 96l-393 -550q60 -31 135 -31q145 0 254.5 104.5t109.5 250.5z" />
<glyph unicode="&#xd9;" horiz-adv-x="704" d="M357 32q117 0 180 69.5t79 186.5l58 412h43l-58 -412q-19 -133 -97.5 -215t-210.5 -82t-187.5 82t-36.5 215l58 412h43l-58 -412q-16 -118 27 -187t160 -69zM386 847l38 39l123 -107l-25 -19z" />
<glyph unicode="&#xda;" horiz-adv-x="704" d="M357 32q117 0 180 69.5t79 186.5l58 412h43l-58 -412q-19 -133 -97.5 -215t-210.5 -82t-187.5 82t-36.5 215l58 412h43l-58 -412q-16 -118 27 -187t160 -69zM530 886l26 -39l-160 -87l-19 19z" />
<glyph unicode="&#xdb;" horiz-adv-x="704" d="M357 32q117 0 180 69.5t79 186.5l58 412h43l-58 -412q-19 -133 -97.5 -215t-210.5 -82t-187.5 82t-36.5 215l58 412h43l-58 -412q-16 -118 27 -187t160 -69zM474 867l106 -83l-24 -23l-88 60l-104 -60l-18 23z" />
<glyph unicode="&#xdc;" horiz-adv-x="704" d="M357 32q117 0 180 69.5t79 186.5l58 412h43l-58 -412q-19 -133 -97.5 -215t-210.5 -82t-187.5 82t-36.5 215l58 412h43l-58 -412q-16 -118 27 -187t160 -69zM334 792q0 13 10.5 22.5t25.5 9.5q12 0 19.5 -7.5t7.5 -18.5q0 -13 -10.5 -22t-25.5 -9q-12 0 -19.5 7t-7.5 18z M531 792q0 13 10.5 22.5t25.5 9.5q12 0 19.5 -7.5t7.5 -18.5q0 -13 -10.5 -22t-25.5 -9q-12 0 -19.5 7t-7.5 18z" />
<glyph unicode="&#xdd;" horiz-adv-x="568" d="M349 302l-43 -302h-43l43 302l-191 398h46l171 -358l273 358h46zM462 886l26 -39l-159 -87l-19 19z" />
<glyph unicode="&#xde;" horiz-adv-x="551" d="M158 174l-25 -174h-43l99 700h43l-20 -140h135q93 0 149.5 -40.5t56.5 -126.5q0 -112 -72 -165.5t-186 -53.5h-137zM163 215h137q92 0 151 40.5t59 132.5q0 68 -46 99.5t-123 31.5h-135z" />
<glyph unicode="&#xdf;" horiz-adv-x="499" d="M327 620q-120 0 -139 -135l-69 -485h-41l69 485q12 82 58.5 127t127.5 45q52 0 87 -31t35 -81q0 -41 -26 -76t-66 -51q59 -15 93 -62t34 -115q0 -108 -71.5 -172.5t-175.5 -74.5l6 37q90 13 145 63.5t55 143.5q0 69 -40 111t-109 50l6 37q50 1 79 31t29 77 q0 35 -24.5 55.5t-62.5 20.5z" />
<glyph unicode="&#xe0;" horiz-adv-x="456" d="M148 303h-40q18 49 66 78t108 29q75 0 113 -38t29 -103l-38 -269h-37l7 68q-56 -73 -157 -73q-64 0 -102.5 29.5t-38.5 81.5q0 145 213 145h110l3 18q8 50 -20 77.5t-87 27.5q-47 0 -81 -19t-48 -52zM205 31q60 0 107 34.5t56 94.5l8 55h-111q-88 0 -127 -25t-39 -79 q0 -38 28.5 -59t77.5 -21zM229 611l39 43l121 -118l-25 -21z" />
<glyph unicode="&#xe1;" horiz-adv-x="456" d="M148 303h-40q18 49 66 78t108 29q75 0 113 -38t29 -103l-38 -269h-37l7 68q-56 -73 -157 -73q-64 0 -102.5 29.5t-38.5 81.5q0 145 213 145h110l3 18q8 50 -20 77.5t-87 27.5q-47 0 -81 -19t-48 -52zM205 31q60 0 107 34.5t56 94.5l8 55h-111q-88 0 -127 -25t-39 -79 q0 -38 28.5 -59t77.5 -21zM374 654l25 -43l-161 -96l-19 21z" />
<glyph unicode="&#xe2;" horiz-adv-x="456" d="M148 303h-40q18 49 66 78t108 29q75 0 113 -38t29 -103l-38 -269h-37l7 68q-56 -73 -157 -73q-64 0 -102.5 29.5t-38.5 81.5q0 145 213 145h110l3 18q8 50 -20 77.5t-87 27.5q-47 0 -81 -19t-48 -52zM205 31q60 0 107 34.5t56 94.5l8 55h-111q-88 0 -127 -25t-39 -79 q0 -38 28.5 -59t77.5 -21zM317 633l105 -92l-25 -25l-87 66l-105 -66l-17 25z" />
<glyph unicode="&#xe3;" horiz-adv-x="456" d="M148 303h-40q18 49 66 78t108 29q75 0 113 -38t29 -103l-38 -269h-37l7 68q-56 -73 -157 -73q-64 0 -102.5 29.5t-38.5 81.5q0 145 213 145h110l3 18q8 50 -20 77.5t-87 27.5q-47 0 -81 -19t-48 -52zM205 31q60 0 107 34.5t56 94.5l8 55h-111q-88 0 -127 -25t-39 -79 q0 -38 28.5 -59t77.5 -21zM199 527l-23 19q12 23 33 39t44 16q21 0 59.5 -17.5t56.5 -17.5q28 0 50 35l22 -17q-10 -25 -33 -41t-48 -16q-17 0 -58 18t-59 18q-24 0 -44 -36z" />
<glyph unicode="&#xe4;" horiz-adv-x="456" d="M148 303h-40q18 49 66 78t108 29q75 0 113 -38t29 -103l-38 -269h-37l7 68q-56 -73 -157 -73q-64 0 -102.5 29.5t-38.5 81.5q0 145 213 145h110l3 18q8 50 -20 77.5t-87 27.5q-47 0 -81 -19t-48 -52zM205 31q60 0 107 34.5t56 94.5l8 55h-111q-88 0 -127 -25t-39 -79 q0 -38 28.5 -59t77.5 -21zM176 544q0 15 10 25.5t25 10.5q12 0 20 -8t8 -20q0 -15 -11 -25t-26 -10q-26 0 -26 27zM373 544q0 15 10 25.5t25 10.5q12 0 20 -8t8 -20q0 -15 -11 -25t-26 -10q-26 0 -26 27z" />
<glyph unicode="&#xe5;" horiz-adv-x="456" d="M148 303h-40q18 49 66 78t108 29q75 0 113 -38t29 -103l-38 -269h-37l7 68q-56 -73 -157 -73q-64 0 -102.5 29.5t-38.5 81.5q0 145 213 145h110l3 18q8 50 -20 77.5t-87 27.5q-47 0 -81 -19t-48 -52zM205 31q60 0 107 34.5t56 94.5l8 55h-111q-88 0 -127 -25t-39 -79 q0 -38 28.5 -59t77.5 -21zM322 670q31 0 52 -22t21 -52q0 -36 -29.5 -64t-66.5 -28q-30 0 -51 22t-21 52q0 36 29.5 64t65.5 28zM318 639q-24 0 -41 -17.5t-17 -41.5q0 -20 12.5 -32.5t31.5 -12.5q23 0 41 17t18 41q0 20 -12.5 33t-32.5 13z" />
<glyph unicode="&#xe6;" horiz-adv-x="764" d="M743 195h-330q-6 -73 28 -120.5t104 -47.5q105 0 140 87h40q-19 -55 -69 -89t-117 -34q-122 0 -158 106q-54 -102 -181 -102q-65 0 -104 28t-39 76q0 132 211 132h111l5 38q7 51 -20.5 78t-86.5 27q-47 0 -81 -19t-48 -52h-40q18 49 66 78t108 29q59 0 95 -24.5t44 -68.5 q70 93 175 93q70 0 113 -46.5t43 -114.5q0 -25 -9 -54zM204 31q61 0 109.5 37t57.5 106q0 7 2 21h-110q-87 0 -126.5 -22.5t-39.5 -69.5q0 -34 29.5 -53t77.5 -19zM591 374q-63 0 -110 -38.5t-62 -104.5h292q8 58 -25.5 100.5t-94.5 42.5z" />
<glyph unicode="&#xe7;" horiz-adv-x="481" d="M303 373q-79 0 -135 -57t-56 -139q0 -66 39.5 -107.5t103.5 -41.5q56 0 97.5 23.5t61.5 62.5h41q-25 -57 -80.5 -90t-124.5 -33q-79 0 -129 53t-50 131q0 96 70 165.5t167 69.5q68 0 113.5 -34t54.5 -89h-41q-10 38 -43.5 62t-88.5 24zM294 -57l-115 -154l-28 17l94 154z " />
<glyph unicode="&#xe8;" horiz-adv-x="485" d="M461 184h-350q-5 -70 34 -113.5t111 -43.5q55 0 94 24.5t56 62.5h40q-19 -54 -73 -88.5t-122 -34.5q-83 0 -131.5 51.5t-48.5 129.5q0 98 69 168t166 70q76 0 120.5 -50t44.5 -121q0 -32 -10 -55zM301 374q-67 0 -117.5 -43t-65.5 -111h312q8 61 -26.5 107.5t-102.5 46.5 zM243 611l37 43l122 -118l-25 -21z" />
<glyph unicode="&#xe9;" horiz-adv-x="485" d="M461 184h-350q-5 -70 34 -113.5t111 -43.5q55 0 94 24.5t56 62.5h40q-19 -54 -73 -88.5t-122 -34.5q-83 0 -131.5 51.5t-48.5 129.5q0 98 69 168t166 70q76 0 120.5 -50t44.5 -121q0 -32 -10 -55zM301 374q-67 0 -117.5 -43t-65.5 -111h312q8 61 -26.5 107.5t-102.5 46.5 zM386 654l27 -43l-162 -96l-19 21z" />
<glyph unicode="&#xea;" horiz-adv-x="485" d="M461 184h-350q-5 -70 34 -113.5t111 -43.5q55 0 94 24.5t56 62.5h40q-19 -54 -73 -88.5t-122 -34.5q-83 0 -131.5 51.5t-48.5 129.5q0 98 69 168t166 70q76 0 120.5 -50t44.5 -121q0 -32 -10 -55zM301 374q-67 0 -117.5 -43t-65.5 -111h312q8 61 -26.5 107.5t-102.5 46.5 zM330 633l105 -92l-24 -25l-88 66l-104 -66l-18 25z" />
<glyph unicode="&#xeb;" horiz-adv-x="485" d="M461 184h-350q-5 -70 34 -113.5t111 -43.5q55 0 94 24.5t56 62.5h40q-19 -54 -73 -88.5t-122 -34.5q-83 0 -131.5 51.5t-48.5 129.5q0 98 69 168t166 70q76 0 120.5 -50t44.5 -121q0 -32 -10 -55zM301 374q-67 0 -117.5 -43t-65.5 -111h312q8 61 -26.5 107.5t-102.5 46.5 zM188 544q0 14 10.5 25t25.5 11q12 0 20 -8t8 -20q0 -15 -10.5 -25t-25.5 -10q-13 0 -20.5 7.5t-7.5 19.5zM385 544q0 15 11 25.5t25 10.5q13 0 20.5 -8t7.5 -20q0 -15 -10.5 -25t-25.5 -10q-13 0 -20.5 7.5t-7.5 19.5z" />
<glyph unicode="&#xec;" horiz-adv-x="201" d="M80 0l56 400h41l-56 -400h-41zM102 611l38 43l121 -118l-24 -21z" />
<glyph unicode="&#xed;" horiz-adv-x="201" d="M80 0l56 400h41l-56 -400h-41zM247 654l26 -43l-162 -96l-19 21z" />
<glyph unicode="&#xee;" horiz-adv-x="201" d="M80 0l57 400h41l-57 -400h-41zM191 633l104 -92l-25 -25l-87 66l-105 -66l-17 25z" />
<glyph unicode="&#xef;" horiz-adv-x="201" d="M80 0l56 400h41l-56 -400h-41zM47 544q0 14 10.5 25t25.5 11q12 0 20 -8t8 -20q0 -15 -10.5 -25t-25.5 -10q-13 0 -20.5 7.5t-7.5 19.5zM244 544q0 14 10.5 25t25.5 11q12 0 20 -8t8 -20q0 -15 -10.5 -25t-25.5 -10q-13 0 -20.5 7.5t-7.5 19.5z" />
<glyph unicode="&#xf0;" horiz-adv-x="522" d="M287 507l75 40q-57 48 -119 67l23 34q77 -28 136 -80l87 47l13 -32l-74 -40q84 -89 84 -234q0 -135 -70 -227t-191 -92q-77 0 -129 55t-52 135q0 100 72 165t164 65q62 0 107 -26t60 -50q-5 108 -84 188l-88 -47zM111 183q0 -65 41.5 -110.5t103.5 -45.5q84 0 141.5 64.5 t71.5 154.5q1 8 2 19.5t1 12.5q-2 4 -7.5 11.5t-20 23t-32.5 28t-47 22t-60 9.5q-75 0 -134.5 -55t-59.5 -134z" />
<glyph unicode="&#xf1;" horiz-adv-x="498" d="M72 0l56 400h37l-4 -57q79 67 165 67q74 0 110 -46.5t25 -126.5l-33 -237h-41l34 237q9 64 -18.5 100t-86.5 36q-88 0 -161 -75l-42 -298h-41zM219 527l-24 19q32 55 78 55q21 0 60 -17.5t57 -17.5q29 0 49 35l22 -17q-10 -25 -33 -41t-48 -16q-17 0 -57.5 18t-58.5 18 q-25 0 -45 -36z" />
<glyph unicode="&#xf2;" horiz-adv-x="499" d="M69 175q0 95 71 165t166 70q78 0 128.5 -53.5t50.5 -131.5q0 -95 -71 -164.5t-166 -69.5q-78 0 -128.5 53t-50.5 131zM111 177q0 -66 39 -107.5t102 -41.5q78 0 135 56.5t57 138.5q0 65 -40 107.5t-103 42.5q-78 0 -134 -57t-56 -139zM250 611l38 43l121 -118l-24 -21z " />
<glyph unicode="&#xf3;" horiz-adv-x="499" d="M69 175q0 95 71 165t166 70q78 0 128.5 -53.5t50.5 -131.5q0 -95 -71 -164.5t-166 -69.5q-78 0 -128.5 53t-50.5 131zM111 177q0 -66 39 -107.5t102 -41.5q78 0 135 56.5t57 138.5q0 65 -40 107.5t-103 42.5q-78 0 -134 -57t-56 -139zM394 654l26 -43l-161 -96l-20 21z " />
<glyph unicode="&#xf4;" horiz-adv-x="499" d="M69 175q0 95 71 165t166 70q78 0 128.5 -53.5t50.5 -131.5q0 -95 -71 -164.5t-166 -69.5q-78 0 -128.5 53t-50.5 131zM111 177q0 -66 39 -107.5t102 -41.5q78 0 135 56.5t57 138.5q0 65 -40 107.5t-103 42.5q-78 0 -134 -57t-56 -139zM337 633l105 -92l-24 -25l-88 66 l-104 -66l-18 25z" />
<glyph unicode="&#xf5;" horiz-adv-x="499" d="M69 175q0 95 71 165t166 70q78 0 128.5 -53.5t50.5 -131.5q0 -95 -71 -164.5t-166 -69.5q-78 0 -128.5 53t-50.5 131zM111 177q0 -66 39 -107.5t102 -41.5q78 0 135 56.5t57 138.5q0 65 -40 107.5t-103 42.5q-78 0 -134 -57t-56 -139zM218 527l-23 19q13 23 34 39t44 16 q21 0 60 -17.5t57 -17.5q27 0 49 35l21 -17q-9 -25 -32 -41t-49 -16q-17 0 -57 18t-58 18q-24 0 -46 -36z" />
<glyph unicode="&#xf6;" horiz-adv-x="499" d="M69 175q0 95 71 165t166 70q78 0 128.5 -53.5t50.5 -131.5q0 -95 -71 -164.5t-166 -69.5q-78 0 -128.5 53t-50.5 131zM111 177q0 -66 39 -107.5t102 -41.5q78 0 135 56.5t57 138.5q0 65 -40 107.5t-103 42.5q-78 0 -134 -57t-56 -139zM195 544q0 14 10.5 25t25.5 11 q12 0 20 -8t8 -20q0 -15 -10.5 -25t-25.5 -10q-13 0 -20.5 7.5t-7.5 19.5zM392 544q0 15 11 25.5t25 10.5q13 0 20.5 -8t7.5 -20q0 -15 -10.5 -25t-25.5 -10q-13 0 -20.5 7.5t-7.5 19.5z" />
<glyph unicode="&#xf7;" d="M113 304h450l-5 -37h-450zM274 124q0 17 13.5 30t30.5 13q15 0 24.5 -10t9.5 -25q0 -17 -13.5 -30t-30.5 -13q-14 0 -24 10.5t-10 24.5zM319 439q0 17 13.5 30t30.5 13q14 0 24 -10.5t10 -24.5q0 -17 -14 -30t-31 -13q-14 0 -23.5 10t-9.5 25z" />
<glyph unicode="&#xf8;" horiz-adv-x="499" d="M496 481l-78 -108q66 -53 66 -148t-71 -164.5t-166 -69.5q-46 0 -89 20l-79 -111l-33 21l81 113q-58 50 -58 140q0 96 70.5 166t165.5 70q41 0 80 -17l78 108zM443 222q0 76 -48 118l-213 -296q31 -16 70 -16q78 0 134.5 56.5t56.5 137.5zM110 177q0 -70 40 -110l212 294 q-28 12 -61 12q-78 0 -134.5 -57t-56.5 -139z" />
<glyph unicode="&#xf9;" horiz-adv-x="488" d="M377 0l8 68q-69 -78 -169 -78q-68 0 -102 42t-23 121l35 247h41l-35 -247q-9 -63 15 -94.5t75 -31.5q53 0 97 26t72 62l40 285h41l-56 -400h-39zM245 611l38 43l122 -118l-26 -21z" />
<glyph unicode="&#xfa;" horiz-adv-x="488" d="M377 0l8 68q-69 -78 -169 -78q-68 0 -102 42t-23 121l35 247h41l-35 -247q-9 -63 15 -94.5t75 -31.5q53 0 97 26t72 62l40 285h41l-56 -400h-39zM389 654l26 -43l-162 -96l-18 21z" />
<glyph unicode="&#xfb;" horiz-adv-x="488" d="M377 0l8 68q-69 -78 -169 -78q-68 0 -102 42t-23 121l35 247h41l-35 -247q-9 -63 15 -94.5t75 -31.5q53 0 97 26t72 62l40 285h41l-56 -400h-39zM333 633l105 -92l-25 -25l-87 66l-105 -66l-17 25z" />
<glyph unicode="&#xfc;" horiz-adv-x="488" d="M377 0l8 68q-69 -78 -169 -78q-68 0 -102 42t-23 121l35 247h41l-35 -247q-9 -63 15 -94.5t75 -31.5q53 0 97 26t72 62l40 285h41l-56 -400h-39zM190 544q0 15 11 25.5t26 10.5q12 0 19.5 -8t7.5 -20q0 -15 -10.5 -25t-25.5 -10q-12 0 -20 7.5t-8 19.5zM387 544 q0 15 11 25.5t26 10.5q12 0 19.5 -8t7.5 -20q0 -15 -10.5 -25t-25.5 -10q-12 0 -20 7.5t-8 19.5z" />
<glyph unicode="&#xfd;" horiz-adv-x="432" d="M476 400l-401 -650h-40l167 272l-132 378h41l116 -338l207 338h42zM358 634l26 -43l-162 -96l-19 21z" />
<glyph unicode="&#xfe;" horiz-adv-x="513" d="M275 28q79 0 130.5 58.5t51.5 139.5q0 62 -36.5 104.5t-96.5 42.5q-84 0 -135.5 -56.5t-51.5 -139.5q0 -65 36.5 -107t101.5 -42zM123 73l-45 -323h-41l127 903h41l-45 -323q65 80 169 80q78 0 123.5 -50t45.5 -128q0 -102 -64.5 -171.5t-164.5 -69.5q-51 0 -90.5 21.5 t-55.5 60.5z" />
<glyph unicode="&#xff;" horiz-adv-x="432" d="M476 400l-401 -650h-40l167 272l-132 378h41l116 -338l207 338h42zM162 544q0 15 11 25.5t25 10.5q13 0 20.5 -8t7.5 -20q0 -15 -11 -25t-26 -10q-12 0 -19.5 7.5t-7.5 19.5zM359 544q0 15 10.5 25.5t25.5 10.5q12 0 20 -8t8 -20q0 -15 -11 -25t-26 -10q-12 0 -19.5 7.5 t-7.5 19.5z" />
<glyph unicode="&#x100;" horiz-adv-x="687" d="M618 0l-65 219h-358l-126 -219h-45l422 730l217 -730h-45zM432 631l-214 -371h322zM322 775l5 31h260l-5 -31h-260z" />
<glyph unicode="&#x101;" horiz-adv-x="456" d="M148 303h-40q18 49 66 78t108 29q75 0 113 -38t29 -103l-38 -269h-37l7 68q-56 -73 -157 -73q-64 0 -102.5 29.5t-38.5 81.5q0 145 213 145h110l3 18q8 50 -20 77.5t-87 27.5q-47 0 -81 -19t-48 -52zM205 31q60 0 107 34.5t56 94.5l8 55h-111q-88 0 -127 -25t-39 -79 q0 -38 28.5 -59t77.5 -21zM173 531l5 35h260l-5 -35h-260z" />
<glyph unicode="&#x102;" horiz-adv-x="687" d="M618 0l-65 219h-358l-126 -219h-45l422 730l217 -730h-45zM432 631l-214 -371h322zM452 772q-43 0 -78 23.5t-34 60.5h36q4 -23 27.5 -37t52.5 -14t57 14t39 37h36q-11 -37 -52 -60.5t-84 -23.5z" />
<glyph unicode="&#x103;" horiz-adv-x="456" d="M148 303h-40q18 49 66 78t108 29q75 0 113 -38t29 -103l-38 -269h-37l7 68q-56 -73 -157 -73q-64 0 -102.5 29.5t-38.5 81.5q0 145 213 145h110l3 18q8 50 -20 77.5t-87 27.5q-47 0 -81 -19t-48 -52zM205 31q60 0 107 34.5t56 94.5l8 55h-111q-88 0 -127 -25t-39 -79 q0 -38 28.5 -59t77.5 -21zM303 531q-43 0 -77.5 26t-33.5 67h36q4 -26 27.5 -41t52.5 -15t57 15t39 41h36q-11 -41 -52.5 -67t-84.5 -26z" />
<glyph unicode="&#x104;" horiz-adv-x="687" d="M618 0l-65 219h-358l-126 -219h-45l422 730l217 -730h-6q-87 -60 -87 -113q0 -24 17.5 -36.5t44.5 -12.5q24 0 50 9l-6 -37q-32 -9 -54 -9q-39 0 -64.5 21t-25.5 57q0 67 86 121zM432 631l-214 -371h322z" />
<glyph unicode="&#x105;" horiz-adv-x="456" d="M148 303h-40q18 49 66 78t108 29q75 0 113 -38t29 -103l-38 -269q-87 -60 -87 -113q0 -24 18 -36.5t45 -12.5q24 0 49 9l-6 -37q-31 -9 -52 -9q-40 0 -66 21t-26 57q0 70 88 122l7 67q-56 -73 -157 -73q-64 0 -102.5 29.5t-38.5 81.5q0 145 213 145h110l3 18 q8 50 -20 77.5t-87 27.5q-47 0 -81 -19t-48 -52zM205 31q60 0 107 34.5t56 94.5l8 55h-111q-88 0 -127 -25t-39 -79q0 -38 28.5 -59t77.5 -21z" />
<glyph unicode="&#x106;" horiz-adv-x="800" d="M104 350q22 150 141.5 255t271.5 105q120 0 200 -62.5t104 -165.5h-47q-21 80 -89.5 133t-171.5 53q-135 0 -240 -92t-125 -226q-18 -134 61 -226t214 -92q105 0 191.5 55.5t126.5 138.5h47q-49 -107 -149.5 -171.5t-222.5 -64.5q-152 0 -242 105t-70 255zM607 886 l27 -39l-161 -87l-19 19z" />
<glyph unicode="&#x107;" horiz-adv-x="481" d="M303 373q-79 0 -135 -57t-56 -139q0 -66 39.5 -107.5t103.5 -41.5q56 0 97.5 23.5t61.5 62.5h41q-25 -57 -80.5 -90t-124.5 -33q-79 0 -129 53t-50 131q0 96 70 165.5t167 69.5q68 0 113.5 -34t54.5 -89h-41q-10 38 -43.5 62t-88.5 24zM404 654l26 -43l-161 -96l-19 21z " />
<glyph unicode="&#x108;" horiz-adv-x="800" d="M104 350q22 150 141.5 255t271.5 105q120 0 200 -62.5t104 -165.5h-47q-21 80 -89.5 133t-171.5 53q-135 0 -240 -92t-125 -226q-18 -134 61 -226t214 -92q105 0 191.5 55.5t126.5 138.5h47q-49 -107 -149.5 -171.5t-222.5 -64.5q-152 0 -242 105t-70 255zM551 867 l106 -83l-24 -23l-88 60l-104 -60l-18 23z" />
<glyph unicode="&#x109;" horiz-adv-x="481" d="M303 373q-79 0 -135 -57t-56 -139q0 -66 39.5 -107.5t103.5 -41.5q56 0 97.5 23.5t61.5 62.5h41q-25 -57 -80.5 -90t-124.5 -33q-79 0 -129 53t-50 131q0 96 70 165.5t167 69.5q68 0 113.5 -34t54.5 -89h-41q-10 38 -43.5 62t-88.5 24zM348 633l104 -92l-24 -25l-87 66 l-105 -66l-18 25z" />
<glyph unicode="&#x10a;" horiz-adv-x="800" d="M104 350q22 150 141.5 255t271.5 105q120 0 200 -62.5t104 -165.5h-47q-21 80 -89.5 133t-171.5 53q-135 0 -240 -92t-125 -226q-18 -134 61 -226t214 -92q105 0 191.5 55.5t126.5 138.5h47q-49 -107 -149.5 -171.5t-222.5 -64.5q-152 0 -242 105t-70 255zM505 791 q0 14 10 23.5t25 9.5q12 0 20 -7.5t8 -18.5q0 -13 -11 -22t-26 -9q-26 0 -26 24z" />
<glyph unicode="&#x10b;" horiz-adv-x="481" d="M303 373q-79 0 -135 -57t-56 -139q0 -66 39.5 -107.5t103.5 -41.5q56 0 97.5 23.5t61.5 62.5h41q-25 -57 -80.5 -90t-124.5 -33q-79 0 -129 53t-50 131q0 96 70 165.5t167 69.5q68 0 113.5 -34t54.5 -89h-41q-10 38 -43.5 62t-88.5 24zM305 544q0 15 10.5 25.5t24.5 10.5 q13 0 21 -8t8 -20q0 -15 -10.5 -25t-25.5 -10q-13 0 -20.5 7.5t-7.5 19.5z" />
<glyph unicode="&#x10c;" horiz-adv-x="800" d="M104 350q22 150 141.5 255t271.5 105q120 0 200 -62.5t104 -165.5h-47q-21 80 -89.5 133t-171.5 53q-135 0 -240 -92t-125 -226q-18 -134 61 -226t214 -92q105 0 191.5 55.5t126.5 138.5h47q-49 -107 -149.5 -171.5t-222.5 -64.5q-152 0 -242 105t-70 255zM659 840 l-129 -82l-105 82l25 23l87 -60l105 60z" />
<glyph unicode="&#x10d;" horiz-adv-x="481" d="M303 373q-79 0 -135 -57t-56 -139q0 -66 39.5 -107.5t103.5 -41.5q56 0 97.5 23.5t61.5 62.5h41q-25 -57 -80.5 -90t-124.5 -33q-79 0 -129 53t-50 131q0 96 70 165.5t167 69.5q68 0 113.5 -34t54.5 -89h-41q-10 38 -43.5 62t-88.5 24zM462 606l-130 -92l-104 92l25 25 l86 -66l106 66z" />
<glyph unicode="&#x10e;" horiz-adv-x="732" d="M90 0l99 700h234q139 0 221 -85t82 -218q0 -168 -111 -282.5t-283 -114.5h-242zM338 41q154 1 249.5 101t95.5 252q0 117 -72 191t-194 74h-191l-87 -618h199zM592 840l-129 -82l-105 82l24 23l87 -60l105 60z" />
<glyph unicode="&#x10f;" horiz-adv-x="629" d="M245 28q83 0 135 58.5t52 141.5q0 64 -36.5 104.5t-101.5 40.5q-76 0 -128.5 -58t-52.5 -138q0 -65 35 -107t97 -42zM402 0l7 73q-27 -39 -72 -60.5t-96 -21.5q-80 0 -125 50t-45 130q0 101 65 170t163 69q51 0 89 -21.5t58 -58.5l45 323h41l-91 -653h-39zM685 706 l45 -13l-109 -187l-28 11z" />
<glyph unicode="&#x110;" horiz-adv-x="732" d="M90 0l41 292h-60l5 37h60l53 371h234q139 0 221 -85t82 -218q0 -168 -111 -282.5t-283 -114.5h-242zM337 41q154 1 249.5 101t95.5 252q0 117 -71.5 191t-194.5 74h-191l-46 -330h226l-5 -37h-226l-36 -251h199z" />
<glyph unicode="&#x111;" horiz-adv-x="517" d="M351 531l5 35h123l12 87h41l-12 -87h76l-5 -35h-76l-74 -531h-39l7 73q-27 -39 -72 -60.5t-96 -21.5q-80 0 -125 50t-45 130q0 101 65 170t163 69q51 0 89 -21.5t58 -58.5l28 201h-123zM245 28q83 0 135 58.5t52 141.5q0 64 -36.5 104.5t-101.5 40.5q-76 0 -128.5 -58 t-52.5 -138q0 -65 35 -107t97 -42z" />
<glyph unicode="&#x112;" horiz-adv-x="597" d="M628 659h-402l-37 -259h374l-5 -41h-374l-45 -318h402l-6 -41h-445l99 700h445zM308 775l4 31h260l-4 -31h-260z" />
<glyph unicode="&#x113;" horiz-adv-x="485" d="M461 184h-350q-5 -70 34 -113.5t111 -43.5q55 0 94 24.5t56 62.5h40q-19 -54 -73 -88.5t-122 -34.5q-83 0 -131.5 51.5t-48.5 129.5q0 98 69 168t166 70q76 0 120.5 -50t44.5 -121q0 -32 -10 -55zM301 374q-67 0 -117.5 -43t-65.5 -111h312q8 61 -26.5 107.5t-102.5 46.5 zM186 531l6 35h260l-6 -35h-260z" />
<glyph unicode="&#x114;" horiz-adv-x="597" d="M628 659h-402l-37 -259h374l-5 -41h-374l-45 -318h402l-6 -41h-445l99 700h445zM437 772q-43 0 -78 23.5t-34 60.5h36q4 -23 27.5 -37t52.5 -14t57 14t39 37h36q-11 -37 -52 -60.5t-84 -23.5z" />
<glyph unicode="&#x115;" horiz-adv-x="485" d="M461 184h-350q-5 -70 34 -113.5t111 -43.5q55 0 94 24.5t56 62.5h40q-19 -54 -73 -88.5t-122 -34.5q-83 0 -131.5 51.5t-48.5 129.5q0 98 69 168t166 70q76 0 120.5 -50t44.5 -121q0 -32 -10 -55zM301 374q-67 0 -117.5 -43t-65.5 -111h312q8 61 -26.5 107.5t-102.5 46.5 zM316 531q-43 0 -77 26t-33 67h36q3 -26 27 -41t53 -15t57 15t39 41h36q-11 -41 -53 -67t-85 -26z" />
<glyph unicode="&#x116;" horiz-adv-x="597" d="M628 659h-402l-37 -259h374l-5 -41h-374l-45 -318h402l-6 -41h-445l99 700h445zM409 792q0 13 10.5 22.5t25.5 9.5q12 0 19.5 -7.5t7.5 -18.5q0 -13 -10.5 -22t-25.5 -9q-12 0 -19.5 7t-7.5 18z" />
<glyph unicode="&#x117;" horiz-adv-x="485" d="M461 184h-350q-5 -70 34 -113.5t111 -43.5q55 0 94 24.5t56 62.5h40q-19 -54 -73 -88.5t-122 -34.5q-83 0 -131.5 51.5t-48.5 129.5q0 98 69 168t166 70q76 0 120.5 -50t44.5 -121q0 -32 -10 -55zM301 374q-67 0 -117.5 -43t-65.5 -111h312q8 61 -26.5 107.5t-102.5 46.5 zM287 544q0 15 11 25.5t25 10.5q13 0 20.5 -8t7.5 -20q0 -15 -10.5 -25t-25.5 -10q-13 0 -20.5 7.5t-7.5 19.5z" />
<glyph unicode="&#x118;" horiz-adv-x="597" d="M628 659h-402l-37 -259h374l-5 -41h-374l-45 -318h402l-6 -41h-26q-87 -60 -87 -113q0 -24 17.5 -36.5t44.5 -12.5q24 0 50 9l-5 -37q-32 -9 -54 -9q-39 0 -65 21t-26 57q0 67 86 121h-380l99 700h445z" />
<glyph unicode="&#x119;" horiz-adv-x="485" d="M461 184h-350q-5 -70 34 -113.5t111 -43.5q55 0 94 24.5t56 62.5h40q-16 -41 -52 -72t-84 -43q-85 -55 -85 -112q0 -24 17.5 -36.5t44.5 -12.5q25 0 50 9l-5 -37q-32 -9 -54 -9q-40 0 -66 21t-26 57q0 60 74 112h-9q-83 0 -131.5 51.5t-48.5 129.5q0 98 69 168t166 70 q76 0 120.5 -50t44.5 -121q0 -32 -10 -55zM301 374q-67 0 -117.5 -43t-65.5 -111h312q8 61 -26.5 107.5t-102.5 46.5z" />
<glyph unicode="&#x11a;" horiz-adv-x="597" d="M628 659h-402l-37 -259h374l-5 -41h-374l-45 -318h402l-6 -41h-445l99 700h445zM564 840l-129 -82l-105 82l24 23l87 -60l105 60z" />
<glyph unicode="&#x11b;" horiz-adv-x="485" d="M461 184h-350q-5 -70 34 -113.5t111 -43.5q55 0 94 24.5t56 62.5h40q-19 -54 -73 -88.5t-122 -34.5q-83 0 -131.5 51.5t-48.5 129.5q0 98 69 168t166 70q76 0 120.5 -50t44.5 -121q0 -32 -10 -55zM301 374q-67 0 -117.5 -43t-65.5 -111h312q8 61 -26.5 107.5t-102.5 46.5 zM444 606l-130 -92l-104 92l25 25l86 -66l106 66z" />
<glyph unicode="&#x11c;" horiz-adv-x="827" d="M772 322h-301l6 41h346l-2 -13q-25 -163 -138.5 -261t-270.5 -98q-134 0 -222 91.5t-88 225.5q0 107 57.5 200t153.5 147.5t205 54.5q120 0 199 -62.5t104 -165.5h-47q-22 80 -90 133t-171 53q-148 0 -257.5 -105t-109.5 -252q0 -119 77 -198.5t196 -79.5q131 0 232 83.5 t121 205.5zM536 867l105 -83l-24 -23l-88 60l-104 -60l-18 23z" />
<glyph unicode="&#x11d;" horiz-adv-x="461" d="M97 222q0 75 59 131.5t136 56.5h192l-4 -30l-92 -4q53 -38 53 -116q0 -75 -59 -131t-137 -56q-61 0 -107 41q-58 -16 -58 -63q0 -51 79 -51h93q83 0 126 -33.5t43 -94.5q0 -79 -60 -129.5t-163 -50.5q-88 0 -134 40.5t-46 100.5q0 46 25.5 83.5t58.5 55.5q-63 18 -63 74 q0 70 81 97q-23 23 -23 79zM248 -35h-102q-36 -16 -61.5 -50.5t-25.5 -77.5q0 -48 37 -78.5t107 -30.5q87 0 133 39t46 103q0 95 -134 95zM137 224q0 -50 32 -82.5t81 -32.5q60 0 105.5 43t45.5 105q0 50 -32.5 83.5t-81.5 33.5q-60 0 -105 -44t-45 -106zM330 633l104 -92 l-25 -25l-86 66l-106 -66l-17 25z" />
<glyph unicode="&#x11e;" horiz-adv-x="827" d="M772 322h-301l6 41h346l-2 -13q-25 -163 -138.5 -261t-270.5 -98q-134 0 -222 91.5t-88 225.5q0 107 57.5 200t153.5 147.5t205 54.5q120 0 199 -62.5t104 -165.5h-47q-22 80 -90 133t-171 53q-148 0 -257.5 -105t-109.5 -252q0 -119 77 -198.5t196 -79.5q131 0 232 83.5 t121 205.5zM523 772q-43 0 -78 23.5t-35 60.5h36q4 -24 28 -37.5t53 -13.5t57 14t38 37h36q-10 -37 -51 -60.5t-84 -23.5z" />
<glyph unicode="&#x11f;" horiz-adv-x="461" d="M97 222q0 75 59 131.5t136 56.5h192l-4 -30l-92 -4q53 -38 53 -116q0 -75 -59 -131t-137 -56q-61 0 -107 41q-58 -16 -58 -63q0 -51 79 -51h93q83 0 126 -33.5t43 -94.5q0 -79 -60 -129.5t-163 -50.5q-88 0 -134 40.5t-46 100.5q0 46 25.5 83.5t58.5 55.5q-63 18 -63 74 q0 70 81 97q-23 23 -23 79zM248 -35h-102q-36 -16 -61.5 -50.5t-25.5 -77.5q0 -48 37 -78.5t107 -30.5q87 0 133 39t46 103q0 95 -134 95zM137 224q0 -50 32 -82.5t81 -32.5q60 0 105.5 43t45.5 105q0 50 -32.5 83.5t-81.5 33.5q-60 0 -105 -44t-45 -106zM315 531 q-43 0 -77.5 26t-33.5 67h36q4 -26 27.5 -41t52.5 -15t57 15t39 41h36q-11 -41 -52.5 -67t-84.5 -26z" />
<glyph unicode="&#x120;" horiz-adv-x="827" d="M772 322h-301l6 41h346l-2 -13q-25 -163 -138.5 -261t-270.5 -98q-134 0 -222 91.5t-88 225.5q0 107 57.5 200t153.5 147.5t205 54.5q120 0 199 -62.5t104 -165.5h-47q-22 80 -90 133t-171 53q-148 0 -257.5 -105t-109.5 -252q0 -119 77 -198.5t196 -79.5q131 0 232 83.5 t121 205.5zM494 792q0 13 10.5 22.5t25.5 9.5q12 0 20 -7.5t8 -18.5q0 -13 -10.5 -22t-25.5 -9q-28 0 -28 25z" />
<glyph unicode="&#x121;" horiz-adv-x="461" d="M97 222q0 75 59 131.5t136 56.5h192l-4 -30l-92 -4q53 -38 53 -116q0 -75 -59 -131t-137 -56q-61 0 -107 41q-58 -16 -58 -63q0 -51 79 -51h93q83 0 126 -33.5t43 -94.5q0 -79 -60 -129.5t-163 -50.5q-88 0 -134 40.5t-46 100.5q0 46 25.5 83.5t58.5 55.5q-63 18 -63 74 q0 70 81 97q-23 23 -23 79zM248 -35h-102q-36 -16 -61.5 -50.5t-25.5 -77.5q0 -48 37 -78.5t107 -30.5q87 0 133 39t46 103q0 95 -134 95zM137 224q0 -50 32 -82.5t81 -32.5q60 0 105.5 43t45.5 105q0 50 -32.5 83.5t-81.5 33.5q-60 0 -105 -44t-45 -106zM286 544 q0 15 10.5 25.5t25.5 10.5q12 0 20 -8t8 -20q0 -15 -11 -25t-26 -10q-12 0 -19.5 7.5t-7.5 19.5z" />
<glyph unicode="&#x122;" horiz-adv-x="827" d="M772 322h-301l6 41h346l-2 -13q-25 -163 -138.5 -261t-270.5 -98q-134 0 -222 91.5t-88 225.5q0 107 57.5 200t153.5 147.5t205 54.5q120 0 199 -62.5t104 -165.5h-47q-22 80 -90 133t-171 53q-148 0 -257.5 -105t-109.5 -252q0 -119 77 -198.5t196 -79.5q131 0 232 83.5 t121 205.5zM390 -84l45 -13l-110 -187l-28 11z" />
<glyph unicode="&#x123;" horiz-adv-x="461" d="M97 222q0 75 59 131.5t136 56.5h192l-4 -30l-92 -4q53 -38 53 -116q0 -75 -59 -131t-137 -56q-61 0 -107 41q-58 -16 -58 -63q0 -51 79 -51h93q83 0 126 -33.5t43 -94.5q0 -79 -60 -129.5t-163 -50.5q-88 0 -134 40.5t-46 100.5q0 46 25.5 83.5t58.5 55.5q-63 18 -63 74 q0 70 81 97q-23 23 -23 79zM248 -35h-102q-36 -16 -61.5 -50.5t-25.5 -77.5q0 -48 37 -78.5t107 -30.5q87 0 133 39t46 103q0 95 -134 95zM137 224q0 -50 32 -82.5t81 -32.5q60 0 105.5 43t45.5 105q0 50 -32.5 83.5t-81.5 33.5q-60 0 -105 -44t-45 -106zM322 506l-44 13 l109 187l28 -11z" />
<glyph unicode="&#x124;" horiz-adv-x="723" d="M732 700l-99 -700h-43l51 359h-457l-51 -359h-43l99 700h43l-43 -300h457l43 300h43zM483 867l106 -83l-24 -23l-88 60l-104 -60l-18 23z" />
<glyph unicode="&#x125;" horiz-adv-x="502" d="M76 0l91 653h41l-42 -308q72 65 164 65q74 0 110 -46.5t25 -126.5l-33 -237h-41l34 237q9 64 -18.5 100t-86.5 36q-88 0 -161 -73l-42 -300h-41zM218 867l105 -83l-24 -23l-88 60l-104 -60l-18 23z" />
<glyph unicode="&#x126;" horiz-adv-x="723" d="M86 531l5 35h79l19 134h43l-19 -134h457l19 134h43l-19 -134h78l-5 -35h-78l-75 -531h-43l51 359h-457l-51 -359h-43l75 531h-79zM189 400h457l19 131h-457z" />
<glyph unicode="&#x127;" horiz-adv-x="502" d="M75 531l5 35h76l11 87h41l-11 -87h123l-5 -35h-123l-26 -186q72 65 164 65q74 0 110 -46.5t25 -126.5l-33 -237h-41l34 237q9 64 -18.5 100t-86.5 36q-88 0 -161 -73l-42 -300h-41l75 531h-76z" />
<glyph unicode="&#x128;" horiz-adv-x="251" d="M246 700l-99 -700h-43l99 700h43zM129 771l-23 17q31 50 77 50q21 0 60 -16t57 -16q26 0 49 32l21 -15q-8 -22 -31 -37t-49 -15q-17 0 -57.5 16.5t-58.5 16.5q-25 0 -45 -33z" />
<glyph unicode="&#x129;" horiz-adv-x="201" d="M80 0l56 400h41l-56 -400h-41zM70 527l-23 19q13 23 34 39t44 16q21 0 59.5 -17.5t56.5 -17.5q26 0 50 35l21 -17q-9 -25 -32 -41t-49 -16q-17 0 -57 18t-58 18q-26 0 -46 -36z" />
<glyph unicode="&#x12a;" horiz-adv-x="251" d="M246 700l-99 -700h-43l99 700h43zM105 775l4 31h260l-4 -31h-260z" />
<glyph unicode="&#x12b;" horiz-adv-x="201" d="M80 0l56 400h41l-56 -400h-41zM46 531l5 35h260l-5 -35h-260z" />
<glyph unicode="&#x12c;" horiz-adv-x="251" d="M246 700l-99 -700h-43l99 700h43zM233 772q-43 0 -77.5 23.5t-33.5 60.5h36q4 -23 27.5 -37t52.5 -14t57 14t39 37h36q-11 -37 -52.5 -60.5t-84.5 -23.5z" />
<glyph unicode="&#x12d;" horiz-adv-x="201" d="M80 0l57 400h41l-57 -400h-41zM176 531q-43 0 -77.5 26t-33.5 67h36q4 -26 27.5 -41t52.5 -15t57 15t39 41h36q-11 -41 -52.5 -67t-84.5 -26z" />
<glyph unicode="&#x12e;" horiz-adv-x="251" d="M246 700l-99 -700h-4q-87 -60 -87 -113q0 -24 18 -36.5t45 -12.5q23 0 49 9l-6 -37q-31 -9 -52 -9q-40 0 -66 21t-26 57q0 67 86 121l99 700h43z" />
<glyph unicode="&#x12f;" horiz-adv-x="201" d="M80 0l57 400h41l-57 -400h-2q-87 -60 -87 -113q0 -24 18 -36.5t45 -12.5q23 0 49 9l-6 -37q-31 -9 -52 -9q-40 0 -66 21t-26 57q0 67 86 121zM147 544q0 15 10 25.5t25 10.5q13 0 21 -8t8 -20q0 -15 -11.5 -25t-26.5 -10q-26 0 -26 27z" />
<glyph unicode="&#x130;" horiz-adv-x="251" d="M246 700l-99 -700h-43l99 700h43zM206 791q0 14 10 23.5t25 9.5q12 0 20 -7.5t8 -18.5q0 -13 -11 -22t-26 -9q-26 0 -26 24z" />
<glyph unicode="&#x131;" horiz-adv-x="201" d="M80 0l56 400h41l-56 -400h-41z" />
<glyph unicode="&#x132;" horiz-adv-x="754" d="M246 700l-99 -700h-43l99 700h43zM652 189l72 511h43l-72 -511q-12 -87 -79.5 -142.5t-160.5 -55.5q-77 0 -129 42.5t-54 109.5h42q3 -50 43 -82t104 -32q77 0 129 44t62 116z" />
<glyph unicode="&#x133;" horiz-adv-x="402" d="M80 0l56 400h41l-56 -400h-41zM145 544q0 14 10.5 25t25.5 11q12 0 20 -8t8 -20q0 -15 -10.5 -25t-25.5 -10q-13 0 -20.5 7.5t-7.5 19.5zM378 400l-70 -497q-26 -184 -194 -160l5 37q128 -19 147 123l70 497h42zM346 544q0 15 11 25.5t25 10.5q13 0 20.5 -8t7.5 -20 q0 -15 -10.5 -25t-25.5 -10q-13 0 -20.5 7.5t-7.5 19.5z" />
<glyph unicode="&#x134;" horiz-adv-x="503" d="M401 189l72 511h43l-72 -511q-12 -87 -79 -142.5t-160 -55.5q-77 0 -129 42.5t-55 109.5h42q4 -50 44 -82t103 -32q77 0 129 44t62 116zM518 867l106 -83l-25 -23l-88 60l-104 -60l-17 23z" />
<glyph unicode="&#x135;" horiz-adv-x="201" d="M177 400l-70 -497q-13 -90 -61.5 -131t-131.5 -29l5 37q128 -19 147 123l70 497h41zM190 633l104 -92l-25 -25l-86 66l-106 -66l-17 25z" />
<glyph unicode="&#x136;" horiz-adv-x="598" d="M523 0l-267 379l-78 -62l-45 -317h-43l99 700h43l-46 -328l422 328h62l-379 -295l287 -405h-55zM283 -84l45 -13l-110 -187l-28 11z" />
<glyph unicode="&#x137;" horiz-adv-x="426" d="M362 0l-156 223l-64 -46l-25 -177h-41l92 653h41l-61 -429l242 176h62l-211 -154l175 -246h-54zM201 -84l45 -13l-110 -187l-28 11z" />
<glyph unicode="&#x138;" horiz-adv-x="426" d="M362 0l-157 223l-63 -46l-25 -177h-41l56 400h41l-25 -176l242 176h62l-211 -154l175 -246h-54z" />
<glyph unicode="&#x139;" horiz-adv-x="535" d="M188 700h43l-93 -659h382l-5 -41h-425zM289 886l27 -39l-161 -87l-19 19z" />
<glyph unicode="&#x13a;" horiz-adv-x="197" d="M210 653l-91 -653h-41l91 653h41zM275 886l27 -39l-161 -87l-19 19z" />
<glyph unicode="&#x13b;" horiz-adv-x="535" d="M189 700h43l-93 -659h382l-6 -41h-425zM281 -84l45 -13l-110 -187l-28 11z" />
<glyph unicode="&#x13c;" horiz-adv-x="197" d="M212 653l-93 -653h-41l93 653h41zM64 -84l45 -13l-110 -187l-28 11z" />
<glyph unicode="&#x13d;" horiz-adv-x="535" d="M189 700h43l-93 -659h382l-6 -41h-425zM432 706l45 -13l-110 -187l-28 11z" />
<glyph unicode="&#x13e;" horiz-adv-x="307" d="M211 653l-92 -653h-41l92 653h41zM364 706l45 -13l-109 -187l-29 11z" />
<glyph unicode="&#x13f;" horiz-adv-x="535" d="M189 700h43l-93 -659h382l-6 -41h-425zM340 307q0 16 13.5 29.5t30.5 13.5q15 0 25 -10.5t10 -24.5q0 -17 -14 -30t-32 -13q-14 0 -23.5 10t-9.5 25z" />
<glyph unicode="&#x140;" horiz-adv-x="314" d="M211 653l-92 -653h-41l92 653h41zM256 307q0 16 13.5 29.5t30.5 13.5q15 0 25 -10.5t10 -24.5q0 -16 -14 -29.5t-31 -13.5q-14 0 -24 10.5t-10 24.5z" />
<glyph unicode="&#x141;" horiz-adv-x="535" d="M65 244l-15 32l85 45l54 379h43l-50 -354l244 130l13 -32l-263 -141l-37 -262h382l-6 -41h-425l39 278z" />
<glyph unicode="&#x142;" horiz-adv-x="197" d="M211 653l-44 -312l59 32l14 -32l-79 -43l-42 -298h-41l39 275l-58 -31l-15 32l79 42l47 335h41z" />
<glyph unicode="&#x143;" horiz-adv-x="746" d="M755 700l-103 -731l-433 635l-86 -604h-43l101 716l435 -630l86 614h43zM551 886l27 -39l-161 -87l-19 19z" />
<glyph unicode="&#x144;" horiz-adv-x="498" d="M72 0l56 400h37l-4 -57q79 67 165 67q74 0 110 -46.5t25 -126.5l-33 -237h-41l34 237q9 64 -18.5 100t-86.5 36q-88 0 -161 -75l-42 -298h-41zM395 654l25 -43l-161 -96l-19 21z" />
<glyph unicode="&#x145;" horiz-adv-x="746" d="M755 700l-103 -731l-433 635l-86 -604h-43l101 716l435 -630l86 614h43zM372 -84l45 -13l-110 -187l-28 11z" />
<glyph unicode="&#x146;" horiz-adv-x="498" d="M72 0l56 400h37l-4 -57q79 67 165 67q74 0 110 -46.5t25 -126.5l-33 -237h-41l34 237q9 64 -18.5 100t-86.5 36q-88 0 -161 -75l-42 -298h-41zM246 -84l46 -13l-110 -187l-28 11z" />
<glyph unicode="&#x147;" horiz-adv-x="746" d="M755 700l-103 -731l-433 635l-86 -604h-43l101 716l435 -630l86 614h43zM609 840l-129 -82l-105 82l24 23l87 -60l105 60z" />
<glyph unicode="&#x148;" horiz-adv-x="498" d="M72 0l56 400h37l-4 -57q79 67 165 67q74 0 110 -46.5t25 -126.5l-33 -237h-41l34 237q9 64 -18.5 100t-86.5 36q-88 0 -161 -75l-42 -298h-41zM451 606l-130 -92l-104 92l25 25l86 -66l106 66z" />
<glyph unicode="&#x149;" horiz-adv-x="518" d="M92 0l56 400h37l-4 -57q79 67 165 67q74 0 110.5 -46.5t25.5 -126.5l-33 -237h-42l34 237q9 64 -18 100t-86 36q-87 0 -162 -75l-42 -298h-41zM158 706l45 -13l-110 -187l-28 11z" />
<glyph unicode="&#x14a;" horiz-adv-x="746" d="M605 -61l11 82l-397 583l-86 -604h-43l101 716l435 -630l86 614h43l-107 -761q-12 -87 -79.5 -142.5t-160.5 -55.5q-77 0 -129 42.5t-55 109.5h42q5 -51 44.5 -82.5t102.5 -31.5q77 0 129.5 44t62.5 116z" />
<glyph unicode="&#x14b;" horiz-adv-x="498" d="M72 0l56 400h37l-4 -57q79 67 165 67q74 0 110 -46.5t25 -126.5l-46 -334q-26 -184 -195 -160l6 37q127 -19 148 123l47 334q9 64 -18.5 100t-86.5 36q-88 0 -161 -75l-42 -298h-41z" />
<glyph unicode="&#x14c;" horiz-adv-x="831" d="M102 308q0 107 58 200.5t153 147.5t202 54q135 0 224 -92t89 -226q0 -107 -58 -200t-153.5 -147t-202.5 -54q-135 0 -223.5 91.5t-88.5 225.5zM146 312q0 -120 77.5 -199.5t196.5 -79.5q145 0 254.5 104.5t109.5 250.5q0 120 -77.5 200t-196.5 80q-145 0 -254.5 -105 t-109.5 -251zM395 775l4 31h260l-4 -31h-260z" />
<glyph unicode="&#x14d;" horiz-adv-x="499" d="M69 175q0 95 71 165t166 70q78 0 128.5 -53.5t50.5 -131.5q0 -95 -71 -164.5t-166 -69.5q-78 0 -128.5 53t-50.5 131zM111 177q0 -66 39 -107.5t102 -41.5q78 0 135 56.5t57 138.5q0 65 -40 107.5t-103 42.5q-78 0 -134 -57t-56 -139zM193 531l6 35h260l-6 -35h-260z" />
<glyph unicode="&#x14e;" horiz-adv-x="831" d="M102 308q0 107 58 200.5t153 147.5t202 54q135 0 224 -92t89 -226q0 -107 -58 -200t-153.5 -147t-202.5 -54q-135 0 -223.5 91.5t-88.5 225.5zM146 312q0 -120 77.5 -199.5t196.5 -79.5q145 0 254.5 104.5t109.5 250.5q0 120 -77.5 200t-196.5 80q-145 0 -254.5 -105 t-109.5 -251zM524 772q-43 0 -78 23.5t-34 60.5h36q4 -23 27.5 -37t52.5 -14t57 14t39 37h36q-11 -37 -52 -60.5t-84 -23.5z" />
<glyph unicode="&#x14f;" horiz-adv-x="499" d="M69 175q0 95 71 165t166 70q78 0 128.5 -53.5t50.5 -131.5q0 -95 -71 -164.5t-166 -69.5q-78 0 -128.5 53t-50.5 131zM111 177q0 -66 39 -107.5t102 -41.5q78 0 135 56.5t57 138.5q0 65 -40 107.5t-103 42.5q-78 0 -134 -57t-56 -139zM323 531q-43 0 -77 26t-33 67h36 q3 -26 27 -41t53 -15t57 15t39 41h36q-11 -41 -53 -67t-85 -26z" />
<glyph unicode="&#x150;" horiz-adv-x="831" d="M102 308q0 107 58 200.5t153 147.5t202 54q135 0 224 -92t89 -226q0 -107 -58 -200t-153.5 -147t-202.5 -54q-135 0 -223.5 91.5t-88.5 225.5zM146 312q0 -120 77.5 -199.5t196.5 -79.5q145 0 254.5 104.5t109.5 250.5q0 120 -77.5 200t-196.5 80q-145 0 -254.5 -105 t-109.5 -251zM571 900l-109 -137l-29 16l92 138zM735 900l-109 -137l-29 16l92 138z" />
<glyph unicode="&#x151;" horiz-adv-x="499" d="M69 175q0 95 71 165t166 70q78 0 128.5 -53.5t50.5 -131.5q0 -95 -71 -164.5t-166 -69.5q-78 0 -128.5 53t-50.5 131zM111 177q0 -66 39 -107.5t102 -41.5q78 0 135 56.5t57 138.5q0 65 -40 107.5t-103 42.5q-78 0 -134 -57t-56 -139zM372 667l-111 -152l-30 17l96 154z M536 667l-111 -152l-30 17l96 154z" />
<glyph unicode="&#x152;" horiz-adv-x="1238" d="M1269 659h-402l-37 -259h374l-5 -41h-374l-46 -318h402l-5 -41h-445l26 180q-58 -86 -150 -137.5t-193 -51.5q-135 0 -223.5 91.5t-88.5 225.5q0 107 58 200.5t153 147.5t202 54q101 0 178 -52t111 -138l26 180h445zM146 312q0 -120 77.5 -199.5t196.5 -79.5 q145 0 254.5 104.5t109.5 250.5q0 120 -77.5 200t-196.5 80q-145 0 -254.5 -105t-109.5 -251z" />
<glyph unicode="&#x153;" horiz-adv-x="853" d="M829 184h-350q-5 -72 34 -114.5t111 -42.5q55 0 94 24.5t56 62.5h40q-20 -54 -74 -88.5t-121 -34.5q-66 0 -110.5 31t-61.5 84q-33 -53 -86 -84t-114 -31q-78 0 -128 53t-50 131q0 95 71 165t166 70q60 0 105 -32t63 -85q32 53 84.5 85t114.5 32q77 0 121.5 -50 t44.5 -121q0 -32 -10 -55zM110 177q0 -65 39.5 -107t102.5 -42q78 0 134.5 56.5t56.5 140.5q0 65 -40 106.5t-102 41.5q-78 0 -134.5 -57t-56.5 -139zM668 374q-66 0 -116.5 -43t-66.5 -111h312q9 61 -25.5 107.5t-103.5 46.5z" />
<glyph unicode="&#x154;" horiz-adv-x="622" d="M178 314l-45 -314h-43l99 700h246q93 0 149.5 -40t56.5 -126q0 -54 -21 -97.5t-55 -69.5t-73.5 -39.5t-78.5 -13.5l173 -314h-50l-173 314h-185zM183 355h205q59 0 103.5 14.5t75 55t30.5 103.5q0 68 -45.5 99.5t-122.5 31.5h-203zM489 886l26 -39l-160 -87l-19 19z" />
<glyph unicode="&#x155;" horiz-adv-x="304" d="M72 0l56 400h37l-4 -57q86 72 185 57l-5 -37q-43 6 -81.5 -4.5t-59 -24.5t-45.5 -36l-42 -298h-41zM318 654l25 -43l-161 -96l-19 21z" />
<glyph unicode="&#x156;" horiz-adv-x="622" d="M178 314l-45 -314h-43l99 700h246q93 0 149.5 -40t56.5 -126q0 -54 -21 -97.5t-55 -69.5t-73.5 -39.5t-78.5 -13.5l173 -314h-50l-173 314h-185zM183 355h205q59 0 103.5 14.5t75 55t30.5 103.5q0 68 -45.5 99.5t-122.5 31.5h-203zM292 -84l45 -13l-110 -187l-28 11z" />
<glyph unicode="&#x157;" horiz-adv-x="304" d="M72 0l57 400h37l-4 -57q86 71 185 57l-5 -37q-98 15 -187 -65l-42 -298h-41zM58 -84l45 -13l-110 -187l-28 11z" />
<glyph unicode="&#x158;" horiz-adv-x="622" d="M178 314l-45 -314h-43l99 700h246q93 0 149.5 -40t56.5 -126q0 -54 -21 -97.5t-55 -69.5t-73.5 -39.5t-78.5 -13.5l173 -314h-50l-173 314h-185zM183 355h205q59 0 103.5 14.5t75 55t30.5 103.5q0 68 -45.5 99.5t-122.5 31.5h-203zM547 840l-129 -82l-105 82l24 23 l87 -60l105 60z" />
<glyph unicode="&#x159;" horiz-adv-x="304" d="M72 0l56 400h37l-4 -57q83 72 185 57l-6 -37q-42 6 -81 -4.5t-59 -24t-46 -36.5l-41 -298h-41zM374 606l-130 -92l-104 92l25 25l86 -66l106 66z" />
<glyph unicode="&#x15a;" horiz-adv-x="537" d="M276 31q78 0 138.5 43.5t60.5 117.5q0 56 -44 88t-138 65q-88 33 -129 68.5t-41 100.5q0 77 63.5 136.5t177.5 59.5q83 0 137 -42.5t57 -109.5h-42q-4 50 -47 81t-111 31q-88 0 -140 -46.5t-52 -102.5q0 -53 37 -82t115 -55q103 -38 151.5 -77.5t48.5 -107.5 q0 -95 -74.5 -151.5t-172.5 -56.5q-93 0 -150 42t-60 110h42q4 -51 49 -81.5t124 -30.5zM447 886l27 -39l-161 -87l-19 19z" />
<glyph unicode="&#x15b;" horiz-adv-x="379" d="M193 27q50 0 83.5 21t33.5 62q0 32 -27 49.5t-80 30.5q-109 26 -109 100q0 49 41.5 84.5t110.5 35.5q56 0 89.5 -28.5t35.5 -66.5h-42q-2 23 -23 41t-65 18q-49 0 -77.5 -22t-28.5 -57q0 -29 22.5 -44t68.5 -27q60 -15 92.5 -39t32.5 -69q0 -60 -48 -92.5t-116 -32.5 q-60 0 -97.5 27t-39.5 67h41q3 -23 28.5 -40.5t73.5 -17.5zM334 654l26 -43l-162 -96l-19 21z" />
<glyph unicode="&#x15c;" horiz-adv-x="537" d="M276 31q78 0 138.5 43.5t60.5 117.5q0 56 -44 88t-138 65q-88 33 -129 68.5t-41 100.5q0 77 63.5 136.5t177.5 59.5q83 0 137 -42.5t57 -109.5h-42q-4 50 -47 81t-111 31q-88 0 -140 -46.5t-52 -102.5q0 -53 37 -82t115 -55q103 -38 151.5 -77.5t48.5 -107.5 q0 -95 -74.5 -151.5t-172.5 -56.5q-93 0 -150 42t-60 110h42q4 -51 49 -81.5t124 -30.5zM391 867l106 -83l-25 -23l-88 60l-104 -60l-17 23z" />
<glyph unicode="&#x15d;" horiz-adv-x="379" d="M193 27q50 0 83.5 21t33.5 62q0 32 -27 49.5t-80 30.5q-109 26 -109 100q0 49 41.5 84.5t110.5 35.5q56 0 89.5 -28.5t35.5 -66.5h-42q-2 23 -23 41t-65 18q-49 0 -77.5 -22t-28.5 -57q0 -29 22.5 -44t68.5 -27q60 -15 92.5 -39t32.5 -69q0 -60 -48 -92.5t-116 -32.5 q-60 0 -97.5 27t-39.5 67h41q3 -23 28.5 -40.5t73.5 -17.5zM278 633l104 -92l-25 -25l-86 66l-106 -66l-17 25z" />
<glyph unicode="&#x15e;" horiz-adv-x="537" d="M276 31q78 0 138.5 43.5t60.5 117.5q0 56 -44 88t-138 65q-88 33 -129 68.5t-41 100.5q0 77 63.5 136.5t177.5 59.5q83 0 137 -42.5t57 -109.5h-42q-4 50 -47 81t-111 31q-88 0 -140 -46.5t-52 -102.5q0 -53 37 -82t115 -55q103 -38 151.5 -77.5t48.5 -107.5 q0 -95 -74.5 -151.5t-172.5 -56.5q-93 0 -150 42t-60 110h42q4 -51 49 -81.5t124 -30.5zM295 -57l-113 -154l-28 17l94 154z" />
<glyph unicode="&#x15f;" horiz-adv-x="379" d="M193 27q50 0 83.5 21t33.5 62q0 32 -27 49.5t-80 30.5q-109 26 -109 100q0 49 41.5 84.5t110.5 35.5q56 0 89.5 -28.5t35.5 -66.5h-42q-2 23 -23 41t-65 18q-49 0 -77.5 -22t-28.5 -57q0 -29 22.5 -44t68.5 -27q60 -15 92.5 -39t32.5 -69q0 -60 -48 -92.5t-116 -32.5 q-60 0 -97.5 27t-39.5 67h41q3 -23 28.5 -40.5t73.5 -17.5zM213 -57l-114 -154l-28 17l94 154z" />
<glyph unicode="&#x160;" horiz-adv-x="537" d="M276 31q78 0 138.5 43.5t60.5 117.5q0 56 -44 88t-138 65q-88 33 -129 68.5t-41 100.5q0 77 63.5 136.5t177.5 59.5q83 0 137 -42.5t57 -109.5h-42q-4 50 -47 81t-111 31q-88 0 -140 -46.5t-52 -102.5q0 -53 37 -82t115 -55q103 -38 151.5 -77.5t48.5 -107.5 q0 -95 -74.5 -151.5t-172.5 -56.5q-93 0 -150 42t-60 110h42q4 -51 49 -81.5t124 -30.5zM504 840l-129 -82l-105 82l24 23l88 -60l104 60z" />
<glyph unicode="&#x161;" horiz-adv-x="379" d="M193 27q50 0 83.5 21t33.5 62q0 32 -27 49.5t-80 30.5q-109 26 -109 100q0 49 41.5 84.5t110.5 35.5q56 0 89.5 -28.5t35.5 -66.5h-42q-2 23 -23 41t-65 18q-49 0 -77.5 -22t-28.5 -57q0 -29 22.5 -44t68.5 -27q60 -15 92.5 -39t32.5 -69q0 -60 -48 -92.5t-116 -32.5 q-60 0 -97.5 27t-39.5 67h41q3 -23 28.5 -40.5t73.5 -17.5zM392 606l-130 -92l-104 92l23 25l88 -66l104 66z" />
<glyph unicode="&#x162;" horiz-adv-x="551" d="M623 700l-5 -41h-228l-93 -659h-43l93 659h-228l5 41h499zM243 -84l45 -13l-109 -187l-29 11z" />
<glyph unicode="&#x163;" horiz-adv-x="310" d="M64 365l5 35h89l30 142h31l-20 -142h132l-5 -35h-131l-36 -249q-7 -52 10 -70.5t57 -18.5q33 0 61 7l-5 -34q-26 -9 -62 -9q-57 0 -84.5 28.5t-17.5 96.5l35 249h-89zM142 -84l46 -13l-110 -187l-28 11z" />
<glyph unicode="&#x164;" horiz-adv-x="551" d="M623 700l-5 -41h-228l-93 -659h-43l93 659h-228l5 41h499zM511 840l-129 -82l-105 82l23 23l88 -60l104 60z" />
<glyph unicode="&#x165;" horiz-adv-x="420" d="M64 365l5 35h89l30 142h31l-20 -142h132l-5 -35h-132l-35 -249q-7 -52 9.5 -70.5t56.5 -18.5q34 0 62 7l-5 -34q-26 -9 -62 -9q-57 0 -84.5 28.5t-17.5 96.5l35 249h-89zM477 706l45 -13l-110 -187l-28 11z" />
<glyph unicode="&#x166;" horiz-adv-x="551" d="M191 325l5 35h109l42 299h-228l5 41h499l-5 -41h-228l-42 -299h108l-5 -35h-108l-46 -325h-43l46 325h-109z" />
<glyph unicode="&#x167;" horiz-adv-x="310" d="M40 196l5 35h89l19 134h-89l4 35h89l31 142h31l-21 -142h132l-4 -35h-132l-19 -134h132l-5 -35h-132l-12 -80q-8 -51 9.5 -70t57.5 -19q35 0 61 7l-4 -34q-26 -9 -62 -9q-57 0 -85 28.5t-18 96.5l12 80h-89z" />
<glyph unicode="&#x168;" horiz-adv-x="704" d="M357 32q117 0 180 69.5t79 186.5l58 412h43l-58 -412q-19 -133 -97.5 -215t-210.5 -82t-187.5 82t-36.5 215l58 412h43l-58 -412q-16 -118 27 -187t160 -69zM357 771l-24 17q31 50 78 50q21 0 59.5 -16t56.5 -16q27 0 50 32l21 -15q-9 -22 -31.5 -37t-48.5 -15 q-17 0 -58 16.5t-59 16.5q-26 0 -44 -33z" />
<glyph unicode="&#x169;" horiz-adv-x="488" d="M377 0l8 68q-69 -78 -169 -78q-68 0 -102 42t-23 121l35 247h41l-35 -247q-9 -63 15 -94.5t75 -31.5q53 0 97 26t72 62l40 285h41l-56 -400h-39zM214 527l-24 19q32 55 78 55q21 0 60 -17.5t57 -17.5q29 0 49 35l22 -17q-10 -25 -33 -41t-48 -16q-17 0 -57.5 18t-58.5 18 q-25 0 -45 -36z" />
<glyph unicode="&#x16a;" horiz-adv-x="704" d="M357 32q117 0 180 69.5t79 186.5l58 412h43l-58 -412q-19 -133 -97.5 -215t-210.5 -82t-187.5 82t-36.5 215l58 412h43l-58 -412q-16 -118 27 -187t160 -69zM332 775l4 31h260l-4 -31h-260z" />
<glyph unicode="&#x16b;" horiz-adv-x="488" d="M377 0l8 68q-69 -78 -169 -78q-68 0 -102 42t-23 121l35 247h41l-35 -247q-9 -63 15 -94.5t75 -31.5q53 0 97 26t72 62l40 285h41l-56 -400h-39zM189 531l5 35h260l-5 -35h-260z" />
<glyph unicode="&#x16c;" horiz-adv-x="704" d="M357 32q117 0 180 69.5t79 186.5l58 412h43l-58 -412q-19 -133 -97.5 -215t-210.5 -82t-187.5 82t-36.5 215l58 412h43l-58 -412q-16 -118 27 -187t160 -69zM461 772q-43 0 -78 23.5t-34 60.5h36q4 -23 27.5 -37t52.5 -14t57 14t39 37h36q-11 -37 -52 -60.5t-84 -23.5z " />
<glyph unicode="&#x16d;" horiz-adv-x="488" d="M377 0l8 68q-69 -78 -169 -78q-68 0 -102 42t-23 121l35 247h41l-35 -247q-9 -63 15 -94.5t75 -31.5q53 0 97 26t72 62l40 285h41l-56 -400h-39zM319 531q-43 0 -77.5 26t-33.5 67h36q4 -26 27.5 -41t52.5 -15t57 15t39 41h36q-11 -41 -52.5 -67t-84.5 -26z" />
<glyph unicode="&#x16e;" horiz-adv-x="704" d="M357 32q117 0 180 69.5t79 186.5l58 412h43l-58 -412q-19 -133 -97.5 -215t-210.5 -82t-187.5 82t-36.5 215l58 412h43l-58 -412q-16 -118 27 -187t160 -69zM479 905q31 0 52.5 -20t21.5 -48q0 -32 -29 -56.5t-65 -24.5q-31 0 -52 19.5t-21 47.5q0 32 28 57t65 25z M476 877q-23 0 -40.5 -15t-17.5 -37q0 -18 13 -30t32 -12q23 0 40.5 15t17.5 37q0 18 -13 30t-32 12z" />
<glyph unicode="&#x16f;" horiz-adv-x="488" d="M377 0l8 68q-69 -78 -169 -78q-68 0 -102 42t-23 121l35 247h41l-35 -247q-9 -63 15 -94.5t75 -31.5q53 0 97 26t72 62l40 285h41l-56 -400h-39zM338 670q31 0 52 -22t21 -52q0 -36 -29.5 -64t-66.5 -28q-30 0 -51 22t-21 52q0 36 29.5 64t65.5 28zM334 639 q-24 0 -41.5 -17.5t-17.5 -41.5q0 -20 12.5 -32.5t32.5 -12.5q22 0 40 17.5t18 40.5q0 20 -12.5 33t-31.5 13z" />
<glyph unicode="&#x170;" horiz-adv-x="704" d="M357 32q117 0 180 69.5t79 186.5l58 412h43l-58 -412q-19 -133 -97.5 -215t-210.5 -82t-187.5 82t-36.5 215l58 412h43l-58 -412q-16 -118 27 -187t160 -69zM494 900l-110 -137l-29 16l92 138zM658 900l-110 -137l-29 16l92 138z" />
<glyph unicode="&#x171;" horiz-adv-x="488" d="M377 0l8 68q-69 -78 -169 -78q-68 0 -102 42t-23 121l35 247h41l-35 -247q-9 -63 15 -94.5t75 -31.5q53 0 97 26t72 62l40 285h41l-56 -400h-39zM346 667l-112 -152l-28 17l95 154zM510 667l-112 -152l-28 17l95 154z" />
<glyph unicode="&#x172;" horiz-adv-x="704" d="M357 32q117 0 180 69.5t79 186.5l58 412h43l-58 -412q-17 -119 -82 -198t-174 -95q-79 -56 -79 -108q0 -24 17.5 -36.5t44.5 -12.5q25 0 50 9l-5 -37q-32 -9 -54 -9q-39 0 -65 21t-26 57q0 61 72 112h-7q-132 0 -187.5 82t-36.5 215l58 412h43l-58 -412q-16 -118 27 -187 t160 -69z" />
<glyph unicode="&#x173;" horiz-adv-x="488" d="M377 0l8 68q-69 -78 -169 -78q-68 0 -102 42t-23 121l35 247h41l-35 -247q-9 -63 15 -94.5t75 -31.5q53 0 97 26t72 62l40 285h41l-56 -400q-87 -60 -87 -113q0 -24 17.5 -36.5t44.5 -12.5q25 0 50 9l-6 -37q-32 -9 -54 -9q-39 0 -64.5 21t-25.5 57q0 69 86 121z" />
<glyph unicode="&#x174;" horiz-adv-x="1007" d="M746 94l282 606h44l-340 -725l-144 625l-319 -625l-136 725h44l112 -606l317 629zM625 867l106 -83l-24 -23l-88 60l-104 -60l-18 23z" />
<glyph unicode="&#x175;" horiz-adv-x="586" d="M351 414l77 -329l156 315h38l-206 -420l-79 330l-175 -330l-86 420h38l66 -315zM382 633l104 -92l-25 -25l-86 66l-106 -66l-17 25z" />
<glyph unicode="&#x176;" horiz-adv-x="568" d="M349 302l-43 -302h-43l43 302l-191 398h46l171 -358l273 358h46zM406 867l106 -83l-24 -23l-88 60l-104 -60l-18 23z" />
<glyph unicode="&#x177;" horiz-adv-x="432" d="M476 400l-401 -650h-40l167 272l-132 378h41l116 -338l207 338h42zM305 633l104 -92l-25 -25l-86 66l-106 -66l-17 25z" />
<glyph unicode="&#x178;" horiz-adv-x="568" d="M349 302l-43 -302h-43l43 302l-191 398h46l171 -358l273 358h46zM273 792q0 13 10.5 22.5t25.5 9.5q12 0 19.5 -7.5t7.5 -18.5q0 -13 -10 -22t-25 -9q-12 0 -20 7t-8 18zM470 792q0 13 10.5 22.5t25.5 9.5q12 0 19.5 -7.5t7.5 -18.5q0 -13 -10.5 -22t-24.5 -9 q-28 0 -28 25z" />
<glyph unicode="&#x179;" horiz-adv-x="606" d="M552 0h-518l548 661h-415l6 39h492l-549 -661h441zM481 886l26 -39l-160 -87l-20 19z" />
<glyph unicode="&#x17a;" horiz-adv-x="381" d="M99 366l4 34h314l-325 -366h264l-4 -34h-334l324 366h-243zM336 654l25 -43l-161 -96l-19 21z" />
<glyph unicode="&#x17b;" horiz-adv-x="606" d="M552 0h-518l548 661h-415l6 39h492l-549 -661h441zM384 791q0 14 10.5 23.5t25.5 9.5q12 0 19.5 -7.5t7.5 -18.5q0 -13 -11 -22t-25 -9q-27 0 -27 24z" />
<glyph unicode="&#x17c;" horiz-adv-x="381" d="M99 366l4 34h314l-325 -366h264l-4 -34h-334l324 366h-243zM235 544q0 15 11 25.5t26 10.5q12 0 19.5 -8t7.5 -20q0 -15 -10.5 -25t-25.5 -10q-12 0 -20 7.5t-8 19.5z" />
<glyph unicode="&#x17d;" horiz-adv-x="606" d="M552 0h-518l548 661h-415l6 39h492l-549 -661h441zM538 840l-128 -82l-106 82l25 23l87 -60l105 60z" />
<glyph unicode="&#x17e;" horiz-adv-x="381" d="M99 366l4 34h314l-325 -366h264l-4 -34h-334l324 366h-243zM392 606l-130 -92l-104 92l25 25l86 -66l106 66z" />
<glyph unicode="&#x17f;" horiz-adv-x="290" d="M99 0l69 485q25 172 184 172q27 0 40 -4l-4 -37q-15 4 -36 4q-65 0 -99 -32.5t-44 -102.5l-69 -485h-41z" />
<glyph unicode="&#x192;" d="M204 363l12 37h108l26 85q53 172 214 172q27 0 40 -4l-12 -39q-13 4 -35 4q-66 0 -104.5 -31.5t-59.5 -101.5l-26 -85h159l-12 -37h-158l-140 -450q-54 -172 -215 -172q-26 0 -39 4l12 39q13 -4 35 -4q65 0 103.5 31.5t60.5 101.5l140 450h-109z" />
<glyph unicode="&#x1fa;" horiz-adv-x="687" d="M437 670q31 0 52 -22t21 -52q0 -22 -13 -41l166 -555h-45l-65 219h-358l-126 -219h-45l320 554q-2 6 -2 21q0 38 29 66.5t66 28.5zM540 260l-76 260q-24 -16 -50 -16t-47 16l-149 -260h322zM433 639q-24 0 -41.5 -17.5t-17.5 -41.5q0 -20 13 -32.5t32 -12.5 q22 0 40.5 17.5t18.5 40.5q0 20 -13 33t-32 13zM521 886l26 -39l-160 -87l-20 19z" />
<glyph unicode="&#x1fb;" horiz-adv-x="456" d="M148 303h-40q18 49 66 78t108 29q75 0 113 -38t29 -103l-38 -269h-37l7 68q-56 -73 -157 -73q-64 0 -102.5 29.5t-38.5 81.5q0 145 213 145h110l3 18q8 50 -20 77.5t-87 27.5q-47 0 -81 -19t-48 -52zM205 31q60 0 107 34.5t56 94.5l8 55h-111q-88 0 -127 -25t-39 -79 q0 -38 28.5 -59t77.5 -21zM326 650q30 0 51 -22t21 -52q0 -36 -29 -64t-66 -28q-30 0 -51.5 22t-21.5 52q0 36 29.5 64t66.5 28zM321 619q-23 0 -41 -17t-18 -41q0 -20 13 -33t32 -13q24 0 41.5 17.5t17.5 41.5q0 20 -13 32.5t-32 12.5zM417 839l25 -43l-161 -96l-19 21z " />
<glyph unicode="&#x1fc;" horiz-adv-x="1010" d="M1040 659h-382l-36 -259h354l-5 -41h-354l-46 -318h382l-5 -41h-425l31 219h-292l-187 -219h-51l598 700h425zM296 260h263l53 370zM683 886l26 -39l-160 -87l-20 19z" />
<glyph unicode="&#x1fd;" horiz-adv-x="764" d="M743 195h-330q-6 -73 28 -120.5t104 -47.5q105 0 140 87h40q-19 -55 -69 -89t-117 -34q-122 0 -158 106q-54 -102 -181 -102q-65 0 -104 28t-39 76q0 132 211 132h111l5 38q7 51 -20.5 78t-86.5 27q-47 0 -81 -19t-48 -52h-40q18 49 66 78t108 29q59 0 95 -24.5t44 -68.5 q70 93 175 93q70 0 113 -46.5t43 -114.5q0 -25 -9 -54zM204 31q61 0 109.5 37t57.5 106q0 7 2 21h-110q-87 0 -126.5 -22.5t-39.5 -69.5q0 -34 29.5 -53t77.5 -19zM591 374q-63 0 -110 -38.5t-62 -104.5h292q8 58 -25.5 100.5t-94.5 42.5zM528 654l25 -43l-161 -96l-19 21z " />
<glyph unicode="&#x1fe;" horiz-adv-x="831" d="M593 886l26 -39l-160 -87l-19 19zM799 781l-94 -131q57 -41 90 -110t33 -149q0 -106 -58 -199t-153.5 -147t-202.5 -54q-86 0 -155 37l-92 -128l-33 21l91 128q-58 41 -90.5 109.5t-32.5 148.5q0 163 124.5 283t288.5 120q86 0 156 -39l94 130zM146 312q0 -71 28 -131 t77 -96l395 550q-61 33 -136 33q-146 0 -255 -105t-109 -251zM784 388q0 70 -28 130t-78 96l-393 -550q60 -31 135 -31q145 0 254.5 104.5t109.5 250.5z" />
<glyph unicode="&#x1ff;" horiz-adv-x="499" d="M496 481l-78 -108q66 -53 66 -148t-71 -164.5t-166 -69.5q-46 0 -89 20l-79 -111l-33 21l81 113q-58 50 -58 140q0 96 70.5 166t165.5 70q41 0 80 -17l78 108zM443 222q0 76 -48 118l-213 -296q31 -16 70 -16q78 0 134.5 56.5t56.5 137.5zM110 177q0 -70 40 -110l212 294 q-28 12 -61 12q-78 0 -134.5 -57t-56.5 -139zM393 654l26 -43l-161 -96l-20 21z" />
<glyph unicode="&#x218;" horiz-adv-x="537" d="M276 31q78 0 138.5 43.5t60.5 117.5q0 56 -44 88t-138 65q-88 33 -129 68.5t-41 100.5q0 77 63.5 136.5t177.5 59.5q83 0 137 -42.5t57 -109.5h-42q-4 50 -47 81t-111 31q-88 0 -140 -46.5t-52 -102.5q0 -53 37 -82t115 -55q103 -38 151.5 -77.5t48.5 -107.5 q0 -95 -74.5 -151.5t-172.5 -56.5q-93 0 -150 42t-60 110h42q4 -51 49 -81.5t124 -30.5zM246 -84l45 -13l-110 -187l-28 11z" />
<glyph unicode="&#x219;" horiz-adv-x="379" d="M193 27q50 0 83.5 21t33.5 62q0 32 -27 49.5t-80 30.5q-109 26 -109 100q0 49 41.5 84.5t110.5 35.5q56 0 89.5 -28.5t35.5 -66.5h-42q-2 23 -23 41t-65 18q-49 0 -77.5 -22t-28.5 -57q0 -29 22.5 -44t68.5 -27q60 -15 92.5 -39t32.5 -69q0 -60 -48 -92.5t-116 -32.5 q-60 0 -97.5 27t-39.5 67h41q3 -23 28.5 -40.5t73.5 -17.5zM157 -84l45 -13l-109 -187l-29 11z" />
<glyph unicode="&#x21a;" horiz-adv-x="551" d="M623 700l-5 -41h-228l-93 -659h-43l93 659h-228l5 41h499zM236 -84l45 -13l-109 -187l-29 11z" />
<glyph unicode="&#x21b;" horiz-adv-x="310" d="M64 365l5 35h89l30 142h31l-20 -142h132l-5 -35h-131l-36 -249q-7 -52 10 -70.5t57 -18.5q33 0 61 7l-5 -34q-26 -9 -62 -9q-57 0 -84.5 28.5t-17.5 96.5l35 249h-89zM142 -84l46 -13l-110 -187l-28 11z" />
<glyph unicode="&#x237;" horiz-adv-x="201" d="M177 400l-70 -497q-13 -90 -61.5 -131t-131.5 -29l5 37q128 -19 147 123l70 497h41z" />
<glyph unicode="&#x2c6;" horiz-adv-x="300" d="M240 633l104 -92l-25 -25l-87 66l-105 -66l-17 25z" />
<glyph unicode="&#x2c7;" horiz-adv-x="300" d="M352 606l-130 -92l-104 92l25 25l87 -66l105 66z" />
<glyph unicode="&#x2c9;" horiz-adv-x="300" d="M95 531l5 35h260l-5 -35h-260z" />
<glyph unicode="&#x2d8;" horiz-adv-x="300" d="M225 531q-43 0 -77.5 26t-33.5 67h36q4 -26 27.5 -41t52.5 -15t57 15t39 41h36q-11 -41 -52.5 -67t-84.5 -26z" />
<glyph unicode="&#x2d9;" horiz-adv-x="300" d="M194 544q0 14 10.5 25t25.5 11q12 0 20 -8t8 -20q0 -15 -10.5 -25t-25.5 -10q-13 0 -20.5 7.5t-7.5 19.5z" />
<glyph unicode="&#x2da;" horiz-adv-x="300" d="M245 670q30 0 51 -22t21 -52q0 -36 -29.5 -64t-66.5 -28q-30 0 -51 22t-21 52q0 36 29.5 64t66.5 28zM240 639q-24 0 -41.5 -17t-17.5 -41q0 -20 13 -33t32 -13q24 0 41.5 17t17.5 41q0 20 -13 33t-32 13z" />
<glyph unicode="&#x2db;" horiz-adv-x="300" d="M151 2h36l-1 -2q-87 -60 -87 -113q0 -24 18 -36.5t45 -12.5q23 0 49 9l-6 -37q-31 -9 -52 -9q-40 0 -66 21t-26 57q0 69 90 123z" />
<glyph unicode="&#x2dc;" horiz-adv-x="300" d="M119 527l-23 19q13 23 34 39t44 16q21 0 59.5 -17.5t56.5 -17.5q26 0 50 35l21 -17q-9 -25 -32 -41t-49 -16q-17 0 -57 18t-58 18q-26 0 -46 -36z" />
<glyph unicode="&#x2dd;" horiz-adv-x="300" d="M261 667l-112 -152l-28 17l94 154zM425 667l-112 -152l-28 17l94 154z" />
<glyph unicode="&#x394;" horiz-adv-x="680" d="M600 41l-169 608l-341 -608h510zM640 0h-600l5 39l372 661h42l186 -661z" />
<glyph unicode="&#x3a9;" horiz-adv-x="758" d="M479 710q121 -1 193 -77.5t72 -204.5q0 -124 -69 -228t-162 -155v-3h195l-6 -42h-264l5 40q100 50 178 151.5t78 224.5q0 110 -60.5 181t-165.5 71q-134 0 -221.5 -98.5t-87.5 -235.5q0 -96 47.5 -175.5t113.5 -118.5l-5 -40h-264l6 42h195v3q-58 39 -97.5 117.5 t-39.5 171.5q0 165 103.5 270.5t255.5 105.5z" />
<glyph unicode="&#x3bc;" horiz-adv-x="490" d="M36 -250l92 650h41l-35 -247q-18 -126 98 -126q48 0 90 26t71 62l40 285h41l-56 -400h-39l7 68q-67 -78 -160 -78q-82 0 -108 50l-41 -290h-41z" />
<glyph unicode="&#x3c0;" d="M265 361l-118 -361h-41l118 361q-90 0 -142 -20l5 39q58 20 149 20h362l-6 -39h-112l-50 -361h-41l50 361h-174z" />
<glyph unicode="&#x1e80;" horiz-adv-x="1007" d="M746 94l282 606h44l-340 -725l-144 625l-319 -625l-136 725h44l112 -606l317 629zM537 847l38 39l124 -107l-25 -19z" />
<glyph unicode="&#x1e81;" horiz-adv-x="586" d="M351 414l77 -329l156 315h38l-206 -420l-79 330l-175 -330l-86 420h38l66 -315zM293 611l39 43l122 -118l-26 -21z" />
<glyph unicode="&#x1e82;" horiz-adv-x="1007" d="M746 94l282 606h44l-340 -725l-144 625l-319 -625l-136 725h44l112 -606l317 629zM681 886l26 -39l-159 -87l-19 19z" />
<glyph unicode="&#x1e83;" horiz-adv-x="586" d="M351 414l77 -329l156 315h38l-206 -420l-79 330l-175 -330l-86 420h38l66 -315zM438 654l25 -43l-161 -96l-18 21z" />
<glyph unicode="&#x1e84;" horiz-adv-x="1007" d="M746 94l282 606h44l-340 -725l-144 625l-319 -625l-136 725h44l112 -606l317 629zM485 792q0 13 10.5 22.5t25.5 9.5q12 0 19.5 -7.5t7.5 -18.5q0 -13 -10.5 -22t-24.5 -9q-28 0 -28 25zM682 792q0 13 10.5 22.5t25.5 9.5q12 0 19.5 -7.5t7.5 -18.5q0 -13 -10.5 -22 t-24.5 -9q-28 0 -28 25z" />
<glyph unicode="&#x1e85;" horiz-adv-x="586" d="M351 414l77 -329l156 315h38l-206 -420l-79 330l-175 -330l-86 420h38l66 -315zM239 544q0 15 11 25.5t26 10.5q12 0 19.5 -8t7.5 -20q0 -15 -10.5 -25t-25.5 -10q-12 0 -20 7.5t-8 19.5zM436 544q0 15 11 25.5t26 10.5q12 0 19.5 -8t7.5 -20q0 -15 -10.5 -25t-25.5 -10 q-12 0 -20 7.5t-8 19.5z" />
<glyph unicode="&#x1ef2;" horiz-adv-x="568" d="M349 302l-43 -302h-43l43 302l-191 398h46l171 -358l273 358h46zM318 847l38 39l124 -107l-25 -19z" />
<glyph unicode="&#x1ef3;" horiz-adv-x="432" d="M476 400l-401 -650h-40l167 272l-132 378h41l116 -338l207 338h42zM216 611l39 43l121 -118l-25 -21z" />
<glyph unicode="&#x2013;" horiz-adv-x="400" d="M41 292l5 37h400l-5 -37h-400z" />
<glyph unicode="&#x2014;" horiz-adv-x="770" d="M121 292l5 37h610l-5 -37h-610z" />
<glyph unicode="&#x2018;" horiz-adv-x="213" d="M178 506l-45 13l110 187l28 -11z" />
<glyph unicode="&#x2019;" horiz-adv-x="213" d="M206 706l45 -13l-110 -187l-28 11z" />
<glyph unicode="&#x201a;" horiz-adv-x="223" d="M125 72l46 -13l-123 -207l-28 11z" />
<glyph unicode="&#x201c;" horiz-adv-x="344" d="M309 506l-45 13l110 187l28 -11zM178 506l-45 13l110 187l28 -11z" />
<glyph unicode="&#x201d;" horiz-adv-x="344" d="M206 706l45 -13l-110 -187l-28 11zM337 706l45 -13l-110 -187l-28 11z" />
<glyph unicode="&#x201e;" horiz-adv-x="354" d="M125 72l46 -13l-123 -207l-28 11zM256 72l46 -13l-123 -207l-28 11z" />
<glyph unicode="&#x2020;" horiz-adv-x="661" d="M672 508h-249l-100 -708h-43l100 708h-249l6 43h249l35 249h43l-35 -249h249z" />
<glyph unicode="&#x2021;" horiz-adv-x="661" d="M365 92h249l-6 -43h-249l-35 -249h-43l35 249h-249l6 43h249l59 416h-249l6 43h249l35 249h43l-35 -249h249l-6 -43h-249z" />
<glyph unicode="&#x2022;" horiz-adv-x="450" d="M250 176q-52 0 -84.5 34t-32.5 84q0 61 46 106t110 45q52 0 84.5 -34t32.5 -85q0 -60 -46.5 -105t-109.5 -45z" />
<glyph unicode="&#x2026;" horiz-adv-x="614" d="M73 25q0 17 14 30t31 13q15 0 24.5 -10t9.5 -25q0 -17 -14 -30t-31 -13q-14 0 -24 10t-10 25zM271 25q0 16 14 29.5t31 13.5q14 0 24 -10.5t10 -24.5q0 -17 -14 -30t-31 -13q-15 0 -24.5 10t-9.5 25zM469 25q0 16 14 29.5t31 13.5q14 0 24 -10.5t10 -24.5q0 -17 -14 -30 t-31 -13q-15 0 -24.5 10t-9.5 25z" />
<glyph unicode="&#x2030;" horiz-adv-x="1076" d="M677 691l-503 -703l-33 21l503 702zM404 147q11 69 57 113.5t113 44.5t102 -45t24 -113q-9 -69 -56 -113.5t-114 -44.5t-101 44.5t-25 113.5zM661 147q8 54 -16.5 87.5t-75.5 33.5t-84.5 -33.5t-41.5 -87.5t16.5 -87.5t75.5 -33.5t84.5 33.5t41.5 87.5zM115 530 q0 76 49.5 128.5t123.5 52.5q60 0 94 -37.5t34 -97.5q0 -76 -48.5 -128.5t-123.5 -52.5q-60 0 -94.5 37.5t-34.5 97.5zM376 573q0 46 -24 73.5t-69 27.5q-58 0 -93 -40t-35 -101q0 -46 24 -73.5t69 -27.5q58 0 93 40t35 101zM758 124q0 76 49 128.5t123 52.5q60 0 94 -37.5 t34 -97.5q0 -76 -48.5 -128.5t-123.5 -52.5q-60 0 -94 37.5t-34 97.5zM1019 167q0 46 -24.5 73.5t-69.5 27.5q-58 0 -93 -40t-35 -101q0 -45 24.5 -73t69.5 -28q58 0 93 40t35 101z" />
<glyph unicode="&#x2039;" horiz-adv-x="260" d="M130 285l100 -141l-28 -28l-122 169l170 169l20 -28z" />
<glyph unicode="&#x203a;" horiz-adv-x="260" d="M71 144l139 141l-99 141l28 28l121 -169l-169 -169z" />
<glyph unicode="&#x2044;" horiz-adv-x="480" d="M557 691l-503 -703l-33 21l503 702z" />
<glyph unicode="&#x2070;" horiz-adv-x="383" d="M265 520q-54 0 -86.5 40.5t-32.5 108.5q0 93 49.5 153t121.5 60q53 0 86 -41t33 -109q0 -93 -49.5 -152.5t-121.5 -59.5zM271 556q51 0 87 48.5t36 123.5q0 53 -22.5 85t-59.5 32q-52 0 -89 -48.5t-37 -122.5q0 -54 23.5 -86t61.5 -32z" />
<glyph unicode="&#x2074;" horiz-adv-x="354" d="M359 626h50l-5 -36h-50l-9 -65h-40l9 65h-202l288 329zM321 626l25 181l-159 -181h134z" />
<glyph unicode="&#x2075;" horiz-adv-x="348" d="M392 657q0 -58 -42 -97t-106 -39q-52 0 -86.5 28t-27.5 73h39q-1 -29 21.5 -46.5t57.5 -17.5q46 0 74.5 26t28.5 67q0 30 -20.5 49t-62.5 19h-109l31 161h207l-5 -37h-170l-16 -87h68q59 0 88.5 -27t29.5 -72z" />
<glyph unicode="&#x2076;" horiz-adv-x="353" d="M412 806h-40q-2 19 -18.5 30.5t-40.5 11.5q-55 0 -87 -44t-41 -100q16 27 48 44t68 17q47 0 75 -29.5t28 -75.5q0 -58 -40.5 -98.5t-103.5 -40.5q-52 0 -84 34.5t-32 107.5q0 33 8.5 68.5t27 71t54 58.5t83.5 23q41 0 67.5 -21t27.5 -57zM267 557q43 0 69.5 28.5 t26.5 70.5q0 32 -19 53t-51 21q-42 0 -74 -28.5t-32 -69.5q0 -33 22 -54t58 -21z" />
<glyph unicode="&#x2077;" horiz-adv-x="325" d="M347 839h-196l5 37h258l-243 -354h-45z" />
<glyph unicode="&#x2078;" horiz-adv-x="353" d="M254 556q42 0 69.5 21.5t27.5 52.5q0 27 -21 43.5t-57 16.5q-42 0 -69 -21.5t-27 -52.5q0 -27 21 -43.5t56 -16.5zM300 883q49 0 77.5 -24.5t28.5 -62.5q0 -61 -73 -87q58 -22 58 -79q0 -47 -41 -78t-101 -31q-51 0 -82.5 24.5t-31.5 63.5q0 33 22 59.5t60 40.5 q-51 21 -51 67q0 45 38 76t96 31zM278 726q38 0 62.5 19.5t24.5 46.5q0 24 -18.5 39.5t-51.5 15.5q-37 0 -62 -20t-25 -48q0 -23 19 -38t51 -15z" />
<glyph unicode="&#x2079;" horiz-adv-x="352" d="M138 599h39q2 -18 21.5 -30t43.5 -12q103 0 124 146q-15 -27 -48 -45t-69 -18q-47 0 -75 29.5t-28 75.5q0 58 40 98.5t103 40.5q117 0 117 -141q0 -34 -6 -66.5t-22 -70.5t-52.5 -61.5t-88.5 -23.5q-41 0 -69.5 21.5t-29.5 56.5zM284 849q-43 0 -70 -28.5t-27 -71.5 q0 -32 19.5 -52.5t51.5 -20.5q42 0 73.5 28.5t31.5 69.5q0 34 -21 54.5t-58 20.5z" />
<glyph unicode="&#x2080;" horiz-adv-x="383" d="M166 -180q-54 0 -86.5 40.5t-32.5 108.5q0 93 49.5 153t121.5 60q53 0 86 -41t33 -109q0 -93 -49.5 -152.5t-121.5 -59.5zM172 -144q51 0 87 48.5t36 123.5q0 53 -22.5 85t-59.5 32q-52 0 -89 -48.5t-37 -122.5q0 -54 23.5 -86t61.5 -32z" />
<glyph unicode="&#x2081;" horiz-adv-x="262" d="M104 -176l44 304l-91 -47l-14 31l154 84l-53 -372h-40z" />
<glyph unicode="&#x2082;" horiz-adv-x="362" d="M110 -139h186l-5 -36h-274l175 155q25 22 35.5 32.5t27 34t16.5 42.5q0 26 -18 42.5t-50 16.5q-35 0 -60 -19t-29 -50l-1 -9h-39l1 9q5 45 42 74.5t91 29.5q48 0 76 -25.5t28 -65.5q0 -26 -17 -54t-31.5 -42t-42.5 -39z" />
<glyph unicode="&#x2083;" horiz-adv-x="343" d="M162 -8l4 34q42 1 65.5 19t23.5 50q0 22 -17.5 36.5t-48.5 14.5q-34 0 -57 -15.5t-28 -44.5h-40q8 44 43.5 70.5t86.5 26.5q48 0 75.5 -23.5t27.5 -59.5q0 -65 -73 -90q25 -6 41.5 -26t16.5 -50q0 -47 -39.5 -80.5t-100.5 -33.5q-52 0 -86 28t-27 73h39q-2 -29 20 -46.5 t58 -17.5q41 0 67.5 22.5t26.5 53.5q0 56 -78 59z" />
<glyph unicode="&#x2084;" horiz-adv-x="354" d="M260 -75h50l-5 -36h-50l-9 -65h-40l9 65h-202l288 329zM222 -75l25 181l-159 -181h134z" />
<glyph unicode="&#x2085;" horiz-adv-x="348" d="M293 -45q0 -58 -42 -97t-106 -39q-52 0 -86.5 28t-27.5 73h39q-1 -29 21.5 -46.5t57.5 -17.5q46 0 74.5 26t28.5 67q0 30 -20.5 49t-62.5 19h-109l31 161h207l-5 -37h-170l-16 -87h68q59 0 88.5 -27t29.5 -72z" />
<glyph unicode="&#x2086;" horiz-adv-x="353" d="M313 105h-40q-2 19 -18.5 30.5t-40.5 11.5q-55 0 -87 -44t-41 -100q16 27 48 44t68 17q47 0 75 -29.5t28 -75.5q0 -58 -40.5 -98.5t-103.5 -40.5q-52 0 -84 34.5t-32 107.5q0 33 8.5 68.5t26.5 71t54 58.5t84 23q41 0 67.5 -21t27.5 -57zM168 -144q43 0 69.5 28.5 t26.5 70.5q0 32 -19 53t-51 21q-43 0 -74.5 -28.5t-31.5 -69.5q0 -33 22 -54t58 -21z" />
<glyph unicode="&#x2087;" horiz-adv-x="325" d="M248 141h-196l5 37h258l-243 -354h-45z" />
<glyph unicode="&#x2088;" horiz-adv-x="353" d="M155 -145q42 0 69.5 21.5t27.5 52.5q0 27 -21 43.5t-57 16.5q-42 0 -69 -21.5t-27 -52.5q0 -27 21 -43.5t56 -16.5zM201 182q49 0 77.5 -24.5t28.5 -62.5q0 -61 -73 -87q58 -22 58 -79q0 -47 -41 -78t-101 -31q-51 0 -82.5 24.5t-31.5 63.5q0 33 22 59.5t60 40.5 q-51 21 -51 67q0 45 38 76t96 31zM179 25q38 0 62.5 19.5t24.5 46.5q0 24 -18.5 39.5t-51.5 15.5q-37 0 -62 -20t-25 -48q0 -23 19 -38t51 -15z" />
<glyph unicode="&#x2089;" horiz-adv-x="352" d="M39 -103h39q2 -18 21.5 -30t43.5 -12q103 0 124 146q-15 -27 -48 -45t-69 -18q-47 0 -75 29.5t-28 75.5q0 58 40 98.5t103 40.5q117 0 117 -141q0 -34 -6 -66.5t-22 -70.5t-52.5 -61.5t-88.5 -23.5q-41 0 -69.5 21.5t-29.5 56.5zM185 147q-43 0 -70 -28.5t-27 -71.5 q0 -32 19.5 -52.5t51.5 -20.5q42 0 73.5 28.5t31.5 69.5q0 34 -21 54.5t-58 20.5z" />
<glyph unicode="&#x20a3;" d="M36 182l5 41h90l68 477h445l-6 -41h-402l-36 -259h374l-6 -41h-374l-20 -136h100l-5 -41h-100l-26 -182h-43l26 182h-90z" />
<glyph unicode="&#x20a4;" d="M150 216h149q8 17 8 37q0 42 -39 105h-98l5 35h69q-45 72 -45 125q0 73 60.5 132t154.5 59q90 0 136.5 -59.5t25.5 -147.5h-43q15 75 -17.5 120.5t-106.5 45.5q-73 0 -120 -46.5t-47 -101.5q0 -47 50 -127h216l-5 -35h-188q35 -61 35 -104q0 -15 -7 -38h140l-4 -35h-150 q-43 -82 -127 -140h335l-5 -41h-453l5 41h51q39 16 80.5 56t67.5 84h-137z" />
<glyph unicode="&#x20a7;" d="M96 482l5 37h82l26 181h180q95 0 152 -45t52 -136h53l-5 -37h-52q-18 -92 -87.5 -138t-167.5 -46h-139l-42 -298h-43l68 482h-82zM200 339h139q77 0 133.5 35t72.5 108h-324zM246 659l-20 -140h324q2 70 -44 105t-123 35h-137z" />
<glyph unicode="&#x20ac;" d="M626 653l-7 -48q-54 63 -149 63q-98 0 -167 -68.5t-94 -169.5h291l-19 -37h-281q-11 -49 -11 -76v-10h249l-19 -37h-231q-2 -112 49.5 -176t143.5 -64q88 0 166 64l-7 -49q-66 -54 -168 -54q-111 0 -172 70.5t-57 208.5h-69l19 37h52v10q0 32 11 76h-65l18 37h55 q34 124 112.5 201.5t196.5 77.5q97 0 153 -56z" />
<glyph unicode="&#x2113;" horiz-adv-x="390" d="M348 140l27 -19q-58 -125 -159 -125q-47 0 -75.5 29.5t-34 75t0.5 100.5l41 296q14 99 60.5 155t105.5 56q49 0 71 -32t22 -82q0 -104 -59 -184.5t-197 -181.5l-3 -27q-9 -85 13 -127t67 -42q76 0 120 108zM190 504l-32 -226q114 85 161 151.5t47 160.5q0 82 -58 82 q-43 0 -75 -45.5t-43 -122.5z" />
<glyph unicode="&#x2122;" horiz-adv-x="767" d="M392 700l-5 -41h-107l-44 -307h-41l44 307h-106l5 41h254zM579 421l168 279h38l-49 -348h-41l35 243l-148 -243h-25l-77 243l-35 -243h-42l49 348h38z" />
<glyph unicode="&#x2126;" horiz-adv-x="758" d="M479 710q121 -1 193 -77.5t72 -204.5q0 -124 -69 -228t-162 -155v-3h195l-6 -42h-264l5 40q100 50 178 151.5t78 224.5q0 110 -60.5 181t-165.5 71q-134 0 -221.5 -98.5t-87.5 -235.5q0 -96 47.5 -175.5t113.5 -118.5l-5 -40h-264l6 42h195v3q-58 39 -97.5 117.5 t-39.5 171.5q0 165 103.5 270.5t255.5 105.5z" />
<glyph unicode="&#x212e;" horiz-adv-x="856" d="M820 335h-628q-5 0 -5 -4v-185q0 -19 8 -29q83 -96 240 -96q158 0 252 109h58q-55 -65 -136 -102t-175 -37q-165 0 -279.5 105t-114.5 253q0 150 112.5 254.5t277.5 104.5t277.5 -104.5t112.5 -254.5v-14zM673 365v186q0 24 -11 36q-93 91 -231 91q-141 0 -235 -97 q-9 -9 -9 -29v-187q0 -6 5 -6h476q5 0 5 6z" />
<glyph unicode="&#x2153;" horiz-adv-x="830" d="M663 167l5 34q41 1 64.5 19t23.5 50q0 22 -17.5 36.5t-48.5 14.5q-34 0 -56.5 -15.5t-27.5 -44.5h-40q7 44 43 70.5t87 26.5q47 0 74 -23t27 -59q0 -66 -71 -91q24 -7 40.5 -26.5t16.5 -49.5q0 -47 -39.5 -80.5t-100.5 -33.5q-52 0 -86 28t-27 73h39q-2 -29 20 -46.5 t58 -17.5q41 0 67.5 22.5t26.5 53.5q0 56 -78 59zM733 691l-503 -703l-33 21l503 702zM218 347l44 304l-91 -47l-14 31l154 84l-53 -372h-40z" />
<glyph unicode="&#x2154;" horiz-adv-x="830" d="M178 383h186l-5 -36h-274l175 155q25 22 35.5 32.5t27 34t16.5 42.5q0 26 -18 42.5t-50 16.5q-35 0 -60 -19t-29 -50l-1 -9h-39l1 9q5 45 42 74.5t91 29.5q48 0 76 -25.5t28 -65.5q0 -26 -17 -54t-31.5 -42t-42.5 -39zM732 691l-503 -703l-33 21l504 702zM662 167l6 34 q41 1 64 19t23 50q0 22 -17 36.5t-48 14.5q-34 0 -56.5 -15.5t-28.5 -44.5h-40q8 44 44 70.5t87 26.5q47 0 74 -23t27 -59q0 -66 -72 -91q25 -7 41.5 -26.5t16.5 -49.5q0 -47 -39.5 -80.5t-101.5 -33.5q-52 0 -86 28t-27 73h39q-1 -29 21 -46.5t57 -17.5q42 0 68.5 22.5 t26.5 53.5q0 56 -79 59z" />
<glyph unicode="&#x215b;" horiz-adv-x="830" d="M648 31q42 0 69.5 21.5t27.5 52.5q0 27 -21 43.5t-57 16.5q-42 0 -69.5 -21.5t-27.5 -52.5q0 -26 21.5 -43t56.5 -17zM694 358q49 0 78 -24.5t29 -62.5q0 -60 -73 -87q56 -22 56 -79q0 -47 -40.5 -78t-100.5 -31q-51 0 -83 24.5t-32 63.5q0 70 84 100q-51 20 -51 67 q0 45 37.5 76t95.5 31zM672 201q37 0 62 19t25 46q0 25 -19 40.5t-52 15.5q-37 0 -61.5 -20t-24.5 -48q0 -23 19 -38t51 -15zM733 691l-503 -703l-33 21l503 702zM218 347l44 304l-91 -47l-14 31l154 84l-53 -372h-40z" />
<glyph unicode="&#x215c;" horiz-adv-x="830" d="M732 691l-503 -703l-33 21l502 702zM231 514l4 34q42 1 65.5 19t23.5 50q0 22 -17.5 36.5t-48.5 14.5q-34 0 -57 -15.5t-28 -44.5h-40q8 44 43.5 70.5t86.5 26.5q48 0 75.5 -23.5t27.5 -59.5q0 -65 -73 -90q25 -6 41.5 -26t16.5 -50q0 -47 -39.5 -80.5t-100.5 -33.5 q-52 0 -86 28t-27 73h39q-2 -29 20 -46.5t58 -17.5q41 0 67.5 22.5t26.5 53.5q0 56 -78 59zM647 31q42 0 69.5 21.5t27.5 52.5q0 26 -21.5 43t-56.5 17q-42 0 -69 -21.5t-27 -52.5q0 -27 21 -43.5t56 -16.5zM692 358q49 0 78 -24.5t29 -62.5q0 -60 -72 -87q57 -22 57 -79 q0 -47 -41 -78t-101 -31q-51 0 -82.5 24.5t-31.5 63.5q0 34 22 60t61 40q-52 21 -52 67q0 45 37.5 76t95.5 31zM670 201q38 0 62.5 19.5t24.5 46.5q0 24 -18.5 39.5t-50.5 15.5q-37 0 -62.5 -20.5t-25.5 -47.5q0 -23 19 -38t51 -15z" />
<glyph unicode="&#x215d;" horiz-adv-x="830" d="M376 477q0 -58 -42 -97t-106 -39q-52 0 -86.5 28t-27.5 73h39q-1 -29 21.5 -46.5t57.5 -17.5q46 0 74.5 26t28.5 67q0 30 -20.5 49t-62.5 19h-109l31 161h207l-5 -37h-170l-16 -87h68q59 0 88.5 -27t29.5 -72zM732 691l-503 -703l-33 21l502 702zM647 31q42 0 69.5 21.5 t27.5 52.5q0 27 -21 43.5t-57 16.5q-42 0 -69 -21.5t-27 -52.5q0 -27 21 -43.5t56 -16.5zM693 358q49 0 77.5 -24.5t28.5 -62.5q0 -60 -72 -87q57 -22 57 -79q0 -47 -41 -78t-101 -31q-51 0 -82.5 24.5t-31.5 63.5q0 34 22 60t61 40q-52 21 -52 67t37.5 76.5t96.5 30.5z M671 201q38 0 62.5 19.5t24.5 46.5q0 24 -19 39.5t-51 15.5q-37 0 -62.5 -20.5t-25.5 -47.5q0 -23 19.5 -38t51.5 -15z" />
<glyph unicode="&#x215e;" horiz-adv-x="830" d="M382 663h-196l5 37h258l-243 -354h-45zM733 691l-504 -703l-32 21l503 702zM648 31q41 0 69 21.5t28 52.5q0 27 -21.5 43.5t-57.5 16.5q-41 0 -68.5 -21.5t-27.5 -52.5q0 -27 21 -43.5t57 -16.5zM694 358q49 0 77.5 -24.5t28.5 -62.5q0 -60 -73 -87q58 -22 58 -79 q0 -47 -41 -78t-101 -31q-51 0 -82.5 24.5t-31.5 63.5q0 33 22 59.5t60 40.5q-50 20 -50 67q0 45 37.5 76t95.5 31zM672 201q37 0 62 19t25 46q0 25 -19 40.5t-51 15.5q-37 0 -62 -20t-25 -48q0 -23 19 -38t51 -15z" />
<glyph unicode="&#x2202;" horiz-adv-x="522" d="M70 180q0 100 72 165t164 65q62 0 107 -26t60 -50q-2 60 -28.5 112.5t-65 85.5t-73 53.5t-63.5 28.5l24 34q39 -15 75.5 -37.5t78 -62t67 -101.5t25.5 -138q0 -134 -70.5 -226.5t-191.5 -92.5q-77 0 -129 55t-52 135zM111 183q0 -65 41.5 -110.5t103.5 -45.5 q84 0 141.5 64.5t71.5 154.5q1 8 2 19.5t1 12.5q-2 7 -18 26.5t-57.5 43.5t-91.5 24q-75 0 -134.5 -55t-59.5 -134z" />
<glyph unicode="&#x2206;" horiz-adv-x="680" d="M600 41l-169 608l-341 -608h510zM640 0h-600l5 39l372 661h42l186 -661z" />
<glyph unicode="&#x220f;" horiz-adv-x="780" d="M314 659l-107 -759h-43l107 759h-148l5 41h720l-5 -41h-148l-107 -759h-43l107 759h-338z" />
<glyph unicode="&#x2211;" horiz-adv-x="580" d="M541 -100h-530l5 41l329 353l-213 365l7 41h499l-7 -41h-447l213 -365l-329 -353h478z" />
<glyph unicode="&#x2212;" d="M113 304h450l-5 -37h-450z" />
<glyph unicode="&#x2215;" horiz-adv-x="480" d="M557 691l-503 -703l-33 21l503 702z" />
<glyph unicode="&#x2219;" horiz-adv-x="218" d="M114 307q0 16 13.5 29.5t30.5 13.5q15 0 25 -10.5t10 -24.5q0 -16 -14 -29.5t-31 -13.5q-14 0 -24 10.5t-10 24.5z" />
<glyph unicode="&#x221a;" horiz-adv-x="620" d="M666 750l-339 -866h-44l-94 350l-87 -34l-9 35l125 48l91 -353l321 820h36z" />
<glyph unicode="&#x221e;" horiz-adv-x="804" d="M449 315q10 10 37.5 38t40.5 39t36 28.5t46 24t49 6.5q59 0 98.5 -41.5t39.5 -102.5q0 -75 -55.5 -128.5t-134.5 -53.5q-24 0 -44 6.5t-38.5 24t-28.5 28.5t-31 40t-28 38q-10 -10 -37.5 -38t-40.5 -39t-36 -28.5t-46 -24t-49 -6.5q-59 0 -98.5 41.5t-39.5 102.5 q0 75 56 128.5t135 53.5q24 0 44 -6.5t38.5 -24t28.5 -29t30 -39.5t28 -38zM420 287q-6 8 -29 43t-34 47.5t-36.5 27t-55.5 14.5q-58 0 -97 -45.5t-39 -102.5q0 -47 29.5 -78t79.5 -31q35 0 64 17.5t69.5 59t48.5 48.5zM465 290q9 -12 24.5 -35.5t25.5 -37t26 -29t35.5 -23 t43.5 -7.5q58 0 97 45.5t39 102.5q0 47 -29 78t-79 31q-27 0 -54.5 -14t-45 -30t-44 -43t-39.5 -38z" />
<glyph unicode="&#x222b;" horiz-adv-x="387" d="M319 512l-125 -420q-26 -88 -69 -140t-98 -52q-25 0 -40 4l11 37q13 -4 34 -4q74 0 121 155l125 420q26 88 69 140t99 52q27 0 40 -4l-11 -37q-13 4 -34 4q-75 0 -122 -155z" />
<glyph unicode="&#x2248;" d="M250 247q32 0 84 -27t74 -27q54 0 89 62l41 -21q-55 -85 -136 -85q-32 0 -82 28.5t-77 28.5q-57 0 -96 -58l-39 19q63 80 142 80zM274 418q32 0 84 -27t74 -27q54 0 89 62l41 -21q-55 -85 -136 -85q-32 0 -82 28.5t-77 28.5q-57 0 -96 -58l-39 19q63 80 142 80z" />
<glyph unicode="&#x2260;" d="M101 219h164l96 133h-241l5 37h262l111 155l34 -20l-97 -135h140l-5 -37h-162l-95 -133h238l-5 -37h-260l-112 -155l-32 21l96 134h-142z" />
<glyph unicode="&#x2264;" d="M113 303l480 213l-6 -42l-431 -189l378 -189l-6 -42l-420 213zM76 37h450l-6 -37h-450z" />
<glyph unicode="&#x2265;" d="M143 516l420 -213l-6 -36l-479 -213l5 42l431 189l-377 189zM75 37h450l-5 -37h-450z" />
<glyph unicode="&#x25ca;" horiz-adv-x="566" d="M131 350l152 -346l250 346l-152 346zM89 350l281 390h34l171 -390l-281 -390h-34z" />
<glyph unicode="&#x25fc;" horiz-adv-x="400" d="M0 400h400v-400h-400v400z" />
<glyph unicode="&#xf6c3;" horiz-adv-x="213" d="M95 -84l45 -13l-110 -187l-28 11z" />
<glyph unicode="&#xf8ff;" horiz-adv-x="818" d="M50 343q0 149 105 254.5t253 105.5t254 -105.5t106 -254.5q0 -148 -105.5 -253t-254.5 -105q-148 0 -253 105t-105 253zM116 343q0 -121 85.5 -206.5t206.5 -85.5t207 85.5t86 206.5t-85.5 207t-207.5 86q-121 0 -206.5 -86t-85.5 -207zM404 256q-13 15 -12 41.5t17 45.5 q-21 -17 -25 -62t21 -86q28 -37 62 -48t60 -11t34 -11q14 14 13 54t-24 73q-27 35 -64 37q13 -28 -7 -43q-19 -14 -40 11q7 -3 12 0q5 4 1 10q-3 8 -12 2q-4 -3 -6.5 -10t-6.5 -10q-13 -10 -23 7zM409 343q8 -25 52.5 -44.5t85.5 -5.5q35 12 56 32.5t27 39t14 34.5t20 19 q-16 21 -48.5 31t-76.5 -1q-19 -6 -34 -20.5t-21 -28.5q31 3 38 -20q4 -12 -4.5 -22t-18.5 -13q8 6 4 11q-2 9 -8 6q-8 -4 -6 -12q1 -4 7 -9t8 -10q5 -14 -14 -20q-20 -6 -44 2.5t-37 30.5zM364 416q20 -7 34.5 -28t10.5 -45q8 25 -16 66t-66 55q-55 14 -81.5 3t-49.5 -26 t-36 -11q0 -25 22 -54.5t61 -41.5q40 -15 73 7q-27 15 -19 38q3 12 17 15.5t22 -0.5q-9 -2 -10 -7q-3 -7 4 -9q8 -3 12 6q1 4 -1 11.5t0 12.5q3 12 23 8zM409 343q26 0 58 35.5t33 79.5q-1 36 -14.5 62.5t-29 38t-28 24t-12.5 24.5q-24 -8 -45.5 -38.5t-21.5 -71.5t30 -67 q7 31 30 31q24 0 27 -33q-4 8 -9 8q-8 0 -8 -7q0 -9 10 -9q4 0 10.5 4t11.5 4q14 0 14 -19q0 -21 -15.5 -41.5t-40.5 -24.5zM325 322q13 16 36.5 23t47.5 -2q-16 16 -65.5 4.5t-75.5 -46.5q-21 -30 -25.5 -59.5t1.5 -47t8.5 -36t-3.5 -27.5q25 -7 59.5 5t57.5 45 q26 34 16 72q-24 -21 -42 -7q-11 10 -10 21.5t8 20.5q-2 -9 3 -11q6 -6 10 1q5 7 -2 12q-4 3 -11.5 3.5t-11.5 3.5q-11 7 -1 25z" />
<glyph unicode="&#xfb00;" horiz-adv-x="564" d="M192 365l-52 -365h-41l52 365h-79l5 35h78l13 85q26 172 184 172q26 0 41 -4l-6 -37q-15 4 -36 4q-65 0 -98 -32.5t-44 -102.5l-13 -85h233l13 85q26 172 184 172q26 0 41 -4l-6 -37q-15 4 -36 4q-65 0 -98 -32.5t-44 -102.5l-13 -85h129l-5 -35h-128l-52 -365h-41 l52 365h-233z" />
<glyph unicode="&#xfb03;" horiz-adv-x="765" d="M430 400l11 77q12 85 63.5 133t136.5 48q48 0 66 -5l-6 -37q-18 5 -62 5q-137 0 -157 -144l-11 -77h271l-57 -400h-41l52 365h-230l-52 -365h-41l52 365h-233l-52 -365h-41l52 365h-79l5 35h78l13 85q26 172 184 172q26 0 41 -4l-6 -37q-15 4 -36 4q-65 0 -98 -32.5 t-44 -102.5l-13 -85h234z" />
<glyph unicode="&#xfb04;" horiz-adv-x="761" d="M482 477l-11 -77h128l-5 -35h-128l-52 -365h-41l52 365h-233l-52 -365h-41l52 365h-79l5 35h78l13 85q26 172 184 172q26 0 41 -4l-6 -37q-15 4 -36 4q-65 0 -98 -32.5t-44 -102.5l-13 -85h234l11 77q12 86 65.5 133.5t146.5 47.5q70 0 121 -14l-91 -644h-41l87 615 q-42 6 -80 6q-78 0 -117.5 -36t-49.5 -108z" />
<glyph horiz-adv-x="0" />
<glyph horiz-adv-x="854" d="M470 400h232l30 142h31l-20 -142h132l-5 -35h-132l-35 -249q-7 -52 9.5 -70.5t56.5 -18.5q34 0 62 7l-5 -34q-26 -9 -62 -9q-57 0 -84.5 28.5t-17.5 96.5l35 249h-231l-52 -365h-41l52 365h-233l-52 -365h-41l52 365h-79l5 35h78l13 85q26 172 184 172q26 0 41 -4l-6 -37 q-15 4 -36 4q-65 0 -98 -32.5t-44 -102.5l-13 -85h233l13 85q26 172 184 172q26 0 41 -4l-6 -37q-15 4 -36 4q-65 0 -98 -32.5t-44 -102.5z" />
<glyph horiz-adv-x="513" d="M245 28q83 0 135 58.5t52 141.5q0 64 -36.5 104.5t-101.5 40.5q-76 0 -128.5 -58t-52.5 -138q0 -65 35 -107t97 -42zM402 0l7 73q-27 -39 -72 -60.5t-96 -21.5q-80 0 -125 50t-45 130q0 101 65 170t163 69q51 0 89 -21.5t58 -58.5l13 70h38l-56 -400h-39z" />
<glyph horiz-adv-x="513" d="M257 611l37 43l122 -118l-25 -21zM245 28q83 0 135 58.5t52 141.5q0 64 -36.5 104.5t-101.5 40.5q-76 0 -128.5 -58t-52.5 -138q0 -65 35 -107t97 -42zM402 0l7 73q-27 -39 -72 -60.5t-96 -21.5q-80 0 -125 50t-45 130q0 101 65 170t163 69q51 0 89 -21.5t58 -58.5l13 70 h38l-56 -400h-39z" />
<glyph horiz-adv-x="513" d="M400 654l27 -43l-162 -96l-19 21zM245 28q83 0 135 58.5t52 141.5q0 64 -36.5 104.5t-101.5 40.5q-76 0 -128.5 -58t-52.5 -138q0 -65 35 -107t97 -42zM402 0l7 73q-27 -39 -72 -60.5t-96 -21.5q-80 0 -125 50t-45 130q0 101 65 170t163 69q51 0 89 -21.5t58 -58.5l13 70 h38l-56 -400h-39z" />
<glyph horiz-adv-x="513" d="M345 633l103 -92l-23 -25l-88 66l-104 -66l-19 25zM245 28q83 0 135 58.5t52 141.5q0 64 -36.5 104.5t-101.5 40.5q-76 0 -128.5 -58t-52.5 -138q0 -65 35 -107t97 -42zM402 0l7 73q-27 -39 -72 -60.5t-96 -21.5q-80 0 -125 50t-45 130q0 101 65 170t163 69 q51 0 89 -21.5t58 -58.5l13 70h38l-56 -400h-39z" />
<glyph horiz-adv-x="513" d="M225 527l-23 19q32 55 78 55q21 0 59.5 -17.5t56.5 -17.5q26 0 50 35l21 -17q-9 -25 -32 -41t-49 -16q-17 0 -57 18t-58 18q-26 0 -46 -36zM245 28q83 0 135 58.5t52 141.5q0 64 -36.5 104.5t-101.5 40.5q-76 0 -128.5 -58t-52.5 -138q0 -65 35 -107t97 -42zM402 0l7 73 q-27 -39 -72 -60.5t-96 -21.5q-80 0 -125 50t-45 130q0 101 65 170t163 69q51 0 89 -21.5t58 -58.5l13 70h38l-56 -400h-39z" />
<glyph horiz-adv-x="513" d="M202 544q0 14 10.5 25t25.5 11q12 0 20 -8t8 -20q0 -15 -10.5 -25t-25.5 -10q-13 0 -20.5 7.5t-7.5 19.5zM399 544q0 15 11 25.5t25 10.5q13 0 20.5 -8t7.5 -20q0 -15 -10.5 -25t-25.5 -10q-13 0 -20.5 7.5t-7.5 19.5zM245 28q83 0 135 58.5t52 141.5q0 64 -36.5 104.5 t-101.5 40.5q-76 0 -128.5 -58t-52.5 -138q0 -65 35 -107t97 -42zM402 0l7 73q-27 -39 -72 -60.5t-96 -21.5q-80 0 -125 50t-45 130q0 101 65 170t163 69q51 0 89 -21.5t58 -58.5l13 70h38l-56 -400h-39z" />
<glyph horiz-adv-x="513" d="M350 670q30 0 51 -22t21 -52q0 -36 -29.5 -64t-65.5 -28q-31 0 -52 22t-21 52q0 36 29.5 64t66.5 28zM345 639q-23 0 -41 -17t-18 -41q0 -20 12.5 -33t32.5 -13q23 0 40.5 17.5t17.5 41.5q0 20 -12.5 32.5t-31.5 12.5zM245 28q83 0 135 58.5t52 141.5q0 64 -36.5 104.5 t-101.5 40.5q-76 0 -128.5 -58t-52.5 -138q0 -65 35 -107t97 -42zM402 0l7 73q-27 -39 -72 -60.5t-96 -21.5q-80 0 -125 50t-45 130q0 101 65 170t163 69q51 0 89 -21.5t58 -58.5l13 70h38l-56 -400h-39z" />
<glyph horiz-adv-x="513" d="M246 28q83 0 135 58.5t52 141.5q0 64 -36.5 104.5t-102.5 40.5q-76 0 -128.5 -58t-52.5 -138q0 -65 35.5 -107t97.5 -42zM388 -83l22 156q-28 -39 -72.5 -60.5t-95.5 -21.5q-80 0 -125.5 50t-45.5 130q0 101 65 170t163 69q51 0 89 -21.5t58 -58.5l13 70h38l-68 -483 q-11 -77 -67.5 -124t-145.5 -47q-71 0 -115.5 37.5t-48.5 89.5h40q5 -37 38 -64t91 -27q73 0 115.5 36t51.5 99z" />
<glyph horiz-adv-x="513" d="M245 28q83 0 135 58.5t52 141.5q0 64 -36.5 104.5t-101.5 40.5q-76 0 -128.5 -58t-52.5 -138q0 -65 35 -107t97 -42zM402 0l7 73q-27 -39 -72 -60.5t-96 -21.5q-80 0 -125 50t-45 130q0 101 65 170t163 69q51 0 89 -21.5t58 -58.5l13 70h38l-56 -400h-39zM200 531l5 35 h260l-5 -35h-260z" />
<glyph horiz-adv-x="513" d="M245 28q83 0 135 58.5t52 141.5q0 64 -36.5 104.5t-101.5 40.5q-76 0 -128.5 -58t-52.5 -138q0 -65 35 -107t97 -42zM402 0l7 73q-27 -39 -72 -60.5t-96 -21.5q-80 0 -125 50t-45 130q0 101 65 170t163 69q51 0 89 -21.5t58 -58.5l13 70h38l-56 -400h-39zM330 531 q-43 0 -77 26t-33 67h36q3 -26 27 -41t53 -15t57 15t39 41h36q-11 -41 -53 -67t-85 -26z" />
<glyph horiz-adv-x="513" d="M402 0l7 73q-27 -39 -72 -60.5t-96 -21.5q-80 0 -125 50t-45 130q0 101 65 170t163 69q51 0 89 -21.5t58 -58.5l13 70h38l-56 -400q-89 -58 -89 -113q0 -24 18 -36.5t45 -12.5q25 0 50 9l-5 -37q-32 -9 -54 -9q-40 0 -66 21t-26 57q0 69 88 121zM245 28q83 0 135 58.5 t52 141.5q0 64 -36.5 104.5t-101.5 40.5q-76 0 -128.5 -58t-52.5 -138q0 -65 35 -107t97 -42z" />
<glyph horiz-adv-x="513" d="M245 28q83 0 135 58.5t52 141.5q0 64 -36.5 104.5t-101.5 40.5q-76 0 -128.5 -58t-52.5 -138q0 -65 35 -107t97 -42zM402 0l7 73q-27 -39 -72 -60.5t-96 -21.5q-80 0 -125 50t-45 130q0 101 65 170t163 69q51 0 89 -21.5t58 -58.5l13 70h38l-56 -400h-39zM345 650 q30 0 51 -22t21 -52q0 -36 -29.5 -64t-66.5 -28q-30 0 -50.5 22t-20.5 52q0 36 29 64t66 28zM341 619q-24 0 -41.5 -17.5t-17.5 -41.5q0 -20 12.5 -32.5t31.5 -12.5q23 0 41 17t18 41q0 20 -12.5 33t-31.5 13zM436 839l26 -43l-162 -96l-19 21z" />
<glyph horiz-adv-x="513" d="M246 28q83 0 135 58.5t52 141.5q0 64 -36.5 104.5t-102.5 40.5q-76 0 -128.5 -58t-52.5 -138q0 -65 35.5 -107t97.5 -42zM388 -83l22 156q-28 -39 -72.5 -60.5t-95.5 -21.5q-80 0 -125.5 50t-45.5 130q0 101 65 170t163 69q51 0 89 -21.5t58 -58.5l13 70h38l-68 -483 q-11 -77 -67.5 -124t-145.5 -47q-71 0 -115.5 37.5t-48.5 89.5h40q5 -37 38 -64t91 -27q73 0 115.5 36t51.5 99zM345 633l104 -92l-24 -25l-88 66l-104 -66l-18 25z" />
<glyph horiz-adv-x="513" d="M246 28q83 0 135 58.5t52 141.5q0 64 -36.5 104.5t-102.5 40.5q-76 0 -128.5 -58t-52.5 -138q0 -65 35.5 -107t97.5 -42zM388 -83l22 156q-28 -39 -72.5 -60.5t-95.5 -21.5q-80 0 -125.5 50t-45.5 130q0 101 65 170t163 69q51 0 89 -21.5t58 -58.5l13 70h38l-68 -483 q-11 -77 -67.5 -124t-145.5 -47q-71 0 -115.5 37.5t-48.5 89.5h40q5 -37 38 -64t91 -27q73 0 115.5 36t51.5 99zM330 531q-43 0 -77 26t-33 67h36q3 -26 27 -41t53 -15t57 15t39 41h36q-11 -41 -53 -67t-85 -26z" />
<glyph horiz-adv-x="513" d="M246 28q83 0 135 58.5t52 141.5q0 64 -36.5 104.5t-102.5 40.5q-76 0 -128.5 -58t-52.5 -138q0 -65 35.5 -107t97.5 -42zM388 -83l22 156q-28 -39 -72.5 -60.5t-95.5 -21.5q-80 0 -125.5 50t-45.5 130q0 101 65 170t163 69q51 0 89 -21.5t58 -58.5l13 70h38l-68 -483 q-11 -77 -67.5 -124t-145.5 -47q-71 0 -115.5 37.5t-48.5 89.5h40q5 -37 38 -64t91 -27q73 0 115.5 36t51.5 99zM302 544q0 15 10.5 25.5t24.5 10.5q13 0 20.5 -8t7.5 -20q0 -15 -10.5 -25t-25.5 -10q-27 0 -27 27z" />
<glyph horiz-adv-x="513" d="M246 28q83 0 135 58.5t52 141.5q0 64 -36.5 104.5t-102.5 40.5q-76 0 -128.5 -58t-52.5 -138q0 -65 35.5 -107t97.5 -42zM388 -83l22 156q-28 -39 -72.5 -60.5t-95.5 -21.5q-80 0 -125.5 50t-45.5 130q0 101 65 170t163 69q51 0 89 -21.5t58 -58.5l13 70h38l-68 -483 q-11 -77 -67.5 -124t-145.5 -47q-71 0 -115.5 37.5t-48.5 89.5h40q5 -37 38 -64t91 -27q73 0 115.5 36t51.5 99zM338 506l-45 13l109 187l28 -11z" />
<glyph horiz-adv-x="340" d="M173 619h-36q13 38 49 60.5t80 22.5q55 0 84 -28.5t22 -75.5l-28 -198h-31l3 44q-40 -47 -109 -47q-48 0 -76.5 21.5t-28.5 61.5q0 107 156 107h78l2 11q6 34 -14.5 53.5t-61.5 19.5q-32 0 -56 -14t-33 -38zM211 428q43 0 76.5 24.5t39.5 65.5l5 38h-78q-117 0 -117 -72 q0 -27 20 -41.5t54 -14.5z" />
<glyph horiz-adv-x="383" d="M115 529q0 70 52 121.5t123 51.5q57 0 94 -39.5t37 -96.5q0 -70 -52 -121t-122 -51q-58 0 -95 39t-37 96zM151 531q0 -46 28 -75.5t72 -29.5q55 0 95 40t40 98q0 47 -28 76.5t-72 29.5q-56 0 -95.5 -40t-39.5 -99z" />
<glyph horiz-adv-x="213" d="M206 706l45 -13l-110 -187l-28 11z" />
<glyph horiz-adv-x="300" d="M322 886l27 -39l-161 -87l-19 19z" />
<glyph horiz-adv-x="300" d="M293 900l-110 -137l-28 16l93 138zM457 900l-110 -137l-28 16l93 138z" />
<glyph horiz-adv-x="300" d="M189 847l37 39l123 -107l-24 -19z" />
<glyph horiz-adv-x="300" d="M272 867l105 -83l-25 -23l-87 60l-105 -60l-17 23z" />
<glyph horiz-adv-x="300" d="M385 840l-129 -82l-105 82l25 23l87 -60l105 60z" />
<glyph horiz-adv-x="300" d="M258 772q-43 0 -77.5 23.5t-33.5 60.5h36q4 -23 27.5 -37t52.5 -14t57 14t39 37h36q-11 -37 -52.5 -60.5t-84.5 -23.5z" />
<glyph horiz-adv-x="300" d="M154 771l-23 17q31 50 77 50q21 0 60 -16t57 -16q28 0 49 32l22 -15q-9 -22 -32 -37t-49 -15q-17 0 -57 16.5t-58 16.5q-26 0 -46 -33z" />
<glyph horiz-adv-x="300" d="M130 775l4 31h260l-4 -31h-260z" />
<glyph horiz-adv-x="300" d="M132 791q0 14 10 23.5t25 9.5q12 0 20 -7.5t8 -18.5q0 -13 -11 -22t-26 -9q-26 0 -26 24zM329 791q0 14 10 23.5t25 9.5q12 0 20 -7.5t8 -18.5q0 -13 -11 -22t-26 -9q-26 0 -26 24z" />
<glyph horiz-adv-x="300" d="M230 791q0 13 10.5 23t24.5 10q13 0 20.5 -7.5t7.5 -18.5q0 -13 -11 -22t-26 -9q-26 0 -26 24z" />
<glyph horiz-adv-x="300" d="M278 905q31 0 52 -19.5t21 -47.5q0 -33 -29 -57.5t-65 -24.5q-31 0 -52 19.5t-21 47.5q0 32 29 57t65 25zM274 877q-23 0 -40.5 -15t-17.5 -37q0 -18 13 -30t32 -12q23 0 40.5 15t17.5 37q0 18 -13 30t-32 12z" />
<glyph horiz-adv-x="650" d="M618 13l-32 -22l-63 94q-81 -94 -228 -94q-95 0 -152.5 48.5t-57.5 127.5t50.5 135t128.5 81q-44 17 -66 56.5t-22 83.5q0 67 55.5 122t146.5 55h150l-5 -39h-150q-72 0 -113.5 -39.5t-41.5 -97.5q0 -20 6 -39.5t19.5 -39.5t42 -32.5t68.5 -12.5h214l16 109h42l-16 -109 h58l-5 -39h-57l-14 -98q-11 -78 -45 -142zM300 30q219 0 250 233l13 98h-213q-100 0 -161 -56t-61 -133q0 -65 49 -103.5t123 -38.5z" />
<glyph d="M294 -9q-95 0 -151 78.5t-56 211.5q0 186 89.5 307t218.5 121q95 0 151 -78.5t56 -210.5q0 -187 -89 -308t-219 -121zM300 32q106 0 181.5 107.5t75.5 275.5q0 116 -45.5 184.5t-121.5 68.5q-107 0 -183.5 -108.5t-76.5 -275.5q0 -116 46.5 -184t123.5 -68z" />
<glyph d="M304 0l93 656l-182 -103l-15 34l250 141l-103 -728h-43z" />
<glyph d="M164 41h357l-5 -41h-453l302 287q84 80 112 119q48 65 48 123q0 60 -37.5 99.5t-103.5 39.5q-78 0 -129.5 -46t-56.5 -120h-43q3 86 73 146.5t161 60.5q83 0 131 -49.5t48 -127.5q0 -39 -13 -75t-43.5 -74t-48.5 -57t-59 -58z" />
<glyph d="M327 344l5 41q82 2 134.5 45t52.5 118q0 52 -36.5 86t-99.5 34q-69 0 -117 -36t-60 -96h-43q17 80 77.5 126.5t149.5 46.5q80 0 127 -44t47 -114q0 -134 -147 -185q47 -12 80.5 -50t33.5 -102q0 -93 -69 -158t-180 -65q-90 0 -149.5 51t-47.5 130h43q-4 -61 40.5 -100.5 t117.5 -39.5q86 0 143 53t57 125q0 64 -44 97t-115 37z" />
<glyph d="M458 180h93l-5 -41h-93l-20 -139h-43l20 139h-370l498 608zM415 180l63 437l-354 -437h291z" />
<glyph d="M565 256q0 -114 -75.5 -189.5t-190.5 -75.5q-91 0 -152.5 51t-49.5 130h43q-4 -61 43 -100.5t120 -39.5q96 0 156.5 61t60.5 156q0 70 -41.5 114t-126.5 44h-190l55 293h344l-7 -41h-304l-39 -211h147q103 0 155 -52.5t52 -139.5z" />
<glyph d="M587 572h-43q-4 44 -40 70t-84 26q-50 0 -91.5 -21.5t-69.5 -56t-49.5 -81t-33.5 -91.5t-18 -93q31 63 93 104.5t133 41.5q85 0 135 -58t50 -147q0 -113 -72.5 -194t-183.5 -81q-94 0 -149.5 66.5t-55.5 206.5q0 52 8.5 107.5t31.5 117t57 109.5t91 79.5t128 31.5 q68 0 113.5 -38t49.5 -99zM319 32q92 0 148.5 66t56.5 164q0 73 -39.5 120.5t-105.5 47.5q-89 0 -153 -66.5t-64 -162.5q0 -74 42.5 -121.5t114.5 -47.5z" />
<glyph d="M546 659h-377l6 41h448l-454 -700h-48z" />
<glyph d="M300 32q86 0 143.5 50.5t57.5 122.5q0 59 -43 98.5t-115 39.5q-85 0 -143 -51t-58 -123q0 -59 43.5 -98t114.5 -39zM395 709q85 0 134.5 -45t49.5 -117q0 -65 -38.5 -111.5t-104.5 -70.5q110 -50 110 -159q0 -92 -73 -153.5t-179 -61.5q-89 0 -143.5 47t-54.5 122 q0 69 42.5 121.5t119.5 83.5q-46 18 -72.5 54.5t-26.5 84.5q0 87 66.5 146t169.5 59zM350 384q78 0 131 46t53 111q0 55 -39 91t-105 36q-79 0 -132 -46.5t-53 -112.5q0 -54 39 -89.5t106 -35.5z" />
<glyph d="M102 128h43q4 -43 45 -69.5t90 -26.5q50 0 90 20t66.5 51.5t47 78t31.5 92.5t19 101q-32 -63 -95 -104.5t-134 -41.5q-85 0 -135 58t-50 147q0 113 72 194t184 81q205 0 205 -269q0 -201 -79.5 -325t-227.5 -124q-69 0 -119 38.5t-53 98.5zM371 668q-92 0 -149 -66 t-57 -164q0 -73 39.5 -120.5t105.5 -47.5q90 0 153.5 67t63.5 165q0 75 -40 120.5t-116 45.5z" />
<glyph horiz-adv-x="382" d="M190 -4q-54 0 -86.5 40.5t-32.5 108.5q0 93 49.5 153t121.5 60q53 0 86 -41t33 -109q0 -93 -49.5 -152.5t-121.5 -59.5zM196 32q51 0 87 48.5t36 123.5q0 53 -22.5 85t-59.5 32q-52 0 -89 -48.5t-37 -122.5q0 -54 23.5 -86t61.5 -32z" />
<glyph horiz-adv-x="242" d="M129 0l44 304l-91 -47l-14 31l154 84l-53 -372h-40z" />
<glyph horiz-adv-x="362" d="M135 36h186l-5 -36h-274l175 155q25 22 35.5 32.5t27 34t16.5 42.5q0 26 -18 42.5t-50 16.5q-35 0 -60 -19t-29 -50l-1 -9h-39l1 9q5 45 42 74.5t91 29.5q48 0 76 -25.5t28 -65.5q0 -26 -17 -54t-31.5 -42t-42.5 -39z" />
<glyph horiz-adv-x="343" d="M186 167l4 34q42 1 65.5 19t23.5 50q0 22 -17.5 36.5t-48.5 14.5q-34 0 -57 -15.5t-28 -44.5h-40q8 44 43.5 70.5t86.5 26.5q48 0 75.5 -23.5t27.5 -59.5q0 -65 -73 -90q25 -6 41.5 -26t16.5 -50q0 -47 -39.5 -80.5t-100.5 -33.5q-52 0 -86 28t-27 73h39q-2 -29 20 -46.5 t58 -17.5q41 0 67.5 22.5t26.5 53.5q0 56 -78 59z" />
<glyph horiz-adv-x="354" d="M285 101h50l-5 -36h-50l-9 -65h-40l9 65h-202l288 329zM247 101l25 181l-159 -181h134z" />
<glyph horiz-adv-x="343" d="M317 131q0 -58 -42 -97t-106 -39q-52 0 -86.5 28t-27.5 73h39q-1 -29 21.5 -46.5t57.5 -17.5q46 0 74.5 26t28.5 67q0 30 -20.5 49t-62.5 19h-109l31 161h207l-5 -37h-170l-16 -87h68q59 0 88.5 -27t29.5 -72z" />
<glyph horiz-adv-x="352" d="M338 280h-40q-2 19 -18.5 30.5t-40.5 11.5q-55 0 -87 -44t-41 -100q16 27 48 44t68 17q47 0 75 -29.5t28 -75.5q0 -58 -40.5 -98.5t-103.5 -40.5q-52 0 -84 34.5t-32 107.5q0 33 8.5 68.5t26.5 71t54 58.5t84 23q41 0 67.5 -21t27.5 -57zM193 31q44 0 70 28.5t26 70.5 q0 32 -19 53t-51 21q-42 0 -74 -28.5t-32 -69.5q0 -33 22 -54t58 -21z" />
<glyph horiz-adv-x="324" d="M273 317h-196l5 37h258l-243 -354h-45z" />
<glyph horiz-adv-x="352" d="M180 31q42 0 69.5 21.5t27.5 52.5q0 27 -21 43.5t-57 16.5q-42 0 -69 -21.5t-27 -52.5q0 -27 21 -43.5t56 -16.5zM226 358q49 0 77.5 -24.5t28.5 -62.5q0 -61 -73 -87q58 -22 58 -79q0 -47 -41 -78t-101 -31q-51 0 -82.5 24.5t-31.5 63.5q0 33 22 59.5t60 40.5 q-51 21 -51 67q0 45 38 76t96 31zM204 201q38 0 62.5 19.5t24.5 46.5q0 24 -18.5 39.5t-51.5 15.5q-37 0 -62 -20t-25 -48q0 -23 19 -38t51 -15z" />
<glyph horiz-adv-x="352" d="M64 73h39q2 -18 21.5 -30t43.5 -12q103 0 124 146q-15 -27 -48 -45t-69 -18q-47 0 -75 29.5t-28 75.5q0 58 40 98.5t103 40.5q117 0 117 -141q0 -34 -6 -66.5t-22 -70.5t-52.5 -61.5t-88.5 -23.5q-41 0 -69.5 21.5t-29.5 56.5zM210 323q-43 0 -70 -28.5t-27 -71.5 q0 -32 19.5 -52.5t51.5 -20.5q42 0 73.5 28.5t31.5 69.5q0 34 -21 54.5t-58 20.5z" />
<glyph horiz-adv-x="382" d="M239 343q-54 0 -86.5 40.5t-32.5 108.5q0 93 49.5 153t121.5 60q54 0 86.5 -41t32.5 -109q0 -93 -49.5 -152.5t-121.5 -59.5zM245 379q51 0 87 48.5t36 123.5q0 53 -22.5 85t-59.5 32q-52 0 -89 -48.5t-37 -122.5q0 -54 23.5 -86t61.5 -32z" />
<glyph horiz-adv-x="242" d="M178 347l44 304l-91 -47l-14 31l154 84l-53 -372h-40z" />
<glyph horiz-adv-x="362" d="M184 383h186l-5 -36h-274l175 155q25 22 35.5 32.5t27 34t16.5 42.5q0 26 -18 42.5t-50 16.5q-35 0 -60 -19t-29 -50l-1 -9h-39l1 9q5 45 42 74.5t91 29.5q48 0 76 -25.5t28 -65.5q0 -26 -17 -54t-31.5 -42t-42.5 -39z" />
<glyph horiz-adv-x="343" d="M235 514l4 34q42 1 65.5 19t23.5 50q0 22 -17.5 36.5t-48.5 14.5q-34 0 -57 -15.5t-28 -44.5h-40q8 44 43.5 70.5t86.5 26.5q48 0 75.5 -23.5t27.5 -59.5q0 -65 -73 -90q25 -6 41.5 -26t16.5 -50q0 -47 -39.5 -80.5t-100.5 -33.5q-52 0 -86 28t-27 73h39q-2 -29 20 -46.5 t58 -17.5q41 0 67.5 22.5t26.5 53.5q0 56 -78 59z" />
<glyph horiz-adv-x="354" d="M334 448h50l-5 -36h-50l-9 -65h-40l9 65h-202l288 329zM296 448l25 181l-159 -181h134z" />
<glyph horiz-adv-x="343" d="M366 477q0 -58 -42 -97t-106 -39q-52 0 -86.5 28t-27.5 73h39q-1 -29 21.5 -46.5t57.5 -17.5q46 0 74.5 26t28.5 67q0 30 -20.5 49t-62.5 19h-109l31 161h207l-5 -37h-170l-16 -87h68q59 0 88.5 -27t29.5 -72z" />
<glyph horiz-adv-x="352" d="M387 626h-40q-2 19 -18.5 30.5t-40.5 11.5q-55 0 -87 -44t-41 -100q16 27 48 44t68 17q47 0 75 -29.5t28 -75.5q0 -58 -40.5 -98.5t-103.5 -40.5q-52 0 -84 34.5t-32 107.5q0 33 8.5 68.5t27 71t54 58.5t83.5 23q41 0 67.5 -21t27.5 -57zM242 377q43 0 69.5 28.5 t26.5 70.5q0 32 -19 53t-51 21q-42 0 -74 -28.5t-32 -69.5q0 -33 22 -54t58 -21z" />
<glyph horiz-adv-x="324" d="M322 663h-196l5 37h258l-243 -354h-45z" />
<glyph horiz-adv-x="352" d="M229 378q42 0 69.5 21.5t27.5 52.5q0 27 -21 43.5t-57 16.5q-42 0 -69 -21.5t-27 -52.5q0 -27 21 -43.5t56 -16.5zM275 705q49 0 77.5 -24.5t28.5 -62.5q0 -61 -73 -87q58 -22 58 -79q0 -47 -41 -78t-101 -31q-51 0 -82.5 24.5t-31.5 63.5q0 33 22 59.5t60 40.5 q-51 21 -51 67q0 45 38 76t96 31zM253 548q38 0 62.5 19.5t24.5 46.5q0 24 -18.5 39.5t-51.5 15.5q-37 0 -62 -20t-25 -48q0 -23 19 -38t51 -15z" />
<glyph horiz-adv-x="352" d="M112 419h39q2 -18 21.5 -30t43.5 -12q103 0 124 146q-15 -27 -48 -45t-69 -18q-47 0 -75 29.5t-28 75.5q0 58 40 98.5t103 40.5q117 0 117 -142q0 -33 -6 -65.5t-22 -70.5t-52.5 -61.5t-88.5 -23.5q-41 0 -69.5 21.5t-29.5 56.5zM258 669q-43 0 -70 -28.5t-27 -71.5 q0 -32 19.5 -52.5t51.5 -20.5q42 0 73.5 28.5t31.5 69.5q0 34 -21 54.5t-58 20.5z" />
<glyph horiz-adv-x="186" d="M170 403l-42 -293h-37l40 293h39zM66 20q0 13 11 23t23 10t19.5 -7t7.5 -18q0 -14 -10 -24t-24 -10q-11 0 -19 7.5t-8 18.5z" />
<glyph horiz-adv-x="375" d="M91 247l4 33h58l34 123h39l-34 -123h92l34 123h38l-34 -123h50l-4 -33h-54l-24 -85h53l-4 -32h-58l-36 -130h-38l36 130h-92l-36 -130h-39l36 130h-50l4 32h54l25 85h-54zM183 247l-24 -85h93l24 85h-93z" />
<glyph horiz-adv-x="375" d="M269 460l-8 -53q45 -5 73.5 -30.5t30.5 -64.5h-41q-1 22 -20 37.5t-48 19.5l-21 -149q54 -20 80 -42t26 -60q0 -52 -40.5 -84t-96.5 -38l-8 -54h-35l8 54q-52 3 -84 29t-33 66h41q5 -53 81 -58l22 158q-54 20 -80 40.5t-26 59.5q0 44 36.5 78t99.5 38l8 53h35zM131 298 q0 -25 17.5 -39t53.5 -27l19 138q-40 -3 -65 -25t-25 -47zM299 111q0 24 -17.5 39.5t-52.5 28.5l-20 -146q36 4 63 25t27 53z" />
<glyph horiz-adv-x="458" d="M75 306q0 44 29.5 73.5t74.5 29.5q36 0 57 -22t21 -57q0 -44 -29 -73.5t-74 -29.5q-37 0 -58 22t-21 57zM222 328q0 22 -12 36t-35 14q-29 0 -47 -20t-18 -50q0 -22 12.5 -36t35.5 -14q30 0 47 20t17 50zM420 393l-300 -404l-29 17l300 404zM257 85q6 39 34.5 64.5 t69.5 25.5t61.5 -25.5t14.5 -64.5q-5 -40 -33 -65.5t-69 -25.5t-62 25.5t-16 65.5zM403 85q4 26 -8.5 42.5t-38.5 16.5t-43.5 -16.5t-21.5 -42.5q-3 -27 9.5 -43.5t38.5 -16.5q27 0 44 16.5t20 43.5z" />
<glyph horiz-adv-x="404" d="M54 93q0 41 26 69t74 55q-44 46 -44 93q0 35 31.5 66.5t87.5 31.5q42 0 64.5 -23t22.5 -56q0 -21 -8 -38.5t-27 -33t-31.5 -23t-40.5 -23.5l97 -115q29 39 35 87l6 47h39l-6 -47q-9 -67 -50 -116l54 -67h-49l-34 38q-48 -43 -125 -43q-54 0 -88 28.5t-34 69.5zM181 30 q60 0 98 36l-105 125q-38 -22 -59 -43.5t-21 -50.5q0 -28 25 -47.5t62 -19.5zM179 249l15 -9q22 12 32 18.5t24 17.5t20 22.5t6 25.5q0 20 -13 34.5t-40 14.5q-34 0 -53.5 -19t-19.5 -41q0 -27 29 -64z" />
<glyph horiz-adv-x="327" d="M200 93h-40l10 78q25 14 41.5 24t37.5 27t31.5 36.5t10.5 40.5q0 32 -21 52t-60 20q-46 0 -74.5 -24t-32.5 -65h-39q2 54 46 90t104 36q55 0 86 -29t31 -76q0 -35 -21 -65.5t-43.5 -47t-57.5 -36.5zM140 20q0 13 10.5 23t24.5 10q11 0 18.5 -7.5t7.5 -18.5 q0 -13 -10.5 -23t-24.5 -10q-11 0 -18.5 7.5t-7.5 18.5z" />
<glyph horiz-adv-x="374" d="M186 -5q-59 0 -94 46t-35 122q0 107 53.5 175.5t132.5 68.5q59 0 94 -46t35 -122q0 -107 -53.5 -175.5t-132.5 -68.5zM191 32q57 0 98.5 57t41.5 145q0 62 -25.5 99t-67.5 37q-57 0 -98.5 -57.5t-41.5 -144.5q0 -62 25.5 -99t67.5 -37z" />
<glyph horiz-adv-x="375" d="M185 0l49 352l-101 -54l-14 32l138 77l27 8l-58 -415h-41z" />
<glyph horiz-adv-x="375" d="M129 38h198l-5 -38h-279l12 16q112 106 169 158q20 18 29.5 27t26 27.5t24.5 36t8 35.5q0 31 -20 50.5t-54 19.5q-37 0 -63.5 -19.5t-35.5 -53.5q-3 -15 -3 -16h-40l3 19q10 46 50.5 77t92.5 31q51 0 81 -29.5t30 -75.5q0 -23 -8 -44t-26.5 -43t-28.5 -32t-36 -33z" />
<glyph horiz-adv-x="374" d="M204 192l5 35q45 1 72.5 23t27.5 60q0 26 -19.5 43t-53.5 17q-37 0 -63 -18.5t-33 -51.5h-40q9 49 48 78.5t95 29.5q50 0 79.5 -26.5t29.5 -66.5q0 -75 -82 -105q27 -7 45.5 -29.5t18.5 -56.5q0 -53 -43 -91t-110 -38q-57 0 -93.5 31t-28.5 81h40q-2 -34 22.5 -54 t63.5 -20q47 0 77 26t30 63q0 65 -88 70z" />
<glyph horiz-adv-x="375" d="M293 113h54l-5 -38h-54l-11 -75h-41l11 75h-215l11 21l267 314l26 9zM252 113l30 211q-26 -31 -87 -101.5t-94 -109.5h151z" />
<glyph horiz-adv-x="375" d="M352 149q0 -66 -46 -110t-117 -44q-56 0 -93.5 31t-29.5 81h40q-1 -33 23.5 -53.5t63.5 -20.5q52 0 84.5 30.5t32.5 79.5q0 36 -22.5 58t-69.5 22h-118l34 180h223l-5 -39h-185l-21 -103h77q64 0 96.5 -30.5t32.5 -81.5z" />
<glyph horiz-adv-x="375" d="M362 321h-41q-2 23 -21 36t-45 13q-32 0 -58 -16t-42.5 -42.5t-26 -54t-14.5 -58.5q19 32 53 52.5t74 20.5q50 0 81 -33.5t31 -85.5q0 -66 -44 -112t-112 -46q-58 0 -92.5 39.5t-34.5 120.5q0 38 9.5 78t29 81t59 67.5t91.5 26.5q44 0 73 -23.5t30 -63.5zM202 32 q49 0 78.5 33t29.5 84q0 38 -21 62t-57 24q-47 0 -81.5 -33.5t-34.5 -82.5q0 -39 23.5 -63t62.5 -24z" />
<glyph horiz-adv-x="375" d="M321 364h-216l5 39h277l-13 -24l-253 -379h-45z" />
<glyph horiz-adv-x="375" d="M191 32q47 0 77.5 25t30.5 62q0 31 -23.5 51t-61.5 20q-47 0 -77.5 -25.5t-30.5 -61.5q0 -31 23.5 -51t61.5 -20zM245 407q52 0 83.5 -27t31.5 -69q0 -70 -83 -102q64 -25 64 -90q0 -53 -45 -88.5t-110 -35.5q-55 0 -89 28t-34 72q0 38 24.5 68.5t66.5 45.5 q-55 23 -55 78q0 51 41.5 85.5t104.5 34.5zM219 227q42 0 70 23t28 56q0 27 -21 45.5t-57 18.5q-42 0 -69.5 -23.5t-27.5 -56.5q0 -28 20.5 -45.5t56.5 -17.5z" />
<glyph horiz-adv-x="375" d="M67 81h41q2 -22 23.5 -35.5t48.5 -13.5q113 0 138 173q-19 -33 -54 -54t-74 -21q-51 0 -81.5 33.5t-30.5 85.5q0 66 44.5 112.5t112.5 46.5q126 0 126 -159q0 -20 -1.5 -39t-7 -51.5t-18 -58.5t-32 -51t-52.5 -39.5t-75 -14.5q-45 0 -76 23.5t-32 62.5zM229 371 q-49 0 -79.5 -33.5t-30.5 -84.5q0 -37 22 -61.5t58 -24.5q47 0 81 34t34 84q0 39 -22 62.5t-63 23.5z" />
<glyph horiz-adv-x="375" d="M249 288l-8 -53q38 -4 63.5 -24.5t28.5 -51.5h-38q-10 36 -58 42l-24 -172q52 6 71 43h38q-12 -32 -43.5 -52.5t-71.5 -24.5l-7 -53h-31l7 54q-42 4 -68.5 34t-26.5 72q0 50 37.5 88t91.5 44l8 54h31zM119 104q0 -29 17.5 -49.5t45.5 -24.5l24 170q-38 -6 -62.5 -32.5 t-24.5 -63.5z" />
<glyph horiz-adv-x="375" d="M111 179h63q-2 5 -29.5 45t-27.5 69q0 44 39 79.5t96 35.5q53 0 83 -32.5t20 -80.5q-2 -8 -2 -13h-39q6 41 -11 65t-57 24q-39 0 -64 -23.5t-25 -52.5q0 -26 27 -63.5t32 -52.5h87l-4 -30h-77l-2 -12q-10 -56 -76 -101h190l-5 -36h-280l5 36h39q32 14 60.5 46t28.5 63v4 h-75z" />
<glyph horiz-adv-x="375" d="M87 253h66l-73 150h44l94 -194l148 194h43l-115 -150h66l-4 -30h-84l-34 -44h112l-5 -30h-116l-21 -149h-41l21 149h-116l5 30h113l-23 44h-84z" />
<glyph horiz-adv-x="374" d="M386 376l-6 -41q-36 36 -91 36q-51 0 -88 -33t-53 -85h164l-14 -30h-157q-7 -19 -7 -32q0 -2 0.5 -6.5t0.5 -5.5h139l-15 -30h-125q2 -58 30.5 -88.5t77.5 -30.5q51 0 101 36l-7 -41q-38 -30 -101 -30q-66 0 -104.5 38.5t-38.5 115.5h-44l16 30h30v7q0 25 6 37h-41l14 30 h33q21 71 69.5 113t117.5 42q61 0 93 -32z" />
<glyph horiz-adv-x="374" d="M33 125h59l39 278h259l-5 -39h-218l-19 -131h200l-5 -38h-200l-10 -70h77l-4 -30h-77l-14 -95h-41l14 95h-59z" />
<glyph horiz-adv-x="374" d="M86 132h94l1 5q4 24 -24 65h-61l5 30h37q-21 31 -21 62q0 43 39 78.5t96 35.5q53 0 83 -32.5t20 -80.5q-2 -8 -2 -13h-39q6 41 -11 65t-57 24q-38 0 -63.5 -23.5t-25.5 -51.5q0 -27 26 -64h130l-5 -30h-106q22 -39 18 -65l-1 -5h79l-4 -30h-87q-19 -36 -63 -66h190 l-5 -36h-280l5 36h39q45 20 74 66h-85z" />
<glyph horiz-adv-x="374" d="M59 301h52l14 102h100q57 0 92 -25t34 -77h48l-4 -30h-48q-11 -54 -53 -80t-102 -26h-60l-23 -165h-41l39 271h-52zM138 202h60q90 0 108 69h-158zM161 365l-9 -64h157q-3 64 -89 64h-59z" />
<glyph horiz-adv-x="375" d="M127 196l10 34h61l15 48q32 100 134 100q19 0 29 -3l-12 -34q-14 2 -24 2q-68 0 -88 -65l-15 -48h89l-11 -34h-88l-79 -245q-32 -100 -133 -100q-15 0 -29 2l11 35q6 -2 24 -2q69 0 89 65l79 245h-62z" />
<glyph horiz-adv-x="186" d="M49 -171l43 293h36l-39 -293h-40zM152 211q0 -13 -10 -23t-24 -10q-11 0 -18.5 8t-7.5 19q0 13 10 22.5t24 9.5q11 0 18.5 -7.5t7.5 -18.5z" />
<glyph horiz-adv-x="327" d="M145 138h40l-11 -78q-33 -17 -55.5 -32t-43.5 -41.5t-21 -54.5q0 -31 21.5 -51t59.5 -20q47 0 75.5 24t30.5 65h40q-1 -54 -45.5 -90t-104.5 -36q-55 0 -86 29t-31 76q0 26 10.5 49t31 42t37.5 30.5t43 26.5zM205 212q0 -14 -10.5 -24t-24.5 -10q-11 0 -18.5 8t-7.5 19 q0 13 11 22.5t24 9.5q11 0 18.5 -7t7.5 -18z" />
<glyph horiz-adv-x="672" d="M75 306q0 44 29.5 73.5t74.5 29.5q36 0 57 -22t21 -57q0 -44 -29 -73.5t-74 -29.5q-37 0 -58 22t-21 57zM222 328q0 22 -12 36t-35 14q-29 0 -47 -20t-18 -50q0 -22 12.5 -36t35.5 -14q30 0 47 20t17 50zM420 393l-300 -404l-29 17l300 404zM257 85q6 39 34.5 64.5 t69.5 25.5t61.5 -25.5t14.5 -64.5q-5 -40 -33 -65.5t-69 -25.5t-62 25.5t-16 65.5zM403 85q4 26 -8.5 42.5t-38.5 16.5t-43.5 -16.5t-21.5 -42.5q-3 -27 9.5 -43.5t38.5 -16.5q27 0 44 16.5t20 43.5zM470 73q0 43 30 72.5t75 29.5q36 0 57 -22t21 -56q0 -44 -29.5 -73.5 t-74.5 -29.5q-37 0 -58 22t-21 57zM618 94q0 23 -12.5 36.5t-35.5 13.5q-29 0 -47 -19.5t-18 -49.5q0 -23 12.5 -36.5t35.5 -13.5q29 0 47 19.5t18 49.5z" />
<glyph horiz-adv-x="200" d="M79 466q0 11 9 19.5t20 8.5q23 0 23 -22q0 -11 -9 -19.5t-22 -8.5q-21 0 -21 22zM204 466q0 11 9 19.5t20 8.5q22 0 22 -22q0 -11 -9.5 -19.5t-20.5 -8.5q-21 0 -21 22z" />
<glyph horiz-adv-x="200" d="M81 459l4 28h166l-4 -28h-166z" />
<glyph horiz-adv-x="200" d="M170 508l72 -53l-21 -19l-55 36l-66 -36l-15 19z" />
<glyph horiz-adv-x="200" d="M246 489l-86 -53l-71 53l21 19l54 -36l67 36z" />
<glyph horiz-adv-x="200" d="M163 452q-29 0 -51 16t-21 41h32q1 -13 14 -20.5t29 -7.5q17 0 32.5 7.5t21.5 20.5h32q-6 -25 -32.5 -41t-56.5 -16z" />
<glyph horiz-adv-x="200" d="M140 467q0 10 9 18t21 8q10 0 16.5 -6t6.5 -14q0 -11 -9 -19t-21 -8q-10 0 -16.5 6t-6.5 15z" />
<glyph horiz-adv-x="200" d="M174 522q20 0 34 -12.5t14 -30.5q0 -19 -19 -35t-42 -16q-21 0 -35 12.5t-14 30.5q0 20 18.5 35.5t43.5 15.5zM171 501q-13 0 -23.5 -9t-10.5 -20q0 -10 7.5 -16.5t18.5 -6.5q13 0 23.5 8.5t10.5 20.5q0 9 -7.5 16t-18.5 7z" />
<glyph horiz-adv-x="200" d="M94 1h32q-53 -34 -53 -63q0 -23 36 -23q18 0 30 4l-4 -31q-20 -5 -38 -5q-26 0 -42.5 12.5t-16.5 33.5q0 42 56 72z" />
<glyph horiz-adv-x="200" d="M99 444l-21 15q22 35 54 35q14 0 37.5 -10t35.5 -10q17 0 30 21l20 -14q-8 -15 -23 -25t-32 -10q-12 0 -36 10t-35 10q-17 0 -30 -22z" />
<glyph horiz-adv-x="200" d="M189 520l-69 -83l-25 13l57 83zM293 520l-69 -83l-25 13l57 83z" />
<glyph horiz-adv-x="202" d="M95 351l30 35l81 -77l-22 -19z" />
<glyph horiz-adv-x="435" d="M278 430l137 -430h-43l-35 111h-207l-67 -111h-43zM267 347l-116 -198h175z" />
<glyph horiz-adv-x="398" d="M128 195l-23 -158h112q123 0 123 90q0 68 -110 68h-102zM212 0h-152l57 403h143q122 0 122 -86q0 -37 -22.5 -64t-59.5 -36q36 -5 58.5 -28t22.5 -59q0 -63 -47 -96.5t-122 -33.5zM152 365l-19 -132h93q115 0 115 76q0 56 -86 56h-103z" />
<glyph horiz-adv-x="489" d="M69 201q12 86 82.5 146.5t160.5 60.5q73 0 120.5 -37t60.5 -98h-44q-11 41 -48 69t-93 28q-74 0 -131 -49t-67 -120t33.5 -120t116.5 -49q57 0 103.5 29.5t66.5 71.5h44q-27 -62 -86.5 -100t-133.5 -38q-90 0 -143.5 60t-41.5 146z" />
<glyph horiz-adv-x="456" d="M60 0l57 403h147q84 0 133 -49t49 -126q0 -97 -65 -162.5t-169 -65.5h-152zM106 38h111q85 0 136.5 52.5t51.5 133.5q0 63 -39 101.5t-107 38.5h-106z" />
<glyph horiz-adv-x="374" d="M381 364h-228l-19 -131h210l-5 -38h-210l-23 -157h228l-5 -38h-269l57 403h269z" />
<glyph horiz-adv-x="349" d="M377 364h-224l-19 -131h206l-5 -38h-206l-28 -195h-41l57 403h265z" />
<glyph horiz-adv-x="504" d="M447 180h-163l6 37h204l-2 -15q-13 -96 -79.5 -151.5t-160.5 -55.5q-81 0 -133.5 52.5t-52.5 129.5q0 93 74 162t171 69q73 0 121 -37.5t61 -97.5h-44q-10 41 -47.5 69t-93.5 28q-81 0 -141 -55.5t-60 -133.5q0 -63 42.5 -105.5t108.5 -42.5q71 0 124.5 42t64.5 105z" />
<glyph horiz-adv-x="455" d="M452 403l-57 -403h-41l28 195h-253l-28 -195h-41l57 403h41l-24 -170h253l24 170h41z" />
<glyph horiz-adv-x="173" d="M164 403l-57 -403h-41l57 403h41z" />
<glyph horiz-adv-x="327" d="M243 114l41 289h41l-41 -289q-8 -53 -49 -86t-99 -33q-49 0 -82 26t-33 70h41q2 -27 23.5 -42.5t55.5 -15.5q42 0 69.5 21t32.5 60z" />
<glyph horiz-adv-x="380" d="M317 0l-152 206l-39 -30l-25 -176h-41l57 403h41l-25 -178l231 178h54l-223 -173l170 -230h-48z" />
<glyph horiz-adv-x="343" d="M117 403h41l-52 -365h221l-5 -38h-262z" />
<glyph horiz-adv-x="536" d="M277 63l234 381l-13 -444h-40l10 303l-204 -327l-110 327l-76 -303h-40l111 444z" />
<glyph horiz-adv-x="464" d="M461 403l-63 -440q-165 233 -252 359l-45 -322h-41l61 433l252 -358l47 328h41z" />
<glyph horiz-adv-x="507" d="M66 178q0 93 73.5 161.5t170.5 68.5q80 0 133.5 -53t53.5 -131q0 -92 -74.5 -160.5t-170.5 -68.5q-81 0 -133.5 52.5t-52.5 130.5zM107 182q0 -64 42.5 -106.5t107.5 -42.5q80 0 139.5 55t59.5 132q0 64 -43 107t-108 43q-79 0 -138.5 -55.5t-59.5 -132.5z" />
<glyph horiz-adv-x="394" d="M124 165l-23 -165h-41l57 403h156q56 0 90.5 -25.5t34.5 -78.5q0 -68 -44 -101t-114 -33h-116zM130 202h116q49 0 80 22.5t31 69.5q0 71 -89 71h-115z" />
<glyph horiz-adv-x="506" d="M477 0h-224q-81 0 -134 52t-53 129q0 92 73.5 159.5t169.5 67.5q81 0 134.5 -52.5t53.5 -128.5q0 -61 -37 -114t-96 -80l118 4zM107 184q0 -63 43 -104.5t108 -41.5q79 0 138.5 54t59.5 131q0 63 -43 105t-109 42q-78 0 -137.5 -54.5t-59.5 -131.5z" />
<glyph horiz-adv-x="398" d="M126 174l-25 -174h-41l57 403h154q56 0 91 -24.5t35 -74.5q0 -61 -39 -93.5t-95 -34.5l101 -176h-45l-101 174h-92zM131 212h114q110 0 110 86q0 66 -89 66h-113z" />
<glyph horiz-adv-x="347" d="M180 32q42 0 74 21.5t32 58.5q0 29 -25 45.5t-78 33.5q-54 19 -79.5 40t-25.5 60q0 47 39 82t109 35q52 0 86 -26.5t36 -69.5h-40q-1 27 -25 43t-62 16q-47 0 -75 -22.5t-28 -50.5q0 -19 13 -33t28 -21t46 -17q62 -22 92.5 -45t30.5 -64q0 -57 -46.5 -90t-107.5 -33 q-58 0 -93.5 26t-37.5 70h40q7 -59 97 -59z" />
<glyph horiz-adv-x="352" d="M387 403l-5 -39h-134l-52 -364h-40l52 364h-134l5 39h308z" />
<glyph horiz-adv-x="443" d="M226 33q122 0 141 134l34 236h41l-33 -236q-11 -77 -59.5 -124.5t-128.5 -47.5q-81 0 -115.5 47.5t-23.5 124.5l33 236h41l-34 -236q-19 -134 104 -134z" />
<glyph horiz-adv-x="423" d="M221 65l199 338h44l-256 -434l-135 434h44z" />
<glyph horiz-adv-x="622" d="M372 433l85 -354l155 324h43l-209 -433l-90 349l-188 -349l-87 433h43l65 -324z" />
<glyph horiz-adv-x="404" d="M133 403l103 -161l149 161h45l-176 -191l136 -212h-45l-117 182l-169 -182h-45l195 212l-121 191h45z" />
<glyph horiz-adv-x="367" d="M213 207l4.5 4.5t4.5 5.5l143 186h43l-179 -230l-25 -173h-41l25 173l-115 230h43z" />
<glyph horiz-adv-x="380" d="M342 0h-324l319 367h-236l5 36h309l-319 -368h251z" />
<glyph horiz-adv-x="436" d="M228 490l30 31l82 -69l-22 -17zM278 430l137 -430h-43l-35 111h-207l-67 -111h-43zM267 347l-116 -198h175z" />
<glyph horiz-adv-x="436" d="M325 521l20 -31l-106 -55l-16 17zM278 430l137 -430h-43l-35 111h-207l-67 -111h-43zM267 347l-116 -198h175z" />
<glyph horiz-adv-x="435" d="M288 508l72 -53l-21 -19l-55 36l-66 -36l-15 19zM278 430l137 -430h-43l-35 111h-207l-67 -111h-43zM267 347l-116 -198h175z" />
<glyph horiz-adv-x="435" d="M215 445l-19 15q20 35 52 35q14 0 38 -10t36 -10q17 0 30 21l20 -14q-16 -35 -54 -35q-13 0 -37 10t-35 10q-16 0 -31 -22zM278 430l137 -430h-43l-35 111h-207l-67 -111h-43zM267 347l-116 -198h175z" />
<glyph horiz-adv-x="435" d="M278 430l137 -430h-43l-35 111h-207l-67 -111h-43zM267 347l-116 -198h175zM198 469q0 11 8.5 18.5t20.5 7.5q10 0 17 -6t7 -15q0 -10 -9 -17.5t-21 -7.5q-10 0 -16.5 6t-6.5 14zM323 469q0 11 8.5 18.5t19.5 7.5q24 0 24 -20q0 -11 -8.5 -18.5t-21.5 -7.5q-10 0 -16 6 t-6 14z" />
<glyph horiz-adv-x="435" d="M278 430l137 -430h-43l-35 111h-207l-67 -111h-43zM267 347l-116 -198h175zM293 537q20 0 33.5 -12.5t13.5 -30.5q0 -19 -19 -35t-42 -16q-20 0 -34.5 12.5t-14.5 30.5q0 19 19.5 35t43.5 16zM290 516q-14 0 -24.5 -9t-10.5 -20q0 -10 8 -16.5t19 -6.5q14 0 23.5 8.5 t9.5 20.5q0 9 -7.5 16t-17.5 7z" />
<glyph horiz-adv-x="435" d="M197 444l5 28h165l-5 -28h-165zM278 430l137 -430h-43l-35 111h-207l-67 -111h-43zM267 347l-116 -198h175z" />
<glyph horiz-adv-x="435" d="M279 442q-29 0 -51 16t-21 41h32q2 -13 15.5 -20.5t29.5 -7.5q41 0 52 28h32q-6 -25 -32.5 -41t-56.5 -16zM278 430l137 -430h-43l-35 111h-207l-67 -111h-43zM267 347l-116 -198h175z" />
<glyph horiz-adv-x="435" d="M275 412q20 0 34 -12.5t14 -30.5t-16 -32l108 -337h-43l-35 111h-207l-67 -111h-43l201 336q-8 10 -8 24q0 20 19 36t43 16zM326 149l-51 170q-5 -1 -14 -1q-8 0 -11 1l-99 -170h175zM328 521l20 -31l-105 -55l-17 17zM272 391q-14 0 -24 -9t-10 -20q0 -10 7.5 -16.5 t19.5 -6.5q13 0 23 8.5t10 20.5q0 9 -7.5 16t-18.5 7z" />
<glyph horiz-adv-x="435" d="M278 430l137 -430h-11q-52 -33 -52 -62q0 -23 36 -23q17 0 29 4l-4 -31q-18 -5 -38 -5q-26 0 -42.5 12.5t-16.5 33.5q0 42 55 72l-34 110h-207l-67 -111h-43zM267 347l-116 -198h175z" />
<glyph horiz-adv-x="626" d="M633 364h-224l-19 -131h206l-5 -38h-206l-23 -157h224l-5 -38h-265l16 113h-164l-101 -113h-47l356 403h262zM199 150h138l26 183z" />
<glyph horiz-adv-x="626" d="M420 521l20 -31l-105 -55l-17 17zM633 364h-224l-19 -131h206l-5 -38h-206l-23 -157h224l-5 -38h-265l16 113h-164l-101 -113h-47l356 403h262zM199 150h138l26 183z" />
<glyph horiz-adv-x="489" d="M69 201q12 86 82.5 146.5t160.5 60.5q73 0 120.5 -37t60.5 -98h-44q-11 41 -48 69t-93 28q-74 0 -131 -49t-67 -120t33.5 -120t116.5 -49q57 0 103.5 29.5t66.5 71.5h44q-27 -62 -86.5 -100t-133.5 -38q-90 0 -143.5 60t-41.5 146zM273 -36l-75 -97l-25 15l61 96z" />
<glyph horiz-adv-x="489" d="M69 201q12 86 82.5 146.5t160.5 60.5q73 0 120.5 -37t60.5 -98h-44q-11 41 -48 69t-93 28q-74 0 -131 -49t-67 -120t33.5 -120t116.5 -49q57 0 103.5 29.5t66.5 71.5h44q-27 -62 -86.5 -100t-133.5 -38q-90 0 -143.5 60t-41.5 146zM365 521l21 -31l-106 -55l-16 17z" />
<glyph horiz-adv-x="489" d="M69 201q12 86 82.5 146.5t160.5 60.5q73 0 120.5 -37t60.5 -98h-44q-11 41 -48 69t-93 28q-74 0 -131 -49t-67 -120t33.5 -120t116.5 -49q57 0 103.5 29.5t66.5 71.5h44q-27 -62 -86.5 -100t-133.5 -38q-90 0 -143.5 60t-41.5 146zM334 508l72 -53l-21 -19l-56 36 l-65 -36l-15 19z" />
<glyph horiz-adv-x="489" d="M69 201q12 86 82.5 146.5t160.5 60.5q73 0 120.5 -37t60.5 -98h-44q-11 41 -48 69t-93 28q-74 0 -131 -49t-67 -120t33.5 -120t116.5 -49q57 0 103.5 29.5t66.5 71.5h44q-27 -62 -86.5 -100t-133.5 -38q-90 0 -143.5 60t-41.5 146zM300 460q0 10 9 18t21 8q10 0 17 -6.5 t7 -14.5q0 -10 -9 -18t-21 -8q-10 0 -17 6.5t-7 14.5z" />
<glyph horiz-adv-x="489" d="M69 201q12 86 82.5 146.5t160.5 60.5q73 0 120.5 -37t60.5 -98h-44q-11 41 -48 69t-93 28q-74 0 -131 -49t-67 -120t33.5 -120t116.5 -49q57 0 103.5 29.5t66.5 71.5h44q-27 -62 -86.5 -100t-133.5 -38q-90 0 -143.5 60t-41.5 146zM409 487l-86 -53l-71 53l21 20l55 -36 l66 36z" />
<glyph horiz-adv-x="456" d="M60 0l24 164h-40l4 34h40l29 205h147q84 0 133 -49t49 -126q0 -97 -65 -162.5t-169 -65.5h-152zM107 38h111q85 0 136 53t51 133q0 63 -39 101.5t-107 38.5h-106l-24 -166h119l-4 -34h-119z" />
<glyph horiz-adv-x="456" d="M60 0l57 403h147q84 0 133 -49t49 -126q0 -97 -65 -162.5t-169 -65.5h-152zM106 38h111q85 0 136.5 52.5t51.5 133.5q0 63 -39 101.5t-107 38.5h-106zM379 487l-86 -53l-71 53l20 20l57 -36l64 36z" />
<glyph horiz-adv-x="456" d="M60 0l24 164h-40l4 34h40l29 205h147q84 0 133 -49t49 -126q0 -97 -65 -162.5t-169 -65.5h-152zM107 38h111q85 0 136 53t51 133q0 63 -39 101.5t-107 38.5h-106l-24 -166h119l-4 -34h-119z" />
<glyph horiz-adv-x="374" d="M381 364h-228l-19 -131h210l-5 -38h-210l-23 -157h228l-5 -38h-269l57 403h269zM198 490l30 31l82 -69l-22 -17z" />
<glyph horiz-adv-x="374" d="M381 364h-228l-19 -131h210l-5 -38h-210l-23 -157h228l-5 -38h-269l57 403h269zM325 521l20 -31l-106 -55l-16 17z" />
<glyph horiz-adv-x="374" d="M381 364h-228l-19 -131h210l-5 -38h-210l-23 -157h228l-5 -38h-269l57 403h269zM272 508l72 -53l-21 -19l-55 36l-66 -36l-15 19z" />
<glyph horiz-adv-x="374" d="M381 364h-228l-19 -131h210l-5 -38h-210l-23 -157h228l-5 -38h-269l57 403h269zM180 459q0 10 9 18t21 8q10 0 16 -6t6 -14q0 -11 -8.5 -18.5t-20.5 -7.5q-10 0 -16.5 6t-6.5 14zM305 459q0 11 8.5 18.5t20.5 7.5q10 0 16 -6t6 -14q0 -11 -8.5 -18.5t-20.5 -7.5 q-10 0 -16 6t-6 14z" />
<glyph horiz-adv-x="374" d="M381 364h-228l-19 -131h210l-5 -38h-210l-23 -157h228l-5 -38h-269l57 403h269zM180 444l5 28h166l-5 -28h-166z" />
<glyph horiz-adv-x="374" d="M381 364h-228l-19 -131h210l-5 -38h-210l-23 -157h228l-5 -38h-269l57 403h269zM263 442q-30 0 -52 16t-21 41h32q3 -13 16.5 -20.5t29.5 -7.5t31 7.5t21 20.5h32q-6 -25 -33 -41t-56 -16z" />
<glyph horiz-adv-x="374" d="M381 364h-228l-19 -131h210l-5 -38h-210l-23 -157h228l-5 -38h-269l57 403h269zM244 460q0 10 9 18t21 8q10 0 16.5 -6t6.5 -14q0 -11 -9 -19t-21 -8q-10 0 -16.5 6t-6.5 15z" />
<glyph horiz-adv-x="373" d="M381 364h-228l-19 -131h210l-5 -38h-210l-23 -157h228l-5 -38h-6q-52 -33 -52 -62q0 -23 37 -23q17 0 28 4l-4 -31q-20 -5 -38 -5q-26 0 -42.5 12.5t-16.5 33.5q0 40 55 71h-230l57 403h269z" />
<glyph horiz-adv-x="374" d="M381 364h-228l-19 -131h210l-5 -38h-210l-23 -157h228l-5 -38h-269l57 403h269zM348 487l-86 -53l-71 53l20 20l57 -36l64 36z" />
<glyph horiz-adv-x="504" d="M447 180h-163l6 37h204l-2 -15q-13 -96 -79.5 -151.5t-160.5 -55.5q-81 0 -133.5 52.5t-52.5 129.5q0 93 74 162t171 69q73 0 121 -37.5t61 -97.5h-44q-10 41 -47.5 69t-93.5 28q-81 0 -141 -55.5t-60 -133.5q0 -63 42.5 -105.5t108.5 -42.5q71 0 124.5 42t64.5 105z M328 508l70 -53l-21 -19l-55 36l-66 -36l-15 19z" />
<glyph horiz-adv-x="504" d="M447 180h-163l6 37h204l-2 -15q-13 -96 -79.5 -151.5t-160.5 -55.5q-81 0 -133.5 52.5t-52.5 129.5q0 93 74 162t171 69q73 0 121 -37.5t61 -97.5h-44q-10 41 -47.5 69t-93.5 28q-81 0 -141 -55.5t-60 -133.5q0 -63 42.5 -105.5t108.5 -42.5q71 0 124.5 42t64.5 105z M318 442q-30 0 -52 16t-21 41h32q2 -13 15.5 -20.5t29.5 -7.5q39 0 53 28h32q-6 -25 -33 -41t-56 -16z" />
<glyph horiz-adv-x="504" d="M447 180h-163l6 37h204l-2 -15q-13 -96 -79.5 -151.5t-160.5 -55.5q-81 0 -133.5 52.5t-52.5 129.5q0 93 74 162t171 69q73 0 121 -37.5t61 -97.5h-44q-10 41 -47.5 69t-93.5 28q-81 0 -141 -55.5t-60 -133.5q0 -63 42.5 -105.5t108.5 -42.5q71 0 124.5 42t64.5 105z M294 460q0 10 9 18t21 8q10 0 16.5 -6t6.5 -14q0 -11 -8.5 -19t-20.5 -8q-10 0 -17 6.5t-7 14.5z" />
<glyph horiz-adv-x="504" d="M447 180h-163l6 37h204l-2 -15q-13 -96 -79.5 -151.5t-160.5 -55.5q-81 0 -133.5 52.5t-52.5 129.5q0 93 74 162t171 69q73 0 121 -37.5t61 -97.5h-44q-10 41 -47.5 69t-93.5 28q-81 0 -141 -55.5t-60 -133.5q0 -63 42.5 -105.5t108.5 -42.5q71 0 124.5 42t64.5 105z M240 -47l39 -12l-70 -104l-23 9z" />
<glyph horiz-adv-x="455" d="M452 403l-57 -403h-41l28 195h-253l-28 -195h-41l57 403h41l-24 -170h253l24 170h41zM298 508l72 -53l-21 -19l-55 36l-66 -36l-15 19z" />
<glyph horiz-adv-x="454" d="M55 300l4 31h47l10 72h41l-10 -72h253l10 72h41l-10 -72h47l-4 -31h-47l-43 -300h-41l27 195h-253l-27 -195h-41l43 300h-47zM133 233h253l10 67h-253z" />
<glyph horiz-adv-x="173" d="M164 403l-57 -403h-41l57 403h41zM108 490l29 31l83 -69l-22 -17z" />
<glyph horiz-adv-x="173" d="M164 403l-57 -403h-41l57 403h41zM190 521l20 -31l-106 -55l-16 17z" />
<glyph horiz-adv-x="172" d="M163 403l-57 -403h-41l57 403h41zM157 508l71 -53l-21 -19l-54 36l-67 -36l-15 19z" />
<glyph horiz-adv-x="172" d="M163 403l-57 -403h-41l57 403h41zM63 459q0 11 8.5 18.5t20.5 7.5q22 0 22 -20q0 -11 -8.5 -18.5t-20.5 -7.5q-10 0 -16 6t-6 14zM188 459q0 11 8.5 18.5t20.5 7.5q21 0 21 -20q0 -11 -8.5 -18.5t-19.5 -7.5q-10 0 -16 6t-6 14z" />
<glyph horiz-adv-x="172" d="M163 403l-57 -403h-40l57 403h40zM83 440l-20 15q20 35 54 35q14 0 37.5 -10t35.5 -10q17 0 30 21l20 -14q-18 -35 -55 -35q-12 0 -36 10t-35 10q-16 0 -31 -22z" />
<glyph horiz-adv-x="173" d="M164 403l-57 -403h-41l57 403h41zM66 444l5 28h165l-5 -28h-165z" />
<glyph horiz-adv-x="172" d="M163 403l-57 -403h-40l57 403h40zM148 442q-30 0 -52 16t-21 41h32q2 -13 15.5 -20.5t29.5 -7.5q39 0 53 28h32q-6 -25 -33 -41t-56 -16z" />
<glyph horiz-adv-x="172" d="M66 1l57 402h40l-57 -403h-8q-53 -34 -53 -62q0 -23 36 -23q18 0 30 4l-4 -31q-20 -5 -38 -5q-26 0 -42.5 12.5t-16.5 33.5q0 42 56 72z" />
<glyph horiz-adv-x="172" d="M163 403l-57 -403h-40l57 403h40zM125 460q0 10 9 18t21 8q10 0 16.5 -6t6.5 -14q0 -11 -9 -19t-21 -8q-10 0 -16.5 6t-6.5 15z" />
<glyph horiz-adv-x="482" d="M164 403l-57 -403h-41l57 403h41zM398 114l41 289h41l-41 -289q-8 -53 -49 -86t-99 -33q-49 0 -81.5 26t-33.5 70h40q8 -58 80 -58q42 0 69.5 21t32.5 60z" />
<glyph horiz-adv-x="327" d="M243 114l41 289h41l-41 -289q-8 -53 -49 -86t-99 -33q-49 0 -82 26t-33 70h41q2 -27 23.5 -42.5t55.5 -15.5q42 0 69.5 21t32.5 60zM319 508l71 -53l-21 -19l-56 36l-65 -36l-15 19z" />
<glyph horiz-adv-x="380" d="M317 0l-152 206l-39 -30l-25 -176h-41l57 403h41l-25 -178l231 178h54l-223 -173l170 -230h-48zM182 -47l37 -12l-69 -104l-23 9z" />
<glyph horiz-adv-x="342" d="M47 132l-13 30l53 27l30 214h40l-27 -191l137 70l12 -30l-154 -79l-20 -135h221l-5 -38h-261l21 149z" />
<glyph horiz-adv-x="343" d="M117 403h41l-52 -365h221l-5 -38h-262zM185 521l20 -31l-106 -55l-16 17z" />
<glyph horiz-adv-x="343" d="M117 403h41l-52 -365h221l-5 -38h-262zM168 -47l38 -12l-69 -104l-23 9z" />
<glyph horiz-adv-x="343" d="M117 403h41l-52 -365h221l-5 -38h-262zM264 408l38 -12l-69 -104l-23 9z" />
<glyph horiz-adv-x="343" d="M117 403h41l-52 -365h221l-5 -38h-262zM208 175q0 13 10 23t24 10q11 0 19 -7.5t8 -18.5q0 -13 -11 -22.5t-24 -9.5q-11 0 -18.5 7t-7.5 18z" />
<glyph horiz-adv-x="464" d="M461 403l-63 -440q-165 233 -252 359l-45 -322h-41l61 433l252 -358l47 328h41zM228 444l-20 15q20 35 53 35q14 0 37.5 -10t35.5 -10q17 0 30 21l20 -14q-16 -35 -54 -35q-12 0 -36.5 10t-35.5 10q-17 0 -30 -22z" />
<glyph horiz-adv-x="464" d="M461 403l-63 -440q-165 233 -252 359l-45 -322h-41l61 433l252 -358l47 328h41zM344 521l21 -31l-106 -55l-16 17z" />
<glyph horiz-adv-x="464" d="M461 403l-59 -421l-32 20q-131 185 -223 320l-46 -322h-41l58 413l31 -20l225 -318l46 328h41zM226 -47l38 -12l-69 -104l-24 9z" />
<glyph horiz-adv-x="464" d="M461 403l-59 -421l-32 20q-131 185 -223 320l-46 -322h-41l58 413l31 -20l225 -318l46 328h41zM379 487l-85 -53l-72 53l20 20l57 -36l64 36z" />
<glyph horiz-adv-x="464" d="M359 -31l6 46l-218 307l-46 -322h-41l58 413l26 -15l230 -323l46 328h41l-61 -434q-8 -52 -49 -85t-99 -33q-49 0 -81.5 26t-32.5 70h40q3 -28 23.5 -43t55.5 -15q42 0 69.5 21t32.5 59z" />
<glyph horiz-adv-x="507" d="M66 178q0 93 73.5 161.5t170.5 68.5q80 0 133.5 -53t53.5 -131q0 -92 -74.5 -160.5t-170.5 -68.5q-81 0 -133.5 52.5t-52.5 130.5zM107 182q0 -64 42.5 -106.5t107.5 -42.5q80 0 139.5 55t59.5 132q0 64 -43 107t-108 43q-79 0 -138.5 -55.5t-59.5 -132.5zM278 490l29 31 l83 -69l-22 -17z" />
<glyph horiz-adv-x="507" d="M66 178q0 93 73.5 161.5t170.5 68.5q80 0 133.5 -53t53.5 -131q0 -92 -74.5 -160.5t-170.5 -68.5q-81 0 -133.5 52.5t-52.5 130.5zM107 182q0 -64 42.5 -106.5t107.5 -42.5q80 0 139.5 55t59.5 132q0 64 -43 107t-108 43q-79 0 -138.5 -55.5t-59.5 -132.5zM354 521 l21 -31l-106 -55l-16 17z" />
<glyph horiz-adv-x="507" d="M66 178q0 93 73.5 161.5t170.5 68.5q80 0 133.5 -53t53.5 -131q0 -92 -74.5 -160.5t-170.5 -68.5q-81 0 -133.5 52.5t-52.5 130.5zM107 182q0 -64 42.5 -106.5t107.5 -42.5q80 0 139.5 55t59.5 132q0 64 -43 107t-108 43q-79 0 -138.5 -55.5t-59.5 -132.5zM324 508 l72 -53l-22 -19l-55 36l-65 -36l-16 19z" />
<glyph horiz-adv-x="507" d="M66 178q0 93 73.5 161.5t170.5 68.5q80 0 133.5 -53t53.5 -131q0 -92 -74.5 -160.5t-170.5 -68.5q-81 0 -133.5 52.5t-52.5 130.5zM107 182q0 -64 42.5 -106.5t107.5 -42.5q80 0 139.5 55t59.5 132q0 64 -43 107t-108 43q-79 0 -138.5 -55.5t-59.5 -132.5zM251 440 l-21 15q20 35 54 35q14 0 37 -10t35 -10q16 0 31 21l20 -14q-8 -15 -23 -25t-32 -10q-12 0 -36.5 10t-35.5 10q-16 0 -29 -22z" />
<glyph horiz-adv-x="507" d="M66 178q0 93 73.5 161.5t170.5 68.5q80 0 133.5 -53t53.5 -131q0 -92 -74.5 -160.5t-170.5 -68.5q-81 0 -133.5 52.5t-52.5 130.5zM107 182q0 -64 42.5 -106.5t107.5 -42.5q80 0 139.5 55t59.5 132q0 64 -43 107t-108 43q-79 0 -138.5 -55.5t-59.5 -132.5zM230 459 q0 11 8.5 18.5t20.5 7.5q10 0 16 -6t6 -14q0 -11 -8 -18.5t-20 -7.5q-10 0 -16.5 6t-6.5 14zM355 459q0 11 8.5 18.5t20.5 7.5q21 0 21 -20q0 -11 -8 -18.5t-19 -7.5q-10 0 -16.5 6t-6.5 14z" />
<glyph horiz-adv-x="507" d="M66 178q0 92 74 161t170 69q51 0 89 -20l55 72l27 -15l-54 -74q70 -54 70 -148q0 -91 -74.5 -159.5t-170.5 -68.5q-48 0 -90 20l-53 -73l-28 18l54 72q-32 24 -50.5 63t-18.5 83zM456 220q0 74 -54 117l-215 -289q30 -15 70 -15q80 0 139.5 55t59.5 132zM107 182 q0 -74 52 -116l216 288q-32 16 -70 16q-79 0 -138.5 -55.5t-59.5 -132.5z" />
<glyph horiz-adv-x="507" d="M66 178q0 93 73.5 161.5t170.5 68.5q80 0 133.5 -53t53.5 -131q0 -92 -74.5 -160.5t-170.5 -68.5q-81 0 -133.5 52.5t-52.5 130.5zM107 182q0 -64 42.5 -106.5t107.5 -42.5q80 0 139.5 55t59.5 132q0 64 -43 107t-108 43q-79 0 -138.5 -55.5t-59.5 -132.5zM233 444l4 28 h165l-4 -28h-165z" />
<glyph horiz-adv-x="507" d="M66 178q0 93 73.5 161.5t170.5 68.5q80 0 133.5 -53t53.5 -131q0 -92 -74.5 -160.5t-170.5 -68.5q-81 0 -133.5 52.5t-52.5 130.5zM107 182q0 -64 42.5 -106.5t107.5 -42.5q80 0 139.5 55t59.5 132q0 64 -43 107t-108 43q-79 0 -138.5 -55.5t-59.5 -132.5zM315 442 q-30 0 -52 16t-21 41h33q1 -13 14.5 -20.5t29.5 -7.5t31.5 7.5t21.5 20.5h32q-6 -25 -33 -41t-56 -16z" />
<glyph horiz-adv-x="507" d="M66 178q0 93 73.5 161.5t170.5 68.5q80 0 133.5 -53t53.5 -131q0 -92 -74.5 -160.5t-170.5 -68.5q-81 0 -133.5 52.5t-52.5 130.5zM107 182q0 -64 42.5 -106.5t107.5 -42.5q80 0 139.5 55t59.5 132q0 64 -43 107t-108 43q-79 0 -138.5 -55.5t-59.5 -132.5zM341 520 l-68 -83l-25 13l57 83zM445 520l-68 -83l-25 13l56 83z" />
<glyph horiz-adv-x="507" d="M66 178q0 92 74 161t170 69q51 0 89 -20l55 72l27 -15l-54 -74q70 -54 70 -148q0 -91 -74.5 -159.5t-170.5 -68.5q-48 0 -90 20l-53 -73l-28 18l54 72q-32 24 -50.5 63t-18.5 83zM456 220q0 74 -54 117l-215 -289q30 -15 70 -15q80 0 139.5 55t59.5 132zM107 182 q0 -74 52 -116l216 288q-32 16 -70 16q-79 0 -138.5 -55.5t-59.5 -132.5zM354 521l21 -31l-106 -55l-16 17z" />
<glyph horiz-adv-x="740" d="M746 364h-229l-19 -131h211l-5 -38h-211l-22 -157h229l-5 -38h-269l11 79q-74 -84 -185 -84q-80 0 -133 52.5t-53 130.5q0 92 74 161t170 69q53 0 95.5 -23t65.5 -62l12 80h269zM107 182q0 -64 43 -106.5t107 -42.5q80 0 139.5 55t59.5 132q0 64 -42.5 107t-108.5 43 q-78 0 -138 -55.5t-60 -132.5z" />
<glyph horiz-adv-x="398" d="M126 174l-25 -174h-41l57 403h154q56 0 91 -24.5t35 -74.5q0 -61 -39 -93.5t-95 -34.5l101 -176h-45l-101 174h-92zM131 212h114q110 0 110 86q0 66 -89 66h-113zM315 521l20 -31l-106 -55l-16 17z" />
<glyph horiz-adv-x="393" d="M126 174l-25 -174h-41l57 403h154q56 0 91 -24.5t35 -74.5q0 -61 -39 -93.5t-95 -34.5l101 -176h-45l-101 174h-92zM131 212h114q110 0 110 86q0 66 -89 66h-113zM187 -47l38 -12l-69 -104l-24 9z" />
<glyph horiz-adv-x="393" d="M126 174l-25 -174h-41l57 403h154q56 0 91 -24.5t35 -74.5q0 -61 -39 -93.5t-95 -34.5l101 -176h-45l-101 174h-92zM131 212h114q110 0 110 86q0 66 -89 66h-113zM344 487l-86 -53l-71 53l20 20l57 -36l64 36z" />
<glyph horiz-adv-x="347" d="M180 32q42 0 74 21.5t32 58.5q0 29 -25 45.5t-78 33.5q-54 19 -79.5 40t-25.5 60q0 47 39 82t109 35q52 0 86 -26.5t36 -69.5h-40q-1 27 -25 43t-62 16q-47 0 -75 -22.5t-28 -50.5q0 -19 13 -33t28 -21t46 -17q62 -22 92.5 -45t30.5 -64q0 -57 -46.5 -90t-107.5 -33 q-58 0 -93.5 26t-37.5 70h40q7 -59 97 -59zM293 521l21 -31l-106 -55l-16 17z" />
<glyph horiz-adv-x="347" d="M180 32q42 0 74 21.5t32 58.5q0 29 -25 45.5t-78 33.5q-54 19 -79.5 40t-25.5 60q0 47 39 82t109 35q52 0 86 -26.5t36 -69.5h-40q-1 27 -25 43t-62 16q-47 0 -75 -22.5t-28 -50.5q0 -19 13 -33t28 -21t46 -17q62 -22 92.5 -45t30.5 -64q0 -57 -46.5 -90t-107.5 -33 q-58 0 -93.5 26t-37.5 70h40q7 -59 97 -59zM244 508l71 -53l-21 -19l-56 36l-64 -36l-16 19z" />
<glyph horiz-adv-x="347" d="M180 32q42 0 74 21.5t32 58.5q0 29 -25 45.5t-78 33.5q-54 19 -79.5 40t-25.5 60q0 47 39 82t109 35q52 0 86 -26.5t36 -69.5h-40q-1 27 -25 43t-62 16q-47 0 -75 -22.5t-28 -50.5q0 -19 13 -33t28 -21t46 -17q62 -22 92.5 -45t30.5 -64q0 -57 -46.5 -90t-107.5 -33 q-58 0 -93.5 26t-37.5 70h40q7 -59 97 -59zM319 487l-86 -53l-71 53l22 20l54 -36l66 36z" />
<glyph horiz-adv-x="347" d="M180 32q42 0 74 21.5t32 58.5q0 29 -25 45.5t-78 33.5q-54 19 -79.5 40t-25.5 60q0 47 39 82t109 35q52 0 86 -26.5t36 -69.5h-40q-1 27 -25 43t-62 16q-47 0 -75 -22.5t-28 -50.5q0 -19 13 -33t28 -21t46 -17q62 -22 92.5 -45t30.5 -64q0 -57 -46.5 -90t-107.5 -33 q-58 0 -93.5 26t-37.5 70h40q7 -59 97 -59zM190 -36l-75 -97l-25 15l60 96z" />
<glyph horiz-adv-x="347" d="M180 32q42 0 74 21.5t32 58.5q0 29 -25 45.5t-78 33.5q-54 19 -79.5 40t-25.5 60q0 47 39 82t109 35q52 0 86 -26.5t36 -69.5h-40q-1 27 -25 43t-62 16q-47 0 -75 -22.5t-28 -50.5q0 -19 13 -33t28 -21t46 -17q62 -22 92.5 -45t30.5 -64q0 -57 -46.5 -90t-107.5 -33 q-58 0 -93.5 26t-37.5 70h40q7 -59 97 -59zM149 -47l39 -12l-69 -104l-25 9z" />
<glyph horiz-adv-x="694" d="M180 32q42 0 74 21.5t32 58.5q0 29 -25 45.5t-78 33.5q-54 19 -79.5 40t-25.5 60q0 47 39 82t109 35q52 0 86 -26.5t36 -69.5h-40q-1 27 -25 43t-62 16q-47 0 -75 -22.5t-28 -50.5q0 -19 13 -33t28 -21t46 -17q62 -22 92.5 -45t30.5 -64q0 -57 -46.5 -90t-107.5 -33 q-58 0 -93.5 26t-37.5 70h40q7 -59 97 -59zM527 32q42 0 74 21.5t32 58.5q0 29 -25 45.5t-78 33.5q-54 19 -79.5 40t-25.5 60q0 47 39 82t109 35q52 0 86 -26.5t36 -69.5h-40q-1 27 -25 43t-62 16q-48 0 -75.5 -22.5t-27.5 -50.5q0 -19 13 -33t28 -21t46 -17 q62 -22 92.5 -45t30.5 -64q0 -57 -46.5 -90t-107.5 -33q-58 0 -93.5 26t-37.5 70h40q7 -59 97 -59z" />
<glyph horiz-adv-x="352" d="M387 403l-5 -39h-134l-52 -364h-40l52 364h-134l5 39h308zM156 -47l37 -12l-67 -104l-25 9z" />
<glyph horiz-adv-x="352" d="M387 403l-5 -39h-134l-52 -364h-40l52 364h-134l5 39h308zM323 487l-86 -53l-71 53l21 20l56 -36l65 36z" />
<glyph horiz-adv-x="352" d="M114 174l4 31h67l23 159h-134l5 39h308l-5 -39h-134l-23 -159h66l-4 -31h-66l-25 -174h-40l25 174h-67z" />
<glyph horiz-adv-x="353" d="M114 93l-13 -93h-41l57 403h41l-12 -81h73q57 0 92 -24t35 -75q0 -67 -43 -98.5t-114 -31.5h-75zM120 131h75q48 0 79 20.5t31 66.5q0 66 -91 66h-73z" />
<glyph horiz-adv-x="443" d="M226 33q122 0 141 134l34 236h41l-33 -236q-11 -77 -59.5 -124.5t-128.5 -47.5q-81 0 -115.5 47.5t-23.5 124.5l33 236h41l-34 -236q-19 -134 104 -134zM218 490l30 31l82 -69l-22 -17z" />
<glyph horiz-adv-x="443" d="M226 33q122 0 141 134l34 236h41l-33 -236q-11 -77 -59.5 -124.5t-128.5 -47.5q-81 0 -115.5 47.5t-23.5 124.5l33 236h41l-34 -236q-19 -134 104 -134zM335 521l20 -31l-106 -55l-16 17z" />
<glyph horiz-adv-x="443" d="M226 33q122 0 141 134l34 236h41l-33 -236q-11 -77 -59.5 -124.5t-128.5 -47.5q-81 0 -115.5 47.5t-23.5 124.5l33 236h41l-34 -236q-19 -134 104 -134zM294 508l70 -53l-21 -19l-54 36l-67 -36l-15 19z" />
<glyph horiz-adv-x="443" d="M226 33q122 0 141 134l34 236h41l-33 -236q-11 -77 -59.5 -124.5t-128.5 -47.5q-81 0 -115.5 47.5t-23.5 124.5l33 236h41l-34 -236q-19 -134 104 -134zM196 459q0 11 8.5 18.5t20.5 7.5q10 0 16.5 -6t6.5 -14q0 -10 -9 -18t-21 -8q-10 0 -16 6t-6 14zM321 459 q0 11 8.5 18.5t20.5 7.5q10 0 16 -6t6 -14q0 -11 -8.5 -18.5t-20.5 -7.5q-10 0 -16 6t-6 14z" />
<glyph horiz-adv-x="443" d="M226 33q122 0 141 134l34 236h41l-33 -236q-11 -77 -59.5 -124.5t-128.5 -47.5q-81 0 -115.5 47.5t-23.5 124.5l33 236h41l-34 -236q-19 -134 104 -134zM219 440l-20 15q20 35 54 35q14 0 38 -10t35 -10q18 0 29 21l22 -14q-19 -35 -56 -35q-13 0 -37 10t-35 10 q-15 0 -30 -22z" />
<glyph horiz-adv-x="443" d="M226 33q122 0 141 134l34 236h41l-33 -236q-11 -77 -59.5 -124.5t-128.5 -47.5q-81 0 -115.5 47.5t-23.5 124.5l33 236h41l-34 -236q-19 -134 104 -134zM201 444l5 28h165l-5 -28h-165z" />
<glyph horiz-adv-x="443" d="M226 33q122 0 141 134l34 236h41l-33 -236q-11 -77 -59.5 -124.5t-128.5 -47.5q-81 0 -115.5 47.5t-23.5 124.5l33 236h41l-34 -236q-19 -134 104 -134zM284 442q-30 0 -52 16t-21 41h32q2 -13 16 -20.5t30 -7.5t31 7.5t20 20.5h33q-6 -25 -33 -41t-56 -16z" />
<glyph horiz-adv-x="443" d="M226 33q122 0 141 134l34 236h41l-33 -236q-11 -77 -59.5 -124.5t-128.5 -47.5q-81 0 -115.5 47.5t-23.5 124.5l33 236h41l-34 -236q-19 -134 104 -134zM297 527q20 0 33.5 -12.5t13.5 -30.5q0 -19 -19 -35t-42 -16q-21 0 -34.5 12.5t-13.5 30.5q0 20 19 35.5t43 15.5z M293 506q-14 0 -23.5 -8.5t-9.5 -20.5q0 -10 7.5 -16.5t18.5 -6.5q13 0 23 8.5t10 20.5q0 9 -7.5 16t-18.5 7z" />
<glyph horiz-adv-x="443" d="M226 33q122 0 141 134l34 236h41l-33 -236q-11 -77 -59.5 -124.5t-128.5 -47.5q-81 0 -115.5 47.5t-23.5 124.5l33 236h41l-34 -236q-19 -134 104 -134zM300 520l-69 -83l-25 13l57 83zM404 520l-69 -83l-25 13l57 83z" />
<glyph horiz-adv-x="443" d="M226 33q122 0 141 134l34 236h40l-33 -236q-9 -70 -49.5 -115.5t-107.5 -54.5q-47 -33 -47 -59q0 -23 36 -23q17 0 29 4l-4 -31q-20 -5 -38 -5q-26 0 -42.5 12.5t-16.5 33.5q0 38 46 66q-77 2 -110 49t-23 123l33 236h42l-34 -236q-19 -134 104 -134z" />
<glyph horiz-adv-x="623" d="M384 508l70 -53l-21 -19l-54 36l-67 -36l-15 19zM372 433l85 -354l155 324h43l-209 -433l-90 349l-188 -349l-87 433h43l65 -324z" />
<glyph horiz-adv-x="624" d="M372 433l85 -354l155 324h43l-209 -433l-90 349l-188 -349l-87 433h43l65 -324zM328 490l30 31l82 -69l-22 -17z" />
<glyph horiz-adv-x="625" d="M372 433l85 -354l155 324h43l-209 -433l-90 349l-188 -349l-87 433h43l65 -324zM415 521l20 -31l-106 -55l-16 17z" />
<glyph horiz-adv-x="623" d="M289 459q0 11 8.5 18.5t20.5 7.5q10 0 16.5 -6t6.5 -14q0 -10 -9 -18t-21 -8q-10 0 -16 6t-6 14zM414 459q0 11 8.5 18.5t20.5 7.5q10 0 16 -6t6 -14q0 -11 -8.5 -18.5t-20.5 -7.5q-10 0 -16 6t-6 14zM372 433l85 -354l155 324h43l-209 -433l-90 349l-188 -349l-87 433 h43l65 -324z" />
<glyph horiz-adv-x="367" d="M213 207l4.5 4.5t4.5 5.5l143 186h43l-179 -230l-25 -173h-41l25 173l-115 230h43zM295 521l20 -31l-106 -55l-16 17z" />
<glyph horiz-adv-x="367" d="M213 207l4.5 4.5t4.5 5.5l143 186h43l-179 -230l-25 -173h-41l25 173l-115 230h43zM162 459q0 10 9 18t21 8q10 0 16.5 -6t6.5 -14q0 -11 -9 -18.5t-21 -7.5q-10 0 -16.5 6t-6.5 14zM287 459q0 11 8.5 18.5t20.5 7.5q10 0 16.5 -6t6.5 -14q0 -10 -9 -18t-21 -8 q-10 0 -16 6t-6 14z" />
<glyph horiz-adv-x="367" d="M213 207l4.5 4.5t4.5 5.5l143 186h43l-179 -230l-25 -173h-41l25 173l-115 230h43zM256 508l70 -53l-21 -19l-54 36l-67 -36l-15 19z" />
<glyph horiz-adv-x="367" d="M213 207l4.5 4.5t4.5 5.5l143 186h43l-179 -230l-25 -173h-41l25 173l-115 230h43zM198 490l30 31l82 -69l-22 -17z" />
<glyph horiz-adv-x="380" d="M342 0h-317l19 30l293 335h-236l5 38h304l-21 -28q-152 -176 -293 -338h251zM336 487l-85 -53l-72 53l21 20l57 -36l64 36z" />
<glyph horiz-adv-x="380" d="M342 0h-324l319 367h-236l5 36h309l-319 -368h251zM315 521l20 -31l-106 -55l-16 17z" />
<glyph horiz-adv-x="380" d="M342 0h-317l19 30l293 335h-236l5 38h304l-21 -28q-152 -176 -293 -338h251zM229 460q0 10 9 18t21 8q10 0 16.5 -6.5t6.5 -14.5q0 -10 -9.5 -18t-20.5 -8q-10 0 -16.5 6t-6.5 15z" />
<glyph horiz-adv-x="950" d="M377 364h-224l-19 -131h206l-5 -38h-206l-28 -195h-41l57 403h265zM726 364h-224l-19 -131h206l-5 -38h-206l-28 -195h-41l57 403h265zM866 114l41 289h41l-41 -289q-8 -53 -49 -86t-99 -33q-49 0 -81.5 26t-33.5 70h41q3 -28 24 -43t55 -15q42 0 69.5 21t32.5 60z" />
<glyph horiz-adv-x="1050" d="M377 364h-224l-19 -131h206l-5 -38h-206l-28 -195h-41l57 403h265zM726 364h-224l-19 -131h206l-5 -38h-206l-28 -195h-41l57 403h265zM1085 403l-5 -39h-134l-52 -364h-40l52 364h-134l5 39h308z" />
<glyph horiz-adv-x="522" d="M377 364h-224l-19 -131h206l-5 -38h-206l-28 -195h-41l57 403h265zM513 403l-57 -403h-41l57 403h41z" />
<glyph horiz-adv-x="692" d="M377 364h-224l-19 -131h206l-5 -38h-206l-28 -195h-41l57 403h265zM466 403h41l-52 -365h221l-5 -38h-262z" />
<glyph horiz-adv-x="871" d="M377 364h-224l-19 -131h206l-5 -38h-206l-28 -195h-41l57 403h265zM726 364h-224l-19 -131h206l-5 -38h-206l-28 -195h-41l57 403h265zM862 403l-57 -403h-41l57 403h41z" />
<glyph horiz-adv-x="1041" d="M377 364h-224l-19 -131h206l-5 -38h-206l-28 -195h-41l57 403h265zM726 364h-224l-19 -131h206l-5 -38h-206l-28 -195h-41l57 403h265zM815 403h41l-52 -365h221l-5 -38h-262z" />
<glyph horiz-adv-x="1096" d="M377 364h-224l-19 -131h206l-5 -38h-206l-28 -195h-41l57 403h265zM726 364h-224l-19 -131h206l-5 -38h-206l-28 -195h-41l57 403h265zM826 195l-23 -158h112q123 0 123 90q0 68 -110 68h-102zM910 0h-152l57 403h143q122 0 122 -86q0 -37 -22.5 -64t-59.5 -36 q36 -5 58.5 -28t22.5 -59q0 -63 -47 -96.5t-122 -33.5zM850 365l-19 -132h93q115 0 115 76q0 56 -86 56h-103z" />
<glyph horiz-adv-x="1153" d="M377 364h-224l-19 -131h206l-5 -38h-206l-28 -195h-41l57 403h265zM726 364h-224l-19 -131h206l-5 -38h-206l-28 -195h-41l57 403h265zM1150 403l-57 -403h-41l28 195h-253l-28 -195h-41l57 403h41l-24 -170h253l24 170h41z" />
<glyph horiz-adv-x="1078" d="M377 364h-224l-19 -131h206l-5 -38h-206l-28 -195h-41l57 403h265zM726 364h-224l-19 -131h206l-5 -38h-206l-28 -195h-41l57 403h265zM1015 0l-152 206l-39 -30l-25 -176h-41l57 403h41l-25 -178l231 178h54l-223 -173l170 -230h-48z" />
<glyph horiz-adv-x="601" d="M377 364h-224l-19 -131h206l-5 -38h-206l-28 -195h-41l57 403h265zM517 114l41 289h41l-41 -289q-8 -53 -49 -86t-99 -33q-49 0 -81.5 26t-33.5 70h41q3 -28 24 -43t55 -15q42 0 69.5 21t32.5 60z" />
<glyph horiz-adv-x="701" d="M377 364h-224l-19 -131h206l-5 -38h-206l-28 -195h-41l57 403h265zM736 403l-5 -39h-134l-52 -364h-40l52 364h-134l5 39h308z" />
<glyph horiz-adv-x="704" d="M387 403l-5 -39h-134l-52 -364h-40l52 364h-134l5 39h308zM739 403l-5 -39h-134l-52 -364h-40l52 364h-134l5 39h308z" />
<glyph horiz-adv-x="698" d="M377 364h-224l-19 -131h206l-5 -38h-206l-28 -195h-41l57 403h265zM726 364h-224l-19 -131h206l-5 -38h-206l-28 -195h-41l57 403h265z" />
<glyph horiz-adv-x="747" d="M377 364h-224l-19 -131h206l-5 -38h-206l-28 -195h-41l57 403h265zM477 195l-23 -158h112q123 0 123 90q0 68 -110 68h-102zM561 0h-152l57 403h143q122 0 122 -86q0 -37 -22.5 -64t-59.5 -36q36 -5 58.5 -28t22.5 -59q0 -63 -47 -96.5t-122 -33.5zM501 365l-19 -132h93 q115 0 115 76q0 56 -86 56h-103z" />
<glyph horiz-adv-x="804" d="M377 364h-224l-19 -131h206l-5 -38h-206l-28 -195h-41l57 403h265zM801 403l-57 -403h-41l28 195h-253l-28 -195h-41l57 403h41l-24 -170h253l24 170h41z" />
<glyph horiz-adv-x="729" d="M377 364h-224l-19 -131h206l-5 -38h-206l-28 -195h-41l57 403h265zM666 0l-152 206l-39 -30l-25 -176h-41l57 403h41l-25 -178l231 178h54l-223 -173l170 -230h-48z" />
<glyph horiz-adv-x="200" d="M240 521l20 -31l-105 -55l-17 17z" />
<glyph horiz-adv-x="200" d="M127 -36l-76 -97l-25 15l60 96z" />
</font>
</defs>
</svg>
