<?xml version="1.0" standalone="no"?>
<!DOCTYPE svg PUBLIC "-//W3C//DTD SVG 1.1//EN" "http://www.w3.org/Graphics/SVG/1.1/DTD/svg11.dtd" >
<svg xmlns="http://www.w3.org/2000/svg" xmlns:xlink="http://www.w3.org/1999/xlink" version="1.1">
<metadata></metadata>
<defs>
<font id="soin_sans_prothin_oblique" horiz-adv-x="580" >
<font-face units-per-em="1000" ascent="750" descent="-250" />
<missing-glyph horiz-adv-x="256" />
<glyph unicode="fi" horiz-adv-x="443" d="M335 0l54 383h-212l-54 -383h-18l54 383h-83l3 17h83l12 87q11 82 58 126t122 44q27 0 57 -5l-3 -17q-28 5 -56 5q-66 0 -108 -40t-52 -113l-12 -87h230l-57 -400h-18z" />
<glyph unicode="fl" horiz-adv-x="470" d="M190 473l-10 -73h134l-3 -17h-134l-54 -383h-18l54 383h-83l3 17h83l10 73q25 180 203 180q51 0 96 -12l-91 -641h-18l89 628q-32 8 -79 8q-159 0 -182 -163z" />
<glyph unicode="ffj" horiz-adv-x="700" d="M437 400h230l-70 -499q-11 -79 -46 -117t-97 -38q-16 0 -28 3l2 16q14 -2 29 -2q55 -1 83.5 33.5t38.5 104.5l68 482h-213l-54 -383h-18l54 383h-239l-54 -383h-18l54 383h-83l3 17h83l13 97q22 160 149 160q22 0 37 -3l-3 -16q-16 2 -36 2q-110 0 -129 -143l-13 -97h239 l12 87q23 170 170 170q22 0 37 -3l-3 -16q-16 2 -36 2q-130 0 -150 -153z" />
<glyph unicode="ffb" horiz-adv-x="1077" d="M419 400l10 73q25 180 203 180q51 0 96 -12l-50 -355q32 56 87 90t118 34q77 0 126 -53t49 -131q0 -96 -69.5 -165.5t-164.5 -69.5q-63 0 -108.5 33.5t-62.5 89.5l-16 -114h-18l89 628q-32 8 -79 8q-159 0 -182 -163l-10 -73h134l-3 -17h-134l-54 -383h-18l54 383h-239 l-54 -383h-18l54 383h-83l3 17h83l13 97q22 160 149 160q22 0 37 -3l-3 -16q-16 2 -36 2q-110 0 -129 -143l-13 -97h239zM827 8q87 0 150 63.5t63 152.5q0 72 -44.5 120.5t-114.5 48.5q-77 0 -139 -54t-77 -135q-12 -83 35.5 -139.5t126.5 -56.5z" />
<glyph unicode="ffh" horiz-adv-x="1046" d="M419 400l10 73q25 180 203 180q51 0 96 -12l-45 -314q92 83 189 83q73 0 107 -46.5t23 -125.5l-34 -238h-17l33 238q10 73 -19 114t-95 41q-95 0 -190 -89l-43 -304h-18l89 628q-32 8 -79 8q-159 0 -182 -163l-10 -73h134l-3 -17h-134l-54 -383h-18l54 383h-239l-54 -383 h-18l54 383h-83l3 17h83l13 97q22 160 149 160q22 0 37 -3l-3 -16q-16 2 -36 2q-110 0 -129 -143l-13 -97h239z" />
<glyph unicode="ffk" horiz-adv-x="953" d="M419 400l10 73q25 180 203 180q51 0 96 -12l-62 -442l277 201h27l-212 -153l177 -247h-21l-169 237l-82 -59l-26 -178h-18l89 628q-32 8 -79 8q-159 0 -182 -163l-10 -73h134l-3 -17h-134l-54 -383h-18l54 383h-239l-54 -383h-18l54 383h-83l3 17h83l13 97 q22 160 149 160q22 0 37 -3l-3 -16q-16 2 -36 2q-110 0 -129 -143l-13 -97h239z" />
<glyph unicode="fj" horiz-adv-x="443" d="M322 -99l68 482h-213l-54 -383h-18l54 383h-83l3 17h83l12 87q11 82 58 126t122 44q27 0 57 -5l-3 -17q-28 5 -56 5q-66 0 -108 -40t-52 -113l-12 -87h230l-70 -499q-11 -79 -46 -117t-97 -38q-16 0 -28 3l2 16q14 -2 29 -2q55 -1 83.5 33.5t38.5 104.5z" />
<glyph unicode="ft" horiz-adv-x="554" d="M379 115l37 268h-239l-54 -383h-18l54 383h-83l3 17h83l13 97q22 160 149 160q22 0 37 -3l-3 -16q-16 2 -36 2q-110 0 -129 -143l-13 -97h239l20 142h18l-20 -142h140l-3 -17h-140l-38 -268q-8 -60 11.5 -82t62.5 -22q29 0 57 6l-3 -17q-28 -6 -57 -6q-53 0 -75.5 26 t-12.5 95z" />
<glyph unicode="tt" horiz-adv-x="568" d="M393 115l37 268h-245l-38 -268q-8 -60 11.5 -82t62.5 -22q29 0 57 6l-3 -17q-28 -6 -57 -6q-53 0 -75.5 26t-12.5 95l37 268h-93l3 17h93l20 142h18l-20 -142h245l20 142h18l-20 -142h140l-3 -17h-140l-38 -268q-8 -60 11.5 -82t62.5 -22q29 0 57 6l-3 -17q-28 -6 -57 -6 q-53 0 -75.5 26t-12.5 95z" />
<glyph unicode="fb" horiz-adv-x="820" d="M570 8q87 0 150 63.5t63 152.5q0 72 -44.5 120.5t-114.5 48.5q-77 0 -139 -54t-77 -135q-12 -83 35.5 -139.5t126.5 -56.5zM471 641l-50 -355q32 56 87 90t118 34q77 0 126 -53t49 -131q0 -96 -69.5 -165.5t-164.5 -69.5q-63 0 -108.5 33.5t-62.5 89.5l-16 -114h-18 l89 628q-32 8 -79 8q-159 0 -182 -163l-10 -73h134l-3 -17h-134l-54 -383h-18l54 383h-83l3 17h83l10 73q25 180 203 180q51 0 96 -12z" />
<glyph unicode="fh" horiz-adv-x="789" d="M362 0l89 628q-32 8 -79 8q-159 0 -182 -163l-10 -73h134l-3 -17h-134l-54 -383h-18l54 383h-83l3 17h83l10 73q25 180 203 180q51 0 96 -12l-45 -314q92 83 189 83q73 0 107 -46.5t23 -125.5l-34 -238h-17l33 238q10 73 -19 114t-95 41q-95 0 -190 -89l-43 -304h-18z " />
<glyph unicode="fk" horiz-adv-x="696" d="M362 0l89 628q-32 8 -79 8q-159 0 -182 -163l-10 -73h134l-3 -17h-134l-54 -383h-18l54 383h-83l3 17h83l10 73q26 180 203 180q51 0 96 -12l-62 -442l277 201h27l-212 -153l177 -247h-21l-169 237l-82 -59l-26 -178h-18z" />
<glyph unicode="&#xd;" horiz-adv-x="229" />
<glyph unicode=" "  horiz-adv-x="256" />
<glyph unicode="&#x09;" horiz-adv-x="256" />
<glyph unicode="&#xa0;" horiz-adv-x="256" />
<glyph unicode="!" horiz-adv-x="260" d="M239 700l-74 -526h-18l74 526h18zM105 15q0 13 10 22.5t22 9.5q10 0 17 -7t7 -17q0 -13 -9.5 -23t-22.5 -10q-10 0 -17 7t-7 18z" />
<glyph unicode="&#x22;" horiz-adv-x="253" d="M153 700h21l-38 -225h-12zM277 700h21l-38 -225h-12z" />
<glyph unicode="#" d="M146 453l2 17h101l63 230h18l-63 -230h209l62 230h18l-63 -230h91l-2 -17h-94l-52 -194h97l-3 -17h-99q-47 -184 -63 -242h-17l64 242h-210l-63 -242h-17l64 242h-94l3 17h96l51 194h-99zM262 453l-52 -194h210l51 194h-209z" />
<glyph unicode="$" d="M415 800l-13 -91q69 -6 115 -45t54 -94h-18q-9 48 -50 82t-103 40l-46 -326q90 -33 136.5 -73.5t46.5 -104.5q0 -87 -70.5 -140t-165.5 -57l-13 -91h-18l13 91q-82 1 -136 40t-65 101h18q11 -53 60 -88t125 -36l49 346q-40 16 -54.5 22t-47 24t-46 33t-26 41t-12.5 57 q0 70 60.5 124.5t170.5 54.5h5l13 90h18zM519 185q0 58 -43 95t-125 68l-48 -340q85 3 150.5 50.5t65.5 126.5zM166 534q0 -60 45 -96t126 -65l45 320h-5q-99 0 -155 -48.5t-56 -110.5z" />
<glyph unicode="%" horiz-adv-x="700" d="M660 697l-505 -703l-16 11l505 703zM417 141q-8 -59 19.5 -97t81.5 -38t91.5 38t45.5 97q9 59 -17.5 97t-81.5 38q-54 0 -92 -38t-47 -97zM398 141q10 67 53.5 109.5t106.5 42.5t94.5 -42.5t21.5 -109.5q-8 -66 -52 -109t-107 -43t-94 42.5t-23 109.5zM140 536 q0 -51 27 -82.5t75 -31.5q61 0 100.5 45t39.5 111q0 51 -26.5 82.5t-74.5 31.5q-61 0 -101 -45t-40 -111zM121 534q0 74 45 124.5t116 50.5q56 0 87.5 -35.5t31.5 -93.5q0 -74 -45 -124.5t-116 -50.5q-56 0 -87.5 35.5t-31.5 93.5z" />
<glyph unicode="&#x26;" horiz-adv-x="638" d="M95 154q0 41 13 74t40 58t52.5 42.5t66.5 40.5l3 1.5t2.5 1.5t3 1.5t2.5 1.5l-20 25q-64 80 -64 151q0 58 48.5 108.5t132.5 50.5q65 0 99 -36t34 -89q0 -37 -15 -68t-47.5 -58.5t-61 -45t-77.5 -44.5l206 -255q66 83 83 202l11 74h18l-11 -74q-19 -131 -89 -217l80 -99 h-25l-67 83q-86 -92 -226 -92q-87 0 -139.5 46.5t-52.5 116.5zM289 8q132 0 211 89l-210 263q-86 -47 -131.5 -92t-45.5 -111q0 -64 51 -106.5t125 -42.5zM267 419l29 -36q11 7 37.5 22t43.5 25t40.5 28t37.5 34.5t24.5 40t10.5 48.5q0 47 -29.5 79.5t-87.5 32.5 q-73 0 -117 -44t-44 -96q0 -66 55 -134z" />
<glyph unicode="'" horiz-adv-x="129" d="M153 700h21l-38 -225h-12z" />
<glyph unicode="(" horiz-adv-x="253" d="M121 218q37 269 188 503q2 -1 7 -4t7 -5q-73 -115 -118.5 -232t-65.5 -262q-38 -260 44 -494l-16 -9q-85 232 -46 503z" />
<glyph unicode=")" horiz-adv-x="253" d="M207 354q0 -186 -52 -337t-150 -302l-14 9q99 157 148.5 301.5t49.5 325.5q0 192 -59 361q3 1 9 4t8 5q60 -162 60 -367z" />
<glyph unicode="*" horiz-adv-x="402" d="M274 552l15 148h21l-26 -148l146 49l4 -18l-148 -43l75 -117l-18 -12l-67 122l-101 -122l-15 12l107 117l-135 43l10 18z" />
<glyph unicode="+" d="M557 294l-3 -18h-216l-30 -216h-18l30 216h-216l3 18h216l30 216h18l-30 -216h216z" />
<glyph unicode="," horiz-adv-x="206" d="M107 49l22 -7l-89 -205l-15 3z" />
<glyph unicode="-" horiz-adv-x="370" d="M93 299l3 18h266l-3 -18h-266z" />
<glyph unicode="." horiz-adv-x="206" d="M78 16q0 12 10 21.5t22 9.5q10 0 17 -7t7 -18q0 -12 -10 -21.5t-22 -9.5q-10 0 -17 7t-7 18z" />
<glyph unicode="/" horiz-adv-x="548" d="M661 803l-660 -920l-16 11l661 920z" />
<glyph unicode="0" horiz-adv-x="610" d="M406 709q92 0 146 -77.5t54 -209.5q0 -188 -87.5 -309.5t-214.5 -121.5q-92 0 -146.5 78t-54.5 209q0 188 88 309.5t215 121.5zM307 8q116 0 198.5 115.5t82.5 295.5q0 124 -50.5 198.5t-134.5 74.5q-115 0 -198.5 -116.5t-83.5 -294.5q0 -125 51 -199t135 -74z" />
<glyph unicode="1" horiz-adv-x="334" d="M212 0l96 687l-197 -112l-8 15l228 129l-101 -719h-18z" />
<glyph unicode="2" horiz-adv-x="528" d="M90 19h387l-3 -19h-426l290 276q37 35 58.5 57.5t52 59.5t45.5 74t15 73q0 67 -42.5 109.5t-115.5 42.5q-78 0 -138.5 -51t-70.5 -129h-18q8 81 75.5 139t152.5 58q81 0 128 -47t47 -120q0 -39 -14 -76.5t-43 -74t-51 -60t-59 -58.5z" />
<glyph unicode="3" horiz-adv-x="535" d="M316 355l2 19q88 8 142 55t54 127q0 59 -41 97.5t-112 38.5q-72 0 -125 -40.5t-71 -104.5h-18q20 72 78 117t139 45q78 0 123.5 -42.5t45.5 -108.5q0 -84 -51 -131t-133 -63q65 -6 107.5 -46t42.5 -110q0 -92 -68 -154.5t-175 -62.5q-85 0 -138.5 47.5t-53.5 122.5h18 q1 -65 50 -109t126 -44q96 0 159.5 57.5t63.5 140.5q0 70 -45.5 107.5t-119.5 41.5z" />
<glyph unicode="4" horiz-adv-x="539" d="M437 168h96l-3 -17h-96l-21 -151h-18l21 151h-371l470 574zM419 168l69 497l-406 -497h337z" />
<glyph unicode="5" horiz-adv-x="546" d="M529 249q0 -114 -74.5 -185t-189.5 -71q-83 0 -140 46t-57 121h18q2 -66 52.5 -108t127.5 -42q107 0 176 66t69 171q0 79 -48 127t-143 48h-183q26 142 53 278h340l-3 -17h-325l-47 -244h167q101 0 154 -52t53 -138z" />
<glyph unicode="6" horiz-adv-x="559" d="M569 584h-18q-8 46 -49 76.5t-91 30.5q-64 0 -115 -30t-83.5 -82t-52.5 -107.5t-32 -119.5q-10 -55 -10 -111q21 100 93 161t160 61q82 0 130.5 -57t48.5 -145q0 -111 -70.5 -190t-178.5 -79q-92 0 -146 65.5t-54 203.5q0 55 10.5 113.5t34.5 118.5t59 107.5t89 77.5 t119 30q60 0 103.5 -35.5t52.5 -88.5zM304 9q102 0 165 72t63 179q0 81 -44.5 133.5t-118.5 52.5q-98 0 -170 -74t-72 -177q0 -80 48.5 -133t128.5 -53z" />
<glyph unicode="7" horiz-adv-x="493" d="M526 683h-400l3 17h429l-445 -700h-21z" />
<glyph unicode="8" horiz-adv-x="554" d="M278 8q96 0 160.5 56.5t64.5 136.5q0 67 -48.5 111t-127.5 44q-95 0 -160 -57t-65 -137q0 -67 48 -110.5t128 -43.5zM377 709q82 0 130.5 -43.5t48.5 -113.5q0 -73 -49 -123t-121 -64q61 -14 98 -55.5t37 -107.5q0 -91 -71.5 -151t-174.5 -60q-85 0 -138.5 46t-53.5 119 q0 83 53 137t136 72q-55 10 -89.5 49t-34.5 96q0 85 64.5 142t164.5 57zM330 373q88 0 148 51.5t60 124.5q0 61 -45 102t-119 41q-88 0 -148 -52.5t-60 -126.5q0 -61 44.5 -100.5t119.5 -39.5z" />
<glyph unicode="9" horiz-adv-x="559" d="M89 116h18q8 -46 49 -76.5t91 -30.5q64 0 115 30t83.5 82t52.5 107.5t32 119.5q9 48 10 111q-21 -100 -93 -161t-160 -61q-82 0 -131 57t-49 145q0 111 70.5 190t179.5 79q92 0 146 -65.5t54 -203.5q0 -55 -10.5 -113.5t-34.5 -118.5t-59 -107.5t-89 -77.5t-119 -30 q-60 0 -103.5 35.5t-52.5 88.5zM354 691q-102 0 -165.5 -72t-63.5 -179q0 -81 45 -133.5t119 -52.5q98 0 170 73.5t72 177.5q0 80 -48.5 133t-128.5 53z" />
<glyph unicode=":" horiz-adv-x="206" d="M77 16q0 12 10 21.5t22 9.5q10 0 17 -7t7 -18q0 -12 -9.5 -21.5t-21.5 -9.5q-10 0 -17.5 7.5t-7.5 17.5zM128 376q0 12 10 21.5t22 9.5q10 0 17 -7t7 -18q0 -12 -10 -21.5t-22 -9.5q-10 0 -17 7t-7 18z" />
<glyph unicode=";" horiz-adv-x="206" d="M129 376q0 12 9.5 21.5t22.5 9.5q11 0 18 -7.5t7 -17.5q0 -12 -10.5 -21.5t-22.5 -9.5q-10 0 -17 7t-7 18zM107 49l22 -7l-89 -205l-15 3z" />
<glyph unicode="&#x3c;" d="M111 292l470 213l-3 -21l-447 -201l391 -201l-4 -21l-410 213z" />
<glyph unicode="=" d="M558 384l-2 -18h-430l2 18h430zM533 204l-3 -18h-430l3 18h430z" />
<glyph unicode="&#x3e;" d="M141 505l411 -213l-3 -18l-470 -213l2 21l447 201l-390 201z" />
<glyph unicode="?" horiz-adv-x="511" d="M289 145h-18l19 131q39 24 59 36.5t56 40.5t54.5 51.5t34 58t15.5 70.5q0 68 -44.5 113.5t-123.5 45.5q-84 0 -147 -52t-73 -130h-18q8 81 78.5 140t161.5 59q86 0 135 -50t49 -125q0 -37 -15 -72t-34 -60t-54.5 -54t-57 -44t-60.5 -40zM234 15q0 13 10.5 22.5t22.5 9.5 q10 0 17 -7t7 -17q0 -14 -9.5 -23.5t-22.5 -9.5q-11 0 -18 7t-7 18z" />
<glyph unicode="@" horiz-adv-x="1063" d="M728 124q-34 -59 -89 -96t-122 -37q-77 0 -126 52.5t-49 130.5q0 96 69.5 166t164.5 70q63 0 108.5 -34t62.5 -90l16 114h18l-38 -273q1 -35 25.5 -68.5t66.5 -33.5q76 0 128.5 96.5t52.5 220.5q0 157 -96.5 256t-269.5 99q-226 0 -379 -155.5t-153 -387.5 q0 -186 110 -303t286 -117q181 0 339 82l5 -13q-168 -82 -347 -82q-180 0 -293 119.5t-113 310.5q0 240 156 399.5t391 159.5q177 0 277 -101.5t100 -264.5q0 -132 -56.5 -232t-139.5 -100q-47 0 -73.5 35t-31.5 77zM520 8q79 0 141.5 56t74.5 140q8 81 -38.5 135t-123.5 54 q-87 0 -150.5 -64t-63.5 -153q0 -72 45 -120t115 -48z" />
<glyph unicode="A" horiz-adv-x="686" d="M443 710l213 -710h-19l-68 226h-388l-132 -226h-19zM190 243h374l-127 426z" />
<glyph unicode="B" horiz-adv-x="638" d="M171 371l-50 -354h222q106 0 178.5 52.5t72.5 150.5q0 151 -215 151h-208zM340 0h-240l99 700h225q88 0 140 -33.5t52 -105.5q0 -68 -43.5 -115.5t-117.5 -65.5q72 -7 114.5 -50t42.5 -112q0 -105 -75.5 -161.5t-196.5 -56.5zM214 683l-42 -295h209q34 0 68.5 8 t69.5 25.5t57 53.5t22 84q0 124 -177 124h-207z" />
<glyph unicode="C" horiz-adv-x="807" d="M108 308q0 163 125 282.5t292 119.5q114 0 192 -57.5t106 -151.5h-19q-25 83 -97.5 137t-183.5 54q-160 0 -278 -112.5t-118 -270.5q0 -129 84 -215t215 -86q110 0 201.5 57t138.5 145h21q-51 -100 -149 -160t-215 -60q-138 0 -226.5 91.5t-88.5 226.5z" />
<glyph unicode="D" horiz-adv-x="737" d="M100 0l99 700h226q138 0 220 -85t82 -218q0 -168 -110.5 -282.5t-282.5 -114.5h-234zM337 17q163 1 267.5 111t104.5 268q0 126 -77 206.5t-210 80.5h-208l-93 -666h216z" />
<glyph unicode="E" horiz-adv-x="598" d="M628 683h-416l-42 -295h388l-1 -17h-388l-50 -354h416l-3 -17h-434l99 700h434z" />
<glyph unicode="F" horiz-adv-x="566" d="M622 683h-410l-42 -295h382l-1 -17h-382l-53 -371h-18l99 700h428z" />
<glyph unicode="G" horiz-adv-x="839" d="M805 335h-313l3 17h332q-23 -163 -137 -262.5t-272 -99.5q-135 0 -222.5 92t-87.5 226q0 107 57.5 200t153.5 147.5t205 54.5q114 0 191 -57.5t106 -151.5h-20q-24 83 -96 137t-183 54q-160 0 -277.5 -113.5t-117.5 -269.5q0 -127 83 -214t211 -87q144 0 254.5 92.5 t129.5 234.5z" />
<glyph unicode="H" horiz-adv-x="733" d="M734 700l-99 -700h-18l53 371h-501l-53 -371h-18l99 700h18l-45 -312h501l45 312h18z" />
<glyph unicode="I" horiz-adv-x="238" d="M227 700l-99 -700h-18l99 700h18z" />
<glyph unicode="J" horiz-adv-x="516" d="M431 189l72 511h18l-72 -511q-12 -86 -78 -142t-157 -56q-71 0 -120 38.5t-56 98.5h18q7 -51 51.5 -85.5t109.5 -34.5q84 0 143.5 50.5t70.5 130.5z" />
<glyph unicode="K" horiz-adv-x="591" d="M648 700l-377 -293l290 -407h-22l-281 396l-96 -75l-46 -321h-18l99 700h18l-51 -356l458 356h26z" />
<glyph unicode="L" horiz-adv-x="534" d="M197 700h18l-96 -683h396l-3 -17h-414z" />
<glyph unicode="M" horiz-adv-x="880" d="M442 14l401 714l-27 -728h-17l26 665l-389 -688l-195 688l-160 -665h-17l177 728z" />
<glyph unicode="N" horiz-adv-x="741" d="M742 700l-101 -721l-431 684l-94 -663h-18l101 715l431 -683l94 668h18z" />
<glyph unicode="O" horiz-adv-x="843" d="M108 308q0 107 58 200.5t153 147.5t202 54q135 0 224 -92t89 -226q0 -107 -58 -200t-153.5 -147t-202.5 -54q-135 0 -223.5 91.5t-88.5 225.5zM127 309q0 -128 83.5 -214t211.5 -86q157 0 275 112.5t118 269.5q0 129 -84 215t-212 86q-157 0 -274.5 -112.5t-117.5 -270.5 z" />
<glyph unicode="P" horiz-adv-x="622" d="M160 309l-44 -309h-18l99 700h243q89 0 145 -42.5t56 -126.5q0 -109 -72 -165.5t-182 -56.5h-227zM163 326h227q100 0 166.5 50t66.5 154q0 78 -50.5 115.5t-135.5 37.5h-225z" />
<glyph unicode="Q" horiz-adv-x="843" d="M421 0q-135 0 -224 90.5t-89 222.5q0 105 58 197.5t153 146t202 53.5q135 0 224.5 -91t89.5 -224q0 -131 -89.5 -237.5t-222.5 -142.5l261 2l-3 -17h-360zM127 314q0 -128 84 -212t213 -84q157 0 274.5 110.5t117.5 265.5q0 128 -84 213t-213 85q-156 0 -274 -111.5 t-118 -266.5z" />
<glyph unicode="R" horiz-adv-x="625" d="M162 325l-46 -325h-18l99 700h233q91 0 147 -39t56 -122q0 -108 -68.5 -161t-165.5 -53l174 -325h-20l-174 325h-217zM164 342h217q39 0 72 5.5t63 20t51.5 36t34 55.5t12.5 78q0 146 -187 146h-215z" />
<glyph unicode="S" horiz-adv-x="538" d="M271 8q88 0 155 48t67 131q0 62 -48.5 100.5t-143.5 71.5q-78 29 -122.5 68.5t-44.5 104.5q0 69 59.5 123.5t169.5 54.5q78 0 126 -39.5t56 -100.5h-18q-10 54 -53 88.5t-114 34.5q-99 0 -154 -48.5t-55 -110.5q0 -58 42 -95t118 -64q100 -36 150.5 -77t50.5 -109 q0 -91 -73 -144.5t-170 -53.5q-83 0 -136.5 39t-65.5 102h18q12 -54 60 -89t126 -35z" />
<glyph unicode="T" horiz-adv-x="552" d="M621 700l-3 -16h-237l-96 -684h-18l96 684h-237l3 16h492z" />
<glyph unicode="U" horiz-adv-x="718" d="M360 8q123 0 196 75t90 199l59 418h18l-59 -418q-19 -132 -97.5 -212t-209.5 -80t-186.5 80t-36.5 212l59 418h18l-59 -418q-17 -124 34 -199t174 -75z" />
<glyph unicode="V" horiz-adv-x="640" d="M323 20l377 680h19l-402 -723l-198 723h19z" />
<glyph unicode="W" horiz-adv-x="1014" d="M608 714l143 -685l306 671h18l-331 -721l-143 684l-335 -684l-129 721h18l118 -671z" />
<glyph unicode="X" horiz-adv-x="636" d="M594 0l-226 355l-326 -355h-20l338 368l-210 332h20l201 -319l293 319h20l-304 -332l234 -368h-20z" />
<glyph unicode="Y" horiz-adv-x="560" d="M325 321h2l290 379h20l-305 -396l-43 -304h-18l43 304l-193 396h20z" />
<glyph unicode="Z" horiz-adv-x="599" d="M547 0h-499l565 684h-439l3 16h471l-564 -684h466z" />
<glyph unicode="[" horiz-adv-x="246" d="M198 700h126l-2 -17h-108l-129 -916h108l-2 -17h-126z" />
<glyph unicode="\" horiz-adv-x="548" d="M513 -117l-400 920l19 11l401 -920z" />
<glyph unicode="]" horiz-adv-x="246" d="M118 700h126l-133 -950h-126l2 17h108l129 916h-108z" />
<glyph unicode="^" horiz-adv-x="545" d="M382 700l159 -373h-25l-147 352q-80 -112 -248 -352h-25l263 373h23z" />
<glyph unicode="_" horiz-adv-x="425" d="M25 -77l3 17h353l-3 -17h-353z" />
<glyph unicode="`" horiz-adv-x="290" d="M163 617l16 17l110 -103l-9 -9z" />
<glyph unicode="a" horiz-adv-x="458" d="M136 321h-18q20 42 65 66t101 24q72 0 107 -38t26 -104l-37 -269h-16l11 88q-55 -93 -184 -93q-58 0 -93 28.5t-35 77.5q0 142 210 142h124l4 26q9 60 -23 92.5t-97 32.5q-102 0 -145 -73zM194 12q57 0 106 24.5t72 73.5q8 17 13 50l10 66h-124q-101 0 -145.5 -29.5 t-44.5 -93.5q0 -43 30.5 -67t82.5 -24z" />
<glyph unicode="b" horiz-adv-x="540" d="M346 410q77 0 126 -53t49 -131q0 -96 -69.5 -165.5t-163.5 -69.5q-63 0 -109 33.5t-63 89.5l-16 -114h-18l92 653h18l-52 -367q33 56 88 90t118 34zM289 8q87 0 150.5 63.5t63.5 153.5q0 72 -44.5 120t-114.5 48q-78 0 -140 -54t-76 -135q-11 -84 35.5 -140t125.5 -56z " />
<glyph unicode="c" horiz-adv-x="481" d="M476 297h-19q-10 42 -51.5 69t-90.5 27q-91 0 -156.5 -64t-65.5 -153q0 -73 46 -120.5t121 -47.5q51 0 100.5 27.5t70.5 70.5h20q-24 -51 -79.5 -83t-113.5 -32q-81 0 -132 52.5t-51 131.5q0 96 72 165.5t170 69.5q57 0 103 -32t56 -81z" />
<glyph unicode="d" horiz-adv-x="540" d="M309 410q63 0 108.5 -34t62.5 -90l51 367h18l-91 -653h-18l16 114q-33 -56 -88 -89.5t-118 -33.5q-77 0 -126 52.5t-49 130.5q0 96 70 166t164 70zM252 8q79 0 142 56.5t75 139.5q8 81 -38.5 135t-123.5 54q-87 0 -150.5 -64t-63.5 -153q0 -72 44.5 -120t114.5 -48z" />
<glyph unicode="e" horiz-adv-x="501" d="M477 192h-383q-8 -79 39 -131.5t127 -52.5q51 0 100.5 27.5t70.5 70.5h20q-24 -51 -79.5 -83t-113.5 -32q-81 0 -132 52.5t-51 131.5q0 95 71 165t165 70q85 0 132 -61t35 -149zM309 393q-76 0 -137 -52.5t-75 -130.5h365q7 79 -35.5 131t-117.5 52z" />
<glyph unicode="f" horiz-adv-x="280" d="M76 383l3 17h83l12 87q23 170 170 170q22 0 37 -3l-3 -16q-16 2 -36 2q-130 0 -150 -153l-12 -87h134l-3 -17h-134l-54 -383h-18l54 383h-83z" />
<glyph unicode="g" horiz-adv-x="461" d="M102 220q0 76 58 132t134 56h185l-2 -15h-123q38 -15 61.5 -52t23.5 -82q0 -74 -58.5 -129.5t-133.5 -55.5q-72 0 -112 50q-76 -29 -76 -80q0 -56 95 -56h99q163 0 163 -121q0 -80 -57 -127.5t-162 -47.5q-88 0 -133 37.5t-45 96.5q0 54 32 92.5t75 55.5q-36 1 -60.5 18 t-24.5 50t25.5 58t58.5 37q-23 34 -23 83zM250 -29h-99q-50 -18 -82 -54.5t-32 -87.5q0 -53 40.5 -86.5t121.5 -33.5q99 0 149 42t50 115q0 53 -34.5 79t-113.5 26zM120 224q0 -56 36.5 -95t92.5 -39q67 0 119.5 50.5t52.5 117.5q0 56 -37 95t-93 39q-66 0 -118.5 -51 t-52.5 -117z" />
<glyph unicode="h" horiz-adv-x="509" d="M82 0l92 653h18l-45 -326q89 83 188 83q73 0 107 -46.5t23 -125.5l-34 -238h-18l34 238q10 73 -19 114t-95 41q-97 0 -190 -89l-43 -304h-18z" />
<glyph unicode="i" horiz-adv-x="198" d="M90 0l56 400h18l-56 -400h-18zM155 545q0 10 7 17.5t17 7.5q8 0 13.5 -5.5t5.5 -13.5q0 -10 -7.5 -17t-18.5 -7q-17 0 -17 18z" />
<glyph unicode="j" horiz-adv-x="198" d="M164 400l-70 -499q-11 -79 -45.5 -117t-96.5 -38q-16 0 -29 3l3 16q12 -2 28 -2q55 -1 83.5 33.5t38.5 104.5l70 499h18zM154 545q0 10 7.5 17.5t17.5 7.5q8 0 13.5 -5.5t5.5 -13.5q0 -10 -7.5 -17t-17.5 -7q-8 0 -13.5 5t-5.5 13z" />
<glyph unicode="k" horiz-adv-x="416" d="M432 400l-211 -153l177 -247h-21l-169 237l-83 -59l-25 -178h-18l92 653h18l-63 -454l276 201h27z" />
<glyph unicode="l" horiz-adv-x="198" d="M90 0l92 653h18l-92 -653h-18z" />
<glyph unicode="m" horiz-adv-x="766" d="M80 0l56 400h18l-10 -73q87 83 171 83q99 0 113 -94q92 94 182 94q66 0 95 -42.5t18 -121.5l-35 -246h-18l35 246q21 147 -98 147q-85 0 -177 -94q2 -29 -2 -53l-35 -246h-18l35 246q21 147 -98 147q-80 0 -171 -89l-43 -304h-18z" />
<glyph unicode="n" horiz-adv-x="507" d="M80 0l56 400h18l-10 -73q92 83 189 83q73 0 107 -46.5t23 -125.5l-34 -238h-18l34 238q10 73 -19.5 114t-95.5 41q-96 0 -189 -89l-43 -304h-18z" />
<glyph unicode="o" horiz-adv-x="508" d="M311 410q78 0 127.5 -53t49.5 -131q0 -96 -70.5 -165.5t-165.5 -69.5q-78 0 -127.5 53t-49.5 131q0 95 71 165t165 70zM254 8q87 0 151 63.5t64 152.5q0 72 -45 120.5t-115 48.5q-87 0 -151.5 -64t-64.5 -153q0 -73 45 -120.5t116 -47.5z" />
<glyph unicode="p" horiz-adv-x="538" d="M344 410q77 0 126 -53t49 -131q0 -96 -70 -165.5t-165 -69.5q-63 0 -108.5 33.5t-61.5 89.5l-52 -364h-18l92 650h18l-16 -114q32 56 87.5 90t118.5 34zM287 8q87 0 150 63.5t63 152.5q0 72 -44.5 120.5t-114.5 48.5q-77 0 -139 -54t-77 -135q-12 -83 35.5 -139.5 t126.5 -56.5z" />
<glyph unicode="q" horiz-adv-x="538" d="M252 8q79 0 142 56.5t75 139.5q8 81 -38.5 135t-123.5 54q-87 0 -150.5 -64t-63.5 -153q0 -72 44.5 -120t114.5 -48zM309 410q63 0 108.5 -34t62.5 -90l16 114h18l-92 -650h-18l52 364q-33 -56 -88 -89.5t-118 -33.5q-77 0 -126 52.5t-49 130.5q0 96 70 166t164 70z" />
<glyph unicode="r" horiz-adv-x="301" d="M80 0l56 400h18l-10 -73q91 83 188 76l-3 -17q-95 7 -188 -82l-43 -304h-18z" />
<glyph unicode="s" horiz-adv-x="374" d="M190 9q55 0 94 24.5t39 72.5q0 37 -31 58.5t-89 35.5q-107 26 -107 97q0 48 38 80.5t101 32.5q51 0 84 -25.5t41 -61.5h-18q-27 70 -110 70q-55 0 -86.5 -27t-31.5 -68q0 -34 25 -52t79 -31q59 -15 91 -39t32 -68q0 -56 -45 -86t-108 -30q-57 0 -92 23.5t-43 61.5h18 q8 -29 38 -48.5t81 -19.5z" />
<glyph unicode="t" horiz-adv-x="305" d="M130 115l37 268h-93l3 17h93l20 142h18l-20 -142h140l-3 -17h-140l-38 -268q-8 -60 11.5 -82t62.5 -22q29 0 57 6l-3 -17q-28 -6 -57 -6q-53 0 -75.5 26t-12.5 95z" />
<glyph unicode="u" horiz-adv-x="499" d="M475 400l-56 -400h-18l10 73q-92 -83 -184 -83q-72 0 -105 44t-22 123l34 243h18l-34 -243q-11 -72 18 -111t94 -39q91 0 184 89l43 304h18z" />
<glyph unicode="v" horiz-adv-x="428" d="M216 16l227 384h19l-251 -419l-133 419h19z" />
<glyph unicode="w" horiz-adv-x="596" d="M356 414l80 -380l173 366h17l-197 -415l-79 384l-189 -384l-79 415h17l69 -366z" />
<glyph unicode="x" horiz-adv-x="406" d="M221 206l-129 194h22l120 -181l170 181h22l-183 -194l137 -206h-22l-128 192l-182 -192h-22z" />
<glyph unicode="y" horiz-adv-x="428" d="M78 400h19l118 -383l228 383h19l-388 -650h-19l150 250z" />
<glyph unicode="z" horiz-adv-x="371" d="M96 384l2 16h293l-332 -384h283l-3 -16h-315l332 384h-260z" />
<glyph unicode="{" horiz-adv-x="298" d="M80 214l3 18q48 24 77 57.5t37 92.5l31 216q21 143 147 156l-3 -17q-108 -8 -126 -140l-31 -215q-9 -63 -37.5 -97.5t-78.5 -61.5q43 -27 61.5 -61.5t9.5 -97.5l-30 -215q-18 -132 87 -140l-3 -17q-121 13 -102 156l30 216q8 59 -11 92.5t-61 57.5z" />
<glyph unicode="|" horiz-adv-x="230" d="M236 800l-141 -1000h-18l141 1000h18z" />
<glyph unicode="}" horiz-adv-x="298" d="M281 232l-3 -18q-48 -24 -77 -57.5t-37 -92.5l-30 -216q-19 -142 -147 -156l2 17q109 8 127 140l30 215q9 63 37.5 97.5t77.5 61.5q-42 27 -61 61.5t-10 97.5l31 215q19 132 -87 140l2 17q125 -13 104 -156l-32 -216q-8 -59 11.5 -92.5t61.5 -57.5z" />
<glyph unicode="~" d="M247 281q30 0 83 -31t81 -31q60 0 97 61l15 -10q-48 -68 -114 -68q-32 0 -82.5 31t-81.5 31q-62 0 -106 -59l-13 10q52 66 121 66z" />
<glyph unicode="&#xa1;" horiz-adv-x="260" d="M96 -173l74 526h18l-74 -526h-18zM230 512q0 -13 -10 -22.5t-23 -9.5q-10 0 -16.5 7t-6.5 17q0 13 9.5 23t21.5 10q11 0 18 -7t7 -18z" />
<glyph unicode="&#xa2;" d="M383 500l-13 -90q56 -1 102.5 -33t56.5 -80h-19q-10 42 -51.5 68.5t-90.5 27.5l-55 -385q51 1 101 28.5t71 69.5h20q-24 -50 -79.5 -82t-113.5 -33l-14 -91h-18l14 92q-76 4 -124 56.5t-48 126.5q0 92 68 160t162 74l13 91h18zM141 177q0 -70 42.5 -117.5t111.5 -51.5 l55 384q-87 -6 -148 -68.5t-61 -146.5z" />
<glyph unicode="&#xa3;" d="M181 293h130q-7 22 -26 52t-36.5 54.5t-32 58t-14.5 65.5q0 71 59 128.5t149 57.5q86 0 130 -54.5t28 -136.5h-18q11 78 -26.5 126t-115.5 48q-81 0 -134.5 -53.5t-53.5 -115.5q0 -39 21.5 -78t50 -79.5t37.5 -72.5h148l-2 -17h-145q7 -72 -48.5 -148t-124.5 -111h368 l-3 -17h-443l3 17h43q75 34 134 110t53 149h-133z" />
<glyph unicode="&#xa4;" horiz-adv-x="618" d="M97 86l50 44q-43 60 -43 140q0 101 88 194l-37 43l15 13l38 -43q87 67 178 67q89 0 158 -66l48 42l11 -13l-47 -42q43 -61 43 -139q0 -102 -93 -197l39 -43l-16 -14l-38 45q-83 -64 -175 -64q-88 0 -156 65l-53 -46zM123 272q0 -84 56 -142.5t140 -58.5q103 0 182 76 t79 177q0 84 -56.5 142.5t-140.5 58.5q-103 0 -181.5 -76t-78.5 -177z" />
<glyph unicode="&#xa5;" d="M547 294l-3 -18h-206l-39 -276h-18l39 276h-206l3 18h206l1 10l-49 102h-142l2 18h130l-134 276h20l184 -379h2l290 379h20l-213 -276h131l-2 -18h-142l-79 -102l-1 -10h206z" />
<glyph unicode="&#xa6;" horiz-adv-x="218" d="M147 207l-49 -347h-18l49 347h18zM222 740l-49 -347h-18l49 347h18z" />
<glyph unicode="&#xa7;" d="M159 239q0 63 41.5 114.5t104.5 70.5q-41 19 -66 53t-25 78q0 61 47.5 109t138.5 48q60 0 100.5 -31.5t47.5 -83.5h-19q-7 44 -42 71t-89 27q-82 0 -124 -43.5t-42 -97.5q0 -46 25.5 -74t70.5 -51q15 3 30 3q65 0 107.5 -44.5t42.5 -109.5q0 -64 -43 -115.5t-107 -69.5 q108 -55 108 -141q0 -75 -59 -120.5t-135 -45.5q-68 0 -111.5 32t-51.5 84h19q6 -44 44 -71.5t102 -27.5q66 0 119.5 41t53.5 107q0 83 -121 136q-6 -1 -17 -1q-65 0 -107.5 44.5t-42.5 108.5zM178 240q0 -58 38 -97.5t96 -39.5q70 0 123.5 52t53.5 123q0 58 -38 97.5 t-96 39.5q-70 0 -123.5 -52t-53.5 -123z" />
<glyph unicode="&#xa8;" horiz-adv-x="290" d="M122 545q0 10 7 17.5t17 7.5q8 0 13.5 -5.5t5.5 -13.5q0 -10 -7.5 -17t-18.5 -7q-17 0 -17 18zM279 545q0 10 7 17.5t17 7.5q8 0 13.5 -5.5t5.5 -13.5q0 -10 -7.5 -17t-18.5 -7q-17 0 -17 18z" />
<glyph unicode="&#xa9;" horiz-adv-x="877" d="M126 310q0 161 124.5 280.5t287.5 119.5q134 0 223 -92t89 -226q0 -106 -58 -198.5t-153.5 -146.5t-201.5 -54q-134 0 -222.5 91.5t-88.5 225.5zM144 311q0 -127 84 -214t212 -87q155 0 273.5 113.5t118.5 267.5q0 128 -84 215.5t-212 87.5q-156 0 -274 -114.5 t-118 -268.5zM323 331q0 78 60 135.5t138 57.5q55 0 93 -29t55 -80h-20q-14 41 -47.5 66.5t-83.5 25.5q-70 0 -124.5 -52t-54.5 -122q0 -58 39 -97.5t97 -39.5q51 0 92.5 26.5t63.5 68.5h20q-62 -112 -179 -112q-65 0 -107 43.5t-42 108.5z" />
<glyph unicode="&#xaa;" horiz-adv-x="334" d="M161 625h-15q15 34 47 55.5t75 21.5q49 0 74.5 -27t19.5 -71l-28 -204h-15l9 69q-42 -72 -124 -72q-45 0 -72 21t-27 59q0 103 149 103h89l4 24q6 38 -15.5 61t-64.5 23q-37 0 -65.5 -18t-40.5 -45zM205 411q47 0 85 30t45 77l7 48h-90q-132 0 -132 -88q0 -31 23 -49 t62 -18z" />
<glyph unicode="&#xab;" horiz-adv-x="391" d="M102 283l105 -146l-13 -11l-114 157l158 158l9 -13zM256 283l105 -146l-13 -11l-114 157l158 158l9 -13z" />
<glyph unicode="&#xac;" d="M108 293h434l-33 -233h-18l30 216h-416z" />
<glyph unicode="&#xad;" horiz-adv-x="180" d="M44 309h180l-3 -19h-180z" />
<glyph unicode="&#xae;" horiz-adv-x="877" d="M126 310q0 161 124.5 280.5t287.5 119.5q134 0 223 -92t89 -226q0 -106 -58 -198.5t-153.5 -146.5t-201.5 -54q-134 0 -222.5 91.5t-88.5 225.5zM144 311q0 -127 84 -214t212 -87q155 0 273.5 113.5t118.5 267.5q0 128 -84 215.5t-212 87.5q-156 0 -274 -114.5 t-118 -268.5zM408 334l-22 -158h-16l49 348h112q43 0 70 -21.5t27 -61.5q0 -46 -31 -74t-80 -33l79 -158h-18l-77 158h-93zM410 349h97q43 0 74 23.5t31 67.5q0 34 -23 51.5t-60 17.5h-96z" />
<glyph unicode="&#xaf;" horiz-adv-x="290" d="M97 538l2 15h246l-2 -15h-246z" />
<glyph unicode="&#xb0;" horiz-adv-x="375" d="M141 569q0 58 44.5 100.5t102.5 42.5q48 0 79.5 -32.5t31.5 -80.5q0 -58 -45 -100t-103 -42q-48 0 -79 32t-31 80zM156 571q0 -43 27.5 -71.5t70.5 -28.5q52 0 91 37.5t39 88.5q0 42 -28 71.5t-70 29.5q-52 0 -91 -38t-39 -89z" />
<glyph unicode="&#xb1;" d="M557 294l-3 -18h-216l-30 -216h-18l30 216h-216l3 18h216l30 216h18l-30 -216h216zM518 18l-3 -18h-450l3 18h450z" />
<glyph unicode="&#xb2;" horiz-adv-x="348" d="M165 542h204l-3 -16h-241l161 143q29 26 41.5 37.5t30 38t17.5 49.5q0 32 -22.5 53t-61.5 21q-43 0 -73 -24.5t-34 -62.5h-17q4 43 41.5 73t85.5 30q45 0 71.5 -24.5t26.5 -63.5q0 -26 -16 -53t-30.5 -41.5t-43.5 -39.5z" />
<glyph unicode="&#xb3;" horiz-adv-x="350" d="M268 702l2 16q47 2 76.5 24.5t29.5 61.5q0 28 -22 46t-59 18q-39 0 -66.5 -19t-35.5 -50h-17q9 39 41.5 62t79.5 23q44 0 70 -22.5t26 -56.5q0 -73 -90 -95q31 -4 52 -24t21 -54q0 -47 -37 -79t-96 -32q-48 0 -80 25t-28 65h17q-1 -32 25 -53t67 -21q51 0 83 27.5 t32 66.5q0 33 -25 51t-66 20z" />
<glyph unicode="&#xb4;" horiz-adv-x="290" d="M290 634l11 -17l-143 -95l-7 9z" />
<glyph unicode="&#xb5;" horiz-adv-x="501" d="M477 400l-56 -400h-18l10 73q-92 -83 -184 -83q-97 0 -122 77l-45 -317h-18l92 650h18l-34 -243q-11 -72 18 -111t94 -39q91 0 184 89l43 304h18z" />
<glyph unicode="&#xb6;" horiz-adv-x="543" d="M251 -200l78 557q-72 -1 -114.5 38t-42.5 105q0 200 224 200h146l-3 -18h-71q-76 0 -86 -79l-113 -803h-18z" />
<glyph unicode="&#xb7;" horiz-adv-x="206" d="M119 307q0 12 10.5 21.5t22.5 9.5q10 0 16.5 -7t6.5 -18q0 -12 -10 -21.5t-22 -9.5q-10 0 -17 7t-7 18z" />
<glyph unicode="&#xb8;" horiz-adv-x="290" d="M154 -49l-89 -129l-11 6l81 131z" />
<glyph unicode="&#xb9;" horiz-adv-x="308" d="M237 526l47 337l-103 -53l-6 13l131 69l-52 -366h-17z" />
<glyph unicode="&#xba;" horiz-adv-x="378" d="M411 548q-8 -63 -57.5 -108.5t-109.5 -45.5q-61 0 -96 45.5t-27 108.5q9 63 57.5 108.5t109.5 45.5q60 0 96 -45.5t27 -108.5zM137 548q-8 -59 23.5 -99.5t86.5 -40.5q54 0 97 40.5t51 99.5t-23 99.5t-86 40.5t-98 -40.5t-51 -99.5z" />
<glyph unicode="&#xbb;" horiz-adv-x="391" d="M70 137l146 146l-105 145l13 13l114 -158l-159 -157zM224 137l146 146l-105 145l13 13l114 -158l-159 -157z" />
<glyph unicode="&#xbc;" horiz-adv-x="820" d="M720 697l-505 -703l-16 11l506 703zM232 347l47 337l-103 -53l-6 13l131 69l-52 -366h-17zM707 89h52l-2 -16h-52l-11 -73h-17l11 73h-204l263 300zM690 89l33 232l-206 -232h173z" />
<glyph unicode="&#xbd;" horiz-adv-x="820" d="M720 697l-505 -703l-16 11l506 703zM232 347l47 337l-103 -53l-6 13l131 69l-52 -366h-17zM547 16h204l-3 -16h-241l161 143q29 26 41.5 37.5t30 38t17.5 49.5q0 32 -22.5 53t-61.5 21q-43 0 -73 -24.5t-34 -62.5h-17q4 43 41.5 73t85.5 30q45 0 71.5 -24.5t26.5 -63.5 q0 -26 -16 -53t-30.5 -41.5t-43.5 -39.5z" />
<glyph unicode="&#xbe;" horiz-adv-x="820" d="M720 697l-505 -703l-17 11l506 703zM706 89h52l-2 -16h-52l-10 -73h-17l10 73h-204l263 300zM689 89l33 232l-206 -232h173zM233 523l2 16q47 2 76.5 24.5t29.5 61.5q0 28 -22 46t-59 18q-39 0 -66.5 -19t-35.5 -50h-17q9 39 41.5 62t79.5 23q44 0 70 -22.5t26 -56.5 q0 -73 -90 -95q31 -4 52 -24t21 -54q0 -47 -37 -79t-96 -32q-48 0 -80 25t-28 65h17q-1 -32 25 -53t67 -21q51 0 83 27.5t32 66.5q0 33 -25 51t-66 20z" />
<glyph unicode="&#xbf;" horiz-adv-x="511" d="M269 382h18l-19 -131q-39 -24 -59 -36.5t-56 -40.5t-54.5 -51.5t-34 -58t-15.5 -70.5q0 -68 44.5 -113.5t123.5 -45.5q84 0 147 52t73 130h18q-8 -82 -78 -140.5t-161 -58.5q-87 0 -136 50t-49 125q0 37 15 72t34 60t54.5 54t57 44t60.5 40zM323 512q0 -13 -10 -22.5 t-22 -9.5q-24 0 -24 25q0 13 9.5 22.5t22.5 9.5q10 0 17 -7t7 -18z" />
<glyph unicode="&#xc0;" horiz-adv-x="686" d="M443 710l213 -710h-19l-68 226h-388l-132 -226h-19zM190 243h374l-127 426zM395 856l15 16l111 -97l-9 -8z" />
<glyph unicode="&#xc1;" horiz-adv-x="686" d="M443 710l213 -710h-19l-68 226h-388l-132 -226h-19zM190 243h374l-127 426zM522 871l10 -16l-142 -89l-7 8z" />
<glyph unicode="&#xc2;" horiz-adv-x="686" d="M443 710l213 -710h-19l-68 226h-388l-132 -226h-19zM190 243h374l-127 426zM464 856l103 -80l-9 -9l-98 66l-116 -66l-7 9z" />
<glyph unicode="&#xc3;" horiz-adv-x="686" d="M443 710l213 -710h-19l-68 226h-388l-132 -226h-19zM190 243h374l-127 426zM334 785l-8 4q27 41 70 41q20 0 60.5 -17.5t60.5 -17.5q37 0 62 29l8 -5q-10 -17 -31.5 -29.5t-44.5 -12.5q-17 0 -59 18t-61 18q-36 0 -57 -28z" />
<glyph unicode="&#xc4;" horiz-adv-x="686" d="M443 710l213 -710h-19l-68 226h-388l-132 -226h-19zM190 243h374l-127 426zM354 790q0 9 7.5 16.5t17.5 7.5q8 0 13.5 -5.5t5.5 -13.5q0 -9 -8 -15.5t-17 -6.5q-8 0 -13.5 5t-5.5 12zM511 791q0 8 7.5 15.5t17.5 7.5q8 0 13.5 -5.5t5.5 -13.5q0 -9 -7.5 -15.5t-17.5 -6.5 q-8 0 -13.5 5t-5.5 13z" />
<glyph unicode="&#xc5;" horiz-adv-x="686" d="M443 710l213 -710h-19l-68 226h-388l-132 -226h-19zM190 243h374l-127 426zM386 823q0 31 25.5 54.5t58.5 23.5q28 0 46.5 -18t18.5 -44q0 -32 -25 -54.5t-59 -22.5q-28 0 -46.5 17.5t-18.5 43.5zM401 825q0 -21 14.5 -35t36.5 -14q27 0 47.5 18t20.5 43q0 21 -15 35.5 t-37 14.5q-27 0 -47 -18.5t-20 -43.5z" />
<glyph unicode="&#xc6;" horiz-adv-x="992" d="M1022 683h-394l-42 -295h365l-1 -17h-365l-50 -354h394l-3 -17h-412l32 226h-318l-195 -226h-23l602 700h413zM242 243h306l60 427z" />
<glyph unicode="&#xc7;" horiz-adv-x="807" d="M108 308q0 163 125 282.5t292 119.5q114 0 192 -57.5t106 -151.5h-19q-25 83 -97.5 137t-183.5 54q-160 0 -278 -112.5t-118 -270.5q0 -129 84 -215t215 -86q110 0 201.5 57t138.5 145h21q-51 -100 -149 -160t-215 -60q-138 0 -226.5 91.5t-88.5 226.5zM438 -49l-89 -129 l-11 6l81 131z" />
<glyph unicode="&#xc8;" horiz-adv-x="598" d="M628 683h-416l-42 -295h388l-1 -17h-388l-50 -354h416l-3 -17h-434l99 700h434zM381 856l15 16l112 -97l-10 -8z" />
<glyph unicode="&#xc9;" horiz-adv-x="598" d="M628 683h-416l-42 -295h388l-1 -17h-388l-50 -354h416l-3 -17h-434l99 700h434zM508 871l10 -16l-142 -89l-6 8z" />
<glyph unicode="&#xca;" horiz-adv-x="598" d="M628 683h-416l-42 -295h388l-1 -17h-388l-50 -354h416l-3 -17h-434l99 700h434zM450 856l104 -80l-10 -9l-97 66l-117 -66l-6 9z" />
<glyph unicode="&#xcb;" horiz-adv-x="598" d="M628 683h-416l-42 -295h388l-1 -17h-388l-50 -354h416l-3 -17h-434l99 700h434zM340 791q0 8 7.5 15.5t17.5 7.5q8 0 13.5 -5.5t5.5 -13.5q0 -9 -7.5 -15.5t-17.5 -6.5q-8 0 -13.5 5t-5.5 13zM497 791q0 8 7.5 15.5t17.5 7.5q8 0 13.5 -5.5t5.5 -13.5q0 -9 -7.5 -15.5 t-17.5 -6.5q-8 0 -13.5 5t-5.5 13z" />
<glyph unicode="&#xcc;" horiz-adv-x="238" d="M227 700l-99 -700h-18l99 700h18zM171 856l15 16l111 -97l-9 -8z" />
<glyph unicode="&#xcd;" horiz-adv-x="238" d="M226 700l-98 -700h-18l98 700h18zM297 871l11 -16l-143 -89l-6 8z" />
<glyph unicode="&#xce;" horiz-adv-x="238" d="M226 700l-98 -700h-18l98 700h18zM240 856l103 -80l-10 -9l-97 66l-117 -66l-6 9z" />
<glyph unicode="&#xcf;" horiz-adv-x="238" d="M227 700l-99 -700h-18l99 700h18zM130 790q0 9 7.5 16.5t17.5 7.5q8 0 13.5 -5.5t5.5 -13.5q0 -9 -8 -15.5t-18 -6.5q-7 0 -12.5 5t-5.5 12zM287 790q0 9 7.5 16.5t17.5 7.5q8 0 13.5 -5.5t5.5 -13.5q0 -9 -8 -15.5t-18 -6.5q-18 0 -18 17z" />
<glyph unicode="&#xd0;" horiz-adv-x="737" d="M100 0l42 300h-66l3 18h66l53 382h226q138 0 220 -85t82 -218q0 -168 -110 -282.5t-282 -114.5h-234zM336 17q165 1 268.5 110.5t103.5 268.5q0 125 -77 206t-208 81h-208l-52 -365h232l-3 -18h-232l-40 -283h216z" />
<glyph unicode="&#xd1;" horiz-adv-x="741" d="M742 700l-101 -721l-431 684l-94 -663h-18l101 715l431 -683l94 668h18zM362 785l-8 4q25 41 69 41q20 0 61 -17.5t61 -17.5q36 0 61 29l8 -5q-9 -17 -30.5 -29.5t-44.5 -12.5q-17 0 -59.5 18t-61.5 18q-37 0 -56 -28z" />
<glyph unicode="&#xd2;" horiz-adv-x="843" d="M108 308q0 107 58 200.5t153 147.5t202 54q135 0 224 -92t89 -226q0 -107 -58 -200t-153.5 -147t-202.5 -54q-135 0 -223.5 91.5t-88.5 225.5zM127 309q0 -128 83.5 -214t211.5 -86q157 0 275 112.5t118 269.5q0 129 -84 215t-212 86q-157 0 -274.5 -112.5t-117.5 -270.5 zM473 856l15 16l112 -97l-10 -8z" />
<glyph unicode="&#xd3;" horiz-adv-x="843" d="M108 308q0 107 58 200.5t153 147.5t202 54q135 0 224 -92t89 -226q0 -107 -58 -200t-153.5 -147t-202.5 -54q-135 0 -223.5 91.5t-88.5 225.5zM127 309q0 -128 83.5 -214t211.5 -86q157 0 275 112.5t118 269.5q0 129 -84 215t-212 86q-157 0 -274.5 -112.5t-117.5 -270.5 zM600 871l10 -16l-142 -89l-6 8z" />
<glyph unicode="&#xd4;" horiz-adv-x="843" d="M108 308q0 107 58 200.5t153 147.5t202 54q135 0 224 -92t89 -226q0 -107 -58 -200t-153.5 -147t-202.5 -54q-135 0 -223.5 91.5t-88.5 225.5zM127 309q0 -128 83.5 -214t211.5 -86q157 0 275 112.5t118 269.5q0 129 -84 215t-212 86q-157 0 -274.5 -112.5t-117.5 -270.5 zM542 856l104 -80l-10 -9l-97 66l-117 -66l-6 9z" />
<glyph unicode="&#xd5;" horiz-adv-x="843" d="M108 308q0 107 58 200.5t153 147.5t202 54q135 0 224 -92t89 -226q0 -107 -58 -200t-153.5 -147t-202.5 -54q-135 0 -223.5 91.5t-88.5 225.5zM127 309q0 -128 83.5 -214t211.5 -86q157 0 275 112.5t118 269.5q0 129 -84 215t-212 86q-157 0 -274.5 -112.5t-117.5 -270.5 zM412 785l-8 4q27 41 70 41q20 0 60.5 -17.5t60.5 -17.5q37 0 62 29l8 -5q-10 -17 -31.5 -29.5t-43.5 -12.5q-17 0 -59.5 18t-61.5 18q-36 0 -57 -28z" />
<glyph unicode="&#xd6;" horiz-adv-x="843" d="M108 308q0 107 58 200.5t153 147.5t202 54q135 0 224 -92t89 -226q0 -107 -58 -200t-153.5 -147t-202.5 -54q-135 0 -223.5 91.5t-88.5 225.5zM127 309q0 -128 83.5 -214t211.5 -86q157 0 275 112.5t118 269.5q0 129 -84 215t-212 86q-157 0 -274.5 -112.5t-117.5 -270.5 zM432 791q0 8 7.5 15.5t17.5 7.5q8 0 13.5 -5.5t5.5 -13.5q0 -9 -7.5 -15.5t-17.5 -6.5q-8 0 -13.5 5t-5.5 13zM589 791q0 8 7.5 15.5t17.5 7.5q8 0 13.5 -5.5t5.5 -13.5q0 -9 -7.5 -15.5t-17.5 -6.5q-8 0 -13.5 5t-5.5 13z" />
<glyph unicode="&#xd7;" d="M493 111l-15 -13l-150 174l-198 -174l-11 13l199 174l-150 174l15 13l150 -174l198 174l11 -13l-198 -174z" />
<glyph unicode="&#xd8;" horiz-adv-x="843" d="M808 803l-105 -147q60 -42 95.5 -112.5t35.5 -152.5q0 -106 -58 -199t-153.5 -147t-202.5 -54q-93 0 -165 43l-108 -150l-15 10l107 149q-61 41 -96 112t-35 153q0 107 58 200.5t153 147.5t202 54q94 0 167 -45l107 148zM127 308q0 -79 32.5 -145.5t90.5 -104.5l427 592 q-70 42 -158 42q-102 0 -192.5 -51t-145 -140t-54.5 -193zM815 391q0 78 -33 145t-90 105l-427 -592q69 -40 157 -40q157 0 275 112.5t118 269.5z" />
<glyph unicode="&#xd9;" horiz-adv-x="718" d="M360 8q123 0 196 75t90 199l59 418h18l-59 -418q-19 -132 -97.5 -212t-209.5 -80t-186.5 80t-36.5 212l59 418h18l-59 -418q-17 -124 34 -199t174 -75zM411 856l15 16l112 -97l-10 -8z" />
<glyph unicode="&#xda;" horiz-adv-x="718" d="M360 8q123 0 196 75t90 199l59 418h18l-59 -418q-19 -132 -97.5 -212t-209.5 -80t-186.5 80t-36.5 212l59 418h18l-59 -418q-17 -124 34 -199t174 -75zM538 871l10 -16l-142 -89l-6 8z" />
<glyph unicode="&#xdb;" horiz-adv-x="718" d="M360 8q123 0 196 75t90 199l59 418h18l-59 -418q-19 -132 -97.5 -212t-209.5 -80t-186.5 80t-36.5 212l59 418h18l-59 -418q-17 -124 34 -199t174 -75zM480 856l104 -80l-10 -9l-97 66l-117 -66l-6 9z" />
<glyph unicode="&#xdc;" horiz-adv-x="718" d="M360 8q123 0 196 75t90 199l59 418h18l-59 -418q-19 -132 -97.5 -212t-209.5 -80t-186.5 80t-36.5 212l59 418h18l-59 -418q-17 -124 34 -199t174 -75zM370 791q0 8 7.5 15.5t17.5 7.5q8 0 13.5 -5.5t5.5 -13.5q0 -9 -7.5 -15.5t-17.5 -6.5q-8 0 -13.5 5t-5.5 13z M527 791q0 8 7.5 15.5t17.5 7.5q8 0 13.5 -5.5t5.5 -13.5q0 -9 -7.5 -15.5t-17.5 -6.5q-8 0 -13.5 5t-5.5 13z" />
<glyph unicode="&#xdd;" horiz-adv-x="560" d="M325 321h2l290 379h20l-305 -396l-43 -304h-18l43 304l-193 396h20zM459 871l11 -16l-143 -89l-6 8z" />
<glyph unicode="&#xde;" horiz-adv-x="554" d="M142 185l-26 -185h-18l99 700h18l-20 -140h155q92 0 147.5 -39t55.5 -122q0 -110 -70.5 -162t-183.5 -52h-157zM145 202h157q103 0 168 45.5t65 149.5q0 76 -51 111t-136 35h-155z" />
<glyph unicode="&#xdf;" horiz-adv-x="498" d="M327 641q-136 0 -159 -162l-68 -479h-18l68 479q12 82 56.5 130t122.5 48q51 0 86 -30.5t35 -80.5q0 -52 -34.5 -90t-83.5 -43q69 -12 110.5 -63t41.5 -120q0 -98 -66.5 -158.5t-166.5 -75.5l3 16q92 16 152 73t60 144q0 66 -40.5 115.5t-110.5 59.5l3 19q55 6 84.5 39 t29.5 82q0 43 -30 70t-75 27z" />
<glyph unicode="&#xe0;" horiz-adv-x="458" d="M136 321h-18q20 42 65 66t101 24q72 0 107 -38t26 -104l-37 -269h-16l11 88q-55 -93 -184 -93q-58 0 -93 28.5t-35 77.5q0 142 210 142h124l4 26q9 60 -23 92.5t-97 32.5q-102 0 -145 -73zM194 12q57 0 106 24.5t72 73.5q8 17 13 50l10 66h-124q-101 0 -145.5 -29.5 t-44.5 -93.5q0 -43 30.5 -67t82.5 -24zM247 617l15 17l111 -103l-9 -9z" />
<glyph unicode="&#xe1;" horiz-adv-x="458" d="M136 321h-18q20 42 65 66t101 24q72 0 107 -38t26 -104l-37 -269h-16l11 88q-55 -93 -184 -93q-58 0 -93 28.5t-35 77.5q0 142 210 142h124l4 26q9 60 -23 92.5t-97 32.5q-102 0 -145 -73zM194 12q57 0 106 24.5t72 73.5q8 17 13 50l10 66h-124q-101 0 -145.5 -29.5 t-44.5 -93.5q0 -43 30.5 -67t82.5 -24zM374 634l11 -17l-143 -95l-7 9z" />
<glyph unicode="&#xe2;" horiz-adv-x="458" d="M136 321h-18q20 42 65 66t101 24q72 0 107 -38t26 -104l-37 -269h-16l11 88q-55 -93 -184 -93q-58 0 -93 28.5t-35 77.5q0 142 210 142h124l4 26q9 60 -23 92.5t-97 32.5q-102 0 -145 -73zM194 12q57 0 106 24.5t72 73.5q8 17 13 50l10 66h-124q-101 0 -145.5 -29.5 t-44.5 -93.5q0 -43 30.5 -67t82.5 -24zM316 618l103 -85l-9 -10l-97 71l-117 -71l-7 10z" />
<glyph unicode="&#xe3;" horiz-adv-x="458" d="M136 321h-18q20 42 65 66t101 24q72 0 107 -38t26 -104l-37 -269h-16l11 88q-55 -93 -184 -93q-58 0 -93 28.5t-35 77.5q0 142 210 142h124l4 26q9 60 -23 92.5t-97 32.5q-102 0 -145 -73zM194 12q57 0 106 24.5t72 73.5q8 17 13 50l10 66h-124q-101 0 -145.5 -29.5 t-44.5 -93.5q0 -43 30.5 -67t82.5 -24zM187 541l-9 5q11 19 30.5 31t39.5 12t60 -18.5t60 -18.5q38 0 62 31l8 -5q-9 -18 -30.5 -31.5t-44.5 -13.5q-17 0 -59.5 19t-61.5 19q-37 0 -55 -30z" />
<glyph unicode="&#xe4;" horiz-adv-x="458" d="M136 321h-18q20 42 65 66t101 24q72 0 107 -38t26 -104l-37 -269h-16l11 88q-55 -93 -184 -93q-58 0 -93 28.5t-35 77.5q0 142 210 142h124l4 26q9 60 -23 92.5t-97 32.5q-102 0 -145 -73zM194 12q57 0 106 24.5t72 73.5q8 17 13 50l10 66h-124q-101 0 -145.5 -29.5 t-44.5 -93.5q0 -43 30.5 -67t82.5 -24zM205 545q0 10 7.5 17.5t17.5 7.5q8 0 13.5 -5.5t5.5 -13.5q0 -10 -7.5 -17t-17.5 -7q-8 0 -13.5 5t-5.5 13zM362 545q0 10 7.5 17.5t17.5 7.5q8 0 13.5 -5.5t5.5 -13.5q0 -10 -7.5 -17t-17.5 -7q-8 0 -13.5 5.5t-5.5 12.5z" />
<glyph unicode="&#xe5;" horiz-adv-x="458" d="M136 321h-18q20 42 65 66t101 24q72 0 107 -38t26 -104l-37 -269h-16l11 88q-55 -93 -184 -93q-58 0 -93 28.5t-35 77.5q0 142 210 142h124l4 26q9 60 -23 92.5t-97 32.5q-102 0 -145 -73zM194 12q57 0 106 24.5t72 73.5q8 17 13 50l10 66h-124q-101 0 -145.5 -29.5 t-44.5 -93.5q0 -43 30.5 -67t82.5 -24zM236 574q0 34 25.5 58.5t59.5 24.5q28 0 46 -19t18 -47q0 -33 -25.5 -57t-59.5 -24q-28 0 -46 18.5t-18 45.5zM252 576q0 -23 14 -37.5t36 -14.5q27 0 47.5 19.5t20.5 46.5q0 23 -14.5 38t-36.5 15q-27 0 -47 -20t-20 -47z" />
<glyph unicode="&#xe6;" horiz-adv-x="814" d="M793 205h-383q-10 -87 36.5 -142t127.5 -55q51 0 100.5 27.5t70.5 70.5h20q-24 -51 -79.5 -83t-113.5 -32q-68 0 -115 36.5t-61 96.5q-25 -64 -81 -96.5t-124 -32.5q-58 0 -93.5 27.5t-35.5 72.5q0 68 49 98t159 30h125l6 46q8 60 -23 92.5t-96 32.5q-104 0 -146 -73h-18 q20 42 65 66t101 24q67 0 103.5 -34t31.5 -93q32 57 87.5 91.5t118.5 34.5q85 0 132.5 -57.5t36.5 -139.5zM622 393q-75 0 -135.5 -50.5t-74.5 -119.5h365q6 73 -37 121.5t-118 48.5zM194 12q57 0 106.5 24.5t72.5 73.5q6 13 12 50l7 46h-124q-102 0 -145 -24t-43 -84 q0 -40 31 -63t83 -23z" />
<glyph unicode="&#xe7;" horiz-adv-x="481" d="M476 297h-19q-10 42 -51.5 69t-90.5 27q-91 0 -156.5 -64t-65.5 -153q0 -73 46 -120.5t121 -47.5q51 0 100.5 27.5t70.5 70.5h20q-24 -51 -79.5 -83t-113.5 -32q-81 0 -132 52.5t-51 131.5q0 96 72 165.5t170 69.5q57 0 103 -32t56 -81zM274 -49l-89 -129l-11 6l80 131z " />
<glyph unicode="&#xe8;" horiz-adv-x="501" d="M477 192h-383q-8 -79 39 -131.5t127 -52.5q51 0 100.5 27.5t70.5 70.5h20q-24 -51 -79.5 -83t-113.5 -32q-81 0 -132 52.5t-51 131.5q0 95 71 165t165 70q85 0 132 -61t35 -149zM309 393q-76 0 -137 -52.5t-75 -130.5h365q7 79 -35.5 131t-117.5 52zM267 617l15 17 l111 -103l-10 -9z" />
<glyph unicode="&#xe9;" horiz-adv-x="501" d="M477 192h-383q-8 -79 39 -131.5t127 -52.5q51 0 100.5 27.5t70.5 70.5h20q-24 -51 -79.5 -83t-113.5 -32q-81 0 -132 52.5t-51 131.5q0 95 71 165t165 70q85 0 132 -61t35 -149zM309 393q-76 0 -137 -52.5t-75 -130.5h365q7 79 -35.5 131t-117.5 52zM394 634l11 -17 l-144 -95l-6 9z" />
<glyph unicode="&#xea;" horiz-adv-x="501" d="M477 192h-383q-8 -79 39 -131.5t127 -52.5q51 0 100.5 27.5t70.5 70.5h20q-24 -51 -79.5 -83t-113.5 -32q-81 0 -132 52.5t-51 131.5q0 95 71 165t165 70q85 0 132 -61t35 -149zM309 393q-76 0 -137 -52.5t-75 -130.5h365q7 79 -35.5 131t-117.5 52zM336 618l103 -85 l-10 -10l-96 71l-118 -71l-6 10z" />
<glyph unicode="&#xeb;" horiz-adv-x="501" d="M477 192h-383q-8 -79 39 -131.5t127 -52.5q51 0 100.5 27.5t70.5 70.5h20q-24 -51 -79.5 -83t-113.5 -32q-81 0 -132 52.5t-51 131.5q0 95 71 165t165 70q85 0 132 -61t35 -149zM309 393q-76 0 -137 -52.5t-75 -130.5h365q7 79 -35.5 131t-117.5 52zM226 545 q0 10 7.5 17.5t17.5 7.5q8 0 13.5 -5.5t5.5 -13.5q0 -10 -8 -17t-18 -7q-18 0 -18 18zM383 545q0 10 7.5 17.5t17.5 7.5q8 0 13.5 -5.5t5.5 -13.5q0 -10 -8 -17t-18 -7q-18 0 -18 18z" />
<glyph unicode="&#xec;" horiz-adv-x="198" d="M90 0l56 400h18l-56 -400h-18zM117 617l15 17l111 -103l-9 -9z" />
<glyph unicode="&#xed;" horiz-adv-x="198" d="M90 0l56 400h18l-56 -400h-18zM244 634l11 -17l-143 -95l-7 9z" />
<glyph unicode="&#xee;" horiz-adv-x="198" d="M90 0l56 400h18l-56 -400h-18zM186 618l103 -85l-10 -10l-96 71l-118 -71l-6 10z" />
<glyph unicode="&#xef;" horiz-adv-x="198" d="M90 0l56 400h18l-56 -400h-18zM76 545q0 10 7 17.5t17 7.5q8 0 13.5 -5.5t5.5 -13.5q0 -10 -7.5 -17t-18.5 -7q-17 0 -17 18zM233 545q0 10 7 17.5t17 7.5q8 0 13.5 -5.5t5.5 -13.5q0 -10 -7.5 -17t-18.5 -7q-17 0 -17 18z" />
<glyph unicode="&#xf0;" horiz-adv-x="535" d="M311 495l-6 16l93 50q-60 56 -133 85l10 13q77 -31 139 -90l87 48l6 -16l-81 -44q92 -98 92 -245q0 -135 -69.5 -228t-191.5 -93q-77 0 -129 54.5t-52 134.5q0 100 72.5 165.5t166.5 65.5q69 0 117.5 -33.5t71.5 -76.5q1 145 -94 247zM94 180q0 -73 46.5 -122.5 t117.5 -49.5q100 0 162 74t81 195q-25 47 -72.5 82t-115.5 35q-86 0 -152.5 -60.5t-66.5 -153.5z" />
<glyph unicode="&#xf1;" horiz-adv-x="507" d="M80 0l56 400h18l-10 -73q92 83 189 83q73 0 107 -46.5t23 -125.5l-34 -238h-18l34 238q10 73 -19.5 114t-95.5 41q-96 0 -189 -89l-43 -304h-18zM211 541l-10 5q27 43 71 43q20 0 60 -18.5t60 -18.5q38 0 62 31l9 -5q-10 -19 -31.5 -32t-44.5 -13q-17 0 -59.5 19 t-61.5 19q-37 0 -55 -30z" />
<glyph unicode="&#xf2;" horiz-adv-x="508" d="M311 410q78 0 127.5 -53t49.5 -131q0 -96 -70.5 -165.5t-165.5 -69.5q-78 0 -127.5 53t-49.5 131q0 95 71 165t165 70zM254 8q87 0 151 63.5t64 152.5q0 72 -45 120.5t-115 48.5q-87 0 -151.5 -64t-64.5 -153q0 -73 45 -120.5t116 -47.5zM271 617l15 17l111 -103l-10 -9z " />
<glyph unicode="&#xf3;" horiz-adv-x="508" d="M311 410q78 0 127.5 -53t49.5 -131q0 -96 -70.5 -165.5t-165.5 -69.5q-78 0 -127.5 53t-49.5 131q0 95 71 165t165 70zM254 8q87 0 151 63.5t64 152.5q0 72 -45 120.5t-115 48.5q-87 0 -151.5 -64t-64.5 -153q0 -73 45 -120.5t116 -47.5zM398 634l11 -17l-144 -95l-6 9z " />
<glyph unicode="&#xf4;" horiz-adv-x="508" d="M311 410q78 0 127.5 -53t49.5 -131q0 -96 -70.5 -165.5t-165.5 -69.5q-78 0 -127.5 53t-49.5 131q0 95 71 165t165 70zM254 8q87 0 151 63.5t64 152.5q0 72 -45 120.5t-115 48.5q-87 0 -151.5 -64t-64.5 -153q0 -73 45 -120.5t116 -47.5zM341 618l102 -85l-10 -10l-96 71 l-118 -71l-6 10z" />
<glyph unicode="&#xf5;" horiz-adv-x="508" d="M311 410q78 0 127.5 -53t49.5 -131q0 -96 -70.5 -165.5t-165.5 -69.5q-78 0 -127.5 53t-49.5 131q0 95 71 165t165 70zM254 8q87 0 151 63.5t64 152.5q0 72 -45 120.5t-115 48.5q-87 0 -151.5 -64t-64.5 -153q0 -73 45 -120.5t116 -47.5zM210 541l-8 5q27 43 70 43 q20 0 60.5 -18.5t60.5 -18.5q37 0 61 31l8 -5q-9 -18 -30.5 -31.5t-44.5 -13.5q-17 0 -59 19t-61 19q-36 0 -57 -30z" />
<glyph unicode="&#xf6;" horiz-adv-x="508" d="M311 410q78 0 127.5 -53t49.5 -131q0 -96 -70.5 -165.5t-165.5 -69.5q-78 0 -127.5 53t-49.5 131q0 95 71 165t165 70zM254 8q87 0 151 63.5t64 152.5q0 72 -45 120.5t-115 48.5q-87 0 -151.5 -64t-64.5 -153q0 -73 45 -120.5t116 -47.5zM230 545q0 10 7.5 17.5t17.5 7.5 q8 0 13.5 -5.5t5.5 -13.5q0 -10 -8 -17t-18 -7q-18 0 -18 18zM387 545q0 10 7.5 17.5t17.5 7.5q8 0 13.5 -5.5t5.5 -13.5q0 -10 -8 -17t-18 -7q-18 0 -18 18z" />
<glyph unicode="&#xf7;" d="M547 294l-3 -18h-430l3 18h430zM280 122q0 12 10 21.5t22 9.5q24 0 24 -25q0 -12 -10 -21.5t-22 -9.5q-10 0 -17 7t-7 18zM324 442q0 12 10.5 21.5t22.5 9.5q10 0 17 -7t7 -18q0 -12 -10 -21.5t-22 -9.5q-11 0 -18 7.5t-7 17.5z" />
<glyph unicode="&#xf8;" horiz-adv-x="508" d="M311 410q52 0 96 -26l77 107l13 -10l-77 -107q68 -51 68 -148q0 -96 -70.5 -165.5t-164.5 -69.5q-51 0 -93 22l-81 -113l-14 10l81 113q-71 52 -71 151q0 96 71 166t165 70zM94 176q0 -92 63 -138l238 331q-37 24 -86 24q-87 0 -151 -64t-64 -153zM254 8q87 0 151.5 63.5 t64.5 152.5t-60 136l-239 -332q37 -20 83 -20z" />
<glyph unicode="&#xf9;" horiz-adv-x="499" d="M475 400l-56 -400h-18l10 73q-92 -83 -184 -83q-72 0 -105 44t-22 123l34 243h18l-34 -243q-11 -72 18 -111t94 -39q91 0 184 89l43 304h18zM266 617l16 17l111 -103l-10 -9z" />
<glyph unicode="&#xfa;" horiz-adv-x="499" d="M475 400l-56 -400h-18l10 73q-92 -83 -184 -83q-72 0 -105 44t-22 123l34 243h18l-34 -243q-11 -72 18 -111t94 -39q91 0 184 89l43 304h18zM394 634l10 -17l-143 -95l-6 9z" />
<glyph unicode="&#xfb;" horiz-adv-x="499" d="M475 400l-56 -400h-18l10 73q-92 -83 -184 -83q-72 0 -105 44t-22 123l34 243h18l-34 -243q-11 -72 18 -111t94 -39q91 0 184 89l43 304h18zM336 618l103 -85l-9 -10l-97 71l-117 -71l-7 10z" />
<glyph unicode="&#xfc;" horiz-adv-x="499" d="M475 400l-56 -400h-18l10 73q-92 -83 -184 -83q-72 0 -105 44t-22 123l34 243h18l-34 -243q-11 -72 18 -111t94 -39q91 0 184 89l43 304h18zM225 545q0 10 7.5 17.5t17.5 7.5q8 0 13.5 -5.5t5.5 -13.5q0 -10 -7.5 -17t-17.5 -7q-8 0 -13.5 5t-5.5 13zM382 545 q0 10 7.5 17.5t17.5 7.5q8 0 13.5 -5.5t5.5 -13.5q0 -10 -7.5 -17t-17.5 -7q-8 0 -13.5 5t-5.5 13z" />
<glyph unicode="&#xfd;" horiz-adv-x="428" d="M78 400h19l118 -383l228 383h19l-388 -650h-19l150 250zM359 634l10 -17l-143 -95l-6 9z" />
<glyph unicode="&#xfe;" horiz-adv-x="538" d="M344 410q77 0 125.5 -53t48.5 -131q0 -96 -70 -165.5t-164 -69.5q-63 0 -108.5 33.5t-61.5 89.5l-52 -364h-18l129 918h18l-53 -382q31 56 87 90t119 34zM287 8q86 0 149 64t63 153q0 72 -44 120t-114 48q-77 0 -139.5 -54t-76.5 -135q-12 -83 35.5 -139.5t126.5 -56.5z " />
<glyph unicode="&#xff;" horiz-adv-x="428" d="M78 400h19l118 -383l228 383h19l-388 -650h-19l150 250zM190 545q0 10 7.5 17.5t17.5 7.5q8 0 13.5 -5.5t5.5 -13.5q0 -10 -7.5 -17t-17.5 -7q-8 0 -13.5 5t-5.5 13zM347 545q0 10 7.5 17.5t17.5 7.5q8 0 13.5 -5.5t5.5 -13.5q0 -10 -7.5 -17t-17.5 -7q-8 0 -13.5 5 t-5.5 13z" />
<glyph unicode="&#x100;" horiz-adv-x="686" d="M443 710l213 -710h-19l-68 226h-388l-132 -226h-19zM190 243h374l-127 426zM330 781l2 14h246l-2 -14h-246z" />
<glyph unicode="&#x101;" horiz-adv-x="458" d="M136 321h-18q20 42 65 66t101 24q72 0 107 -38t26 -104l-37 -269h-16l11 88q-55 -93 -184 -93q-58 0 -93 28.5t-35 77.5q0 142 210 142h124l4 26q9 60 -23 92.5t-97 32.5q-102 0 -145 -73zM194 12q57 0 106 24.5t72 73.5q8 17 13 50l10 66h-124q-101 0 -145.5 -29.5 t-44.5 -93.5q0 -43 30.5 -67t82.5 -24zM182 538l2 15h246l-2 -15h-246z" />
<glyph unicode="&#x102;" horiz-adv-x="686" d="M443 710l213 -710h-19l-68 226h-388l-132 -226h-19zM190 243h374l-127 426zM455 793q31 0 62.5 18t46.5 46h17q-14 -32 -52.5 -55.5t-76.5 -23.5t-69 23.5t-36 55.5h17q7 -28 33.5 -46t57.5 -18z" />
<glyph unicode="&#x103;" horiz-adv-x="458" d="M136 321h-18q20 42 65 66t101 24q72 0 107 -38t26 -104l-37 -269h-16l11 88q-55 -93 -184 -93q-58 0 -93 28.5t-35 77.5q0 142 210 142h124l4 26q9 60 -23 92.5t-97 32.5q-102 0 -145 -73zM194 12q57 0 106 24.5t72 73.5q8 17 13 50l10 66h-124q-101 0 -145.5 -29.5 t-44.5 -93.5q0 -43 30.5 -67t82.5 -24zM306 552q31 0 63 19.5t47 48.5h17q-14 -34 -52 -59t-76 -25t-69.5 25t-36.5 59h17q7 -30 33 -49t57 -19z" />
<glyph unicode="&#x104;" horiz-adv-x="686" d="M443 710l213 -710h-5q-80 -56 -80 -111q0 -26 16.5 -40t45.5 -14q27 0 53 6l-2 -14q-30 -7 -54 -7q-34 0 -53.5 17.5t-19.5 48.5q0 67 80 114l-68 226h-388l-132 -226h-19zM190 243h374l-127 426z" />
<glyph unicode="&#x105;" horiz-adv-x="458" d="M136 321h-18q20 42 65 66t101 24q72 0 107 -38t26 -104l-37 -269h-2q-80 -56 -80 -111q0 -26 16.5 -40t45.5 -14q28 0 53 6l-2 -14q-30 -7 -54 -7q-34 0 -53.5 17.5t-19.5 48.5q0 67 80 114l11 88q-55 -93 -184 -93q-58 0 -93 28.5t-35 77.5q0 142 210 142h124l4 26 q9 60 -23 92.5t-97 32.5q-102 0 -145 -73zM194 12q57 0 106 24.5t72 73.5q8 17 13 50l10 66h-124q-101 0 -145.5 -29.5t-44.5 -93.5q0 -43 30.5 -67t82.5 -24z" />
<glyph unicode="&#x106;" horiz-adv-x="807" d="M108 308q0 163 125 282.5t292 119.5q114 0 192 -57.5t106 -151.5h-19q-25 83 -97.5 137t-183.5 54q-160 0 -278 -112.5t-118 -270.5q0 -129 84 -215t215 -86q110 0 201.5 57t138.5 145h21q-51 -100 -149 -160t-215 -60q-138 0 -226.5 91.5t-88.5 226.5zM602 871l10 -16 l-142 -89l-6 8z" />
<glyph unicode="&#x107;" horiz-adv-x="481" d="M476 297h-19q-10 42 -51.5 69t-90.5 27q-91 0 -156.5 -64t-65.5 -153q0 -73 46 -120.5t121 -47.5q51 0 100.5 27.5t70.5 70.5h20q-24 -51 -79.5 -83t-113.5 -32q-81 0 -132 52.5t-51 131.5q0 96 72 165.5t170 69.5q57 0 103 -32t56 -81zM404 634l11 -17l-144 -95l-6 9z " />
<glyph unicode="&#x108;" horiz-adv-x="807" d="M108 308q0 163 125 282.5t292 119.5q114 0 192 -57.5t106 -151.5h-19q-25 83 -97.5 137t-183.5 54q-160 0 -278 -112.5t-118 -270.5q0 -129 84 -215t215 -86q110 0 201.5 57t138.5 145h21q-51 -100 -149 -160t-215 -60q-138 0 -226.5 91.5t-88.5 226.5zM544 856l104 -80 l-10 -9l-97 66l-117 -66l-6 9z" />
<glyph unicode="&#x109;" horiz-adv-x="481" d="M476 297h-19q-10 42 -51.5 69t-90.5 27q-91 0 -156.5 -64t-65.5 -153q0 -73 46 -120.5t121 -47.5q51 0 100.5 27.5t70.5 70.5h20q-24 -51 -79.5 -83t-113.5 -32q-81 0 -132 52.5t-51 131.5q0 96 72 165.5t170 69.5q57 0 103 -32t56 -81zM347 618l102 -85l-10 -10l-96 71 l-118 -71l-6 10z" />
<glyph unicode="&#x10a;" horiz-adv-x="807" d="M108 308q0 163 125 282.5t292 119.5q114 0 192 -57.5t106 -151.5h-19q-25 83 -97.5 137t-183.5 54q-160 0 -278 -112.5t-118 -270.5q0 -129 84 -215t215 -86q110 0 201.5 57t138.5 145h21q-51 -100 -149 -160t-215 -60q-138 0 -226.5 91.5t-88.5 226.5zM513 791 q0 8 7.5 15.5t17.5 7.5q8 0 13.5 -5.5t5.5 -13.5q0 -9 -7.5 -15.5t-17.5 -6.5q-8 0 -13.5 5t-5.5 13z" />
<glyph unicode="&#x10b;" horiz-adv-x="481" d="M476 297h-19q-10 42 -51.5 69t-90.5 27q-91 0 -156.5 -64t-65.5 -153q0 -73 46 -120.5t121 -47.5q51 0 100.5 27.5t70.5 70.5h20q-24 -51 -79.5 -83t-113.5 -32q-81 0 -132 52.5t-51 131.5q0 96 72 165.5t170 69.5q57 0 103 -32t56 -81zM315 545q0 10 7.5 17.5t17.5 7.5 q8 0 13.5 -5.5t5.5 -13.5q0 -10 -8 -17t-18 -7q-18 0 -18 18z" />
<glyph unicode="&#x10c;" horiz-adv-x="807" d="M108 308q0 163 125 282.5t292 119.5q114 0 192 -57.5t106 -151.5h-19q-25 83 -97.5 137t-183.5 54q-160 0 -278 -112.5t-118 -270.5q0 -129 84 -215t215 -86q110 0 201.5 57t138.5 145h21q-51 -100 -149 -160t-215 -60q-138 0 -226.5 91.5t-88.5 226.5zM657 845l-126 -80 l-104 80l9 9l98 -67l116 67z" />
<glyph unicode="&#x10d;" horiz-adv-x="481" d="M476 297h-19q-10 42 -51.5 69t-90.5 27q-91 0 -156.5 -64t-65.5 -153q0 -73 46 -120.5t121 -47.5q51 0 100.5 27.5t70.5 70.5h20q-24 -51 -79.5 -83t-113.5 -32q-81 0 -132 52.5t-51 131.5q0 96 72 165.5t170 69.5q57 0 103 -32t56 -81zM459 604l-127 -85l-103 85l10 10 l97 -71l117 71z" />
<glyph unicode="&#x10e;" horiz-adv-x="737" d="M100 0l99 700h226q138 0 220 -85t82 -218q0 -168 -110.5 -282.5t-282.5 -114.5h-234zM337 17q163 1 267.5 111t104.5 268q0 126 -77 206.5t-210 80.5h-208l-93 -666h216zM592 845l-126 -80l-104 80l9 9l98 -67l116 67z" />
<glyph unicode="&#x10f;" horiz-adv-x="632" d="M309 410q63 0 108.5 -34t62.5 -90l51 367h18l-91 -653h-18l16 114q-33 -56 -88 -89.5t-118 -33.5q-77 0 -126 52.5t-49 130.5q0 96 70 166t164 70zM252 8q79 0 142 56.5t75 139.5q8 81 -38.5 135t-123.5 54q-87 0 -150.5 -64t-63.5 -153q0 -72 44.5 -120t114.5 -48z M710 703l19 -8l-105 -185l-10 4z" />
<glyph unicode="&#x110;" horiz-adv-x="737" d="M100 0l42 300h-66l3 18h66l53 382h226q138 0 220 -85t82 -218q0 -168 -110 -282.5t-282 -114.5h-234zM336 17q165 1 268.5 110.5t103.5 268.5q0 125 -77 206t-208 81h-208l-52 -365h232l-3 -18h-232l-40 -283h216z" />
<glyph unicode="&#x111;" horiz-adv-x="540" d="M370 538l2 15h145l14 100h18l-14 -100h83l-2 -15h-83l-75 -538h-18l16 114q-33 -56 -88 -89.5t-118 -33.5q-77 0 -126 52.5t-49 130.5q0 96 70 166t164 70q63 0 108.5 -34t62.5 -90l35 252h-145zM252 8q79 0 142 56.5t75 139.5q8 81 -38.5 135t-123.5 54 q-87 0 -150.5 -64t-63.5 -153q0 -72 44.5 -120t114.5 -48z" />
<glyph unicode="&#x112;" horiz-adv-x="598" d="M628 683h-416l-42 -295h388l-1 -17h-388l-50 -354h416l-3 -17h-434l99 700h434zM317 781l1 14h246l-1 -14h-246z" />
<glyph unicode="&#x113;" horiz-adv-x="501" d="M477 192h-383q-8 -79 39 -131.5t127 -52.5q51 0 100.5 27.5t70.5 70.5h20q-24 -51 -79.5 -83t-113.5 -32q-81 0 -132 52.5t-51 131.5q0 95 71 165t165 70q85 0 132 -61t35 -149zM309 393q-76 0 -137 -52.5t-75 -130.5h365q7 79 -35.5 131t-117.5 52zM202 538l2 15h246 l-2 -15h-246z" />
<glyph unicode="&#x114;" horiz-adv-x="598" d="M628 683h-416l-42 -295h388l-1 -17h-388l-50 -354h416l-3 -17h-434l99 700h434zM441 793q31 0 62.5 18t46.5 46h17q-14 -32 -52 -55.5t-76 -23.5t-69.5 23.5t-36.5 55.5h17q7 -28 33.5 -46t57.5 -18z" />
<glyph unicode="&#x115;" horiz-adv-x="501" d="M477 192h-383q-8 -79 39 -131.5t127 -52.5q51 0 100.5 27.5t70.5 70.5h20q-24 -51 -79.5 -83t-113.5 -32q-81 0 -132 52.5t-51 131.5q0 95 71 165t165 70q85 0 132 -61t35 -149zM309 393q-76 0 -137 -52.5t-75 -130.5h365q7 79 -35.5 131t-117.5 52zM327 552q30 0 62 19 t48 49h17q-15 -34 -53.5 -59t-76.5 -25t-68.5 25t-35.5 59h17q6 -29 32.5 -48.5t57.5 -19.5z" />
<glyph unicode="&#x116;" horiz-adv-x="598" d="M628 683h-416l-42 -295h388l-1 -17h-388l-50 -354h416l-3 -17h-434l99 700h434zM419 791q0 8 7.5 15.5t17.5 7.5q8 0 13.5 -5.5t5.5 -13.5q0 -9 -7.5 -15.5t-17.5 -6.5q-8 0 -13.5 5t-5.5 13z" />
<glyph unicode="&#x117;" horiz-adv-x="501" d="M477 192h-383q-8 -79 39 -131.5t127 -52.5q51 0 100.5 27.5t70.5 70.5h20q-24 -51 -79.5 -83t-113.5 -32q-81 0 -132 52.5t-51 131.5q0 95 71 165t165 70q85 0 132 -61t35 -149zM309 393q-76 0 -137 -52.5t-75 -130.5h365q7 79 -35.5 131t-117.5 52zM305 545 q0 10 7.5 17.5t17.5 7.5q8 0 13.5 -5.5t5.5 -13.5q0 -10 -8 -17t-18 -7q-18 0 -18 18z" />
<glyph unicode="&#x118;" horiz-adv-x="598" d="M628 683h-416l-42 -295h388l-1 -17h-388l-50 -354h416l-3 -17h-37q-80 -56 -80 -111q0 -26 17 -40t45 -14q27 0 53 6l-2 -14q-30 -7 -54 -7q-34 0 -53.5 17.5t-19.5 48.5q0 64 79 114h-382l99 700h434z" />
<glyph unicode="&#x119;" horiz-adv-x="501" d="M477 192h-383q-8 -79 39 -131.5t127 -52.5q51 0 100.5 27.5t70.5 70.5h20q-23 -48 -73.5 -79t-105.5 -35q-69 -53 -69 -103q0 -26 16.5 -40t44.5 -14q29 0 53 6l-1 -14q-28 -7 -53 -7q-34 0 -54.5 17.5t-20.5 49.5q0 56 67 104q-80 1 -130 53.5t-50 130.5q0 95 71 165 t165 70q85 0 132 -61t35 -149zM309 393q-76 0 -137 -52.5t-75 -130.5h365q7 79 -35.5 131t-117.5 52z" />
<glyph unicode="&#x11a;" horiz-adv-x="598" d="M628 683h-416l-42 -295h388l-1 -17h-388l-50 -354h416l-3 -17h-434l99 700h434zM563 845l-126 -80l-104 80l9 9l98 -67l116 67z" />
<glyph unicode="&#x11b;" horiz-adv-x="501" d="M477 192h-383q-8 -79 39 -131.5t127 -52.5q51 0 100.5 27.5t70.5 70.5h20q-24 -51 -79.5 -83t-113.5 -32q-81 0 -132 52.5t-51 131.5q0 95 71 165t165 70q85 0 132 -61t35 -149zM309 393q-76 0 -137 -52.5t-75 -130.5h365q7 79 -35.5 131t-117.5 52zM449 604l-127 -85 l-103 85l10 10l97 -71l117 71z" />
<glyph unicode="&#x11c;" horiz-adv-x="839" d="M805 335h-313l3 17h332q-23 -163 -137 -262.5t-272 -99.5q-135 0 -222.5 92t-87.5 226q0 107 57.5 200t153.5 147.5t205 54.5q114 0 191 -57.5t106 -151.5h-20q-24 83 -96 137t-183 54q-160 0 -277.5 -113.5t-117.5 -269.5q0 -127 83 -214t211 -87q144 0 254.5 92.5 t129.5 234.5zM540 856l104 -80l-9 -9l-98 66l-116 -66l-7 9z" />
<glyph unicode="&#x11d;" horiz-adv-x="461" d="M102 220q0 76 58 132t134 56h185l-2 -15h-123q38 -15 61.5 -52t23.5 -82q0 -74 -58.5 -129.5t-133.5 -55.5q-72 0 -112 50q-76 -29 -76 -80q0 -56 95 -56h99q163 0 163 -121q0 -80 -57 -127.5t-162 -47.5q-88 0 -133 37.5t-45 96.5q0 54 32 92.5t75 55.5q-36 1 -60.5 18 t-24.5 50t25.5 58t58.5 37q-23 34 -23 83zM250 -29h-99q-50 -18 -82 -54.5t-32 -87.5q0 -53 40.5 -86.5t121.5 -33.5q99 0 149 42t50 115q0 53 -34.5 79t-113.5 26zM120 224q0 -56 36.5 -95t92.5 -39q67 0 119.5 50.5t52.5 117.5q0 56 -37 95t-93 39q-66 0 -118.5 -51 t-52.5 -117zM327 618l104 -85l-10 -10l-97 71l-117 -71l-6 10z" />
<glyph unicode="&#x11e;" horiz-adv-x="839" d="M805 335h-313l3 17h332q-23 -163 -137 -262.5t-272 -99.5q-135 0 -222.5 92t-87.5 226q0 107 57.5 200t153.5 147.5t205 54.5q114 0 191 -57.5t106 -151.5h-20q-24 83 -96 137t-183 54q-160 0 -277.5 -113.5t-117.5 -269.5q0 -127 83 -214t211 -87q144 0 254.5 92.5 t129.5 234.5zM531 793q31 0 62.5 18t46.5 46h17q-14 -32 -51.5 -55.5t-75.5 -23.5t-70 23.5t-37 55.5h17q7 -28 33.5 -46t57.5 -18z" />
<glyph unicode="&#x11f;" horiz-adv-x="461" d="M102 220q0 76 58 132t134 56h185l-2 -15h-123q38 -15 61.5 -52t23.5 -82q0 -74 -58.5 -129.5t-133.5 -55.5q-72 0 -112 50q-76 -29 -76 -80q0 -56 95 -56h99q163 0 163 -121q0 -80 -57 -127.5t-162 -47.5q-88 0 -133 37.5t-45 96.5q0 54 32 92.5t75 55.5q-36 1 -60.5 18 t-24.5 50t25.5 58t58.5 37q-23 34 -23 83zM250 -29h-99q-50 -18 -82 -54.5t-32 -87.5q0 -53 40.5 -86.5t121.5 -33.5q99 0 149 42t50 115q0 53 -34.5 79t-113.5 26zM120 224q0 -56 36.5 -95t92.5 -39q67 0 119.5 50.5t52.5 117.5q0 56 -37 95t-93 39q-66 0 -118.5 -51 t-52.5 -117zM318 552q31 0 63 19.5t47 48.5h17q-15 -34 -53 -59t-76 -25t-69 25t-36 59h17q7 -29 33 -48.5t57 -19.5z" />
<glyph unicode="&#x120;" horiz-adv-x="839" d="M805 335h-313l3 17h332q-23 -163 -137 -262.5t-272 -99.5q-135 0 -222.5 92t-87.5 226q0 107 57.5 200t153.5 147.5t205 54.5q114 0 191 -57.5t106 -151.5h-20q-24 83 -96 137t-183 54q-160 0 -277.5 -113.5t-117.5 -269.5q0 -127 83 -214t211 -87q144 0 254.5 92.5 t129.5 234.5zM510 791q0 9 7 16t17 7q8 0 13.5 -5.5t5.5 -13.5q0 -9 -7 -15.5t-17 -6.5q-8 0 -13.5 5t-5.5 13z" />
<glyph unicode="&#x121;" horiz-adv-x="461" d="M102 220q0 76 58 132t134 56h185l-2 -15h-123q38 -15 61.5 -52t23.5 -82q0 -74 -58.5 -129.5t-133.5 -55.5q-72 0 -112 50q-76 -29 -76 -80q0 -56 95 -56h99q163 0 163 -121q0 -80 -57 -127.5t-162 -47.5q-88 0 -133 37.5t-45 96.5q0 54 32 92.5t75 55.5q-36 1 -60.5 18 t-24.5 50t25.5 58t58.5 37q-23 34 -23 83zM250 -29h-99q-50 -18 -82 -54.5t-32 -87.5q0 -53 40.5 -86.5t121.5 -33.5q99 0 149 42t50 115q0 53 -34.5 79t-113.5 26zM120 224q0 -56 36.5 -95t92.5 -39q67 0 119.5 50.5t52.5 117.5q0 56 -37 95t-93 39q-66 0 -118.5 -51 t-52.5 -117zM296 545q0 10 7.5 17.5t17.5 7.5q18 0 18 -19q0 -10 -7 -17t-17 -7q-8 0 -13.5 5t-5.5 13z" />
<glyph unicode="&#x122;" horiz-adv-x="839" d="M805 335h-313l3 17h332q-23 -163 -137 -262.5t-272 -99.5q-135 0 -222.5 92t-87.5 226q0 107 57.5 200t153.5 147.5t205 54.5q114 0 191 -57.5t106 -151.5h-20q-24 83 -96 137t-183 54q-160 0 -277.5 -113.5t-117.5 -269.5q0 -127 83 -214t211 -87q144 0 254.5 92.5 t129.5 234.5zM393 -88l19 -8l-105 -185l-10 4z" />
<glyph unicode="&#x123;" horiz-adv-x="461" d="M102 220q0 76 58 132t134 56h185l-2 -15h-123q38 -15 61.5 -52t23.5 -82q0 -74 -58.5 -129.5t-133.5 -55.5q-72 0 -112 50q-76 -29 -76 -80q0 -56 95 -56h99q163 0 163 -121q0 -80 -57 -127.5t-162 -47.5q-88 0 -133 37.5t-45 96.5q0 54 32 92.5t75 55.5q-36 1 -60.5 18 t-24.5 50t25.5 58t58.5 37q-23 34 -23 83zM250 -29h-99q-50 -18 -82 -54.5t-32 -87.5q0 -53 40.5 -86.5t121.5 -33.5q99 0 149 42t50 115q0 53 -34.5 79t-113.5 26zM120 224q0 -56 36.5 -95t92.5 -39q67 0 119.5 50.5t52.5 117.5q0 56 -37 95t-93 39q-66 0 -118.5 -51 t-52.5 -117zM323 510l-19 8l106 185l10 -4z" />
<glyph unicode="&#x124;" horiz-adv-x="733" d="M734 700l-99 -700h-18l53 371h-501l-53 -371h-18l99 700h18l-45 -312h501l45 312h18zM487 856l104 -80l-10 -9l-97 66l-117 -66l-6 9z" />
<glyph unicode="&#x125;" horiz-adv-x="509" d="M82 0l91 653h18l-45 -326q89 83 188 83q73 0 107 -46.5t23 -125.5l-34 -238h-18l34 238q10 73 -19 114t-95 41q-97 0 -190 -89l-42 -304h-18zM212 856l103 -80l-10 -9l-97 66l-117 -66l-6 9z" />
<glyph unicode="&#x126;" horiz-adv-x="733" d="M88 538l2 15h85l21 147h18l-21 -147h501l21 147h18l-21 -147h84l-2 -15h-84l-75 -538h-18l52 371h-501l-52 -371h-18l75 538h-85zM170 388h501l21 150h-501z" />
<glyph unicode="&#x127;" horiz-adv-x="509" d="M75 538l2 15h82l14 100h18l-14 -100h146l-2 -15h-146l-29 -211q89 83 188 83q73 0 106.5 -46t22.5 -126l-34 -238h-17l33 238q10 73 -18.5 114t-94.5 41q-95 0 -190 -89l-42 -304h-18l75 538h-82z" />
<glyph unicode="&#x128;" horiz-adv-x="238" d="M227 700l-99 -700h-18l99 700h18zM110 785l-8 4q27 41 69 41q20 0 61 -17.5t61 -17.5q37 0 61 29l8 -5q-9 -17 -30.5 -29.5t-44.5 -12.5q-17 0 -59 18t-61 18q-36 0 -57 -28z" />
<glyph unicode="&#x129;" horiz-adv-x="198" d="M90 0l56 400h18l-56 -400h-18zM55 541l-8 5q27 43 70 43q20 0 60.5 -18.5t60.5 -18.5q37 0 61 31l8 -5q-9 -18 -30.5 -31.5t-44.5 -13.5q-17 0 -59 19t-61 19q-36 0 -57 -30z" />
<glyph unicode="&#x12a;" horiz-adv-x="238" d="M227 700l-99 -700h-18l99 700h18zM106 781l2 14h246l-2 -14h-246z" />
<glyph unicode="&#x12b;" horiz-adv-x="198" d="M90 0l56 400h18l-56 -400h-18zM51 538l2 15h246l-2 -15h-246z" />
<glyph unicode="&#x12c;" horiz-adv-x="238" d="M227 700l-99 -700h-18l99 700h18zM231 793q31 0 62.5 18t46.5 46h17q-14 -32 -52.5 -55.5t-76.5 -23.5t-69 23.5t-36 55.5h17q7 -28 33.5 -46t57.5 -18z" />
<glyph unicode="&#x12d;" horiz-adv-x="198" d="M90 0l56 400h18l-56 -400h-18zM176 552q31 0 63 19.5t47 48.5h17q-14 -34 -52.5 -59t-76.5 -25t-69 25t-36 59h17q7 -30 33 -49t57 -19z" />
<glyph unicode="&#x12e;" horiz-adv-x="238" d="M227 700l-99 -700h-4q-80 -56 -80 -111q0 -26 17 -40t45 -14t53 6l-2 -14q-30 -7 -53 -7q-35 0 -54.5 17.5t-19.5 48.5q0 67 80 114l99 700h18z" />
<glyph unicode="&#x12f;" horiz-adv-x="198" d="M108 0h-4q-80 -56 -80 -111q0 -26 17 -40t45 -14q27 0 53 6l-2 -14q-30 -7 -53 -7q-35 0 -54.5 17.5t-19.5 48.5q0 67 80 114l57 400h18zM156 545q0 10 6.5 17.5t16.5 7.5q8 0 14 -5.5t6 -13.5q0 -10 -7.5 -17t-17.5 -7q-18 0 -18 18z" />
<glyph unicode="&#x130;" horiz-adv-x="238" d="M227 700l-99 -700h-18l99 700h18zM211 790q0 9 7.5 16.5t17.5 7.5q8 0 13.5 -5.5t5.5 -13.5q0 -9 -8 -15.5t-18 -6.5q-7 0 -12.5 5t-5.5 12z" />
<glyph unicode="&#x131;" horiz-adv-x="198" d="M90 0l56 400h18l-56 -400h-18z" />
<glyph unicode="&#x132;" horiz-adv-x="754" d="M227 700l-99 -700h-18l99 700h18zM669 189l72 511h18l-72 -511q-12 -86 -77.5 -142t-156.5 -56q-71 0 -120 38.5t-57 98.5h18q7 -51 51.5 -85.5t109.5 -34.5q84 0 143.5 50.5t70.5 130.5z" />
<glyph unicode="&#x133;" horiz-adv-x="396" d="M90 0l56 400h18l-56 -400h-18zM155 545q0 10 7 17.5t17 7.5q8 0 13.5 -5.5t5.5 -13.5q0 -10 -7.5 -17t-18.5 -7q-17 0 -17 18zM361 400l-70 -499q-11 -79 -45 -117t-96 -38q-16 0 -29 3l3 16q14 -2 28 -2q54 -1 82.5 33.5t38.5 104.5l70 499h18zM353 545q0 10 7 17.5 t17 7.5q8 0 13.5 -5.5t5.5 -13.5q0 -10 -7.5 -17t-18.5 -7q-17 0 -17 18z" />
<glyph unicode="&#x134;" horiz-adv-x="516" d="M431 189l72 511h18l-72 -511q-12 -86 -78 -142t-157 -56q-71 0 -120 38.5t-56 98.5h18q7 -51 51.5 -85.5t109.5 -34.5q84 0 143.5 50.5t70.5 130.5zM533 856l105 -80l-10 -9l-97 66l-117 -66l-6 9z" />
<glyph unicode="&#x135;" horiz-adv-x="198" d="M164 400l-70 -499q-11 -79 -45.5 -117t-96.5 -38q-16 0 -29 3l3 16q12 -2 28 -2q55 -1 83.5 33.5t38.5 104.5l70 499h18zM186 618l103 -85l-9 -10l-97 71l-117 -71l-7 10z" />
<glyph unicode="&#x136;" horiz-adv-x="591" d="M648 700l-377 -293l290 -407h-22l-281 396l-96 -75l-46 -321h-18l99 700h18l-51 -356l458 356h26zM286 -88l19 -8l-106 -185l-10 4z" />
<glyph unicode="&#x137;" horiz-adv-x="416" d="M432 400l-211 -153l177 -247h-21l-169 237l-83 -59l-25 -178h-18l92 653h18l-63 -454l276 201h27zM201 -88l19 -8l-106 -185l-10 4z" />
<glyph unicode="&#x138;" horiz-adv-x="416" d="M432 400l-211 -153l177 -247h-21l-169 237l-83 -59l-25 -178h-18l56 400h18l-27 -201l276 201h27z" />
<glyph unicode="&#x139;" horiz-adv-x="534" d="M196 700h18l-96 -683h396l-2 -17h-414zM286 871l11 -16l-143 -89l-6 8z" />
<glyph unicode="&#x13a;" horiz-adv-x="198" d="M90 0l91 653h18l-91 -653h-18zM277 871l11 -16l-143 -89l-6 8z" />
<glyph unicode="&#x13b;" horiz-adv-x="534" d="M197 700h18l-96 -683h396l-3 -17h-414zM290 -88l19 -8l-106 -185l-10 4z" />
<glyph unicode="&#x13c;" horiz-adv-x="198" d="M90 0l92 653h18l-92 -653h-18zM76 -88l19 -8l-106 -185l-10 4z" />
<glyph unicode="&#x13d;" horiz-adv-x="534" d="M197 700h18l-96 -683h396l-3 -17h-414zM435 703l19 -8l-105 -185l-11 4z" />
<glyph unicode="&#x13e;" horiz-adv-x="282" d="M90 0l92 653h18l-92 -653h-18zM361 703l19 -8l-105 -185l-11 4z" />
<glyph unicode="&#x13f;" horiz-adv-x="534" d="M197 700h18l-96 -683h396l-3 -17h-414zM345 307q0 12 9.5 21.5t22.5 9.5q10 0 17 -7.5t7 -17.5q0 -12 -10 -21.5t-22 -9.5q-10 0 -17 7t-7 18z" />
<glyph unicode="&#x140;" horiz-adv-x="294" d="M90 0l92 653h18l-92 -653h-18zM262 307q0 12 10 21.5t22 9.5q24 0 24 -25q0 -12 -10 -21.5t-22 -9.5q-10 0 -17 7t-7 18z" />
<glyph unicode="&#x141;" horiz-adv-x="534" d="M67 255l-6 16l81 43l55 386h18l-53 -375l264 142l7 -16l-275 -147l-40 -287h396l-2 -17h-414l41 293z" />
<glyph unicode="&#x142;" horiz-adv-x="198" d="M48 255l-6 16l93 50l47 332h18l-45 -321l83 45l6 -16l-93 -51l-43 -310h-18l42 300z" />
<glyph unicode="&#x143;" horiz-adv-x="741" d="M742 700l-101 -721l-431 684l-94 -663h-18l101 715l431 -683l94 668h18zM549 871l11 -16l-143 -89l-6 8z" />
<glyph unicode="&#x144;" horiz-adv-x="507" d="M80 0l56 400h18l-10 -73q92 83 189 83q73 0 107 -46.5t23 -125.5l-34 -238h-18l34 238q10 73 -19.5 114t-95.5 41q-96 0 -189 -89l-43 -304h-18zM398 634l11 -17l-143 -95l-7 9z" />
<glyph unicode="&#x145;" horiz-adv-x="741" d="M742 700l-101 -721l-431 684l-94 -663h-18l101 715l431 -683l94 668h18zM363 -88l19 -8l-106 -185l-10 4z" />
<glyph unicode="&#x146;" horiz-adv-x="507" d="M80 0l56 400h18l-10 -73q92 83 189 83q73 0 107 -46.5t23 -125.5l-34 -238h-18l34 238q10 73 -19.5 114t-95.5 41q-96 0 -189 -89l-43 -304h-18zM256 -88l19 -8l-106 -185l-10 4z" />
<glyph unicode="&#x147;" horiz-adv-x="741" d="M742 700l-101 -721l-431 684l-94 -663h-18l101 715l431 -683l94 668h18zM605 845l-127 -80l-103 80l9 9l98 -67l116 67z" />
<glyph unicode="&#x148;" horiz-adv-x="507" d="M80 0l56 400h18l-10 -73q92 83 189 83q73 0 107 -46.5t23 -125.5l-34 -238h-18l34 238q10 73 -19.5 114t-95.5 41q-96 0 -189 -89l-43 -304h-18zM453 604l-127 -85l-103 85l9 10l98 -71l116 71z" />
<glyph unicode="&#x149;" horiz-adv-x="532" d="M105 0l56 400h18l-11 -73q94 83 190 83q73 0 106.5 -46t22.5 -126l-34 -238h-17l33 238q10 73 -19 114t-95 41q-96 0 -189 -89l-43 -304h-18zM169 703l19 -8l-106 -185l-10 4z" />
<glyph unicode="&#x14a;" horiz-adv-x="741" d="M617 -61l9 63l-416 661l-94 -663h-18l101 715l431 -683l94 668h18l-107 -761q-12 -86 -77.5 -142t-156.5 -56q-71 0 -120 38.5t-56 98.5h18q6 -50 50.5 -85t110.5 -35q84 0 143 50.5t70 130.5z" />
<glyph unicode="&#x14b;" horiz-adv-x="507" d="M80 0l56 400h18l-10 -73q92 83 189 83q73 0 107 -46.5t23 -125.5l-48 -337q-11 -79 -45.5 -117t-96.5 -38q-15 0 -29 3l3 16q14 -2 28 -2q55 -1 83.5 33.5t38.5 104.5l48 337q10 73 -19.5 114t-95.5 41q-96 0 -189 -89l-43 -304h-18z" />
<glyph unicode="&#x14c;" horiz-adv-x="843" d="M108 308q0 107 58 200.5t153 147.5t202 54q135 0 224 -92t89 -226q0 -107 -58 -200t-153.5 -147t-202.5 -54q-135 0 -223.5 91.5t-88.5 225.5zM127 309q0 -128 83.5 -214t211.5 -86q157 0 275 112.5t118 269.5q0 129 -84 215t-212 86q-157 0 -274.5 -112.5t-117.5 -270.5 zM409 781l1 14h246l-1 -14h-246z" />
<glyph unicode="&#x14d;" horiz-adv-x="508" d="M311 410q78 0 127.5 -53t49.5 -131q0 -96 -70.5 -165.5t-165.5 -69.5q-78 0 -127.5 53t-49.5 131q0 95 71 165t165 70zM254 8q87 0 151 63.5t64 152.5q0 72 -45 120.5t-115 48.5q-87 0 -151.5 -64t-64.5 -153q0 -73 45 -120.5t116 -47.5zM206 538l2 15h246l-2 -15h-246z " />
<glyph unicode="&#x14e;" horiz-adv-x="843" d="M108 308q0 107 58 200.5t153 147.5t202 54q135 0 224 -92t89 -226q0 -107 -58 -200t-153.5 -147t-202.5 -54q-135 0 -223.5 91.5t-88.5 225.5zM127 309q0 -128 83.5 -214t211.5 -86q157 0 275 112.5t118 269.5q0 129 -84 215t-212 86q-157 0 -274.5 -112.5t-117.5 -270.5 zM533 793q31 0 62.5 18t46.5 46h17q-14 -32 -52 -55.5t-76 -23.5t-69.5 23.5t-36.5 55.5h17q7 -28 33.5 -46t57.5 -18z" />
<glyph unicode="&#x14f;" horiz-adv-x="508" d="M311 410q78 0 127.5 -53t49.5 -131q0 -96 -70.5 -165.5t-165.5 -69.5q-78 0 -127.5 53t-49.5 131q0 95 71 165t165 70zM254 8q87 0 151 63.5t64 152.5q0 72 -45 120.5t-115 48.5q-87 0 -151.5 -64t-64.5 -153q0 -73 45 -120.5t116 -47.5zM331 552q30 0 62 19t48 49h17 q-15 -34 -53 -59t-76 -25t-69 25t-36 59h17q6 -29 32.5 -48.5t57.5 -19.5z" />
<glyph unicode="&#x150;" horiz-adv-x="843" d="M108 308q0 107 58 200.5t153 147.5t202 54q135 0 224 -92t89 -226q0 -107 -58 -200t-153.5 -147t-202.5 -54q-135 0 -223.5 91.5t-88.5 225.5zM127 309q0 -128 83.5 -214t211.5 -86q157 0 275 112.5t118 269.5q0 129 -84 215t-212 86q-157 0 -274.5 -112.5t-117.5 -270.5 zM547 896l-94 -128l-12 5l85 132zM717 896l-94 -128l-12 5l85 132z" />
<glyph unicode="&#x151;" horiz-adv-x="508" d="M311 410q78 0 127.5 -53t49.5 -131q0 -96 -70.5 -165.5t-165.5 -69.5q-78 0 -127.5 53t-49.5 131q0 95 71 165t165 70zM254 8q87 0 151 63.5t64 152.5q0 72 -45 120.5t-115 48.5q-87 0 -151.5 -64t-64.5 -153q0 -73 45 -120.5t116 -47.5zM347 672l-95 -136l-12 6l88 140z M517 672l-95 -136l-12 6l88 140z" />
<glyph unicode="&#x152;" horiz-adv-x="1263" d="M1293 683h-416l-42 -295h388l-1 -17h-388l-50 -354h416l-3 -17h-434l34 237q-51 -108 -155 -177t-222 -69q-135 0 -223.5 91.5t-88.5 225.5q0 107 58 200.5t153 147.5t202 54q119 0 203 -69.5t104 -178.5l34 238h434zM127 309q0 -128 83.5 -214t211.5 -86 q157 0 275 112.5t118 269.5q0 129 -84 215t-212 86q-157 0 -274.5 -112.5t-117.5 -270.5z" />
<glyph unicode="&#x153;" horiz-adv-x="891" d="M867 192h-383q-8 -79 39 -131.5t127 -52.5q51 0 100.5 27.5t70.5 70.5h20q-24 -51 -79.5 -83t-113.5 -32q-73 0 -122 41t-59 107q-27 -65 -86 -106.5t-129 -41.5q-78 0 -127.5 53t-49.5 131q0 95 71 165t165 70q69 0 116.5 -41.5t56.5 -107.5q28 66 88 107.5t129 41.5 q85 0 132 -61t35 -149zM254 8q87 0 151 63.5t64 152.5q0 72 -45 120.5t-115 48.5q-87 0 -151.5 -64t-64.5 -153q0 -73 45 -120.5t116 -47.5zM699 393q-76 0 -137 -52.5t-75 -130.5h365q7 79 -35.5 131t-117.5 52z" />
<glyph unicode="&#x154;" horiz-adv-x="625" d="M162 325l-46 -325h-18l99 700h233q91 0 147 -39t56 -122q0 -108 -68.5 -161t-165.5 -53l174 -325h-20l-174 325h-217zM164 342h217q39 0 72 5.5t63 20t51.5 36t34 55.5t12.5 78q0 146 -187 146h-215zM491 871l10 -16l-142 -89l-6 8z" />
<glyph unicode="&#x155;" horiz-adv-x="301" d="M80 0l56 400h18l-10 -73q91 83 188 76l-3 -17q-95 7 -188 -82l-43 -304h-18zM315 634l11 -17l-143 -95l-7 9z" />
<glyph unicode="&#x156;" horiz-adv-x="625" d="M162 325l-46 -325h-18l99 700h233q91 0 147 -39t56 -122q0 -108 -68.5 -161t-165.5 -53l174 -325h-20l-174 325h-217zM164 342h217q39 0 72 5.5t63 20t51.5 36t34 55.5t12.5 78q0 146 -187 146h-215zM301 -88l19 -8l-106 -185l-10 4z" />
<glyph unicode="&#x157;" horiz-adv-x="301" d="M80 0l56 400h18l-10 -73q91 83 188 76l-3 -17q-95 7 -188 -82l-43 -304h-18zM63 -88l19 -8l-106 -185l-10 4z" />
<glyph unicode="&#x158;" horiz-adv-x="625" d="M162 325l-46 -325h-18l99 700h233q91 0 147 -39t56 -122q0 -108 -68.5 -161t-165.5 -53l174 -325h-20l-174 325h-217zM164 342h217q39 0 72 5.5t63 20t51.5 36t34 55.5t12.5 78q0 146 -187 146h-215zM546 845l-126 -80l-104 80l9 9l98 -67l116 67z" />
<glyph unicode="&#x159;" horiz-adv-x="301" d="M80 0l56 400h18l-10 -73q89 83 188 76l-3 -17q-96 7 -189 -82l-42 -304h-18zM370 604l-128 -85l-102 85l9 10l97 -71l117 71z" />
<glyph unicode="&#x15a;" horiz-adv-x="538" d="M271 8q88 0 155 48t67 131q0 62 -48.5 100.5t-143.5 71.5q-78 29 -122.5 68.5t-44.5 104.5q0 69 59.5 123.5t169.5 54.5q78 0 126 -39.5t56 -100.5h-18q-10 54 -53 88.5t-114 34.5q-99 0 -154 -48.5t-55 -110.5q0 -58 42 -95t118 -64q100 -36 150.5 -77t50.5 -109 q0 -91 -73 -144.5t-170 -53.5q-83 0 -136.5 39t-65.5 102h18q12 -54 60 -89t126 -35zM448 871l11 -16l-143 -89l-6 8z" />
<glyph unicode="&#x15b;" horiz-adv-x="374" d="M190 9q55 0 94 24.5t39 72.5q0 37 -31 58.5t-89 35.5q-107 26 -107 97q0 48 38 80.5t101 32.5q51 0 84 -25.5t41 -61.5h-18q-27 70 -110 70q-55 0 -86.5 -27t-31.5 -68q0 -34 25 -52t79 -31q59 -15 91 -39t32 -68q0 -56 -45 -86t-108 -30q-57 0 -92 23.5t-43 61.5h18 q8 -29 38 -48.5t81 -19.5zM332 634l12 -17l-145 -95l-6 9z" />
<glyph unicode="&#x15c;" horiz-adv-x="538" d="M271 8q88 0 155 48t67 131q0 62 -48.5 100.5t-143.5 71.5q-78 29 -122.5 68.5t-44.5 104.5q0 69 59.5 123.5t169.5 54.5q78 0 126 -39.5t56 -100.5h-18q-10 54 -53 88.5t-114 34.5q-99 0 -154 -48.5t-55 -110.5q0 -58 42 -95t118 -64q100 -36 150.5 -77t50.5 -109 q0 -91 -73 -144.5t-170 -53.5q-83 0 -136.5 39t-65.5 102h18q12 -54 60 -89t126 -35zM390 856l104 -80l-9 -9l-98 66l-116 -66l-7 9z" />
<glyph unicode="&#x15d;" horiz-adv-x="374" d="M190 9q55 0 94 24.5t39 72.5q0 37 -31 58.5t-89 35.5q-107 26 -107 97q0 48 38 80.5t101 32.5q51 0 84 -25.5t41 -61.5h-18q-27 70 -110 70q-55 0 -86.5 -27t-31.5 -68q0 -34 25 -52t79 -31q59 -15 91 -39t32 -68q0 -56 -45 -86t-108 -30q-57 0 -92 23.5t-43 61.5h18 q8 -29 38 -48.5t81 -19.5zM275 618l102 -85l-9 -10l-97 71l-117 -71l-7 10z" />
<glyph unicode="&#x15e;" horiz-adv-x="538" d="M271 8q88 0 155 48t67 131q0 62 -48.5 100.5t-143.5 71.5q-78 29 -122.5 68.5t-44.5 104.5q0 69 59.5 123.5t169.5 54.5q78 0 126 -39.5t56 -100.5h-18q-10 54 -53 88.5t-114 34.5q-99 0 -154 -48.5t-55 -110.5q0 -58 42 -95t118 -64q100 -36 150.5 -77t50.5 -109 q0 -91 -73 -144.5t-170 -53.5q-83 0 -136.5 39t-65.5 102h18q12 -54 60 -89t126 -35zM276 -49l-89 -129l-11 6l81 131z" />
<glyph unicode="&#x15f;" horiz-adv-x="374" d="M190 9q55 0 94 24.5t39 72.5q0 37 -31 58.5t-89 35.5q-107 26 -107 97q0 48 38 80.5t101 32.5q51 0 84 -25.5t41 -61.5h-18q-27 70 -110 70q-55 0 -86.5 -27t-31.5 -68q0 -34 25 -52t79 -31q59 -15 91 -39t32 -68q0 -56 -45 -86t-108 -30q-57 0 -92 23.5t-43 61.5h18 q8 -29 38 -48.5t81 -19.5zM191 -49l-89 -129l-11 6l80 131z" />
<glyph unicode="&#x160;" horiz-adv-x="538" d="M271 8q88 0 155 48t67 131q0 62 -48.5 100.5t-143.5 71.5q-78 29 -122.5 68.5t-44.5 104.5q0 69 59.5 123.5t169.5 54.5q78 0 126 -39.5t56 -100.5h-18q-10 54 -53 88.5t-114 34.5q-99 0 -154 -48.5t-55 -110.5q0 -58 42 -95t118 -64q100 -36 150.5 -77t50.5 -109 q0 -91 -73 -144.5t-170 -53.5q-83 0 -136.5 39t-65.5 102h18q12 -54 60 -89t126 -35zM504 845l-127 -80l-103 80l8 9l99 -67l115 67z" />
<glyph unicode="&#x161;" horiz-adv-x="374" d="M190 9q55 0 94 24.5t39 72.5q0 37 -31 58.5t-89 35.5q-107 26 -107 97q0 48 38 80.5t101 32.5q51 0 84 -25.5t41 -61.5h-18q-27 70 -110 70q-55 0 -86.5 -27t-31.5 -68q0 -34 25 -52t79 -31q59 -15 91 -39t32 -68q0 -56 -45 -86t-108 -30q-57 0 -92 23.5t-43 61.5h18 q8 -29 38 -48.5t81 -19.5zM387 604l-127 -85l-103 85l10 10l97 -71l117 71z" />
<glyph unicode="&#x162;" horiz-adv-x="552" d="M621 700l-3 -16h-237l-96 -684h-18l96 684h-237l3 16h492zM254 -88l18 -8l-105 -185l-10 4z" />
<glyph unicode="&#x163;" horiz-adv-x="305" d="M129 115l37 268h-92l2 17h93l21 142h18l-21 -142h140l-2 -17h-140l-38 -268q-8 -60 11.5 -82t62.5 -22q27 0 57 6l-3 -17q-30 -6 -57 -6q-54 0 -76.5 26t-12.5 95zM155 -88l19 -8l-106 -185l-10 4z" />
<glyph unicode="&#x164;" horiz-adv-x="552" d="M621 700l-3 -16h-237l-96 -684h-18l96 684h-237l3 16h492zM509 845l-125 -80l-105 80l10 9l97 -67l117 67z" />
<glyph unicode="&#x165;" horiz-adv-x="411" d="M130 115l37 268h-93l3 17h93l20 142h18l-20 -142h140l-3 -17h-140l-38 -268q-8 -60 11.5 -82t62.5 -22q29 0 57 6l-3 -17q-28 -6 -57 -6q-53 0 -75.5 26t-12.5 95zM491 703l18 -8l-105 -185l-10 4z" />
<glyph unicode="&#x166;" horiz-adv-x="552" d="M182 351l3 15h134l44 318h-237l3 16h492l-3 -16h-237l-44 -318h134l-3 -15h-134l-49 -351h-18l49 351h-134z" />
<glyph unicode="&#x167;" horiz-adv-x="305" d="M48 205l2 15h93l23 163h-93l3 17h93l20 142h18l-20 -142h140l-3 -17h-140l-23 -163h140l-2 -15h-140l-12 -90q-8 -60 11.5 -82t61.5 -22q29 0 57 6l-2 -17q-30 -6 -57 -6q-53 0 -75.5 26t-13.5 95l12 90h-93z" />
<glyph unicode="&#x168;" horiz-adv-x="718" d="M360 8q123 0 196 75t90 199l59 418h18l-59 -418q-19 -132 -97.5 -212t-209.5 -80t-186.5 80t-36.5 212l59 418h18l-59 -418q-17 -124 34 -199t174 -75zM351 785l-9 4q27 41 70 41q20 0 60.5 -17.5t60.5 -17.5q37 0 61 29l9 -5q-10 -17 -31.5 -29.5t-43.5 -12.5 q-17 0 -59.5 18t-61.5 18q-37 0 -56 -28z" />
<glyph unicode="&#x169;" horiz-adv-x="499" d="M475 400l-56 -400h-18l10 73q-92 -83 -184 -83q-72 0 -105 44t-22 123l34 243h18l-34 -243q-11 -72 18 -111t94 -39q91 0 184 89l43 304h18zM206 541l-9 5q27 43 71 43q20 0 60 -18.5t60 -18.5q36 0 62 31l8 -5q-9 -18 -30.5 -31.5t-44.5 -13.5q-17 0 -59.5 19t-61.5 19 q-37 0 -56 -30z" />
<glyph unicode="&#x16a;" horiz-adv-x="718" d="M360 8q123 0 196 75t90 199l59 418h18l-59 -418q-19 -132 -97.5 -212t-209.5 -80t-186.5 80t-36.5 212l59 418h18l-59 -418q-17 -124 34 -199t174 -75zM347 781l1 14h246l-1 -14h-246z" />
<glyph unicode="&#x16b;" horiz-adv-x="499" d="M475 400l-56 -400h-18l10 73q-92 -83 -184 -83q-72 0 -105 44t-22 123l34 243h18l-34 -243q-11 -72 18 -111t94 -39q91 0 184 89l43 304h18zM202 538l1 15h246l-1 -15h-246z" />
<glyph unicode="&#x16c;" horiz-adv-x="718" d="M360 8q123 0 196 75t90 199l59 418h18l-59 -418q-19 -132 -97.5 -212t-209.5 -80t-186.5 80t-36.5 212l59 418h18l-59 -418q-17 -124 34 -199t174 -75zM471 793q31 0 62.5 18t46.5 46h17q-14 -32 -52 -55.5t-76 -23.5t-69.5 23.5t-36.5 55.5h17q7 -28 33.5 -46t57.5 -18z " />
<glyph unicode="&#x16d;" horiz-adv-x="499" d="M475 400l-56 -400h-18l10 73q-92 -83 -184 -83q-72 0 -105 44t-22 123l34 243h18l-34 -243q-11 -72 18 -111t94 -39q91 0 184 89l43 304h18zM326 552q31 0 63 19.5t47 48.5h17q-14 -34 -52 -59t-76 -25t-69.5 25t-36.5 59h17q7 -30 33 -49t57 -19z" />
<glyph unicode="&#x16e;" horiz-adv-x="718" d="M360 8q123 0 196 75t90 199l59 418h18l-59 -418q-19 -132 -97.5 -212t-209.5 -80t-186.5 80t-36.5 212l59 418h18l-59 -418q-17 -124 34 -199t174 -75zM403 823q0 31 25 54.5t58 23.5q28 0 46.5 -18t18.5 -44q0 -32 -25 -54.5t-59 -22.5q-28 0 -46 17.5t-18 43.5z M418 825q0 -21 14.5 -35t36.5 -14q27 0 47 18t20 43q0 21 -15 35.5t-37 14.5q-27 0 -46.5 -18.5t-19.5 -43.5z" />
<glyph unicode="&#x16f;" horiz-adv-x="499" d="M475 400l-56 -400h-18l10 73q-92 -83 -184 -83q-72 0 -105 44t-22 123l34 243h18l-34 -243q-11 -72 18 -111t94 -39q91 0 184 89l43 304h18zM257 574q0 34 25.5 58.5t59.5 24.5q28 0 46 -19t18 -47q0 -33 -25.5 -57t-59.5 -24q-28 0 -46 18.5t-18 45.5zM272 575 q0 -22 14 -36.5t37 -14.5q27 0 47.5 19.5t20.5 46.5q0 23 -14.5 38t-36.5 15q-28 0 -48 -20.5t-20 -47.5z" />
<glyph unicode="&#x170;" horiz-adv-x="718" d="M360 8q123 0 196 75t90 199l59 418h18l-59 -418q-19 -132 -97.5 -212t-209.5 -80t-186.5 80t-36.5 212l59 418h18l-59 -418q-17 -124 34 -199t174 -75zM475 896l-94 -128l-12 5l85 132zM645 896l-94 -128l-12 5l85 132z" />
<glyph unicode="&#x171;" horiz-adv-x="499" d="M475 400l-56 -400h-18l10 73q-92 -83 -184 -83q-72 0 -105 44t-22 123l34 243h18l-34 -243q-11 -72 18 -111t94 -39q91 0 184 89l43 304h18zM332 672l-94 -136l-11 6l86 140zM502 672l-94 -136l-11 6l86 140z" />
<glyph unicode="&#x172;" horiz-adv-x="718" d="M360 8q123 0 196 75t90 199l59 418h18l-59 -418q-17 -124 -88 -203t-189 -88q-68 -51 -68 -102q0 -26 17 -40t45 -14q27 0 53 6l-2 -14q-30 -7 -54 -7q-34 0 -53.5 17.5t-19.5 48.5q0 57 64 104h-12q-131 0 -186.5 80t-36.5 212l59 418h18l-59 -418q-17 -124 34 -199 t174 -75z" />
<glyph unicode="&#x173;" horiz-adv-x="499" d="M475 400l-56 -400h-4q-80 -56 -80 -111q0 -26 16.5 -40t45.5 -14q27 0 53 6l-3 -14q-28 -7 -53 -7q-34 0 -53.5 17.5t-19.5 48.5q0 67 80 114l10 73q-92 -83 -184 -83q-72 0 -105 44t-22 123l34 243h18l-34 -243q-11 -72 18 -111t94 -39q91 0 184 89l43 304h18z" />
<glyph unicode="&#x174;" horiz-adv-x="1014" d="M608 714l143 -685l306 671h18l-331 -721l-143 684l-335 -684l-129 721h18l118 -671zM628 856l104 -80l-9 -9l-98 66l-116 -66l-7 9z" />
<glyph unicode="&#x175;" horiz-adv-x="596" d="M356 414l80 -380l173 366h17l-197 -415l-79 384l-189 -384l-79 415h17l69 -366zM385 618l103 -85l-10 -10l-96 71l-118 -71l-6 10z" />
<glyph unicode="&#x176;" horiz-adv-x="560" d="M325 321h2l290 379h20l-305 -396l-43 -304h-18l43 304l-193 396h20zM401 856l104 -80l-9 -9l-98 66l-116 -66l-7 9z" />
<glyph unicode="&#x177;" horiz-adv-x="428" d="M78 400h19l118 -383l228 383h19l-388 -650h-19l150 250zM300 618l104 -85l-10 -10l-96 71l-118 -71l-6 10z" />
<glyph unicode="&#x178;" horiz-adv-x="560" d="M325 321h2l290 379h20l-305 -396l-43 -304h-18l43 304l-193 396h20zM292 791q0 9 7 16t17 7q8 0 13.5 -5.5t5.5 -13.5q0 -9 -7 -15.5t-17 -6.5q-8 0 -13.5 5t-5.5 13zM449 791q0 9 7.5 16t16.5 7q8 0 13.5 -5.5t5.5 -13.5q0 -9 -7 -15.5t-17 -6.5q-8 0 -13.5 5t-5.5 13z " />
<glyph unicode="&#x179;" horiz-adv-x="599" d="M547 0h-499l565 684h-439l3 16h471l-564 -684h466zM478 871l10 -16l-142 -89l-7 8z" />
<glyph unicode="&#x17a;" horiz-adv-x="371" d="M96 384l2 16h293l-332 -384h283l-3 -16h-315l332 384h-260zM330 634l11 -17l-143 -95l-7 9z" />
<glyph unicode="&#x17b;" horiz-adv-x="599" d="M547 0h-499l565 684h-439l3 16h471l-564 -684h466zM389 791q0 8 7.5 15.5t17.5 7.5q8 0 13.5 -5.5t5.5 -13.5q0 -9 -7.5 -15.5t-17.5 -6.5q-8 0 -13.5 5t-5.5 13z" />
<glyph unicode="&#x17c;" horiz-adv-x="371" d="M96 384l2 16h293l-332 -384h283l-3 -16h-315l332 384h-260zM241 545q0 10 7 17.5t17 7.5q8 0 13.5 -5.5t5.5 -13.5q0 -10 -7.5 -17t-17.5 -7q-7 0 -12.5 5.5t-5.5 12.5z" />
<glyph unicode="&#x17d;" horiz-adv-x="599" d="M547 0h-499l565 684h-439l3 16h471l-564 -684h466zM533 845l-126 -80l-104 80l9 9l98 -67l116 67z" />
<glyph unicode="&#x17e;" horiz-adv-x="371" d="M96 384l2 16h293l-332 -384h283l-3 -16h-315l332 384h-260zM385 604l-127 -85l-103 85l9 10l98 -71l116 71z" />
<glyph unicode="&#x17f;" horiz-adv-x="280" d="M106 0l68 487q23 170 170 170q22 0 37 -3l-3 -16q-18 2 -37 2q-127 0 -149 -153l-68 -487h-18z" />
<glyph unicode="&#x192;" d="M230 383l6 17h93l27 87q53 170 198 170q21 0 36 -3l-5 -16q-18 2 -36 2q-128 0 -175 -153l-27 -87h154l-6 -17h-154l-145 -472q-53 -170 -198 -170q-22 0 -37 3l6 16q16 -2 35 -2q128 0 175 153l145 472h-92z" />
<glyph unicode="&#x1fa;" horiz-adv-x="686" d="M352 582q0 35 24.5 60t59.5 25q28 0 46.5 -19t18.5 -47q0 -21 -14 -41l169 -560h-19l-68 226h-388l-132 -226h-19l325 560q-3 10 -3 22zM564 243l-90 301q-24 -24 -59 -24q-32 0 -50 23l-175 -300h374zM367 586q0 -23 14.5 -37.5t36.5 -14.5q27 0 47.5 19.5t20.5 46.5 q0 23 -15 38t-37 15q-27 0 -47 -20.5t-20 -46.5zM522 871l10 -16l-142 -89l-7 8z" />
<glyph unicode="&#x1fb;" horiz-adv-x="458" d="M136 321h-18q20 42 65 66t101 24q72 0 107 -38t26 -104l-37 -269h-16l11 88q-55 -93 -184 -93q-58 0 -93 28.5t-35 77.5q0 142 210 142h124l4 26q9 60 -23 92.5t-97 32.5q-102 0 -145 -73zM194 12q57 0 106 24.5t72 73.5q8 17 13 50l10 66h-124q-101 0 -145.5 -29.5 t-44.5 -93.5q0 -43 30.5 -67t82.5 -24zM243 554q0 34 25 58.5t60 24.5q28 0 46 -19t18 -47q0 -33 -25.5 -57t-59.5 -24q-28 0 -46 18.5t-18 45.5zM258 556q0 -23 14.5 -37.5t36.5 -14.5q27 0 47.5 19.5t20.5 46.5q0 23 -14.5 38t-36.5 15q-27 0 -47.5 -20t-20.5 -47z M426 814l10 -17l-143 -95l-6 9z" />
<glyph unicode="&#x1fc;" horiz-adv-x="992" d="M1022 683h-394l-42 -295h365l-1 -17h-365l-50 -354h394l-3 -17h-412l32 226h-318l-195 -226h-23l602 700h413zM242 243h306l60 427zM675 871l10 -16l-142 -89l-7 8z" />
<glyph unicode="&#x1fd;" horiz-adv-x="814" d="M793 205h-383q-10 -87 36.5 -142t127.5 -55q51 0 100.5 27.5t70.5 70.5h20q-24 -51 -79.5 -83t-113.5 -32q-68 0 -115 36.5t-61 96.5q-25 -64 -81 -96.5t-124 -32.5q-58 0 -93.5 27.5t-35.5 72.5q0 68 49 98t159 30h125l6 46q8 60 -23 92.5t-96 32.5q-104 0 -146 -73h-18 q20 42 65 66t101 24q67 0 103.5 -34t31.5 -93q32 57 87.5 91.5t118.5 34.5q85 0 132.5 -57.5t36.5 -139.5zM622 393q-75 0 -135.5 -50.5t-74.5 -119.5h365q6 73 -37 121.5t-118 48.5zM194 12q57 0 106.5 24.5t72.5 73.5q6 13 12 50l7 46h-124q-102 0 -145 -24t-43 -84 q0 -40 31 -63t83 -23zM553 634l10 -17l-143 -95l-7 9z" />
<glyph unicode="&#x1fe;" horiz-adv-x="843" d="M600 871l10 -16l-142 -89l-6 8zM808 803l-105 -147q60 -42 95.5 -112.5t35.5 -152.5q0 -106 -58 -199t-153.5 -147t-202.5 -54q-93 0 -165 43l-108 -150l-15 10l107 149q-61 41 -96 112t-35 153q0 107 58 200.5t153 147.5t202 54q94 0 167 -45l107 148zM127 308 q0 -79 32.5 -145.5t90.5 -104.5l427 592q-70 42 -158 42q-102 0 -192.5 -51t-145 -140t-54.5 -193zM815 391q0 78 -33 145t-90 105l-427 -592q69 -40 157 -40q157 0 275 112.5t118 269.5z" />
<glyph unicode="&#x1ff;" horiz-adv-x="508" d="M311 410q52 0 96 -26l77 107l13 -10l-77 -107q68 -51 68 -148q0 -96 -70.5 -165.5t-164.5 -69.5q-51 0 -93 22l-81 -113l-14 10l81 113q-71 52 -71 151q0 96 71 166t165 70zM94 176q0 -92 63 -138l238 331q-37 24 -86 24q-87 0 -151 -64t-64 -153zM254 8q87 0 151.5 63.5 t64.5 152.5t-60 136l-239 -332q37 -20 83 -20zM398 634l12 -17l-144 -95l-7 9z" />
<glyph unicode="&#x218;" horiz-adv-x="538" d="M271 8q88 0 155 48t67 131q0 62 -48.5 100.5t-143.5 71.5q-78 29 -122.5 68.5t-44.5 104.5q0 69 59.5 123.5t169.5 54.5q78 0 126 -39.5t56 -100.5h-18q-10 54 -53 88.5t-114 34.5q-99 0 -154 -48.5t-55 -110.5q0 -58 42 -95t118 -64q100 -36 150.5 -77t50.5 -109 q0 -91 -73 -144.5t-170 -53.5q-83 0 -136.5 39t-65.5 102h18q12 -54 60 -89t126 -35zM242 -88l19 -8l-105 -185l-11 4z" />
<glyph unicode="&#x219;" horiz-adv-x="374" d="M190 9q55 0 94 24.5t39 72.5q0 37 -31 58.5t-89 35.5q-107 26 -107 97q0 48 38 80.5t101 32.5q51 0 84 -25.5t41 -61.5h-18q-27 70 -110 70q-55 0 -86.5 -27t-31.5 -68q0 -34 25 -52t79 -31q59 -15 91 -39t32 -68q0 -56 -45 -86t-108 -30q-57 0 -92 23.5t-43 61.5h18 q8 -29 38 -48.5t81 -19.5zM160 -88l19 -8l-106 -185l-10 4z" />
<glyph unicode="&#x21a;" horiz-adv-x="552" d="M621 700l-3 -16h-237l-96 -684h-18l96 684h-237l3 16h492zM252 -88l18 -8l-105 -185l-10 4z" />
<glyph unicode="&#x21b;" horiz-adv-x="305" d="M129 115l37 268h-92l2 17h93l21 142h18l-21 -142h140l-2 -17h-140l-38 -268q-8 -60 11.5 -82t62.5 -22q27 0 57 6l-3 -17q-30 -6 -57 -6q-54 0 -76.5 26t-12.5 95zM155 -88l19 -8l-106 -185l-10 4z" />
<glyph unicode="&#x237;" horiz-adv-x="198" d="M164 400l-70 -499q-11 -79 -45.5 -117t-96.5 -38q-16 0 -29 3l3 16q12 -2 28 -2q55 -1 83.5 33.5t38.5 104.5l70 499h18z" />
<glyph unicode="&#x2c6;" horiz-adv-x="290" d="M232 618l103 -85l-10 -10l-96 71l-118 -71l-6 10z" />
<glyph unicode="&#x2c7;" horiz-adv-x="290" d="M345 604l-127 -85l-103 85l10 10l96 -71l118 71z" />
<glyph unicode="&#x2c9;" horiz-adv-x="290" d="M97 538l2 15h246l-2 -15h-246z" />
<glyph unicode="&#x2d8;" horiz-adv-x="290" d="M222 552q31 0 63 19.5t47 48.5h17q-14 -34 -52.5 -59t-76.5 -25t-69 25t-36 59h17q7 -30 33 -49t57 -19z" />
<glyph unicode="&#x2d9;" horiz-adv-x="290" d="M201 545q0 10 7 17.5t17 7.5q8 0 13.5 -5.5t5.5 -13.5q0 -10 -7.5 -17t-18.5 -7q-17 0 -17 18z" />
<glyph unicode="&#x2da;" horiz-adv-x="290" d="M153 574q0 34 25 58.5t59 24.5q28 0 46 -19t18 -47q0 -33 -25.5 -57t-59.5 -24q-27 0 -45 18.5t-18 45.5zM168 576q0 -23 14 -37.5t36 -14.5q27 0 47.5 19.5t20.5 46.5q0 23 -14.5 38t-36.5 15q-27 0 -47 -20t-20 -47z" />
<glyph unicode="&#x2db;" horiz-adv-x="290" d="M150 1h15q-82 -56 -82 -112q0 -26 17 -40t45 -14q27 0 53 6l-2 -14q-30 -7 -53 -7q-35 0 -54.5 17.5t-19.5 48.5q0 65 81 115z" />
<glyph unicode="&#x2dc;" horiz-adv-x="290" d="M101 541l-8 5q27 43 70 43q20 0 60.5 -18.5t60.5 -18.5q37 0 61 31l8 -5q-9 -18 -30.5 -31.5t-44.5 -13.5q-17 0 -59 19t-61 19q-36 0 -57 -30z" />
<glyph unicode="&#x2dd;" horiz-adv-x="290" d="M233 672l-96 -136l-11 6l87 140zM403 672l-96 -136l-11 6l87 140z" />
<glyph unicode="&#x394;" horiz-adv-x="655" d="M611 17l-187 667l-374 -667h561zM625 0h-595l4 24l381 676h23l191 -676z" />
<glyph unicode="&#x3a9;" horiz-adv-x="762" d="M126 337q0 162 102 267t252 106q120 0 192 -76.5t72 -205.5q0 -126 -77.5 -237.5t-184.5 -173.5h223l-3 -17h-248l4 23q104 52 186 160.5t82 238.5q0 118 -66.5 194.5t-180.5 76.5q-143 0 -239 -105t-96 -252q0 -101 49.5 -187t118.5 -126l-4 -23h-248l3 17h223 q-68 48 -114 135.5t-46 184.5z" />
<glyph unicode="&#x3bc;" horiz-adv-x="501" d="M477 400l-56 -400h-18l10 73q-92 -83 -184 -83q-97 0 -122 77l-45 -317h-18l92 650h18l-34 -243q-11 -72 18 -111t94 -39q91 0 184 89l43 304h18z" />
<glyph unicode="&#x3c0;" horiz-adv-x="568" d="M253 384l-126 -384h-18l126 384q-90 0 -154 -18l3 17q57 17 153 17h341l-2 -16h-108l-54 -384h-18l54 384h-197z" />
<glyph unicode="&#x1e80;" horiz-adv-x="1014" d="M608 714l143 -685l306 671h18l-331 -721l-143 684l-335 -684l-129 721h18l118 -671zM559 856l15 16l112 -97l-9 -8z" />
<glyph unicode="&#x1e81;" horiz-adv-x="596" d="M356 414l80 -380l173 366h17l-197 -415l-79 384l-189 -384l-79 415h17l69 -366zM315 617l16 17l111 -103l-10 -9z" />
<glyph unicode="&#x1e82;" horiz-adv-x="1014" d="M608 714l143 -685l306 671h18l-331 -721l-143 684l-335 -684l-129 721h18l118 -671zM686 871l11 -16l-143 -89l-6 8z" />
<glyph unicode="&#x1e83;" horiz-adv-x="596" d="M356 414l80 -380l173 366h17l-197 -415l-79 384l-189 -384l-79 415h17l69 -366zM443 634l10 -17l-143 -95l-6 9z" />
<glyph unicode="&#x1e84;" horiz-adv-x="1014" d="M608 714l143 -685l306 671h18l-331 -721l-143 684l-335 -684l-129 721h18l118 -671zM519 791q0 9 7.5 16t16.5 7q8 0 13.5 -5.5t5.5 -13.5q0 -9 -7 -15.5t-17 -6.5q-8 0 -13.5 5t-5.5 13zM676 791q0 9 7 16t17 7q8 0 13.5 -5.5t5.5 -13.5q0 -9 -7 -15.5t-17 -6.5 q-8 0 -13.5 5t-5.5 13z" />
<glyph unicode="&#x1e85;" horiz-adv-x="596" d="M356 414l80 -380l173 366h17l-197 -415l-79 384l-189 -384l-79 415h17l69 -366zM274 545q0 10 7.5 17.5t17.5 7.5q8 0 13.5 -5.5t5.5 -13.5q0 -10 -7.5 -17t-17.5 -7q-8 0 -13.5 5t-5.5 13zM431 545q0 10 7.5 17.5t17.5 7.5q8 0 13.5 -5.5t5.5 -13.5q0 -10 -7.5 -17 t-17.5 -7q-8 0 -13.5 5t-5.5 13z" />
<glyph unicode="&#x1ef2;" horiz-adv-x="560" d="M325 321h2l290 379h20l-305 -396l-43 -304h-18l43 304l-193 396h20zM332 856l15 16l112 -97l-9 -8z" />
<glyph unicode="&#x1ef3;" horiz-adv-x="428" d="M78 400h19l118 -383l228 383h19l-388 -650h-19l150 250zM231 617l16 17l111 -103l-10 -9z" />
<glyph unicode="&#x2013;" horiz-adv-x="390" d="M41 299l3 18h390l-3 -18h-390z" />
<glyph unicode="&#x2014;" horiz-adv-x="770" d="M125 299l3 18h602l-3 -18h-602z" />
<glyph unicode="&#x2018;" horiz-adv-x="190" d="M152 510l-19 8l105 185l11 -4z" />
<glyph unicode="&#x2019;" horiz-adv-x="190" d="M209 703l19 -8l-106 -185l-10 4z" />
<glyph unicode="&#x201a;" horiz-adv-x="200" d="M129 69l19 -8l-118 -205l-10 4z" />
<glyph unicode="&#x201c;" horiz-adv-x="323" d="M152 510l-19 8l105 185l11 -4zM285 510l-19 8l105 185l11 -4z" />
<glyph unicode="&#x201d;" horiz-adv-x="323" d="M342 703l19 -8l-106 -185l-10 4zM209 703l19 -8l-106 -185l-10 4z" />
<glyph unicode="&#x201e;" horiz-adv-x="333" d="M262 69l19 -8l-118 -205l-10 4zM129 69l19 -8l-118 -205l-10 4z" />
<glyph unicode="&#x2020;" horiz-adv-x="652" d="M666 521h-257l-101 -721h-18l101 721h-257l3 17h257l36 262h18l-36 -262h257z" />
<glyph unicode="&#x2021;" horiz-adv-x="652" d="M347 79h257l-3 -17h-257l-36 -262h-18l36 262h-257l3 17h257l62 442h-257l2 17h257l37 262h18l-37 -262h257l-2 -17h-257z" />
<glyph unicode="&#x2022;" horiz-adv-x="387" d="M133 296q0 47 36 81.5t82 34.5q39 0 65 -26.5t26 -65.5q0 -47 -36.5 -81t-83.5 -34q-39 0 -64 26t-25 65z" />
<glyph unicode="&#x2026;" horiz-adv-x="618" d="M78 16q0 12 10 21.5t22 9.5q10 0 17 -7t7 -18q0 -12 -10 -21.5t-22 -9.5q-10 0 -17 7t-7 18zM284 16q0 12 10 21.5t22 9.5q10 0 17 -7t7 -18q0 -12 -10 -21.5t-22 -9.5q-10 0 -17 7t-7 18zM490 16q0 12 10 21.5t22 9.5q10 0 17 -7t7 -18q0 -12 -10 -21.5t-22 -9.5 q-10 0 -17 7t-7 18z" />
<glyph unicode="&#x2030;" horiz-adv-x="1046" d="M660 697l-505 -703l-16 11l505 703zM417 141q-8 -59 19.5 -97t81.5 -38t91.5 38t45.5 97q9 59 -17.5 97t-81.5 38q-54 0 -92 -38t-47 -97zM398 141q10 67 53.5 109.5t106.5 42.5t94.5 -42.5t21.5 -109.5q-8 -66 -52 -109t-107 -43t-94 42.5t-23 109.5zM140 536 q0 -51 27 -82.5t75 -31.5q61 0 100.5 45t39.5 111q0 51 -26.5 82.5t-74.5 31.5q-61 0 -101 -45t-40 -111zM121 534q0 74 45 124.5t116 50.5q56 0 87.5 -35.5t31.5 -93.5q0 -74 -45 -124.5t-116 -50.5q-56 0 -87.5 35.5t-31.5 93.5zM761 120q0 -51 27.5 -82.5t75.5 -31.5 q61 0 100 45t39 111q0 51 -26.5 82.5t-74.5 31.5q-61 0 -101 -45t-40 -111zM742 118q0 74 45.5 124.5t116.5 50.5q56 0 87.5 -35.5t31.5 -92.5q0 -74 -45.5 -125t-116.5 -51q-56 0 -87.5 35.5t-31.5 93.5z" />
<glyph unicode="&#x2039;" horiz-adv-x="237" d="M102 283l105 -146l-13 -11l-114 157l158 158l9 -13z" />
<glyph unicode="&#x203a;" horiz-adv-x="237" d="M70 137l146 146l-105 145l13 13l114 -158l-159 -157z" />
<glyph unicode="&#x2044;" horiz-adv-x="464" d="M543 697l-506 -703l-16 11l506 703z" />
<glyph unicode="&#x2070;" horiz-adv-x="369" d="M257 521q-51 0 -82 40.5t-31 108.5q0 94 48 154t117 60q52 0 83 -40.5t31 -107.5q0 -94 -48 -154.5t-118 -60.5zM260 537q61 0 103 55.5t42 141.5q0 61 -27 97.5t-72 36.5q-60 0 -102.5 -55t-42.5 -141q0 -62 27 -98.5t72 -36.5z" />
<glyph unicode="&#x2074;" horiz-adv-x="357" d="M341 615h52l-3 -16h-52l-11 -73h-17l11 73h-204l264 300zM324 615l32 232l-205 -232h173z" />
<glyph unicode="&#x2075;" horiz-adv-x="355" d="M396 652q0 -58 -41 -94.5t-104 -36.5q-48 0 -81 25t-29 64h17q0 -32 26.5 -52.5t67.5 -20.5q55 0 90.5 31.5t35.5 80.5q0 37 -25 60.5t-75 23.5h-102l27 146h188l-2 -17h-173l-21 -113h86q56 0 85.5 -26.5t29.5 -70.5z" />
<glyph unicode="&#x2076;" horiz-adv-x="361" d="M413 816h-17q-3 22 -24.5 36.5t-48.5 14.5q-60 0 -94 -41.5t-48 -102.5q-6 -24 -6 -50q14 39 49.5 63.5t78.5 24.5q47 0 74.5 -29.5t27.5 -74.5q0 -56 -38.5 -96t-98.5 -40q-113 0 -113 139q0 34 8.5 70t27 72t53.5 58.5t81 22.5q35 0 59.5 -19t28.5 -48zM271 537 q52 0 84.5 33.5t32.5 84.5q0 39 -23.5 64.5t-62.5 25.5q-51 0 -87.5 -34t-36.5 -84q0 -40 25 -65t68 -25z" />
<glyph unicode="&#x2077;" horiz-adv-x="339" d="M384 858h-213l3 17h241l-243 -354h-19z" />
<glyph unicode="&#x2078;" horiz-adv-x="360" d="M258 536q50 0 83.5 26t33.5 64q0 32 -25.5 53.5t-67.5 21.5q-49 0 -82 -26.5t-33 -64.5q0 -32 25 -53t66 -21zM307 883q46 0 74 -23t28 -59q0 -34 -24 -58t-61 -34q68 -22 68 -82q0 -46 -39 -76.5t-96 -30.5q-48 0 -78.5 24t-30.5 62q0 74 95 103q-28 9 -45 28t-17 45 q0 43 36 72t90 29zM284 717q46 0 76 24t30 58q0 29 -23 48.5t-61 19.5q-46 0 -76.5 -25t-30.5 -59q0 -29 23 -47.5t62 -18.5z" />
<glyph unicode="&#x2079;" horiz-adv-x="356" d="M146 587h17q4 -22 27 -36t50 -14q106 0 138 141q6 26 9 53q-14 -39 -51 -64t-80 -25q-47 0 -74.5 29.5t-27.5 74.5q0 57 39 97t99 40q112 0 112 -139q0 -35 -7.5 -70t-24.5 -71.5t-52 -59t-82 -22.5q-35 0 -61 18.5t-31 47.5zM289 867q-53 0 -85 -34.5t-32 -85.5 q0 -38 23.5 -63.5t62.5 -25.5q50 0 87 35t37 85q0 39 -24.5 64t-68.5 25z" />
<glyph unicode="&#x2080;" horiz-adv-x="369" d="M158 -179q-51 0 -82 40.5t-31 108.5q0 94 48 154t117 60q52 0 83 -40.5t31 -107.5q0 -94 -48 -154.5t-118 -60.5zM161 -163q61 0 103 55.5t42 141.5q0 61 -27 97.5t-72 36.5q-60 0 -102.5 -55t-42.5 -141q0 -62 27 -98.5t72 -36.5z" />
<glyph unicode="&#x2081;" horiz-adv-x="306" d="M147 -175l47 337l-103 -53l-6 13l131 69l-52 -366h-17z" />
<glyph unicode="&#x2082;" horiz-adv-x="349" d="M68 -158h204l-3 -16h-241l161 143q29 26 41.5 37.5t30 38t17.5 49.5q0 32 -22.5 53t-61.5 21q-43 0 -73 -24.5t-34 -62.5h-17q4 43 41.5 73t85.5 30q45 0 71.5 -24.5t26.5 -63.5q0 -26 -16 -53t-30.5 -41.5t-43.5 -39.5z" />
<glyph unicode="&#x2083;" horiz-adv-x="350" d="M170 2l2 16q47 2 76.5 24.5t29.5 61.5q0 28 -22 46t-59 18q-39 0 -66.5 -19t-35.5 -50h-17q9 39 41.5 62t79.5 23q44 0 70 -22.5t26 -56.5q0 -73 -90 -95q31 -4 52 -24t21 -54q0 -47 -37 -79t-96 -32q-48 0 -80 25t-28 65h17q-1 -32 25 -53t67 -21q51 0 83 27.5t32 66.5 q0 33 -25 51t-66 20z" />
<glyph unicode="&#x2084;" horiz-adv-x="357" d="M242 -85h52l-3 -16h-52l-11 -73h-17l11 73h-204l264 300zM225 -85l32 232l-205 -232h173z" />
<glyph unicode="&#x2085;" horiz-adv-x="355" d="M298 -48q0 -57 -41 -94t-104 -37q-48 0 -81 25t-29 64h17q0 -32 26.5 -52.5t67.5 -20.5q55 0 90.5 31.5t35.5 80.5q0 37 -25 60.5t-75 23.5h-102l27 146h188l-2 -17h-173l-21 -113h86q56 0 85.5 -26.5t29.5 -70.5z" />
<glyph unicode="&#x2086;" horiz-adv-x="361" d="M314 116h-17q-3 22 -24.5 36.5t-48.5 14.5q-60 0 -94 -41.5t-48 -102.5q-6 -24 -6 -50q14 39 49.5 63.5t78.5 24.5q47 0 74.5 -29.5t27.5 -74.5q0 -56 -38.5 -96t-98.5 -40q-113 0 -113 139q0 34 9 70.5t27.5 72t53 58t80.5 22.5q35 0 59.5 -19t28.5 -48zM172 -163 q52 0 84.5 33.5t32.5 84.5q0 39 -23.5 64.5t-62.5 25.5q-51 0 -87.5 -34t-36.5 -84q0 -40 25 -65t68 -25z" />
<glyph unicode="&#x2087;" horiz-adv-x="339" d="M285 163h-213l3 17h241l-243 -354h-19z" />
<glyph unicode="&#x2088;" horiz-adv-x="360" d="M159 -163q50 0 83.5 26t33.5 64q0 32 -25.5 53.5t-67.5 21.5q-49 0 -82 -26.5t-33 -64.5q0 -32 25 -53t66 -21zM208 184q46 0 74 -23t28 -59q0 -34 -24 -58t-61 -34q68 -22 68 -82q0 -46 -39 -76.5t-96 -30.5q-48 0 -78.5 24t-30.5 62q0 74 95 103q-28 9 -45 28t-17 45 q0 43 36 72t90 29zM185 18q46 0 76 24t30 58q0 29 -23 48.5t-61 19.5q-46 0 -76.5 -25t-30.5 -59q0 -29 23 -47.5t62 -18.5z" />
<glyph unicode="&#x2089;" horiz-adv-x="356" d="M47 -113h17q4 -22 27 -36t50 -14q106 0 138 141q6 26 9 53q-14 -39 -51 -64t-80 -25q-47 0 -74.5 29.5t-27.5 74.5q0 57 39 97t99 40q112 0 112 -139q0 -35 -7.5 -70t-24.5 -71.5t-52 -59t-82 -22.5q-35 0 -61 18.5t-31 47.5zM190 167q-53 0 -85 -34.5t-32 -85.5 q0 -38 23.5 -63.5t62.5 -25.5q50 0 87 35t37 85q0 39 -24.5 64t-68.5 25z" />
<glyph unicode="&#x20a3;" d="M29 194l3 17h100l68 489h428l-2 -17h-410l-41 -295h382l-3 -17h-382l-22 -160h100l-3 -17h-100l-27 -194h-18l27 194h-100z" />
<glyph unicode="&#x20a4;" d="M474 204l-2 -17h-156q-21 -51 -66.5 -98.5t-92.5 -71.5h368l-3 -17h-443l3 17h43q52 23 101 71t71 99h-151l2 17h155q8 18 8 44q0 52 -44 119h-96l3 17h82q-54 77 -54 136q0 73 59 131t149 58q86 0 130 -54.5t28 -136.5h-18q11 78 -26.5 126t-115.5 48q-82 0 -135 -54 t-53 -117q0 -25 9.5 -51.5t19.5 -42.5t29 -43h222l-3 -17h-208q40 -60 40 -116q0 -29 -8 -47h153z" />
<glyph unicode="&#x20a7;" d="M107 494l3 17h80l27 189h143q97 0 154 -47t46 -142h80l-3 -17h-80q-16 -92 -84.5 -138.5t-165.5 -46.5h-127l-44 -309h-18l69 494h-80zM232 683l-24 -172h334q9 88 -42.5 130t-142.5 42h-125zM181 326h127q57 0 103.5 15.5t81.5 54.5t46 98h-334z" />
<glyph unicode="&#x20ac;" d="M624 651l-2 -18q-64 58 -145 58q-107 0 -183.5 -76.5t-103.5 -190.5h301l-9 -18h-296q-4 -18 -10 -51q-6 -38 -6 -61h255l-8 -18h-247q-4 -129 52.5 -199t156.5 -70q77 0 163 59l-3 -19q-71 -56 -162 -56q-109 0 -168.5 71.5t-56.5 213.5h-65l7 18h59v13q0 32 16 99h-64 l8 18h59q29 127 110.5 206t196.5 79q89 0 145 -58z" />
<glyph unicode="&#x2113;" horiz-adv-x="384" d="M352 119l14 -7q-57 -116 -146 -116q-49 0 -77.5 29.5t-34 75t0.5 100.5l41 295q14 102 57 157t104 55q45 0 66 -32t21 -82q0 -104 -62.5 -188t-205.5 -188l-3 -17q-16 -94 12.5 -141t83.5 -47q79 0 129 106zM168 496l-36 -256q137 103 193 178t56 179q0 94 -73 94 q-52 0 -89.5 -51.5t-50.5 -143.5z" />
<glyph unicode="&#x2122;" horiz-adv-x="756" d="M380 700l-2 -15h-113l-47 -333h-16l47 333h-113l2 15h242zM569 352h-6l-95 311l-45 -311h-16l49 348h16l99 -318l187 318h16l-49 -348h-16l45 311z" />
<glyph unicode="&#x2126;" horiz-adv-x="762" d="M126 337q0 162 102 267t252 106q120 0 192 -76.5t72 -205.5q0 -126 -77.5 -237.5t-184.5 -173.5h223l-3 -17h-248l4 23q104 52 186 160.5t82 238.5q0 118 -66.5 194.5t-180.5 76.5q-143 0 -239 -105t-96 -252q0 -101 49.5 -187t118.5 -126l-4 -23h-248l3 17h223 q-68 48 -114 135.5t-46 184.5z" />
<glyph unicode="&#x212e;" horiz-adv-x="856" d="M820 335h-628q-5 0 -5 -4v-185q0 -19 8 -29q83 -96 240 -96q158 0 252 109h58q-55 -65 -136 -102t-175 -37q-165 0 -279.5 105t-114.5 253q0 150 112.5 254.5t277.5 104.5t277.5 -104.5t112.5 -254.5v-14zM673 365v186q0 24 -11 36q-93 91 -231 91q-141 0 -235 -97 q-9 -9 -9 -29v-187q0 -6 5 -6h476q5 0 5 6z" />
<glyph unicode="&#x2153;" horiz-adv-x="820" d="M720 697l-505 -703l-16 11l506 703zM232 347l47 337l-103 -53l-6 13l131 69l-52 -366h-17zM667 176l2 16q47 2 76 24.5t29 61.5q0 28 -22 46t-59 18q-39 0 -66.5 -19t-35.5 -50h-17q10 39 42.5 62t79.5 23q44 0 70 -22.5t26 -56.5q0 -73 -90 -95q31 -4 52 -24t21 -54 q0 -47 -37 -79t-97 -32q-48 0 -79.5 25t-28.5 65h17q-1 -32 25.5 -53t67.5 -21q50 0 82.5 27.5t32.5 66.5q0 33 -25 51t-66 20z" />
<glyph unicode="&#x2154;" horiz-adv-x="820" d="M719 697l-504 -703l-17 11l506 703zM666 176l2 16q48 2 77 24.5t29 61.5q0 28 -22 46t-59 18q-39 0 -66.5 -19t-35.5 -50h-17q9 39 41.5 62t79.5 23q44 0 70 -22.5t26 -56.5q0 -73 -90 -95q31 -4 52 -24t21 -54q0 -47 -37 -79t-96 -32q-48 0 -80 25t-28 65h17 q-1 -32 25 -53t67 -21q51 0 83 27.5t32 66.5q0 33 -25 51t-66 20zM134 363h204l-3 -16h-241l161 143q29 26 41.5 37.5t30 38t17.5 49.5q0 32 -22.5 53t-61.5 21q-43 0 -73 -24.5t-34 -62.5h-17q4 43 41.5 73t85.5 30q45 0 71.5 -24.5t26.5 -63.5q0 -26 -16 -53t-30.5 -41.5 t-43.5 -39.5z" />
<glyph unicode="&#x215b;" horiz-adv-x="820" d="M720 697l-505 -703l-16 11l506 703zM232 347l47 337l-103 -53l-6 13l131 69l-52 -366h-17zM642 11q49 0 82.5 26t33.5 64q0 32 -25.5 53.5t-67.5 21.5q-49 0 -82 -26.5t-33 -64.5q0 -32 25 -53t67 -21zM691 358q46 0 73.5 -23t27.5 -59q0 -34 -24 -58t-61 -34 q68 -21 68 -82q0 -46 -39 -76.5t-97 -30.5q-48 0 -78 24t-30 62q0 74 95 103q-28 8 -45 27.5t-17 45.5q0 43 36 72t91 29zM667 192q46 0 76.5 24t30.5 58q0 29 -23.5 48.5t-62.5 19.5q-45 0 -75.5 -25t-30.5 -59q0 -29 23 -47.5t62 -18.5z" />
<glyph unicode="&#x215c;" horiz-adv-x="820" d="M720 697l-505 -703l-17 11l506 703zM233 523l2 16q47 2 76.5 24.5t29.5 61.5q0 28 -22 46t-59 18q-39 0 -66.5 -19t-35.5 -50h-17q9 39 41.5 62t79.5 23q44 0 70 -22.5t26 -56.5q0 -73 -90 -95q31 -4 52 -24t21 -54q0 -47 -37 -79t-96 -32q-48 0 -80 25t-28 65h17 q-1 -32 25 -53t67 -21q51 0 83 27.5t32 66.5q0 33 -25 51t-66 20zM641 11q50 0 83.5 26t33.5 64q0 32 -25.5 53.5t-68.5 21.5q-48 0 -81.5 -26.5t-33.5 -64.5q0 -32 25.5 -53t66.5 -21zM690 358q46 0 73.5 -23t27.5 -59q0 -34 -23.5 -58t-61.5 -34q69 -21 69 -82 q0 -46 -39.5 -76.5t-96.5 -30.5q-48 0 -78 24t-30 62q0 74 94 103q-28 9 -45 28t-17 45q0 43 36 72t91 29zM667 192q46 0 76 24t30 58q0 29 -23.5 48.5t-61.5 19.5q-46 0 -76 -25t-30 -59q0 -29 23 -47.5t62 -18.5z" />
<glyph unicode="&#x215d;" horiz-adv-x="820" d="M720 697l-505 -703l-17 11l506 703zM641 11q50 0 83.5 26t33.5 64q0 32 -25.5 53.5t-68.5 21.5q-48 0 -81.5 -26.5t-33.5 -64.5q0 -32 25.5 -53t66.5 -21zM690 358q46 0 73.5 -23t27.5 -59q0 -34 -23.5 -58t-61.5 -34q69 -21 69 -82q0 -46 -39.5 -76.5t-96.5 -30.5 q-48 0 -78 24t-30 62q0 74 94 103q-61 19 -61 73q0 43 35.5 72t90.5 29zM667 192q46 0 76 24t30 58q0 29 -23 48.5t-62 19.5q-46 0 -76 -25t-30 -59q0 -29 23 -47.5t62 -18.5zM379 473q0 -57 -41 -94t-104 -37q-48 0 -81 25t-29 64h17q0 -32 26.5 -52.5t67.5 -20.5 q55 0 90.5 31.5t35.5 80.5q0 37 -25 60.5t-75 23.5h-102l27 146h188l-2 -17h-173l-21 -113h86q56 0 85.5 -26.5t29.5 -70.5z" />
<glyph unicode="&#x215e;" horiz-adv-x="820" d="M721 697l-506 -703l-16 11l506 703zM642 11q49 0 83 26t34 64q0 32 -25.5 53.5t-68.5 21.5q-48 0 -81.5 -26.5t-33.5 -64.5q0 -32 25 -53t67 -21zM691 358q46 0 73.5 -23t27.5 -59q0 -34 -24 -58t-61 -34q69 -21 69 -82q0 -46 -39.5 -76.5t-97.5 -30.5q-48 0 -77.5 24 t-29.5 62q0 74 94 103q-28 8 -45 27.5t-17 45.5q0 43 36 72t91 29zM668 192q46 0 76 24t30 58q0 29 -23.5 48.5t-62.5 19.5q-45 0 -75 -25t-30 -59q0 -29 23 -47.5t62 -18.5zM409 683h-213l3 17h241l-243 -354h-19z" />
<glyph unicode="&#x2202;" horiz-adv-x="535" d="M504 301q1 116 -63.5 205.5t-175.5 139.5l10 13q105 -44 174 -138t69 -212q0 -133 -69.5 -225.5t-191.5 -92.5q-77 0 -129 54.5t-52 134.5q0 100 72.5 165.5t166.5 65.5q69 0 117.5 -33.5t71.5 -76.5zM94 180q0 -73 46.5 -122.5t117.5 -49.5q100 0 162 74t81 195 q-25 47 -72.5 82t-115.5 35q-86 0 -152.5 -60.5t-66.5 -153.5z" />
<glyph unicode="&#x2206;" horiz-adv-x="655" d="M611 17l-187 667l-374 -667h561zM625 0h-595l4 24l381 676h23l191 -676z" />
<glyph unicode="&#x220f;" horiz-adv-x="754" d="M299 684l-110 -784h-18l110 784h-151l3 16h686l-3 -16h-151l-110 -784h-18l110 784h-348z" />
<glyph unicode="&#x2211;" horiz-adv-x="568" d="M533 -100h-523l4 24l345 368l-223 387l3 21h490l-2 -17h-471l224 -391l-349 -375h505z" />
<glyph unicode="&#x2212;" d="M547 294l-3 -18h-430l3 18h430z" />
<glyph unicode="&#x2215;" horiz-adv-x="464" d="M543 697l-506 -703l-16 11l506 703z" />
<glyph unicode="&#x2219;" horiz-adv-x="206" d="M119 307q0 12 10.5 21.5t22.5 9.5q10 0 16.5 -7t6.5 -18q0 -12 -10 -21.5t-22 -9.5q-10 0 -17 7t-7 18z" />
<glyph unicode="&#x221a;" horiz-adv-x="606" d="M94 237l106 40l99 -382l336 855h17l-339 -866h-29l-97 372l-88 -33z" />
<glyph unicode="&#x221e;" horiz-adv-x="804" d="M446 296q33 36 54 57t51 46t58 36.5t56 11.5q58 0 95 -39t37 -98q0 -71 -51 -125t-127 -54q-23 0 -43 7t-32.5 14t-34 32t-31 37.5t-39.5 54.5q-63 -70 -113.5 -108t-104.5 -38q-58 0 -95 39t-37 98q0 72 50.5 125.5t127.5 53.5q50 0 81 -28t84 -102q9 -13 14 -20z M432 286q-32 47 -44.5 65t-34.5 41t-41.5 30t-46.5 7q-66 0 -112 -49t-46 -112q0 -52 31.5 -86.5t84.5 -34.5q28 0 55 11t58.5 37.5t46.5 41t49 49.5zM454 286q54 -81 85 -109.5t82 -28.5q66 0 112 49t46 112q0 52 -31.5 86.5t-84.5 34.5q-34 0 -72.5 -23t-64 -46.5 t-61.5 -62.5q-7 -8 -11 -12z" />
<glyph unicode="&#x222b;" horiz-adv-x="373" d="M146 55l150 494q25 83 57 119t92 36q15 0 27 -3l-4 -16q-14 2 -29 2q-52 1 -76.5 -30.5t-48.5 -107.5l-151 -494q-25 -84 -57 -119.5t-91 -35.5q-14 0 -28 3l5 16q12 -2 28 -2q52 -1 77.5 31t48.5 107z" />
<glyph unicode="&#x2248;" d="M241 235q30 0 83 -31t81 -31q60 0 97 61l15 -10q-48 -68 -114 -68q-32 0 -82.5 31t-81.5 31q-61 0 -106 -59l-13 10q52 66 121 66zM267 415q30 0 82.5 -31t80.5 -31q59 0 98 61l14 -10q-48 -68 -114 -68q-32 0 -82.5 31t-81.5 31q-63 0 -105 -59l-13 10q52 66 121 66z " />
<glyph unicode="&#x2260;" d="M533 204l-3 -18h-260l-109 -153l-17 9l103 144h-147l3 18h158l117 162h-252l2 18h262l109 151q4 -2 9 -5t7 -4l-103 -142h146l-2 -18h-157l-116 -162h250z" />
<glyph unicode="&#x2264;" d="M111 292l470 213l-2 -21l-447 -201l390 -201l-3 -21l-411 213zM513 18l-3 -18h-441l3 18h441z" />
<glyph unicode="&#x2265;" d="M141 505l410 -213l-3 -18l-469 -213l2 21l447 201l-390 201zM513 18l-3 -18h-441l3 18h441z" />
<glyph unicode="&#x25ca;" horiz-adv-x="555" d="M108 350l166 -378l272 378l-166 378zM89 350l282 390h21l172 -390l-282 -390h-21z" />
<glyph unicode="&#x25fc;" horiz-adv-x="400" d="M0 400h400v-400h-400v400z" />
<glyph unicode="&#xf6c3;" horiz-adv-x="190" d="M98 -88l19 -8l-106 -185l-10 4z" />
<glyph unicode="&#xf8ff;" horiz-adv-x="818" d="M50 343q0 149 105 254.5t253 105.5t254 -105.5t106 -254.5q0 -148 -105.5 -253t-254.5 -105q-148 0 -253 105t-105 253zM116 343q0 -121 85.5 -206.5t206.5 -85.5t207 85.5t86 206.5t-85.5 207t-207.5 86q-121 0 -206.5 -86t-85.5 -207zM404 256q-13 15 -12 41.5t17 45.5 q-21 -17 -25 -62t21 -86q28 -37 62 -48t60 -11t34 -11q14 14 13 54t-24 73q-27 35 -64 37q13 -28 -7 -43q-19 -14 -40 11q7 -3 12 0q5 4 1 10q-3 8 -12 2q-4 -3 -6.5 -10t-6.5 -10q-13 -10 -23 7zM409 343q8 -25 52.5 -44.5t85.5 -5.5q35 12 56 32.5t27 39t14 34.5t20 19 q-16 21 -48.5 31t-76.5 -1q-19 -6 -34 -20.5t-21 -28.5q31 3 38 -20q4 -12 -4.5 -22t-18.5 -13q8 6 4 11q-2 9 -8 6q-8 -4 -6 -12q1 -4 7 -9t8 -10q5 -14 -14 -20q-20 -6 -44 2.5t-37 30.5zM364 416q20 -7 34.5 -28t10.5 -45q8 25 -16 66t-66 55q-55 14 -81.5 3t-49.5 -26 t-36 -11q0 -25 22 -54.5t61 -41.5q40 -15 73 7q-27 15 -19 38q3 12 17 15.5t22 -0.5q-9 -2 -10 -7q-3 -7 4 -9q8 -3 12 6q1 4 -1 11.5t0 12.5q3 12 23 8zM409 343q26 0 58 35.5t33 79.5q-1 36 -14.5 62.5t-29 38t-28 24t-12.5 24.5q-24 -8 -45.5 -38.5t-21.5 -71.5t30 -67 q7 31 30 31q24 0 27 -33q-4 8 -9 8q-8 0 -8 -7q0 -9 10 -9q4 0 10.5 4t11.5 4q14 0 14 -19q0 -21 -15.5 -41.5t-40.5 -24.5zM325 322q13 16 36.5 23t47.5 -2q-16 16 -65.5 4.5t-75.5 -46.5q-21 -30 -25.5 -59.5t1.5 -47t8.5 -36t-3.5 -27.5q25 -7 59.5 5t57.5 45 q26 34 16 72q-24 -21 -42 -7q-11 10 -10 21.5t8 20.5q-2 -9 3 -11q6 -6 10 1q5 7 -2 12q-4 3 -11.5 3.5t-11.5 3.5q-11 7 -1 25z" />
<glyph unicode="&#xfb00;" horiz-adv-x="537" d="M177 383l-54 -383h-18l54 383h-83l3 17h83l13 97q22 160 149 160q22 0 37 -3l-3 -16q-16 2 -36 2q-110 0 -129 -143l-13 -97h239l12 87q23 170 170 170q22 0 37 -3l-3 -16q-16 2 -36 2q-130 0 -150 -153l-12 -87h134l-3 -17h-134l-54 -383h-18l54 383h-239z" />
<glyph unicode="&#xfb03;" horiz-adv-x="700" d="M437 400h230l-57 -400h-18l54 383h-212l-54 -383h-18l54 383h-239l-54 -383h-18l54 383h-83l3 17h83l13 97q22 160 149 160q22 0 37 -3l-3 -16q-16 2 -36 2q-110 0 -129 -143l-13 -97h239l12 87q23 170 170 170q22 0 37 -3l-3 -16q-16 2 -36 2q-130 0 -150 -153z" />
<glyph unicode="&#xfb04;" horiz-adv-x="761" d="M447 473l-10 -73h134l-3 -17h-134l-54 -383h-18l54 383h-239l-54 -383h-18l54 383h-83l3 17h83l13 97q22 160 149 160q22 0 37 -3l-3 -16q-16 2 -36 2q-110 0 -129 -143l-13 -97h239l10 73q25 180 203 180q51 0 96 -12l-91 -641h-18l89 628q-32 8 -79 8q-159 0 -182 -163 z" />
<glyph horiz-adv-x="0" />
<glyph horiz-adv-x="811" d="M419 400l13 97q22 160 149 160q22 0 37 -3l-3 -16q-16 2 -36 2q-109 0 -129 -143l-13 -97h239l20 142h18l-20 -142h140l-3 -17h-140l-38 -268q-8 -60 11.5 -82t62.5 -22q29 0 57 6l-3 -17q-28 -6 -57 -6q-53 0 -75.5 26t-12.5 95l37 268h-239l-54 -383h-18l54 383h-239 l-54 -383h-18l54 383h-83l3 17h83l13 97q22 160 149 160q22 0 37 -3l-3 -16q-16 2 -36 2q-110 0 -129 -143l-13 -97h239z" />
<glyph horiz-adv-x="538" d="M252 8q79 0 142 56.5t75 139.5q8 81 -38.5 135t-123.5 54q-87 0 -150.5 -64t-63.5 -153q0 -72 44.5 -120t114.5 -48zM309 410q63 0 108.5 -34t62.5 -90l16 114h18l-56 -400h-18l16 114q-33 -56 -88 -89.5t-118 -33.5q-77 0 -126 52.5t-49 130.5q0 96 70 166t164 70z" />
<glyph horiz-adv-x="538" d="M286 617l15 17l111 -103l-10 -9zM252 8q79 0 142 56.5t75 139.5q8 81 -38.5 135t-123.5 54q-87 0 -150.5 -64t-63.5 -153q0 -72 44.5 -120t114.5 -48zM309 410q63 0 108.5 -34t62.5 -90l16 114h18l-56 -400h-18l16 114q-33 -56 -88 -89.5t-118 -33.5q-77 0 -126 52.5 t-49 130.5q0 96 70 166t164 70z" />
<glyph horiz-adv-x="538" d="M413 634l11 -17l-144 -95l-6 9zM252 8q79 0 142 56.5t75 139.5q8 81 -38.5 135t-123.5 54q-87 0 -150.5 -64t-63.5 -153q0 -72 44.5 -120t114.5 -48zM309 410q63 0 108.5 -34t62.5 -90l16 114h18l-56 -400h-18l16 114q-33 -56 -88 -89.5t-118 -33.5q-77 0 -126 52.5 t-49 130.5q0 96 70 166t164 70z" />
<glyph horiz-adv-x="538" d="M356 618l102 -85l-9 -10l-97 71l-117 -71l-7 10zM252 8q79 0 142 56.5t75 139.5q8 81 -38.5 135t-123.5 54q-87 0 -150.5 -64t-63.5 -153q0 -72 44.5 -120t114.5 -48zM309 410q63 0 108.5 -34t62.5 -90l16 114h18l-56 -400h-18l16 114q-33 -56 -88 -89.5t-118 -33.5 q-77 0 -126 52.5t-49 130.5q0 96 70 166t164 70z" />
<glyph horiz-adv-x="538" d="M225 541l-8 5q27 43 70 43q20 0 60.5 -18.5t60.5 -18.5q37 0 61 31l8 -5q-9 -18 -30.5 -31.5t-44.5 -13.5q-17 0 -59 19t-61 19q-36 0 -57 -30zM252 8q79 0 142 56.5t75 139.5q8 81 -38.5 135t-123.5 54q-87 0 -150.5 -64t-63.5 -153q0 -72 44.5 -120t114.5 -48zM309 410 q63 0 108.5 -34t62.5 -90l16 114h18l-56 -400h-18l16 114q-33 -56 -88 -89.5t-118 -33.5q-77 0 -126 52.5t-49 130.5q0 96 70 166t164 70z" />
<glyph horiz-adv-x="538" d="M245 545q0 10 7.5 17.5t17.5 7.5q8 0 13.5 -5.5t5.5 -13.5q0 -10 -8 -17t-18 -7q-18 0 -18 18zM402 545q0 10 7.5 17.5t17.5 7.5q8 0 13.5 -5.5t5.5 -13.5q0 -10 -8 -17t-18 -7q-18 0 -18 18zM252 8q79 0 142 56.5t75 139.5q8 81 -38.5 135t-123.5 54q-87 0 -150.5 -64 t-63.5 -153q0 -72 44.5 -120t114.5 -48zM309 410q63 0 108.5 -34t62.5 -90l16 114h18l-56 -400h-18l16 114q-33 -56 -88 -89.5t-118 -33.5q-77 0 -126 52.5t-49 130.5q0 96 70 166t164 70z" />
<glyph horiz-adv-x="538" d="M276 574q0 34 25 58.5t60 24.5q28 0 46 -19t18 -47q0 -33 -25.5 -57t-59.5 -24q-28 0 -46 18.5t-18 45.5zM291 576q0 -23 14.5 -37.5t36.5 -14.5q27 0 47.5 19.5t20.5 46.5q0 23 -14.5 38t-36.5 15q-27 0 -47.5 -20t-20.5 -47zM252 8q79 0 142 56.5t75 139.5 q8 81 -38.5 135t-123.5 54q-87 0 -150.5 -64t-63.5 -153q0 -72 44.5 -120t114.5 -48zM309 410q63 0 108.5 -34t62.5 -90l16 114h18l-56 -400h-18l16 114q-33 -56 -88 -89.5t-118 -33.5q-77 0 -126 52.5t-49 130.5q0 96 70 166t164 70z" />
<glyph horiz-adv-x="538" d="M428 -84l28 198q-32 -56 -87 -89.5t-118 -33.5q-78 0 -127 52.5t-49 130.5q0 96 70 166t164 70q63 0 108.5 -34t62.5 -90l16 114h18l-68 -484q-11 -76 -69.5 -123t-146.5 -47q-66 0 -114 36.5t-56 84.5h18q8 -41 50.5 -72.5t104.5 -31.5q81 0 133 42t62 111zM252 8 q79 0 142.5 56.5t74.5 139.5q8 81 -38.5 135t-123.5 54q-87 0 -150 -64t-63 -153q0 -72 44 -120t114 -48z" />
<glyph horiz-adv-x="538" d="M252 8q79 0 142 56.5t75 139.5q8 81 -38.5 135t-123.5 54q-87 0 -150.5 -64t-63.5 -153q0 -72 44.5 -120t114.5 -48zM309 410q63 0 108.5 -34t62.5 -90l16 114h18l-56 -400h-18l16 114q-33 -56 -88 -89.5t-118 -33.5q-77 0 -126 52.5t-49 130.5q0 96 70 166t164 70z M221 538l2 15h246l-2 -15h-246z" />
<glyph horiz-adv-x="538" d="M252 8q79 0 142 56.5t75 139.5q8 81 -38.5 135t-123.5 54q-87 0 -150.5 -64t-63.5 -153q0 -72 44.5 -120t114.5 -48zM309 410q63 0 108.5 -34t62.5 -90l16 114h18l-56 -400h-18l16 114q-33 -56 -88 -89.5t-118 -33.5q-77 0 -126 52.5t-49 130.5q0 96 70 166t164 70z M346 552q31 0 63 19.5t47 48.5h17q-15 -34 -53 -59t-76 -25t-69 25t-36 59h17q7 -29 33 -48.5t57 -19.5z" />
<glyph horiz-adv-x="538" d="M440 1l16 113q-33 -56 -88 -89.5t-118 -33.5q-77 0 -126 52.5t-49 130.5q0 96 70 166t164 70q63 0 108.5 -34t62.5 -90l16 114h18l-56 -400h-5q-81 -54 -81 -111q0 -26 17 -40t45 -14t53 6l-2 -14q-28 -7 -53 -7q-34 0 -54 17.5t-20 49.5q0 66 82 114zM252 8 q79 0 142 56.5t75 139.5q8 81 -38.5 135t-123.5 54q-87 0 -150.5 -64t-63.5 -153q0 -72 44.5 -120t114.5 -48z" />
<glyph horiz-adv-x="538" d="M252 8q79 0 142 56.5t75 139.5q8 81 -38.5 135t-123.5 54q-87 0 -150.5 -64t-63.5 -153q0 -72 44.5 -120t114.5 -48zM309 410q63 0 108.5 -34t62.5 -90l16 114h18l-56 -400h-18l16 114q-33 -56 -88 -89.5t-118 -33.5q-77 0 -126 52.5t-49 130.5q0 96 70 166t164 70z M263 554q0 34 25.5 58.5t58.5 24.5q28 0 46.5 -19t18.5 -47q0 -33 -26 -57t-60 -24q-27 0 -45 18.5t-18 45.5zM278 556q0 -23 14.5 -37.5t36.5 -14.5q27 0 47 19.5t20 46.5q0 23 -14.5 38t-36.5 15q-27 0 -47 -20.5t-20 -46.5zM445 814l11 -17l-144 -95l-7 9z" />
<glyph horiz-adv-x="538" d="M428 -84l28 198q-32 -56 -87 -89.5t-118 -33.5q-78 0 -127 52.5t-49 130.5q0 96 70 166t164 70q63 0 108.5 -34t62.5 -90l16 114h18l-68 -484q-11 -76 -69.5 -123t-146.5 -47q-66 0 -114 36.5t-56 84.5h18q8 -41 50.5 -72.5t104.5 -31.5q81 0 133 42t62 111zM252 8 q79 0 142.5 56.5t74.5 139.5q8 81 -38.5 135t-123.5 54q-87 0 -150 -64t-63 -153q0 -72 44 -120t114 -48zM356 618l102 -85l-9 -10l-97 71l-117 -71l-7 10z" />
<glyph horiz-adv-x="538" d="M428 -84l28 198q-32 -56 -87 -89.5t-118 -33.5q-78 0 -127 52.5t-49 130.5q0 96 70 166t164 70q63 0 108.5 -34t62.5 -90l16 114h18l-68 -484q-11 -76 -69.5 -123t-146.5 -47q-66 0 -114 36.5t-56 84.5h18q8 -41 50.5 -72.5t104.5 -31.5q81 0 133 42t62 111zM252 8 q79 0 142.5 56.5t74.5 139.5q8 81 -38.5 135t-123.5 54q-87 0 -150 -64t-63 -153q0 -72 44 -120t114 -48zM346 552q31 0 63 19.5t47 48.5h17q-15 -34 -53 -59t-76 -25t-69 25t-36 59h17q7 -29 33 -48.5t57 -19.5z" />
<glyph horiz-adv-x="538" d="M428 -84l28 198q-32 -56 -87 -89.5t-118 -33.5q-78 0 -127 52.5t-49 130.5q0 96 70 166t164 70q63 0 108.5 -34t62.5 -90l16 114h18l-68 -484q-11 -76 -69.5 -123t-146.5 -47q-66 0 -114 36.5t-56 84.5h18q8 -41 50.5 -72.5t104.5 -31.5q81 0 133 42t62 111zM252 8 q79 0 142.5 56.5t74.5 139.5q8 81 -38.5 135t-123.5 54q-87 0 -150 -64t-63 -153q0 -72 44 -120t114 -48zM325 545q0 10 7 17.5t17 7.5q8 0 13.5 -5.5t5.5 -13.5q0 -10 -7.5 -17t-17.5 -7q-18 0 -18 18z" />
<glyph horiz-adv-x="538" d="M428 -84l28 198q-32 -56 -87 -89.5t-118 -33.5q-78 0 -127 52.5t-49 130.5q0 96 70 166t164 70q63 0 108.5 -34t62.5 -90l16 114h18l-68 -484q-11 -76 -69.5 -123t-146.5 -47q-66 0 -114 36.5t-56 84.5h18q8 -41 50.5 -72.5t104.5 -31.5q81 0 133 42t62 111zM252 8 q79 0 142.5 56.5t74.5 139.5q8 81 -38.5 135t-123.5 54q-87 0 -150 -64t-63 -153q0 -72 44 -120t114 -48zM336 510l-20 8l105 185l11 -4z" />
<glyph horiz-adv-x="334" d="M161 625h-15q15 34 47 55.5t75 21.5q49 0 74.5 -27t19.5 -71l-28 -204h-15l9 69q-42 -72 -124 -72q-45 0 -72 21t-27 59q0 103 149 103h89l4 24q6 38 -15.5 61t-64.5 23q-37 0 -65.5 -18t-40.5 -45zM205 411q47 0 85 30t45 77l7 48h-90q-132 0 -132 -88q0 -31 23 -49 t62 -18z" />
<glyph horiz-adv-x="378" d="M411 548q-8 -63 -57.5 -108.5t-109.5 -45.5q-61 0 -96 45.5t-27 108.5q9 63 57.5 108.5t109.5 45.5q60 0 96 -45.5t27 -108.5zM137 548q-8 -59 23.5 -99.5t86.5 -40.5q54 0 97 40.5t51 99.5t-23 99.5t-86 40.5t-98 -40.5t-51 -99.5z" />
<glyph horiz-adv-x="190" d="M209 703l19 -8l-106 -185l-10 4z" />
<glyph horiz-adv-x="290" d="M323 871l12 -16l-143 -89l-7 8z" />
<glyph horiz-adv-x="290" d="M263 896l-94 -128l-11 5l86 132zM433 896l-94 -128l-11 5l86 132z" />
<glyph horiz-adv-x="290" d="M197 856l16 16l110 -97l-8 -8z" />
<glyph horiz-adv-x="290" d="M266 856l103 -80l-9 -9l-98 66l-116 -66l-7 9z" />
<glyph horiz-adv-x="290" d="M379 845l-127 -80l-103 80l9 9l98 -67l116 67z" />
<glyph horiz-adv-x="290" d="M257 793q31 0 62.5 18t46.5 46h17q-14 -32 -52.5 -55.5t-76.5 -23.5t-69 23.5t-36 55.5h17q7 -28 33.5 -46t57.5 -18z" />
<glyph horiz-adv-x="290" d="M136 785l-8 4q27 41 69 41q20 0 61 -17.5t61 -17.5q37 0 61 29l8 -5q-9 -17 -30.5 -29.5t-44.5 -12.5q-17 0 -59 18t-61 18q-36 0 -57 -28z" />
<glyph horiz-adv-x="290" d="M132 781l2 14h246l-2 -14h-246z" />
<glyph horiz-adv-x="290" d="M156 790q0 9 7.5 16.5t17.5 7.5q8 0 13.5 -5.5t5.5 -13.5q0 -9 -8 -15.5t-18 -6.5q-7 0 -12.5 5t-5.5 12zM313 790q0 9 7.5 16.5t17.5 7.5q8 0 13.5 -5.5t5.5 -13.5q0 -9 -8 -15.5t-18 -6.5q-18 0 -18 17z" />
<glyph horiz-adv-x="290" d="M235 790q0 9 7.5 16.5t17.5 7.5q8 0 13.5 -5.5t5.5 -13.5q0 -9 -8 -15.5t-18 -6.5q-18 0 -18 17z" />
<glyph horiz-adv-x="290" d="M187 823q0 31 25 54.5t59 23.5q28 0 46 -18t18 -44q0 -32 -25 -54.5t-59 -22.5q-28 0 -46 17.5t-18 43.5zM202 825q0 -21 14.5 -35t36.5 -14q27 0 47 18t20 43q0 21 -15 35.5t-37 14.5q-27 0 -46.5 -18.5t-19.5 -43.5z" />
<glyph horiz-adv-x="638" d="M600 4l-16 -8l-63 106q-72 -111 -235 -111q-91 0 -140.5 46.5t-49.5 123.5q0 92 57 151t147 80q-55 15 -81 57.5t-26 95.5q0 61 47 108t133 47h148l-2 -17h-148q-75 0 -117.5 -39.5t-42.5 -94.5q0 -24 6.5 -47.5t22 -47.5t46.5 -39t75 -15h216l15 109h18l-15 -109h50 l-2 -17h-50l-16 -117q-12 -82 -45 -145zM289 8q126 0 189.5 67t80.5 191l16 117h-214q-112 0 -179.5 -65t-67.5 -153q0 -72 48 -114.5t127 -42.5z" />
<glyph d="M391 709q92 0 146 -77.5t54 -209.5q0 -188 -87.5 -309.5t-214.5 -121.5q-92 0 -146.5 78t-54.5 209q0 188 88 309.5t215 121.5zM292 8q116 0 198.5 115.5t82.5 295.5q0 124 -50.5 198.5t-134.5 74.5q-115 0 -198.5 -116.5t-83.5 -294.5q0 -125 51 -199t135 -74z" />
<glyph d="M312 0l96 687l-197 -112l-8 15l228 129l-101 -719h-18z" />
<glyph d="M122 19h387l-3 -19h-426l290 276q37 35 58.5 57.5t52 59.5t45.5 74t15 73q0 67 -42.5 109.5t-115.5 42.5q-78 0 -138.5 -51t-70.5 -129h-18q8 81 75.5 139t152.5 58q81 0 128 -47t47 -120q0 -39 -14 -76.5t-43 -74t-51 -60t-59 -58.5z" />
<glyph d="M341 355l2 19q88 8 142 55t54 127q0 59 -41 97.5t-112 38.5q-72 0 -125 -40.5t-71 -104.5h-18q20 72 78 117t139 45q78 0 123.5 -42.5t45.5 -108.5q0 -84 -51 -131t-133 -63q65 -6 107.5 -46t42.5 -110q0 -92 -68 -154.5t-175 -62.5q-85 0 -138.5 47.5t-53.5 122.5h18 q1 -65 50 -109t126 -44q96 0 159.5 57.5t63.5 140.5q0 70 -45.5 107.5t-119.5 41.5z" />
<glyph d="M450 168h96l-3 -17h-96l-21 -151h-18l21 151h-371l470 574zM432 168l69 497l-406 -497h337z" />
<glyph d="M558 249q0 -114 -74.5 -185t-189.5 -71q-83 0 -140 46t-57 121h18q2 -66 52.5 -108t127.5 -42q107 0 176 66t69 171q0 79 -48 127t-143 48h-183q26 142 53 278h340l-3 -17h-325l-47 -244h167q101 0 154 -52t53 -138z" />
<glyph d="M584 584h-18q-8 46 -49 76.5t-91 30.5q-64 0 -115 -30t-83.5 -82t-52.5 -107.5t-32 -119.5q-10 -55 -10 -111q21 100 93 161t160 61q83 0 131 -57t48 -145q0 -111 -70.5 -190t-178.5 -79q-92 0 -146 65.5t-54 203.5q0 55 10.5 113.5t34.5 118.5t59 107.5t89 77.5t119 30 q60 0 103.5 -35.5t52.5 -88.5zM319 9q102 0 165 72t63 179q0 81 -44.5 133.5t-118.5 52.5q-98 0 -170 -74t-72 -177q0 -80 48.5 -133t128.5 -53z" />
<glyph d="M579 683h-400l3 17h429l-445 -700h-21z" />
<glyph d="M291 8q96 0 160.5 56.5t64.5 136.5q0 67 -48.5 111t-127.5 44q-95 0 -160 -57t-65 -137q0 -67 48 -110.5t128 -43.5zM390 709q82 0 130.5 -43.5t48.5 -113.5q0 -73 -49 -123t-121 -64q61 -14 98 -55.5t37 -107.5q0 -91 -71.5 -151t-174.5 -60q-85 0 -138.5 46t-53.5 119 q0 83 53 137t136 72q-55 10 -89.5 49t-34.5 96q0 85 64.5 142t164.5 57zM343 373q88 0 148 51.5t60 124.5q0 61 -45 102t-119 41q-88 0 -148 -52.5t-60 -126.5q0 -61 44.5 -100.5t119.5 -39.5z" />
<glyph d="M95 116h18q8 -46 49 -76.5t91 -30.5q64 0 115 30t83.5 82t52.5 107.5t32 119.5q9 48 10 111q-21 -100 -93 -161t-160 -61q-82 0 -131 57t-49 145q0 111 70.5 190t179.5 79q92 0 146 -65.5t54 -203.5q0 -55 -10.5 -113.5t-34.5 -118.5t-59 -107.5t-89 -77.5t-119 -30 q-60 0 -103.5 35.5t-52.5 88.5zM360 691q-102 0 -165.5 -72t-63.5 -179q0 -81 45 -133.5t119 -52.5q98 0 170 73.5t72 177.5q0 80 -48.5 133t-128.5 53z" />
<glyph horiz-adv-x="369" d="M183 -5q-51 0 -82 40.5t-31 108.5q0 94 48 154t117 60q52 0 83 -40.5t31 -107.5q0 -94 -48 -154.5t-118 -60.5zM186 11q61 0 103 55.5t42 141.5q0 61 -27 97.5t-72 36.5q-60 0 -102.5 -55t-42.5 -141q0 -62 27 -98.5t72 -36.5z" />
<glyph horiz-adv-x="297" d="M163 0l47 337l-103 -53l-6 13l131 69l-52 -366h-17z" />
<glyph horiz-adv-x="348" d="M92 16h204l-3 -16h-241l161 143q29 26 41.5 37.5t30 38t17.5 49.5q0 32 -22.5 53t-61.5 21q-43 0 -73 -24.5t-34 -62.5h-17q4 43 41.5 73t85.5 30q45 0 71.5 -24.5t26.5 -63.5q0 -26 -16 -53t-30.5 -41.5t-43.5 -39.5z" />
<glyph horiz-adv-x="350" d="M195 176l2 16q47 2 76.5 24.5t29.5 61.5q0 28 -22 46t-59 18q-39 0 -66.5 -19t-35.5 -50h-17q9 39 41.5 62t79.5 23q44 0 70 -22.5t26 -56.5q0 -73 -90 -95q31 -4 52 -24t21 -54q0 -47 -37 -79t-96 -32q-48 0 -80 25t-28 65h17q-1 -32 25 -53t67 -21q51 0 83 27.5 t32 66.5q0 33 -25 51t-66 20z" />
<glyph horiz-adv-x="351" d="M267 89h52l-3 -16h-52l-11 -73h-17l11 73h-204l264 300zM250 89l32 232l-205 -232h173z" />
<glyph horiz-adv-x="353" d="M321 127q0 -57 -41 -94t-104 -37q-48 0 -81 25t-29 64h17q0 -32 26.5 -52.5t67.5 -20.5q55 0 90.5 31.5t35.5 80.5q0 37 -25 60.5t-75 23.5h-102l27 146h188l-2 -17h-173l-21 -113h86q56 0 85.5 -26.5t29.5 -70.5z" />
<glyph horiz-adv-x="356" d="M334 291h-17q-3 22 -24.5 36.5t-48.5 14.5q-60 0 -94 -41.5t-48 -102.5q-6 -22 -7 -50q14 39 50 63.5t79 24.5q47 0 74.5 -29.5t27.5 -74.5q0 -56 -38.5 -96t-98.5 -40q-113 0 -113 139q0 34 9 70.5t27.5 72t53 58t80.5 22.5q35 0 59.5 -19t28.5 -48zM192 12 q52 0 84.5 33.5t32.5 84.5q0 39 -24 64.5t-62 25.5q-51 0 -87.5 -34t-36.5 -84q0 -40 25 -65t68 -25z" />
<glyph horiz-adv-x="339" d="M310 337h-213l3 17h241l-243 -354h-19z" />
<glyph horiz-adv-x="354" d="M177 11q50 0 83.5 26t33.5 64q0 32 -25.5 53.5t-67.5 21.5q-49 0 -82 -26.5t-33 -64.5q0 -32 25 -53t66 -21zM226 358q46 0 74 -23t28 -59q0 -34 -24 -58t-61 -34q68 -22 68 -82q0 -46 -39 -76.5t-96 -30.5q-48 0 -78.5 24t-30.5 62q0 74 95 103q-28 9 -45 28t-17 45 q0 43 36 72t90 29zM203 192q46 0 76 24t30 58q0 29 -23 48.5t-61 19.5q-46 0 -76.5 -25t-30.5 -59q0 -29 23 -47.5t62 -18.5z" />
<glyph horiz-adv-x="356" d="M72 62h17q4 -22 27 -36t50 -14q106 0 138 141q6 26 9 53q-14 -39 -51 -64t-80 -25q-47 0 -74.5 29.5t-27.5 74.5q0 57 39 97t99 40q112 0 112 -139q0 -35 -7.5 -70t-24.5 -71.5t-52 -59t-82 -22.5q-35 0 -61 18.5t-31 47.5zM215 342q-53 0 -85 -34.5t-32 -85.5 q0 -38 23.5 -63.5t62.5 -25.5q50 0 87 35t37 85q0 39 -24.5 64t-68.5 25z" />
<glyph horiz-adv-x="369" d="M232 342q-51 0 -82 40.5t-31 108.5q0 94 48 154t117 60q52 0 83 -40.5t31 -107.5q0 -94 -48 -154.5t-118 -60.5zM235 358q61 0 103 55.5t42 141.5q0 61 -27 97.5t-72 36.5q-60 0 -102.5 -55t-42.5 -141q0 -62 27 -98.5t72 -36.5z" />
<glyph horiz-adv-x="297" d="M212 347l47 337l-103 -53l-6 13l131 69l-52 -366h-17z" />
<glyph horiz-adv-x="348" d="M140 363h204l-3 -16h-241l161 143q29 26 41.5 37.5t30 38t17.5 49.5q0 32 -22.5 53t-61.5 21q-43 0 -73 -24.5t-34 -62.5h-17q4 43 41.5 73t85.5 30q45 0 71.5 -24.5t26.5 -63.5q0 -26 -16 -53t-30.5 -41.5t-43.5 -39.5z" />
<glyph horiz-adv-x="350" d="M243 523l2 16q47 2 76.5 24.5t29.5 61.5q0 28 -22 46t-59 18q-39 0 -66.5 -19t-35.5 -50h-17q9 39 41.5 62t79.5 23q44 0 70 -22.5t26 -56.5q0 -73 -90 -95q31 -4 52 -24t21 -54q0 -47 -37 -79t-96 -32q-48 0 -80 25t-28 65h17q-1 -32 25 -53t67 -21q51 0 83 27.5 t32 66.5q0 33 -25 51t-66 20z" />
<glyph horiz-adv-x="351" d="M316 436h52l-3 -16h-52l-11 -73h-17l11 73h-204l264 300zM299 436l32 232l-205 -232h173z" />
<glyph horiz-adv-x="353" d="M369 473q0 -57 -41 -94t-104 -37q-48 0 -81 25t-29 64h17q0 -32 26.5 -52.5t67.5 -20.5q55 0 90.5 31.5t35.5 80.5q0 37 -25 60.5t-75 23.5h-102l27 146h188l-2 -17h-173l-21 -113h86q56 0 85.5 -26.5t29.5 -70.5z" />
<glyph horiz-adv-x="356" d="M383 637h-17q-3 22 -24.5 36.5t-48.5 14.5q-60 0 -94 -41.5t-48 -102.5q-6 -22 -7 -50q14 39 50 63.5t79 24.5q47 0 74.5 -29.5t27.5 -74.5q0 -56 -38.5 -96t-98.5 -40q-113 0 -113 139q0 34 9 70.5t27.5 72t53 58t80.5 22.5q35 0 59.5 -19t28.5 -48zM241 358 q52 0 84.5 33.5t32.5 84.5q0 39 -24 64.5t-62 25.5q-51 0 -87.5 -34t-36.5 -84q0 -40 25 -65t68 -25z" />
<glyph horiz-adv-x="339" d="M359 683h-213l3 17h241l-243 -354h-19z" />
<glyph horiz-adv-x="354" d="M226 358q50 0 83.5 26t33.5 64q0 32 -25.5 53.5t-67.5 21.5q-49 0 -82 -26.5t-33 -64.5q0 -32 25 -53t66 -21zM275 705q46 0 74 -23t28 -59q0 -34 -24 -58t-61 -34q68 -22 68 -82q0 -46 -39 -76.5t-96 -30.5q-48 0 -78.5 24t-30.5 62q0 74 95 103q-28 9 -45 28t-17 45 q0 43 36 72t90 29zM252 539q46 0 76 24t30 58q0 29 -23 48.5t-61 19.5q-46 0 -76.5 -25t-30.5 -59q0 -29 23 -47.5t62 -18.5z" />
<glyph horiz-adv-x="356" d="M121 408h17q4 -22 27 -36t50 -14q106 0 138 141q6 26 9 53q-14 -39 -51 -64t-80 -25q-47 0 -74.5 29.5t-27.5 74.5q0 57 39 97t99 40q112 0 112 -139q0 -35 -7.5 -70t-24.5 -71.5t-52 -59t-82 -22.5q-35 0 -61 18.5t-31 47.5zM264 688q-53 0 -85 -34.5t-32 -85.5 q0 -38 23.5 -63.5t62.5 -25.5q50 0 87 35t37 85q0 39 -24.5 64t-68.5 25z" />
<glyph horiz-adv-x="179" d="M155 403l-43 -301h-16l43 301h16zM72 11q0 9 7 15.5t16 6.5q16 0 16 -17q0 -8 -6.5 -15t-15.5 -7q-7 0 -12 5t-5 12z" />
<glyph horiz-adv-x="371" d="M96 256l2 16h60l36 131h18l-37 -131h116l37 131h17l-37 -131h54l-2 -16h-56l-28 -103h57l-3 -16h-59l-37 -137h-17l37 137h-116l-37 -137h-17l37 137h-55l3 16h57l28 103h-58zM171 256l-28 -103h116l28 103h-116z" />
<glyph horiz-adv-x="371" d="M260 460l-7 -52q43 -4 71.5 -27t32.5 -56h-17q-5 27 -28.5 45t-59.5 22l-26 -179q54 -20 81 -42.5t27 -59.5q0 -51 -41.5 -82t-97.5 -34l-8 -53h-17l8 53q-51 1 -83 24.5t-37 59.5h17q5 -29 32.5 -48t72.5 -20l27 190q-27 10 -42 16.5t-33.5 18t-26.5 28t-8 37.5 q0 41 36.5 73.5t102.5 33.5l7 52h17zM317 108q0 31 -23.5 50.5t-70.5 36.5l-26 -184q48 3 84 29t36 68zM114 304q0 -33 24.5 -51.5t71.5 -33.5l25 173q-56 -1 -88.5 -27.5t-32.5 -60.5z" />
<glyph horiz-adv-x="446" d="M408 399l-300 -404l-13 9l299 404zM249 70q0 44 27.5 73t71.5 29q34 0 54 -21.5t20 -55.5q0 -43 -27.5 -72t-71.5 -29q-35 0 -54.5 21t-19.5 55zM405 94q0 28 -15.5 45.5t-43.5 17.5q-36 0 -58.5 -24.5t-22.5 -61.5q0 -28 15.5 -45t43.5 -17q36 0 58.5 24t22.5 61z M79 306q0 43 27.5 72.5t71.5 29.5q35 0 55 -21.5t20 -55.5q0 -43 -28 -72t-72 -29q-35 0 -54.5 21t-19.5 55zM236 331q0 28 -15.5 45t-44.5 17q-35 0 -57 -24t-22 -61q0 -28 15 -45.5t43 -17.5q36 0 58.5 24.5t22.5 61.5z" />
<glyph horiz-adv-x="403" d="M66 90q0 20 7.5 37t13.5 26.5t27 24.5t26.5 18t34.5 20l-12 14q-39 47 -39 88q0 33 29 61.5t80 28.5q39 0 59 -20.5t20 -51.5q0 -21 -8.5 -38.5t-28.5 -33.5t-36 -26t-46 -26l124 -146q40 50 49 116l6 42h11l-6 -42q-11 -76 -53 -125l49 -57h-15l-41 48q-51 -53 -135 -53 q-52 0 -84 27t-32 68zM184 5q78 0 126 51l-128 151q-52 -28 -78.5 -53t-26.5 -63q0 -37 31 -61.5t76 -24.5zM169 241l17 -21q7 4 26.5 15t31.5 19t27 20.5t22.5 27.5t7.5 32q0 27 -17.5 45.5t-52.5 18.5q-44 0 -70 -24.5t-26 -54.5q0 -36 34 -78z" />
<glyph horiz-adv-x="327" d="M187 82h-18l10 79q28 16 44.5 27t39.5 29.5t34 40.5t11 47q0 38 -25.5 62t-71.5 24q-51 0 -85.5 -28t-39.5 -72h-18q4 49 47 83t99 34q52 0 81.5 -29t29.5 -73q0 -27 -10.5 -50t-33 -43t-39 -31.5t-45.5 -29.5zM148 11q0 9 7 15.5t16 6.5q16 0 16 -17q0 -8 -6.5 -15 t-15.5 -7q-7 0 -12 5t-5 12z" />
<glyph horiz-adv-x="370" d="M185 -5q-57 0 -90.5 45t-33.5 122q0 107 52.5 176.5t128.5 69.5q56 0 89.5 -45.5t33.5 -121.5q0 -108 -52 -177t-128 -69zM187 11q66 0 113 64t47 163q0 70 -29 111.5t-77 41.5q-68 0 -115.5 -64t-47.5 -163q0 -70 29.5 -111.5t79.5 -41.5z" />
<glyph horiz-adv-x="370" d="M195 0l55 387l-115 -62l-6 13l142 78l-59 -416h-17z" />
<glyph horiz-adv-x="370" d="M95 17h225l-3 -17h-263l176 162q62 57 80 87q19 30 19 58q0 37 -24.5 60.5t-66.5 23.5q-47 0 -81 -28t-38 -71h-17q4 48 45 82t94 34q49 0 77.5 -27.5t28.5 -71.5q0 -30 -17.5 -60.5t-33.5 -47.5t-47 -45z" />
<glyph horiz-adv-x="370" d="M210 201l3 17q50 2 82 28t32 71q0 32 -23.5 53t-64.5 21q-43 0 -73.5 -21.5t-38.5 -57.5h-17q11 43 46.5 69.5t85.5 26.5q47 0 74.5 -25t27.5 -64q0 -85 -99 -109q34 -5 57 -27.5t23 -62.5q0 -53 -40 -89t-105 -36q-52 0 -86 28.5t-31 72.5h17q-1 -37 27.5 -61t73.5 -24 q54 0 90.5 31.5t36.5 76.5q0 39 -27 59.5t-71 22.5z" />
<glyph horiz-adv-x="370" d="M283 100h56l-3 -16h-56l-12 -84h-18l12 84h-222l288 339zM265 100l37 269l-227 -269h190z" />
<glyph horiz-adv-x="370" d="M345 145q0 -66 -44 -108t-113 -42q-52 0 -87.5 28t-32.5 72h17q0 -37 29 -60t74 -23q63 0 101 36.5t38 93.5q0 43 -27 70t-82 27h-112q16 76 32 164h205l-2 -17h-190l-25 -131h95q61 0 92.5 -30.5t31.5 -79.5z" />
<glyph horiz-adv-x="370" d="M359 333h-17q-5 26 -28.5 42t-52.5 16q-120 0 -158 -171q-8 -31 -9 -59q16 48 56 77.5t88 29.5q51 0 80.5 -33t29.5 -84q0 -65 -42 -110.5t-108 -45.5q-56 0 -89 38.5t-33 119.5q0 39 10 80.5t30 81.5t58 66t87 26q38 0 65.5 -21t32.5 -53zM200 11q59 0 94.5 39.5 t35.5 98.5q0 45 -25 74t-68 29q-56 0 -97 -40.5t-41 -97.5q0 -45 27.5 -74t73.5 -29z" />
<glyph horiz-adv-x="370" d="M346 386h-234l3 17h262l-267 -403h-19z" />
<glyph horiz-adv-x="370" d="M187 11q54 0 91 30.5t37 74.5q0 36 -28 60.5t-73 24.5q-55 0 -91.5 -30.5t-36.5 -74.5q0 -36 27.5 -60.5t73.5 -24.5zM243 408q50 0 79.5 -25.5t29.5 -66.5q0 -40 -27 -68t-68 -38q75 -23 75 -94q0 -53 -42.5 -87t-104.5 -34q-52 0 -85 27t-33 70q0 86 105 118 q-30 8 -48.5 30t-18.5 52q0 50 39 83t99 33zM216 217q50 0 84.5 28.5t34.5 67.5q0 33 -26 55.5t-68 22.5q-50 0 -84.5 -28.5t-34.5 -67.5q0 -33 25.5 -55.5t68.5 -22.5z" />
<glyph horiz-adv-x="370" d="M69 70h17q4 -26 28.5 -42.5t54.5 -16.5q120 0 157 169q3 12 7 61q-15 -47 -56 -77t-89 -30q-51 0 -80.5 33t-29.5 84q0 65 42.5 110.5t107.5 45.5q57 0 90 -38t33 -118q0 -40 -8.5 -80.5t-28 -82t-57.5 -67.5t-90 -26q-38 0 -66 21.5t-32 53.5zM226 391q-58 0 -94 -39.5 t-36 -98.5q0 -45 25.5 -74t68.5 -29q56 0 97 40.5t41 98.5q0 45 -27 73.5t-75 28.5z" />
<glyph horiz-adv-x="370" d="M242 288l-8 -53q35 -2 62 -20t33 -47h-17q-6 22 -28.5 36.5t-51.5 15.5l-29 -210q30 2 56 16.5t39 36.5h17q-13 -29 -45.5 -47.5t-69.5 -20.5l-7 -53h-17l7 53q-44 4 -72 34.5t-28 72.5q0 51 39.5 89.5t94.5 43.5l8 53h17zM100 103q0 -38 23.5 -64t62.5 -29l29 210 q-48 -5 -81.5 -38t-33.5 -79z" />
<glyph horiz-adv-x="370" d="M116 171h75q-4 13 -33.5 55t-29.5 72q0 42 35.5 76t90.5 34q52 0 79.5 -33t16.5 -81h-17q7 44 -14.5 70.5t-67.5 26.5q-47 0 -76.5 -28.5t-29.5 -63.5q0 -28 29.5 -69t34.5 -59h89l-1 -15h-85q0 -8 -2 -22q-6 -34 -34.5 -66.5t-60.5 -51.5h212l-3 -16h-268l3 16h28 q40 17 73.5 56t33.5 76v8h-79z" />
<glyph horiz-adv-x="370" d="M89 245h77l-80 158h19l107 -213h1l168 213h18l-124 -158h77l-2 -15h-87l-34 -43l-9 -14h122l-3 -16h-123l-22 -157h-17l22 157h-123l3 16h122l-5 14l-22 43h-87z" />
<glyph horiz-adv-x="370" d="M382 375l-2 -19q-37 35 -89 35q-61 0 -105 -42t-59 -104h179l-8 -15h-174q-5 -13 -7 -28q-1 -5 -1 -29h151l-8 -16h-144q-1 -70 32 -108.5t91 -38.5q52 0 97 36l-2 -20q-41 -31 -99 -31q-65 0 -101.5 40.5t-35.5 121.5h-40l8 16h34q0 22 1 30q2 13 7 27h-39l7 15h35 q18 73 65.5 118t117.5 45q54 0 89 -33z" />
<glyph horiz-adv-x="370" d="M34 103l3 16h67l40 284h231l-3 -17h-214l-23 -160h197l-2 -16h-197l-12 -91h83l-3 -16h-83l-14 -103h-17l14 103h-67z" />
<glyph horiz-adv-x="370" d="M89 125h100q4 8 4 18q0 30 -26 67h-66l2 15h53q-28 42 -28 73q0 42 35.5 76t90.5 34q52 0 79.5 -33t16.5 -81h-17q7 44 -14.5 70.5t-67.5 26.5q-47 0 -76.5 -28.5t-29.5 -62.5q0 -28 35 -75h125l-2 -15h-113q21 -32 21 -66q0 -13 -3 -19h83l-3 -15h-86q-11 -28 -36 -53.5 t-51 -40.5h212l-3 -16h-268l3 16h28q28 12 55.5 38.5t40.5 55.5h-97z" />
<glyph horiz-adv-x="370" d="M64 294h50l16 109h87q58 0 92.5 -27t28.5 -82h50l-2 -15h-50q-10 -52 -51 -78t-99 -26h-71l-25 -175h-17l39 279h-50zM144 386l-13 -92h190q5 46 -25 69t-82 23h-70zM117 191h71q50 0 85.5 21.5t44.5 66.5h-189z" />
<glyph horiz-adv-x="371" d="M141 215l5 15h58l16 49q31 99 124 99q11 0 23 -2l-6 -16q-12 2 -20 2q-75 0 -102 -83l-16 -49h93l-4 -15h-94l-84 -266q-31 -98 -122 -98q-11 0 -23 2l5 15q5 -1 21 -1q74 0 101 82l85 266h-60z" />
<glyph horiz-adv-x="179" d="M63 -133l43 301h16l-43 -301h-16zM146 258q0 -9 -6.5 -15t-15.5 -6q-18 0 -18 17q0 8 7.5 14.5t16.5 6.5q7 0 11.5 -5t4.5 -12z" />
<glyph horiz-adv-x="327" d="M160 187h18l-10 -79q-27 -15 -43.5 -26t-39.5 -30t-34.5 -41t-11.5 -46q0 -38 25.5 -62.5t71.5 -24.5q51 0 85.5 28t39.5 72h18q-4 -48 -46.5 -82t-98.5 -34q-53 0 -82.5 28.5t-29.5 72.5q0 27 10.5 50t35 44t38 30.5t45.5 29.5zM200 258q0 -9 -7.5 -15t-16.5 -6 q-17 0 -17 17q0 8 7 14.5t16 6.5q7 0 12.5 -5t5.5 -12z" />
<glyph horiz-adv-x="656" d="M408 399l-300 -404l-13 9l299 404zM249 70q0 44 27.5 73t71.5 29q34 0 54 -21.5t20 -55.5q0 -43 -27.5 -72t-71.5 -29q-35 0 -54.5 21t-19.5 55zM405 94q0 28 -15.5 45.5t-43.5 17.5q-36 0 -58.5 -24.5t-22.5 -61.5q0 -28 15.5 -45t43.5 -17q36 0 58.5 24t22.5 61z M79 306q0 43 27.5 72.5t71.5 29.5q35 0 55 -21.5t20 -55.5q0 -43 -28 -72t-72 -29q-35 0 -54.5 21t-19.5 55zM236 331q0 28 -15.5 45t-44.5 17q-35 0 -57 -24t-22 -61q0 -28 15 -45.5t43 -17.5q36 0 58.5 24.5t22.5 61.5zM459 71q0 43 28 72t71 29q35 0 54.5 -21t19.5 -55 q0 -43 -27.5 -72.5t-71.5 -29.5q-34 0 -54 21.5t-20 55.5zM615 94q0 28 -15.5 45.5t-43.5 17.5q-35 0 -57.5 -24.5t-22.5 -60.5q0 -28 15.5 -45.5t42.5 -17.5q37 0 59 24t22 61z" />
<glyph horiz-adv-x="197" d="M96 463q0 17 18 17q14 0 14 -13q0 -7 -5.5 -12t-13.5 -5q-13 0 -13 13zM200 463q0 7 5.5 12t13.5 5q13 0 13 -13q0 -7 -5.5 -12t-12.5 -5q-14 0 -14 13z" />
<glyph horiz-adv-x="197" d="M87 457l2 14h151l-2 -14h-151z" />
<glyph horiz-adv-x="197" d="M171 509l62 -50l-10 -10l-55 39l-68 -39l-6 10z" />
<glyph horiz-adv-x="197" d="M238 498l-76 -51l-63 51l10 10l56 -40l67 40z" />
<glyph horiz-adv-x="196" d="M162 457q-24 0 -43.5 14.5t-21.5 36.5h15q4 -16 19.5 -26t33.5 -10t35.5 10t25.5 26h15q-6 -22 -30.5 -36.5t-48.5 -14.5z" />
<glyph horiz-adv-x="197" d="M148 463q0 17 18 17q14 0 14 -13q0 -7 -5.5 -12t-13.5 -5q-13 0 -13 13z" />
<glyph horiz-adv-x="197" d="M173 531q18 0 29.5 -11.5t11.5 -28.5q0 -19 -16 -34t-37 -15q-17 0 -28.5 11.5t-11.5 28.5q0 19 16 34t36 15zM171 519q-14 0 -25.5 -11t-11.5 -26q0 -12 8 -20t21 -8q15 0 26.5 10.5t11.5 25.5q0 12 -8.5 20.5t-21.5 8.5z" />
<glyph horiz-adv-x="196" d="M100 1h15v-1q-51 -31 -51 -64q0 -30 38 -30q18 0 31 4l-2 -14q-17 -5 -32 -5q-22 0 -35.5 11t-13.5 31q0 39 50 68z" />
<glyph horiz-adv-x="197" d="M95 457l-9 7q17 28 44 28q12 0 36 -10.5t35 -10.5q21 0 34 19l9 -6q-14 -29 -47 -29q-10 0 -35 10.5t-36 10.5q-19 0 -31 -19z" />
<glyph horiz-adv-x="197" d="M176 535l-61 -82l-11 6l54 84zM277 535l-61 -82l-12 6l54 84z" />
<glyph horiz-adv-x="197" d="M125 503l16 17l69 -63l-10 -9z" />
<glyph horiz-adv-x="431" d="M387 0l-41 128h-225l-77 -128h-18l248 414l131 -414h-18zM267 374l-137 -230h211z" />
<glyph horiz-adv-x="401" d="M113 210l-26 -194h128q62 0 103 27.5t41 83.5q0 83 -128 83h-118zM212 0h-145l57 403h136q117 0 117 -81q0 -38 -25.5 -66t-65.5 -36q41 -5 65.5 -29.5t24.5 -63.5q0 -61 -45.5 -94t-118.5 -33zM138 387l-22 -161h115q51 0 90.5 21.5t39.5 71.5q0 68 -104 68h-119z" />
<glyph horiz-adv-x="502" d="M72 178q0 93 74.5 161.5t174.5 68.5q69 0 116.5 -34t64.5 -91h-18q-15 47 -58 77.5t-107 30.5q-93 0 -161 -62.5t-68 -149.5q0 -73 49 -120.5t126 -47.5q64 0 117.5 32.5t79.5 81.5h19q-30 -59 -88.5 -95t-129.5 -36q-84 0 -137.5 53t-53.5 131z" />
<glyph horiz-adv-x="460" d="M67 0l57 403h138q84 0 133 -49.5t49 -126.5q0 -97 -66 -162t-169 -65h-142zM212 16q95 1 155 61t60 149q0 70 -45.5 115t-122.5 45h-121l-51 -370h125z" />
<glyph horiz-adv-x="379" d="M384 386h-246l-22 -160h229l-3 -16h-229l-26 -194h246l-3 -16h-263l57 403h263z" />
<glyph horiz-adv-x="359" d="M382 386h-244l-22 -160h227l-3 -16h-227l-29 -210h-17l57 403h261z" />
<glyph horiz-adv-x="521" d="M483 189h-185l3 16h203q-14 -95 -81.5 -152.5t-163.5 -57.5q-82 0 -134.5 52.5t-52.5 130.5q0 93 74.5 161.5t173.5 68.5q70 0 117 -34t64 -91h-19q-15 47 -57 77.5t-107 30.5q-93 0 -160.5 -62.5t-67.5 -149.5q0 -72 48.5 -120t122.5 -48q83 0 147 51t75 127z" />
<glyph horiz-adv-x="458" d="M448 403l-57 -403h-17l29 210h-290l-29 -210h-17l57 403h17l-25 -177h290l25 177h17z" />
<glyph horiz-adv-x="165" d="M148 403l-57 -403h-17l57 403h17z" />
<glyph horiz-adv-x="326" d="M260 109l42 294h17l-42 -294q-7 -50 -46.5 -82t-94.5 -32q-44 0 -74.5 23.5t-33.5 59.5h17q4 -29 29 -48.5t64 -19.5q49 0 82.5 27.5t39.5 71.5z" />
<glyph horiz-adv-x="376" d="M330 0l-168 223l-52 -40l-26 -183h-17l57 403h17l-29 -198l265 198h25l-225 -170l174 -233h-21z" />
<glyph horiz-adv-x="341" d="M124 403h17l-54 -387h234l-3 -16h-251z" />
<glyph horiz-adv-x="542" d="M151 420l124 -397l236 397l-15 -420h-17l14 359l-224 -372l-117 372l-89 -359h-17z" />
<glyph horiz-adv-x="466" d="M456 403l-59 -418l-261 380l-52 -365h-17l58 411l262 -378l52 370h17z" />
<glyph horiz-adv-x="523" d="M72 178q0 93 74.5 161.5t171.5 68.5q82 0 135.5 -52.5t53.5 -131.5q0 -92 -74.5 -160.5t-172.5 -68.5q-82 0 -135 52.5t-53 130.5zM90 179q0 -72 48.5 -119.5t123.5 -47.5q91 0 159.5 62t68.5 149q0 72 -49.5 120t-124.5 48q-90 0 -158 -62.5t-68 -149.5z" />
<glyph horiz-adv-x="393" d="M109 175l-25 -175h-17l57 403h147q54 0 88 -25t34 -75q0 -63 -43 -95.5t-110 -32.5h-131zM111 191h131q58 0 96 27.5t38 83.5q0 84 -108 84h-130z" />
<glyph horiz-adv-x="522" d="M72 178q0 93 74.5 161.5t171.5 68.5q82 0 135.5 -52.5t53.5 -131.5q0 -69 -44 -125t-112 -82h129l-2 -17h-208q-88 0 -143 50.5t-55 127.5zM90 180q0 -72 50.5 -117.5t130.5 -45.5q88 1 153.5 60.5t65.5 145.5q0 72 -49.5 120t-124.5 48q-90 0 -158 -62.5t-68 -148.5z " />
<glyph horiz-adv-x="396" d="M110 184l-26 -184h-17l57 403h143q55 0 89 -23.5t34 -71.5q0 -61 -41.5 -92.5t-96.5 -31.5l105 -184h-19l-106 184h-122zM113 200h127q59 0 96 25t37 81q0 80 -109 80h-126z" />
<glyph horiz-adv-x="343" d="M175 11q50 0 88.5 26t38.5 71q0 35 -27.5 54.5t-85.5 40.5q-50 18 -76.5 39.5t-26.5 58.5q0 43 36.5 75t103.5 32q48 0 78.5 -23.5t35.5 -59.5h-17q-5 30 -31 48.5t-67 18.5q-57 0 -89.5 -27t-32.5 -61q0 -33 24 -51.5t71 -34.5q61 -21 91 -44t30 -63q0 -53 -43.5 -84.5 t-102.5 -31.5q-53 0 -86 23t-38 61h17q6 -31 33.5 -49.5t75.5 -18.5z" />
<glyph horiz-adv-x="351" d="M381 403l-3 -16h-140l-54 -387h-17l54 387h-140l3 16h297z" />
<glyph horiz-adv-x="447" d="M225 11q72 0 113 41.5t51 111.5l33 239h18l-34 -239q-11 -76 -57.5 -122.5t-125.5 -46.5t-113 46.5t-23 122.5l34 239h17l-33 -239q-10 -70 19 -111.5t101 -41.5z" />
<glyph horiz-adv-x="400" d="M95 403l110 -377l217 377h18l-241 -417l-122 417h18z" />
<glyph horiz-adv-x="627" d="M459 34l176 369h17l-199 -416l-88 377l-195 -377l-81 416h17l72 -369l194 379z" />
<glyph horiz-adv-x="411" d="M369 0l-136 202l-191 -202h-19l203 214l-126 189h19l118 -178l169 178h19l-180 -189l143 -214h-19z" />
<glyph horiz-adv-x="359" d="M213 174l-25 -174h-17l25 174l-117 229h19l108 -213h1l168 213h19z" />
<glyph horiz-adv-x="381" d="M339 0h-304l332 387h-257l3 16h288l-333 -388h273z" />
<glyph horiz-adv-x="431" d="M387 0l-41 128h-225l-77 -128h-18l248 414l131 -414h-18zM267 374l-137 -230h211zM239 490l15 15l70 -58l-10 -8z" />
<glyph horiz-adv-x="431" d="M387 0l-41 128h-225l-77 -128h-18l248 414l131 -414h-18zM267 374l-137 -230h211zM319 505l10 -16l-89 -50l-7 7z" />
<glyph horiz-adv-x="431" d="M387 0l-41 128h-225l-77 -128h-18l248 414l131 -414h-18zM267 374l-137 -230h211zM284 495l64 -47l-9 -9l-57 37l-66 -37l-7 9z" />
<glyph horiz-adv-x="431" d="M387 0l-41 128h-225l-77 -128h-18l248 414l131 -414h-18zM267 374l-137 -230h211zM211 448l-9 5q17 26 44 26q12 0 36 -9.5t35 -9.5q20 0 34 18l9 -6q-14 -27 -48 -27q-10 0 -34.5 10t-35.5 10q-20 0 -31 -17z" />
<glyph horiz-adv-x="431" d="M387 0l-41 128h-225l-77 -128h-18l248 414l131 -414h-18zM267 374l-137 -230h211zM212 455q0 6 5.5 11t12.5 5q14 0 14 -13q0 -6 -5.5 -10.5t-13.5 -4.5q-13 0 -13 12zM316 455q0 6 5.5 11t12.5 5q14 0 14 -13q0 -6 -5.5 -10.5t-13.5 -4.5q-13 0 -13 12z" />
<glyph horiz-adv-x="431" d="M387 0l-41 128h-225l-77 -128h-18l248 414l131 -414h-18zM267 374l-137 -230h211zM288 519q18 0 30 -10.5t12 -26.5q0 -18 -16.5 -31.5t-37.5 -13.5q-17 0 -28.5 10.5t-11.5 26.5q0 18 15.5 31.5t36.5 13.5zM286 507q-14 0 -25.5 -10t-11.5 -23q0 -11 8.5 -18.5 t20.5 -7.5q16 0 27.5 10t11.5 23q0 11 -9 18.5t-22 7.5z" />
<glyph horiz-adv-x="431" d="M387 0l-41 128h-225l-77 -128h-18l248 414l131 -414h-18zM267 374l-137 -230h211zM203 447l2 13h151l-2 -13h-151z" />
<glyph horiz-adv-x="431" d="M387 0l-41 128h-225l-77 -128h-18l248 414l131 -414h-18zM267 374l-137 -230h211zM278 446q-24 0 -43.5 13.5t-22.5 33.5h15q4 -15 19.5 -24.5t33.5 -9.5t36.5 9.5t24.5 24.5h15q-7 -20 -30 -33.5t-48 -13.5z" />
<glyph horiz-adv-x="431" d="M269 384q17 0 29 -11.5t12 -28.5q0 -11 -8 -23l103 -321h-18l-41 128h-225l-77 -128h-18l192 320q-2 6 -2 12q0 22 15.5 37t37.5 15zM341 144l-52 162q-14 -11 -32 -11q-19 0 -30 11l-97 -162h211zM268 372q-16 0 -27.5 -10.5t-11.5 -26.5q0 -12 8.5 -20t21.5 -8 q15 0 26 10.5t11 26.5q0 12 -7.5 20t-20.5 8zM319 505l10 -16l-89 -50l-7 7z" />
<glyph horiz-adv-x="431" d="M387 0l-41 128h-225l-77 -128h-18l248 414l131 -414h-3q-50 -30 -50 -63q0 -31 38 -31q16 0 31 4l-2 -14q-18 -5 -32 -5q-22 0 -35.5 11t-13.5 31q0 38 49 67zM267 374l-137 -230h211z" />
<glyph horiz-adv-x="621" d="M626 386h-234l-22 -160h217l-3 -16h-217l-26 -194h234l-3 -16h-251l18 128h-184l-114 -128h-21l358 403h251zM169 144h172l32 230z" />
<glyph horiz-adv-x="621" d="M626 386h-234l-22 -160h217l-3 -16h-217l-26 -194h234l-3 -16h-251l18 128h-184l-114 -128h-21l358 403h251zM169 144h172l32 230zM414 505l10 -16l-89 -50l-7 7z" />
<glyph horiz-adv-x="502" d="M72 178q0 93 74.5 161.5t174.5 68.5q69 0 116.5 -34t64.5 -91h-18q-15 47 -58 77.5t-107 30.5q-93 0 -161 -62.5t-68 -149.5q0 -73 49 -120.5t126 -47.5q64 0 117.5 32.5t79.5 81.5h19q-30 -59 -88.5 -95t-129.5 -36q-84 0 -137.5 53t-53.5 131zM277 -30l-60 -81l-11 6 l52 82z" />
<glyph horiz-adv-x="502" d="M72 178q0 93 74.5 161.5t174.5 68.5q69 0 116.5 -34t64.5 -91h-18q-15 47 -58 77.5t-107 30.5q-93 0 -161 -62.5t-68 -149.5q0 -73 49 -120.5t126 -47.5q64 0 117.5 32.5t79.5 81.5h19q-30 -59 -88.5 -95t-129.5 -36q-84 0 -137.5 53t-53.5 131zM370 505l9 -16l-88 -50 l-8 7z" />
<glyph horiz-adv-x="502" d="M72 178q0 93 74.5 161.5t174.5 68.5q69 0 116.5 -34t64.5 -91h-18q-15 47 -58 77.5t-107 30.5q-93 0 -161 -62.5t-68 -149.5q0 -73 49 -120.5t126 -47.5q64 0 117.5 32.5t79.5 81.5h19q-30 -59 -88.5 -95t-129.5 -36q-84 0 -137.5 53t-53.5 131zM335 495l63 -47l-9 -9 l-57 37l-65 -37l-8 9z" />
<glyph horiz-adv-x="502" d="M72 178q0 93 74.5 161.5t174.5 68.5q69 0 116.5 -34t64.5 -91h-18q-15 47 -58 77.5t-107 30.5q-93 0 -161 -62.5t-68 -149.5q0 -73 49 -120.5t126 -47.5q64 0 117.5 32.5t79.5 81.5h19q-30 -59 -88.5 -95t-129.5 -36q-84 0 -137.5 53t-53.5 131zM313 455q0 6 5 11t12 5 q14 0 14 -13q0 -6 -5.5 -10.5t-12.5 -4.5q-13 0 -13 12z" />
<glyph horiz-adv-x="502" d="M72 178q0 93 74.5 161.5t174.5 68.5q69 0 116.5 -34t64.5 -91h-18q-15 47 -58 77.5t-107 30.5q-93 0 -161 -62.5t-68 -149.5q0 -73 49 -120.5t126 -47.5q64 0 117.5 32.5t79.5 81.5h19q-30 -59 -88.5 -95t-129.5 -36q-84 0 -137.5 53t-53.5 131zM402 485l-77 -47l-62 47 l9 8l56 -36l67 36z" />
<glyph horiz-adv-x="460" d="M67 0l24 170h-38l3 16h38l30 217h138q84 0 133 -49.5t49 -126.5q0 -96 -66 -161.5t-169 -65.5h-142zM212 16q95 1 155 61t60 149q0 71 -45 115.5t-122 44.5h-121l-28 -200h138l-3 -16h-138l-21 -154h125z" />
<glyph horiz-adv-x="448" d="M67 0l57 403h138q84 0 133 -49.5t49 -126.5q0 -97 -66 -162t-169 -65h-142zM212 16q95 1 155 61t60 149q0 70 -45.5 115t-122.5 45h-121l-51 -370h125zM362 485l-77 -47l-62 47l8 8l57 -36l66 36z" />
<glyph horiz-adv-x="460" d="M67 0l24 170h-38l3 16h38l30 217h138q84 0 133 -49.5t49 -126.5q0 -96 -66 -161.5t-169 -65.5h-142zM212 16q95 1 155 61t60 149q0 71 -45 115.5t-122 44.5h-121l-28 -200h138l-3 -16h-138l-21 -154h125z" />
<glyph horiz-adv-x="379" d="M384 386h-246l-22 -160h229l-3 -16h-229l-26 -194h246l-3 -16h-263l57 403h263zM231 490l15 15l70 -58l-9 -8z" />
<glyph horiz-adv-x="379" d="M384 386h-246l-22 -160h229l-3 -16h-229l-26 -194h246l-3 -16h-263l57 403h263zM311 505l10 -16l-89 -50l-7 7z" />
<glyph horiz-adv-x="379" d="M384 386h-246l-22 -160h229l-3 -16h-229l-26 -194h246l-3 -16h-263l57 403h263zM274 495l64 -47l-9 -9l-57 37l-66 -37l-7 9z" />
<glyph horiz-adv-x="379" d="M384 386h-246l-22 -160h229l-3 -16h-229l-26 -194h246l-3 -16h-263l57 403h263zM204 455q0 6 5.5 11t12.5 5q14 0 14 -13q0 -6 -5.5 -10.5t-13.5 -4.5q-13 0 -13 12zM308 455q0 6 5.5 11t12.5 5q14 0 14 -13q0 -6 -5.5 -10.5t-13.5 -4.5q-13 0 -13 12z" />
<glyph horiz-adv-x="379" d="M384 386h-246l-22 -160h229l-3 -16h-229l-26 -194h246l-3 -16h-263l57 403h263zM195 447l2 13h151l-2 -13h-151z" />
<glyph horiz-adv-x="379" d="M384 386h-246l-22 -160h229l-3 -16h-229l-26 -194h246l-3 -16h-263l57 403h263zM270 446q-24 0 -43.5 13.5t-22.5 33.5h15q4 -15 19.5 -24.5t33.5 -9.5t36.5 9.5t24.5 24.5h15q-7 -20 -30 -33.5t-48 -13.5z" />
<glyph horiz-adv-x="379" d="M384 386h-246l-22 -160h229l-3 -16h-229l-26 -194h246l-3 -16h-263l57 403h263zM256 455q0 6 5.5 11t12.5 5q14 0 14 -13q0 -6 -5.5 -10.5t-13.5 -4.5q-13 0 -13 12z" />
<glyph horiz-adv-x="379" d="M384 386h-246l-22 -160h229l-3 -16h-229l-26 -194h246l-3 -16h-19q-50 -30 -50 -63q0 -31 38 -31q18 0 31 4l-2 -14q-18 -5 -32 -5q-22 0 -35.5 11t-13.5 31q0 38 49 67h-229l57 403h263z" />
<glyph horiz-adv-x="379" d="M384 386h-246l-22 -160h229l-3 -16h-229l-26 -194h246l-3 -16h-263l57 403h263zM346 485l-78 -47l-61 47l8 8l56 -36l67 36z" />
<glyph horiz-adv-x="521" d="M483 189h-185l3 16h203q-14 -95 -81.5 -152.5t-163.5 -57.5q-82 0 -134.5 52.5t-52.5 130.5q0 93 74.5 161.5t173.5 68.5q70 0 117 -34t64 -91h-19q-15 47 -57 77.5t-107 30.5q-93 0 -160.5 -62.5t-67.5 -149.5q0 -72 48.5 -120t122.5 -48q83 0 147 51t75 127zM330 495 l63 -47l-9 -9l-57 37l-66 -37l-7 9z" />
<glyph horiz-adv-x="521" d="M483 189h-185l3 16h203q-14 -95 -81.5 -152.5t-163.5 -57.5q-82 0 -134.5 52.5t-52.5 130.5q0 93 74.5 161.5t173.5 68.5q70 0 117 -34t64 -91h-19q-15 47 -57 77.5t-107 30.5q-93 0 -160.5 -62.5t-67.5 -149.5q0 -72 48.5 -120t122.5 -48q83 0 147 51t75 127zM323 446 q-24 0 -44.5 13.5t-21.5 33.5h15q4 -15 19.5 -24.5t33.5 -9.5t35.5 9.5t25.5 24.5h15q-7 -20 -30 -33.5t-48 -13.5z" />
<glyph horiz-adv-x="521" d="M483 189h-185l3 16h203q-14 -95 -81.5 -152.5t-163.5 -57.5q-82 0 -134.5 52.5t-52.5 130.5q0 93 74.5 161.5t173.5 68.5q70 0 117 -34t64 -91h-19q-15 47 -57 77.5t-107 30.5q-93 0 -160.5 -62.5t-67.5 -149.5q0 -72 48.5 -120t122.5 -48q83 0 147 51t75 127zM309 455 q0 6 5 11t12 5q15 0 15 -13q0 -6 -5.5 -10.5t-13.5 -4.5q-13 0 -13 12z" />
<glyph horiz-adv-x="521" d="M483 189h-185l3 16h203q-14 -95 -81.5 -152.5t-163.5 -57.5q-82 0 -134.5 52.5t-52.5 130.5q0 93 74.5 161.5t173.5 68.5q70 0 117 -34t64 -91h-19q-15 47 -57 77.5t-107 30.5q-93 0 -160.5 -62.5t-67.5 -149.5q0 -72 48.5 -120t122.5 -48q83 0 147 51t75 127zM244 -50 l20 -5l-64 -107l-12 4z" />
<glyph horiz-adv-x="458" d="M448 403l-57 -403h-17l29 210h-290l-29 -210h-17l57 403h17l-25 -177h290l25 177h17zM298 495l63 -47l-9 -9l-56 37l-67 -37l-7 9z" />
<glyph horiz-adv-x="457" d="M60 307l2 14h49l12 82h18l-12 -82h289l12 82h17l-12 -82h49l-2 -14h-49l-43 -307h-17l30 210h-289l-30 -210h-18l43 307h-49zM116 226h289l11 81h-289z" />
<glyph horiz-adv-x="166" d="M148 403l-57 -403h-17l57 403h17zM106 490l15 15l70 -58l-9 -8z" />
<glyph horiz-adv-x="166" d="M148 403l-57 -403h-17l57 403h17zM186 505l10 -16l-89 -50l-7 7z" />
<glyph horiz-adv-x="166" d="M148 403l-57 -403h-17l57 403h17zM152 495l63 -47l-9 -9l-56 37l-67 -37l-7 9z" />
<glyph horiz-adv-x="166" d="M148 403l-57 -403h-17l57 403h17zM79 455q0 6 5.5 11t12.5 5q14 0 14 -13q0 -6 -5.5 -10.5t-13.5 -4.5q-13 0 -13 12zM183 455q0 6 6 11t13 5q13 0 13 -13q0 -6 -5.5 -10.5t-12.5 -4.5q-14 0 -14 12z" />
<glyph horiz-adv-x="167" d="M149 403l-57 -403h-17l57 403h17zM79 448l-9 5q17 26 44 26q12 0 36 -9.5t35 -9.5q22 0 34 18l9 -6q-14 -27 -47 -27q-10 0 -35 10t-36 10q-18 0 -31 -17z" />
<glyph horiz-adv-x="166" d="M148 403l-57 -403h-17l57 403h17zM70 447l2 13h151l-2 -13h-151z" />
<glyph horiz-adv-x="166" d="M149 403l-57 -403h-17l57 403h17zM146 446q-24 0 -44.5 13.5t-21.5 33.5h15q4 -15 19.5 -24.5t33.5 -9.5t35.5 9.5t25.5 24.5h15q-7 -20 -30.5 -33.5t-47.5 -13.5z" />
<glyph horiz-adv-x="165" d="M148 403l-57 -403h-2q-50 -32 -50 -63t38 -31q18 0 31 4l-2 -14q-17 -5 -32 -5q-22 0 -35.5 11t-13.5 31q0 38 49 67l57 403h17z" />
<glyph horiz-adv-x="166" d="M148 403l-57 -403h-17l57 403h17zM132 455q0 6 5.5 11t12.5 5q14 0 14 -13q0 -6 -5.5 -10.5t-13.5 -4.5q-13 0 -13 12z" />
<glyph horiz-adv-x="472" d="M148 403l-57 -403h-17l57 403h17zM405 109l42 294h18l-42 -294q-7 -50 -47 -82t-95 -32q-44 0 -73.5 23.5t-33.5 59.5h16q3 -29 29 -48.5t65 -19.5q49 0 82 27t39 72z" />
<glyph horiz-adv-x="327" d="M260 109l42 294h17l-42 -294q-7 -50 -46.5 -82t-94.5 -32q-44 0 -74.5 23.5t-33.5 59.5h17q4 -29 29 -48.5t64 -19.5q49 0 82.5 27.5t39.5 71.5zM323 495l64 -47l-10 -9l-57 37l-66 -37l-6 9z" />
<glyph horiz-adv-x="376" d="M330 0l-168 223l-52 -40l-26 -183h-17l57 403h17l-29 -198l265 198h25l-225 -170l174 -233h-21zM181 -50l18 -5l-63 -107l-11 4z" />
<glyph horiz-adv-x="341" d="M49 144l-6 13l50 25l31 221h17l-30 -210l153 78l5 -14l-160 -82l-23 -159h234l-2 -16h-251l23 164z" />
<glyph horiz-adv-x="341" d="M123 403h18l-54 -387h234l-3 -16h-252zM179 505l10 -16l-89 -50l-7 7z" />
<glyph horiz-adv-x="341" d="M124 403h17l-54 -387h234l-3 -16h-251zM182 -50l18 -5l-64 -107l-10 4z" />
<glyph horiz-adv-x="341" d="M124 403h17l-54 -387h234l-3 -16h-251zM268 405l18 -6l-64 -107l-10 4z" />
<glyph horiz-adv-x="341" d="M124 403h17l-54 -387h234l-3 -16h-251zM215 176q0 9 7 15.5t15 6.5q7 0 12.5 -5t5.5 -12q0 -9 -7.5 -15.5t-16.5 -6.5q-7 0 -11.5 5t-4.5 12z" />
<glyph horiz-adv-x="466" d="M456 403l-59 -418l-261 380l-52 -365h-17l58 411l262 -378l52 370h17zM228 448l-8 5q17 26 44 26q12 0 36 -9.5t35 -9.5q18 0 34 18l8 -6q-6 -11 -19.5 -19t-27.5 -8q-10 0 -34.5 10t-35.5 10q-19 0 -32 -17z" />
<glyph horiz-adv-x="466" d="M456 403l-59 -418l-261 380l-52 -365h-17l58 411l262 -378l52 370h17zM337 505l11 -16l-89 -50l-8 7z" />
<glyph horiz-adv-x="466" d="M456 403l-59 -418l-261 380l-52 -365h-17l58 411l262 -378l52 370h17zM230 -50l18 -5l-63 -107l-11 4z" />
<glyph horiz-adv-x="466" d="M456 403l-59 -418l-261 380l-52 -365h-17l58 411l262 -378l52 370h17zM372 485l-77 -47l-62 47l9 8l55 -36l67 36z" />
<glyph horiz-adv-x="466" d="M377 -35l6 41l-247 359l-52 -365h-17l58 411l262 -378l52 370h17l-62 -438q-7 -50 -46.5 -82t-94.5 -32q-44 0 -74 23.5t-34 59.5h17q4 -29 29 -48t64 -19q49 0 82.5 27t39.5 71z" />
<glyph horiz-adv-x="523" d="M72 178q0 93 74.5 161.5t171.5 68.5q82 0 135.5 -52.5t53.5 -131.5q0 -92 -74.5 -160.5t-172.5 -68.5q-82 0 -135 52.5t-53 130.5zM90 179q0 -72 48.5 -119.5t123.5 -47.5q91 0 159.5 62t68.5 149q0 72 -49.5 120t-124.5 48q-90 0 -158 -62.5t-68 -149.5zM285 490l15 15 l70 -58l-9 -8z" />
<glyph horiz-adv-x="523" d="M72 178q0 93 74.5 161.5t171.5 68.5q82 0 135.5 -52.5t53.5 -131.5q0 -92 -74.5 -160.5t-172.5 -68.5q-82 0 -135 52.5t-53 130.5zM90 179q0 -72 48.5 -119.5t123.5 -47.5q91 0 159.5 62t68.5 149q0 72 -49.5 120t-124.5 48q-90 0 -158 -62.5t-68 -149.5zM365 505l10 -16 l-89 -50l-7 7z" />
<glyph horiz-adv-x="523" d="M72 178q0 93 74.5 161.5t171.5 68.5q82 0 135.5 -52.5t53.5 -131.5q0 -92 -74.5 -160.5t-172.5 -68.5q-82 0 -135 52.5t-53 130.5zM90 179q0 -72 48.5 -119.5t123.5 -47.5q91 0 159.5 62t68.5 149q0 72 -49.5 120t-124.5 48q-90 0 -158 -62.5t-68 -149.5zM330 495l64 -47 l-9 -9l-58 37l-65 -37l-7 9z" />
<glyph horiz-adv-x="523" d="M72 178q0 93 74.5 161.5t171.5 68.5q82 0 135.5 -52.5t53.5 -131.5q0 -92 -74.5 -160.5t-172.5 -68.5q-82 0 -135 52.5t-53 130.5zM90 179q0 -72 48.5 -119.5t123.5 -47.5q91 0 159.5 62t68.5 149q0 72 -49.5 120t-124.5 48q-90 0 -158 -62.5t-68 -149.5zM257 448l-9 5 q15 26 43 26q12 0 36.5 -9.5t35.5 -9.5q19 0 33 18l9 -6q-13 -27 -47 -27q-10 0 -35 10t-36 10q-19 0 -30 -17z" />
<glyph horiz-adv-x="523" d="M72 178q0 93 74.5 161.5t171.5 68.5q82 0 135.5 -52.5t53.5 -131.5q0 -92 -74.5 -160.5t-172.5 -68.5q-82 0 -135 52.5t-53 130.5zM90 179q0 -72 48.5 -119.5t123.5 -47.5q91 0 159.5 62t68.5 149q0 72 -49.5 120t-124.5 48q-90 0 -158 -62.5t-68 -149.5zM258 455 q0 6 5 11t12 5q14 0 14 -13q0 -6 -5.5 -10.5t-12.5 -4.5q-13 0 -13 12zM362 455q0 6 5 11t12 5q14 0 14 -13q0 -6 -5.5 -10.5t-12.5 -4.5q-13 0 -13 12z" />
<glyph horiz-adv-x="523" d="M490 456l-60 -80q36 -25 56.5 -65t20.5 -87q0 -92 -74.5 -160.5t-172.5 -68.5q-56 0 -96 23l-60 -80l-15 8l60 80q-77 53 -77 152q0 93 74.5 161.5t171.5 68.5q56 0 98 -24l59 80zM90 179q0 -91 70 -138l246 329q-38 21 -90 21q-90 0 -158 -62.5t-68 -149.5zM490 223 q0 90 -71 138l-245 -329q38 -20 88 -20q91 0 159.5 62t68.5 149z" />
<glyph horiz-adv-x="523" d="M72 178q0 93 74.5 161.5t171.5 68.5q82 0 135.5 -52.5t53.5 -131.5q0 -92 -74.5 -160.5t-172.5 -68.5q-82 0 -135 52.5t-53 130.5zM90 179q0 -72 48.5 -119.5t123.5 -47.5q91 0 159.5 62t68.5 149q0 72 -49.5 120t-124.5 48q-90 0 -158 -62.5t-68 -149.5zM249 447l2 13 h151l-2 -13h-151z" />
<glyph horiz-adv-x="523" d="M72 178q0 93 74.5 161.5t171.5 68.5q82 0 135.5 -52.5t53.5 -131.5q0 -92 -74.5 -160.5t-172.5 -68.5q-82 0 -135 52.5t-53 130.5zM90 179q0 -72 48.5 -119.5t123.5 -47.5q91 0 159.5 62t68.5 149q0 72 -49.5 120t-124.5 48q-90 0 -158 -62.5t-68 -149.5zM324 446 q-24 0 -44 13.5t-22 33.5h15q4 -15 19.5 -24.5t33.5 -9.5t36 9.5t25 24.5h15q-7 -20 -30 -33.5t-48 -13.5z" />
<glyph horiz-adv-x="523" d="M72 178q0 93 74.5 161.5t171.5 68.5q82 0 135.5 -52.5t53.5 -131.5q0 -92 -74.5 -160.5t-172.5 -68.5q-82 0 -135 52.5t-53 130.5zM90 179q0 -72 48.5 -119.5t123.5 -47.5q91 0 159.5 62t68.5 149q0 72 -49.5 120t-124.5 48q-90 0 -158 -62.5t-68 -149.5zM341 516 l-60 -76l-11 6l52 78zM442 516l-60 -76l-11 6l51 78z" />
<glyph horiz-adv-x="523" d="M365 505l10 -16l-89 -50l-7 7zM490 456l-60 -80q36 -25 56.5 -65t20.5 -87q0 -92 -74.5 -160.5t-172.5 -68.5q-56 0 -96 23l-60 -80l-15 8l60 80q-77 53 -77 152q0 93 74.5 161.5t171.5 68.5q56 0 98 -24l59 80zM90 179q0 -91 70 -138l246 329q-38 21 -90 21 q-90 0 -158 -62.5t-68 -149.5zM490 223q0 90 -71 138l-245 -329q38 -20 88 -20q91 0 159.5 62t68.5 149z" />
<glyph horiz-adv-x="772" d="M777 386h-246l-22 -160h229l-3 -16h-229l-27 -194h246l-2 -16h-263l16 121q-32 -56 -90.5 -91t-125.5 -35q-82 0 -135 52.5t-53 130.5q0 93 74.5 161.5t171.5 68.5q67 0 115.5 -35t66.5 -92l17 122h263zM90 179q0 -72 48.5 -119.5t123.5 -47.5q91 0 159.5 62t68.5 149 q0 72 -49.5 120t-124.5 48q-90 0 -158 -62.5t-68 -149.5z" />
<glyph horiz-adv-x="394" d="M110 184l-26 -184h-17l57 403h143q55 0 89 -23.5t34 -71.5q0 -61 -41.5 -92.5t-96.5 -31.5l105 -184h-19l-106 184h-122zM113 200h127q59 0 96 25t37 81q0 80 -109 80h-126zM301 505l10 -16l-89 -50l-7 7z" />
<glyph horiz-adv-x="394" d="M110 184l-26 -184h-17l57 403h143q55 0 89 -23.5t34 -71.5q0 -61 -41.5 -92.5t-96.5 -31.5l105 -184h-19l-106 184h-122zM113 200h127q59 0 96 25t37 81q0 80 -109 80h-126zM188 -50l18 -5l-63 -107l-10 4z" />
<glyph horiz-adv-x="394" d="M110 184l-26 -184h-17l57 403h143q55 0 89 -23.5t34 -71.5q0 -61 -41.5 -92.5t-96.5 -31.5l105 -184h-19l-106 184h-122zM113 200h127q59 0 96 25t37 81q0 80 -109 80h-126zM336 485l-78 -47l-61 47l8 8l56 -36l67 36z" />
<glyph horiz-adv-x="343" d="M175 11q50 0 88.5 26t38.5 71q0 35 -27.5 54.5t-85.5 40.5q-50 18 -76.5 39.5t-26.5 58.5q0 43 36.5 75t103.5 32q48 0 78.5 -23.5t35.5 -59.5h-17q-5 30 -31 48.5t-67 18.5q-57 0 -89.5 -27t-32.5 -61q0 -33 24 -51.5t71 -34.5q61 -21 91 -44t30 -63q0 -53 -43.5 -84.5 t-102.5 -31.5q-53 0 -86 23t-38 61h17q6 -31 33.5 -49.5t75.5 -18.5zM276 505l11 -16l-90 -50l-7 7z" />
<glyph horiz-adv-x="343" d="M175 11q50 0 88.5 26t38.5 71q0 35 -27.5 54.5t-85.5 40.5q-50 18 -76.5 39.5t-26.5 58.5q0 43 36.5 75t103.5 32q48 0 78.5 -23.5t35.5 -59.5h-17q-5 30 -31 48.5t-67 18.5q-57 0 -89.5 -27t-32.5 -61q0 -33 24 -51.5t71 -34.5q61 -21 91 -44t30 -63q0 -53 -43.5 -84.5 t-102.5 -31.5q-53 0 -86 23t-38 61h17q6 -31 33.5 -49.5t75.5 -18.5zM242 495l63 -47l-9 -9l-57 37l-66 -37l-7 9z" />
<glyph horiz-adv-x="343" d="M175 11q50 0 88.5 26t38.5 71q0 35 -27.5 54.5t-85.5 40.5q-50 18 -76.5 39.5t-26.5 58.5q0 43 36.5 75t103.5 32q48 0 78.5 -23.5t35.5 -59.5h-17q-5 30 -31 48.5t-67 18.5q-57 0 -89.5 -27t-32.5 -61q0 -33 24 -51.5t71 -34.5q61 -21 91 -44t30 -63q0 -53 -43.5 -84.5 t-102.5 -31.5q-53 0 -86 23t-38 61h17q6 -31 33.5 -49.5t75.5 -18.5zM310 485l-76 -47l-63 47l10 8l55 -36l68 36z" />
<glyph horiz-adv-x="343" d="M175 11q50 0 88.5 26t38.5 71q0 35 -27.5 54.5t-85.5 40.5q-50 18 -76.5 39.5t-26.5 58.5q0 43 36.5 75t103.5 32q48 0 78.5 -23.5t35.5 -59.5h-17q-5 30 -31 48.5t-67 18.5q-57 0 -89.5 -27t-32.5 -61q0 -33 24 -51.5t71 -34.5q61 -21 91 -44t30 -63q0 -53 -43.5 -84.5 t-102.5 -31.5q-53 0 -86 23t-38 61h17q6 -31 33.5 -49.5t75.5 -18.5zM182 -30l-60 -81l-11 6l52 82z" />
<glyph horiz-adv-x="343" d="M175 11q50 0 88.5 26t38.5 71q0 35 -27.5 54.5t-85.5 40.5q-50 18 -76.5 39.5t-26.5 58.5q0 43 36.5 75t103.5 32q48 0 78.5 -23.5t35.5 -59.5h-17q-5 30 -31 48.5t-67 18.5q-57 0 -89.5 -27t-32.5 -61q0 -33 24 -51.5t71 -34.5q61 -21 91 -44t30 -63q0 -53 -43.5 -84.5 t-102.5 -31.5q-53 0 -86 23t-38 61h17q6 -31 33.5 -49.5t75.5 -18.5zM157 -50l18 -5l-63 -107l-12 4z" />
<glyph horiz-adv-x="686" d="M175 11q50 0 88.5 26t38.5 71q0 35 -27.5 54.5t-85.5 40.5q-50 18 -76.5 39.5t-26.5 58.5q0 43 36.5 75t103.5 32q48 0 78.5 -23.5t35.5 -59.5h-17q-5 30 -31 48.5t-67 18.5q-57 0 -89.5 -27t-32.5 -61q0 -33 24 -51.5t71 -34.5q61 -21 91 -44t30 -63q0 -53 -43.5 -84.5 t-102.5 -31.5q-53 0 -86 23t-38 61h17q6 -31 33.5 -49.5t75.5 -18.5zM518 11q50 0 88.5 26t38.5 71q0 35 -27.5 54.5t-85.5 40.5q-50 18 -76.5 39.5t-26.5 58.5q0 43 36.5 75t103.5 32q48 0 78.5 -23.5t35.5 -59.5h-17q-5 30 -31 48.5t-67 18.5q-56 0 -89 -27t-33 -61 q0 -33 24 -51.5t71 -34.5q61 -21 91 -44t30 -63q0 -53 -43.5 -84.5t-102.5 -31.5q-53 0 -86 23t-38 61h17q6 -31 33.5 -49.5t75.5 -18.5z" />
<glyph horiz-adv-x="351" d="M381 403l-3 -16h-140l-54 -387h-17l54 387h-140l3 16h297zM160 -50l18 -5l-64 -107l-10 4z" />
<glyph horiz-adv-x="351" d="M381 403l-3 -16h-140l-54 -387h-17l54 387h-140l3 16h297zM314 485l-78 -47l-61 47l8 8l56 -36l67 36z" />
<glyph horiz-adv-x="351" d="M121 195l1 14h74l25 178h-140l3 16h297l-3 -16h-140l-25 -178h74l-1 -14h-74l-28 -195h-17l28 195h-74z" />
<glyph horiz-adv-x="352" d="M98 103l-14 -103h-17l57 403h17l-12 -81h88q55 0 89 -23t34 -72q0 -64 -42.5 -94t-110.5 -30h-89zM101 120h89q133 0 133 106q0 80 -108 80h-88z" />
<glyph horiz-adv-x="447" d="M225 11q72 0 113 41.5t51 111.5l33 239h18l-34 -239q-11 -76 -57.5 -122.5t-125.5 -46.5t-113 46.5t-23 122.5l34 239h17l-33 -239q-10 -70 19 -111.5t101 -41.5zM247 490l14 15l71 -58l-10 -8z" />
<glyph horiz-adv-x="447" d="M225 11q72 0 113 41.5t51 111.5l33 239h18l-34 -239q-11 -76 -57.5 -122.5t-125.5 -46.5t-113 46.5t-23 122.5l34 239h17l-33 -239q-10 -70 19 -111.5t101 -41.5zM327 505l11 -16l-90 -50l-7 7z" />
<glyph horiz-adv-x="447" d="M225 11q72 0 113 41.5t51 111.5l33 239h18l-34 -239q-11 -76 -57.5 -122.5t-125.5 -46.5t-113 46.5t-23 122.5l34 239h17l-33 -239q-10 -70 19 -111.5t101 -41.5zM293 495l63 -47l-9 -9l-56 37l-67 -37l-7 9z" />
<glyph horiz-adv-x="447" d="M225 11q72 0 113 41.5t51 111.5l33 239h18l-34 -239q-11 -76 -57.5 -122.5t-125.5 -46.5t-113 46.5t-23 122.5l34 239h17l-33 -239q-10 -70 19 -111.5t101 -41.5zM221 455q0 6 5 11t12 5q13 0 13 -13q0 -6 -5 -10.5t-12 -4.5q-13 0 -13 12zM325 455q0 6 5 11t12 5 q14 0 14 -13q0 -6 -5.5 -10.5t-12.5 -4.5q-13 0 -13 12z" />
<glyph horiz-adv-x="447" d="M225 11q72 0 113 41.5t51 111.5l33 239h18l-34 -239q-11 -76 -57.5 -122.5t-125.5 -46.5t-113 46.5t-23 122.5l34 239h17l-33 -239q-10 -70 19 -111.5t101 -41.5zM219 448l-9 5q17 26 44 26q12 0 36 -9.5t35 -9.5q20 0 34 18l9 -6q-14 -27 -47 -27q-10 0 -35 10t-36 10 q-18 0 -31 -17z" />
<glyph horiz-adv-x="447" d="M225 11q72 0 113 41.5t51 111.5l33 239h18l-34 -239q-11 -76 -57.5 -122.5t-125.5 -46.5t-113 46.5t-23 122.5l34 239h17l-33 -239q-10 -70 19 -111.5t101 -41.5zM211 447l2 13h151l-2 -13h-151z" />
<glyph horiz-adv-x="447" d="M225 11q72 0 113 41.5t51 111.5l33 239h18l-34 -239q-11 -76 -57.5 -122.5t-125.5 -46.5t-113 46.5t-23 122.5l34 239h17l-33 -239q-10 -70 19 -111.5t101 -41.5zM286 446q-24 0 -43.5 13.5t-22.5 33.5h15q4 -15 19.5 -24.5t33.5 -9.5t36 9.5t25 24.5h15 q-7 -20 -30 -33.5t-48 -13.5z" />
<glyph horiz-adv-x="447" d="M225 11q72 0 113 41.5t51 111.5l33 239h18l-34 -239q-11 -76 -57.5 -122.5t-125.5 -46.5t-113 46.5t-23 122.5l34 239h17l-33 -239q-10 -70 19 -111.5t101 -41.5zM297 519q17 0 29 -10.5t12 -26.5q0 -19 -16 -32t-37 -13q-17 0 -28.5 10.5t-11.5 26.5q0 19 15.5 32 t36.5 13zM295 507q-15 0 -26 -10t-11 -23q0 -11 8 -18.5t20 -7.5q16 0 27.5 10t11.5 23q0 11 -8.5 18.5t-21.5 7.5z" />
<glyph horiz-adv-x="447" d="M225 11q72 0 113 41.5t51 111.5l33 239h18l-34 -239q-11 -76 -57.5 -122.5t-125.5 -46.5t-113 46.5t-23 122.5l34 239h17l-33 -239q-10 -70 19 -111.5t101 -41.5zM296 516l-60 -76l-11 6l53 78zM397 516l-61 -76l-11 6l53 78z" />
<glyph horiz-adv-x="447" d="M225 11q72 0 113 41.5t51 111.5l33 239h18l-33 -239q-9 -69 -50.5 -115t-109.5 -53q-44 -29 -44 -60q0 -30 38 -30q18 0 31 4l-2 -14q-18 -5 -33 -5q-22 0 -35.5 11t-13.5 31q0 33 41 62h-6q-79 0 -113 46.5t-23 122.5l34 239h17l-33 -239q-10 -70 19 -111.5t101 -41.5z " />
<glyph horiz-adv-x="627" d="M459 34l176 369h17l-199 -416l-88 377l-195 -377l-81 416h17l72 -369l194 379zM383 495l63 -47l-9 -9l-56 37l-67 -37l-7 9z" />
<glyph horiz-adv-x="627" d="M459 34l176 369h17l-199 -416l-88 377l-195 -377l-81 416h17l72 -369l194 379zM337 490l15 15l70 -58l-9 -8z" />
<glyph horiz-adv-x="627" d="M459 34l176 369h17l-199 -416l-88 377l-195 -377l-81 416h17l72 -369l194 379zM417 505l11 -16l-90 -50l-7 7z" />
<glyph horiz-adv-x="627" d="M459 34l176 369h17l-199 -416l-88 377l-195 -377l-81 416h17l72 -369l194 379zM310 455q0 6 5.5 11t12.5 5q14 0 14 -13q0 -6 -5.5 -10.5t-13.5 -4.5q-13 0 -13 12zM414 455q0 6 5.5 11t12.5 5q14 0 14 -13q0 -6 -5.5 -10.5t-13.5 -4.5q-13 0 -13 12z" />
<glyph horiz-adv-x="359" d="M213 174l-25 -174h-17l25 174l-117 229h19l108 -213h1l168 213h19zM283 505l11 -16l-90 -50l-7 7z" />
<glyph horiz-adv-x="359" d="M213 174l-25 -174h-17l25 174l-117 229h19l108 -213h1l168 213h19zM282 455q0 6 5.5 11t12.5 5q14 0 14 -13q0 -6 -5.5 -10.5t-13.5 -4.5q-13 0 -13 12zM177 455q0 6 6 11t13 5q13 0 13 -13q0 -6 -5.5 -10.5t-12.5 -4.5q-14 0 -14 12z" />
<glyph horiz-adv-x="359" d="M213 174l-25 -174h-17l25 174l-117 229h19l108 -213h1l168 213h19zM249 495l63 -47l-9 -9l-56 37l-67 -37l-7 9z" />
<glyph horiz-adv-x="359" d="M213 174l-25 -174h-17l25 174l-117 229h19l108 -213h1l168 213h19zM203 490l15 15l70 -58l-10 -8z" />
<glyph horiz-adv-x="381" d="M339 0h-304l332 387h-257l3 16h288l-333 -388h273zM329 485l-78 -47l-61 47l8 8l56 -36l67 36z" />
<glyph horiz-adv-x="381" d="M339 0h-304l332 387h-257l3 16h288l-333 -388h273zM294 505l10 -16l-89 -50l-7 7z" />
<glyph horiz-adv-x="381" d="M339 0h-304l332 387h-257l3 16h288l-333 -388h273zM239 455q0 6 5.5 11t12.5 5q14 0 14 -13q0 -6 -5.5 -10.5t-13.5 -4.5q-13 0 -13 12z" />
<glyph horiz-adv-x="964" d="M382 386h-244l-22 -160h227l-3 -16h-227l-29 -210h-17l57 403h261zM741 386h-244l-22 -160h227l-3 -16h-227l-29 -210h-17l57 403h261zM898 109l42 294h17l-42 -294q-7 -50 -46.5 -82t-94.5 -32q-44 0 -74 23.5t-34 59.5h17q3 -29 29 -48.5t65 -19.5q49 0 82 27.5 t39 71.5z" />
<glyph horiz-adv-x="1069" d="M382 386h-244l-22 -160h227l-3 -16h-227l-29 -210h-17l57 403h261zM741 386h-244l-22 -160h227l-3 -16h-227l-29 -210h-17l57 403h261zM1099 403l-3 -16h-140l-54 -387h-17l54 387h-140l3 16h297z" />
<glyph horiz-adv-x="524" d="M382 386h-244l-22 -160h227l-3 -16h-227l-29 -210h-17l57 403h261zM507 403l-57 -403h-17l57 403h17z" />
<glyph horiz-adv-x="700" d="M382 386h-244l-22 -160h227l-3 -16h-227l-29 -210h-17l57 403h261zM483 403h17l-54 -387h234l-3 -16h-251z" />
<glyph horiz-adv-x="883" d="M382 386h-244l-22 -160h227l-3 -16h-227l-29 -210h-17l57 403h261zM741 386h-244l-22 -160h227l-3 -16h-227l-29 -210h-17l57 403h261zM866 403l-57 -403h-17l57 403h17z" />
<glyph horiz-adv-x="1059" d="M382 386h-244l-22 -160h227l-3 -16h-227l-29 -210h-17l57 403h261zM741 386h-244l-22 -160h227l-3 -16h-227l-29 -210h-17l57 403h261zM842 403h17l-54 -387h234l-3 -16h-251z" />
<glyph horiz-adv-x="1119" d="M382 386h-244l-22 -160h227l-3 -16h-227l-29 -210h-17l57 403h261zM741 386h-244l-22 -160h227l-3 -16h-227l-29 -210h-17l57 403h261zM831 210l-26 -194h128q62 0 103 27.5t41 83.5q0 83 -128 83h-118zM930 0h-145l57 403h136q117 0 117 -81q0 -38 -25.5 -66t-65.5 -36 q41 -5 65.5 -29.5t24.5 -63.5q0 -61 -45.5 -94t-118.5 -33zM856 387l-22 -161h115q51 0 90.5 21.5t39.5 71.5q0 68 -104 68h-119z" />
<glyph horiz-adv-x="1176" d="M382 386h-244l-22 -160h227l-3 -16h-227l-29 -210h-17l57 403h261zM741 386h-244l-22 -160h227l-3 -16h-227l-29 -210h-17l57 403h261zM1166 403l-57 -403h-17l29 210h-290l-29 -210h-17l57 403h17l-25 -177h290l25 177h17z" />
<glyph horiz-adv-x="1094" d="M382 386h-244l-22 -160h227l-3 -16h-227l-29 -210h-17l57 403h261zM741 386h-244l-22 -160h227l-3 -16h-227l-29 -210h-17l57 403h261zM1048 0l-168 223l-52 -40l-26 -183h-17l57 403h17l-29 -198l265 198h25l-225 -170l174 -233h-21z" />
<glyph horiz-adv-x="605" d="M382 386h-244l-22 -160h227l-3 -16h-227l-29 -210h-17l57 403h261zM539 109l42 294h17l-42 -294q-7 -50 -46.5 -82t-94.5 -32q-44 0 -74 23.5t-34 59.5h17q3 -29 29 -48.5t65 -19.5q49 0 82 27.5t39 71.5z" />
<glyph horiz-adv-x="710" d="M382 386h-244l-22 -160h227l-3 -16h-227l-29 -210h-17l57 403h261zM740 403l-3 -16h-140l-54 -387h-17l54 387h-140l3 16h297z" />
<glyph horiz-adv-x="702" d="M381 403l-3 -16h-140l-54 -387h-17l54 387h-140l3 16h297zM732 403l-3 -16h-140l-54 -387h-17l54 387h-140l3 16h297z" />
<glyph horiz-adv-x="718" d="M382 386h-244l-22 -160h227l-3 -16h-227l-29 -210h-17l57 403h261zM741 386h-244l-22 -160h227l-3 -16h-227l-29 -210h-17l57 403h261z" />
<glyph horiz-adv-x="760" d="M382 386h-244l-22 -160h227l-3 -16h-227l-29 -210h-17l57 403h261zM472 210l-26 -194h128q62 0 103 27.5t41 83.5q0 83 -128 83h-118zM571 0h-145l57 403h136q117 0 117 -81q0 -38 -25.5 -66t-65.5 -36q41 -5 65.5 -29.5t24.5 -63.5q0 -61 -45.5 -94t-118.5 -33zM497 387 l-22 -161h115q51 0 90.5 21.5t39.5 71.5q0 68 -104 68h-119z" />
<glyph horiz-adv-x="817" d="M382 386h-244l-22 -160h227l-3 -16h-227l-29 -210h-17l57 403h261zM807 403l-57 -403h-17l29 210h-290l-29 -210h-17l57 403h17l-25 -177h290l25 177h17z" />
<glyph horiz-adv-x="735" d="M382 386h-244l-22 -160h227l-3 -16h-227l-29 -210h-17l57 403h261zM689 0l-168 223l-52 -40l-26 -183h-17l57 403h17l-29 -198l265 198h25l-225 -170l174 -233h-21z" />
<glyph horiz-adv-x="197" d="M183 370l10 -17l-90 -55l-7 9z" />
<glyph horiz-adv-x="197" d="M114 -30l-60 -81l-11 6l52 82z" />
</font>
</defs>
</svg>
