<?xml version="1.0" encoding="UTF-8" standalone="no"?>
<svg width="28px" height="66px" viewBox="0 0 28 66" version="1.1" xmlns="http://www.w3.org/2000/svg" xmlns:xlink="http://www.w3.org/1999/xlink" xmlns:sketch="http://www.bohemiancoding.com/sketch/ns">
    <!-- Generator: Sketch 3.3.3 (12072) - http://www.bohemiancoding.com/sketch -->
    <title>accordion-close + accordion-open@2x</title>
    <desc>Created with Sketch.</desc>
    <defs></defs>
    <g id="Page-1" stroke="none" stroke-width="1" fill="none" fill-rule="evenodd" sketch:type="MSPage">
        <g id="accordion-close-+-accordion-open" sketch:type="MSLayerGroup">
            <g id="accordion-close" transform="translate(0.000000, 38.000000)" sketch:type="MSShapeGroup">
                <g id="Group">
                    <path d="M28,25.199 C28,26.746 26.747,28 25.199,28 L2.8,28 C1.253,28 0,26.746 0,25.199 L0,2.8 C0,1.254 1.253,0 2.8,0 L25.199,0 C26.747,0 28,1.254 28,2.8 L28,25.199 L28,25.199 Z" id="Shape" fill="#36312A"></path>
                    <path d="M21,13 L7,13 L7,15 L21,15 L21,13 Z" id="Shape" fill="#FFFFFF"></path>
                </g>
            </g>
            <g id="accordion-open" sketch:type="MSShapeGroup">
                <g id="Group">
                    <path d="M28,25.199 C28,26.746 26.747,28 25.199,28 L2.8,28 C1.253,28 0,26.746 0,25.199 L0,2.8 C0,1.254 1.253,0 2.8,0 L25.199,0 C26.747,0 28,1.254 28,2.8 L28,25.199 L28,25.199 Z" id="Shape" fill="#36312A"></path>
                    <path d="M21,13 L15,13 L15,7 L13,7 L13,13 L7,13 L7,15 L13,15 L13,21 L15,21 L15,15 L21,15 L21,13 Z" id="Shape" fill="#FFFFFF"></path>
                </g>
            </g>
        </g>
    </g>
</svg>