<?xml version="1.0" encoding="UTF-8" standalone="no"?>
<svg width="132px" height="37px" viewBox="0 0 132 37" version="1.1" xmlns="http://www.w3.org/2000/svg" xmlns:xlink="http://www.w3.org/1999/xlink" xmlns:sketch="http://www.bohemiancoding.com/sketch/ns">
    <!-- Generator: Sketch 3.3.3 (12072) - http://www.bohemiancoding.com/sketch -->
    <title>logo-enchanting@2x</title>
    <desc>Created with Sketch.</desc>
    <defs></defs>
    <g id="Page-1" stroke="none" stroke-width="1" fill="none" fill-rule="evenodd" sketch:type="MSPage">
        <g id="logo-enchanting" sketch:type="MSLayerGroup">
            <g id="Page-1" sketch:type="MSShapeGroup">
                <g id="logo">
                    <g id="Group">
                        <g id="Shape" transform="translate(31.680000, 28.329979)" fill="#AD926E">
                            <path d="M5.03536,1.87774648 L5.03536,6.08297786 C5.03536,6.71243461 5.126,7.1595171 5.30728,7.42156941 C5.48768,7.68362173 5.808,7.83146881 6.26736,7.86245473 C6.40024,7.86953723 6.468,7.93770624 6.468,8.05810865 C6.468,8.14309859 6.40992,8.18736419 6.29552,8.18736419 C6.27,8.18736419 6.22248,8.18647888 6.15736,8.181167 L5.73936,8.1661167 L5.04416,8.11830986 C4.9896,8.11565392 4.91568,8.11299799 4.82416,8.11299799 C4.6068,8.11299799 4.41584,8.11830986 4.24512,8.1289336 L3.0184,8.19975855 C2.88816,8.21569417 2.7984,8.22277666 2.74912,8.22277666 C2.63472,8.22277666 2.57928,8.17319919 2.58368,8.07404427 C2.5872,7.99171026 2.60656,7.94036217 2.63912,7.91468812 C2.6708,7.89078471 2.7456,7.87219316 2.85648,7.86599597 C3.14512,7.84651911 3.36952,7.74293763 3.52792,7.55171026 C3.68544,7.35871228 3.76552,7.09843059 3.76552,6.76732394 L3.76112,6.50438632 L3.76112,1.55018109 C3.76112,1.25625754 3.60184,1.10929577 3.28768,1.10929577 C2.54584,1.10929577 2.03808,1.1632998 1.7688,1.27219316 C1.56904,1.35452717 1.43792,1.4465996 1.37544,1.54841047 C1.3112,1.65110664 1.22056,1.90519115 1.1088,2.3115493 L1.06656,2.47090543 C1.02608,2.62140845 0.961840003,2.69754527 0.87736,2.69754527 C0.75416,2.69754527 0.69608,2.64088531 0.70488,2.52490946 C0.71016,2.42044265 0.726,2.2743662 0.76032,2.08845071 L0.81752,1.60329979 L0.88352,1.10663984 L0.92488,0.767565393 C0.938080003,0.620603622 1.0164,0.546237425 1.15544,0.546237425 C1.19416,0.546237425 1.25752,0.551549295 1.3464,0.558631791 C1.4916,0.571911469 1.69664,0.57722334 1.9624,0.57722334 L3.09672,0.588732394 L4.44664,0.606438631 C5.3196,0.606438631 6.2436,0.580764588 7.21688,0.53472837 C7.4096,0.525875252 7.53456,0.52056338 7.59,0.52056338 C7.7924,0.52056338 7.90064,0.606438631 7.91208,0.777303823 L7.93936,1.18012072 C7.94288,1.24386318 7.96048,1.3943662 7.9948,1.63605634 C8.01944,1.83082495 8.03088,1.99018109 8.03088,2.10881288 C8.03088,2.23187123 7.98072,2.29384306 7.88216,2.29384306 C7.79856,2.29384306 7.73872,2.2221328 7.70528,2.0804829 C7.62696,1.7298994 7.47912,1.48112676 7.25736,1.3270825 C7.03736,1.17392354 6.71704,1.09690141 6.29816,1.09690141 C5.73232,1.09690141 5.38032,1.14205232 5.24216,1.22881288 C5.104,1.31557345 5.03536,1.53336016 5.03536,1.87774648"></path>
                            <path d="M14.08264,5.99356137 C14.08264,6.70004024 14.14864,7.17899396 14.27888,7.43042253 C14.40824,7.68096579 14.6652,7.82438632 15.04624,7.86245473 C15.20376,7.87750503 15.28208,7.93770624 15.28208,8.04217304 C15.28208,8.14752515 15.21872,8.20152917 15.09288,8.20152917 C15.05064,8.20152917 14.97408,8.19621731 14.8632,8.18293762 C14.5464,8.1581489 14.23664,8.14663984 13.94008,8.14663984 C13.6928,8.14663984 13.47016,8.15283702 13.27744,8.16700202 L12.81016,8.21038229 L12.4388,8.24313884 C12.33408,8.25376258 12.26104,8.25907444 12.22144,8.25907444 C12.08856,8.25907444 12.01992,8.20772636 12.01992,8.10503018 C12.01992,8.02004024 12.05776,7.97046277 12.1308,7.94567405 C12.38424,7.86688129 12.56024,7.76241449 12.65616,7.62961771 C12.75384,7.49859155 12.80224,7.29762575 12.80224,7.02583501 L12.80224,6.49287726 L12.80664,6.27597585 L12.80664,2.23983903 C12.80664,1.79275654 12.7512,1.49352113 12.64032,1.34036217 C12.4564,1.09247485 12.16072,0.941971828 11.74624,0.88973843 C11.594,0.867605633 11.51832,0.801207244 11.51832,0.697625754 C11.51832,0.59138833 11.56848,0.540040241 11.67408,0.540040241 C11.71632,0.540040241 11.78144,0.544466801 11.87208,0.557746479 C12.16072,0.58696177 12.474,0.604668008 12.81456,0.604668008 C13.19032,0.604668008 13.6444,0.584305835 14.17768,0.543581489 C14.80688,0.494004024 15.23896,0.470100604 15.47568,0.470100604 C16.18232,0.470100604 16.76664,0.662213279 17.23128,1.04820926 C17.69416,1.43509054 17.9256,1.91847082 17.9256,2.5054326 C17.9256,2.87549295 17.82264,3.21191147 17.61848,3.51114688 C17.40992,3.81480885 17.12568,4.04498994 16.76752,4.19991952 C16.69184,4.23090543 16.65752,4.26720322 16.66104,4.31235413 C16.66632,4.35042254 16.68392,4.39557344 16.71648,4.44692153 C16.74904,4.49826962 16.80008,4.58503018 16.86696,4.70985916 L17.36328,5.58897384 L17.93352,6.60973843 C18.1324,6.95589537 18.304,7.19404427 18.46064,7.32861167 C18.61376,7.46229376 18.79328,7.53046278 19.00184,7.53046278 C19.0872,7.53046278 19.16464,7.52072435 19.24032,7.50744467 C19.28696,7.4950503 19.3248,7.49150906 19.36264,7.49150906 C19.42952,7.49150906 19.46296,7.53311871 19.46296,7.61987928 C19.46296,7.72700201 19.31072,7.84917505 19.008,7.98639839 C18.70528,8.12539235 18.436,8.19356136 18.2028,8.19356136 C17.81912,8.19356136 17.46888,8.00498994 17.14592,7.63050302 C16.82384,7.25247485 16.40672,6.54245473 15.89104,5.49690141 C15.69128,5.08523139 15.52584,4.82140845 15.39648,4.71251509 C15.26624,4.60185111 15.05504,4.54607646 14.76112,4.54607646 L14.4144,4.54607646 L14.168,4.5938833 C14.11168,4.62221328 14.08264,4.7134004 14.08264,4.86124749 L14.08264,5.99356137 M14.08264,1.63517103 L14.08264,3.56692153 C14.08264,3.80684105 14.11256,3.95645876 14.17504,4.02108652 C14.23576,4.08482897 14.38184,4.1167002 14.6124,4.1167002 C15.27328,4.1167002 15.68424,4.10342052 15.84088,4.0795171 C15.99928,4.05472837 16.148,3.97947686 16.2844,3.85199195 C16.55632,3.60676056 16.69096,3.2668008 16.69096,2.83653923 C16.69096,2.27171026 16.50704,1.80780684 16.14272,1.44217304 C15.77576,1.07299798 15.31112,0.891509054 14.74616,0.891509054 C14.4936,0.891509054 14.31936,0.94462777 14.22344,1.04997988 C14.12928,1.15533199 14.08264,1.3501006 14.08264,1.63517103"></path>
                            <path d="M26.74408,1.1562173 L29.27672,6.99042254 C29.40256,7.28523139 29.55128,7.50301811 29.72112,7.64820926 C29.89096,7.7934004 30.11008,7.89078471 30.38112,7.93770624 C30.44888,7.94921529 30.48144,8.00321932 30.48144,8.09706237 C30.48144,8.19975855 30.43832,8.2484507 30.35296,8.24490946 C30.30456,8.24136821 30.23416,8.22897384 30.14352,8.21038229 C29.85664,8.14752515 29.3964,8.11653923 28.76368,8.11653923 C28.12656,8.11653923 27.69272,8.14663984 27.46392,8.20595574 C27.40848,8.22366197 27.36008,8.23162978 27.31872,8.23162978 C27.21576,8.23162978 27.16472,8.17674045 27.16472,8.07227364 C27.16472,8.01826962 27.20432,7.9802012 27.28528,7.95187122 C27.46216,7.90229376 27.61,7.80933602 27.72528,7.67299798 C27.8432,7.54020121 27.90128,7.397666 27.90128,7.2489336 C27.90128,7.04 27.73936,6.58140845 27.41728,5.87404427 C27.31696,5.65802817 27.20608,5.53142857 27.08288,5.49867204 C26.96408,5.46945674 26.53728,5.4517505 25.8016,5.4517505 L25.0448,5.4517505 L24.5432,5.54293762 C24.4068,5.60402415 24.24928,5.85191147 24.07592,6.27863179 L23.90344,6.70623742 C23.85152,6.83018109 23.82688,6.95235413 23.82688,7.08160966 C23.82688,7.54905433 24.1516,7.81907445 24.8028,7.89521126 C24.9436,7.91468812 25.01224,7.96957746 25.01048,8.05987928 C25.00168,8.15991952 24.93392,8.20949698 24.80896,8.20949698 C24.74296,8.20949698 24.64704,8.19710262 24.5256,8.1740845 C24.28008,8.12627766 24.06184,8.10148894 23.86912,8.10148894 C23.69576,8.10148894 23.41504,8.12008049 23.02608,8.15726359 C22.73568,8.18559357 22.55528,8.20152917 22.48488,8.20152917 C22.38192,8.20152917 22.33088,8.15460764 22.33088,8.06607646 C22.33088,7.98905432 22.38192,7.93327967 22.48488,7.89609658 C22.68552,7.83412475 22.84568,7.71637827 22.96624,7.54551308 C23.08592,7.37818914 23.26368,7.02052314 23.50216,6.47782696 L25.02456,2.96225352 C25.146,2.68515091 25.23048,2.49215292 25.28064,2.38857143 L25.79808,1.32354124 L26.0656,0.795895372 L26.0656,0.814486921 C26.1844,0.533843058 26.26536,0.392193159 26.30496,0.392193159 C26.36568,0.392193159 26.466,0.546237425 26.6112,0.862293763 L26.74408,1.1562173 L26.74408,1.1562173 Z M26.9544,4.6531992 L26.22664,2.9454326 C26.0524,2.53641851 25.92744,2.33102616 25.85352,2.33102616 C25.80776,2.33102616 25.72504,2.46559356 25.608,2.72764587 L25.5024,2.96225352 L24.8512,4.45400402 L24.7896,4.59299799 C24.76408,4.64788732 24.75176,4.69569416 24.75176,4.73641852 C24.75176,4.86478873 24.88376,4.92676056 25.15216,4.92676056 L26.8004,4.92676056 C26.9412,4.92676056 27.0116,4.88869215 27.0116,4.80901408 C27.0116,4.79219316 27.00192,4.75943662 26.98344,4.71428571 L26.9544,4.6531992 L26.9544,4.6531992 Z"></path>
                            <path d="M35.23784,3.27653923 L36.47336,6.32732395 C36.52792,6.46100604 36.57808,6.53183099 36.62472,6.53537223 C36.66608,6.53802817 36.70744,6.48490946 36.75672,6.37690141 L38.00808,3.59171026 C38.4208,2.6771831 38.62496,2.01939638 38.62496,1.61303823 C38.62496,1.38374246 38.544,1.19517103 38.38472,1.04732395 C38.2228,0.900362173 37.99312,0.803863179 37.69216,0.760482897 C37.56456,0.743661972 37.49944,0.694084507 37.49944,0.606438631 C37.49944,0.519678068 37.54784,0.475412474 37.63848,0.475412474 C37.68688,0.475412474 37.78984,0.479839034 37.94824,0.486921529 L38.53432,0.518792756 C38.79392,0.533843058 38.98312,0.540040241 39.09136,0.540040241 C39.43016,0.540040241 39.72232,0.517907445 39.9696,0.469215292 C40.06728,0.455050302 40.1412,0.448853119 40.19136,0.448853119 C40.26176,0.448853119 40.29256,0.494889336 40.29256,0.588732394 C40.29256,0.677263582 40.238,0.730382294 40.12624,0.753400402 C39.90976,0.79501006 39.7364,0.905674044 39.60176,1.08716298 C39.46712,1.26865191 39.27352,1.64225352 39.02272,2.21239437 L38.19112,4.13971831 L37.24248,6.24321932 C36.93272,6.93110664 36.76816,7.30028169 36.73912,7.34808853 C36.53936,7.76152918 36.4276,7.99967807 36.40032,8.06519115 C36.32992,8.23074446 36.24192,8.31484909 36.1372,8.31484909 C36.0668,8.31484909 36.01136,8.2705835 35.96912,8.18028169 L35.84152,7.8969819 L35.70248,7.55790744 L34.386,4.55404427 C34.06392,3.81657948 33.79552,3.15702214 33.5808,2.5727163 C33.32472,1.88837022 33.12144,1.43863179 32.97184,1.21730382 C32.82224,0.997746476 32.6172,0.861408451 32.35584,0.803863179 C32.21064,0.773762575 32.13408,0.711790745 32.13408,0.617062374 C32.13408,0.513480885 32.186,0.461247485 32.28984,0.461247485 C32.31976,0.461247485 32.37608,0.464788732 32.45616,0.473641852 C32.64536,0.494889336 32.86712,0.508169014 33.11792,0.508169014 L34.05072,0.533843058 L34.63768,0.508169014 C34.8832,0.489577465 35.04512,0.484265594 35.11904,0.484265594 C35.222,0.484265594 35.27568,0.53472837 35.27568,0.636539236 C35.27568,0.724185111 35.19648,0.782615694 35.0416,0.812716298 C34.76704,0.859637827 34.62888,1.01810866 34.62888,1.29167002 C34.628,1.6254326 34.83216,2.28853119 35.23784,3.27653923"></path>
                            <path d="M45.92808,1.81488933 L45.92808,3.02599598 C45.92808,3.37392354 45.95536,3.59348089 46.00376,3.68820926 C46.05392,3.78028169 46.17536,3.82720322 46.36808,3.82720322 L46.53616,3.82100604 L46.77992,3.81569416 L47.25248,3.81569416 C47.62032,3.81569416 47.90192,3.61295775 48.10344,3.2065996 L48.23192,2.93215291 C48.26448,2.86309859 48.32168,2.83211268 48.4,2.82503018 C48.4792,2.82148894 48.52408,2.87549295 48.52408,2.97907444 C48.52408,3.00651911 48.51528,3.08796781 48.5056,3.22430584 C48.4968,3.31726358 48.49328,3.40225352 48.49328,3.4677666 C48.49328,3.58905433 48.51088,3.86792756 48.54344,4.30881288 C48.5672,4.59565392 48.57952,4.84354125 48.57952,5.05690141 L48.58656,5.34285715 C48.58656,5.39597585 48.57952,5.43050302 48.56808,5.44909457 C48.55224,5.47211268 48.52496,5.48362173 48.47656,5.48981892 C48.38416,5.49601609 48.32696,5.42519115 48.30496,5.27645876 C48.25656,4.95774648 48.1448,4.71782697 47.96968,4.55581489 C47.87376,4.46551307 47.75848,4.40708249 47.61768,4.38052314 C47.47864,4.35573441 47.21728,4.34156942 46.83536,4.34156942 L46.45696,4.34156942 C46.27832,4.34156942 46.15776,4.36901408 46.09264,4.42390342 C46.02752,4.47702214 45.9844,4.58591549 45.96416,4.74969819 C45.9404,4.93649899 45.92808,5.23042254 45.92808,5.63146881 L45.92808,6.13344065 C45.92808,6.65665996 45.96944,7.03645875 46.0504,7.26486922 C46.11552,7.43219316 46.18768,7.54551308 46.27216,7.60571428 C46.36016,7.66414486 46.4904,7.6960161 46.66904,7.6960161 C48.17296,7.6960161 49.15944,7.23476861 49.6232,6.31758552 C49.64872,6.26977867 49.66984,6.24676056 49.69008,6.24321932 C49.72616,6.23613682 49.76048,6.24853119 49.79304,6.27951711 C49.82384,6.31138833 49.84144,6.35034205 49.84144,6.40080483 C49.84144,6.76643863 49.74376,7.122334 49.54576,7.46583501 C49.38384,7.75710261 49.18144,7.96515091 48.93416,8.09086519 C48.6904,8.2183501 48.36656,8.27855131 47.96176,8.27855131 C47.72416,8.27855131 47.46368,8.26438632 47.17416,8.23340041 L46.52824,8.17054326 C46.29064,8.14752515 45.96944,8.13690141 45.56552,8.13690141 C45.29536,8.13690141 44.88352,8.15283702 44.33176,8.18559357 C44.1804,8.19621731 44.0704,8.20152917 44.00528,8.20152917 C43.91376,8.20152917 43.868,8.15991952 43.86096,8.0767002 C43.85744,8.01030181 43.89704,7.95806841 43.98328,7.92265593 C44.19272,7.84120725 44.33704,7.75533199 44.41272,7.66148893 C44.48664,7.57118712 44.54648,7.40917505 44.59136,7.17545272 C44.63448,6.97625754 44.65296,6.70977867 44.65296,6.37158953 L44.65296,1.94325956 C44.65296,1.52804829 44.58432,1.24474849 44.45056,1.09513079 C44.3168,0.947283703 44.03432,0.84193159 43.60664,0.781730382 C43.50544,0.767565393 43.45704,0.712676057 43.45704,0.61971831 C43.45704,0.532957746 43.51688,0.489577465 43.63744,0.489577465 C43.66472,0.489577465 43.72016,0.494004024 43.80552,0.501086519 C43.8724,0.508169014 43.96216,0.51082495 44.0792,0.51082495 L44.64152,0.533843058 L46.75,0.555090543 C47.96176,0.555090543 48.71152,0.536498994 48.99312,0.503742455 C49.02216,0.499315895 49.04944,0.497545271 49.07056,0.497545271 C49.1788,0.497545271 49.23248,0.562173038 49.23248,0.681690141 C49.23248,0.769336016 49.24304,0.921609658 49.26856,1.14205232 C49.2976,1.46519115 49.30992,1.69891348 49.30992,1.83879276 C49.30992,2.12297786 49.23776,2.26993964 49.09168,2.27790744 C49.02128,2.27967807 48.98696,2.19645875 48.98696,2.03002012 C48.98696,1.65730382 48.85144,1.39082495 48.58304,1.22527163 C48.31112,1.058833 47.87816,0.974728372 47.27712,0.974728372 L46.59864,0.974728372 L46.2176,1.01810866 C46.03016,1.07919517 45.93424,1.26865191 45.93424,1.58559357 L45.92808,1.81488933"></path>
                            <path d="M55.80432,6.42205232 C55.80432,7.11702214 55.8888,7.50921529 56.05512,7.59331992 C56.14752,7.64289738 56.3288,7.66503019 56.59808,7.66503019 C57.86,7.66503019 58.74968,7.29674044 59.27768,6.55307847 C59.43784,6.32643864 59.53904,6.21311871 59.5804,6.21311871 C59.64904,6.21311871 59.6816,6.29191147 59.6816,6.44418511 C59.6816,6.91605634 59.52672,7.33746479 59.22312,7.71018108 C58.94944,8.03686117 58.58072,8.20152917 58.11608,8.20152917 C58.01664,8.20152917 57.84152,8.19090543 57.58368,8.1740845 C57.5168,8.16877264 57.2968,8.15549295 56.91488,8.13158954 L56.3112,8.10503018 C56.10704,8.09440644 55.87296,8.08909457 55.61512,8.08909457 C55.18568,8.08909457 54.71928,8.11565392 54.2212,8.1740845 C54.06984,8.19267605 53.96864,8.20152917 53.91496,8.20152917 C53.81024,8.20152917 53.7548,8.15195171 53.7548,8.05368209 C53.7548,7.98374246 53.8032,7.93505031 53.89912,7.91114688 C54.13672,7.84209256 54.29952,7.71372234 54.39104,7.52249497 C54.48256,7.33126761 54.52832,7.01609658 54.52832,6.58229376 L54.52832,1.91935613 C54.52832,1.32442655 54.2828,0.988893357 53.78912,0.909215292 L53.45384,0.854325956 C53.3148,0.832193159 53.2444,0.773762575 53.2444,0.683460764 C53.2444,0.571026157 53.29896,0.514366197 53.41072,0.514366197 C53.44856,0.514366197 53.50224,0.519678068 53.57264,0.53030181 C53.62456,0.535613682 53.69848,0.543581489 53.79088,0.554205231 L54.02848,0.571911469 C54.25728,0.593158954 54.4236,0.606438631 54.53536,0.606438631 C54.714,0.606438631 54.9956,0.584305835 55.38456,0.538269618 C55.67672,0.509939638 55.96888,0.491348089 56.26984,0.491348089 C56.49336,0.491348089 56.60512,0.546237425 56.60512,0.649818913 C56.60512,0.741891348 56.52592,0.78969819 56.36664,0.796780684 C55.99176,0.824225352 55.80432,1.08273641 55.80432,1.57585514 L55.80432,6.42205232"></path>
                            <path d="M65.28632,0.392193159 C65.6348,0.392193159 65.9736,0.457706237 66.30888,0.592273642 L66.682,0.748973843 C66.85008,0.819798793 66.96888,0.852555332 67.03752,0.852555332 C67.0912,0.852555332 67.14224,0.838390342 67.19768,0.812716298 L67.41064,0.705593561 C67.44144,0.69054326 67.47048,0.683460764 67.50216,0.683460764 C67.57784,0.683460764 67.6192,0.743661972 67.6192,0.868490945 L67.60688,1.32 C67.60688,1.39082495 67.6104,1.45810865 67.6192,1.52273642 L67.69312,2.06720322 L67.74768,2.57448692 C67.75648,2.62052314 67.75824,2.65859155 67.75824,2.68603622 C67.75824,2.84716298 67.7116,2.92595574 67.62096,2.92595574 C67.55584,2.92595574 67.50568,2.85690141 67.47488,2.71525151 C67.3684,2.19645875 67.09824,1.74672032 66.66352,1.36869215 C66.22704,0.988008046 65.76592,0.796780684 65.28016,0.796780684 C64.94488,0.796780684 64.65448,0.912756539 64.40544,1.13851106 C64.1564,1.36603622 64.03232,1.63340041 64.03232,1.93971831 C64.03232,2.22478873 64.14056,2.47356137 64.36056,2.67983903 C64.50312,2.81440644 64.94136,3.03042254 65.68056,3.33142857 C66.5588,3.69440643 67.14312,4.04764587 67.43176,4.39468813 C67.76528,4.81255533 67.93688,5.31275654 67.93688,5.90325956 C67.93688,6.54865191 67.7028,7.11436619 67.23728,7.59420523 C66.77,8.07492958 66.22352,8.31573441 65.59608,8.31573441 C65.34,8.31573441 64.93432,8.22897384 64.37904,8.05368209 C64.11944,7.96603622 63.92848,7.91203219 63.80528,7.88370221 C63.63544,7.85006036 63.53688,7.81995976 63.50784,7.78720322 C63.48056,7.7562173 63.45768,7.66060362 63.4392,7.49947686 C63.42072,7.32772636 63.36352,7.07452716 63.27288,6.7416499 C63.13208,6.23702213 63.05992,5.91122737 63.05992,5.77311871 C63.05992,5.59340041 63.11624,5.50309859 63.23152,5.50309859 C63.2852,5.50309859 63.32304,5.55002012 63.34504,5.63589537 C63.5272,6.27420523 63.84136,6.80981892 64.29016,7.24450704 C64.74072,7.67830986 65.20448,7.8969819 65.68584,7.8969819 C66.06424,7.8969819 66.39952,7.75267606 66.69344,7.46406439 C66.98912,7.17633803 67.13344,6.84965795 67.13344,6.47605634 C67.13344,6.18390342 67.05952,5.94132797 66.90464,5.75275654 C66.75152,5.56418511 66.48488,5.38535211 66.1056,5.21891348 L65.25992,4.83911469 C64.46088,4.482334 63.91792,4.14325956 63.63016,3.82366197 C63.3468,3.50849094 63.20424,3.08354125 63.20424,2.55412475 C63.20424,1.938833 63.40224,1.42535211 63.79912,1.01191147 C64.19864,0.598470825 64.69584,0.392193159 65.28632,0.392193159"></path>
                        </g>
                        <g id="Shape" fill="#36312A">
                            <path d="M13.222,15.2964185 L3.24544,15.2964185 C3.3176,16.6589135 3.77344,17.7407646 4.61208,18.5472837 C5.44808,19.3511469 6.53048,19.7566197 7.85752,19.7566197 C9.70728,19.7566197 11.41448,19.1767404 12.97472,18.0214085 L12.97472,20.776499 C12.1132,21.3554929 11.25696,21.7680483 10.40776,22.0159356 C9.55944,22.2629376 8.56504,22.385996 7.42368,22.385996 C5.8608,22.385996 4.59536,22.0628571 3.63088,21.4103823 C2.66552,20.762334 1.89024,19.8876459 1.31032,18.7872032 C0.72952,17.6885312 0.44,16.4127968 0.44,14.9697384 C0.44,12.802495 1.0516,11.0407244 2.27392,9.68177063 C3.49712,8.32458753 5.08464,7.644668 7.03912,7.644668 C8.92056,7.644668 10.42008,8.30511066 11.53944,9.62776664 C12.66144,10.9495372 13.222,12.7201609 13.222,14.9396379 L13.222,15.2964185 M3.30704,13.6090141 L10.44648,13.6090141 C10.37432,12.482012 10.03992,11.6135211 9.44328,11.0070825 C8.84752,10.3971026 8.04584,10.0934406 7.03912,10.0934406 C6.0324,10.0934406 5.20784,10.3971026 4.56368,11.0070825 C3.92216,11.6135211 3.50152,12.482012 3.30704,13.6090141"></path>
                            <path d="M18.34184,7.92265593 L18.34184,9.73665995 C19.5932,8.34229376 21.01792,7.64555332 22.61336,7.64555332 C23.49688,7.64555332 24.3188,7.87484909 25.08088,8.33432596 C25.8412,8.79468813 26.41936,9.4232596 26.81536,10.2235815 C27.2096,11.0239034 27.40936,12.29167 27.40936,14.0251106 L27.40936,22.1717505 L24.60304,22.1717505 L24.60304,14.0560966 C24.60304,12.6006439 24.38216,11.5604024 23.93952,10.9371429 C23.49776,10.3112274 22.75856,10.0004829 21.72104,10.0004829 C20.394,10.0004829 19.26936,10.6653521 18.3436,11.9968612 L18.3436,22.1717505 L15.4748,22.1717505 L15.4748,7.92265593 L18.34184,7.92265593"></path>
                            <path d="M41.14264,18.8420925 L41.14264,21.6290543 C39.732,22.1549295 38.35656,22.4196378 37.00752,22.4196378 C34.78904,22.4196378 33.0176,21.7591951 31.69672,20.4383099 C30.37584,19.1174246 29.71496,17.3450302 29.71496,15.1264387 C29.71496,12.8839437 30.35736,11.0796781 31.64304,9.70567406 C32.92784,8.33167002 34.6192,7.64555332 36.71712,7.64555332 C37.44576,7.64555332 38.10136,7.71549296 38.68128,7.85537223 C39.26208,7.99259558 39.97928,8.25376258 40.83376,8.6362173 L40.83376,11.6418511 C39.41344,10.7335212 38.09872,10.2775855 36.88432,10.2775855 C35.62152,10.2775855 34.58312,10.7264386 33.77,11.6179477 C32.956,12.5121127 32.55208,13.6488531 32.55208,15.0325956 C32.55208,16.4889336 32.99208,17.6460362 33.86944,18.5012474 C34.74856,19.3582294 35.9348,19.7884909 37.42464,19.7884909 C38.50528,19.7884909 39.74256,19.4733199 41.14264,18.8420925"></path>
                            <path d="M43.53976,0.536498994 L46.3452,0.536498994 L46.3452,9.79774648 C47.5156,8.36265594 48.97288,7.644668 50.70912,7.644668 C51.65424,7.644668 52.50256,7.8828169 53.25408,8.35734406 C54.0056,8.83364185 54.56,9.48788735 54.92608,10.3236217 C55.29216,11.1593561 55.4752,12.4049899 55.4752,14.0560966 L55.4752,22.1717505 L52.668,22.1717505 L52.668,13.3593562 C52.668,12.3164587 52.41192,11.4780684 51.90328,10.8424145 C51.39552,10.2067606 50.72408,9.89247488 49.89248,9.89247488 C49.27472,9.89247488 48.69568,10.051831 48.15008,10.3705433 C47.60536,10.6901408 47.00256,11.2222133 46.3452,11.9658753 L46.3452,22.1717505 L43.53976,22.1717505 L43.53976,0.536498994"></path>
                            <path d="M68.02664,13.6090141 L68.02664,19.6627767 C68.02664,20.1496982 68.19296,20.3913884 68.5212,20.3913884 C68.85912,20.3913884 69.38888,20.1381891 70.1096,19.6309054 L70.1096,21.3510664 C69.47248,21.7636218 68.96032,22.0451509 68.57488,22.1947686 C68.19032,22.343501 67.7864,22.4196378 67.36576,22.4196378 C66.16192,22.4196378 65.45528,21.9433401 65.23616,20.9934004 C64.04464,21.9247485 62.7748,22.3868812 61.43016,22.3868812 C60.44104,22.3868812 59.61912,22.0610866 58.96088,21.4041851 C58.30264,20.7499397 57.97352,19.9257143 57.97352,18.934165 C57.97352,18.037344 58.29472,17.2334809 58.94064,16.5252314 C59.58216,15.8187526 60.49296,15.2592354 61.67656,14.8466801 L65.26696,13.6098994 L65.26696,12.8485312 C65.26696,11.1354527 64.41424,10.2784709 62.70792,10.2784709 C61.17584,10.2784709 59.68424,11.0743662 58.23752,12.6643863 L58.23752,9.58173034 C59.3252,8.29360161 60.89512,7.64643864 62.93936,7.64643864 C64.47056,7.64643864 65.7008,8.04748491 66.6248,8.85400402 C66.9328,9.11251509 67.21,9.45601614 67.4564,9.88450701 C67.7028,10.3112274 67.86032,10.7397183 67.92632,11.1699799 C67.9932,11.5975855 68.02664,12.4111871 68.02664,13.6090141 M65.26608,19.3511469 L65.26608,15.1264387 L63.3864,15.8532797 C62.42896,16.2348491 61.754,16.6181892 61.358,17.0077264 C60.96288,17.3946077 60.764,17.8762173 60.764,18.4552112 C60.764,19.0448289 60.95144,19.5237827 61.32632,19.8956136 C61.70208,20.2665594 62.18696,20.4542455 62.7836,20.4542455 C63.67768,20.4542455 64.50664,20.0859557 65.26608,19.3511469"></path>
                            <path d="M75.07016,7.92265593 L75.07016,9.73665995 C76.32416,8.34229376 77.748,7.64555332 79.34168,7.64555332 C80.22608,7.64555332 81.04712,7.87484909 81.81008,8.33432596 C82.56864,8.79468813 83.1468,9.4232596 83.54368,10.2235815 C83.9388,11.0239034 84.1368,12.29167 84.1368,14.0251106 L84.1368,22.1717505 L81.33136,22.1717505 L81.33136,14.0560966 C81.33136,12.6006439 81.11048,11.5604024 80.6696,10.9371429 C80.22696,10.3112274 79.48424,10.0004829 78.44936,10.0004829 C77.1232,10.0004829 75.99592,10.6653521 75.07104,11.9968612 L75.07104,22.1717505 L72.204,22.1717505 L72.204,7.92265593 L75.07016,7.92265593"></path>
                            <path d="M85.6284,10.1855131 L90.8996,4.98076459 L90.8996,7.92265593 L95.3875997,7.92265593 L95.3875997,10.463501 L90.8996,10.463501 L90.8996,17.4379879 C90.8996,19.0634205 91.57544,19.8796781 92.92096,19.8796781 C93.9276797,19.8796781 94.99248,19.5441449 96.1135997,18.8730784 L96.1135997,21.5051107 C95.03208,22.1150906 93.8555203,22.4178672 92.58216,22.4178672 C91.29648,22.4178672 90.2264,22.042495 89.37456,21.2873239 C89.10704,21.0615695 88.8844,20.8065996 88.71016,20.5224145 C88.53768,20.2382294 88.3916,19.8655131 88.27104,19.4078068 C88.15312,18.9474446 88.09416,18.0736418 88.09416,16.7810866 L88.09416,10.463501 L85.62752,10.463501 L85.62752,10.1855131"></path>
                            <path d="M99.9724003,1.93263582 C100.43528,1.93263582 100.83128,2.09199195 101.16216,2.41070422 C101.49216,2.73295775 101.65408,3.12249497 101.65408,3.58816901 C101.65408,4.04233401 101.49216,4.43541247 101.16216,4.76386317 C100.83128,5.09585513 100.43616,5.25963783 99.9724003,5.25963783 C99.5412,5.25963783 99.1601597,5.09231389 98.8301597,4.75855131 C98.5019203,4.4221328 98.33736,4.0343662 98.33736,3.58905433 C98.33736,3.15613683 98.5019203,2.77191147 98.8301597,2.43372234 C99.16104,2.09995976 99.5412,1.93263582 99.9724003,1.93263582 L99.9724003,1.93263582 L99.9724003,1.93263582 Z M98.58552,22.1717505 L98.58552,7.92265593 L101.39096,7.92265593 L101.39096,22.1717505 L98.58552,22.1717505 L98.58552,22.1717505 Z"></path>
                            <path d="M107.72608,7.92265593 L107.72608,9.73665995 C108.98184,8.34229376 110.40392,7.64555332 111.9976,7.64555332 C112.88112,7.64555332 113.70392,7.87484909 114.466,8.33432596 C115.22808,8.79380282 115.80272,9.4232596 116.20048,10.2235815 C116.59648,11.0239034 116.7936,12.29167 116.7936,14.0251106 L116.7936,22.1717505 L113.98816,22.1717505 L113.98816,14.0560966 C113.98816,12.6006439 113.76552,11.5604024 113.32376,10.9371429 C112.882,10.3112274 112.1428,10.0004829 111.10528,10.0004829 C109.77912,10.0004829 108.65272,10.6653521 107.72784,11.9968612 L107.72784,22.1717505 L104.85992,22.1717505 L104.85992,7.92265593 L107.72608,7.92265593"></path>
                            <path d="M119.53128,12.8476459 C119.53128,11.329336 120.08568,10.131509 121.18744,9.24796781 C122.29624,8.36619718 123.8028,7.92354124 125.71592,7.92354124 L131.56,7.92354124 L131.56,10.1244266 L128.69032,10.1244266 C129.24648,10.6910262 129.63192,11.2080483 129.84752,11.6737223 C130.06224,12.1367405 130.17136,12.6705835 130.17136,13.268169 C130.17136,14.0109457 129.95928,14.7422133 129.5404,15.4593159 C129.11712,16.1781891 128.57504,16.7270825 127.91328,17.1086519 C127.248,17.4911067 126.16208,17.7956539 124.64848,18.0222937 C123.59336,18.178994 123.0636,18.5428571 123.0636,19.1209658 C123.0636,19.4511871 123.25984,19.7229779 123.65672,19.9336821 C124.05008,20.1452717 124.76816,20.3639437 125.80744,20.5923542 C127.5428,20.9748088 128.65952,21.2740443 129.16112,21.491831 C129.66008,21.7069618 130.10888,22.0177063 130.5084,22.4205231 C131.18864,23.1022133 131.52744,23.9574246 131.52744,24.9905835 C131.52744,26.34334 130.92728,27.4207646 129.73136,28.2299396 C128.53368,29.0320322 126.9312,29.4330784 124.9292,29.4330784 C122.9008,29.4330784 121.286,29.0302616 120.07688,28.2193159 C118.8704,27.4083702 118.26496,26.3220926 118.26496,24.9578269 C118.26496,23.0278471 119.45296,21.7848692 121.82808,21.2244668 C120.8812,20.6171428 120.40864,20.0142455 120.40864,19.4148893 C120.40864,18.9607244 120.61016,18.5472837 121.0176,18.1781087 C121.42592,17.804507 121.97064,17.5300603 122.65968,17.3547686 C120.57584,16.4260765 119.53128,14.9237022 119.53128,12.8476459 M124.1416,22.8366197 C123.19736,22.8366197 122.42208,23.0393561 121.82104,23.442173 C121.21912,23.8458753 120.91992,24.362012 120.91992,24.9905835 C120.91992,26.45666 122.23552,27.1888129 124.86848,27.1888129 C126.10928,27.1888129 127.07376,27.0055533 127.75752,26.6390342 C128.4404,26.2760564 128.7836,25.755493 128.7836,25.0826559 C128.7836,24.4204427 128.35064,23.8830584 127.48824,23.4660764 C126.62496,23.0473239 125.50912,22.8366197 124.1416,22.8366197 M124.806,10.3705433 C124.04568,10.3705433 123.39712,10.6317103 122.86208,11.1451911 C122.32792,11.6604426 122.0604,12.2810463 122.0604,13.0034607 C122.0604,13.7373843 122.32352,14.3438229 122.848,14.823662 C123.37248,15.303501 124.03424,15.5434205 124.83768,15.5434205 C125.62968,15.5434205 126.28704,15.3008451 126.81856,14.806841 C127.34832,14.3163783 127.61232,13.7063984 127.61232,12.9742455 C127.61232,12.2305835 127.34392,11.6117505 126.80976,11.1142053 C126.2756,10.6184305 125.60768,10.3705433 124.806,10.3705433"></path>
                        </g>
                    </g>
                </g>
            </g>
        </g>
    </g>
</svg>