<?xml version="1.0" encoding="utf-8"?>
<!-- Generator: Adobe Illustrator 16.0.0, SVG Export Plug-In . SVG Version: 6.00 Build 0)  -->
<!DOCTYPE svg PUBLIC "-//W3C//DTD SVG 1.1//EN" "http://www.w3.org/Graphics/SVG/1.1/DTD/svg11.dtd">
<svg version="1.1" id="Layer_1" xmlns="http://www.w3.org/2000/svg" xmlns:xlink="http://www.w3.org/1999/xlink" x="0px" y="0px"
	 width="208px" height="24px" viewBox="0 0 208 24" enable-background="new 0 0 208 24" xml:space="preserve">
<g>
	<path id="globe_3_" fill="#AD926E" d="M11.645,1.387c-5.862,0-10.613,4.752-10.613,10.614c0,5.86,4.718,10.612,10.613,10.612
		c5.895,0,10.613-4.664,10.613-10.612C22.258,6.052,17.506,1.387,11.645,1.387z M7.87,4.302C6.743,6.015,6.014,8.967,5.949,11.24
		h-2.54C3.553,8.209,5.323,5.617,7.87,4.302z M3.409,12.758h2.54c0.064,2.273,0.794,5.226,1.921,6.939
		C5.323,18.382,3.553,15.789,3.409,12.758z M10.887,20.236c0-0.032-0.859,0.046-1.465-0.128c-1.487-1.477-2.36-4.319-2.44-7.351
		h3.905V20.236z M10.887,11.24H6.981c0.08-3.031,0.953-5.873,2.441-7.349c0.605-0.176,1.464-0.096,1.464-0.126V11.24z M19.879,11.24
		h-2.54c-0.063-2.273-0.793-5.226-1.92-6.938C17.965,5.617,19.736,8.209,19.879,11.24z M12.402,3.766c0,0.03,0.854-0.05,1.458,0.126
		c1.488,1.476,2.362,4.317,2.441,7.349h-3.899V3.766z M13.86,20.108c-0.604,0.174-1.458,0.096-1.458,0.128v-7.479h3.899
		C16.223,15.789,15.349,18.632,13.86,20.108z M15.42,19.697c1.126-1.714,1.855-4.666,1.919-6.939h2.54
		C19.736,15.789,17.965,18.382,15.42,19.697z"/>
	<g>
		<path fill="#AD926E" d="M38.212,8.312H34.71v9.654h-2.447V8.312h-3.502V6.067h9.451V8.312z"/>
		<path fill="#AD926E" d="M43.618,17.966h-2.447V6.067h4.776c2.43,0,4.301,0.952,4.301,3.705c0,1.955-1.004,2.992-2.533,3.383
			l2.94,4.811h-2.618l-2.821-4.605h-1.598V17.966z M45.981,11.149c1.07,0,1.818-0.356,1.818-1.41c0-1.07-0.731-1.462-1.853-1.462
			h-2.363v2.872H45.981z"/>
		<path fill="#AD926E" d="M55.875,15.739l-0.969,2.227h-2.584l5.303-11.932h1.599l5.304,11.932h-2.584l-0.969-2.227H55.875z
			 M58.425,9.824l-1.632,3.79h3.264L58.425,9.824z"/>
		<path fill="#AD926E" d="M74.081,6.034h2.618l-5.304,11.932h-1.599L64.494,6.034h2.617l3.485,7.903L74.081,6.034z"/>
		<path fill="#AD926E" d="M81.936,8.312v2.498h5.184v2.244h-5.184v2.669h5.762v2.243h-8.21V6.067h8.21v2.244H81.936z"/>
		<path fill="#AD926E" d="M93.614,6.067v9.655h5.593v2.243h-8.041V6.067H93.614z"/>
		<path fill="#AD926E" d="M117.805,6.067h1.818l1.207,11.898h-2.465l-0.629-6.646l-3.213,6.646h-1.359l-3.213-6.646l-0.629,6.646
			h-2.465l1.207-11.898h1.818l3.961,8.211L117.805,6.067z"/>
		<path fill="#AD926E" d="M126.594,15.739l-0.969,2.227h-2.584l5.303-11.932h1.599l5.304,11.932h-2.584l-0.969-2.227H126.594z
			 M129.144,9.824l-1.632,3.79h3.264L129.144,9.824z"/>
		<path fill="#AD926E" d="M140.533,12.985l-0.289,0.272v4.708h-2.447V6.067h2.447v4.488l4.164-4.488h3.025l-5.115,5.49l5.201,6.408
			h-2.958L140.533,12.985z"/>
		<path fill="#AD926E" d="M152.518,8.312v2.498h5.186v2.244h-5.186v2.669h5.763v2.243h-8.21V6.067h8.21v2.244H152.518z"/>
		<path fill="#AD926E" d="M164.197,17.966h-2.447V6.067h4.775c2.432,0,4.301,0.952,4.301,3.705c0,1.955-1.002,2.992-2.532,3.383
			l2.94,4.811h-2.617l-2.822-4.605h-1.598V17.966z M166.561,11.149c1.07,0,1.818-0.356,1.818-1.41c0-1.07-0.73-1.462-1.854-1.462
			h-2.362v2.872H166.561z"/>
		<path fill="#BDBCBA" d="M178.291,17.966v-7.701h2.783c1.441,0,2.574,0.539,2.574,2.113c0,0.693-0.439,1.275-1.133,1.484
			c0.891,0.144,1.562,0.826,1.562,1.816c0,1.551-1.199,2.287-2.85,2.287H178.291z M179.469,13.423h1.463
			c0.945,0,1.54-0.264,1.54-1.045c0-0.814-0.692-1.035-1.397-1.035h-1.605V13.423z M179.469,16.888h1.76
			c0.913,0,1.661-0.297,1.661-1.199c0-0.869-0.659-1.177-1.771-1.177h-1.65V16.888z"/>
		<path fill="#BDBCBA" d="M187.586,11.376v2.035h3.555v1.111h-3.555v2.332h3.917v1.111h-5.116v-7.701h5.116v1.111H187.586z"/>
		<path fill="#BDBCBA" d="M199.027,11.376h-2.354v6.59h-1.199v-6.59h-2.344v-1.111h5.896V11.376z"/>
		<path fill="#BDBCBA" d="M203.504,10.144l3.465,7.822h-1.254l-0.77-1.76h-3.554l-0.771,1.76h-1.266l3.488-7.822H203.504z
			 M201.854,15.139h2.629l-1.309-3.025L201.854,15.139z"/>
	</g>
</g>
</svg>
