<?xml version="1.0" encoding="utf-8"?>
<!-- Generator: Adobe Illustrator 16.0.0, SVG Export Plug-In . SVG Version: 6.00 Build 0)  -->
<!DOCTYPE svg PUBLIC "-//W3C//DTD SVG 1.1//EN" "http://www.w3.org/Graphics/SVG/1.1/DTD/svg11.dtd">
<svg version="1.1" id="Layer_1" xmlns="http://www.w3.org/2000/svg" xmlns:xlink="http://www.w3.org/1999/xlink" x="0px" y="0px"
	 width="128px" height="36px" viewBox="0 0 128 36" enable-background="new 0 0 128 36" xml:space="preserve">
<g>
	<g>
		<path fill="#AD926E" d="M35.167,29.415v4.057c0,0.606,0.088,1.036,0.264,1.288c0.175,0.255,0.485,0.396,0.932,0.427
			c0.128,0.006,0.194,0.072,0.194,0.188c0,0.083-0.057,0.125-0.167,0.125c-0.024,0-0.071-0.002-0.134-0.006l-0.406-0.014
			l-0.674-0.046c-0.053-0.004-0.125-0.006-0.214-0.006c-0.211,0-0.396,0.006-0.562,0.016l-1.19,0.067
			c-0.126,0.017-0.213,0.022-0.262,0.022c-0.11,0-0.164-0.048-0.16-0.144c0.003-0.079,0.022-0.129,0.054-0.154
			c0.031-0.021,0.104-0.039,0.211-0.047c0.28-0.018,0.498-0.117,0.651-0.302s0.23-0.438,0.23-0.757l-0.004-0.254V29.1
			c0-0.284-0.154-0.426-0.459-0.426c-0.72,0-1.212,0.053-1.473,0.157c-0.193,0.079-0.321,0.168-0.381,0.267
			c-0.062,0.099-0.15,0.343-0.259,0.735l-0.041,0.154c-0.039,0.145-0.102,0.219-0.183,0.219c-0.12,0-0.177-0.057-0.168-0.168
			c0.006-0.101,0.021-0.241,0.054-0.42l0.057-0.469l0.064-0.479l0.04-0.326c0.013-0.143,0.088-0.214,0.224-0.214
			c0.038,0,0.1,0.005,0.186,0.012c0.141,0.014,0.34,0.019,0.598,0.019l1.101,0.011l1.31,0.018c0.847,0,1.743-0.025,2.688-0.07
			c0.187-0.008,0.308-0.014,0.362-0.014c0.197,0,0.301,0.084,0.312,0.249l0.026,0.388c0.003,0.062,0.021,0.205,0.054,0.439
			c0.024,0.188,0.035,0.342,0.035,0.455c0,0.119-0.049,0.179-0.144,0.179c-0.082,0-0.139-0.069-0.172-0.205
			c-0.076-0.338-0.219-0.579-0.435-0.727c-0.213-0.147-0.524-0.222-0.93-0.222c-0.549,0-0.891,0.043-1.025,0.127
			C35.234,28.873,35.167,29.082,35.167,29.415"/>
		<path fill="#AD926E" d="M43.945,33.383c0,0.683,0.064,1.145,0.19,1.385c0.125,0.243,0.375,0.382,0.745,0.419
			c0.153,0.014,0.229,0.072,0.229,0.172c0,0.103-0.062,0.155-0.184,0.155c-0.041,0-0.115-0.007-0.223-0.019
			c-0.308-0.025-0.607-0.034-0.896-0.034c-0.24,0-0.456,0.005-0.643,0.019l-0.454,0.042l-0.36,0.031
			c-0.101,0.012-0.172,0.016-0.21,0.016c-0.129,0-0.195-0.049-0.195-0.148c0-0.083,0.036-0.13,0.107-0.155
			c0.246-0.074,0.416-0.177,0.509-0.303c0.095-0.127,0.141-0.321,0.141-0.584v-0.513l0.004-0.209v-3.893
			c0-0.432-0.053-0.72-0.161-0.867c-0.178-0.238-0.465-0.385-0.867-0.436c-0.148-0.02-0.221-0.083-0.221-0.185
			c0-0.103,0.049-0.153,0.151-0.153c0.041,0,0.104,0.006,0.192,0.019c0.279,0.028,0.583,0.046,0.914,0.046
			c0.364,0,0.805-0.02,1.322-0.059c0.611-0.049,1.03-0.071,1.259-0.071c0.686,0,1.253,0.185,1.704,0.557
			c0.449,0.373,0.674,0.84,0.674,1.406c0,0.355-0.1,0.681-0.298,0.969c-0.202,0.293-0.479,0.515-0.826,0.665
			c-0.073,0.03-0.106,0.064-0.103,0.108c0.005,0.036,0.022,0.08,0.054,0.13c0.032,0.049,0.081,0.133,0.146,0.254l0.482,0.847
			l0.553,0.985c0.193,0.334,0.359,0.562,0.512,0.691c0.148,0.132,0.322,0.195,0.525,0.195c0.083,0,0.158-0.01,0.231-0.021
			c0.046-0.013,0.083-0.015,0.119-0.015c0.065,0,0.097,0.038,0.097,0.123c0,0.104-0.148,0.221-0.441,0.354
			c-0.294,0.134-0.555,0.199-0.781,0.199c-0.373,0-0.712-0.181-1.026-0.543c-0.312-0.364-0.717-1.049-1.217-2.057
			c-0.194-0.397-0.354-0.652-0.48-0.756c-0.126-0.107-0.332-0.162-0.617-0.162h-0.336l-0.239,0.048
			c-0.055,0.026-0.083,0.114-0.083,0.257V33.383 M43.945,29.182v1.862c0,0.23,0.029,0.375,0.089,0.438
			c0.06,0.062,0.201,0.093,0.425,0.093c0.641,0,1.04-0.014,1.192-0.036c0.153-0.024,0.298-0.096,0.43-0.22
			c0.263-0.237,0.394-0.564,0.394-0.979c0-0.545-0.179-0.992-0.532-1.345c-0.356-0.357-0.807-0.532-1.355-0.532
			c-0.245,0-0.414,0.051-0.507,0.153C43.99,28.717,43.945,28.906,43.945,29.182"/>
		<path fill="#AD926E" d="M56.229,28.719l2.457,5.626c0.122,0.284,0.266,0.493,0.431,0.634c0.165,0.14,0.378,0.236,0.64,0.28
			c0.066,0.01,0.098,0.063,0.098,0.153c0,0.099-0.042,0.146-0.125,0.143c-0.046-0.004-0.115-0.016-0.203-0.033
			c-0.278-0.061-0.725-0.09-1.339-0.09c-0.618,0-1.039,0.029-1.261,0.086c-0.054,0.018-0.101,0.025-0.141,0.025
			c-0.1,0-0.149-0.054-0.149-0.155c0-0.053,0.038-0.088,0.116-0.115c0.172-0.049,0.316-0.139,0.427-0.27
			c0.115-0.128,0.171-0.267,0.171-0.409c0-0.201-0.157-0.644-0.47-1.326c-0.098-0.207-0.205-0.329-0.324-0.362
			c-0.115-0.027-0.53-0.044-1.244-0.044H54.58l-0.487,0.088c-0.132,0.059-0.284,0.297-0.453,0.709l-0.167,0.413
			c-0.05,0.12-0.074,0.237-0.074,0.362c0,0.449,0.314,0.71,0.946,0.784c0.137,0.018,0.203,0.07,0.202,0.158
			c-0.008,0.096-0.074,0.146-0.195,0.146c-0.064,0-0.158-0.013-0.275-0.036c-0.238-0.044-0.45-0.069-0.637-0.069
			c-0.169,0-0.441,0.02-0.818,0.054c-0.282,0.027-0.457,0.044-0.525,0.044c-0.1,0-0.149-0.046-0.149-0.132
			c0-0.073,0.049-0.127,0.149-0.164c0.194-0.059,0.35-0.172,0.467-0.337c0.116-0.161,0.288-0.509,0.52-1.031l1.478-3.39
			c0.118-0.266,0.199-0.453,0.248-0.553l0.501-1.027l0.26-0.508v0.017c0.116-0.27,0.194-0.407,0.232-0.407
			c0.059,0,0.157,0.149,0.298,0.454L56.229,28.719 M56.432,32.091l-0.706-1.646c-0.169-0.395-0.291-0.594-0.363-0.594
			c-0.044,0-0.124,0.131-0.237,0.385l-0.103,0.225l-0.632,1.439l-0.06,0.134c-0.024,0.054-0.036,0.1-0.036,0.139
			c0,0.124,0.128,0.183,0.388,0.183h1.6c0.136,0,0.204-0.037,0.204-0.113c0-0.017-0.009-0.048-0.026-0.091L56.432,32.091z"/>
		<path fill="#AD926E" d="M64.469,30.764l1.199,2.942c0.052,0.129,0.102,0.197,0.146,0.199c0.04,0.004,0.08-0.048,0.128-0.153
			l1.214-2.685c0.4-0.883,0.6-1.517,0.6-1.907c0-0.223-0.08-0.404-0.234-0.546c-0.156-0.142-0.38-0.234-0.672-0.278
			c-0.123-0.016-0.187-0.062-0.187-0.146s0.047-0.127,0.135-0.127c0.047,0,0.147,0.004,0.3,0.011l0.568,0.03
			c0.252,0.016,0.436,0.02,0.541,0.02c0.328,0,0.612-0.02,0.852-0.067c0.096-0.013,0.168-0.019,0.215-0.019
			c0.068,0,0.1,0.043,0.1,0.135c0,0.086-0.054,0.137-0.162,0.158c-0.211,0.042-0.379,0.148-0.509,0.323
			c-0.13,0.174-0.318,0.535-0.562,1.085l-0.807,1.856l-0.921,2.028c-0.3,0.666-0.46,1.021-0.487,1.066
			c-0.194,0.398-0.304,0.629-0.33,0.69c-0.067,0.161-0.153,0.243-0.255,0.243c-0.068,0-0.122-0.044-0.163-0.132l-0.124-0.271
			l-0.135-0.327l-1.277-2.896c-0.312-0.712-0.573-1.348-0.781-1.91c-0.249-0.661-0.446-1.095-0.591-1.308
			c-0.145-0.212-0.344-0.345-0.598-0.398c-0.14-0.029-0.215-0.089-0.215-0.181c0-0.1,0.05-0.149,0.151-0.149
			c0.029,0,0.084,0.003,0.161,0.011c0.184,0.02,0.399,0.033,0.642,0.033l0.905,0.025l0.57-0.025
			c0.238-0.018,0.395-0.022,0.467-0.022c0.1,0,0.152,0.048,0.152,0.146c0,0.085-0.077,0.141-0.228,0.17
			c-0.267,0.045-0.4,0.197-0.4,0.462C63.877,29.172,64.075,29.812,64.469,30.764"/>
		<path fill="#AD926E" d="M74.84,29.354v1.169c0,0.334,0.027,0.547,0.074,0.639c0.048,0.088,0.166,0.133,0.353,0.133l0.163-0.005
			l0.236-0.005h0.457c0.359,0,0.631-0.197,0.827-0.587l0.124-0.265c0.031-0.068,0.088-0.097,0.164-0.104
			c0.076-0.004,0.119,0.048,0.119,0.149c0,0.026-0.008,0.104-0.018,0.237c-0.008,0.089-0.012,0.169-0.012,0.232
			c0,0.118,0.018,0.387,0.049,0.812c0.022,0.276,0.035,0.515,0.035,0.721l0.006,0.276c0,0.052-0.006,0.083-0.017,0.103
			c-0.016,0.022-0.042,0.032-0.089,0.039c-0.09,0.005-0.145-0.063-0.166-0.206c-0.048-0.308-0.156-0.538-0.326-0.695
			c-0.093-0.087-0.204-0.143-0.342-0.168c-0.135-0.024-0.388-0.038-0.758-0.038h-0.368c-0.173,0-0.29,0.025-0.353,0.079
			c-0.062,0.051-0.105,0.155-0.125,0.313c-0.023,0.181-0.035,0.465-0.035,0.852v0.482c0,0.505,0.041,0.873,0.118,1.092
			c0.063,0.16,0.134,0.271,0.216,0.329c0.084,0.056,0.211,0.088,0.385,0.088c1.459,0,2.416-0.446,2.866-1.33
			c0.024-0.046,0.045-0.069,0.063-0.073c0.036-0.006,0.069,0.006,0.102,0.035c0.029,0.032,0.047,0.069,0.047,0.118
			c0,0.352-0.096,0.696-0.287,1.027c-0.156,0.281-0.354,0.48-0.594,0.602c-0.236,0.124-0.551,0.182-0.943,0.182
			c-0.23,0-0.483-0.013-0.764-0.044l-0.627-0.062c-0.23-0.021-0.541-0.03-0.934-0.03c-0.262,0-0.662,0.015-1.197,0.046
			c-0.146,0.01-0.254,0.017-0.316,0.017c-0.089,0-0.134-0.042-0.141-0.122c-0.003-0.063,0.035-0.113,0.119-0.148
			c0.203-0.078,0.343-0.16,0.416-0.251c0.072-0.087,0.131-0.244,0.174-0.469c0.042-0.191,0.06-0.45,0.06-0.775v-4.27
			c0-0.4-0.066-0.674-0.196-0.819c-0.13-0.142-0.404-0.243-0.818-0.301c-0.1-0.014-0.146-0.067-0.146-0.156
			c0-0.085,0.06-0.126,0.176-0.126c0.027,0,0.08,0.004,0.164,0.012c0.064,0.006,0.151,0.008,0.265,0.008l0.545,0.023l2.046,0.021
			c1.176,0,1.903-0.019,2.176-0.052c0.029-0.002,0.055-0.004,0.076-0.004c0.104,0,0.156,0.062,0.156,0.177
			c0,0.086,0.011,0.231,0.035,0.444c0.028,0.312,0.041,0.536,0.041,0.672c0,0.274-0.07,0.417-0.212,0.424
			c-0.068,0.002-0.103-0.08-0.103-0.239c0-0.359-0.131-0.616-0.391-0.776c-0.266-0.159-0.684-0.24-1.268-0.24H75.49l-0.369,0.04
			c-0.183,0.06-0.275,0.242-0.275,0.548L74.84,29.354"/>
		<path fill="#AD926E" d="M84.421,33.798c0,0.669,0.082,1.048,0.243,1.129c0.091,0.046,0.266,0.067,0.527,0.067
			c1.225,0,2.088-0.354,2.6-1.071c0.155-0.217,0.254-0.328,0.294-0.328c0.066,0,0.098,0.078,0.098,0.225
			c0,0.453-0.149,0.86-0.444,1.221c-0.266,0.314-0.623,0.474-1.074,0.474c-0.098,0-0.267-0.011-0.518-0.028
			c-0.064-0.006-0.277-0.018-0.648-0.038l-0.585-0.027c-0.198-0.01-0.425-0.017-0.676-0.017c-0.417,0-0.868,0.026-1.353,0.082
			c-0.146,0.018-0.244,0.028-0.297,0.028c-0.102,0-0.155-0.05-0.155-0.144c0-0.068,0.048-0.115,0.14-0.139
			c0.231-0.066,0.389-0.189,0.479-0.374c0.088-0.184,0.133-0.489,0.133-0.905v-4.498c0-0.573-0.238-0.896-0.717-0.974l-0.326-0.053
			c-0.135-0.022-0.203-0.077-0.203-0.165c0-0.108,0.053-0.163,0.161-0.163c0.036,0,0.089,0.006,0.157,0.016
			c0.051,0.006,0.123,0.014,0.212,0.023l0.231,0.018c0.221,0.02,0.383,0.033,0.491,0.033c0.173,0,0.446-0.021,0.824-0.066
			c0.283-0.027,0.567-0.045,0.858-0.045c0.217,0,0.325,0.053,0.325,0.151c0,0.09-0.077,0.137-0.231,0.143
			c-0.363,0.027-0.546,0.276-0.546,0.751V33.798"/>
		<path fill="#AD926E" d="M93.62,27.981c0.339,0,0.667,0.064,0.993,0.193l0.361,0.151c0.162,0.067,0.278,0.1,0.346,0.1
			c0.051,0,0.101-0.014,0.154-0.038l0.207-0.104c0.029-0.015,0.058-0.021,0.088-0.021c0.074,0,0.114,0.058,0.114,0.179l-0.013,0.436
			c0,0.067,0.004,0.132,0.013,0.195l0.071,0.524l0.053,0.491c0.008,0.043,0.01,0.079,0.01,0.106c0,0.155-0.045,0.231-0.133,0.231
			c-0.062,0-0.111-0.067-0.142-0.204c-0.103-0.501-0.364-0.934-0.787-1.298c-0.423-0.366-0.87-0.552-1.343-0.552
			c-0.324,0-0.606,0.112-0.848,0.329c-0.242,0.22-0.362,0.479-0.362,0.773c0,0.274,0.104,0.515,0.318,0.714
			c0.139,0.13,0.563,0.338,1.28,0.629c0.853,0.35,1.42,0.689,1.699,1.024c0.323,0.403,0.49,0.885,0.49,1.455
			c0,0.622-0.227,1.168-0.678,1.63c-0.454,0.463-0.984,0.696-1.594,0.696c-0.248,0-0.641-0.084-1.18-0.253
			c-0.252-0.084-0.437-0.137-0.557-0.163c-0.166-0.032-0.261-0.062-0.289-0.095c-0.026-0.029-0.048-0.122-0.066-0.275
			c-0.019-0.167-0.074-0.411-0.162-0.732c-0.136-0.487-0.206-0.8-0.206-0.933c0-0.174,0.054-0.261,0.167-0.261
			c0.053,0,0.088,0.045,0.109,0.128c0.177,0.615,0.482,1.13,0.918,1.551c0.436,0.419,0.887,0.63,1.354,0.63
			c0.367,0,0.692-0.141,0.978-0.416c0.287-0.28,0.427-0.595,0.427-0.955c0-0.281-0.072-0.515-0.223-0.697
			c-0.148-0.182-0.407-0.354-0.774-0.516l-0.82-0.365c-0.775-0.345-1.302-0.672-1.582-0.98c-0.274-0.304-0.412-0.714-0.412-1.225
			c0-0.593,0.192-1.088,0.577-1.486C92.564,28.181,93.047,27.981,93.62,27.981"/>
	</g>
	<g>
		<path fill="#36312A" d="M12.375,15.034H2.697c0.07,1.315,0.512,2.358,1.326,3.136c0.811,0.774,1.861,1.167,3.149,1.167
			c1.794,0,3.451-0.56,4.964-1.675v2.656c-0.835,0.561-1.667,0.958-2.49,1.197c-0.823,0.237-1.788,0.356-2.896,0.356
			c-1.516,0-2.743-0.312-3.679-0.942c-0.937-0.623-1.689-1.467-2.251-2.528c-0.563-1.059-0.844-2.289-0.844-3.681
			c0-2.091,0.593-3.79,1.779-5.101c1.187-1.309,2.727-1.964,4.623-1.964c1.826,0,3.28,0.637,4.366,1.911
			c1.088,1.276,1.632,2.984,1.632,5.123V15.034 M2.756,13.407h6.927c-0.07-1.086-0.395-1.924-0.974-2.508
			c-0.578-0.588-1.355-0.882-2.333-0.882c-0.977,0-1.776,0.294-2.401,0.882C3.353,11.483,2.945,12.321,2.756,13.407"/>
		<path fill="#36312A" d="M17.343,7.925v1.75c1.213-1.346,2.596-2.018,4.144-2.018c0.857,0,1.654,0.221,2.394,0.664
			c0.738,0.444,1.299,1.051,1.683,1.822c0.382,0.771,0.576,1.994,0.576,3.665v7.856h-2.722v-7.826c0-1.404-0.214-2.405-0.644-3.007
			c-0.429-0.604-1.146-0.903-2.152-0.903c-1.288,0-2.379,0.641-3.276,1.925v9.812h-2.783V7.925H17.343"/>
		<path fill="#36312A" d="M39.463,18.455v2.688c-1.369,0.507-2.703,0.762-4.012,0.762c-2.152,0-3.871-0.636-5.153-1.911
			c-1.281-1.273-1.922-2.983-1.922-5.123c0-2.162,0.624-3.901,1.871-5.227c1.247-1.324,2.887-1.986,4.922-1.986
			c0.707,0,1.344,0.067,1.906,0.203c0.564,0.132,1.259,0.384,2.088,0.753v2.897c-1.378-0.875-2.653-1.315-3.831-1.315
			c-1.225,0-2.233,0.434-3.021,1.293c-0.79,0.862-1.182,1.958-1.182,3.293c0,1.404,0.427,2.52,1.278,3.345
			c0.853,0.826,2.004,1.24,3.449,1.24C36.904,19.366,38.105,19.062,39.463,18.455"/>
		<path fill="#36312A" d="M41.789,0.801h2.722v8.931c1.136-1.382,2.549-2.075,4.233-2.075c0.917,0,1.74,0.229,2.469,0.688
			c0.729,0.46,1.267,1.09,1.622,1.896c0.355,0.807,0.533,2.007,0.533,3.599v7.826h-2.724v-8.498c0-1.006-0.249-1.814-0.742-2.427
			c-0.493-0.613-1.145-0.916-1.951-0.916c-0.599,0-1.161,0.152-1.69,0.461c-0.529,0.308-1.113,0.82-1.751,1.538v9.842h-2.722V0.801"
			/>
		<path fill="#36312A" d="M65.545,13.407v5.839c0,0.469,0.16,0.702,0.479,0.702c0.328,0,0.842-0.245,1.54-0.733v1.659
			c-0.618,0.398-1.115,0.669-1.488,0.813c-0.373,0.144-0.766,0.217-1.173,0.217c-1.167,0-1.854-0.46-2.066-1.376
			c-1.156,0.898-2.387,1.344-3.692,1.344c-0.959,0-1.756-0.313-2.396-0.948c-0.639-0.63-0.958-1.425-0.958-2.381
			c0-0.864,0.312-1.64,0.938-2.324c0.622-0.68,1.506-1.219,2.654-1.617l3.483-1.192v-0.733c0-1.652-0.827-2.48-2.483-2.48
			c-1.486,0-2.933,0.768-4.336,2.302V9.524c1.055-1.242,2.579-1.866,4.562-1.866c1.485,0,2.679,0.387,3.575,1.164
			c0.299,0.249,0.568,0.582,0.807,0.994c0.24,0.411,0.392,0.825,0.457,1.24C65.512,11.468,65.545,12.254,65.545,13.407
			 M62.866,18.944V14.87l-1.824,0.702c-0.929,0.368-1.584,0.737-1.968,1.113c-0.383,0.374-0.577,0.837-0.577,1.395
			c0,0.569,0.183,1.032,0.546,1.391c0.365,0.357,0.834,0.537,1.414,0.537C61.325,20.008,62.129,19.653,62.866,18.944"/>
		<path fill="#36312A" d="M72.377,7.925v1.75c1.217-1.346,2.598-2.018,4.145-2.018c0.858,0,1.654,0.221,2.395,0.664
			c0.736,0.444,1.297,1.051,1.682,1.822c0.384,0.771,0.576,1.994,0.576,3.665v7.856h-2.722v-7.826c0-1.404-0.215-2.405-0.643-3.007
			c-0.429-0.604-1.149-0.903-2.154-0.903c-1.285,0-2.379,0.641-3.276,1.925v9.812h-2.782V7.925H72.377"/>
		<path fill="#36312A" d="M82.62,10.106l5.114-5.019v2.837h4.354v2.449h-4.354v6.727c0,1.567,0.655,2.354,1.961,2.354
			c0.977,0,2.01-0.323,3.098-0.971v2.538c-1.049,0.589-2.19,0.88-3.426,0.88c-1.248,0-2.287-0.361-3.111-1.091
			c-0.26-0.217-0.477-0.463-0.646-0.735c-0.166-0.276-0.308-0.635-0.424-1.077c-0.115-0.442-0.172-1.285-0.172-2.531v-6.094H82.62
			V10.106"/>
		<path fill="#36312A" d="M96.537,2.147c0.448,0,0.833,0.154,1.153,0.462c0.32,0.312,0.478,0.686,0.478,1.136
			c0,0.438-0.157,0.816-0.478,1.134c-0.32,0.319-0.704,0.477-1.153,0.477c-0.419,0-0.789-0.16-1.109-0.482
			c-0.318-0.324-0.478-0.698-0.478-1.126c0-0.419,0.159-0.79,0.478-1.116C95.75,2.31,96.118,2.147,96.537,2.147 M95.191,21.665
			V7.925h2.721v13.74H95.191z"/>
		<path fill="#36312A" d="M104.059,7.925v1.75c1.219-1.346,2.598-2.018,4.144-2.018c0.857,0,1.655,0.221,2.396,0.664
			c0.739,0.444,1.297,1.051,1.682,1.822s0.577,1.994,0.577,3.665v7.856h-2.722v-7.826c0-1.404-0.217-2.405-0.646-3.007
			c-0.429-0.604-1.146-0.903-2.152-0.903c-1.286,0-2.379,0.641-3.276,1.925v9.812h-2.782V7.925H104.059"/>
		<path fill="#36312A" d="M115.512,12.674c0-1.465,0.537-2.621,1.606-3.473c1.075-0.848,2.538-1.276,4.394-1.276h5.67v2.122h-2.785
			c0.54,0.547,0.914,1.045,1.124,1.495c0.208,0.446,0.313,0.962,0.313,1.537c0,0.717-0.205,1.423-0.611,2.112
			c-0.411,0.694-0.938,1.224-1.58,1.592c-0.645,0.368-1.697,0.662-3.166,0.881c-1.024,0.151-1.538,0.502-1.538,1.06
			c0,0.318,0.19,0.579,0.576,0.782c0.381,0.205,1.078,0.416,2.085,0.637c1.685,0.368,2.768,0.657,3.254,0.866
			c0.484,0.208,0.92,0.508,1.307,0.897c0.661,0.656,0.988,1.48,0.988,2.479c0,1.304-0.581,2.343-1.742,3.123
			c-1.161,0.773-2.716,1.16-4.658,1.16c-1.968,0-3.534-0.389-4.707-1.172c-1.171-0.78-1.758-1.829-1.758-3.144
			c0-1.862,1.152-3.06,3.457-3.6c-0.919-0.586-1.377-1.168-1.377-1.746c0-0.439,0.195-0.837,0.59-1.192
			c0.396-0.36,0.926-0.625,1.594-0.794C116.524,16.124,115.512,14.676,115.512,12.674 M119.984,22.307
			c-0.916,0-1.668,0.195-2.251,0.583c-0.585,0.391-0.874,0.888-0.874,1.495c0,1.412,1.275,2.118,3.83,2.118
			c1.205,0,2.14-0.176,2.803-0.53c0.662-0.35,0.996-0.853,0.996-1.5c0-0.639-0.42-1.156-1.258-1.559
			C122.395,22.511,121.311,22.307,119.984,22.307 M120.629,10.285c-0.738,0-1.366,0.251-1.886,0.746
			c-0.519,0.497-0.778,1.096-0.778,1.792c0,0.708,0.256,1.294,0.764,1.756c0.51,0.463,1.152,0.693,1.932,0.693
			c0.769,0,1.405-0.233,1.92-0.71c0.515-0.472,0.771-1.061,0.771-1.767c0-0.718-0.261-1.313-0.779-1.794
			C122.055,10.524,121.406,10.285,120.629,10.285"/>
	</g>
</g>
</svg>
