<?xml version="1.0" encoding="utf-8"?>
<!-- Generator: Adobe Illustrator 16.0.0, SVG Export Plug-In . SVG Version: 6.00 Build 0)  -->
<!DOCTYPE svg PUBLIC "-//W3C//DTD SVG 1.1//EN" "http://www.w3.org/Graphics/SVG/1.1/DTD/svg11.dtd">
<svg version="1.1" id="Layer_1" xmlns="http://www.w3.org/2000/svg" xmlns:xlink="http://www.w3.org/1999/xlink" x="0px" y="0px"
	 width="18px" height="18px" viewBox="0 0 18 18" enable-background="new 0 0 18 18" xml:space="preserve">
<path fill="#FFFFFF" d="M10.619,0.604c-3.6,0-6.528,2.928-6.528,6.527c0,1.472,0.496,2.827,1.32,3.92L1.44,15.021l1.414,1.414
	l3.99-3.989c1.067,0.76,2.368,1.212,3.775,1.212c3.6,0,6.527-2.928,6.527-6.527S14.219,0.604,10.619,0.604z M10.619,11.658
	c-2.5,0-4.528-2.027-4.528-4.527s2.027-4.527,4.528-4.527c2.5,0,4.527,2.027,4.527,4.527S13.119,11.658,10.619,11.658z"/>
</svg>
