<?xml version="1.0" standalone="no"?>
<!DOCTYPE svg PUBLIC "-//W3C//DTD SVG 1.1//EN" "http://www.w3.org/Graphics/SVG/1.1/DTD/svg11.dtd" >
<svg xmlns="http://www.w3.org/2000/svg" xmlns:xlink="http://www.w3.org/1999/xlink" version="1.1">
<metadata></metadata>
<defs>
<font id="soin_sans_prolight" horiz-adv-x="1208" >
<font-face units-per-em="2048" ascent="1536" descent="-512" />
<missing-glyph horiz-adv-x="491" />
<glyph unicode="&#xfb01;" horiz-adv-x="1005" d="M41 748v71h162v158q0 172 90 271.5t270 99.5q37 0 77 -3.5t56 -7.5v-75q-16 4 -55 7t-74 3q-152 0 -216 -77t-64 -218v-158h555v-819h-84v748h-471v-748h-84v748h-162z" />
<glyph unicode="&#xfb02;" horiz-adv-x="997" d="M41 748v71h162v158q0 170 94 270.5t291 100.5q72 0 137.5 -8.5t112.5 -20.5v-1319h-84v1260q-33 4 -78 8t-88 4q-166 0 -233.5 -77t-67.5 -218v-158h262v-71h-262v-748h-84v748h-162z" />
<glyph horiz-adv-x="0" />
<glyph unicode="&#xd;" horiz-adv-x="468" />
<glyph horiz-adv-x="0" />
<glyph horiz-adv-x="0" />
<glyph unicode=" "  horiz-adv-x="491" />
<glyph unicode="&#x09;" horiz-adv-x="491" />
<glyph unicode="&#xa0;" horiz-adv-x="491" />
<glyph unicode="!" horiz-adv-x="552" d="M197 59q0 33 23.5 56.5t55.5 23.5q33 0 56.5 -23.5t23.5 -56.5t-23.5 -56t-56.5 -23t-56 23t-23 56zM236 369v1065h83v-1065h-83z" />
<glyph unicode="&#x22;" horiz-adv-x="540" d="M98 1434h99l-21 -492h-61zM344 1434h98l-20 -492h-62z" />
<glyph unicode="#" d="M125 479v80h192l43 338h-192v80h203l59 457h88l-59 -457h356l59 457h89l-60 -457h178v-80h-188l-43 -338h188v-80h-198l-62 -479h-88l62 479h-357l-61 -479h-88l61 479h-182zM406 559h356l43 338h-356z" />
<glyph unicode="$" d="M115 293h86q20 -98 113.5 -159.5t246.5 -70.5v639q-90 31 -166 65t-130 78t-84.5 106.5t-30.5 152.5q0 57 24.5 117.5t74.5 109.5t128 82t184 39v186h84v-186q76 -6 144.5 -31.5t122 -66.5t88 -94.5t47.5 -116.5h-86q-20 92 -106.5 154.5t-209.5 72.5v-604 q92 -35 168 -71t130 -82t83 -107.5t29 -143.5q0 -86 -34 -153.5t-91.5 -115.5t-131 -75.5t-153.5 -33.5v-189h-84v189q-90 4 -167 28.5t-135 64.5t-95 95t-49 121zM236 1106q0 -68 23.5 -116t66.5 -84t103 -61.5t132 -49.5v575q-80 -6 -141.5 -31.5t-102.5 -63.5t-61 -83 t-20 -86zM645 66q61 6 119.5 28.5t102.5 59t72 87.5t28 117q0 63 -22.5 109.5t-64.5 83.5t-101.5 65.5t-133.5 55.5v-606z" />
<glyph unicode="%" horiz-adv-x="1474" d="M82 1133q0 70 21.5 129t60.5 102t95 67.5t126 24.5t126 -24.5t95 -67.5t60.5 -102.5t21.5 -128.5q0 -70 -21.5 -129.5t-60.5 -102.5t-95 -67.5t-126 -24.5t-126 24.5t-95 67.5t-60.5 102.5t-21.5 129.5zM162 1133q0 -109 57 -178.5t166 -69.5t166 69.5t57 178.5t-57 178 t-166 69t-166 -69.5t-57 -177.5zM287 18l827 1438l74 -41l-828 -1440zM786 301q0 70 21.5 129t60.5 102t95.5 68t126.5 25t126 -25t95 -68t60.5 -102t21.5 -129t-21.5 -129t-60.5 -102t-95.5 -68t-125.5 -25q-70 0 -126.5 25t-95.5 68t-60.5 102t-21.5 129zM866 301 q0 -109 57.5 -178.5t166.5 -69.5t166 69.5t57 178.5t-57.5 178.5t-165.5 69.5q-109 0 -166.5 -69.5t-57.5 -178.5z" />
<glyph unicode="&#x26;" horiz-adv-x="1306" d="M123 354q0 76 25.5 137.5t66.5 111.5t95.5 91t113.5 78l-29 31q-33 37 -66.5 74.5t-60 80.5t-43 91.5t-16.5 107.5q0 45 19.5 97.5t60.5 96.5t105.5 73.5t156.5 29.5q82 0 143.5 -25.5t101.5 -68.5t60.5 -99.5t20.5 -115.5q0 -72 -28 -127t-74 -100.5t-104.5 -83 t-119.5 -74.5l436 -471q43 76 63.5 167t20.5 193v170h86v-170q0 -121 -26.5 -229.5t-81.5 -196.5l208 -223h-114l-146 156q-72 -82 -176 -128t-246 -46q-100 0 -183 29.5t-143.5 80.5t-93 118.5t-32.5 143.5zM209 354q0 -61 29.5 -115.5t80 -94.5t116.5 -62.5t140 -22.5 q123 0 213.5 43t149.5 115l-461 498q-53 -33 -102 -70t-86 -80t-58.5 -95t-21.5 -116zM295 1157q0 -45 13.5 -84t35 -72.5t48 -65.5t52.5 -61l54 -57q57 35 109 69t93 72.5t66 83.5t25 101q0 43 -14.5 85t-43 74.5t-75 53t-107.5 20.5q-66 0 -114 -21.5t-79.5 -53t-47 -70.5 t-15.5 -74z" />
<glyph unicode="'" horiz-adv-x="294" d="M98 1434h99l-21 -492h-61z" />
<glyph unicode="(" horiz-adv-x="565" d="M184 451q0 311 69 570t179 464l72 -41q-51 -104 -94 -210t-75 -224.5t-49.5 -255t-17.5 -303.5q0 -168 17.5 -304.5t49.5 -255t75 -224t94 -210.5l-72 -41q-111 205 -179.5 464.5t-68.5 570.5z" />
<glyph unicode=")" horiz-adv-x="565" d="M61 -543q51 104 94.5 210t75 224.5t49 255t17.5 304.5t-17.5 304t-49 254.5t-74.5 224t-95 210.5l72 41q111 -205 179.5 -464t68.5 -570t-68.5 -570.5t-179.5 -464.5z" />
<glyph unicode="*" horiz-adv-x="831" d="M90 1169l27 74l270 -98l-10 289h78l-11 -289l273 98l24 -74l-276 -84l176 -227l-61 -45l-164 238l-164 -238l-62 45l177 227z" />
<glyph unicode="+" d="M143 547v76h424v421h76v-421h422v-76h-422v-424h-76v424h-424z" />
<glyph unicode="," horiz-adv-x="446" d="M102 -313l115 460l92 -28l-145 -455z" />
<glyph unicode="-" horiz-adv-x="782" d="M102 598v76h578v-76h-578z" />
<glyph unicode="." horiz-adv-x="446" d="M143 59q0 33 23.5 56.5t56.5 23.5t56.5 -23.5t23.5 -56.5t-23.5 -56t-56.5 -23t-56.5 23t-23.5 56z" />
<glyph unicode="/" horiz-adv-x="1157" d="M0 -203l1083 1880l74 -41l-1083 -1882z" />
<glyph unicode="0" horiz-adv-x="1257" d="M115 717q0 168 37.5 304t106.5 231.5t163 147.5t207 52t207 -52t162.5 -147.5t106.5 -231.5t38 -304t-38 -304.5t-106.5 -231.5t-162.5 -147t-207 -52t-207 52t-163 147t-106.5 231.5t-37.5 304.5zM203 717q0 -152 32.5 -272.5t89 -204.5t134.5 -129t170 -45 q90 0 167.5 45t134 129t88.5 204.5t32 272.5q0 150 -32 270.5t-88.5 204.5t-134 130t-167.5 46q-92 0 -170 -46t-134.5 -130t-89 -205t-32.5 -270z" />
<glyph unicode="1" horiz-adv-x="708" d="M33 1202l471 289v-1491h-88v1343l-344 -210z" />
<glyph unicode="2" horiz-adv-x="1120" d="M90 0l535 588q41 45 87 97t85 109.5t64.5 119t25.5 124.5q0 70 -23.5 129.5t-66.5 104.5t-104.5 70.5t-137.5 25.5q-80 0 -144.5 -24.5t-107.5 -69.5t-64.5 -107.5t-17.5 -138.5h-88q-10 90 20.5 168t89 134t139.5 89t173 33q96 0 174 -31.5t132 -88t84 -133.5t30 -167 q0 -72 -23.5 -138.5t-61.5 -125.5t-85 -114.5t-92 -104.5l-426 -465h731v-84h-928z" />
<glyph unicode="3" horiz-adv-x="1105" d="M80 352h88q6 -63 35.5 -115.5t78 -90t113 -59t137.5 -21.5q82 0 149 26.5t114 70.5t71.5 101.5t24.5 120.5q0 82 -28.5 140.5t-79 97.5t-117 58t-142.5 24v83q74 2 135.5 21.5t105.5 57.5t69.5 93.5t25.5 129.5q0 57 -21.5 108t-62.5 89t-98 59.5t-131 21.5 q-141 0 -229.5 -73.5t-96.5 -196.5h-88q10 164 119.5 259t296.5 95q92 0 167 -28.5t127 -78t80.5 -117t28.5 -145.5q0 -74 -21.5 -129t-57 -95t-80.5 -66.5t-91 -42.5q49 -12 99.5 -39t90.5 -71t65.5 -107.5t25.5 -147.5t-30.5 -156.5t-88 -128t-141.5 -87t-188 -31.5 q-90 0 -172 26.5t-145.5 74.5t-100.5 116.5t-37 152.5z" />
<glyph unicode="4" horiz-adv-x="1130" d="M41 285l846 1245v-1161h190v-84h-190v-285h-88v285h-758zM203 369h596v895z" />
<glyph unicode="5" horiz-adv-x="1120" d="M88 352h88q6 -63 37 -115.5t81 -90t116.5 -59t140.5 -21.5q88 0 158.5 28.5t121 78.5t77 122t26.5 158q0 76 -22.5 145.5t-69.5 121.5t-121 83t-178 31h-389l26 600h705v-84h-623l-20 -432h301q123 0 214 -35t150.5 -97.5t89 -147.5t29.5 -185q0 -102 -34 -188.5 t-95 -150t-149.5 -98t-194.5 -34.5q-90 0 -174 26.5t-148.5 74.5t-103.5 116.5t-39 152.5z" />
<glyph unicode="6" horiz-adv-x="1150" d="M115 723q0 70 9 150.5t31.5 161.5t60.5 156t97.5 133t139 93t188.5 35q70 0 132.5 -20.5t111.5 -57.5t82.5 -89t46.5 -114h-88q-10 47 -39 84t-67 61.5t-84 38t-93 13.5q-133 0 -218 -66.5t-134 -170t-67.5 -227.5t-18.5 -238q23 63 63.5 117.5t95 94.5t122 63.5 t141.5 23.5q100 0 181 -38t139.5 -104.5t90 -155.5t31.5 -192q0 -102 -30.5 -192t-88 -157t-141.5 -105.5t-188 -38.5q-106 0 -198.5 39.5t-161 128t-107.5 229.5t-39 344zM248 471q0 -88 26.5 -161.5t75.5 -128t118 -85t153 -30.5t150.5 30.5t112.5 86t69.5 131t23.5 165.5 q0 84 -25.5 158t-71.5 128t-109.5 85t-141.5 31q-82 0 -151.5 -31t-121 -86t-80 -130t-28.5 -163z" />
<glyph unicode="7" horiz-adv-x="1032" d="M53 1350v84h918l-727 -1434h-99l680 1350h-772z" />
<glyph unicode="8" horiz-adv-x="1142" d="M115 373q0 131 71.5 225t202.5 150q-111 41 -177.5 123.5t-66.5 201.5q0 82 31 151.5t86 120t134 79t175 28.5t175 -28.5t134.5 -79t86 -120t30.5 -151.5q0 -119 -66.5 -202t-176.5 -123q131 -55 202.5 -149.5t71.5 -225.5q0 -86 -33.5 -158t-95 -124t-145.5 -80.5 t-183 -28.5q-98 0 -182 28.5t-145.5 80.5t-95 124t-33.5 158zM207 383q0 -68 26.5 -125t74.5 -100t114.5 -67.5t148.5 -24.5t148.5 24.5t115 67.5t75 100t26.5 125t-26.5 126t-75 101t-115 67.5t-148.5 24.5t-148.5 -24.5t-114.5 -67.5t-74.5 -101t-26.5 -126zM238 1075 q0 -59 23.5 -112.5t67.5 -92.5t105 -61.5t137 -22.5t137.5 22.5t105.5 61.5t67.5 92.5t23.5 112.5q0 61 -23.5 114.5t-67.5 93.5t-105.5 62.5t-137.5 22.5t-137 -22.5t-105 -62.5t-67.5 -93t-23.5 -115z" />
<glyph unicode="9" horiz-adv-x="1150" d="M82 958q0 102 30.5 192.5t88 157t141.5 105.5t188 39q113 0 207 -40t160 -128t102.5 -229.5t36.5 -343.5q0 -119 -18.5 -248t-72.5 -235.5t-153.5 -176t-261.5 -69.5q-70 0 -135 20.5t-118.5 57t-90 89t-49.5 113.5h88q10 -47 42 -84t74 -61.5t91 -37.5t96 -13 q131 0 214 61t129.5 160.5t62.5 225.5t16 255q-23 -63 -63.5 -117.5t-97 -94.5t-124 -63.5t-141.5 -23.5q-100 0 -181 38t-139.5 103.5t-90 155.5t-31.5 192zM174 954q0 -84 25.5 -157.5t71.5 -128t109.5 -85t141.5 -30.5q82 0 151.5 30.5t121 86t80 130t28.5 163.5 q0 88 -23.5 161.5t-70.5 128t-117 85t-162 30.5q-84 0 -150.5 -30.5t-112.5 -86t-69.5 -131.5t-23.5 -166z" />
<glyph unicode=":" horiz-adv-x="446" d="M143 59q0 33 23.5 56.5t56.5 23.5t56.5 -23.5t23.5 -56.5t-23.5 -56t-56.5 -23t-56.5 23t-23.5 56zM143 760q0 33 23.5 56.5t56.5 23.5t56.5 -23.5t23.5 -56.5t-23.5 -56.5t-56.5 -23.5t-56.5 23.5t-23.5 56.5z" />
<glyph unicode=";" horiz-adv-x="446" d="M102 -313l115 460l92 -28l-145 -455zM143 760q0 33 23.5 56.5t56.5 23.5t56.5 -23.5t23.5 -56.5t-23.5 -56.5t-56.5 -23.5t-56.5 23.5t-23.5 56.5z" />
<glyph unicode="&#x3c;" d="M143 547v74l922 436v-86l-827 -387l827 -387v-86z" />
<glyph unicode="=" d="M143 373v76h922v-76h-922zM143 721v76h922v-76h-922z" />
<glyph unicode="&#x3e;" d="M143 111v86l828 387l-828 387v86l922 -436v-74z" />
<glyph unicode="?" horiz-adv-x="1048" d="M55 1028q-10 90 22 168t92 134t145 89t184 33q104 0 186 -31.5t138.5 -88t86 -133.5t29.5 -167q0 -88 -34 -159.5t-86 -131t-115.5 -108.5t-124.5 -92v-254h-89v295q55 37 119 84t118 103t89 124t35 145q0 70 -23.5 129.5t-68.5 104.5t-110.5 70.5t-149.5 25.5 q-178 0 -271.5 -94t-83.5 -246h-88zM453 59q0 33 23.5 56.5t55.5 23.5q33 0 56.5 -23.5t23.5 -56.5t-23.5 -56t-56.5 -23t-56 23t-23 56z" />
<glyph unicode="@" horiz-adv-x="2125" d="M143 459q0 217 69 400t194.5 315.5t303 206t392.5 73.5q205 0 368.5 -65.5t277.5 -180t174 -273.5t60 -343q0 -121 -25.5 -221.5t-72.5 -173t-113.5 -113.5t-146.5 -41q-47 0 -88 16.5t-72.5 39t-54.5 48t-35 41.5q-45 -80 -135 -128t-195 -48q-94 0 -168.5 33t-127 91.5 t-80 137t-27.5 172.5q0 90 28.5 168t81 134.5t126 89t165.5 32.5q106 0 189.5 -45t134.5 -118l6 143h78v-635q35 -35 80 -68.5t106 -33.5t111.5 35.5t86.5 100t56.5 152.5t20.5 191q0 168 -55.5 313.5t-160 252t-255 166.5t-340.5 60q-197 0 -358.5 -66.5t-276.5 -188 t-178.5 -292.5t-63.5 -378q0 -201 64.5 -373t179.5 -298t272.5 -198.5t345.5 -72.5q186 0 355.5 37.5t326.5 130.5l29 -64q-166 -92 -339 -133t-374 -41q-203 0 -374.5 75t-297.5 208t-197 319.5t-71 409.5zM725 446q0 -74 21.5 -139t62.5 -114.5t100 -77t133 -27.5 q78 0 138.5 27.5t102.5 77t64.5 115t22.5 138.5q0 74 -21.5 137.5t-63.5 110.5t-103.5 74t-139.5 27q-72 0 -130 -28t-100 -76t-64.5 -111.5t-22.5 -133.5z" />
<glyph unicode="A" horiz-adv-x="1406" d="M49 0l653 1495l656 -1495h-92l-197 449h-733l-195 -449h-92zM373 532h659l-330 760z" />
<glyph unicode="B" horiz-adv-x="1294" d="M184 0v1434h469q94 0 176 -18.5t142.5 -58.5t95.5 -106.5t35 -160.5q0 -109 -65.5 -194t-180.5 -110q72 -10 133.5 -39.5t106.5 -76.5t70.5 -111.5t25.5 -144.5q0 -106 -39 -184t-106.5 -129.5t-160.5 -76t-202 -24.5h-500zM272 80h412q84 0 160 15.5t134 54t92 102 t34 162.5q0 86 -33 147.5t-94.5 100t-147.5 57t-190 18.5h-367v-657zM272 817h344q70 0 141.5 11.5t130 42t94.5 84t36 135.5q0 80 -32 131t-84 80.5t-117.5 41t-131.5 11.5h-381v-537z" />
<glyph unicode="C" horiz-adv-x="1638" d="M115 717q0 154 57 288t157.5 233t235.5 157.5t291 58.5q127 0 235.5 -35t196.5 -96t152.5 -147t103.5 -189h-96q-31 76 -85 145.5t-129 122t-170 83t-206 30.5q-139 0 -258 -50t-207 -138t-138 -207t-50 -256t50 -256t138 -207t207 -138t258 -50q111 0 208 31.5t174 86 t131 126t81 153.5h96q-35 -109 -99.5 -197t-154.5 -152.5t-200.5 -99t-237.5 -34.5q-156 0 -291 58t-235.5 157.5t-157.5 233.5t-57 288z" />
<glyph unicode="D" horiz-adv-x="1499" d="M184 0v1434h480q160 0 291.5 -54.5t225 -150.5t144.5 -226.5t51 -281.5q0 -156 -48 -288t-139 -228t-220 -150.5t-289 -54.5h-496zM272 84h408q141 0 255 47t191.5 131t119.5 201t42 258q0 135 -44 250.5t-126 199.5t-197.5 131.5t-256.5 47.5h-392v-1266z" />
<glyph unicode="E" horiz-adv-x="1222" d="M184 0v1434h912v-84h-824v-531h766v-84h-766v-651h824v-84h-912z" />
<glyph unicode="F" horiz-adv-x="1157" d="M184 0v1434h912v-84h-824v-531h766v-84h-766v-735h-88z" />
<glyph unicode="G" horiz-adv-x="1693" d="M115 717q0 154 57 288t156.5 233t234.5 157.5t291 58.5q127 0 235.5 -35t195.5 -96t151.5 -147t103.5 -189h-96q-31 76 -85 145.5t-129 122t-169 83t-205 30.5q-139 0 -258 -50t-206 -138t-137 -207t-50 -256t50 -256t136 -206t203 -137t252 -50t250.5 46t201.5 125.5 t135.5 188.5t53.5 231h-617v84h709v-26q0 -168 -54.5 -304.5t-152.5 -231.5t-232 -147t-294 -52q-154 0 -287 57t-231.5 157.5t-155.5 233.5t-57 287z" />
<glyph unicode="H" horiz-adv-x="1480" d="M184 0v1434h88v-615h936v615h88v-1434h-88v735h-936v-735h-88z" />
<glyph unicode="I" horiz-adv-x="514" d="M213 0v1434h88v-1434h-88z" />
<glyph unicode="J" horiz-adv-x="1030" d="M0 293h86q23 -102 112 -168t222 -66q80 0 144.5 23.5t108.5 67t68.5 103.5t24.5 134v1047h88v-1047q0 -88 -31.5 -162.5t-89 -128t-137.5 -84t-176 -30.5q-80 0 -150.5 22.5t-126 64.5t-93.5 99t-50 125z" />
<glyph unicode="K" horiz-adv-x="1224" d="M184 0v1434h88v-672l770 672h127l-690 -605l705 -829h-113l-657 776l-142 -127v-649h-88z" />
<glyph unicode="L" horiz-adv-x="1095" d="M184 0v1434h88v-1350h783v-84h-871z" />
<glyph unicode="M" horiz-adv-x="1753" d="M111 0l153 1501l613 -1356l612 1356l153 -1501h-88l-116 1184l-561 -1231l-562 1231l-116 -1184h-88z" />
<glyph unicode="N" horiz-adv-x="1527" d="M184 0v1466l1071 -1290v1258h88v-1497l-1071 1300v-1237h-88z" />
<glyph unicode="O" horiz-adv-x="1701" d="M115 717q0 154 57 288t157.5 233t233.5 157.5t287 58.5t288 -58.5t233 -157.5t157.5 -233.5t58.5 -287.5q0 -154 -58.5 -287t-157.5 -233.5t-233 -157.5t-288 -57t-287 57t-233.5 157.5t-157.5 233.5t-57 287zM205 717q0 -137 50 -256t138 -206t205 -137t252 -50t253 50 t205 137t138 206t51 256t-51 256t-138 207t-205 138t-253 50t-252 -50t-205 -138t-138 -207t-50 -256z" />
<glyph unicode="P" horiz-adv-x="1271" d="M184 0v1434h508q96 0 182.5 -24t151 -75t102 -130t37.5 -191q0 -104 -36.5 -181t-100 -126.5t-148.5 -73t-184 -23.5h-424v-610h-88zM272 694h424q76 0 145.5 17.5t122 56.5t83 100.5t30.5 149.5t-30.5 150.5t-83 102.5t-122 59.5t-149.5 19.5h-420v-656z" />
<glyph unicode="Q" horiz-adv-x="1701" d="M115 725q0 150 57 283t157.5 232t233.5 156.5t287 57.5t288 -57.5t233 -156.5t157.5 -232.5t58.5 -282.5q0 -106 -33.5 -209.5t-94 -190.5t-142.5 -155t-180 -102l491 16v-84h-778q-154 0 -287 56.5t-233.5 154.5t-157.5 230t-57 284zM205 725q0 -135 50 -252t138 -203 t205 -135t252 -49t253 49t205 135t138 203t51 252t-51 253t-138 204t-205 136t-253 50t-252 -50t-205 -136t-138 -204t-50 -253z" />
<glyph unicode="R" horiz-adv-x="1286" d="M184 0v1434h504q96 0 182 -21.5t150.5 -69t102.5 -124t38 -189.5q0 -98 -37 -172t-95 -121t-131 -70.5t-144 -23.5l446 -643h-102l-447 643h-379v-643h-88zM272 727h420q76 0 145.5 15.5t122 50t83 94t30.5 147.5t-30.5 148.5t-83 97.5t-122 53.5t-149.5 16.5h-416v-623z " />
<glyph unicode="S" horiz-adv-x="1099" d="M82 293h86q23 -102 122 -166t265 -64q68 0 133.5 19.5t116.5 56.5t82 92.5t31 126.5q0 74 -31 125.5t-86.5 90t-132 70.5t-168.5 63q-90 31 -163 63.5t-126 77.5t-82 106.5t-29 149.5q0 61 26 123.5t79 113t136 82t198 31.5q86 0 160.5 -22.5t133 -64.5t96.5 -99.5 t50 -124.5h-86q-23 102 -118 165.5t-236 63.5q-90 0 -157 -25.5t-110 -64.5t-64.5 -86t-21.5 -90q0 -72 26 -121t73 -85t111.5 -62.5t142.5 -51.5q104 -37 190 -73.5t147.5 -84.5t95.5 -112.5t34 -153.5q0 -92 -38 -162.5t-100.5 -119.5t-144.5 -73.5t-168 -24.5 q-96 0 -177 22.5t-142.5 64.5t-101.5 99t-52 125z" />
<glyph unicode="T" horiz-adv-x="1128" d="M53 1350v84h1022v-84h-467v-1350h-88v1350h-467z" />
<glyph unicode="U" horiz-adv-x="1441" d="M176 590v844h88v-844q0 -111 23.5 -207t78 -167t141.5 -110.5t214 -39.5t214 39.5t141 110.5t78 167t24 207v844h88v-844q0 -129 -33 -240.5t-99.5 -192.5t-169 -128t-243.5 -47t-243.5 47t-169 128t-99.5 192.5t-33 240.5z" />
<glyph unicode="V" horiz-adv-x="1280" d="M29 1434h88l536 -1280l539 1280h88l-627 -1489z" />
<glyph unicode="W" horiz-adv-x="2062" d="M70 1434h90l403 -1241l467 1288l469 -1288l404 1241h90l-488 -1485l-475 1280l-473 -1280z" />
<glyph unicode="X" horiz-adv-x="1292" d="M37 0l559 756l-500 678h99l450 -611l453 611h98l-502 -678l561 -756h-98l-512 690l-510 -690h-98z" />
<glyph unicode="Y" horiz-adv-x="1163" d="M33 1434h94l455 -734l454 734h94l-503 -816v-618h-88v618z" />
<glyph unicode="Z" horiz-adv-x="1241" d="M70 0l931 1354h-849v80h1007l-932 -1354h903v-80h-1060z" />
<glyph unicode="[" horiz-adv-x="581" d="M205 -512v1946h336v-80h-252v-1786h252v-80h-336z" />
<glyph unicode="\" horiz-adv-x="1157" d="M0 1636l74 41l1083 -1880l-74 -43z" />
<glyph unicode="]" horiz-adv-x="581" d="M41 -432h252v1786h-252v80h336v-1946h-336v80z" />
<glyph unicode="^" horiz-adv-x="1138" d="M82 649l442 785h90l443 -785h-101l-387 692l-387 -692h-100z" />
<glyph unicode="_" horiz-adv-x="872" d="M61 -123h750v-80h-750v80z" />
<glyph unicode="`" horiz-adv-x="614" d="M143 1251l66 88l283 -241l-46 -43z" />
<glyph unicode="a" horiz-adv-x="933" d="M86 250q0 129 95 196.5t300 67.5h228v37q0 104 -63.5 159.5t-186.5 55.5q-98 0 -162 -39t-82 -106h-82q23 102 113 160.5t213 58.5q154 0 243 -78t89 -211v-551h-76l-6 139q-39 -59 -109 -104t-190 -45q-141 0 -232.5 66.5t-91.5 193.5zM168 250q0 -92 68 -139.5 t174 -47.5q57 0 111 17.5t95 51.5t67 83t26 113v112h-228q-166 0 -239.5 -45t-73.5 -145z" />
<glyph unicode="b" horiz-adv-x="1058" d="M156 0v1337h84v-661q51 74 134 119t189 45q92 0 166 -33t126 -89t81 -134t29 -168q0 -94 -28 -173t-80 -137.5t-127 -91t-169 -32.5q-104 0 -190 44t-131 124l-4 -150h-80zM236 416q0 -74 22.5 -139.5t64.5 -114.5t102 -77t138 -28q74 0 133.5 28t100.5 77t62.5 114.5 t21.5 139.5q0 70 -22.5 133t-64.5 111.5t-100.5 76t-130.5 27.5q-78 0 -139.5 -26.5t-103 -74t-63 -111t-21.5 -136.5z" />
<glyph unicode="c" horiz-adv-x="985" d="M94 410q0 88 32 166.5t87 137t132 92.5t169 34q141 0 242.5 -70t136.5 -182h-84q-29 74 -102.5 125t-192.5 51q-74 0 -135.5 -26.5t-105.5 -74t-69.5 -113t-25.5 -140.5q0 -78 25.5 -142.5t70.5 -110.5t106.5 -73t135.5 -27q119 0 194.5 49.5t104.5 126.5h84 q-35 -117 -139.5 -184t-243.5 -67q-90 0 -168 33.5t-134 91t-88 135t-32 168.5z" />
<glyph unicode="d" horiz-adv-x="1058" d="M94 416q0 90 29 168t81 134t125.5 89t166.5 33q106 0 189 -45t134 -119v661h84v-1337h-80l-4 150q-45 -80 -131 -124t-190 -44q-94 0 -169 32.5t-127 91t-80 137.5t-28 173zM178 416q0 -74 21.5 -139.5t62.5 -114.5t100.5 -77t133.5 -28q78 0 138 28t102 77t64.5 114.5 t22.5 139.5t-21.5 137t-63.5 110.5t-103.5 74t-138.5 26.5q-72 0 -130.5 -27.5t-100.5 -76t-64.5 -112t-22.5 -132.5z" />
<glyph unicode="e" horiz-adv-x="993" d="M94 410q0 88 31 166.5t86 137t131 92.5t168 34q90 0 161.5 -34t123 -89t78 -127t26.5 -148q0 -41 -6 -65h-717q10 -143 101.5 -232.5t240.5 -89.5q119 0 189.5 53.5t91.5 124.5h82q-12 -55 -44 -101t-79 -80t-108.5 -52t-131.5 -18q-96 0 -175 33.5t-134 91t-85 135 t-30 168.5zM178 451h639q0 57 -20.5 114.5t-59.5 101.5t-96 71.5t-131 27.5q-70 0 -128 -23.5t-101 -65.5t-70 -100.5t-33 -125.5z" />
<glyph unicode="f" horiz-adv-x="593" d="M41 748v71h162v174q0 172 81 262.5t246 90.5q23 0 45.5 -2.5t38.5 -6.5v-75q-31 8 -73 8q-135 0 -194.5 -67.5t-59.5 -209.5v-174h262v-71h-262v-748h-84v748h-162z" />
<glyph unicode="g" horiz-adv-x="944" d="M66 119q0 39 13 68.5t33.5 50t44 34t46.5 21.5q-33 29 -52.5 86.5t-19.5 114.5q0 70 27.5 133t75 110t111 75t134.5 28h393v-62l-186 -8q68 -45 105.5 -121t37.5 -155q0 -72 -26.5 -134.5t-74.5 -108.5t-111.5 -73.5t-137.5 -27.5q-76 0 -129 23.5t-100 59.5 q-39 -10 -71 -35.5t-32 -78.5q0 -68 53.5 -93.5t125.5 -25.5h190q190 0 286.5 -81t96.5 -224q0 -70 -26.5 -129.5t-78 -103.5t-127 -68.5t-173.5 -24.5q-104 0 -182.5 28t-128.5 73t-75.5 103t-25.5 120q0 92 43 156.5t90 93.5q-68 18 -108.5 61t-40.5 115zM164 -305 q0 -104 83 -178t247 -74q166 0 245.5 70.5t79.5 181.5q0 53 -15.5 96t-51 74t-93 47t-143.5 16h-209q-59 -29 -101 -89t-42 -144zM213 494q0 -59 20.5 -108.5t57.5 -85.5t85 -56.5t103 -20.5t104.5 20.5t85.5 56.5t57.5 85t21.5 109q0 57 -21.5 107t-57.5 87t-85 57.5 t-105 20.5q-55 0 -103 -20.5t-85 -57.5t-57.5 -87t-20.5 -107z" />
<glyph unicode="h" horiz-adv-x="1028" d="M156 0v1337h84v-630q20 20 51 43.5t69.5 44t88 33t108.5 12.5q154 0 241 -95.5t87 -259.5v-485h-84v485q0 129 -64.5 204t-187.5 75q-55 0 -103.5 -14.5t-86 -36t-68.5 -48t-51 -51.5v-614h-84z" />
<glyph unicode="i" horiz-adv-x="411" d="M141 1122q0 29 17.5 47.5t46.5 18.5t47 -18.5t18 -47.5t-18.5 -46t-46.5 -17q-29 0 -46.5 17t-17.5 46zM164 0v819h84v-819h-84z" />
<glyph unicode="j" horiz-adv-x="411" d="M-102 -451q36 -6 67 -6q93 0 139 53q60 70 60 205v1018h84v-1018q0 -184 -87 -268q-67 -65 -187 -65q-36 0 -76 6v75zM141 1122q0 29 17.5 47.5t46.5 18.5t47 -18.5t18 -47.5t-18.5 -46t-46.5 -17q-29 0 -46.5 17t-17.5 46z" />
<glyph unicode="k" horiz-adv-x="872" d="M156 0v1337h84v-878l444 360h127l-389 -315l430 -504h-111l-385 457l-116 -95v-362h-84z" />
<glyph unicode="l" horiz-adv-x="403" d="M160 0v1337h84v-1337h-84z" />
<glyph unicode="m" horiz-adv-x="1558" d="M147 0v819h76l8 -112q18 20 47 42.5t66 43t83 34t99 13.5q92 0 158 -41t102 -115q68 72 149 114t179 42q139 0 220 -94.5t81 -249.5v-496h-84v496q0 123 -58.5 195.5t-162.5 72.5q-51 0 -94 -13.5t-80 -36t-66.5 -50t-54.5 -56.5q12 -53 12 -112v-496h-84v496 q0 123 -58 195.5t-163 72.5q-51 0 -93 -13.5t-78 -34t-65.5 -46t-54.5 -52.5v-618h-84z" />
<glyph unicode="n" horiz-adv-x="1019" d="M147 0v819h76l8 -117q20 20 51 45t70 45.5t88 34t109 13.5q154 0 241 -95.5t87 -259.5v-485h-84v485q0 129 -64.5 204t-187.5 75q-55 0 -103.5 -14.5t-86.5 -37t-68.5 -50t-51.5 -52.5v-610h-84z" />
<glyph unicode="o" horiz-adv-x="1021" d="M90 410q0 88 32 166.5t89 137t133 92.5t166 34q88 0 166 -34t134 -92.5t89 -137t33 -166.5q0 -90 -33 -168t-89 -135.5t-134 -91t-166 -33.5q-90 0 -166 33.5t-133 91t-89 135.5t-32 168zM174 410q0 -78 25.5 -142.5t70.5 -110.5t106.5 -73t133.5 -27t133.5 27t107.5 73 t71.5 110.5t25.5 142.5q0 76 -25.5 141t-71.5 112.5t-107.5 74t-133.5 26.5t-133.5 -26.5t-106.5 -74t-70.5 -112.5t-25.5 -141z" />
<glyph unicode="p" horiz-adv-x="1050" d="M147 -512v1331h78l6 -143q51 74 134.5 119t189.5 45q92 0 166 -33t126 -89t80.5 -134t28.5 -168q0 -94 -27.5 -173t-79.5 -137.5t-127 -91t-169 -32.5q-104 0 -190.5 44t-131.5 124v-662h-84zM227 416q0 -74 22.5 -139.5t64.5 -114.5t102.5 -77t138.5 -28q74 0 133.5 28 t100 77t62 114.5t21.5 139.5q0 70 -22.5 133t-64.5 111.5t-100 76t-130 27.5q-78 0 -139.5 -26.5t-103.5 -74t-63.5 -111t-21.5 -136.5z" />
<glyph unicode="q" horiz-adv-x="1050" d="M94 416q0 90 29 168t81 134t125.5 89t166.5 33q106 0 189 -45t134 -119l6 143h78v-1331h-84v662q-45 -80 -131 -124t-190 -44q-94 0 -169 32.5t-127 91t-80 137.5t-28 173zM178 416q0 -74 21.5 -139.5t62.5 -114.5t100.5 -77t133.5 -28q78 0 138 28t102 77t64.5 114.5 t22.5 139.5t-21.5 137t-63.5 110.5t-103.5 74t-138.5 26.5q-72 0 -130.5 -27.5t-100.5 -76t-64.5 -112t-22.5 -132.5z" />
<glyph unicode="r" horiz-adv-x="622" d="M147 0v819h76l8 -117q20 18 51 43t75 45q45 21 103 30q28 4 59 4q35 0 75 -5v-76q-38 5 -71 5q-30 0 -57 -4q-56 -9 -100 -30.5t-77 -49t-58 -54.5v-610h-84z" />
<glyph unicode="s" horiz-adv-x="776" d="M78 174h84q10 -41 64.5 -80t160.5 -39q86 0 151.5 36t65.5 116q0 82 -68.5 120t-175.5 62q-49 12 -95 29.5t-80.5 45.5t-55 66.5t-20.5 92.5q0 41 17 79.5t52 69.5t87 49.5t122 18.5q61 0 110.5 -16.5t85 -44t57.5 -62.5t30 -72h-86q-6 20 -19.5 42t-37 39t-58.5 28.5 t-84 11.5q-94 0 -144.5 -40t-50.5 -103q0 -74 55.5 -108t151.5 -56q59 -14 111.5 -33.5t92.5 -48.5t62.5 -70t22.5 -98t-24.5 -99t-66.5 -71t-96.5 -43t-113.5 -14q-129 0 -210 57t-97 135z" />
<glyph unicode="t" horiz-adv-x="634" d="M25 748v71h182l20 291h64v-291h270v-71h-270v-510q0 -55 11 -91t31.5 -56.5t51.5 -28t68 -7.5q45 0 73.5 4t51.5 11v-70q-49 -18 -125 -18q-53 0 -98.5 12t-78 40.5t-51 79t-18.5 124.5v510h-182z" />
<glyph unicode="u" horiz-adv-x="999" d="M143 313v506h84v-506q0 -133 58.5 -195.5t160.5 -62.5q59 0 109.5 16.5t91.5 43t71 58.5t50 63v583h84v-819h-80l-4 139q-18 -27 -47 -55.5t-69 -51t-91 -37.5t-115 -15q-137 0 -220 83.5t-83 249.5z" />
<glyph unicode="v" horiz-adv-x="868" d="M25 819h86l323 -690l324 690h86l-410 -860z" />
<glyph unicode="w" horiz-adv-x="1200" d="M41 819h78l227 -645l254 674l254 -674l227 645h78l-299 -860l-260 676l-260 -676z" />
<glyph unicode="x" horiz-adv-x="876" d="M41 0l346 430l-311 389h100l262 -325l262 325h101l-314 -389l349 -430h-101l-297 369l-297 -369h-100z" />
<glyph unicode="y" horiz-adv-x="884" d="M29 819h84l336 -692l325 692h86l-633 -1331h-82l263 557z" />
<glyph unicode="z" horiz-adv-x="780" d="M37 0l557 750h-498v69h643l-559 -749h541v-70h-684z" />
<glyph unicode="{" horiz-adv-x="610" d="M102 416v82q39 20 71 43.5t54.5 55.5t33.5 77t11 106v428q0 178 80 255t217 81v-80q-102 0 -157.5 -60.5t-55.5 -211.5v-397q0 -78 -12 -131.5t-35.5 -91t-54.5 -64.5t-68 -51q37 -25 68 -51.5t54.5 -64.5t35.5 -91t12 -131v-398q0 -152 55.5 -212t157.5 -60v-80 q-137 4 -217 81t-80 255v428q0 61 -11 106.5t-33.5 77t-54.5 55t-71 44.5z" />
<glyph unicode="|" horiz-adv-x="493" d="M205 -410v2048h84v-2048h-84z" />
<glyph unicode="}" horiz-adv-x="610" d="M41 -551q102 0 157.5 60.5t55.5 211.5v398q0 78 12.5 131t36 91t54 64.5t67.5 51.5q-37 25 -67.5 51.5t-54 64t-36 91t-12.5 131.5v397q0 152 -55.5 212t-157.5 60v80q137 -4 217 -81t80 -255v-428q0 -61 11 -106t34 -77t53.5 -55.5t71.5 -43.5v-82q-41 -20 -71.5 -44 t-53.5 -55.5t-34 -76.5t-11 -107v-428q0 -178 -80 -255t-217 -81v80z" />
<glyph unicode="~" d="M174 432q20 33 47 62.5t58.5 52t71.5 36t89 13.5q47 0 92.5 -17.5t88.5 -38t82.5 -38t76.5 -17.5q113 0 166 127l88 -43q-41 -78 -104.5 -126t-147.5 -48q-49 0 -92 18.5t-85 40t-82 40t-83 18.5q-119 0 -180 -119z" />
<glyph unicode="&#xa1;" horiz-adv-x="552" d="M197 764q0 33 23.5 56.5t55.5 23.5q33 0 56.5 -23.5t23.5 -56.5t-23.5 -56.5t-56.5 -23.5t-56 23.5t-23 56.5zM233 455h84v-1065h-84v1065z" />
<glyph unicode="&#xa2;" d="M195 410q0 82 28.5 156.5t80.5 132t122 94t154 45.5v186h84v-186q127 -10 222 -78t128 -172h-84q-29 68 -95.5 117t-170.5 57v-705q104 8 174.5 56.5t97.5 119.5h84q-35 -111 -131 -175t-225 -74v-189h-84v189q-82 8 -153 43.5t-122 93t-80.5 131.5t-29.5 158zM279 410 q0 -72 22.5 -131.5t63.5 -105.5t95 -75.5t120 -38.5v703q-66 -8 -120 -38t-95 -76t-63.5 -107t-22.5 -131z" />
<glyph unicode="&#xa3;" d="M152 0v84h104q49 23 101.5 68t94.5 102t68.5 119.5t26.5 122.5q0 27 -6 51h-269v76h244q-29 57 -75 109t-89 106.5t-73.5 116t-30.5 137.5q0 68 25.5 132t74.5 115.5t122 82t165 30.5t168 -33t128 -89t76.5 -134t16.5 -168h-88q10 152 -69 246t-232 94q-74 0 -129 -24.5 t-93 -64.5t-57.5 -89t-19.5 -98q0 -68 31.5 -125.5t76.5 -112.5t90.5 -110.5t73.5 -120.5h301v-76h-278q2 -12 3 -25.5t1 -25.5q0 -66 -23.5 -126.5t-58.5 -114.5t-78 -97t-82 -74h686v-84h-927z" />
<glyph unicode="&#xa4;" horiz-adv-x="1265" d="M123 614q0 92 31.5 176t87.5 150l-88 88l59 59l86 -88q68 59 153 92t181 33q94 0 179 -32.5t151 -90.5l86 86l59 -59l-86 -86q57 -66 89 -149.5t32 -178.5q0 -96 -33 -181t-92 -152l90 -88l-59 -60l-91 90q-66 -55 -149.5 -87t-175.5 -32q-94 0 -178 32t-152 87l-90 -90 l-59 60l90 90q-57 68 -89 151.5t-32 179.5zM209 614q0 -88 33.5 -164.5t91 -134t134.5 -91.5t165 -34t164.5 34t134 91.5t91.5 134t34 164.5t-34 165t-91.5 134.5t-134 91t-164.5 33.5t-165 -33.5t-134.5 -91t-91 -134.5t-33.5 -165z" />
<glyph unicode="&#xa5;" d="M61 1434h95l448 -734l449 734h94l-338 -553h256v-76h-303l-107 -176h410v-76h-416v-553h-88v553h-418v76h412l-109 176h-303v76h258z" />
<glyph unicode="&#xa6;" horiz-adv-x="493" d="M205 -287v711h84v-711h-84zM205 805v711h84v-711h-84z" />
<glyph unicode="&#xa7;" d="M236 -162h88q16 -86 92 -138t205 -52q51 0 101 15t89 46t62.5 75t23.5 103q0 57 -20.5 99.5t-60.5 74t-97 56t-129 49.5q-72 4 -135.5 33.5t-110.5 79t-73.5 114.5t-26.5 139q0 111 59 201t154 133q-94 45 -144.5 108.5t-50.5 182.5q0 53 19.5 106.5t62.5 96.5 t109.5 70.5t162.5 27.5q68 0 128.5 -20.5t107.5 -57.5t79 -87t42 -109h-86q-16 86 -89 138t-182 52q-72 0 -122 -20.5t-83.5 -52t-49 -69.5t-15.5 -73q0 -57 18.5 -98t52.5 -69.5t83 -50t112 -40.5q76 0 142.5 -29.5t117 -80t79 -117t28.5 -142.5q0 -115 -61.5 -204.5 t-159.5 -130.5q111 -51 169 -120t58 -186q0 -80 -30.5 -141t-82 -102t-117 -62.5t-134.5 -21.5q-156 0 -259.5 76.5t-125.5 197.5zM336 532q0 -57 21.5 -107t58.5 -87t87 -58.5t107 -21.5t107.5 21.5t88.5 58.5t59.5 87t21.5 107t-21.5 107.5t-59.5 88.5t-88 59.5t-108 21.5 q-57 0 -107 -21.5t-87 -59.5t-58.5 -88.5t-21.5 -107.5z" />
<glyph unicode="&#xa8;" horiz-adv-x="614" d="M41 1122q0 29 17.5 47.5t45.5 18.5q29 0 47.5 -18.5t18.5 -47.5t-18.5 -46t-47.5 -17t-46 17t-17 46zM444 1122q0 29 17.5 47.5t46.5 18.5t47 -18.5t18 -47.5t-18 -46t-47 -17t-46.5 17t-17.5 46z" />
<glyph unicode="&#xa9;" horiz-adv-x="1800" d="M164 717q0 154 57.5 288t157.5 233t233 157.5t287 58.5t288 -58.5t233.5 -157.5t157.5 -233.5t58 -287.5q0 -154 -58 -287t-157.5 -233.5t-233.5 -157.5t-288 -57t-287 57t-233 157.5t-157.5 233.5t-57.5 287zM254 717q0 -137 50 -256t138 -206t205 -136t252 -49t253 49 t205 136t138 206t51 256t-51 256t-138 206t-205 137t-253 50t-252 -50t-205 -137t-138 -206t-50 -256zM553 719q0 76 28.5 142.5t78 116.5t116 78.5t144.5 28.5q129 0 220 -72.5t136 -189.5h-92q-31 72 -98.5 125t-165.5 53q-59 0 -110.5 -21.5t-89.5 -60t-60.5 -90 t-22.5 -110.5t22.5 -110.5t60.5 -89.5t89 -59.5t111 -21.5q98 0 167.5 53.5t96.5 131.5h92q-41 -121 -134 -195t-222 -74q-78 0 -144.5 29t-116 78t-78 115.5t-28.5 142.5z" />
<glyph unicode="&#xaa;" horiz-adv-x="696" d="M70 1008q0 98 69.5 146t220.5 48h160v23q0 70 -45 109.5t-131 39.5q-66 0 -111 -29.5t-57 -76.5h-74q16 80 84 125t158 45q115 0 180.5 -57.5t65.5 -155.5v-406h-66l-4 90q-29 -41 -77 -68.5t-134 -27.5q-104 0 -171.5 49t-67.5 146zM141 1008q0 -66 47 -98.5t121 -32.5 q41 0 79 12t67.5 35.5t47 58.5t17.5 78v78h-160q-115 0 -167 -32t-52 -99z" />
<glyph unicode="&#xab;" horiz-adv-x="839" d="M82 584l299 346l49 -58l-246 -288l246 -289l-49 -57zM389 584l299 346l49 -58l-245 -288l245 -289l-49 -57z" />
<glyph unicode="&#xac;" d="M143 547v76h910v-500h-76v424h-834z" />
<glyph unicode="&#xad;" horiz-adv-x="409" d="M0 573v82h410v-82h-410z" />
<glyph unicode="&#xae;" horiz-adv-x="1800" d="M164 717q0 154 57.5 288t157.5 233t233 157.5t287 58.5t288 -58.5t233.5 -157.5t157.5 -233.5t58 -287.5q0 -154 -58 -287t-157.5 -233.5t-233.5 -157.5t-288 -57t-287 57t-233 157.5t-157.5 233.5t-57.5 287zM254 717q0 -137 50 -256t138 -206t205 -136t252 -49t253 49 t205 136t138 206t51 256t-51 256t-138 206t-205 137t-253 50t-252 -50t-205 -137t-138 -206t-50 -256zM688 360v713h246q49 0 93 -11t78 -36t53.5 -64.5t19.5 -97.5q0 -98 -56.5 -144t-138.5 -56l244 -304h-103l-241 302h-115v-302h-80zM768 739h168q61 0 108.5 28t47.5 97 q0 70 -46.5 98.5t-111.5 28.5h-166v-252z" />
<glyph unicode="&#xaf;" horiz-adv-x="614" d="M41 1087v72h532v-72h-532z" />
<glyph unicode="&#xb0;" horiz-adv-x="802" d="M125 1180q0 55 19.5 105t56.5 89t88 61.5t110 22.5q61 0 112.5 -22.5t88.5 -60.5t57.5 -88t20.5 -107t-20.5 -108.5t-57.5 -89.5t-87 -59.5t-110 -21.5q-61 0 -112 21.5t-88 59.5t-57.5 89.5t-20.5 108.5zM186 1180q0 -45 17.5 -85t46.5 -70t68.5 -47t84.5 -17 q43 0 82 17t69 47t46 70t16 85t-17 85t-46 69.5t-68 47t-84 17.5t-83.5 -17.5t-68.5 -47t-46.5 -69.5t-16.5 -85z" />
<glyph unicode="&#xb1;" d="M143 0v76h922v-76h-922zM143 567v76h424v401h76v-401h422v-76h-422v-424h-76v424h-424z" />
<glyph unicode="&#xb2;" horiz-adv-x="741" d="M86 1075l313 318q18 18 41 41.5t43.5 51t33.5 56.5t13 57q0 59 -42 98.5t-113 39.5q-72 0 -118 -38t-46 -104v-18h-80v18q0 92 65.5 152.5t176.5 60.5t176 -59t65 -154q0 -37 -14 -71.5t-35.5 -66.5t-48.5 -59.5t-51 -51.5l-199 -197h381v-74h-561z" />
<glyph unicode="&#xb3;" horiz-adv-x="702" d="M82 1274h80q4 -61 55 -96t123 -35q80 0 126 42t46 95q0 70 -49 102.5t-129 36.5v70q78 2 120 34.5t42 94.5q0 49 -40 83t-110 34q-68 0 -110.5 -32t-47.5 -91h-82q4 92 70 145t170 53q111 0 172.5 -55t61.5 -135q0 -68 -37 -107.5t-86 -56.5q53 -14 97 -58t44 -122 q0 -86 -67.5 -147.5t-188.5 -61.5q-51 0 -98 14.5t-83 41t-57.5 65.5t-21.5 86z" />
<glyph unicode="&#xb4;" horiz-adv-x="614" d="M123 1098l283 241l65 -88l-303 -196z" />
<glyph unicode="&#xb5;" horiz-adv-x="1003" d="M147 -512v1331h84v-506q0 -133 60.5 -195.5t175.5 -62.5q53 0 100 16.5t86 43t69 58.5t50 63v583h84v-819h-80l-4 139q-18 -27 -47 -55.5t-66.5 -51t-86 -37.5t-105.5 -15q-170 0 -236 102v-594h-84z" />
<glyph unicode="&#xb6;" horiz-adv-x="1126" d="M205 1057q0 193 99 285t317 92h321v-80h-172q-68 0 -96.5 -38t-28.5 -97v-1629h-88v1119q-78 0 -143.5 24.5t-111.5 69.5t-71.5 109.5t-25.5 144.5z" />
<glyph unicode="&#xb7;" horiz-adv-x="446" d="M143 637q0 33 23.5 56.5t56.5 23.5t56.5 -23.5t23.5 -56.5t-23.5 -56.5t-56.5 -23.5t-56.5 23.5t-23.5 56.5z" />
<glyph unicode="&#xb8;" horiz-adv-x="614" d="M160 -397l149 315l103 -35l-189 -315z" />
<glyph unicode="&#xb9;" horiz-adv-x="518" d="M55 1665l291 172v-762h-82v623l-172 -96z" />
<glyph unicode="&#xba;" horiz-adv-x="784" d="M82 1120q0 66 23.5 123t65.5 100t99.5 69t122.5 26q66 0 122 -26t98 -69t65.5 -100t23.5 -123t-23.5 -122t-65.5 -99t-98 -67.5t-122 -24.5t-123 24.5t-99 67.5t-65.5 99t-23.5 122zM156 1120q0 -109 67.5 -178.5t169.5 -69.5q49 0 93 18.5t76 51.5t50.5 79t18.5 99 q0 55 -18.5 101.5t-50.5 80t-76 52t-93 18.5q-51 0 -94 -18.5t-74.5 -52t-50 -80t-18.5 -101.5z" />
<glyph unicode="&#xbb;" horiz-adv-x="839" d="M102 295l246 289l-246 288l50 58l299 -346l-299 -346zM410 295l245 289l-245 288l49 58l299 -346l-299 -346z" />
<glyph unicode="&#xbc;" horiz-adv-x="1699" d="M137 1300l291 173v-762h-82v622l-172 -96zM399 18l828 1438l73 -41l-827 -1440zM954 133l496 674v-600h102v-74h-102v-133h-82v133h-414zM1098 207h274v371z" />
<glyph unicode="&#xbd;" horiz-adv-x="1699" d="M137 1300l291 173v-762h-82v622l-172 -96zM399 18l828 1438l73 -41l-827 -1440zM1030 0l313 317q18 18 41 42t43.5 51.5t34 56.5t13.5 57q0 59 -42 98.5t-114 39.5t-118 -38t-46 -104v-18h-80v18q0 92 65.5 152.5t176.5 60.5t176.5 -59.5t65.5 -153.5q0 -37 -14.5 -71.5 t-36 -66.5t-48 -59.5t-51.5 -52.5l-199 -196h381v-74h-561z" />
<glyph unicode="&#xbe;" horiz-adv-x="1699" d="M74 907h80q4 -61 55 -96t123 -35q80 0 126 42t46 95q0 70 -49 103t-129 37v69q78 2 119.5 35t41.5 94q0 49 -39.5 83t-109.5 34q-68 0 -111 -31.5t-47 -91.5h-82q4 92 69.5 145.5t170.5 53.5q111 0 172 -55.5t61 -135.5q0 -68 -36.5 -107.5t-85.5 -55.5q53 -14 97 -58.5 t44 -122.5q0 -86 -67.5 -147.5t-188.5 -61.5q-51 0 -98.5 14.5t-83 41t-57 65.5t-21.5 86zM399 18l828 1438l73 -41l-827 -1440zM954 133l496 674v-600h102v-74h-102v-133h-82v133h-414zM1098 207h274v371z" />
<glyph unicode="&#xbf;" horiz-adv-x="1048" d="M53 -209q0 88 34 160t86 131t115.5 108.5t125.5 92.5v254h88v-295q-55 -37 -119 -84t-118 -103.5t-89 -124t-35 -145.5q0 -70 23.5 -130.5t69 -104.5t111 -69.5t149.5 -25.5q178 0 271 94.5t83 245.5h88q8 -90 -22.5 -168t-91 -134t-145.5 -89t-183 -33q-104 0 -186.5 32 t-138.5 88t-86 133t-30 167zM379 764q0 33 23.5 56.5t56.5 23.5t56.5 -23.5t23.5 -56.5t-23.5 -56.5t-56.5 -23.5t-56.5 23.5t-23.5 56.5z" />
<glyph unicode="&#xc0;" horiz-adv-x="1406" d="M49 0h92l195 449h733l197 -449h92l-656 1495zM373 532l329 760l330 -760h-659zM528 1735l66 80l283 -220l-46 -39z" />
<glyph unicode="&#xc1;" horiz-adv-x="1406" d="M49 0h92l195 449h733l197 -449h92l-656 1495zM373 532l329 760l330 -760h-659zM528 1595l283 220l66 -80l-304 -179z" />
<glyph unicode="&#xc2;" horiz-adv-x="1406" d="M49 0l653 1495l656 -1495h-92l-197 449h-733l-195 -449h-92zM373 532h659l-330 760zM463 1606l239 170l240 -170l-43 -47l-197 122l-196 -122z" />
<glyph unicode="&#xc3;" horiz-adv-x="1406" d="M49 0l653 1495l656 -1495h-92l-197 449h-733l-195 -449h-92zM373 532h659l-330 760zM436 1614q18 41 55 71.5t89 30.5q31 0 63.5 -10t63 -22.5t61.5 -22.5t59 -10q33 0 56.5 21.5t36.5 43.5l49 -30q-12 -47 -54.5 -77t-95.5 -30q-27 0 -58.5 10t-64 23.5t-65.5 24 t-60 10.5q-35 0 -52 -19.5t-30 -48.5z" />
<glyph unicode="&#xc4;" horiz-adv-x="1406" d="M49 0l653 1495l656 -1495h-92l-197 449h-733l-195 -449h-92zM373 532h659l-330 760zM436 1628q0 25 17.5 42.5t46.5 17.5t47 -17.5t18 -42.5t-18.5 -41t-46.5 -16q-29 0 -46.5 16t-17.5 41zM840 1628q0 25 17 42.5t46 17.5t47.5 -17.5t18.5 -42.5t-18.5 -41t-47.5 -16 t-46 16t-17 41z" />
<glyph unicode="&#xc5;" horiz-adv-x="1406" d="M49 0l653 1495l656 -1495h-92l-197 449h-733l-195 -449h-92zM373 532h659l-330 760zM532 1700q0 63 50 108t120 45t120 -45t50 -108q0 -61 -50 -106.5t-120 -45.5t-120 45t-50 107zM598 1700q0 -41 30.5 -68.5t73.5 -27.5t74 27.5t31 68.5t-31 68.5t-74 27.5t-73.5 -27.5 t-30.5 -68.5z" />
<glyph unicode="&#xc6;" horiz-adv-x="2068" d="M49 0l1022 1434h871v-84h-783v-531h725v-84h-725v-651h783v-84h-871v449h-598l-319 -449h-105zM532 532h539v758z" />
<glyph unicode="&#xc7;" horiz-adv-x="1638" d="M115 717q0 154 57 288t157.5 233t235.5 157.5t291 58.5q127 0 235.5 -35t196.5 -96t152.5 -147t103.5 -189h-96q-31 76 -85 145.5t-129 122t-170 83t-206 30.5q-139 0 -258 -50t-207 -138t-138 -207t-50 -256t50 -256t138 -207t207 -138t258 -50q111 0 208 31.5t174 86 t131 126t81 153.5h96q-35 -109 -99.5 -197t-154.5 -152.5t-200.5 -99t-237.5 -34.5q-156 0 -291 58t-235.5 157.5t-157.5 233.5t-57 288zM694 -397l150 315l102 -35l-188 -315z" />
<glyph unicode="&#xc8;" horiz-adv-x="1222" d="M184 0h912v84h-824v651h766v84h-766v531h824v84h-912v-1434zM498 1735l65 80l283 -220l-45 -39z" />
<glyph unicode="&#xc9;" horiz-adv-x="1222" d="M184 0h912v84h-824v651h766v84h-766v531h824v84h-912v-1434zM498 1595l282 220l66 -80l-303 -179z" />
<glyph unicode="&#xca;" horiz-adv-x="1222" d="M184 0v1434h912v-84h-824v-531h766v-84h-766v-651h824v-84h-912zM416 1606l239 170l240 -170l-43 -47l-197 122l-196 -122z" />
<glyph unicode="&#xcb;" horiz-adv-x="1222" d="M184 0v1434h912v-84h-824v-531h766v-84h-766v-651h824v-84h-912zM406 1628q0 25 17 42.5t46 17.5t47.5 -17.5t18.5 -42.5t-18.5 -41t-47.5 -16t-46 16t-17 41zM809 1628q0 25 17.5 42.5t45.5 17.5q29 0 47.5 -17.5t18.5 -42.5t-18.5 -41t-47.5 -16t-46 16t-17 41z" />
<glyph unicode="&#xcc;" horiz-adv-x="514" d="M82 1735l65 80l283 -220l-45 -39zM213 0h88v1434h-88v-1434z" />
<glyph unicode="&#xcd;" horiz-adv-x="514" d="M82 1595l283 220l65 -80l-303 -179zM213 0h88v1434h-88v-1434z" />
<glyph unicode="&#xce;" horiz-adv-x="514" d="M16 1606l240 170l240 -170l-43 -47l-197 122l-197 -122zM213 0v1434h88v-1434h-88z" />
<glyph unicode="&#xcf;" horiz-adv-x="514" d="M-10 1628q0 25 17.5 42.5t45.5 17.5q29 0 47.5 -17.5t18.5 -42.5t-18.5 -41t-47.5 -16t-46 16t-17 41zM213 0v1434h88v-1434h-88zM393 1628q0 25 17.5 42.5t46.5 17.5t47 -17.5t18 -42.5t-18.5 -41t-46.5 -16q-29 0 -46.5 16t-17.5 41z" />
<glyph unicode="&#xd0;" horiz-adv-x="1499" d="M61 598v76h123v760h480q160 0 291.5 -54.5t225 -150.5t144.5 -226.5t51 -281.5q0 -156 -48 -288t-139 -228t-220 -150.5t-289 -54.5h-496v598h-123zM272 84h408q141 0 255 47t191.5 131t119.5 201t42 258q0 135 -44 250.5t-126 199.5t-197.5 131.5t-256.5 47.5h-392v-676 h463v-76h-463v-514z" />
<glyph unicode="&#xd1;" horiz-adv-x="1527" d="M184 0v1466l1071 -1290v1258h88v-1497l-1071 1300v-1237h-88zM498 1614q18 41 55 71.5t88 30.5q31 0 63.5 -10t63.5 -22.5t61.5 -22.5t59.5 -10q33 0 56.5 21.5t35.5 43.5l49 -30q-12 -47 -54 -77t-95 -30q-27 0 -58.5 10t-64.5 23.5t-66 24t-59 10.5q-35 0 -52.5 -19.5 t-29.5 -48.5z" />
<glyph unicode="&#xd2;" horiz-adv-x="1701" d="M115 717q0 -154 57 -287t157.5 -233.5t233.5 -157.5t287 -57t288 57t233 157.5t157.5 233.5t58.5 287t-58.5 288t-157.5 233t-233 157.5t-288 58.5t-287 -58.5t-233.5 -157.5t-157.5 -233t-57 -288zM205 717q0 137 50 256t138 207t205 138t252 50t253 -50t205 -138 t138 -207t51 -256t-51 -256t-138 -206t-205 -137t-253 -50t-252 50t-205 137t-138 206t-50 256zM676 1735l65 80l283 -220l-45 -39z" />
<glyph unicode="&#xd3;" horiz-adv-x="1701" d="M115 717q0 -154 57 -287t157.5 -233.5t233.5 -157.5t287 -57t288 57t233 157.5t157.5 233.5t58.5 287t-58.5 288t-157.5 233t-233 157.5t-288 58.5t-287 -58.5t-233.5 -157.5t-157.5 -233t-57 -288zM205 717q0 137 50 256t138 207t205 138t252 50t253 -50t205 -138 t138 -207t51 -256t-51 -256t-138 -206t-205 -137t-253 -50t-252 50t-205 137t-138 206t-50 256zM676 1595l282 220l66 -80l-303 -179z" />
<glyph unicode="&#xd4;" horiz-adv-x="1701" d="M115 717q0 154 57 288t157.5 233t233.5 157.5t287 58.5t288 -58.5t233 -157.5t157.5 -233.5t58.5 -287.5q0 -154 -58.5 -287t-157.5 -233.5t-233 -157.5t-288 -57t-287 57t-233.5 157.5t-157.5 233.5t-57 287zM205 717q0 -137 50 -256t138 -206t205 -137t252 -50t253 50 t205 137t138 206t51 256t-51 256t-138 207t-205 138t-253 50t-252 -50t-205 -138t-138 -207t-50 -256zM610 1606l240 170l240 -170l-43 -47l-197 122l-197 -122z" />
<glyph unicode="&#xd5;" horiz-adv-x="1701" d="M115 717q0 154 57 288t157.5 233t233.5 157.5t287 58.5t288 -58.5t233 -157.5t157.5 -233.5t58.5 -287.5q0 -154 -58.5 -287t-157.5 -233.5t-233 -157.5t-288 -57t-287 57t-233.5 157.5t-157.5 233.5t-57 287zM205 717q0 -137 50 -256t138 -206t205 -137t252 -50t253 50 t205 137t138 206t51 256t-51 256t-138 207t-205 138t-253 50t-252 -50t-205 -138t-138 -207t-50 -256zM584 1614q18 41 55 71.5t88 30.5q31 0 63.5 -10t63.5 -22.5t61.5 -22.5t59.5 -10q33 0 56.5 21.5t35.5 43.5l49 -30q-12 -47 -54 -77t-95 -30q-27 0 -58.5 10t-64.5 23.5 t-66 24t-59 10.5q-35 0 -52.5 -19.5t-29.5 -48.5z" />
<glyph unicode="&#xd6;" horiz-adv-x="1701" d="M115 717q0 154 57 288t157.5 233t233.5 157.5t287 58.5t288 -58.5t233 -157.5t157.5 -233.5t58.5 -287.5q0 -154 -58.5 -287t-157.5 -233.5t-233 -157.5t-288 -57t-287 57t-233.5 157.5t-157.5 233.5t-57 287zM205 717q0 -137 50 -256t138 -206t205 -137t252 -50t253 50 t205 137t138 206t51 256t-51 256t-138 207t-205 138t-253 50t-252 -50t-205 -138t-138 -207t-50 -256zM584 1628q0 25 17 42.5t46 17.5t47.5 -17.5t18.5 -42.5t-18.5 -41t-47.5 -16t-46 16t-17 41zM987 1628q0 25 17.5 42.5t46.5 17.5t47 -17.5t18 -42.5t-18.5 -41 t-46.5 -16q-29 0 -46.5 16t-17.5 41z" />
<glyph unicode="&#xd7;" d="M209 240l344 344l-344 344l53 53l344 -344l342 342l53 -53l-342 -342l342 -342l-53 -54l-342 342l-344 -344z" />
<glyph unicode="&#xd8;" horiz-adv-x="1701" d="M115 717q0 154 57 288t157.5 233t233.5 157.5t287 58.5q90 0 173 -20.5t159 -59.5l153 266l74 -41l-154 -268q150 -98 241 -259t91 -355q0 -154 -58.5 -287t-157.5 -233.5t-233 -157.5t-288 -57q-176 0 -328 75l-151 -262l-74 43l149 262q-152 98 -241.5 259t-89.5 358z M205 717q0 -174 77.5 -315.5t206.5 -227.5l650 1126q-66 33 -138.5 50.5t-150.5 17.5q-135 0 -252 -50t-205 -138t-138 -207t-50 -256zM565 131q133 -63 285 -63q135 0 253 50t205 137t138 206t51 256q0 174 -78 314t-207 226z" />
<glyph unicode="&#xd9;" horiz-adv-x="1441" d="M176 590q0 -129 33 -240.5t99.5 -192.5t169 -128t243.5 -47t243.5 47t169 128t99.5 192.5t33 240.5v844h-88v-844q0 -111 -24 -207t-78 -167t-141 -110.5t-214 -39.5t-214 39.5t-141.5 110.5t-78 167t-23.5 207v844h-88v-844zM547 1735l65 80l283 -220l-45 -39z" />
<glyph unicode="&#xda;" horiz-adv-x="1441" d="M176 590q0 -129 33 -240.5t99.5 -192.5t169 -128t243.5 -47t243.5 47t169 128t99.5 192.5t33 240.5v844h-88v-844q0 -111 -24 -207t-78 -167t-141 -110.5t-214 -39.5t-214 39.5t-141.5 110.5t-78 167t-23.5 207v844h-88v-844zM547 1595l282 220l66 -80l-303 -179z" />
<glyph unicode="&#xdb;" horiz-adv-x="1441" d="M176 590v844h88v-844q0 -111 23.5 -207t78 -167t141.5 -110.5t214 -39.5t214 39.5t141 110.5t78 167t24 207v844h88v-844q0 -129 -33 -240.5t-99.5 -192.5t-169 -128t-243.5 -47t-243.5 47t-169 128t-99.5 192.5t-33 240.5zM481 1606l240 170l240 -170l-43 -47l-197 122 l-197 -122z" />
<glyph unicode="&#xdc;" horiz-adv-x="1441" d="M176 590v844h88v-844q0 -111 23.5 -207t78 -167t141.5 -110.5t214 -39.5t214 39.5t141 110.5t78 167t24 207v844h88v-844q0 -129 -33 -240.5t-99.5 -192.5t-169 -128t-243.5 -47t-243.5 47t-169 128t-99.5 192.5t-33 240.5zM455 1628q0 25 17 42.5t46 17.5t47.5 -17.5 t18.5 -42.5t-18.5 -41t-47.5 -16t-46 16t-17 41zM858 1628q0 25 17.5 42.5t46.5 17.5t47 -17.5t18 -42.5t-18.5 -41t-46.5 -16q-29 0 -46.5 16t-17.5 41z" />
<glyph unicode="&#xdd;" horiz-adv-x="1163" d="M33 1434l506 -816v-618h88v618l503 816h-94l-454 -734l-455 734h-94zM408 1595l282 220l66 -80l-303 -179z" />
<glyph unicode="&#xde;" horiz-adv-x="1128" d="M184 0v1434h88v-287h277q96 0 182 -21.5t150.5 -68.5t102.5 -124t38 -190q0 -104 -37 -177.5t-100.5 -120t-148.5 -68t-183 -21.5h-281v-356h-88zM272 440h281q76 0 145.5 15.5t121.5 50.5t83 94t31 148q0 88 -31 148t-83 97t-121.5 53.5t-149.5 16.5h-277v-623z" />
<glyph unicode="&#xdf;" horiz-adv-x="1021" d="M160 0v993q0 164 81 258.5t251 94.5q55 0 107 -18.5t91 -52.5t62.5 -82t23.5 -108q0 -72 -43 -136t-110 -93q141 -35 227 -146.5t86 -277.5q0 -102 -35 -181t-94 -134.5t-139 -88t-168 -40.5v75q74 10 138 37t112.5 71t75 108.5t26.5 152.5q0 172 -98.5 270.5 t-253.5 114.5v76q92 2 142 55t50 146q0 84 -58 130t-142 46q-131 0 -189.5 -72t-58.5 -205v-993h-84z" />
<glyph unicode="&#xe0;" horiz-adv-x="933" d="M86 250q0 -127 91 -193.5t233 -66.5q121 0 190.5 45t108.5 104l6 -139h76v551q0 133 -89.5 211t-242.5 78q-123 0 -213 -58.5t-113 -160.5h82q18 68 81.5 106.5t162.5 38.5q123 0 186.5 -55.5t63.5 -159.5v-37h-228q-205 0 -300 -67.5t-95 -196.5zM168 250 q0 100 73.5 145t239.5 45h228v-112q0 -63 -26 -112.5t-67 -83.5t-95 -51.5t-111 -17.5q-106 0 -174 47.5t-68 139.5zM293 1251l65 88l283 -241l-45 -43z" />
<glyph unicode="&#xe1;" horiz-adv-x="933" d="M86 250q0 -127 91 -193.5t233 -66.5q121 0 190.5 45t108.5 104l6 -139h76v551q0 133 -89.5 211t-242.5 78q-123 0 -213 -58.5t-113 -160.5h82q18 68 81.5 106.5t162.5 38.5q123 0 186.5 -55.5t63.5 -159.5v-37h-228q-205 0 -300 -67.5t-95 -196.5zM168 250 q0 100 73.5 145t239.5 45h228v-112q0 -63 -26 -112.5t-67 -83.5t-95 -51.5t-111 -17.5q-106 0 -174 47.5t-68 139.5zM293 1098l282 241l66 -88l-303 -196z" />
<glyph unicode="&#xe2;" horiz-adv-x="933" d="M86 250q0 129 95 196.5t300 67.5h228v37q0 104 -63.5 159.5t-186.5 55.5q-98 0 -162 -39t-82 -106h-82q23 102 113 160.5t213 58.5q154 0 243 -78t89 -211v-551h-76l-6 139q-39 -59 -109 -104t-190 -45q-141 0 -232.5 66.5t-91.5 193.5zM168 250q0 -92 68 -139.5 t174 -47.5q57 0 111 17.5t95 51.5t67 83t26 113v112h-228q-166 0 -239.5 -45t-73.5 -145zM227 1108l240 188l240 -188l-43 -51l-197 135l-197 -135z" />
<glyph unicode="&#xe3;" horiz-adv-x="933" d="M86 250q0 129 95 196.5t300 67.5h228v37q0 104 -63.5 159.5t-186.5 55.5q-98 0 -162 -39t-82 -106h-82q23 102 113 160.5t213 58.5q154 0 243 -78t89 -211v-551h-76l-6 139q-39 -59 -109 -104t-190 -45q-141 0 -232.5 66.5t-91.5 193.5zM168 250q0 -92 68 -139.5 t174 -47.5q57 0 111 17.5t95 51.5t67 83t26 113v112h-228q-166 0 -239.5 -45t-73.5 -145zM201 1118q18 45 55 79t88 34q31 0 63.5 -11.5t63.5 -24.5t61.5 -24.5t59.5 -11.5q33 0 56.5 23.5t35.5 48.5l49 -35q-12 -51 -54 -84t-95 -33q-27 0 -58.5 11.5t-64.5 25.5t-66 25.5 t-59 11.5q-35 0 -52.5 -21.5t-29.5 -52.5z" />
<glyph unicode="&#xe4;" horiz-adv-x="933" d="M86 250q0 129 95 196.5t300 67.5h228v37q0 104 -63.5 159.5t-186.5 55.5q-98 0 -162 -39t-82 -106h-82q23 102 113 160.5t213 58.5q154 0 243 -78t89 -211v-551h-76l-6 139q-39 -59 -109 -104t-190 -45q-141 0 -232.5 66.5t-91.5 193.5zM168 250q0 -92 68 -139.5 t174 -47.5q57 0 111 17.5t95 51.5t67 83t26 113v112h-228q-166 0 -239.5 -45t-73.5 -145zM201 1122q0 29 17.5 47.5t45.5 18.5q29 0 47.5 -18.5t18.5 -47.5t-18.5 -46t-47.5 -17t-46 17t-17 46zM604 1122q0 29 17.5 47.5t46.5 18.5t47 -18.5t18 -47.5t-18.5 -46t-46.5 -17 q-29 0 -46.5 17t-17.5 46z" />
<glyph unicode="&#xe5;" horiz-adv-x="933" d="M86 250q0 129 95 196.5t300 67.5h228v37q0 104 -63.5 159.5t-186.5 55.5q-98 0 -162 -39t-82 -106h-82q23 102 113 160.5t213 58.5q154 0 243 -78t89 -211v-551h-76l-6 139q-39 -59 -109 -104t-190 -45q-141 0 -232.5 66.5t-91.5 193.5zM168 250q0 -92 68 -139.5 t174 -47.5q57 0 111 17.5t95 51.5t67 83t26 113v112h-228q-166 0 -239.5 -45t-73.5 -145zM297 1202q0 70 50 120t120 50t120 -50t50 -120t-50 -120t-120 -50t-120 50.5t-50 119.5zM362 1202q0 -47 31 -76.5t74 -29.5t73.5 29.5t30.5 76.5t-30.5 77t-73.5 30t-74 -30t-31 -77 z" />
<glyph unicode="&#xe6;" horiz-adv-x="1564" d="M86 229q0 117 95 180.5t300 63.5h228v78q0 104 -63.5 159.5t-186.5 55.5q-98 0 -162 -39t-82 -106h-82q23 102 113 160.5t213 58.5t202.5 -50.5t108.5 -140.5q53 86 138 138.5t194 52.5q80 0 147.5 -30t116.5 -81t76.5 -119.5t27.5 -144.5q0 -41 -6 -66h-676 q4 -72 27 -134t63 -109t97 -74t131 -27q119 0 181.5 53.5t82.5 124.5h82q-23 -111 -114 -181t-232 -70q-133 0 -220 59t-134 158q-45 -113 -137.5 -161t-204.5 -48q-141 0 -232.5 62.5t-91.5 176.5zM168 229q0 -80 68 -123t174 -43q57 0 111 17.5t95 54.5t67 92.5t26 128.5 q-2 10 -2 21.5v21.5h-226q-166 0 -239.5 -41t-73.5 -129zM791 473h598q0 57 -20.5 110.5t-58.5 94.5t-91.5 64.5t-116.5 23.5q-129 0 -214 -78t-97 -215z" />
<glyph unicode="&#xe7;" horiz-adv-x="985" d="M94 410q0 88 32 166.5t87 137t132 92.5t169 34q141 0 242.5 -70t136.5 -182h-84q-29 74 -102.5 125t-192.5 51q-74 0 -135.5 -26.5t-105.5 -74t-69.5 -113t-25.5 -140.5q0 -78 25.5 -142.5t70.5 -110.5t106.5 -73t135.5 -27q119 0 194.5 49.5t104.5 126.5h84 q-35 -117 -139.5 -184t-243.5 -67q-90 0 -168 33.5t-134 91t-88 135t-32 168.5zM367 -397l149 315l102 -35l-188 -315z" />
<glyph unicode="&#xe8;" horiz-adv-x="993" d="M94 410q0 -90 30 -168t85 -135.5t134 -91t175 -33.5q70 0 131.5 18t108.5 52t78.5 80t44.5 101h-82q-20 -72 -91 -125t-190 -53q-150 0 -241 89t-101 233h717q6 25 6 65q0 76 -26.5 148t-78 127t-123 89t-161.5 34q-92 0 -168 -34t-131 -92.5t-86 -137t-31 -166.5z M178 451q6 68 33 126t70 100t101 65.5t128 23.5q74 0 131 -27.5t96 -71.5t59.5 -101.5t20.5 -114.5h-639zM322 1251l65 88l283 -241l-45 -43z" />
<glyph unicode="&#xe9;" horiz-adv-x="993" d="M94 410q0 -90 30 -168t85 -135.5t134 -91t175 -33.5q70 0 131.5 18t108.5 52t78.5 80t44.5 101h-82q-20 -72 -91 -125t-190 -53q-150 0 -241 89t-101 233h717q6 25 6 65q0 76 -26.5 148t-78 127t-123 89t-161.5 34q-92 0 -168 -34t-131 -92.5t-86 -137t-31 -166.5z M178 451q6 68 33 126t70 100t101 65.5t128 23.5q74 0 131 -27.5t96 -71.5t59.5 -101.5t20.5 -114.5h-639zM322 1098l282 241l66 -88l-303 -196z" />
<glyph unicode="&#xea;" horiz-adv-x="993" d="M94 410q0 88 31 166.5t86 137t131 92.5t168 34q90 0 161.5 -34t123 -89t78 -127t26.5 -148q0 -41 -6 -65h-717q10 -143 101.5 -232.5t240.5 -89.5q119 0 189.5 53.5t91.5 124.5h82q-12 -55 -44 -101t-79 -80t-108.5 -52t-131.5 -18q-96 0 -175 33.5t-134 91t-85 135 t-30 168.5zM178 451h639q0 57 -20.5 114.5t-59.5 101.5t-96 71.5t-131 27.5q-70 0 -128 -23.5t-101 -65.5t-70 -100.5t-33 -125.5zM256 1108l240 188l239 -188l-43 -51l-196 135l-197 -135z" />
<glyph unicode="&#xeb;" horiz-adv-x="993" d="M94 410q0 88 31 166.5t86 137t131 92.5t168 34q90 0 161.5 -34t123 -89t78 -127t26.5 -148q0 -41 -6 -65h-717q10 -143 101.5 -232.5t240.5 -89.5q119 0 189.5 53.5t91.5 124.5h82q-12 -55 -44 -101t-79 -80t-108.5 -52t-131.5 -18q-96 0 -175 33.5t-134 91t-85 135 t-30 168.5zM178 451h639q0 57 -20.5 114.5t-59.5 101.5t-96 71.5t-131 27.5q-70 0 -128 -23.5t-101 -65.5t-70 -100.5t-33 -125.5zM229 1122q0 29 17.5 47.5t46.5 18.5t47 -18.5t18 -47.5t-18 -46t-47 -17t-46.5 17t-17.5 46zM633 1122q0 29 17.5 47.5t45.5 18.5 q29 0 47.5 -18.5t18.5 -47.5t-18.5 -46t-47.5 -17t-46 17t-17 46z" />
<glyph unicode="&#xec;" horiz-adv-x="411" d="M33 1251l65 88l283 -241l-45 -43zM164 0h84v819h-84v-819z" />
<glyph unicode="&#xed;" horiz-adv-x="411" d="M33 1098l282 241l66 -88l-303 -196zM164 0h84v819h-84v-819z" />
<glyph unicode="&#xee;" horiz-adv-x="411" d="M-33 1108l240 188l239 -188l-43 -51l-196 135l-197 -135zM164 0v819h84v-819h-84z" />
<glyph unicode="&#xef;" horiz-adv-x="411" d="M-59 1122q0 29 17 47.5t46 18.5t47.5 -18.5t18.5 -47.5t-18.5 -46t-47.5 -17t-46 17t-17 46zM164 0v819h84v-819h-84zM344 1122q0 29 17.5 47.5t46.5 18.5t47 -18.5t18 -47.5t-18.5 -46t-46.5 -17q-29 0 -46.5 17t-17.5 46z" />
<glyph unicode="&#xf0;" horiz-adv-x="1069" d="M90 420q0 96 35 174t93 132t134 84t158 30q74 0 135.5 -18.5t107.5 -44t76.5 -52.5t42.5 -41q-23 123 -85 219t-140 166l-166 -96l-39 65l144 82q-76 57 -146.5 90t-117.5 47l38 70q59 -23 139.5 -61.5t159.5 -102.5l166 97l37 -66l-141 -82q51 -47 95 -106.5t78 -132 t53.5 -158.5t19.5 -189q0 -115 -28 -214t-84 -172.5t-140 -116.5t-197 -43q-88 0 -166 34.5t-136 94t-92 139.5t-34 172zM174 416q0 -74 27.5 -139.5t74 -114.5t108.5 -78t134 -29q92 0 162 39t117 102.5t70.5 145.5t23.5 170q0 16 -1 29.5t-3 27.5q-2 2 -27.5 33t-73 67 t-115 64.5t-153.5 28.5q-68 0 -130 -25.5t-110.5 -72t-76 -109.5t-27.5 -139z" />
<glyph unicode="&#xf1;" horiz-adv-x="1019" d="M147 0v819h76l8 -117q20 20 51 45t70 45.5t88 34t109 13.5q154 0 241 -95.5t87 -259.5v-485h-84v485q0 129 -64.5 204t-187.5 75q-55 0 -103.5 -14.5t-86.5 -37t-68.5 -50t-51.5 -52.5v-610h-84zM244 1118q18 45 55 79t88 34q31 0 63.5 -11.5t63.5 -24.5t61.5 -24.5 t59.5 -11.5q33 0 56.5 23.5t35.5 48.5l49 -35q-12 -51 -54 -84t-95 -33q-27 0 -58.5 11.5t-64.5 25.5t-65.5 25.5t-59.5 11.5q-35 0 -52.5 -21.5t-29.5 -52.5z" />
<glyph unicode="&#xf2;" horiz-adv-x="1021" d="M90 410q0 -90 32 -168t89 -135.5t133 -91t166 -33.5q88 0 166 33.5t134 91t89 135t33 168.5q0 88 -33 166.5t-89 137t-134 92.5t-166 34q-90 0 -166 -34t-133 -92.5t-89 -137t-32 -166.5zM174 410q0 76 25.5 141t70.5 112.5t106.5 74t133.5 26.5t133.5 -26.5t107.5 -74 t71.5 -113t25.5 -140.5q0 -78 -25.5 -142.5t-71.5 -110.5t-107.5 -73t-133.5 -27t-133.5 27t-106.5 73t-70.5 110.5t-25.5 142.5zM336 1251l65 88l283 -241l-45 -43z" />
<glyph unicode="&#xf3;" horiz-adv-x="1021" d="M90 410q0 -90 32 -168t89 -135.5t133 -91t166 -33.5q88 0 166 33.5t134 91t89 135t33 168.5q0 88 -33 166.5t-89 137t-134 92.5t-166 34q-90 0 -166 -34t-133 -92.5t-89 -137t-32 -166.5zM174 410q0 76 25.5 141t70.5 112.5t106.5 74t133.5 26.5t133.5 -26.5t107.5 -74 t71.5 -113t25.5 -140.5q0 -78 -25.5 -142.5t-71.5 -110.5t-107.5 -73t-133.5 -27t-133.5 27t-106.5 73t-70.5 110.5t-25.5 142.5zM336 1098l282 241l66 -88l-303 -196z" />
<glyph unicode="&#xf4;" horiz-adv-x="1021" d="M90 410q0 88 32 166.5t89 137t133 92.5t166 34q88 0 166 -34t134 -92.5t89 -137t33 -166.5q0 -90 -33 -168t-89 -135.5t-134 -91t-166 -33.5q-90 0 -166 33.5t-133 91t-89 135.5t-32 168zM174 410q0 -78 25.5 -142.5t70.5 -110.5t106.5 -73t133.5 -27t133.5 27t107.5 73 t71.5 110.5t25.5 142.5q0 76 -25.5 141t-71.5 112.5t-107.5 74t-133.5 26.5t-133.5 -26.5t-106.5 -74t-70.5 -112.5t-25.5 -141zM270 1108l240 188l240 -188l-43 -51l-197 135l-197 -135z" />
<glyph unicode="&#xf5;" horiz-adv-x="1021" d="M90 410q0 88 32 166.5t89 137t133 92.5t166 34q88 0 166 -34t134 -92.5t89 -137t33 -166.5q0 -90 -33 -168t-89 -135.5t-134 -91t-166 -33.5q-90 0 -166 33.5t-133 91t-89 135.5t-32 168zM174 410q0 -78 25.5 -142.5t70.5 -110.5t106.5 -73t133.5 -27t133.5 27t107.5 73 t71.5 110.5t25.5 142.5q0 76 -25.5 141t-71.5 112.5t-107.5 74t-133.5 26.5t-133.5 -26.5t-106.5 -74t-70.5 -112.5t-25.5 -141zM244 1118q18 45 55 79t88 34q31 0 63.5 -11.5t63.5 -24.5t61.5 -24.5t59.5 -11.5q33 0 56.5 23.5t35.5 48.5l49 -35q-12 -51 -54 -84t-95 -33 q-27 0 -58.5 11.5t-64.5 25.5t-65.5 25.5t-59.5 11.5q-35 0 -52.5 -21.5t-29.5 -52.5z" />
<glyph unicode="&#xf6;" horiz-adv-x="1021" d="M90 410q0 88 32 166.5t89 137t133 92.5t166 34q88 0 166 -34t134 -92.5t89 -137t33 -166.5q0 -90 -33 -168t-89 -135.5t-134 -91t-166 -33.5q-90 0 -166 33.5t-133 91t-89 135.5t-32 168zM174 410q0 -78 25.5 -142.5t70.5 -110.5t106.5 -73t133.5 -27t133.5 27t107.5 73 t71.5 110.5t25.5 142.5q0 76 -25.5 141t-71.5 112.5t-107.5 74t-133.5 26.5t-133.5 -26.5t-106.5 -74t-70.5 -112.5t-25.5 -141zM244 1122q0 29 17.5 47.5t45.5 18.5q29 0 47.5 -18.5t18.5 -47.5t-18.5 -46t-47.5 -17t-46 17t-17 46zM647 1122q0 29 17.5 47.5t46.5 18.5 t47 -18.5t18 -47.5t-18.5 -46t-46.5 -17q-29 0 -46.5 17t-17.5 46z" />
<glyph unicode="&#xf7;" d="M143 547v76h922v-76h-922zM524 262q0 33 23.5 56.5t56.5 23.5t56.5 -23.5t23.5 -56.5t-23.5 -56.5t-56.5 -23.5t-56.5 23.5t-23.5 56.5zM524 907q0 33 23.5 56.5t56.5 23.5t56.5 -23.5t23.5 -56.5t-23.5 -56.5t-56.5 -23.5t-56.5 23.5t-23.5 56.5z" />
<glyph unicode="&#xf8;" horiz-adv-x="1021" d="M90 410q0 88 32 166.5t89 137t133 92.5t166 34q86 0 166 -35l129 221l74 -41l-129 -221q84 -59 133 -151.5t49 -202.5q0 -90 -33 -168t-89 -135.5t-134 -91t-166 -33.5q-51 0 -98 11t-88 30l-131 -228l-74 43l133 232q-76 59 -119 147t-43 193zM174 410q0 -86 32 -156 t85 -117l348 602q-61 25 -129 25q-72 0 -133.5 -26.5t-106.5 -74t-70.5 -112.5t-25.5 -141zM362 90q66 -33 148 -33q72 0 133.5 27t107.5 73t71.5 110.5t25.5 142.5q0 92 -37 165.5t-98 120.5z" />
<glyph unicode="&#xf9;" horiz-adv-x="999" d="M143 313q0 -166 83 -249.5t220 -83.5q63 0 114.5 15t91.5 37.5t69 51.5t47 55l4 -139h80v819h-84v-583q-20 -31 -50 -63t-71 -58.5t-91 -43t-110 -16.5q-102 0 -160.5 62.5t-58.5 195.5v506h-84v-506zM326 1251l65 88l283 -241l-45 -43z" />
<glyph unicode="&#xfa;" horiz-adv-x="999" d="M143 313q0 -166 83 -249.5t220 -83.5q63 0 114.5 15t91.5 37.5t69 51.5t47 55l4 -139h80v819h-84v-583q-20 -31 -50 -63t-71 -58.5t-91 -43t-110 -16.5q-102 0 -160.5 62.5t-58.5 195.5v506h-84v-506zM326 1098l282 241l66 -88l-303 -196z" />
<glyph unicode="&#xfb;" horiz-adv-x="999" d="M143 313v506h84v-506q0 -133 58.5 -195.5t160.5 -62.5q59 0 109.5 16.5t91.5 43t71 58.5t50 63v583h84v-819h-80l-4 139q-18 -27 -47 -55.5t-69 -51t-91 -37.5t-115 -15q-137 0 -220 83.5t-83 249.5zM260 1108l240 188l239 -188l-43 -51l-196 135l-197 -135z" />
<glyph unicode="&#xfc;" horiz-adv-x="999" d="M143 313v506h84v-506q0 -133 58.5 -195.5t160.5 -62.5q59 0 109.5 16.5t91.5 43t71 58.5t50 63v583h84v-819h-80l-4 139q-18 -27 -47 -55.5t-69 -51t-91 -37.5t-115 -15q-137 0 -220 83.5t-83 249.5zM233 1122q0 29 17.5 47.5t46.5 18.5t47 -18.5t18 -47.5t-18 -46 t-47 -17t-46.5 17t-17.5 46zM637 1122q0 29 17.5 47.5t45.5 18.5q29 0 47.5 -18.5t18.5 -47.5t-18.5 -46t-47.5 -17t-46 17t-17 46z" />
<glyph unicode="&#xfd;" horiz-adv-x="884" d="M29 819l379 -774l-263 -557h82l633 1331h-86l-325 -692l-336 692h-84zM268 1057l283 241l65 -88l-303 -196z" />
<glyph unicode="&#xfe;" horiz-adv-x="1050" d="M147 -512v1849h84v-661q51 74 134.5 119t189.5 45q92 0 166 -33t126 -89t80.5 -134t28.5 -168q0 -94 -27.5 -173t-79.5 -137.5t-127 -91t-169 -32.5q-104 0 -190.5 44t-131.5 124v-662h-84zM227 416q0 -74 22.5 -139.5t64.5 -114.5t102.5 -77t138.5 -28q74 0 133.5 28 t100 77t62 114.5t21.5 139.5q0 70 -22.5 133t-64.5 111.5t-100 76t-130 27.5q-78 0 -139.5 -26.5t-103.5 -74t-63.5 -111t-21.5 -136.5z" />
<glyph unicode="&#xff;" horiz-adv-x="884" d="M29 819h84l336 -692l325 692h86l-633 -1331h-82l263 557zM176 1122q0 29 17.5 47.5t46.5 18.5t47 -18.5t18 -47.5t-18.5 -46t-46.5 -17q-29 0 -46.5 17t-17.5 46zM580 1122q0 29 17 47.5t46 18.5t47.5 -18.5t18.5 -47.5t-18.5 -46t-47.5 -17t-46 17t-17 46z" />
<glyph unicode="&#x152;" horiz-adv-x="2535" d="M115 717q0 154 57 288t157.5 233t233.5 157.5t287 58.5q104 0 201.5 -28.5t181.5 -80t150.5 -123t113.5 -157.5v369h911v-84h-823v-531h766v-84h-766v-651h823v-84h-911v369q-47 -86 -113.5 -158t-150.5 -123t-181.5 -78.5t-201.5 -27.5q-154 0 -287 57t-233.5 157.5 t-157.5 233.5t-57 287zM205 717q0 -137 50 -256t138 -206t205 -137t252 -50t253 50t205 137t138 206t51 256t-51 256t-138 207t-205 138t-253 50t-252 -50t-205 -138t-138 -207t-50 -256z" />
<glyph unicode="&#x153;" horiz-adv-x="1746" d="M90 410q0 88 32 166.5t89 137t133 92.5t166 34q127 0 227.5 -66.5t151.5 -173.5q47 106 145.5 173t227.5 67q90 0 162.5 -34t122.5 -89t78 -127t28 -148q0 -41 -6 -65h-717q10 -147 102 -234.5t240 -87.5q119 0 189.5 53.5t90.5 124.5h82q-12 -55 -43.5 -101t-79 -80 t-109 -52t-130.5 -18q-139 0 -237.5 64.5t-147.5 170.5q-51 -106 -150.5 -170.5t-226.5 -64.5q-90 0 -166 33.5t-133 91t-89 135t-32 168.5zM174 410q0 -78 25.5 -142.5t70.5 -110.5t106.5 -73t133.5 -27t133.5 27t107.5 75t71.5 115.5t25.5 149.5q-4 74 -30.5 136.5 t-72 107.5t-105.5 70.5t-130 25.5q-72 0 -133.5 -26.5t-106.5 -74t-70.5 -112.5t-25.5 -141zM932 451h639q0 57 -20.5 114.5t-59.5 101.5t-97 71.5t-132 27.5q-68 0 -126.5 -23.5t-101.5 -65.5t-69.5 -100.5t-32.5 -125.5z" />
<glyph unicode="&#x178;" horiz-adv-x="1163" d="M33 1434h94l455 -734l454 734h94l-503 -816v-618h-88v618zM330 1628q0 25 17.5 42.5t45.5 17.5q29 0 47.5 -17.5t18.5 -42.5t-18.5 -41t-47.5 -16t-46 16t-17 41zM733 1628q0 25 17.5 42.5t46.5 17.5t47 -17.5t18 -42.5t-18.5 -41t-46.5 -16q-29 0 -46.5 16t-17.5 41z " />
<glyph unicode="&#x2c6;" horiz-adv-x="614" d="M68 1108l239 188l240 -188l-43 -51l-197 135l-196 -135z" />
<glyph unicode="&#x2dc;" horiz-adv-x="614" d="M41 1118q18 45 55 79t88 34q31 0 64 -11.5t63.5 -24.5t61 -24.5t59.5 -11.5q33 0 56.5 23.5t35.5 48.5l49 -35q-12 -51 -54 -84t-95 -33q-27 0 -58.5 11.5t-64.5 25.5t-65.5 25.5t-59.5 11.5q-35 0 -52.5 -21.5t-29.5 -52.5z" />
<glyph unicode="&#x2000;" horiz-adv-x="926" />
<glyph unicode="&#x2001;" horiz-adv-x="1853" />
<glyph unicode="&#x2002;" horiz-adv-x="926" />
<glyph unicode="&#x2003;" horiz-adv-x="1853" />
<glyph unicode="&#x2004;" horiz-adv-x="617" />
<glyph unicode="&#x2005;" horiz-adv-x="463" />
<glyph unicode="&#x2006;" horiz-adv-x="308" />
<glyph unicode="&#x2007;" horiz-adv-x="308" />
<glyph unicode="&#x2008;" horiz-adv-x="231" />
<glyph unicode="&#x2009;" horiz-adv-x="370" />
<glyph unicode="&#x200a;" horiz-adv-x="102" />
<glyph unicode="&#x2010;" horiz-adv-x="782" d="M102 598v76h578v-76h-578z" />
<glyph unicode="&#x2011;" horiz-adv-x="782" d="M102 598v76h578v-76h-578z" />
<glyph unicode="&#x2012;" horiz-adv-x="782" d="M102 598v76h578v-76h-578z" />
<glyph unicode="&#x2013;" horiz-adv-x="819" d="M0 598v76h819v-76h-819z" />
<glyph unicode="&#x2014;" horiz-adv-x="1576" d="M164 598v76h1249v-76h-1249z" />
<glyph unicode="&#x2018;" horiz-adv-x="436" d="M123 1063l170 383l61 -23l-135 -387z" />
<glyph unicode="&#x2019;" horiz-adv-x="436" d="M82 1059l135 387l96 -27l-170 -383z" />
<glyph unicode="&#x201a;" horiz-adv-x="456" d="M82 -281l156 428l96 -26l-191 -424z" />
<glyph unicode="&#x201c;" horiz-adv-x="704" d="M123 1063l170 383l61 -23l-135 -387zM391 1063l170 383l62 -23l-136 -387z" />
<glyph unicode="&#x201d;" horiz-adv-x="704" d="M82 1059l135 387l96 -27l-170 -383zM350 1059l135 387l97 -27l-170 -383z" />
<glyph unicode="&#x201e;" horiz-adv-x="724" d="M82 -281l156 428l96 -26l-191 -424zM350 -281l156 428l96 -26l-190 -424z" />
<glyph unicode="&#x2022;" horiz-adv-x="921" d="M184 635q0 57 20.5 107.5t57.5 88t88 59t111 21.5q59 0 110.5 -21.5t88 -59t57 -88t20.5 -107.5q0 -55 -20.5 -105.5t-57 -88.5t-88 -59.5t-110.5 -21.5t-110.5 21.5t-88.5 59.5t-57.5 88.5t-20.5 105.5z" />
<glyph unicode="&#x2026;" horiz-adv-x="1257" d="M143 59q0 33 23.5 56.5t56.5 23.5t56.5 -23.5t23.5 -56.5t-23.5 -56t-56.5 -23t-56.5 23t-23.5 56zM549 59q0 33 23.5 56.5t56.5 23.5t56.5 -23.5t23.5 -56.5t-23.5 -56t-56.5 -23t-56.5 23t-23.5 56zM954 59q0 33 23.5 56.5t56.5 23.5t56.5 -23.5t23.5 -56.5t-23.5 -56 t-56.5 -23t-56.5 23t-23.5 56z" />
<glyph unicode="&#x202f;" horiz-adv-x="370" />
<glyph unicode="&#x2039;" horiz-adv-x="532" d="M82 584l299 346l49 -58l-246 -288l246 -289l-49 -57z" />
<glyph unicode="&#x203a;" horiz-adv-x="532" d="M102 295l246 289l-246 288l50 58l299 -346l-299 -346z" />
<glyph unicode="&#x205f;" horiz-adv-x="463" />
<glyph unicode="&#x20ac;" d="M74 553l26 76h107q-2 16 -3 42.5t-1 45.5q0 23 1 46t3 42h-133l26 76h113q14 119 54 222t107.5 181t165 123t224.5 45q123 0 201.5 -36t128.5 -79v-98q-55 53 -131 91t-193 38q-104 0 -187 -40t-141.5 -107.5t-92.5 -155.5t-44 -184h596l-29 -76h-575q-2 -16 -3 -43 t-1 -45q0 -27 1 -49.5t3 -38.5h510l-27 -76h-473q29 -231 152 -361.5t313 -130.5q115 0 187.5 37t134.5 95v-101q-47 -41 -127 -75.5t-203 -34.5q-111 0 -204 34.5t-163.5 106.5t-118 178.5t-63.5 251.5h-141z" />
<glyph unicode="&#x2122;" horiz-adv-x="1570" d="M82 1350v84h520v-84h-219v-629h-84v629h-217zM725 721v713h78l262 -572l264 572h78v-713h-84v498l-231 -498h-52l-229 498v-498h-86z" />
<glyph unicode="&#x25fc;" horiz-adv-x="819" d="M0 0v819h819v-819h-819z" />
<glyph unicode="&#xfb03;" horiz-adv-x="1566" d="M41 748v71h162v174q0 172 81 262.5t246 90.5q23 0 45.5 -2.5t38.5 -6.5v-75q-31 8 -73 8q-135 0 -194.5 -67.5t-59.5 -209.5v-174h477v158q0 172 90 271.5t270 99.5q37 0 77 -3.5t56 -7.5v-75q-16 4 -55 7t-74 3q-152 0 -216 -77t-64 -218v-158h555v-819h-84v748h-471 v-748h-84v748h-477v-748h-84v748h-162z" />
<glyph unicode="&#xfb04;" horiz-adv-x="1558" d="M41 748v71h162v174q0 172 81 262.5t246 90.5q23 0 45.5 -2.5t38.5 -6.5v-75q-31 8 -73 8q-135 0 -194.5 -67.5t-59.5 -209.5v-174h477v158q0 170 94 270.5t291 100.5q72 0 137.5 -8.5t112.5 -20.5v-1319h-84v1260q-33 4 -78 8t-88 4q-166 0 -233.5 -77t-67.5 -218v-158 h262v-71h-262v-748h-84v748h-477v-748h-84v748h-162z" />
</font>
</defs>
</svg>
