<?xml version="1.0" standalone="no"?>
<!DOCTYPE svg PUBLIC "-//W3C//DTD SVG 1.1//EN" "http://www.w3.org/Graphics/SVG/1.1/DTD/svg11.dtd" >
<svg xmlns="http://www.w3.org/2000/svg" xmlns:xlink="http://www.w3.org/1999/xlink" version="1.1">
<metadata></metadata>
<defs>
<font id="soin_sans_prolight_oblique" horiz-adv-x="1208" >
<font-face units-per-em="2048" ascent="1536" descent="-512" />
<missing-glyph horiz-adv-x="491" />
<glyph unicode="&#xfb01;" horiz-adv-x="1005" d="M147 748l11 71h161l23 158q25 172 127 271.5t283 99.5q37 0 77.5 -3.5t57.5 -7.5l-13 -75q-16 4 -54 7t-72 3q-152 0 -227 -77t-95 -218l-23 -158h555l-116 -819h-84l106 748h-471l-106 -748h-84l106 748h-162z" />
<glyph unicode="&#xfb02;" horiz-adv-x="997" d="M147 748l11 71h161l23 158q25 170 131.5 270.5t302.5 100.5q72 0 137.5 -8.5t110.5 -20.5l-186 -1319h-84l178 1260q-33 4 -77 8t-87 4q-166 0 -244 -77t-98 -218l-23 -158h263l-11 -71h-262l-106 -748h-84l106 748h-162z" />
<glyph horiz-adv-x="0" />
<glyph unicode="&#xd;" horiz-adv-x="468" />
<glyph horiz-adv-x="0" />
<glyph horiz-adv-x="0" />
<glyph unicode=" "  horiz-adv-x="491" />
<glyph unicode="&#x09;" horiz-adv-x="491" />
<glyph unicode="&#xa0;" horiz-adv-x="491" />
<glyph unicode="!" horiz-adv-x="552" d="M203 51q0 35 28.5 61.5t63.5 26.5q31 0 50.5 -20.5t19.5 -50.5q0 -35 -29 -61.5t-64 -26.5q-29 0 -49 20t-20 51zM287 369l149 1065h84l-149 -1065h-84z" />
<glyph unicode="&#x22;" horiz-adv-x="540" d="M248 942l53 492h98l-90 -492h-61zM494 942l53 492h98l-90 -492h-61z" />
<glyph unicode="#" d="M193 479l10 80h192l90 338h-192l10 80h203l127 457h88l-127 -457h356l127 457h88l-127 -457h179l-11 -80h-188l-90 -338h188l-10 -80h-199l-129 -479h-88l129 479h-356l-129 -479h-88l129 479h-182zM483 559h357l90 338h-357z" />
<glyph unicode="$" d="M158 293h86q6 -98 91 -159.5t236 -70.5l93 639q-80 29 -146.5 60t-115 70.5t-75 93t-26.5 127.5q0 68 29.5 136t88 124.5t146.5 94.5t203 44l27 186h84l-27 -186q76 -6 139.5 -31.5t111.5 -66.5t75.5 -94.5t31.5 -116.5h-86q-8 92 -84.5 154.5t-199.5 72.5l-84 -604 q80 -31 145.5 -64.5t111.5 -75.5t71.5 -95.5t25.5 -122.5q0 -96 -40 -172t-105.5 -129.5t-149.5 -85t-170 -37.5l-27 -189h-83l26 189q-90 4 -162.5 28.5t-126 64.5t-83 95t-31.5 121zM389 1067q0 -57 21.5 -98t59.5 -73t90 -55.5t116 -45.5l80 575q-86 -6 -155 -34.5 t-116 -71.5t-71.5 -94.5t-24.5 -102.5zM655 66q68 8 133.5 32.5t117.5 65.5t84 98t32 131q0 53 -20.5 94t-57.5 74t-88 59.5t-115 51.5z" />
<glyph unicode="%" horiz-adv-x="1474" d="M236 1085q0 76 26.5 143.5t73.5 119t111.5 80t142.5 28.5q127 0 194.5 -78t67.5 -198q0 -78 -25.5 -144.5t-72.5 -118t-111.5 -80t-142.5 -28.5q-127 0 -195.5 77.5t-68.5 198.5zM289 18l1030 1438l67 -41l-1030 -1440zM317 1092q0 -92 47.5 -149.5t143.5 -57.5 q61 0 109.5 22.5t82 61.5t52 91.5t18.5 113.5q0 92 -47 149t-143 57q-61 0 -109.5 -22.5t-82.5 -61.5t-52.5 -91t-18.5 -113zM827 301q10 70 40 129t75 102t104.5 68t129.5 25t123 -25t86.5 -68t46 -102t2.5 -129t-39 -129t-75 -102t-105.5 -68t-129.5 -25t-122 25t-85.5 68 t-47 102t-3.5 129zM907 301q-16 -109 32 -178.5t157 -69.5t175.5 69.5t82.5 178.5t-32 178.5t-157 69.5t-175 -69.5t-83 -178.5z" />
<glyph unicode="&#x26;" horiz-adv-x="1306" d="M170 317q0 84 30.5 151t81 120t116 98t134.5 86l-24 31q-51 63 -95 139t-44 174q0 51 23.5 110.5t71.5 111t120.5 84t171.5 32.5q74 0 127 -22.5t89 -59.5t52 -85t16 -101q0 -82 -32.5 -143.5t-86 -110.5t-122 -90t-140.5 -82l369 -471q53 76 86 167t49 193l25 170h86 l-25 -170q-16 -121 -59 -229.5t-111 -196.5l178 -223h-114l-123 156q-84 -82 -194.5 -128t-252.5 -46q-92 0 -166.5 26.5t-127 72.5t-81 106t-28.5 130zM256 328q0 -55 25.5 -104.5t69.5 -86.5t104.5 -57.5t130.5 -20.5q123 0 217 43t166 115l-391 498q-63 -37 -122 -76 t-103 -85t-70.5 -102.5t-26.5 -123.5zM455 1126q0 -76 36.5 -137t77.5 -115l43 -57q68 37 129.5 74t108.5 78t75.5 90t28.5 115q0 39 -12 74.5t-37.5 64t-65.5 46t-96 17.5q-72 0 -125 -23.5t-89.5 -60.5t-55 -81t-18.5 -85z" />
<glyph unicode="'" horiz-adv-x="294" d="M248 942l53 492h98l-90 -492h-61z" />
<glyph unicode="(" horiz-adv-x="565" d="M237.5 -119.5q-32.5 259.5 12.5 570.5q43 311 148.5 570t244.5 464l66 -41q-68 -104 -126.5 -210t-105.5 -224.5t-84 -255t-59 -303.5q-25 -168 -27 -304.5t13.5 -255t43 -224t64.5 -210.5l-78 -41q-80 205 -112.5 464.5z" />
<glyph unicode=")" horiz-adv-x="565" d="M-14 -543q68 104 125 210t105 224.5t84 255t60 304.5q25 168 26 304t-13.5 254.5t-42 224t-64.5 210.5l78 41q80 -205 112.5 -464t-12.5 -570q-43 -311 -148.5 -570.5t-244.5 -464.5z" />
<glyph unicode="*" horiz-adv-x="831" d="M254 1169l37 74l256 -98l31 289h77l-51 -289l287 98l14 -74l-287 -84l144 -227l-70 -45l-129 238l-198 -238l-54 45l209 227z" />
<glyph unicode="+" d="M221 547l10 76h424l58 421h75l-57 -421h422l-10 -76h-422l-62 -424h-75l61 424h-424z" />
<glyph unicode="," horiz-adv-x="446" d="M59 -313l181 460l86 -28l-209 -455z" />
<glyph unicode="-" horiz-adv-x="782" d="M186 598l11 76h577l-10 -76h-578z" />
<glyph unicode="." horiz-adv-x="446" d="M150 51q0 35 28.5 61.5t63.5 26.5q31 0 50 -20.5t19 -50.5q0 -35 -28.5 -61.5t-63.5 -26.5q-29 0 -49 20t-20 51z" />
<glyph unicode="/" horiz-adv-x="1157" d="M-29 -203l1348 1880l67 -41l-1347 -1882z" />
<glyph unicode="0" horiz-adv-x="1257" d="M203 575q0 193 49 355t135 277.5t200.5 180t246.5 64.5q96 0 174.5 -42t134 -119t85 -186.5t29.5 -244.5q0 -195 -49 -356.5t-135 -277t-200.5 -180t-245.5 -64.5q-96 0 -175 42t-134.5 118.5t-85 187t-29.5 245.5zM291 582q0 -119 24.5 -214.5t70.5 -163t110.5 -103 t142.5 -35.5q104 0 200.5 56t168 159.5t114.5 248t43 320.5q0 119 -24.5 215t-68.5 163.5t-107.5 103.5t-141.5 36q-106 0 -202.5 -57.5t-170 -160.5t-116.5 -248.5t-43 -319.5z" />
<glyph unicode="1" horiz-adv-x="708" d="M203 1202l512 289l-211 -1491h-88l190 1343l-373 -210z" />
<glyph unicode="2" horiz-adv-x="1120" d="M90 0l619 588q51 49 108 104.5t106.5 118.5t81 131t31.5 141q0 59 -19.5 111.5t-56 90.5t-90 60.5t-122.5 22.5q-80 0 -148 -24.5t-118 -69.5t-79.5 -107.5t-35.5 -138.5h-88q2 90 44 168t107.5 134t150.5 89t177 33q88 0 155.5 -27.5t114.5 -76t71.5 -115t24.5 -143.5 q0 -84 -30.5 -159t-79.5 -141.5t-108.5 -126t-117.5 -114.5l-491 -465h731l-10 -84h-928z" />
<glyph unicode="3" horiz-adv-x="1105" d="M129 352h88q-4 -63 18.5 -115.5t65.5 -90t104.5 -59t135.5 -21.5q90 0 164.5 29.5t129 79.5t85 116.5t30.5 138.5q0 70 -25.5 120t-69.5 83t-103.5 50t-126.5 22l10 83q80 2 150.5 25t121.5 65t81 103t30 141q0 104 -73 175t-206 71q-141 0 -239.5 -73.5t-122.5 -196.5 h-88q35 164 156.5 259t308.5 95q84 0 149.5 -24.5t111.5 -67.5t70.5 -102.5t24.5 -129.5q0 -84 -27.5 -146t-70.5 -108.5t-96.5 -76t-106.5 -47.5q43 -10 84 -34t74.5 -62t54 -92t20.5 -124q0 -92 -35.5 -175t-102 -145.5t-161 -99t-211.5 -36.5q-90 0 -167.5 26.5 t-135 74.5t-85 116.5t-15.5 152.5z" />
<glyph unicode="4" horiz-adv-x="1130" d="M82 285l1020 1245l-164 -1161h190l-10 -84h-190l-41 -285h-88l41 285h-758zM254 369h596l129 895z" />
<glyph unicode="5" horiz-adv-x="1120" d="M137 352h88q-4 -63 19.5 -115.5t68.5 -90t108.5 -59t137.5 -21.5q98 0 180 32.5t140.5 92t91.5 141.5t33 178q0 66 -19.5 125t-61.5 103t-106.5 70t-157.5 26h-389l113 600h704l-14 -84h-622l-80 -432h301q109 0 188.5 -30t131.5 -82t78 -124t26 -158q0 -117 -41 -216 t-114 -172t-172 -113.5t-218 -40.5q-90 0 -170 26.5t-138.5 74.5t-88 116.5t-17.5 152.5z" />
<glyph unicode="6" horiz-adv-x="1150" d="M199 541q0 80 12 179t42 200.5t79 196.5t120.5 170t169 120t224.5 45q70 0 129 -20.5t103 -57.5t71 -89t31 -114h-88q-4 47 -27 84t-57.5 61.5t-78.5 38t-91 13.5q-133 0 -227.5 -66.5t-158 -170t-100.5 -227.5t-51 -238q31 63 79 117.5t108.5 94.5t131 63.5t144.5 23.5 q88 0 158.5 -32t120 -89.5t75 -134t25.5 -164.5q0 -113 -38 -215.5t-107.5 -179t-166 -122.5t-213.5 -46q-90 0 -166.5 30.5t-133 98t-88 173t-31.5 257.5zM309 412q0 -74 21.5 -137.5t63.5 -109.5t101.5 -72.5t135.5 -26.5q96 0 174 36.5t132 101t84 149.5t30 184 q0 74 -20.5 136t-59.5 108t-93.5 73t-123.5 27q-90 0 -171 -36t-141.5 -99.5t-96.5 -149.5t-36 -184z" />
<glyph unicode="7" horiz-adv-x="1032" d="M145 0l871 1350h-772l12 84h918l-930 -1434h-99z" />
<glyph unicode="8" horiz-adv-x="1142" d="M164 328q0 145 88 251.5t244 168.5q-92 37 -147.5 109.5t-55.5 174.5q0 88 36 165t100.5 133t152.5 89t194 33q88 0 158 -24.5t119 -68.5t74.5 -105.5t25.5 -133.5q0 -139 -82 -232t-211 -140q111 -49 168 -132.5t57 -193.5q0 -96 -39.5 -176t-110.5 -139.5t-165 -92 t-201 -32.5q-92 0 -166.5 25.5t-128 71.5t-82 109.5t-28.5 139.5zM258 346q0 -59 22.5 -110.5t64.5 -89t102.5 -59t134.5 -21.5q88 0 163.5 27.5t131 75.5t86 112.5t30.5 138.5q0 59 -22.5 110.5t-64.5 90t-101.5 60t-134.5 21.5q-88 0 -164 -28.5t-131.5 -76.5t-86 -112.5 t-30.5 -138.5zM387 1042q0 -53 19.5 -100t58.5 -82t93 -54.5t126 -19.5q82 0 150.5 26t119 70t79 102t28.5 124q0 55 -20.5 102t-58.5 82t-92 55.5t-124 20.5q-82 0 -151.5 -26.5t-120 -70.5t-79 -103.5t-28.5 -125.5z" />
<glyph unicode="9" horiz-adv-x="1150" d="M174 262h88q4 -47 29.5 -84t65.5 -61.5t87.5 -37.5t94.5 -13q131 0 222 61t151.5 160.5t94 225.5t52.5 255q-31 -63 -81 -117.5t-111.5 -94.5t-132 -63.5t-144.5 -23.5q-90 0 -160 31.5t-119 89t-74.5 133.5t-25.5 166q0 113 38 215t106.5 179t165.5 123t214 46 q96 0 174 -30.5t132.5 -96t84 -171t29.5 -253.5q0 -199 -40 -367.5t-118.5 -291.5t-196.5 -191.5t-274 -68.5q-70 0 -132 20.5t-110 57t-78 89t-32 113.5zM303 897q0 -74 20.5 -136.5t59.5 -108.5t94 -72.5t123 -26.5q92 0 173 36t141.5 100.5t95 150.5t34.5 188 q0 147 -79.5 243.5t-239.5 96.5q-96 0 -174 -37t-133.5 -101.5t-85 -149.5t-29.5 -183z" />
<glyph unicode=":" horiz-adv-x="446" d="M152 51q0 35 28.5 61.5t63.5 26.5q31 0 50 -20.5t19 -50.5q0 -35 -28.5 -61.5t-63.5 -26.5q-29 0 -49 20t-20 51zM250 752q0 35 28.5 61.5t63.5 26.5q31 0 50.5 -20.5t19.5 -51.5q0 -35 -29 -61.5t-61 -26.5q-31 0 -51.5 20.5t-20.5 51.5z" />
<glyph unicode=";" horiz-adv-x="446" d="M59 -313l181 460l86 -28l-209 -455zM252 752q0 35 27.5 61.5t62.5 26.5q29 0 49.5 -21.5t20.5 -50.5q0 -35 -28 -61.5t-62 -26.5q-31 0 -50.5 20.5t-19.5 51.5z" />
<glyph unicode="&#x3c;" d="M221 547l10 74l981 436l-10 -86l-883 -387l775 -387l-15 -86z" />
<glyph unicode="=" d="M197 373l10 76h921l-10 -76h-921zM246 721l10 76h922l-11 -76h-921z" />
<glyph unicode="&#x3e;" d="M160 111l12 86l883 387l-772 387l10 86l860 -436l-10 -74z" />
<glyph unicode="?" horiz-adv-x="1048" d="M201 1028q4 90 46 168t109.5 134t157.5 89t188 33q94 0 167 -27.5t122 -76t74 -115t25 -143.5q0 -102 -41 -184.5t-104.5 -148t-141.5 -118.5t-150 -98l-35 -254h-88l41 295q66 41 140.5 91t139 111.5t107.5 135t43 163.5q0 59 -20 111.5t-59 90.5t-97.5 60.5 t-134.5 22.5q-178 0 -283.5 -94t-117.5 -246h-88zM461 51q0 35 28.5 61.5t63.5 26.5q29 0 48.5 -20.5t19.5 -50.5q0 -35 -28 -61.5t-63 -26.5q-29 0 -49 21t-20 50z" />
<glyph unicode="@" horiz-adv-x="2125" d="M195 315q0 244 83.5 453t233.5 361.5t352.5 238.5t442.5 86q184 0 327.5 -56.5t241.5 -155.5t149.5 -235t51.5 -296q0 -141 -35 -263t-94.5 -212.5t-141.5 -141.5t-176 -51q-47 0 -85 16.5t-67.5 39t-49 48t-27.5 41.5q-57 -80 -153.5 -128t-200.5 -48q-84 0 -148.5 28 t-110 77t-68 116.5t-22.5 147.5q0 102 35 191.5t97.5 156t147.5 104t187 37.5q106 0 183 -45t118 -118l27 143h78l-90 -635q31 -35 70.5 -68.5t101.5 -33.5q70 0 134 46t112.5 126t77 186.5t28.5 226.5q0 147 -47 272.5t-137 217.5t-222.5 144t-304.5 52 q-219 0 -405.5 -78.5t-322.5 -219t-213 -334t-77 -422.5q0 -174 52.5 -322.5t149.5 -258t233.5 -171t306.5 -61.5q186 0 360 37.5t346 130.5l19 -64q-178 -90 -358.5 -132t-378.5 -42q-182 0 -332 63.5t-256.5 178t-164.5 274.5t-58 352zM782 393q0 -63 17.5 -118.5 t52.5 -97.5t86 -65.5t117 -23.5q86 0 156.5 33t120.5 89t78 131t28 157q0 63 -18.5 117.5t-54.5 94.5t-89 62.5t-123 22.5q-80 0 -147.5 -33t-116.5 -88.5t-78 -128t-29 -152.5z" />
<glyph unicode="A" horiz-adv-x="1406" d="M49 0l864 1495l445 -1495h-92l-133 449h-734l-258 -449h-92zM446 532h660l-221 760z" />
<glyph unicode="B" horiz-adv-x="1294" d="M184 0l203 1434h469q86 0 160 -15.5t129 -51.5t86 -91t31 -135q0 -66 -21.5 -123t-60.5 -104.5t-93.5 -80t-117.5 -47.5q127 -18 206.5 -101t79.5 -222q0 -117 -44 -204t-120.5 -144.5t-181 -86t-225.5 -28.5h-500zM285 80h411q92 0 178.5 18.5t151 61.5t103 115.5 t38.5 181.5q0 74 -29.5 127t-85 87t-134 50t-175.5 16h-366zM387 817h344q76 0 155 13.5t143.5 48t105.5 95t41 152.5q0 68 -29 112t-75 69.5t-105.5 36t-120.5 10.5h-381z" />
<glyph unicode="C" horiz-adv-x="1638" d="M213 717q23 154 99.5 288t190 233t257 157.5t299.5 58.5q127 0 231.5 -35t183 -96t131 -147t76.5 -189h-96q-20 76 -64 145.5t-112 122t-158 83t-200 30.5q-139 0 -265.5 -50t-226.5 -138t-167.5 -207t-88.5 -256q-6 -48 -6 -94q-1 -85 21 -162q34 -119 110 -207 t187.5 -138t250.5 -50q111 0 212.5 31.5t185.5 86t149.5 126t104.5 153.5h96q-49 -109 -127 -197t-177.5 -152.5t-215 -99t-242.5 -34.5q-156 0 -283 58t-213 157.5t-124 233.5q-25 88 -26 185q0 50 7 103z" />
<glyph unicode="D" horiz-adv-x="1499" d="M184 0l203 1434h479q145 0 260 -47.5t195 -130t123 -196.5t43 -247q0 -170 -59.5 -318.5t-166 -258t-255 -173t-326.5 -63.5h-496zM285 84h407q160 0 290 56.5t223 152.5t143.5 228t50.5 286q0 117 -37 217t-107.5 172t-172 113t-228.5 41h-391z" />
<glyph unicode="E" horiz-adv-x="1222" d="M184 0l203 1434h911l-12 -84h-823l-76 -531h766l-10 -84h-766l-92 -651h823l-12 -84h-912z" />
<glyph unicode="F" horiz-adv-x="1157" d="M184 0l203 1434h911l-12 -84h-823l-76 -531h766l-10 -84h-766l-105 -735h-88z" />
<glyph unicode="G" horiz-adv-x="1693" d="M209 631q0 168 69.5 317.5t186.5 262t271.5 178t324.5 65.5q127 0 230.5 -35t182 -96t131 -147t76.5 -189h-96q-20 76 -64 145.5t-112 122t-158 83t-200 30.5q-152 0 -288 -57.5t-238.5 -156.5t-164 -232.5t-61.5 -284.5q0 -121 41 -225.5t115.5 -181t177 -119.5 t225.5 -43q135 0 257 46t219.5 125.5t162 188.5t84.5 231h-616l12 84h709l-5 -26q-27 -168 -100.5 -304.5t-184 -231.5t-251.5 -147t-301 -52q-139 0 -256 50t-201 138t-131 207t-47 254z" />
<glyph unicode="H" horiz-adv-x="1480" d="M184 0l203 1434h88l-88 -615h936l88 615h88l-203 -1434h-88l105 735h-936l-105 -735h-88z" />
<glyph unicode="I" horiz-adv-x="514" d="M213 0l203 1434h88l-203 -1434h-88z" />
<glyph unicode="J" horiz-adv-x="1030" d="M43 293h86q8 -102 88 -168t213 -66q80 0 147.5 23.5t117.5 67t83 103.5t43 134l148 1047h88l-148 -1047q-12 -88 -54 -162.5t-106.5 -128t-148.5 -84t-180 -30.5q-80 0 -147.5 22.5t-118 64.5t-80 99t-31.5 125z" />
<glyph unicode="K" horiz-adv-x="1224" d="M184 0l203 1434h88l-94 -672l864 672h127l-776 -605l588 -829h-113l-547 776l-159 -127l-93 -649h-88z" />
<glyph unicode="L" horiz-adv-x="1095" d="M184 0l203 1434h88l-190 -1350h782l-12 -84h-871z" />
<glyph unicode="M" horiz-adv-x="1753" d="M111 0l364 1501l422 -1356l803 1356l-58 -1501h-88l52 1184l-738 -1231l-385 1231l-284 -1184h-88z" />
<glyph unicode="N" horiz-adv-x="1527" d="M184 0l207 1466l891 -1290l176 1258h88l-211 -1497l-886 1300l-177 -1237h-88z" />
<glyph unicode="O" horiz-adv-x="1701" d="M209 631q0 168 69.5 317.5t187.5 262t270.5 178t318.5 65.5q139 0 257 -51t202.5 -139t133 -207t48.5 -254q0 -168 -71 -317.5t-187.5 -261t-270 -177t-319.5 -65.5q-139 0 -257 50t-203 138t-132 207t-47 254zM299 639q0 -123 42 -227.5t116.5 -181t177 -119.5 t225.5 -43q147 0 281.5 57t238 155.5t165 230.5t61.5 284q0 123 -42 227t-117 181t-177.5 121t-225.5 44q-147 0 -281 -57.5t-237.5 -155.5t-165 -231t-61.5 -285z" />
<glyph unicode="P" horiz-adv-x="1271" d="M184 0l203 1434h508q88 0 164 -20.5t133 -63.5t90 -111t33 -162q0 -121 -43 -209t-116 -145t-169 -85t-205 -28h-424l-86 -610h-88zM371 694h424q84 0 161.5 20.5t138 64.5t96.5 115t36 173q0 74 -26.5 127t-73 88t-109 51.5t-135.5 16.5h-420z" />
<glyph unicode="Q" horiz-adv-x="1701" d="M209 643q0 164 69.5 311.5t187.5 258t270.5 176t318.5 65.5q139 0 257 -51t204 -138t134 -205t48 -251q0 -121 -44 -237.5t-119 -216t-175 -174.5t-213 -113l493 16l-12 -84h-778q-139 0 -257 50t-203 137t-133 204t-48 252zM301 649q0 -121 42 -223t117 -178t178 -119 t226 -43q145 0 279.5 55.5t237 152.5t164 227t61.5 280q0 121 -42 224t-117 180t-177.5 120t-225.5 43q-147 0 -281 -56.5t-237.5 -154.5t-164 -229.5t-60.5 -278.5z" />
<glyph unicode="R" horiz-adv-x="1286" d="M184 0l203 1434h504q88 0 165 -18.5t134 -58.5t90 -105.5t33 -157.5q0 -117 -44 -202t-111.5 -140.5t-150.5 -82t-161 -26.5l354 -643h-102l-355 643h-378l-93 -643h-88zM375 727h420q84 0 161.5 17.5t137 58.5t94.5 108.5t35 169.5q0 74 -27 125t-73 83t-108.5 46.5 t-135.5 14.5h-416z" />
<glyph unicode="S" horiz-adv-x="1099" d="M125 293h86q8 -102 98 -166t256 -64q74 0 146.5 21.5t131 63.5t94.5 103.5t36 141.5q0 61 -27.5 107.5t-77 82t-118 65.5t-150.5 59q-78 29 -141.5 59.5t-109.5 69t-71.5 91t-25.5 126.5q0 72 29.5 143.5t91 128.5t155 93t217.5 36q86 0 158 -22.5t124 -64.5t82 -99.5 t34 -124.5h-86q-8 102 -95.5 165.5t-228.5 63.5q-96 0 -170 -27.5t-123 -72.5t-74.5 -99.5t-25.5 -105.5q0 -59 22.5 -101t64.5 -75t99.5 -57.5t124.5 -47.5q92 -35 167 -69.5t129 -77.5t84 -99.5t30 -131.5q0 -102 -44 -181.5t-116 -133.5t-162 -82.5t-184 -28.5 q-96 0 -174 22.5t-134.5 64.5t-88 99t-33.5 125z" />
<glyph unicode="T" horiz-adv-x="1128" d="M244 1350l10 84h1022l-10 -84h-467l-191 -1350h-88l191 1350h-467z" />
<glyph unicode="U" horiz-adv-x="1441" d="M258 350q-8 52 -8 108q0 63 10 132l119 844h88l-119 -844q-9 -66 -10 -126q0 -42 5 -81q11 -96 55 -167t125 -110.5t208 -39.5t220 39.5t156.5 110.5t100.5 167t54 207l118 844h88l-118 -844q-18 -129 -66.5 -240.5t-127.5 -192.5t-187.5 -128t-249.5 -47t-237.5 47 t-152 128t-71.5 193z" />
<glyph unicode="V" horiz-adv-x="1280" d="M231 1434h88l357 -1280l719 1280h88l-836 -1489z" />
<glyph unicode="W" horiz-adv-x="2062" d="M272 1434h90l230 -1241l649 1288l287 -1288l577 1241h90l-696 -1485l-295 1280l-653 -1280z" />
<glyph unicode="X" horiz-adv-x="1292" d="M37 0l665 756l-403 678h98l365 -611l538 611h99l-598 -678l454 -756h-98l-416 690l-606 -690h-98z" />
<glyph unicode="Y" horiz-adv-x="1163" d="M236 1434h94l350 -734l559 734h94l-618 -816l-88 -618h-88l88 618z" />
<glyph unicode="Z" horiz-adv-x="1241" d="M70 0l1122 1354h-850l12 80h1008l-1124 -1354h903l-11 -80h-1060z" />
<glyph unicode="[" horiz-adv-x="581" d="M133 -512l273 1946h335l-10 -80h-252l-252 -1786h252l-10 -80h-336z" />
<glyph unicode="\" horiz-adv-x="1157" d="M231 1636l80 41l819 -1880l-81 -43z" />
<glyph unicode="]" horiz-adv-x="581" d="M-31 -512l11 80h251l252 1786h-252l11 80h336l-273 -1946h-336z" />
<glyph unicode="^" horiz-adv-x="1138" d="M172 649l553 785h90l332 -785h-100l-289 692l-486 -692h-100z" />
<glyph unicode="_" horiz-adv-x="872" d="M33 -203l10 80h750l-11 -80h-749z" />
<glyph unicode="`" horiz-adv-x="614" d="M319 1251l78 88l248 -241l-49 -43z" />
<glyph unicode="a" horiz-adv-x="933" d="M119 217q0 141 103.5 219t332.5 78h225l6 37q4 23 4 44q0 73 -44 115q-56 56 -179 56q-98 0 -166.5 -39t-97.5 -106h-82q37 102 135.5 160.5t221.5 58.5q154 0 232 -78q62 -63 62 -161q0 -24 -4 -50l-77 -551h-76l14 139q-47 -59 -124 -104t-197 -45q-129 0 -209 58 t-80 169zM203 227q0 -80 59.5 -122t157.5 -42q57 0 113.5 17.5t102.5 51.5t76.5 83t41.5 113l16 112h-227q-182 0 -261 -51t-79 -162z" />
<glyph unicode="b" horiz-adv-x="1058" d="M156 0l188 1337h84l-92 -661q61 74 150 119t196 45q82 0 146.5 -28t109.5 -77t68.5 -115.5t23.5 -144.5q0 -102 -33.5 -192t-96 -157t-148.5 -105.5t-191 -38.5q-104 0 -185 44t-114 124l-26 -150h-80zM291 362q0 -63 17.5 -118.5t53 -97.5t87.5 -65.5t122 -23.5 q82 0 151 33t118 89.5t76.5 130t27.5 153.5q0 61 -18.5 115.5t-54 96.5t-86 65.5t-113.5 23.5q-88 0 -159 -32t-120 -86t-75.5 -128t-26.5 -156z" />
<glyph unicode="c" horiz-adv-x="985" d="M145 358q0 98 38 185.5t104.5 153t154.5 104.5t189 39q141 0 233 -70t111 -182h-84q-18 74 -84.5 125t-185.5 51q-80 0 -152 -31t-125 -85t-84 -128t-31 -158q0 -68 20.5 -123t59.5 -96t93.5 -63.5t119.5 -22.5q119 0 202 49.5t124 126.5h84q-53 -117 -166 -184t-254 -67 q-82 0 -149.5 29.5t-115.5 79.5t-75 119t-27 148z" />
<glyph unicode="d" horiz-adv-x="1058" d="M145 350q0 102 35 191.5t97.5 156t147.5 104.5t187 38q106 0 183 -45t118 -119l93 661h84l-187 -1337h-80l15 150q-55 -80 -147.5 -124t-196.5 -44q-84 0 -148.5 27.5t-110 76.5t-68 116.5t-22.5 147.5zM231 362q0 -63 17.5 -118.5t51.5 -97.5t85 -65.5t117 -23.5 q88 0 158.5 33t120.5 89.5t77 131t27 156.5q0 63 -18.5 117.5t-54.5 94.5t-88 62.5t-122 22.5q-80 0 -147.5 -33t-116.5 -88t-78 -128t-29 -153z" />
<glyph unicode="e" horiz-adv-x="993" d="M145 352q0 100 38 188.5t103.5 155t152.5 105.5t188 39q82 0 144.5 -29t105.5 -77t65.5 -111.5t22.5 -133.5q0 -25 -5.5 -56.5t-15.5 -55.5h-717q-1 -16 -1 -31q0 -122 70 -202q79 -90 228 -89q119 0 197 53.5t110 124.5h82q-18 -55 -57 -101t-91 -80t-116.5 -52 t-134.5 -18q-88 0 -156.5 28.5t-115.5 78.5t-72 117.5t-25 145.5zM242 451h639q3 21 3 42q0 37 -8 73q-14 58 -46.5 101.5t-86 71t-127.5 27.5q-70 0 -131 -23.5t-110 -65.5t-84 -100.5t-49 -125.5z" />
<glyph unicode="f" horiz-adv-x="593" d="M147 748l11 71h159l27 174q27 172 119 262.5t258 90.5q23 0 45 -2.5t39 -6.5l-12 -75q-31 8 -74 8q-135 0 -201.5 -67.5t-89.5 -209.5l-27 -174h265l-11 -71h-262l-106 -748h-84l106 748h-162z" />
<glyph unicode="g" horiz-adv-x="944" d="M37 -342q0 51 15.5 96t40 82t55 63.5t61.5 43.5q-59 16 -94 54t-35 97q0 45 16.5 79t41 57.5t54 39t54.5 23.5q-23 23 -35 69t-12 93q0 76 32.5 146.5t88 122.5t128 84t150.5 32h393l-8 -62l-188 -8q53 -39 80.5 -103.5t27.5 -134.5q0 -78 -32.5 -146.5t-88 -121.5 t-128 -83.5t-152.5 -30.5q-76 0 -127 23.5t-92 59.5q-45 -12 -82 -40.5t-37 -88.5q0 -59 48 -81.5t114 -22.5h190q174 0 260 -69.5t86 -192.5q0 -78 -30.5 -145.5t-90 -116.5t-144.5 -78t-191 -29q-96 0 -165 23.5t-115 63.5t-67.5 92.5t-21.5 109.5zM121 -334 q0 -94 72.5 -158.5t222.5 -64.5q184 0 275 81t91 210q0 90 -61.5 142t-212.5 52h-209q-70 -31 -124 -100.5t-54 -161.5zM281 459q0 -102 64.5 -169t166.5 -67q59 0 115.5 22.5t99.5 63.5t68.5 96.5t25.5 120.5q0 51 -17.5 95.5t-49 76t-74.5 50t-92 18.5q-61 0 -116.5 -23.5 t-97.5 -65.5t-67.5 -98.5t-25.5 -119.5z" />
<glyph unicode="h" horiz-adv-x="1028" d="M156 0l188 1337h84l-88 -630q25 20 58.5 43.5t75.5 44t92 33t110 12.5q154 0 226 -96q55 -72 55 -184q0 -36 -5 -75l-67 -485h-84l69 485q4 32 4 61q0 87 -40 143q-54 75 -177 75q-55 0 -104 -14.5t-91 -36t-76 -48t-58 -51.5l-88 -614h-84z" />
<glyph unicode="i" horiz-adv-x="411" d="M164 0l115 819h83l-114 -819h-84zM297 1114q0 29 21.5 51.5t52.5 22.5q25 0 41 -16.5t16 -41.5q0 -31 -22.5 -51t-51.5 -20q-27 0 -42 15t-15 40z" />
<glyph unicode="j" horiz-adv-x="411" d="M-176 -526l10 75q35 -6 66 -6q94 0 147 53q70 70 88 205l144 1018h83l-143 -1018q-27 -184 -125 -268q-76 -65 -195 -65q-36 0 -75 6zM299 1114q0 29 21.5 51.5t52.5 22.5q25 0 41 -16.5t16 -41.5q0 -31 -23.5 -51t-52.5 -20q-25 0 -40 15t-15 40z" />
<glyph unicode="k" horiz-adv-x="872" d="M156 0l188 1337h84l-125 -878l496 360h127l-432 -315l358 -504h-111l-319 457l-131 -95l-51 -362h-84z" />
<glyph unicode="l" horiz-adv-x="403" d="M160 0l188 1337h84l-188 -1337h-84z" />
<glyph unicode="m" horiz-adv-x="1558" d="M147 0l115 819h76l-6 -112q23 20 54.5 42.5t71.5 43t87 34t100 13.5q92 0 151.5 -41t86.5 -115q78 72 165 114t185 42q139 0 207 -94q51 -71 50 -177q0 -34 -5 -73l-70 -496h-84l70 496q4 31 4 58q0 84 -36 138q-48 72 -152 72q-102 0 -181.5 -49.5t-134.5 -106.5 q2 -27 1 -55.5t-5 -56.5l-70 -496h-84l70 496q4 31 4 58q0 84 -36 138q-48 72 -152 72q-51 0 -95.5 -13.5t-83 -34t-71.5 -46t-60 -52.5l-88 -618h-84z" />
<glyph unicode="n" horiz-adv-x="1019" d="M147 0l115 819h76l-8 -117q25 20 58.5 45t76.5 45.5t93 34t110 13.5q154 0 226 -96q55 -72 55 -184q0 -36 -5 -75l-67 -485h-84l69 485q4 32 4 60q0 87 -41 144q-55 75 -178 75q-55 0 -105 -14.5t-91 -37t-75 -50t-59 -52.5l-86 -610h-84z" />
<glyph unicode="o" horiz-adv-x="1021" d="M141 358q0 98 39 185.5t105.5 153t154.5 104.5t187 39q80 0 147.5 -30t116.5 -81t75.5 -119.5t26.5 -148.5q0 -98 -40 -185.5t-106.5 -153t-154.5 -103t-184 -37.5q-82 0 -149.5 29.5t-115.5 79.5t-75 118.5t-27 148.5zM227 362q0 -68 20.5 -123t59.5 -96t91.5 -63.5 t117.5 -22.5q78 0 149.5 31t126 84t86 126t31.5 159q0 68 -21.5 124t-60.5 97t-93 63.5t-118 22.5q-80 0 -150.5 -31t-123.5 -85t-84 -127t-31 -159z" />
<glyph unicode="p" horiz-adv-x="1050" d="M74 -512l188 1331h78l-14 -143q59 74 150 119t198 45q82 0 145.5 -28t107.5 -77t67.5 -115.5t23.5 -144.5q0 -102 -34 -192t-96.5 -157t-148.5 -105.5t-190 -38.5t-183 44t-114 124l-94 -662h-84zM279 362q0 -63 18 -118.5t54 -97.5t89 -65.5t121 -23.5q84 0 152.5 33 t118 89.5t76 130t26.5 153.5q0 61 -18.5 115.5t-53.5 96.5t-86 65.5t-114 23.5q-88 0 -159 -32t-121 -86t-76.5 -128t-26.5 -156z" />
<glyph unicode="q" horiz-adv-x="1050" d="M145 350q0 102 35 191.5t97.5 156t147.5 104.5t187 38q106 0 183 -45t118 -119l27 143h78l-189 -1331h-84l93 662q-55 -80 -147.5 -124t-196.5 -44q-84 0 -148.5 27.5t-110 76.5t-68 116.5t-22.5 147.5zM231 362q0 -63 17.5 -118.5t51.5 -97.5t85 -65.5t117 -23.5 q88 0 158.5 33t120.5 89.5t77 131t27 156.5q0 63 -18.5 117.5t-54.5 94.5t-88 62.5t-122 22.5q-80 0 -147.5 -33t-116.5 -88t-78 -128t-29 -153z" />
<glyph unicode="r" horiz-adv-x="622" d="M147 0l115 819h76l-8 -117q23 18 57.5 43t81.5 45.5t107 29.5q28 4 59 4q35 0 74 -5l-11 -76q-38 5 -72 5q-30 0 -57 -4q-57 -9 -103 -30.5t-83 -49t-66 -54.5l-86 -610h-84z" />
<glyph unicode="s" horiz-adv-x="776" d="M102 174h84q2 -20 15.5 -40.5t39 -38t63.5 -29t91 -11.5q47 0 90 10.5t77 31t53.5 52t19.5 76.5q0 72 -61.5 107t-157.5 57q-45 10 -85 26.5t-71 41t-49 57.5t-18 80t20 91t60 79t98.5 55.5t132.5 20.5q61 0 108 -16.5t79 -44t49.5 -62.5t19.5 -72h-86q-2 20 -11.5 42 t-31 39t-55 28.5t-82.5 11.5q-102 0 -160 -45t-58 -117q0 -63 50.5 -93t136.5 -52q51 -12 98 -29.5t82 -43.5t55.5 -61.5t20.5 -86.5q0 -66 -28.5 -113t-75 -80t-108 -48t-124.5 -15t-114.5 15t-87.5 42t-56.5 61.5t-22.5 73.5z" />
<glyph unicode="t" horiz-adv-x="634" d="M131 748l10 71h183l61 291h64l-41 -291h270l-10 -71h-271l-71 -510q-5 -31 -4 -57q0 -19 2 -34q6 -36 24.5 -56.5t47 -28t65.5 -7.5q45 0 73.5 4t53.5 11l-10 -70q-53 -18 -127 -18q-53 0 -97.5 12t-71.5 40q-28 30 -40 80q-6 26 -5 57q0 31 5 67l71 510h-182z" />
<glyph unicode="u" horiz-adv-x="999" d="M186 313l72 506h84l-72 -506q-5 -35 -5 -65q0 -84 37 -130q50 -62 153 -63q59 0 112.5 16.5t97.5 43t77.5 58.5t58.5 63l82 583h84l-115 -819h-80l16 139q-25 -27 -57.5 -55.5t-75.5 -51t-96 -37.5t-117 -15q-138 0 -208 84q-54 64 -53 175q0 35 5 74z" />
<glyph unicode="v" horiz-adv-x="868" d="M139 819h86l228 -690l419 690h86l-532 -860z" />
<glyph unicode="w" horiz-adv-x="1200" d="M156 819h77l136 -645l350 674l158 -674l319 645h78l-422 -860l-162 676l-358 -676z" />
<glyph unicode="x" horiz-adv-x="876" d="M41 0l405 430l-256 389h101l217 -325l307 325h100l-368 -389l289 -430h-101l-243 369l-351 -369h-100z" />
<glyph unicode="y" horiz-adv-x="884" d="M72 -512l342 557l-271 774h84l238 -692l424 692h86l-821 -1331h-82z" />
<glyph unicode="z" horiz-adv-x="780" d="M37 0l663 750h-497l8 69h643l-666 -749h541l-8 -70h-684z" />
<glyph unicode="{" horiz-adv-x="610" d="M162 416l10 82q43 20 78 43.5t61.5 55.5t45 77t26.5 106l59 428q25 178 116 255t228 81l-10 -80q-102 0 -166.5 -60.5t-85.5 -211.5l-57 -397q-10 -78 -30.5 -131.5t-48.5 -91t-62.5 -64.5t-75.5 -51q33 -25 60.5 -51.5t45 -64.5t22.5 -91t-5 -131l-56 -398 q-23 -152 24.5 -212t150.5 -60l-11 -80q-137 2 -205.5 81t-44.5 255l60 428q8 61 3 106.5t-22.5 77t-45 55t-64.5 44.5z" />
<glyph unicode="|" horiz-adv-x="493" d="M145 -410l289 2048h84l-289 -2048h-84z" />
<glyph unicode="}" horiz-adv-x="610" d="M-47 -631l10 80q102 0 166 60.5t86 211.5l55 398q10 78 31 131t48.5 91t62 64.5t75.5 51.5q-33 25 -60.5 51.5t-44.5 64t-22.5 91t5.5 131.5l57 397q20 152 -26 212t-148 60l10 80q137 -4 205.5 -82t44.5 -254l-59 -428q-8 -61 -3 -106t21 -77t45 -55.5t66 -43.5l-11 -82 q-43 -20 -77.5 -44t-61.5 -55.5t-45 -76.5t-27 -107l-59 -428q-25 -178 -116 -255t-228 -81z" />
<glyph unicode="~" d="M233 432q51 66 122 115t169 49q47 0 89 -17.5t82 -38t78 -38t75 -17.5q111 0 182 127l84 -43q-51 -78 -122.5 -126t-155.5 -48q-49 0 -90 18.5t-79 40t-76 40t-81 18.5q-61 0 -108.5 -29.5t-88.5 -89.5z" />
<glyph unicode="&#xa1;" horiz-adv-x="552" d="M147 -610l150 1065h84l-150 -1065h-84zM303 756q0 35 27.5 61.5t62.5 26.5q31 0 51.5 -21.5t20.5 -50.5q0 -35 -28.5 -61.5t-63.5 -26.5q-29 0 -49.5 21.5t-20.5 50.5z" />
<glyph unicode="&#xa2;" d="M246 358q0 92 35.5 175t97 147.5t142.5 105.5t173 52l29 186h84l-29 -186q127 -10 213 -78t105 -172h-84q-18 68 -79 117t-165 57l-98 -705q104 8 182 56.5t117 119.5h84q-51 -111 -158 -175t-236 -74l-26 -189h-84l26 189q-74 8 -134 39.5t-104 82t-67.5 115 t-23.5 137.5zM330 365q0 -123 70.5 -206t185.5 -100l98 703q-72 -10 -136.5 -44t-112.5 -86t-76.5 -120.5t-28.5 -146.5z" />
<glyph unicode="&#xa3;" d="M152 0l10 84h104q57 25 118.5 73t114 108.5t86 125t33.5 121.5v17.5t-2 17.5h-268l10 76h244q-18 55 -53 104t-69 99.5t-58.5 106.5t-24.5 124q0 72 31 142.5t88 126.5t138 91t184 35q92 0 163.5 -33t116.5 -89t58.5 -134t-7.5 -168h-88q29 152 -35.5 246t-218.5 94 q-80 0 -142 -27.5t-107.5 -71.5t-69 -98.5t-23.5 -105.5q0 -61 27 -115.5t61.5 -106.5t69.5 -105.5t51 -114.5h301l-10 -76h-278v-27.5t-2 -27.5q-10 -63 -42 -124t-75 -114t-92.5 -96t-92.5 -74h687l-11 -84h-927z" />
<glyph unicode="&#xa4;" horiz-adv-x="1265" d="M182 193l103 90q-39 53 -59.5 124.5t-20.5 147.5q0 113 46 210t124 175l-74 88l66 59l73 -88q76 59 166 92t187 33q94 0 174 -32.5t139 -90.5l96 86l53 -59l-100 -86q39 -53 59.5 -123.5t20.5 -146.5q0 -113 -48 -212.5t-128 -178.5l78 -88l-70 -60l-78 90 q-72 -55 -161 -87t-181 -32q-94 0 -173 32t-140 87l-103 -90zM293 567q0 -78 27.5 -146.5t76.5 -119.5t117 -81t148 -30q94 0 182 38t155.5 102.5t108.5 149.5t41 182q0 78 -27.5 146.5t-77 119.5t-118 80.5t-148.5 29.5q-96 0 -183 -37.5t-154.5 -102t-107.5 -150 t-40 -181.5z" />
<glyph unicode="&#xa5;" d="M223 553l10 76h412l-86 176h-303l12 76h258l-262 553h94l344 -734l553 734h95l-416 -553h256l-12 -76h-304l-129 -176h410l-10 -76h-416l-80 -553h-88l80 553h-418z" />
<glyph unicode="&#xa6;" horiz-adv-x="493" d="M164 -287l100 711h84l-100 -711h-84zM317 805l101 711h84l-101 -711h-84z" />
<glyph unicode="&#xa7;" d="M211 -162h88q4 -86 72.5 -138t197.5 -52q55 0 111.5 17.5t100.5 51t73 85t29 116.5q0 49 -18.5 85t-54.5 64.5t-86 52t-114 46.5q-66 2 -120 28.5t-93 70.5t-61.5 101t-22.5 123q0 61 20.5 119t56.5 107t84 88t104 63q-78 39 -119 93.5t-41 146.5q0 61 23.5 124.5 t72.5 114t125 82t180 31.5q68 0 125 -20.5t99 -57.5t67 -87t27 -109h-86q-4 86 -68.5 138t-173.5 52q-76 0 -133.5 -22.5t-95 -59.5t-57 -82t-19.5 -88q0 -92 61.5 -139t171.5 -82q70 0 128.5 -26.5t100.5 -70.5t65.5 -103.5t23.5 -127.5q0 -63 -20.5 -120.5t-57.5 -106.5 t-86 -87t-107 -62q90 -45 139.5 -105.5t49.5 -157.5q0 -90 -37 -159.5t-96.5 -116.5t-133 -70.5t-149.5 -23.5q-156 0 -248 76.5t-98 197.5zM406 500q0 -51 17 -95.5t49 -77t75 -51t96 -18.5q63 0 120.5 24.5t101.5 65.5t71 97.5t27 119.5q0 51 -17.5 96.5t-50.5 78t-77 51 t-95 18.5q-61 0 -118.5 -24.5t-101.5 -66.5t-70.5 -98.5t-26.5 -119.5z" />
<glyph unicode="&#xa8;" horiz-adv-x="614" d="M197 1114q0 29 21.5 51.5t51.5 22.5q25 0 41.5 -16.5t16.5 -41.5q0 -31 -22.5 -51t-51.5 -20q-27 0 -42 15t-15 40zM600 1114q0 31 22.5 52.5t51.5 21.5q27 0 42 -16.5t15 -41.5q0 -31 -22.5 -51t-51.5 -20q-27 0 -42 15t-15 40z" />
<glyph unicode="&#xa9;" horiz-adv-x="1800" d="M258 631q0 168 69.5 317.5t187.5 262t270.5 178t318.5 65.5q139 0 257 -51t203 -139t133 -207t48 -254q0 -168 -70.5 -317.5t-187.5 -261t-270.5 -177t-319.5 -65.5q-139 0 -257 50t-203 138t-132 207t-47 254zM348 639q0 -123 42 -226.5t117 -180t177 -119.5t225 -43 q147 0 281.5 56t238 154.5t165 230.5t61.5 284q0 123 -42 227t-117 181t-178.5 120t-223.5 43q-147 0 -282.5 -57.5t-238 -155.5t-164 -230t-61.5 -284zM651 676q0 82 35 156.5t93.5 131t134 89t159.5 32.5q129 0 210 -72.5t110 -189.5h-93q-23 72 -82 125t-157 53 q-66 0 -124 -25.5t-103.5 -68.5t-72 -100t-26.5 -123q0 -53 18.5 -97t51.5 -78t78 -52.5t98 -18.5q98 0 176 53.5t115 131.5h92q-59 -121 -162.5 -195t-232.5 -74q-70 0 -128.5 24.5t-100.5 69t-65.5 102.5t-23.5 126z" />
<glyph unicode="&#xaa;" horiz-adv-x="696" d="M209 983q0 109 76.5 164t242.5 55h160l4 23q12 70 -28.5 109.5t-126.5 39.5q-66 0 -115 -29.5t-68 -76.5h-73q29 80 101.5 125t162.5 45q115 0 173 -57.5t44 -155.5l-57 -406h-64l6 90q-35 -41 -86 -68.5t-137 -27.5q-96 0 -155.5 43t-59.5 127zM281 991 q0 -57 41.5 -85.5t109.5 -28.5q41 0 81 12t72.5 35.5t55.5 58.5t29 78l10 78h-160q-127 0 -183 -37t-56 -111z" />
<glyph unicode="&#xab;" horiz-adv-x="839" d="M164 584l348 346l41 -58l-287 -288l205 -289l-57 -57zM471 584l348 346l41 -58l-287 -288l205 -289l-57 -57z" />
<glyph unicode="&#xac;" d="M221 547l10 76h910l-72 -500h-76l62 424h-834z" />
<glyph unicode="&#xad;" horiz-adv-x="409" d="M80 573l10 82h410l-11 -82h-409z" />
<glyph unicode="&#xae;" horiz-adv-x="1800" d="M258 631q0 168 69.5 317.5t187.5 262t270.5 178t318.5 65.5q139 0 257 -51t203 -139t133 -207t48 -254q0 -168 -70.5 -317.5t-187.5 -261t-270.5 -177t-319.5 -65.5q-139 0 -257 50t-203 138t-132 207t-47 254zM348 639q0 -123 42 -226.5t117 -180t177 -119.5t225 -43 q147 0 281.5 56t238 154.5t165 230.5t61.5 284q0 123 -42 227t-117 181t-178.5 120t-223.5 43q-147 0 -282.5 -57.5t-238 -155.5t-164 -230t-61.5 -284zM739 360l101 713h245q90 0 154 -40t64 -136q0 -115 -66 -168t-160 -65l201 -304h-102l-199 302h-115l-43 -302h-80z M872 739h168q33 0 65 8.5t56.5 24.5t40 44t15.5 67q0 59 -41 83.5t-101 24.5h-166z" />
<glyph unicode="&#xaf;" horiz-adv-x="614" d="M195 1087l10 72h532l-10 -72h-532z" />
<glyph unicode="&#xb0;" horiz-adv-x="802" d="M291 1180q8 55 35.5 105t69.5 89t96.5 61.5t113.5 22.5q61 0 109.5 -22.5t80 -60.5t44 -88t4.5 -107t-36 -108.5t-69 -89.5t-94 -59.5t-113 -21.5q-61 0 -109 21.5t-80 59.5t-46 89.5t-6 108.5zM350 1155q0 -82 52.5 -138t136.5 -56q47 0 92 19t78.5 52t54 78t20.5 94 q0 80 -52 137.5t-134 57.5q-47 0 -92 -19.5t-80 -53.5t-55.5 -78t-20.5 -93z" />
<glyph unicode="&#xb1;" d="M143 0l13 76h921l-12 -76h-922zM225 567l11 76h423l58 401h76l-58 -401h422l-10 -76h-422l-61 -424h-76l61 424h-424z" />
<glyph unicode="&#xb2;" horiz-adv-x="741" d="M238 1075l358 318q23 20 50.5 45.5t52 54.5t42 60.5t17.5 62.5q0 53 -37 87t-103 34q-72 0 -123 -38t-59 -104l-2 -18h-80l2 18q10 92 86 152.5t187 60.5q100 0 156.5 -52t56.5 -134q0 -43 -17.5 -82t-45 -73.5t-60.5 -64.5t-64 -56l-227 -197h381l-10 -74h-561z" />
<glyph unicode="&#xb3;" horiz-adv-x="702" d="M262 1274h80q-4 -61 42 -96t118 -35q86 0 139 47t53 108q0 59 -44 88t-115 33l8 70q88 2 135 39t47 102q0 45 -35 75t-100 30q-68 0 -116 -32t-58 -91h-82q16 92 89 145t177 53q102 0 156.5 -49t54.5 -121q0 -78 -45 -120.5t-104 -63.5q47 -12 82.5 -51t35.5 -105 q0 -47 -20.5 -89t-58 -74.5t-91 -51t-116.5 -18.5q-51 0 -96.5 14.5t-78 41t-49 65.5t-8.5 86z" />
<glyph unicode="&#xb4;" horiz-adv-x="614" d="M279 1098l317 241l53 -88l-332 -196z" />
<glyph unicode="&#xb5;" horiz-adv-x="1003" d="M74 -512l188 1331h84l-72 -506q-18 -133 34 -195.5t167 -62.5q53 0 102.5 16.5t91.5 43t76.5 58.5t59.5 63l82 583h84l-115 -819h-80l15 139q-23 -27 -56 -55.5t-73.5 -51t-91 -37.5t-107.5 -15q-168 0 -221 102l-84 -594h-84z" />
<glyph unicode="&#xb6;" horiz-adv-x="1126" d="M350 1010q0 201 110.5 312.5t362.5 111.5h322l-10 -80h-172q-68 0 -103 -38t-43 -97l-229 -1629h-86l155 1119q-141 -2 -224 79.5t-83 221.5z" />
<glyph unicode="&#xb7;" horiz-adv-x="446" d="M233 629q0 35 28 61.5t63 26.5q31 0 51 -21.5t20 -50.5q0 -35 -28.5 -61.5t-63.5 -26.5q-29 0 -49.5 21.5t-20.5 50.5z" />
<glyph unicode="&#xb8;" horiz-adv-x="614" d="M102 -397l193 315l100 -35l-235 -315z" />
<glyph unicode="&#xb9;" horiz-adv-x="518" d="M291 1665l315 172l-108 -762h-82l90 623l-187 -96z" />
<glyph unicode="&#xba;" horiz-adv-x="784" d="M236 1083q0 72 28.5 136.5t77.5 112.5t114.5 77t137.5 29q59 0 108.5 -21.5t85 -59.5t55 -89t19.5 -109q0 -72 -28.5 -135t-77.5 -111.5t-113.5 -77t-136.5 -28.5q-59 0 -109.5 21.5t-86.5 59.5t-55 88t-19 107zM309 1087q0 -94 56.5 -154.5t148.5 -60.5q55 0 105.5 21.5 t88 59.5t60.5 89.5t23 112.5q0 96 -56.5 156.5t-148.5 60.5q-55 0 -105.5 -21.5t-88.5 -59.5t-60.5 -90.5t-22.5 -113.5z" />
<glyph unicode="&#xbb;" horiz-adv-x="839" d="M145 295l285 289l-203 288l58 58l247 -346l-346 -346zM453 295l284 289l-202 288l57 58l248 -346l-346 -346z" />
<glyph unicode="&#xbc;" horiz-adv-x="1699" d="M322 1300l315 173l-109 -762h-82l91 622l-187 -96zM403 18l1031 1438l67 -41l-1030 -1440zM975 133l590 674l-86 -600h102l-8 -74h-103l-20 -133h-82l21 133h-414zM1126 207h275l53 371z" />
<glyph unicode="&#xbd;" horiz-adv-x="1699" d="M322 1300l315 173l-109 -762h-82l91 622l-187 -96zM403 18l1031 1438l67 -41l-1030 -1440zM1032 0l357 317q23 18 51 44t53 55.5t42 61.5t17 63q0 53 -36.5 87t-102.5 34q-72 0 -123 -38t-59 -104l-2 -18h-80l2 18q10 92 85 152.5t185 60.5q102 0 158.5 -52t56.5 -134 q0 -43 -18.5 -82t-46 -74t-60 -64.5t-63.5 -56.5l-227 -196h381l-11 -74h-559z" />
<glyph unicode="&#xbe;" horiz-adv-x="1699" d="M201 907h80q-4 -61 42 -96t117 -35q86 0 139.5 47t53.5 109q0 59 -44 88t-116 33l8 69q88 2 135.5 39t47.5 103q0 45 -35 74.5t-101 29.5q-68 0 -115.5 -31.5t-58.5 -91.5h-82q16 92 89 145.5t178 53.5q100 0 155.5 -49t55.5 -121q0 -78 -45.5 -121t-104.5 -63 q47 -12 83 -51.5t36 -104.5q0 -47 -20.5 -89t-58.5 -75t-91 -51.5t-117 -18.5q-51 0 -96 14.5t-78 41t-49 65.5t-8 86zM401 18l1029 1438l69 -41l-1030 -1440zM973 133l590 674l-84 -600h102l-10 -74h-103l-18 -133h-82l18 133h-413zM1126 207h275l51 371z" />
<glyph unicode="&#xbf;" horiz-adv-x="1048" d="M18 -266q0 102 41 183t104.5 147.5t141.5 120t150 98.5l34 254h89l-43 -295q-66 -41 -141 -91.5t-139.5 -112t-106.5 -136t-42 -162.5q0 -59 19.5 -111.5t59.5 -91.5t97.5 -60.5t135.5 -21.5q178 0 283.5 94.5t117.5 245.5h88q-4 -90 -46 -168t-109.5 -134t-157.5 -89 t-188 -33q-94 0 -167 28t-122 76t-74 114.5t-25 144.5zM487 756q0 35 28 61.5t63 26.5q29 0 49 -21.5t20 -50.5q0 -35 -28.5 -61.5t-63.5 -26.5q-29 0 -48.5 20.5t-19.5 51.5z" />
<glyph unicode="&#xc0;" horiz-adv-x="1406" d="M49 0h92l258 449h734l133 -449h92l-445 1495zM446 532l439 760l221 -760h-660zM772 1735l78 80l250 -220l-49 -39z" />
<glyph unicode="&#xc1;" horiz-adv-x="1406" d="M49 0h92l258 449h734l133 -449h92l-445 1495zM446 532l439 760l221 -760h-660zM752 1595l315 220l53 -80l-327 -179z" />
<glyph unicode="&#xc2;" horiz-adv-x="1406" d="M49 0l864 1495l445 -1495h-92l-133 449h-734l-258 -449h-92zM446 532h660l-221 760zM688 1606l264 170l215 -170l-47 -47l-180 122l-213 -122z" />
<glyph unicode="&#xc3;" horiz-adv-x="1406" d="M49 0l864 1495l445 -1495h-92l-133 449h-734l-258 -449h-92zM446 532h660l-221 760zM664 1614q25 41 65.5 71.5t91.5 30.5q31 0 61.5 -10t61.5 -22.5t59.5 -22.5t57.5 -10q33 0 58.5 21.5t41.5 43.5l45 -30q-18 -47 -64 -77t-100 -30q-27 0 -57.5 10t-61 23.5t-62.5 24 t-58 10.5q-35 0 -54.5 -19.5t-35.5 -48.5z" />
<glyph unicode="&#xc4;" horiz-adv-x="1406" d="M49 0l864 1495l445 -1495h-92l-133 449h-734l-258 -449h-92zM446 532h660l-221 760zM666 1620q0 29 21.5 48.5t51.5 19.5q25 0 40.5 -15.5t15.5 -38.5q0 -27 -22.5 -45t-51.5 -18q-27 0 -41 13t-14 36zM1069 1620q0 29 21.5 48.5t52.5 19.5q25 0 40 -15.5t15 -38.5 q0 -27 -22.5 -45t-51.5 -18q-27 0 -41 13t-14 36z" />
<glyph unicode="&#xc5;" horiz-adv-x="1406" d="M49 0l864 1495l445 -1495h-92l-133 449h-734l-258 -449h-92zM446 532h660l-221 760zM772 1686q0 33 15.5 63.5t42 53t61.5 36.5t72 14q63 0 107 -39.5t44 -99.5q0 -33 -16.5 -62.5t-43 -53t-61.5 -37t-71 -13.5q-66 0 -108 40t-42 98zM838 1690q0 -39 25.5 -62.5 t64.5 -23.5q47 0 84 30.5t37 75.5q0 39 -27 62.5t-66 23.5q-47 0 -82.5 -30.5t-35.5 -75.5z" />
<glyph unicode="&#xc6;" horiz-adv-x="2068" d="M49 0l1225 1434h870l-14 -84h-782l-74 -531h725l-10 -84h-725l-95 -651h783l-10 -84h-871l64 449h-598l-383 -449h-105zM606 532h539l108 758z" />
<glyph unicode="&#xc7;" horiz-adv-x="1638" d="M213 717q23 154 99.5 288t190 233t257 157.5t299.5 58.5q127 0 231.5 -35t183 -96t131 -147t76.5 -189h-96q-20 76 -64 145.5t-112 122t-158 83t-200 30.5q-139 0 -265.5 -50t-226.5 -138t-167.5 -207t-88.5 -256q-18 -137 15.5 -256t109.5 -207t187.5 -138t250.5 -50 q111 0 212.5 31.5t185.5 86t149.5 126t104.5 153.5h96q-49 -109 -127 -197t-177.5 -152.5t-215 -99t-242.5 -34.5q-156 0 -283 58t-213 157.5t-124.5 233.5t-18.5 288zM637 -397l194 315l99 -35l-234 -315z" />
<glyph unicode="&#xc8;" horiz-adv-x="1222" d="M184 0h912l12 84h-823l92 651h766l10 84h-766l76 531h823l12 84h-911zM741 1735l78 80l252 -220l-51 -39z" />
<glyph unicode="&#xc9;" horiz-adv-x="1222" d="M184 0h912l12 84h-823l92 651h766l10 84h-766l76 531h823l12 84h-911zM723 1595l313 220l54 -80l-328 -179z" />
<glyph unicode="&#xca;" horiz-adv-x="1222" d="M184 0l203 1434h911l-12 -84h-823l-76 -531h766l-10 -84h-766l-92 -651h823l-12 -84h-912zM643 1606l262 170l217 -170l-49 -47l-180 122l-213 -122z" />
<glyph unicode="&#xcb;" horiz-adv-x="1222" d="M184 0l203 1434h911l-12 -84h-823l-76 -531h766l-10 -84h-766l-92 -651h823l-12 -84h-912zM635 1622q0 27 21.5 46.5t52.5 19.5q25 0 40 -15.5t15 -38.5q0 -27 -21.5 -45t-52.5 -18q-25 0 -40 14t-15 37zM1038 1622q0 27 21.5 46.5t52.5 19.5q25 0 40 -15.5t15 -38.5 q0 -27 -21.5 -45t-51.5 -18q-25 0 -40.5 14t-15.5 37z" />
<glyph unicode="&#xcc;" horiz-adv-x="514" d="M213 0h88l203 1434h-88zM326 1735l75 80l252 -220l-49 -39z" />
<glyph unicode="&#xcd;" horiz-adv-x="514" d="M213 0h88l201 1434h-88zM305 1595l313 220l56 -80l-330 -179z" />
<glyph unicode="&#xce;" horiz-adv-x="514" d="M213 0l201 1434h88l-201 -1434h-88zM242 1606l264 170l215 -170l-49 -47l-180 122l-213 -122z" />
<glyph unicode="&#xcf;" horiz-adv-x="514" d="M213 0l203 1434h88l-203 -1434h-88zM219 1620q0 29 20.5 48.5t51.5 19.5q25 0 41 -15.5t16 -38.5q0 -27 -22.5 -45t-53.5 -18q-25 0 -39 13t-14 36zM623 1620q0 29 20.5 48.5t50.5 19.5q25 0 41.5 -15.5t16.5 -38.5q0 -27 -22.5 -45t-53.5 -18q-25 0 -39 13t-14 36z" />
<glyph unicode="&#xd0;" horiz-adv-x="1499" d="M145 598l11 76h123l108 760h479q145 0 260 -47.5t195 -130t123 -196.5t43 -247q0 -170 -59.5 -318.5t-166 -258t-255 -173t-326.5 -63.5h-496l84 598h-123zM283 84h407q160 0 290 55.5t222 152.5t143.5 229t51.5 286q0 117 -37 217t-107.5 172t-171 113t-229.5 41h-391 l-94 -676h462l-10 -76h-463z" />
<glyph unicode="&#xd1;" horiz-adv-x="1527" d="M184 0l207 1466l891 -1290l176 1258h88l-211 -1497l-886 1300l-177 -1237h-88zM727 1614q23 41 65 71.5t93 30.5q31 0 61.5 -10t60 -22.5t58.5 -22.5t57 -10q33 0 59.5 21.5t43.5 43.5l43 -30q-16 -47 -63.5 -77t-100.5 -30q-27 0 -57.5 10t-61.5 23.5t-62.5 24 t-58.5 10.5q-35 0 -54 -19.5t-36 -48.5z" />
<glyph unicode="&#xd2;" horiz-adv-x="1701" d="M209 631q0 -135 47 -254t132 -207t203 -138t257 -50q166 0 319.5 65.5t270 177t187.5 261t71 317.5q0 135 -48.5 254t-133 207t-202.5 139t-257 51q-166 0 -318.5 -65.5t-270.5 -178t-187.5 -262t-69.5 -317.5zM299 639q0 152 61.5 285t165 231t237.5 155.5t281 57.5 q123 0 225.5 -44t177.5 -121t117 -181t42 -227q0 -152 -61.5 -284t-165 -230.5t-237.5 -155.5t-282 -57q-123 0 -225.5 43t-177 119.5t-116.5 181t-42 227.5zM920 1735l77 80l252 -220l-51 -39z" />
<glyph unicode="&#xd3;" horiz-adv-x="1701" d="M209 631q0 -135 47 -254t132 -207t203 -138t257 -50q166 0 319.5 65.5t270 177t187.5 261t71 317.5q0 135 -48.5 254t-133 207t-202.5 139t-257 51q-166 0 -318.5 -65.5t-270.5 -178t-187.5 -262t-69.5 -317.5zM299 639q0 152 61.5 285t165 231t237.5 155.5t281 57.5 q123 0 225.5 -44t177.5 -121t117 -181t42 -227q0 -152 -61.5 -284t-165 -230.5t-237.5 -155.5t-282 -57q-123 0 -225.5 43t-177 119.5t-116.5 181t-42 227.5zM901 1595l313 220l54 -80l-328 -179z" />
<glyph unicode="&#xd4;" horiz-adv-x="1701" d="M209 631q0 168 69.5 317.5t187.5 262t270.5 178t318.5 65.5q139 0 257 -51t202.5 -139t133 -207t48.5 -254q0 -168 -71 -317.5t-187.5 -261t-270 -177t-319.5 -65.5q-139 0 -257 50t-203 138t-132 207t-47 254zM299 639q0 -123 42 -227.5t116.5 -181t177 -119.5 t225.5 -43q147 0 281.5 57t238 155.5t165 230.5t61.5 284q0 123 -42 227t-117 181t-177.5 121t-225.5 44q-147 0 -281 -57.5t-237.5 -155.5t-165 -231t-61.5 -285zM836 1606l264 170l215 -170l-47 -47l-181 122l-213 -122z" />
<glyph unicode="&#xd5;" horiz-adv-x="1701" d="M209 631q0 168 69.5 317.5t187.5 262t270.5 178t318.5 65.5q139 0 257 -51t202.5 -139t133 -207t48.5 -254q0 -168 -71 -317.5t-187.5 -261t-270 -177t-319.5 -65.5q-139 0 -257 50t-203 138t-132 207t-47 254zM299 639q0 -123 42 -227.5t116.5 -181t177 -119.5 t225.5 -43q147 0 281.5 57t238 155.5t165 230.5t61.5 284q0 123 -42 227t-117 181t-177.5 121t-225.5 44q-147 0 -281 -57.5t-237.5 -155.5t-165 -231t-61.5 -285zM811 1614q25 41 67 71.5t93 30.5q31 0 61.5 -10t60 -22.5t58.5 -22.5t57 -10q33 0 59.5 21.5t43.5 43.5 l43 -30q-18 -47 -64.5 -77t-99.5 -30q-27 0 -57.5 10t-61.5 23.5t-62.5 24t-58.5 10.5q-35 0 -54 -19.5t-36 -48.5z" />
<glyph unicode="&#xd6;" horiz-adv-x="1701" d="M209 631q0 168 69.5 317.5t187.5 262t270.5 178t318.5 65.5q139 0 257 -51t202.5 -139t133 -207t48.5 -254q0 -168 -71 -317.5t-187.5 -261t-270 -177t-319.5 -65.5q-139 0 -257 50t-203 138t-132 207t-47 254zM299 639q0 -123 42 -227.5t116.5 -181t177 -119.5 t225.5 -43q147 0 281.5 57t238 155.5t165 230.5t61.5 284q0 123 -42 227t-117 181t-177.5 121t-225.5 44q-147 0 -281 -57.5t-237.5 -155.5t-165 -231t-61.5 -285zM813 1622q0 27 21.5 46.5t52.5 19.5q25 0 40 -15.5t15 -38.5q0 -27 -21.5 -45t-52.5 -18q-25 0 -40 14 t-15 37zM1217 1622q0 27 21.5 46.5t51.5 19.5q25 0 40.5 -15.5t15.5 -38.5q0 -27 -21.5 -45t-52.5 -18q-25 0 -40 14t-15 37z" />
<glyph unicode="&#xd7;" d="M244 240l393 344l-297 344l61 53l295 -344l391 342l46 -53l-390 -342l293 -342l-61 -54l-295 342l-391 -344z" />
<glyph unicode="&#xd8;" horiz-adv-x="1701" d="M209 629q0 168 69.5 318.5t187.5 263t270.5 178t318.5 65.5q90 0 170 -20.5t149 -59.5l193 266l69 -41l-192 -268q117 -86 184.5 -225t67.5 -305q0 -168 -71 -316.5t-187.5 -260t-270 -177t-319.5 -65.5q-176 0 -318 75l-188 -262l-68 43l187 262q-119 86 -185.5 225.5 t-66.5 303.5zM299 639q0 -147 57.5 -269t157.5 -196l809 1126q-59 33 -130 50.5t-149 17.5q-147 0 -282 -57.5t-237.5 -155.5t-164 -231t-61.5 -285zM584 131q123 -63 276 -63q147 0 281.5 57t238 155.5t165 230.5t61.5 284q0 145 -57.5 267t-159.5 195z" />
<glyph unicode="&#xd9;" horiz-adv-x="1441" d="M258 349.5q16 -111.5 71.5 -192.5t152 -128t237.5 -47t249.5 47t187.5 128t127 192.5t67 240.5l118 844h-88l-118 -844q-16 -111 -53.5 -207t-101 -167t-156.5 -110.5t-220 -39.5t-208 39.5t-125 110.5t-55 167t5 207l119 844h-88l-119 -844q-18 -129 -2 -240.5z M791 1735l77 80l252 -220l-51 -39z" />
<glyph unicode="&#xda;" horiz-adv-x="1441" d="M258 349.5q16 -111.5 71.5 -192.5t152 -128t237.5 -47t249.5 47t187.5 128t127 192.5t67 240.5l118 844h-88l-118 -844q-16 -111 -53.5 -207t-101 -167t-156.5 -110.5t-220 -39.5t-208 39.5t-125 110.5t-55 167t5 207l119 844h-88l-119 -844q-18 -129 -2 -240.5z M772 1595l313 220l54 -80l-328 -179z" />
<glyph unicode="&#xdb;" horiz-adv-x="1441" d="M258 349.5q-16 111.5 2 240.5l119 844h88l-119 -844q-16 -111 -5 -207t55 -167t125 -110.5t208 -39.5t220 39.5t156.5 110.5t100.5 167t54 207l118 844h88l-118 -844q-18 -129 -66.5 -240.5t-127.5 -192.5t-187.5 -128t-249.5 -47t-237.5 47t-152 128t-71.5 192.5z M709 1606l262 170l217 -170l-49 -47l-181 122l-213 -122z" />
<glyph unicode="&#xdc;" horiz-adv-x="1441" d="M258 349.5q-16 111.5 2 240.5l119 844h88l-119 -844q-16 -111 -5 -207t55 -167t125 -110.5t208 -39.5t220 39.5t156.5 110.5t100.5 167t54 207l118 844h88l-118 -844q-18 -129 -66.5 -240.5t-127.5 -192.5t-187.5 -128t-249.5 -47t-237.5 47t-152 128t-71.5 192.5z M684 1622q0 27 21.5 46.5t52.5 19.5q25 0 40 -15.5t15 -38.5q0 -27 -21.5 -45t-52.5 -18q-25 0 -40 14t-15 37zM1087 1622q0 27 21.5 46.5t52.5 19.5q25 0 40.5 -15.5t15.5 -38.5q0 -27 -21.5 -45t-52.5 -18q-25 0 -40.5 14t-15.5 37z" />
<glyph unicode="&#xdd;" horiz-adv-x="1163" d="M236 1434l391 -816l-88 -618h88l88 618l618 816h-94l-559 -734l-350 734h-94zM635 1595l311 220l53 -80l-325 -179z" />
<glyph unicode="&#xde;" horiz-adv-x="1128" d="M184 0l203 1434h88l-41 -287h277q88 0 164.5 -18.5t134 -59.5t90.5 -105.5t33 -158.5q0 -121 -42 -207t-115 -139t-169 -78t-203 -25h-280l-52 -356h-88zM334 440h280q84 0 162 17.5t137.5 58.5t95 108.5t35.5 170.5q0 74 -26.5 125t-73.5 82.5t-109.5 46t-136.5 14.5 h-276z" />
<glyph unicode="&#xdf;" horiz-adv-x="1021" d="M160 0l141 993q23 164 117 258.5t264 94.5q51 0 97 -16.5t80 -46.5t53.5 -72t19.5 -95q0 -86 -54.5 -156.5t-134.5 -103.5q123 -31 192 -126t69 -236q0 -117 -42 -207t-112 -153.5t-161 -100.5t-191 -45l12 75q84 12 158.5 42t130 81.5t88.5 126t33 174.5 q0 145 -83 229.5t-223 100.5l13 76q104 2 162.5 63.5t58.5 157.5q0 72 -50 114t-128 42q-131 0 -199 -72t-86 -205l-141 -993h-84z" />
<glyph unicode="&#xe0;" horiz-adv-x="933" d="M119 217q0 -111 80 -169t209 -58q121 0 197.5 45t123.5 104l-14 -139h76l77 551q18 133 -59.5 211t-230.5 78q-123 0 -221.5 -58.5t-135.5 -160.5h82q29 68 97.5 106.5t166.5 38.5q123 0 179.5 -55.5t39.5 -159.5l-6 -37h-225q-229 0 -332.5 -78t-103.5 -219zM203 227 q0 111 78.5 162t261.5 51h227l-16 -112q-10 -63 -41 -112.5t-77 -83.5t-102.5 -51.5t-113.5 -17.5q-98 0 -157.5 42t-59.5 122zM469 1251l80 88l248 -241l-52 -43z" />
<glyph unicode="&#xe1;" horiz-adv-x="933" d="M119 217q0 -111 80 -169t209 -58q121 0 197.5 45t123.5 104l-14 -139h76l77 551q18 133 -59.5 211t-230.5 78q-123 0 -221.5 -58.5t-135.5 -160.5h82q29 68 97.5 106.5t166.5 38.5q123 0 179.5 -55.5t39.5 -159.5l-6 -37h-225q-229 0 -332.5 -78t-103.5 -219zM203 227 q0 111 78.5 162t261.5 51h227l-16 -112q-10 -63 -41 -112.5t-77 -83.5t-102.5 -51.5t-113.5 -17.5q-98 0 -157.5 42t-59.5 122zM449 1098l317 241l51 -88l-330 -196z" />
<glyph unicode="&#xe2;" horiz-adv-x="933" d="M119 217q0 141 103.5 219t332.5 78h225l6 37q16 104 -40 159.5t-179 55.5q-98 0 -166.5 -39t-97.5 -106h-82q37 102 135.5 160.5t221.5 58.5q154 0 231.5 -78t58.5 -211l-77 -551h-76l14 139q-47 -59 -124 -104t-197 -45q-129 0 -209 58t-80 169zM203 227 q0 -80 59.5 -122t157.5 -42q57 0 113.5 17.5t102.5 51.5t76.5 83t41.5 113l16 112h-227q-182 0 -261 -51t-79 -162zM385 1108l264 188l215 -188l-51 -51l-178 135l-215 -135z" />
<glyph unicode="&#xe3;" horiz-adv-x="933" d="M119 217q0 141 103.5 219t332.5 78h225l6 37q16 104 -40 159.5t-179 55.5q-98 0 -166.5 -39t-97.5 -106h-82q37 102 135.5 160.5t221.5 58.5q154 0 231.5 -78t58.5 -211l-77 -551h-76l14 139q-47 -59 -124 -104t-197 -45q-129 0 -209 58t-80 169zM203 227 q0 -80 59.5 -122t157.5 -42q57 0 113.5 17.5t102.5 51.5t76.5 83t41.5 113l16 112h-227q-182 0 -261 -51t-79 -162zM360 1118q23 45 65 79t93 34q31 0 61.5 -11.5t60.5 -24.5t58.5 -24.5t57.5 -11.5q33 0 59.5 23.5t42.5 48.5l45 -35q-20 -51 -66 -84t-100 -33 q-27 0 -57.5 11.5t-61 25.5t-62.5 25.5t-58 11.5q-35 0 -54.5 -21.5t-35.5 -52.5z" />
<glyph unicode="&#xe4;" horiz-adv-x="933" d="M119 217q0 141 103.5 219t332.5 78h225l6 37q16 104 -40 159.5t-179 55.5q-98 0 -166.5 -39t-97.5 -106h-82q37 102 135.5 160.5t221.5 58.5q154 0 231.5 -78t58.5 -211l-77 -551h-76l14 139q-47 -59 -124 -104t-197 -45q-129 0 -209 58t-80 169zM203 227 q0 -80 59.5 -122t157.5 -42q57 0 113.5 17.5t102.5 51.5t76.5 83t41.5 113l16 112h-227q-182 0 -261 -51t-79 -162zM360 1114q0 29 20.5 51.5t51.5 22.5q25 0 41 -16.5t16 -41.5q0 -31 -22.5 -51t-52.5 -20q-25 0 -39.5 15t-14.5 40zM764 1114q0 29 20.5 51.5t51.5 22.5 q25 0 41 -16.5t16 -41.5q0 -31 -22.5 -51t-53.5 -20q-25 0 -39 15t-14 40z" />
<glyph unicode="&#xe5;" horiz-adv-x="933" d="M119 217q0 141 103.5 219t332.5 78h225l6 37q16 104 -40 159.5t-179 55.5q-98 0 -166.5 -39t-97.5 -106h-82q37 102 135.5 160.5t221.5 58.5q154 0 231.5 -78t58.5 -211l-77 -551h-76l14 139q-47 -59 -124 -104t-197 -45q-129 0 -209 58t-80 169zM203 227 q0 -80 59.5 -122t157.5 -42q57 0 113.5 17.5t102.5 51.5t76.5 83t41.5 113l16 112h-227q-182 0 -261 -51t-79 -162zM465 1184q0 37 16.5 71.5t44 60t62 41t71.5 15.5q66 0 108 -45t42 -106q0 -37 -16.5 -72t-44 -60.5t-63.5 -41t-73 -15.5q-63 0 -105 45t-42 107zM532 1188 q0 -41 25 -66.5t66 -25.5q47 0 83.5 34.5t36.5 83.5q0 41 -25.5 68t-66.5 27q-47 0 -83 -35t-36 -86z" />
<glyph unicode="&#xe6;" horiz-adv-x="1564" d="M117 203q0 127 102.5 198.5t329.5 71.5h227l10 78q14 104 -41 159.5t-178 55.5q-98 0 -166.5 -39t-97.5 -106h-82q37 102 135.5 160.5t221.5 58.5t195.5 -50.5t88.5 -140.5q66 86 158 138.5t201 52.5q74 0 132 -26t100 -71t64.5 -105t22.5 -128q0 -35 -6 -62.5t-12 -48.5 h-676q-6 -72 8 -134t47 -109t87 -74t128 -27q119 0 188.5 53.5t98.5 124.5h82q-39 -111 -139.5 -181t-241.5 -70q-133 0 -211 59t-113 158q-59 -113 -158.5 -161t-211.5 -48q-131 0 -212 56t-81 157zM199 211q0 -72 60.5 -110t158.5 -38q57 0 114.5 17.5t104.5 54.5t80 92.5 t43 128.5q0 10 1 21.5t3 21.5h-225q-182 0 -261 -47t-79 -141zM858 473h598q8 57 -5 110.5t-46 94.5t-82.5 64.5t-112.5 23.5q-129 0 -225 -78t-127 -215z" />
<glyph unicode="&#xe7;" horiz-adv-x="985" d="M145 358q0 98 38 185.5t104.5 153t154.5 104.5t189 39q141 0 233 -70t111 -182h-84q-18 74 -84.5 125t-185.5 51q-80 0 -152 -31t-125 -85t-84 -128t-31 -158q0 -68 20.5 -123t59.5 -96t93.5 -63.5t119.5 -22.5q119 0 202 49.5t124 126.5h84q-53 -117 -166 -184t-254 -67 q-82 0 -149.5 29.5t-115.5 79.5t-75 119t-27 148zM309 -397l193 315l100 -35l-235 -315z" />
<glyph unicode="&#xe8;" horiz-adv-x="993" d="M145 352q0 -78 25 -145.5t72 -117.5t115.5 -78.5t156.5 -28.5q70 0 134.5 18t116.5 52t91 80t57 101h-82q-33 -72 -110.5 -125t-196.5 -53q-150 0 -228.5 89t-68.5 233h717q10 25 15.5 56.5t5.5 55.5q0 70 -22.5 133.5t-65.5 111.5t-105.5 77t-144.5 29 q-100 0 -187.5 -39t-153 -105.5t-103.5 -154.5t-38 -189zM242 451q14 68 49 126t84 100t110 65.5t131 23.5q74 0 127.5 -27.5t86 -71.5t46 -101.5t5.5 -114.5h-639zM498 1251l75 88l250 -241l-51 -43z" />
<glyph unicode="&#xe9;" horiz-adv-x="993" d="M145 352q0 -78 25 -145.5t72 -117.5t115.5 -78.5t156.5 -28.5q70 0 134.5 18t116.5 52t91 80t57 101h-82q-33 -72 -110.5 -125t-196.5 -53q-150 0 -228.5 89t-68.5 233h717q10 25 15.5 56.5t5.5 55.5q0 70 -22.5 133.5t-65.5 111.5t-105.5 77t-144.5 29 q-100 0 -187.5 -39t-153 -105.5t-103.5 -154.5t-38 -189zM242 451q14 68 49 126t84 100t110 65.5t131 23.5q74 0 127.5 -27.5t86 -71.5t46 -101.5t5.5 -114.5h-639zM475 1098l316 241l55 -88l-332 -196z" />
<glyph unicode="&#xea;" horiz-adv-x="993" d="M145 352q0 100 38 188.5t103.5 155t152.5 105.5t188 39q82 0 144.5 -29t105.5 -77t65.5 -111.5t22.5 -133.5q0 -25 -5.5 -56.5t-15.5 -55.5h-717q-10 -143 69 -232.5t228 -89.5q119 0 197 53.5t110 124.5h82q-18 -55 -57 -101t-91 -80t-116.5 -52t-134.5 -18 q-88 0 -156.5 28.5t-115.5 78.5t-72 117.5t-25 145.5zM242 451h639q8 57 -5.5 114.5t-46 101.5t-86 71.5t-127.5 27.5q-70 0 -131 -23.5t-110 -65.5t-84 -100.5t-49 -125.5zM412 1108l264 188l215 -188l-49 -51l-180 135l-213 -135z" />
<glyph unicode="&#xeb;" horiz-adv-x="993" d="M145 352q0 100 38 188.5t103.5 155t152.5 105.5t188 39q82 0 144.5 -29t105.5 -77t65.5 -111.5t22.5 -133.5q0 -25 -5.5 -56.5t-15.5 -55.5h-717q-10 -143 69 -232.5t228 -89.5q119 0 197 53.5t110 124.5h82q-18 -55 -57 -101t-91 -80t-116.5 -52t-134.5 -18 q-88 0 -156.5 28.5t-115.5 78.5t-72 117.5t-25 145.5zM242 451h639q8 57 -5.5 114.5t-46 101.5t-86 71.5t-127.5 27.5q-70 0 -131 -23.5t-110 -65.5t-84 -100.5t-49 -125.5zM385 1114q0 29 21.5 51.5t52.5 22.5q25 0 41 -16.5t16 -41.5q0 -31 -22.5 -51t-51.5 -20 q-27 0 -42 15t-15 40zM788 1114q0 31 23 52.5t51 21.5q27 0 42.5 -16.5t15.5 -41.5q0 -31 -23 -51t-51 -20q-27 0 -42.5 15t-15.5 40z" />
<glyph unicode="&#xec;" horiz-adv-x="411" d="M164 0h84l114 819h-83zM209 1251l78 88l248 -241l-50 -43z" />
<glyph unicode="&#xed;" horiz-adv-x="411" d="M164 0h84l114 819h-83zM188 1098l318 241l53 -88l-332 -196z" />
<glyph unicode="&#xee;" horiz-adv-x="411" d="M125 1108l266 188l213 -188l-51 -51l-178 135l-215 -135zM164 0l117 819h84l-117 -819h-84z" />
<glyph unicode="&#xef;" horiz-adv-x="411" d="M96 1114q0 29 21.5 51.5t52.5 22.5q25 0 41 -16.5t16 -41.5q0 -31 -22.5 -51t-50.5 -20q-27 0 -42.5 15t-15.5 40zM164 0l115 819h83l-114 -819h-84zM500 1114q0 29 21.5 51.5t51.5 22.5q25 0 41.5 -16.5t16.5 -41.5q0 -31 -22.5 -51t-51.5 -20q-27 0 -42 15t-15 40z" />
<glyph unicode="&#xf0;" horiz-adv-x="1069" d="M143 369q0 106 42 193t111 148.5t155 95.5t176 34q74 0 132 -18.5t101 -44t70.5 -52.5t38.5 -41q-6 123 -55.5 219t-116.5 166l-181 -96l-28 65l153 82q-68 57 -133 90t-110 47l47 70q59 -23 133 -61.5t145 -102.5l178 97l27 -66l-151 -82q74 -78 123 -198.5t49 -280.5 q0 -131 -35 -250t-103.5 -208t-168 -142t-228.5 -53q-80 0 -147.5 30.5t-117.5 82.5t-78 123t-28 153zM227 375q0 -66 22.5 -124t61.5 -101.5t93.5 -69t119.5 -25.5q90 0 164 38t130 100.5t92 143.5t51 167q4 20 4 34.5t2 30.5q-2 2 -23.5 33t-63.5 67t-105.5 64.5 t-149.5 28.5q-74 0 -145.5 -28.5t-128 -81t-90.5 -123t-34 -154.5z" />
<glyph unicode="&#xf1;" horiz-adv-x="1019" d="M147 0l115 819h76l-8 -117q25 20 58.5 45t76.5 45.5t93 34t110 13.5q154 0 226.5 -95.5t49.5 -259.5l-67 -485h-84l69 485q18 129 -37 204t-178 75q-55 0 -105 -14.5t-91 -37t-75 -50t-59 -52.5l-86 -610h-84zM399 1118q27 45 68 79t92 34q31 0 61.5 -11.5t61.5 -24.5 t59.5 -24.5t57.5 -11.5q33 0 59.5 23.5t40.5 48.5l45 -35q-20 -51 -66.5 -84t-99.5 -33q-27 0 -57.5 11.5t-61 25.5t-61.5 25.5t-57 11.5q-35 0 -55.5 -21.5t-36.5 -52.5z" />
<glyph unicode="&#xf2;" horiz-adv-x="1021" d="M141 358q0 -80 27 -148.5t75 -118.5t115.5 -79.5t149.5 -29.5q96 0 184 37.5t154.5 103t106.5 152.5t40 186q0 80 -26.5 148.5t-75.5 119.5t-116.5 81t-147.5 30q-98 0 -186.5 -39t-155 -104.5t-105.5 -153t-39 -185.5zM227 362q0 86 31 159t84 127t124 85t150 31 q63 0 117.5 -22.5t93.5 -63.5t60.5 -97.5t21.5 -123.5q0 -86 -31.5 -159t-86 -126t-126 -84t-149.5 -31q-66 0 -118 22.5t-91 63.5t-59.5 96t-20.5 123zM512 1251l78 88l248 -241l-50 -43z" />
<glyph unicode="&#xf3;" horiz-adv-x="1021" d="M141 358q0 -80 27 -148.5t75 -118.5t115.5 -79.5t149.5 -29.5q96 0 184 37.5t154.5 103t106.5 152.5t40 186q0 80 -26.5 148.5t-75.5 119.5t-116.5 81t-147.5 30q-98 0 -186.5 -39t-155 -104.5t-105.5 -153t-39 -185.5zM227 362q0 86 31 159t84 127t124 85t150 31 q63 0 117.5 -22.5t93.5 -63.5t60.5 -97.5t21.5 -123.5q0 -86 -31.5 -159t-86 -126t-126 -84t-149.5 -31q-66 0 -118 22.5t-91 63.5t-59.5 96t-20.5 123zM489 1098l318 241l53 -88l-330 -196z" />
<glyph unicode="&#xf4;" horiz-adv-x="1021" d="M141 358q0 98 39 185.5t105.5 153t154.5 104.5t187 39q80 0 147.5 -30t116.5 -81t75.5 -119.5t26.5 -148.5q0 -98 -40 -185.5t-106.5 -153t-154.5 -103t-184 -37.5q-82 0 -149.5 29.5t-115.5 79.5t-75 118.5t-27 148.5zM227 362q0 -68 20.5 -123t59.5 -96t91.5 -63.5 t117.5 -22.5q78 0 149.5 31t126 84t86 126t31.5 159q0 68 -21.5 124t-60.5 97t-93 63.5t-118 22.5q-80 0 -150.5 -31t-123.5 -85t-84 -127t-31 -159zM426 1108l264 188l215 -188l-49 -51l-180 135l-213 -135z" />
<glyph unicode="&#xf5;" horiz-adv-x="1021" d="M141 358q0 98 39 185.5t105.5 153t154.5 104.5t187 39q80 0 147.5 -30t116.5 -81t75.5 -119.5t26.5 -148.5q0 -98 -40 -185.5t-106.5 -153t-154.5 -103t-184 -37.5q-82 0 -149.5 29.5t-115.5 79.5t-75 118.5t-27 148.5zM227 362q0 -68 20.5 -123t59.5 -96t91.5 -63.5 t117.5 -22.5q78 0 149.5 31t126 84t86 126t31.5 159q0 68 -21.5 124t-60.5 97t-93 63.5t-118 22.5q-80 0 -150.5 -31t-123.5 -85t-84 -127t-31 -159zM399 1118q25 45 67 79t93 34q31 0 61.5 -11.5t61.5 -24.5t59.5 -24.5t57.5 -11.5q33 0 58.5 23.5t41.5 48.5l43 -35 q-18 -51 -65.5 -84t-100.5 -33q-27 0 -56.5 11.5t-60 25.5t-61.5 25.5t-57 11.5q-35 0 -55.5 -21.5t-39.5 -52.5z" />
<glyph unicode="&#xf6;" horiz-adv-x="1021" d="M141 358q0 98 39 185.5t105.5 153t154.5 104.5t187 39q80 0 147.5 -30t116.5 -81t75.5 -119.5t26.5 -148.5q0 -98 -40 -185.5t-106.5 -153t-154.5 -103t-184 -37.5q-82 0 -149.5 29.5t-115.5 79.5t-75 118.5t-27 148.5zM227 362q0 -68 20.5 -123t59.5 -96t91.5 -63.5 t117.5 -22.5q78 0 149.5 31t126 84t86 126t31.5 159q0 68 -21.5 124t-60.5 97t-93 63.5t-118 22.5q-80 0 -150.5 -31t-123.5 -85t-84 -127t-31 -159zM399 1114q0 29 21.5 51.5t52.5 22.5q25 0 41 -16.5t16 -41.5q0 -31 -22.5 -51t-50.5 -20q-27 0 -42.5 15t-15.5 40z M803 1114q0 31 22.5 52.5t51.5 21.5q27 0 42 -16.5t15 -41.5q0 -31 -22.5 -51t-51.5 -20q-27 0 -42 15t-15 40z" />
<glyph unicode="&#xf7;" d="M221 547l10 76h922l-10 -76h-922zM561 254q0 35 27.5 61.5t62.5 26.5q31 0 50.5 -20.5t19.5 -51.5q0 -35 -27.5 -61.5t-62.5 -26.5q-29 0 -49.5 21.5t-20.5 50.5zM653 899q0 35 28 61.5t62 26.5q29 0 49.5 -21.5t20.5 -50.5q0 -35 -28.5 -61.5t-63.5 -26.5 q-29 0 -48.5 20.5t-19.5 51.5z" />
<glyph unicode="&#xf8;" horiz-adv-x="1021" d="M94 -162l166 232q-57 49 -88 124.5t-31 161.5q0 98 39 186.5t105.5 155t154.5 104.5t185 38q84 0 163 -35l160 221l68 -41l-160 -221q63 -51 99 -131t36 -172q0 -98 -40 -185.5t-106.5 -153t-154.5 -103t-184 -37.5q-51 0 -96 11t-86 30l-162 -228zM225 362 q0 -68 21.5 -127t60.5 -98l434 602q-59 25 -125 25q-80 0 -150.5 -31t-123.5 -85t-85 -127t-32 -159zM373 90q63 -33 143 -33q78 0 148.5 31t125 84t86 126t31.5 157q0 74 -25.5 137t-72.5 104z" />
<glyph unicode="&#xf9;" horiz-adv-x="999" d="M186 313q-23 -166 48 -249.5t208 -83.5q63 0 116.5 15t96.5 37.5t76 51.5t57 55l-16 -139h80l115 819h-84l-82 -583q-25 -31 -58.5 -63t-77.5 -58.5t-97.5 -43t-112.5 -16.5q-102 0 -152.5 62.5t-32.5 195.5l72 506h-84zM502 1251l78 88l249 -241l-53 -43z" />
<glyph unicode="&#xfa;" horiz-adv-x="999" d="M186 313q-23 -166 48 -249.5t208 -83.5q63 0 116.5 15t96.5 37.5t76 51.5t57 55l-16 -139h80l115 819h-84l-82 -583q-25 -31 -58.5 -63t-77.5 -58.5t-97.5 -43t-112.5 -16.5q-102 0 -152.5 62.5t-32.5 195.5l72 506h-84zM481 1098l316 241l53 -88l-332 -196z" />
<glyph unicode="&#xfb;" horiz-adv-x="999" d="M186 313l72 506h84l-72 -506q-18 -133 32 -195.5t153 -62.5q59 0 112.5 16.5t97.5 43t77.5 58.5t58.5 63l82 583h84l-115 -819h-80l16 139q-25 -27 -57.5 -55.5t-75.5 -51t-96 -37.5t-117 -15q-137 0 -207.5 83.5t-48.5 249.5zM418 1108l264 188l215 -188l-51 -51 l-178 135l-215 -135z" />
<glyph unicode="&#xfc;" horiz-adv-x="999" d="M186 313l72 506h84l-72 -506q-18 -133 32 -195.5t153 -62.5q59 0 112.5 16.5t97.5 43t77.5 58.5t58.5 63l82 583h84l-115 -819h-80l16 139q-25 -27 -57.5 -55.5t-75.5 -51t-96 -37.5t-117 -15q-137 0 -207.5 83.5t-48.5 249.5zM389 1114q0 31 22.5 52.5t53.5 21.5 q25 0 40 -16.5t15 -41.5q0 -31 -21.5 -51t-52.5 -20q-25 0 -41 15t-16 40zM793 1114q0 31 22.5 52.5t52.5 21.5q25 0 40.5 -16.5t15.5 -41.5q0 -31 -21.5 -51t-52.5 -20q-25 0 -41 15t-16 40z" />
<glyph unicode="&#xfd;" horiz-adv-x="884" d="M72 -512h82l821 1331h-86l-424 -692l-238 692h-84l271 -774zM416 1057l317 241l53 -88l-331 -196z" />
<glyph unicode="&#xfe;" horiz-adv-x="1050" d="M76 -512l260 1849h84l-92 -661q59 74 149 119t197 45q82 0 146.5 -28t108.5 -77t67.5 -115.5t23.5 -144.5q0 -102 -34 -192t-96.5 -157t-148.5 -105.5t-190 -38.5t-184 44t-115 124l-92 -662h-84zM281 362q0 -63 18 -118.5t54 -97.5t88 -65.5t122 -23.5q82 0 150.5 33 t118 89.5t77 130t27.5 153.5q0 61 -18.5 115.5t-54.5 96.5t-86 65.5t-113 23.5q-88 0 -159 -32t-121 -86t-76.5 -128t-26.5 -156z" />
<glyph unicode="&#xff;" horiz-adv-x="884" d="M72 -512l342 557l-271 774h84l238 -692l424 692h86l-821 -1331h-82zM332 1114q0 31 22.5 52.5t51.5 21.5q27 0 42 -16.5t15 -41.5q0 -31 -22.5 -51t-53.5 -20q-25 0 -40 15t-15 40zM735 1114q0 31 21.5 52.5t52.5 21.5q25 0 41 -16.5t16 -41.5q0 -31 -22.5 -51t-52.5 -20 q-25 0 -40.5 15t-15.5 40z" />
<glyph unicode="&#x152;" horiz-adv-x="2535" d="M209 631q0 168 69.5 317.5t187.5 262t270.5 178t318.5 65.5q104 0 197.5 -28.5t170 -80t133 -123t91.5 -157.5l53 369h911l-12 -84h-823l-76 -531h766l-10 -84h-766l-95 -651h824l-11 -84h-911l53 369q-59 -86 -136 -158t-168 -123t-192.5 -78.5t-205.5 -27.5 q-139 0 -257 50t-203 138t-132 207t-47 254zM299 639q0 -123 42 -227.5t116.5 -181t177 -119.5t225.5 -43q147 0 281.5 57t238 155.5t165 230.5t61.5 284q0 123 -42 227t-117 181t-177.5 121t-225.5 44q-147 0 -281 -57.5t-237.5 -155.5t-165 -231t-61.5 -285z" />
<glyph unicode="&#x153;" horiz-adv-x="1746" d="M141 358q0 98 40 185.5t106.5 154t154.5 104.5t185 38q127 0 218 -66.5t126 -173.5q63 106 170.5 173t236.5 67q82 0 145.5 -29t106.5 -77t65.5 -111.5t22.5 -133.5q0 -25 -5 -56.5t-15 -55.5h-717q-10 -147 69.5 -234.5t227.5 -87.5q119 0 196.5 53.5t110.5 124.5h82 q-20 -55 -59 -101t-91.5 -80t-116 -52t-132.5 -18q-139 0 -228.5 64.5t-124.5 170.5q-66 -106 -174 -170.5t-235 -64.5q-82 0 -148.5 29.5t-114.5 79.5t-75 119t-27 148zM225 362q0 -68 21.5 -123t59.5 -96t91.5 -63.5t118.5 -22.5q78 0 148.5 30t125 84t86 128t31.5 162 q0 66 -21.5 122t-60.5 96t-92 62.5t-117 22.5q-80 0 -150.5 -31t-123.5 -85t-85 -127t-32 -159zM993 451h639q8 57 -4 114.5t-45 101.5t-87 71.5t-128 27.5q-68 0 -129 -23.5t-110.5 -65.5t-84 -100.5t-51.5 -125.5z" />
<glyph unicode="&#x178;" horiz-adv-x="1163" d="M236 1434h94l350 -734l559 734h94l-618 -816l-88 -618h-88l88 618zM559 1622q0 27 21.5 46.5t52.5 19.5q25 0 40 -15.5t15 -38.5q0 -27 -20.5 -45t-51.5 -18q-25 0 -41 14t-16 37zM963 1622q0 27 21.5 46.5t51.5 19.5q25 0 40.5 -15.5t15.5 -38.5q0 -27 -21.5 -45 t-50.5 -18q-57 0 -57 51z" />
<glyph unicode="&#x2c6;" horiz-adv-x="614" d="M225 1108l267 188l213 -188l-52 -51l-178 135l-215 -135z" />
<glyph unicode="&#x2dc;" horiz-adv-x="614" d="M197 1118q25 45 66.5 79t92.5 34q31 0 62 -11.5t60.5 -24.5t58 -24.5t57.5 -11.5q33 0 59.5 23.5t42.5 48.5l43 -35q-18 -51 -65 -84t-101 -33q-27 0 -56.5 11.5t-60 25.5t-61 25.5t-57.5 11.5q-35 0 -56.5 -21.5t-37.5 -52.5z" />
<glyph unicode="&#x2000;" horiz-adv-x="926" />
<glyph unicode="&#x2001;" horiz-adv-x="1853" />
<glyph unicode="&#x2002;" horiz-adv-x="926" />
<glyph unicode="&#x2003;" horiz-adv-x="1853" />
<glyph unicode="&#x2004;" horiz-adv-x="617" />
<glyph unicode="&#x2005;" horiz-adv-x="463" />
<glyph unicode="&#x2006;" horiz-adv-x="308" />
<glyph unicode="&#x2007;" horiz-adv-x="308" />
<glyph unicode="&#x2008;" horiz-adv-x="231" />
<glyph unicode="&#x2009;" horiz-adv-x="370" />
<glyph unicode="&#x200a;" horiz-adv-x="102" />
<glyph unicode="&#x2010;" horiz-adv-x="782" d="M186 598l11 76h577l-10 -76h-578z" />
<glyph unicode="&#x2011;" horiz-adv-x="782" d="M186 598l11 76h577l-10 -76h-578z" />
<glyph unicode="&#x2012;" horiz-adv-x="782" d="M186 598l11 76h577l-10 -76h-578z" />
<glyph unicode="&#x2013;" horiz-adv-x="819" d="M84 598l10 76h819l-10 -76h-819z" />
<glyph unicode="&#x2014;" horiz-adv-x="1576" d="M248 598l10 76h1249l-10 -76h-1249z" />
<glyph unicode="&#x2018;" horiz-adv-x="436" d="M272 1063l226 383l57 -23l-190 -387z" />
<glyph unicode="&#x2019;" horiz-adv-x="436" d="M231 1059l191 387l92 -27l-225 -383z" />
<glyph unicode="&#x201a;" horiz-adv-x="456" d="M41 -281l215 428l94 -26l-252 -424z" />
<glyph unicode="&#x201c;" horiz-adv-x="704" d="M272 1063l226 383l57 -23l-190 -387zM541 1063l225 383l57 -23l-190 -387z" />
<glyph unicode="&#x201d;" horiz-adv-x="704" d="M231 1059l191 387l92 -27l-225 -383zM500 1059l190 387l92 -27l-225 -383z" />
<glyph unicode="&#x201e;" horiz-adv-x="724" d="M41 -281l215 428l94 -26l-252 -424zM309 -281l215 428l94 -26l-251 -424z" />
<glyph unicode="&#x2022;" horiz-adv-x="921" d="M272 602q0 61 26 117.5t69 99.5t101 67.5t124 24.5q111 0 175 -70.5t64 -172.5q0 -61 -25.5 -116.5t-68.5 -98.5t-101 -68t-124 -25q-111 0 -175.5 71t-64.5 171z" />
<glyph unicode="&#x2026;" horiz-adv-x="1257" d="M150 51q0 35 28.5 61.5t63.5 26.5q31 0 50 -20.5t19 -50.5q0 -35 -28.5 -61.5t-63.5 -26.5q-29 0 -49 20t-20 51zM555 51q0 35 28.5 61.5t63.5 26.5q29 0 49.5 -21.5t20.5 -49.5q0 -35 -29 -61.5t-63 -26.5q-31 0 -50.5 20t-19.5 51zM961 51q0 35 28.5 61.5t63.5 26.5 q29 0 49 -21.5t20 -49.5q0 -35 -28.5 -61.5t-63.5 -26.5q-31 0 -50 20t-19 51z" />
<glyph unicode="&#x202f;" horiz-adv-x="370" />
<glyph unicode="&#x2039;" horiz-adv-x="532" d="M164 584l348 346l41 -58l-287 -288l205 -289l-57 -57z" />
<glyph unicode="&#x203a;" horiz-adv-x="532" d="M145 295l285 289l-203 288l58 58l247 -346l-346 -346z" />
<glyph unicode="&#x205f;" horiz-adv-x="463" />
<glyph unicode="&#x20ac;" d="M152 553l38 76h107v20q0 31 7 78t15 78h-133l37 76h113q33 119 88 222t133 181t181.5 123t230.5 45q123 0 196.5 -36t116.5 -79l-14 -98q-47 53 -118 91t-187 38q-104 0 -192.5 -40t-156 -107.5t-114.5 -155.5t-72 -184h596l-39 -76h-575q-6 -29 -14.5 -74t-8.5 -82v-20 h510l-39 -76h-473q-4 -231 100.5 -361.5t294.5 -130.5q115 0 193 37t147 95l-14 -101q-51 -41 -136 -75.5t-208 -34.5q-111 0 -199 34.5t-149.5 106.5t-93 178.5t-27.5 251.5h-141z" />
<glyph unicode="&#x2122;" horiz-adv-x="1570" d="M272 1350l11 84h520l-10 -84h-220l-90 -629h-84l90 629h-217zM825 721l101 713h78l182 -572l344 572h78l-101 -713h-84l72 498l-303 -498h-51l-158 498l-72 -498h-86z" />
<glyph unicode="&#x25fc;" horiz-adv-x="819" d="M0 0v819h819v-819h-819z" />
<glyph unicode="&#xfb03;" horiz-adv-x="1566" d="M147 748l11 71h159l27 174q27 172 119 262.5t258 90.5q23 0 45 -2.5t39 -6.5l-12 -75q-31 8 -74 8q-135 0 -201.5 -67.5t-89.5 -209.5l-27 -174h480l22 158q25 172 127.5 271.5t282.5 99.5q37 0 78 -3.5t57 -7.5l-12 -75q-16 4 -54.5 7t-72.5 3q-152 0 -226.5 -77 t-95.5 -218l-22 -158h555l-117 -819h-84l106 748h-471l-106 -748h-84l106 748h-477l-106 -748h-84l106 748h-162z" />
<glyph unicode="&#xfb04;" horiz-adv-x="1558" d="M147 748l11 71h159l27 174q27 172 119 262.5t258 90.5q23 0 45 -2.5t39 -6.5l-12 -75q-31 8 -74 8q-135 0 -201.5 -67.5t-89.5 -209.5l-27 -174h480l22 158q25 170 131.5 270.5t302.5 100.5q72 0 137.5 -8.5t110.5 -20.5l-186 -1319h-84l178 1260q-33 4 -77 8t-87 4 q-166 0 -243.5 -77t-98.5 -218l-22 -158h262l-10 -71h-263l-106 -748h-84l106 748h-477l-106 -748h-84l106 748h-162z" />
</font>
</defs>
</svg>
